<svg width="30" height="31" viewBox="0 0 30 31" fill="none" xmlns="http://www.w3.org/2000/svg">
<path d="M13.8125 19.4365L11.5 21.749C11.0125 22.2365 10.2375 22.2365 9.7375 21.7615C9.6 21.624 9.4625 21.499 9.325 21.3615C8.0375 20.0615 6.875 18.699 5.8375 17.274C4.8125 15.849 3.9875 14.424 3.3875 13.0115C2.8 11.5865 2.5 10.224 2.5 8.92402C2.5 8.07402 2.65 7.26152 2.95 6.51152C3.25 5.74902 3.725 5.04902 4.3875 4.42402C5.1875 3.63652 6.0625 3.24902 6.9875 3.24902C7.3375 3.24902 7.6875 3.32402 8 3.47402C8.325 3.62402 8.6125 3.84902 8.8375 4.17402L11.7375 8.26152C11.9625 8.57402 12.125 8.86152 12.2375 9.13652C12.35 9.39902 12.4125 9.66152 12.4125 9.89902C12.4125 10.199 12.325 10.499 12.15 10.7865C11.9875 11.074 11.75 11.374 11.45 11.674L10.5 12.6615C10.3625 12.799 10.3 12.9615 10.3 13.1615C10.3 13.2615 10.3125 13.349 10.3375 13.449C10.375 13.549 10.4125 13.624 10.4375 13.699C10.6625 14.1115 11.05 14.649 11.6 15.299C12.1625 15.949 12.7625 16.6115 13.4125 17.274C13.5375 17.399 13.675 17.524 13.8 17.649C14.3 18.1365 14.3125 18.9365 13.8125 19.4365Z" fill="#4F45E2"/>
<path d="M27.4625 23.6623C27.4625 24.0123 27.4 24.3748 27.275 24.7248C27.2375 24.8248 27.2 24.9248 27.15 25.0248C26.9375 25.4748 26.6625 25.8998 26.3 26.2998C25.6875 26.9748 25.0125 27.4623 24.25 27.7748C24.2375 27.7748 24.225 27.7873 24.2125 27.7873C23.475 28.0873 22.675 28.2498 21.8125 28.2498C20.5375 28.2498 19.175 27.9498 17.7375 27.3373C16.3 26.7248 14.8625 25.8998 13.4375 24.8623C12.95 24.4998 12.4625 24.1373 12 23.7498L16.0875 19.6623C16.4375 19.9248 16.75 20.1248 17.0125 20.2623C17.075 20.2873 17.15 20.3248 17.2375 20.3623C17.3375 20.3998 17.4375 20.4123 17.55 20.4123C17.7625 20.4123 17.925 20.3373 18.0625 20.1998L19.0125 19.2623C19.325 18.9498 19.625 18.7123 19.9125 18.5623C20.2 18.3873 20.4875 18.2998 20.8 18.2998C21.0375 18.2998 21.2875 18.3498 21.5625 18.4623C21.8375 18.5748 22.125 18.7373 22.4375 18.9498L26.575 21.8873C26.9 22.1123 27.125 22.3748 27.2625 22.6873C27.3875 22.9998 27.4625 23.3123 27.4625 23.6623Z" fill="#4F45E2"/>
</svg>
