<svg width="109" height="115" viewBox="0 0 109 115" fill="none" xmlns="http://www.w3.org/2000/svg">
<g clip-path="url(#clip0_10_58684)">
<path d="M83.6529 10.9307C72.4929 2.83825 58.0629 -0.754254 44.3379 1.72075C31.1604 4.09825 19.8579 12.7682 12.0654 23.4107C5.35288 32.5757 2.19538 42.9408 1.85788 53.4258C-2.51462 75.1383 6.94288 99.1832 27.5079 109.128C39.4029 114.881 53.5479 116.246 66.3579 112.263C81.4854 107.561 92.9079 95.9132 100.408 82.2107C107.248 69.7082 109.88 55.4207 105.845 41.7182C102.14 29.1482 94.1679 18.5582 83.6529 10.9307ZM79.3479 32.8907C79.7379 33.3182 80.1129 33.7532 80.4879 34.1957C80.5629 34.2857 80.8029 34.5782 81.0054 34.8257C81.2079 35.0957 81.4929 35.4782 81.5679 35.5907C82.6421 37.1222 83.6263 38.7149 84.5154 40.3607C85.1229 41.5007 85.6704 42.6632 86.2029 43.8332C86.2179 43.8632 86.2254 43.8857 86.2404 43.9157C86.4354 44.4482 86.6229 44.9807 86.8029 45.5207C87.5004 47.6432 88.0104 49.8182 88.3704 52.0307C88.3179 51.8582 88.5354 53.8832 88.5579 54.3707C88.6029 55.5107 88.5954 56.6507 88.5354 57.7982C88.5129 58.1882 88.1454 60.8732 88.3254 60.0182C88.0179 61.6457 87.6504 63.2508 87.1704 64.8408C84.2604 74.5307 76.7304 85.5707 67.9704 90.7757C66.9279 91.3982 65.8404 91.9157 64.7754 92.4857C64.6029 92.5757 64.4679 92.6507 64.3479 92.7107C63.8754 92.8982 63.3879 93.0782 62.9079 93.2432C61.7679 93.6407 60.6129 93.9857 59.4429 94.2783C58.8579 94.4283 58.2729 94.5632 57.6804 94.6832C57.6129 94.6982 56.0529 94.9682 55.9629 95.0132C53.7654 95.2757 51.5304 95.3357 49.3329 95.2457C48.7329 95.2232 48.1329 95.1707 47.5254 95.1407C47.4129 95.1332 47.1054 95.0957 46.8729 95.0732C45.6654 94.8932 44.4729 94.6608 43.2879 94.3832C41.9679 94.0683 40.7004 93.6407 39.4029 93.2582L38.9604 93.1307C38.7579 93.0482 38.5554 92.9582 38.3529 92.8682C38.0529 92.4482 37.7154 92.0358 37.3254 91.6533C35.5104 89.8757 33.8229 88.0082 32.1879 86.0658C32.0304 85.8783 31.9029 85.7282 31.8054 85.6157C31.4829 85.1882 31.1679 84.7532 30.8679 84.3182C29.9559 83.0184 29.0928 81.685 28.2804 80.3207C26.9754 78.1383 25.8654 75.8657 24.7779 73.5632C24.7179 73.4432 24.4779 72.8733 24.4029 72.7158C24.2454 72.3033 24.0954 71.8832 23.9454 71.4632C23.4708 70.1243 23.0455 68.7684 22.6704 67.3982C21.3354 62.5157 20.9004 59.9507 20.9904 55.3757C21.3514 54.0064 21.7845 52.657 22.2879 51.3332C22.3329 51.2432 22.3854 51.1457 22.4379 51.0332C22.8579 50.2082 23.2629 49.3832 23.7054 48.5657C25.1379 45.9332 25.2729 42.8657 24.2679 40.2407C25.1529 38.4557 26.1054 36.7157 27.2004 35.0507C27.4104 34.7282 28.9254 32.7182 28.6329 33.0332C29.4729 32.0207 30.3429 31.0232 31.2579 30.0707C32.0904 29.2082 32.9679 28.3832 33.8604 27.5882C34.2654 27.2282 36.0729 25.8707 35.7504 26.0657C37.6854 24.7457 39.6654 23.5307 41.7804 22.5182C41.8929 22.4657 42.3279 22.2707 42.6504 22.1282C42.9729 22.0082 43.4304 21.8357 43.5429 21.7982C44.6529 21.4157 45.7779 21.0782 46.9179 20.8007C47.4879 20.6582 48.0654 20.5382 48.6429 20.4257C48.7554 20.4032 49.2354 20.3357 49.5804 20.2832C49.9329 20.2532 50.4579 20.2082 50.5854 20.2007C51.3279 20.1557 52.0704 20.1257 52.8129 20.1332C55.6704 20.1407 56.9979 20.3207 59.9754 21.0557C61.3704 21.4007 62.7504 21.8057 64.1079 22.2707C64.4229 22.3832 64.7454 22.4957 65.0604 22.6082C65.0154 22.6157 66.4929 23.2682 66.6054 23.3207C68.6859 24.323 70.6889 25.4787 72.5979 26.7782C72.9954 27.0482 73.3779 27.3257 73.7679 27.6107C73.8429 27.6707 73.9254 27.7457 74.0229 27.8282C75.0129 28.6757 75.9954 29.5157 76.9329 30.4232C77.7735 31.2101 78.5793 32.0334 79.3479 32.8907Z" fill="#239FFD"/>
</g>
<defs>
<clipPath id="clip0_10_58684">
<rect width="107.25" height="114" fill="white" transform="translate(0.810059 0.949707)"/>
</clipPath>
</defs>
</svg>
