<svg width="15" height="15" viewBox="0 0 15 15" fill="none" xmlns="http://www.w3.org/2000/svg">
<path d="M1.80201 4.0211H1.77886C1.55495 4.04107 1.32932 4.01462 1.1161 3.9434C0.902878 3.87218 0.706646 3.75773 0.539679 3.60721C0.372713 3.45668 0.238605 3.27332 0.145743 3.0686C0.0528823 2.86387 0.0032666 2.64218 0 2.41741C0.0044912 2.18886 0.0563634 1.96374 0.152335 1.75627C0.248307 1.54881 0.38629 1.36352 0.557556 1.21212C0.728822 1.06073 0.929644 0.946521 1.14732 0.876731C1.36499 0.80694 1.59478 0.783083 1.82215 0.806669C2.04798 0.784518 2.27595 0.809418 2.49168 0.879797C2.70741 0.950175 2.9062 1.06451 3.07553 1.21557C3.24485 1.36664 3.38102 1.55116 3.47545 1.7575C3.56988 1.96383 3.62051 2.1875 3.62416 2.41439C3.61972 2.64278 3.56785 2.86776 3.47184 3.07504C3.37582 3.28232 3.23776 3.46737 3.06642 3.61846C2.89508 3.76954 2.6942 3.88335 2.47653 3.95266C2.25887 4.02198 2.02917 4.04528 1.80201 4.0211Z" fill="white"/>
<path d="M3.62115 2.41434C3.62146 2.15011 3.55454 1.89014 3.42668 1.6589C3.29882 1.42766 3.11423 1.23276 2.89028 1.09253C2.79353 1.07887 2.69603 1.07113 2.59833 1.06937C2.37129 1.04581 2.14184 1.06955 1.92443 1.1391C1.70703 1.20865 1.5064 1.3225 1.33519 1.47346C1.16399 1.62442 1.02593 1.80923 0.929713 2.01621C0.833499 2.2232 0.781224 2.44788 0.776184 2.67608C0.772842 2.94054 0.838146 3.20134 0.965718 3.43302C1.09329 3.66469 1.27877 3.85932 1.50404 3.9979C1.59644 4.01105 1.68957 4.01845 1.7829 4.02004H1.80504C2.03164 4.04333 2.26061 4.01939 2.47748 3.94973C2.69436 3.88006 2.89444 3.7662 3.0651 3.61531C3.23575 3.46443 3.37327 3.27981 3.46898 3.0731C3.56469 2.86639 3.6165 2.64208 3.62115 2.41434Z" fill="white"/>
<path d="M3.1037 5.12012H0.517456V14.4302H3.1037V5.12012Z" fill="white"/>
<path d="M3.10468 14.4302H1.2926V5.89636C1.2926 5.75912 1.34712 5.6275 1.44416 5.53046C1.5412 5.43342 1.67282 5.37891 1.81005 5.37891H3.10468V14.4302Z" fill="white"/>
<path d="M3.10369 14.6893H0.517453C0.448835 14.6893 0.383027 14.6621 0.334507 14.6136C0.285986 14.565 0.258728 14.4992 0.258728 14.4306V5.12054C0.258728 5.05192 0.285986 4.98612 0.334507 4.9376C0.383027 4.88907 0.448835 4.86182 0.517453 4.86182H3.10369C3.17231 4.86182 3.23812 4.88907 3.28664 4.9376C3.33516 4.98612 3.36242 5.05192 3.36242 5.12054V14.4306C3.36242 14.4992 3.33516 14.565 3.28664 14.6136C3.23812 14.6621 3.17231 14.6893 3.10369 14.6893ZM0.776178 14.1719H2.84497V5.37927H0.776178V14.1719Z" fill="white"/>
<path d="M11.3789 5.12012C10.7758 5.12031 10.1811 5.2614 9.64228 5.53214C9.10342 5.80288 8.63528 6.19578 8.27517 6.67951V5.12012H5.17249V14.4302H8.27618V9.51643C8.27618 9.03583 8.46709 8.57492 8.80692 8.23509C9.14675 7.89526 9.60766 7.70435 10.0883 7.70435C10.5689 7.70435 11.0298 7.89526 11.3696 8.23509C11.7094 8.57492 11.9003 9.03583 11.9003 9.51643V14.4302H15.004V8.74428C15.004 8.26826 14.9103 7.79691 14.7281 7.35714C14.5459 6.91737 14.2788 6.5178 13.9422 6.18125C13.6055 5.84471 13.2059 5.57777 12.7661 5.3957C12.3263 5.21363 11.8549 5.11999 11.3789 5.12012Z" fill="white"/>
<path d="M11.4946 5.89837C10.5547 5.93239 9.65969 6.30867 8.97783 6.95642C8.94175 6.99274 8.89573 7.01758 8.84557 7.02783C8.79541 7.03808 8.74334 7.03327 8.6959 7.01402C8.64847 6.99476 8.60778 6.96192 8.57895 6.91961C8.55012 6.8773 8.53444 6.82741 8.53387 6.77622V6.37354C8.44221 6.47154 8.35584 6.57437 8.27515 6.68159V5.37891H6.46307C6.32583 5.37891 6.19422 5.43342 6.09718 5.53046C6.00013 5.6275 5.94562 5.75912 5.94562 5.89636V14.4313H8.27313V9.51649C8.2716 9.14476 8.38499 8.78165 8.5978 8.47686C8.8106 8.17207 9.11241 7.9405 9.4619 7.81387C9.8114 7.68723 10.1915 7.67171 10.5501 7.76944C10.9088 7.86716 11.2285 8.07335 11.4654 8.35978C11.6794 8.52845 11.8524 8.74345 11.9713 8.98862C12.0902 9.23379 12.152 9.50273 12.152 9.77522V14.4302H14.997V8.74132C14.9959 8.55242 14.9797 8.3639 14.9486 8.17756C14.6705 7.49322 14.1917 6.90915 13.5751 6.5023C12.9585 6.09545 12.2332 5.8849 11.4946 5.89837Z" fill="white"/>
</svg>
