<svg width="15" height="14" viewBox="0 0 15 14" fill="none" xmlns="http://www.w3.org/2000/svg">
<path d="M1.80201 3.27123H1.77886C1.55495 3.2912 1.32932 3.26475 1.1161 3.19353C0.902878 3.12231 0.706646 3.00786 0.539679 2.85734C0.372713 2.70681 0.238605 2.52345 0.145743 2.31872C0.0528823 2.114 0.0032666 1.89231 0 1.66754C0.0044912 1.43899 0.0563634 1.21387 0.152335 1.0064C0.248307 0.798937 0.38629 0.613646 0.557556 0.462251C0.728822 0.310856 0.929644 0.196651 1.14732 0.12686C1.36499 0.0570701 1.59478 0.033213 1.82215 0.0567985C2.04798 0.034648 2.27595 0.0595476 2.49168 0.129926C2.70741 0.200305 2.9062 0.314635 3.07553 0.465701C3.24485 0.616767 3.38102 0.80129 3.47545 1.00763C3.56988 1.21396 3.62051 1.43763 3.62416 1.66452C3.61972 1.89291 3.56785 2.11789 3.47184 2.32517C3.37582 2.53245 3.23776 2.7175 3.06642 2.86858C2.89508 3.01967 2.6942 3.13348 2.47653 3.20279C2.25887 3.27211 2.02917 3.29541 1.80201 3.27123Z" fill="#4F45E2"/>
<path d="M3.62115 1.66443C3.62146 1.4002 3.55454 1.14023 3.42668 0.908992C3.29882 0.677753 3.11423 0.482848 2.89028 0.342619C2.79353 0.328957 2.69603 0.321225 2.59833 0.319464C2.37129 0.295901 2.14184 0.319643 1.92443 0.389192C1.70703 0.458741 1.5064 0.572587 1.33519 0.72355C1.16399 0.874514 1.02593 1.05932 0.929713 1.26631C0.833499 1.47329 0.781224 1.69797 0.776184 1.92618C0.772842 2.19063 0.838146 2.45143 0.965718 2.68311C1.09329 2.91479 1.27877 3.10942 1.50404 3.24799C1.59644 3.26114 1.68957 3.26854 1.7829 3.27014H1.80504C2.03164 3.29342 2.26061 3.26948 2.47748 3.19982C2.69436 3.13016 2.89444 3.01629 3.0651 2.86541C3.23575 2.71452 3.37327 2.5299 3.46898 2.32319C3.56469 2.11648 3.6165 1.89217 3.62115 1.66443Z" fill="#4F45E2"/>
<path d="M3.1037 4.37047H0.517456V13.6805H3.1037V4.37047Z" fill="#4F45E2"/>
<path d="M3.10468 13.6805H1.2926V5.14665C1.2926 5.00941 1.34712 4.87779 1.44416 4.78075C1.5412 4.68371 1.67282 4.6292 1.81005 4.6292H3.10468V13.6805Z" fill="#4F45E2"/>
<path d="M3.10369 13.9393H0.517453C0.448835 13.9393 0.383027 13.912 0.334507 13.8635C0.285986 13.815 0.258728 13.7492 0.258728 13.6805V4.37047C0.258728 4.30185 0.285986 4.23605 0.334507 4.18753C0.383027 4.13901 0.448835 4.11175 0.517453 4.11175H3.10369C3.17231 4.11175 3.23812 4.13901 3.28664 4.18753C3.33516 4.23605 3.36242 4.30185 3.36242 4.37047V13.6805C3.36242 13.7492 3.33516 13.815 3.28664 13.8635C3.23812 13.912 3.17231 13.9393 3.10369 13.9393ZM0.776178 13.4218H2.84497V4.6292H0.776178V13.4218Z" fill="#4F45E2"/>
<path d="M11.3789 4.37047C10.7758 4.37066 10.1811 4.51175 9.64228 4.78249C9.10342 5.05323 8.63528 5.44613 8.27517 5.92986V4.37047H5.17249V13.6805H8.27618V8.76678C8.27618 8.28618 8.46709 7.82527 8.80692 7.48544C9.14675 7.14561 9.60766 6.9547 10.0883 6.9547C10.5689 6.9547 11.0298 7.14561 11.3696 7.48544C11.7094 7.82527 11.9003 8.28618 11.9003 8.76678V13.6805H15.004V7.99463C15.004 7.51861 14.9103 7.04726 14.7281 6.60749C14.5459 6.16772 14.2788 5.76815 13.9422 5.4316C13.6055 5.09506 13.2059 4.82812 12.7661 4.64605C12.3263 4.46398 11.8549 4.37034 11.3789 4.37047Z" fill="#4F45E2"/>
<path d="M11.4946 5.14866C10.5548 5.18268 9.65972 5.55896 8.97786 6.20671C8.94178 6.24303 8.89576 6.26787 8.8456 6.27812C8.79544 6.28837 8.74337 6.28356 8.69594 6.26431C8.6485 6.24505 8.60781 6.21221 8.57898 6.1699C8.55015 6.12759 8.53447 6.0777 8.5339 6.02651V5.62383C8.44224 5.72183 8.35587 5.82466 8.27518 5.93188V4.6292H6.4631C6.32586 4.6292 6.19425 4.68371 6.09721 4.78075C6.00016 4.87779 5.94565 5.00941 5.94565 5.14665V13.6815H8.27317V8.76678C8.27163 8.39505 8.38502 8.03194 8.59783 7.72715C8.81063 7.42236 9.11244 7.19079 9.46193 7.06416C9.81143 6.93752 10.1915 6.922 10.5502 7.01973C10.9088 7.11745 11.2285 7.32364 11.4654 7.61007C11.6795 7.77874 11.8524 7.99374 11.9713 8.23891C12.0903 8.48408 12.152 8.75302 12.152 9.02551V13.6805H14.997V7.99161C14.9959 7.80271 14.9797 7.61419 14.9487 7.42785C14.6706 6.74351 14.1917 6.15944 13.5751 5.75259C12.9586 5.34574 12.2332 5.13519 11.4946 5.14866Z" fill="#4F45E2"/>
</svg>
