<svg width="19" height="18" viewBox="0 0 19 18" fill="none" xmlns="http://www.w3.org/2000/svg">
<path d="M9.5 12C10.8807 12 12 10.8807 12 9.5C12 8.11929 10.8807 7 9.5 7C8.11929 7 7 8.11929 7 9.5C7 10.8807 8.11929 12 9.5 12Z" fill="#4F45E2"/>
<path d="M12.827 1.861H6.07999C4.94198 1.86285 3.85112 2.31574 3.04642 3.12044C2.24173 3.92513 1.78884 5.01599 1.78699 6.154V12.901C1.78884 14.039 2.24173 15.1299 3.04642 15.9346C3.85112 16.7393 4.94198 17.1921 6.07999 17.194H12.827C13.965 17.1921 15.0559 16.7393 15.8606 15.9346C16.6652 15.1299 17.1181 14.039 17.12 12.901V6.154C17.1181 5.01599 16.6652 3.92513 15.8606 3.12044C15.0559 2.31574 13.965 1.86285 12.827 1.861ZM9.45399 13.208C8.72615 13.208 8.01466 12.9922 7.40949 12.5878C6.80432 12.1834 6.33264 11.6087 6.05411 10.9363C5.77558 10.2638 5.7027 9.52392 5.8447 8.81007C5.98669 8.09622 6.33718 7.4405 6.85183 6.92585C7.36649 6.41119 8.0222 6.0607 8.73605 5.91871C9.4499 5.77672 10.1898 5.84959 10.8623 6.12812C11.5347 6.40665 12.1094 6.87833 12.5138 7.4835C12.9182 8.08867 13.134 8.80016 13.134 9.528C13.134 10.504 12.7463 11.44 12.0561 12.1302C11.366 12.8203 10.43 13.208 9.45399 13.208ZM13.44 6.461C13.258 6.461 13.0802 6.40704 12.9289 6.30595C12.7776 6.20486 12.6597 6.06118 12.59 5.89307C12.5204 5.72496 12.5022 5.53998 12.5377 5.36152C12.5732 5.18305 12.6608 5.01913 12.7894 4.89046C12.9181 4.7618 13.082 4.67418 13.2605 4.63868C13.439 4.60318 13.6239 4.6214 13.7921 4.69103C13.9602 4.76066 14.1039 4.87858 14.2049 5.02987C14.306 5.18117 14.36 5.35904 14.36 5.541C14.36 5.66182 14.3362 5.78145 14.29 5.89307C14.2437 6.00469 14.176 6.10611 14.0905 6.19154C14.0051 6.27697 13.9037 6.34473 13.7921 6.39097C13.6804 6.4372 13.5608 6.461 13.44 6.461Z" fill="#4F45E2"/>
</svg>
