<svg width="95" height="150" viewBox="0 0 95 150" fill="none" xmlns="http://www.w3.org/2000/svg">
<g clip-path="url(#clip0_10_58676)">
<path d="M86.6397 98.9455C62.0397 94.1305 37.3422 86.8105 14.6622 77.3155C9.89222 75.3205 4.31972 76.1155 1.49972 81.0355C-0.877782 85.1755 0.224718 92.1355 5.02472 94.1455C29.7147 104.481 55.2747 112.468 81.6147 117.621C86.6997 118.618 92.0172 115.903 93.4272 110.661C94.7247 105.823 91.7547 99.943 86.6397 98.9455Z" fill="#FFCE22"/>
<path d="M52.0558 1.77254C50.6056 0.961383 48.9698 0.540172 47.3083 0.550035C46.4908 0.662535 45.6807 0.767535 44.8632 0.880035C43.1832 1.33754 41.7208 2.18504 40.4758 3.42254L39.1707 4.72754C38.2126 5.60333 37.5014 6.71544 37.1082 7.95254C36.5307 9.07754 36.2608 10.2775 36.2983 11.56C36.2383 12.8425 36.4932 14.0425 37.0557 15.1525C37.4307 16.39 38.1057 17.455 39.0732 18.3475C39.7557 18.865 40.4382 19.3825 41.1132 19.9C42.5634 20.7112 44.1992 21.1324 45.8608 21.1225C46.6783 21.01 47.4883 20.905 48.3058 20.7925C49.9858 20.335 51.4483 19.4875 52.6933 18.25L53.9982 16.945C54.9564 16.0692 55.6676 14.9571 56.0607 13.72C56.6382 12.595 56.9083 11.395 56.8708 10.1125C56.9307 8.83004 56.6757 7.63004 56.1132 6.52004C55.7382 5.28254 55.0632 4.21754 54.0957 3.32504C53.4132 2.80754 52.7308 2.29004 52.0558 1.77254Z" fill="#EE0B0C"/>
<path d="M69.8375 128.816C68.727 128.253 67.4882 127.992 66.245 128.058C64.9625 128.021 63.7625 128.291 62.6375 128.868C61.4004 129.261 60.2883 129.973 59.4125 130.931C58.8875 131.621 58.355 132.311 57.83 132.993C56.9997 134.447 56.5556 136.089 56.54 137.763L56.8325 140.208C57.2675 141.881 58.0925 143.336 59.3075 144.558L60.5975 145.848C61.4619 146.796 62.5656 147.493 63.7925 147.866C64.91 148.428 66.1025 148.683 67.385 148.623C68.6675 148.661 69.8675 148.391 70.9925 147.813C72.2296 147.42 73.3417 146.709 74.2175 145.751C74.7425 145.061 75.275 144.371 75.8 143.688C76.6303 142.235 77.0744 140.592 77.09 138.918L76.7975 136.473C76.3625 134.801 75.5375 133.346 74.3225 132.123L73.0325 130.833C72.1325 129.858 71.0675 129.191 69.8375 128.816Z" fill="#770FFB"/>
<path d="M62.3697 52.855C58.7772 56.4475 58.4547 62.995 62.2722 66.475C66.1047 69.97 72.0447 70.225 75.8922 66.3775C79.4847 62.785 79.8072 56.2375 75.9897 52.7575C72.1647 49.255 66.2172 49.0075 62.3697 52.855Z" fill="#239FFD"/>
</g>
<defs>
<clipPath id="clip0_10_58676">
<rect width="93.75" height="148.5" fill="white" transform="translate(0.289978 0.550049)"/>
</clipPath>
</defs>
</svg>
