<svg width="19" height="19" viewBox="0 0 19 19" fill="none" xmlns="http://www.w3.org/2000/svg">
<g clip-path="url(#clip0_39_12989)">
<path d="M9.5 12.75C10.8807 12.75 12 11.6307 12 10.25C12 8.86929 10.8807 7.75 9.5 7.75C8.11929 7.75 7 8.86929 7 10.25C7 11.6307 8.11929 12.75 9.5 12.75Z" fill="white"/>
<path d="M12.827 2.61084H6.07999C4.94198 2.61269 3.85112 3.06558 3.04642 3.87028C2.24173 4.67497 1.78884 5.76583 1.78699 6.90384V13.6508C1.78884 14.7888 2.24173 15.8797 3.04642 16.6844C3.85112 17.4891 4.94198 17.942 6.07999 17.9438H12.827C13.965 17.942 15.0559 17.4891 15.8606 16.6844C16.6652 15.8797 17.1181 14.7888 17.12 13.6508V6.90384C17.1181 5.76583 16.6652 4.67497 15.8606 3.87028C15.0559 3.06558 13.965 2.61269 12.827 2.61084ZM9.45399 13.9578C8.72615 13.9578 8.01466 13.742 7.40949 13.3376C6.80432 12.9333 6.33264 12.3585 6.05411 11.6861C5.77558 11.0137 5.7027 10.2738 5.8447 9.55991C5.98669 8.84606 6.33718 8.19034 6.85183 7.67569C7.36649 7.16103 8.0222 6.81054 8.73605 6.66855C9.4499 6.52656 10.1898 6.59943 10.8623 6.87796C11.5347 7.15649 12.1094 7.62817 12.5138 8.23334C12.9182 8.83851 13.134 9.55 13.134 10.2778C13.134 11.2538 12.7463 12.1899 12.0561 12.88C11.366 13.5701 10.43 13.9578 9.45399 13.9578ZM13.44 7.21084C13.258 7.21084 13.0802 7.15688 12.9289 7.05579C12.7776 6.9547 12.6597 6.81102 12.59 6.64291C12.5204 6.4748 12.5022 6.28982 12.5377 6.11136C12.5732 5.93289 12.6608 5.76897 12.7894 5.6403C12.9181 5.51164 13.082 5.42402 13.2605 5.38852C13.439 5.35302 13.6239 5.37124 13.7921 5.44087C13.9602 5.5105 14.1039 5.62842 14.2049 5.77971C14.306 5.93101 14.36 6.10888 14.36 6.29084C14.36 6.41166 14.3362 6.53129 14.29 6.64291C14.2437 6.75453 14.176 6.85595 14.0905 6.94138C14.0051 7.02681 13.9037 7.09457 13.7921 7.14081C13.6804 7.18704 13.5608 7.21084 13.44 7.21084Z" fill="white"/>
</g>
<defs>
<clipPath id="clip0_39_12989">
<rect width="19" height="18" fill="white" transform="translate(0 0.75)"/>
</clipPath>
</defs>
</svg>
