<svg width="26" height="27" viewBox="0 0 26 27" fill="none" xmlns="http://www.w3.org/2000/svg">
<g clip-path="url(#clip0_14_60290)">
<path d="M25.2493 14.3324H19.3073C19.4089 9.55966 20.6372 9.01789 22.1798 8.86325L22.7747 8.78197L22.7747 3.53388L22.089 3.57438C20.0745 3.69929 17.8474 4.09952 16.3615 6.12111C15.059 7.89329 14.4848 10.7886 14.4848 15.2331L14.4848 23.4688H25.2493V14.3324Z" fill="white"/>
<path d="M11.515 23.4688L11.515 14.3324H5.65223C5.75382 9.55966 6.94237 9.01789 8.48504 8.86325L9.04034 8.78197V3.53388L8.39422 3.57438C6.37977 3.69929 4.1327 4.09952 2.64682 6.12111C1.34443 7.89329 0.750401 10.7886 0.750401 15.2331L0.750401 23.4688H11.515Z" fill="white"/>
</g>
<defs>
<clipPath id="clip0_14_60290">
<rect width="24.4986" height="27" fill="white" transform="matrix(-1 0 0 -1 25.2493 27)"/>
</clipPath>
</defs>
</svg>
