<svg width="30" height="30" viewBox="0 0 30 30" fill="none" xmlns="http://www.w3.org/2000/svg">
<path d="M22.5 2.5H7.5C5.425 2.5 3.75 4.1625 3.75 6.2125V19.85C3.75 21.9 5.425 23.5625 7.5 23.5625H8.45C9.45 23.5625 10.4 23.95 11.1 24.65L13.2375 26.7625C14.2125 27.725 15.8 27.725 16.775 26.7625L18.9125 24.65C19.6125 23.95 20.575 23.5625 21.5625 23.5625H22.5C24.575 23.5625 26.25 21.9 26.25 19.85V6.2125C26.25 4.1625 24.575 2.5 22.5 2.5ZM15.35 18.7C15.1625 18.7625 14.85 18.7625 14.65 18.7C13.025 18.1375 9.375 15.825 9.375 11.8875C9.3875 10.15 10.775 8.75 12.5 8.75C13.525 8.75 14.425 9.2375 15 10C15.575 9.2375 16.475 8.75 17.5 8.75C19.225 8.75 20.625 10.15 20.625 11.8875C20.6125 15.825 16.975 18.1375 15.35 18.7Z" fill="#4F45E2"/>
</svg>
