<svg width="18" height="16" viewBox="0 0 18 16" fill="none" xmlns="http://www.w3.org/2000/svg">
<path d="M18 2.16938C17.323 2.46618 16.6067 2.66387 15.8733 2.75634C16.6456 2.29797 17.2231 1.57226 17.4962 0.716662C16.7728 1.14564 15.9814 1.44771 15.1562 1.60981C14.6504 1.07022 13.9941 0.695069 13.2725 0.533022C12.5509 0.370975 11.7972 0.429513 11.1093 0.70104C10.4214 0.972568 9.83088 1.44456 9.41447 2.05578C8.99806 2.667 8.77493 3.38925 8.77402 4.12884C8.771 4.41156 8.79955 4.69375 8.85913 4.97014C7.39118 4.8982 5.95493 4.51727 4.64427 3.85225C3.33362 3.18723 2.17807 2.25309 1.25315 1.1109C0.77954 1.92293 0.633155 2.88492 0.843791 3.80107C1.05443 4.71722 1.60625 5.51867 2.38696 6.04231C1.80421 6.02586 1.23391 5.86986 0.723913 5.58742V5.62753C0.724938 6.47955 1.01946 7.30521 1.5579 7.96552C2.09635 8.62584 2.84584 9.08049 3.68022 9.25297C3.36452 9.3361 3.03917 9.37689 2.71272 9.37427C2.47832 9.37856 2.24414 9.35757 2.01424 9.31166C2.2523 10.0437 2.71128 10.684 3.32808 11.1445C3.94488 11.6051 4.6892 11.8632 5.4587 11.8835C4.15172 12.9057 2.53965 13.4599 0.880435 13.4575C0.586173 13.4593 0.292096 13.4423 0 13.4067C1.6874 14.4941 3.65374 15.0694 5.6612 15.0629C7.04294 15.0725 8.41282 14.8075 9.69127 14.2832C10.9697 13.7589 12.1313 12.9858 13.1084 12.0089C14.0856 11.0319 14.8589 9.87049 15.3834 8.59214C15.9079 7.31378 16.1732 5.94395 16.1638 4.56221C16.1638 4.39884 16.1579 4.24134 16.1501 4.08481C16.878 3.56409 17.5049 2.91499 18 2.16938Z" fill="white"/>
</svg>
