<svg width="18" height="16" viewBox="0 0 18 16" fill="none" xmlns="http://www.w3.org/2000/svg">
<path d="M18 2.41914C17.323 2.71595 16.6067 2.91363 15.8733 3.0061C16.6456 2.54773 17.2231 1.82202 17.4962 0.966426C16.7728 1.3954 15.9814 1.69747 15.1562 1.85958C14.6504 1.31998 13.9941 0.944832 13.2725 0.782785C12.5509 0.620739 11.7972 0.679276 11.1093 0.950804C10.4214 1.22233 9.83088 1.69432 9.41447 2.30554C8.99806 2.91676 8.77493 3.63901 8.77402 4.3786C8.771 4.66133 8.79955 4.94351 8.85913 5.2199C7.39118 5.14796 5.95493 4.76703 4.64427 4.10201C3.33362 3.43699 2.17807 2.50285 1.25315 1.36066C0.77954 2.17269 0.633155 3.13468 0.843791 4.05083C1.05443 4.96698 1.60625 5.76844 2.38696 6.29208C1.80421 6.27562 1.23391 6.11963 0.723913 5.83719V5.8773C0.724938 6.72931 1.01946 7.55497 1.5579 8.21528C2.09635 8.8756 2.84584 9.33026 3.68022 9.50273C3.36452 9.58586 3.03917 9.62666 2.71272 9.62403C2.47832 9.62832 2.24414 9.60733 2.01424 9.56143C2.2523 10.2935 2.71128 10.9338 3.32808 11.3943C3.94488 11.8548 4.6892 12.113 5.4587 12.1333C4.15172 13.1554 2.53965 13.7097 0.880435 13.7073C0.586173 13.7091 0.292096 13.6921 0 13.6564C1.6874 14.7439 3.65374 15.3192 5.6612 15.3126C7.04294 15.3222 8.41282 15.0572 9.69127 14.5329C10.9697 14.0087 12.1313 13.2356 13.1084 12.2586C14.0856 11.2816 14.8589 10.1203 15.3834 8.8419C15.9079 7.56355 16.1732 6.19371 16.1638 4.81197C16.1638 4.6486 16.1579 4.4911 16.1501 4.33458C16.878 3.81385 17.5049 3.16475 18 2.41914Z" fill="#4F45E2"/>
</svg>
