<svg width="254" height="97" viewBox="0 0 254 97" fill="none" xmlns="http://www.w3.org/2000/svg">
<g filter="url(#filter0_d_14_64072)">
<rect x="15" y="14.75" width="224" height="66" rx="33" fill="white"/>
<path d="M66.8125 51.4365L64.5 53.749C64.0125 54.2365 63.2375 54.2365 62.7375 53.7615C62.6 53.624 62.4625 53.499 62.325 53.3615C61.0375 52.0615 59.875 50.699 58.8375 49.274C57.8125 47.849 56.9875 46.424 56.3875 45.0115C55.8 43.5865 55.5 42.224 55.5 40.924C55.5 40.074 55.65 39.2615 55.95 38.5115C56.25 37.749 56.725 37.049 57.3875 36.424C58.1875 35.6365 59.0625 35.249 59.9875 35.249C60.3375 35.249 60.6875 35.324 61 35.474C61.325 35.624 61.6125 35.849 61.8375 36.174L64.7375 40.2615C64.9625 40.574 65.125 40.8615 65.2375 41.1365C65.35 41.399 65.4125 41.6615 65.4125 41.899C65.4125 42.199 65.325 42.499 65.15 42.7865C64.9875 43.074 64.75 43.374 64.45 43.674L63.5 44.6615C63.3625 44.799 63.3 44.9615 63.3 45.1615C63.3 45.2615 63.3125 45.349 63.3375 45.449C63.375 45.549 63.4125 45.624 63.4375 45.699C63.6625 46.1115 64.05 46.649 64.6 47.299C65.1625 47.949 65.7625 48.6115 66.4125 49.274C66.5375 49.399 66.675 49.524 66.8 49.649C67.3 50.1365 67.3125 50.9365 66.8125 51.4365Z" fill="#4F45E2"/>
<path d="M80.4625 55.6623C80.4625 56.0123 80.4 56.3748 80.275 56.7248C80.2375 56.8248 80.2 56.9248 80.15 57.0248C79.9375 57.4748 79.6625 57.8998 79.3 58.2998C78.6875 58.9748 78.0125 59.4623 77.25 59.7748C77.2375 59.7748 77.225 59.7873 77.2125 59.7873C76.475 60.0873 75.675 60.2498 74.8125 60.2498C73.5375 60.2498 72.175 59.9498 70.7375 59.3373C69.3 58.7248 67.8625 57.8998 66.4375 56.8623C65.95 56.4998 65.4625 56.1373 65 55.7498L69.0875 51.6623C69.4375 51.9248 69.75 52.1248 70.0125 52.2623C70.075 52.2873 70.15 52.3248 70.2375 52.3623C70.3375 52.3998 70.4375 52.4123 70.55 52.4123C70.7625 52.4123 70.925 52.3373 71.0625 52.1998L72.0125 51.2623C72.325 50.9498 72.625 50.7123 72.9125 50.5623C73.2 50.3873 73.4875 50.2998 73.8 50.2998C74.0375 50.2998 74.2875 50.3498 74.5625 50.4623C74.8375 50.5748 75.125 50.7373 75.4375 50.9498L79.575 53.8873C79.9 54.1123 80.125 54.3748 80.2625 54.6873C80.3875 54.9998 80.4625 55.3123 80.4625 55.6623Z" fill="#4F45E2"/>
<path d="M101.24 50.99C103.5 50.99 105.06 49.71 105.6 47.59H107.82C107.18 50.85 104.64 53.01 101.24 53.01C97.32 53.01 94.18 50.01 94.18 45.95C94.18 41.87 97.32 38.91 101.24 38.91C104.64 38.91 107.18 41.03 107.82 44.29H105.6C105.06 42.19 103.5 40.91 101.24 40.91C98.46 40.91 96.36 43.01 96.36 45.95C96.36 48.87 98.46 50.99 101.24 50.99ZM114.605 43.11C117.525 43.11 119.605 45.17 119.605 48.05C119.605 50.93 117.525 52.99 114.605 52.99C111.685 52.99 109.605 50.93 109.605 48.05C109.605 45.17 111.685 43.11 114.605 43.11ZM114.605 51.11C116.305 51.11 117.525 49.81 117.525 48.05C117.525 46.27 116.305 44.99 114.605 44.99C112.905 44.99 111.685 46.27 111.685 48.05C111.685 49.81 112.905 51.11 114.605 51.11ZM126.943 43.11C129.383 43.11 131.043 44.79 131.043 47.51V52.75H128.963V47.63C128.963 45.91 128.043 44.99 126.523 44.99C125.623 44.99 124.643 45.49 123.903 46.41V52.75H121.823V43.35H123.903V44.19C124.723 43.49 125.743 43.11 126.943 43.11ZM139.981 50.71L140.281 52.61C139.461 52.91 138.781 52.99 138.141 52.99C135.741 52.99 134.461 51.55 134.461 49.13V45.09H132.241V43.35H134.461V39.89H136.541V43.35H140.021V45.09H136.541V49.13C136.541 50.49 137.221 51.07 138.381 51.07C138.941 51.07 139.501 50.91 139.981 50.71ZM149.182 43.35H151.242V52.75H149.182V52.01C148.382 52.63 147.362 52.99 146.162 52.99C143.522 52.99 141.402 50.79 141.402 48.05C141.402 45.31 143.522 43.11 146.162 43.11C147.362 43.11 148.382 43.47 149.182 44.09V43.35ZM146.462 51.11C147.502 51.11 148.482 50.75 149.182 49.75V46.35C148.482 45.35 147.502 44.99 146.462 44.99C144.742 44.99 143.482 46.37 143.482 48.05C143.482 49.73 144.742 51.11 146.462 51.11ZM158.471 51.11C159.731 51.11 160.671 50.39 160.931 49.33H163.051C162.711 51.49 160.831 52.99 158.471 52.99C155.651 52.99 153.511 50.85 153.511 48.05C153.511 45.27 155.651 43.11 158.471 43.11C160.831 43.11 162.711 44.61 163.051 46.77H160.931C160.671 45.71 159.731 44.99 158.471 44.99C156.731 44.99 155.591 46.35 155.591 48.05C155.591 49.75 156.731 51.11 158.471 51.11ZM171.856 50.71L172.156 52.61C171.336 52.91 170.656 52.99 170.016 52.99C167.616 52.99 166.336 51.55 166.336 49.13V45.09H164.116V43.35H166.336V39.89H168.416V43.35H171.896V45.09H168.416V49.13C168.416 50.49 169.096 51.07 170.256 51.07C170.816 51.07 171.376 50.91 171.856 50.71ZM186.496 43.35H188.556V52.75H186.496V51.83C185.676 52.57 184.656 52.99 183.436 52.99C180.996 52.99 179.356 51.25 179.356 48.55V43.35H181.416V48.43C181.416 50.15 182.356 51.11 183.856 51.11C184.776 51.11 185.736 50.59 186.496 49.63V43.35ZM192.712 49.65C192.932 50.81 193.792 51.29 195.212 51.29C196.432 51.29 197.272 50.89 197.272 50.15C197.272 49.59 196.812 49.19 196.012 49.05L193.932 48.69C192.492 48.45 191.152 47.73 191.152 46.03C191.152 44.21 192.732 43.09 195.072 43.09C196.892 43.09 198.992 43.71 199.192 46.17H197.272C197.172 45.15 196.272 44.75 195.072 44.75C193.872 44.75 193.212 45.19 193.212 45.85C193.212 46.35 193.572 46.83 194.672 47.01L196.432 47.29C197.852 47.55 199.252 48.17 199.252 49.99C199.252 51.97 197.512 52.99 195.152 52.99C192.932 52.99 191.032 52.11 190.792 49.63L192.712 49.65Z" fill="black"/>
</g>
<defs>
<filter id="filter0_d_14_64072" x="0" y="0.75" width="254" height="96" filterUnits="userSpaceOnUse" color-interpolation-filters="sRGB">
<feFlood flood-opacity="0" result="BackgroundImageFix"/>
<feColorMatrix in="SourceAlpha" type="matrix" values="0 0 0 0 0 0 0 0 0 0 0 0 0 0 0 0 0 0 127 0" result="hardAlpha"/>
<feOffset dy="1"/>
<feGaussianBlur stdDeviation="7.5"/>
<feComposite in2="hardAlpha" operator="out"/>
<feColorMatrix type="matrix" values="0 0 0 0 0 0 0 0 0 0 0 0 0 0 0 0 0 0 0.05 0"/>
<feBlend mode="normal" in2="BackgroundImageFix" result="effect1_dropShadow_14_64072"/>
<feBlend mode="normal" in="SourceGraphic" in2="effect1_dropShadow_14_64072" result="shape"/>
</filter>
</defs>
</svg>
