<svg width="48" height="48" viewBox="0 0 48 48" fill="none" xmlns="http://www.w3.org/2000/svg">
<rect width="48" height="48" rx="8" fill="#5CC9A7"/>
<path d="M18.3495 38.584H29.6886V39.8593H18.3495V38.584Z" fill="white"/>
<path fill-rule="evenodd" clip-rule="evenodd" d="M26.2466 34.1568H21.9644L21.086 37.8191H26.9921L26.2466 34.1568ZM9.29605 29.7612H38.7421V15.4922C38.7421 15.1288 38.4558 14.8081 38.0886 14.8081H34.5964C35.4665 17.1904 34.2451 20.4409 30.6367 20.8109C30.725 20.9856 30.7743 21.1827 30.7743 21.3918V23.2843C30.7743 23.6292 30.6376 23.9443 30.4164 24.1767C30.6376 24.409 30.7743 24.7241 30.7743 25.069V26.9605C30.7743 27.6735 30.1924 28.2563 29.4785 28.2563H18.6637C17.9507 28.2563 17.3679 27.6744 17.3679 26.9605V25.0681C17.3679 24.7232 17.5046 24.4081 17.7258 24.1757C17.5046 23.9433 17.3679 23.6282 17.3679 23.2834V21.3909C17.3679 21.2087 17.406 21.0358 17.4739 20.8787C14.4353 20.5925 12.5428 17.5548 13.5467 14.8081H9.9495C9.54609 14.8081 9.29605 15.113 9.29605 15.4922V29.7612ZM38.7421 30.568H9.29605V32.6966C9.29605 33.0842 9.54144 33.35 9.9495 33.35H38.0877C38.4595 33.35 38.7411 33.0684 38.7411 32.6966L38.7421 30.568ZM30.1422 31.5561C30.3653 31.5561 30.5456 31.7364 30.5456 31.9595C30.5456 32.1825 30.3653 32.3629 30.1422 32.3629H29.2936C29.0705 32.3629 28.8902 32.1825 28.8902 31.9595C28.8902 31.7364 29.0705 31.5561 29.2936 31.5561H30.1422ZM33.2198 31.5561C33.4429 31.5561 33.6232 31.7364 33.6232 31.9595C33.6232 32.1825 33.4429 32.3629 33.2198 32.3629H32.3721C32.149 32.3629 31.9687 32.1825 31.9687 31.9595C31.9687 31.7364 32.149 31.5561 32.3721 31.5561H33.2198ZM35.3902 31.5561H36.2974C36.5205 31.5561 36.7009 31.7364 36.7009 31.9595C36.7009 32.1825 36.5205 32.3629 36.2974 32.3629H35.3902C35.1672 32.3629 34.9868 32.1825 34.9868 31.9595C34.9868 31.7364 35.1672 31.5561 35.3902 31.5561Z" fill="white"/>
<path d="M30.7157 19.991C30.8161 19.6694 30.7566 19.569 30.7743 17.7147C30.7743 17.0017 30.1924 16.4189 29.4785 16.4189H18.6637C17.9507 16.4189 17.3679 17.0008 17.3679 17.7147V19.6071C17.3679 19.7689 17.3977 19.925 17.4525 20.0682C15.481 19.8349 14.083 18.1794 14.083 16.339C14.083 14.3061 15.7348 12.6609 17.7871 12.6609C17.8792 12.6609 18.0325 12.6693 18.1134 12.6544C18.4824 12.5838 18.4332 12.2473 18.4332 11.9731C18.4332 9.91512 20.0877 8.25037 22.1382 8.25037C23.1755 8.25037 24.1868 8.72442 24.8719 9.49312C25.4789 10.1745 25.6443 10.8316 25.6815 10.9125C25.7754 11.1142 26.0152 11.2025 26.2169 11.1086V11.1077C26.493 10.9803 26.7885 10.959 27.0916 10.959C28.1168 10.959 29.0138 11.525 29.4451 12.4387C29.5176 12.6256 29.7212 12.7334 29.9201 12.6832C30.0548 12.6488 30.238 12.6628 30.3532 12.6628C32.3944 12.6628 34.0583 14.2968 34.0583 16.3408C34.0583 18.0911 32.9466 19.6964 30.7157 19.991Z" fill="white"/>
<path fill-rule="evenodd" clip-rule="evenodd" d="M29.6514 20.0635C29.6737 20.0533 29.7462 20.0291 29.8234 19.952C29.9126 19.8627 29.9675 19.741 29.9675 19.6071V17.7146C29.9675 17.4469 29.7462 17.2257 29.4785 17.2257H18.6637C18.396 17.2257 18.1748 17.4469 18.1748 17.7146V19.6071C18.1748 19.8748 18.396 20.096 18.6637 20.096C30.1506 20.084 29.4925 20.1249 29.6514 20.0635ZM24.3969 18.6609C24.3969 19.0578 24.0753 19.3794 23.6784 19.3794C23.2815 19.3794 22.9599 19.0578 22.9599 18.6609C22.9599 18.264 23.2815 17.9424 23.6784 17.9424C24.0753 17.9424 24.3969 18.264 24.3969 18.6609ZM25.7624 18.6609C25.7624 18.4378 25.9427 18.2575 26.1658 18.2575H28.7414C28.9645 18.2575 29.1449 18.4378 29.1449 18.6609C29.1449 18.884 28.9645 19.0643 28.7414 19.0643H26.1658C25.9427 19.0643 25.7624 18.884 25.7624 18.6609ZM21.6669 17.9424C22.0638 17.9424 22.3854 18.264 22.3854 18.6609C22.3854 19.0578 22.0638 19.3794 21.6669 19.3794C21.27 19.3794 20.9484 19.0578 20.9484 18.6609C20.9484 18.264 21.27 17.9424 21.6669 17.9424ZM19.6555 17.9424C20.0524 17.9424 20.374 18.264 20.374 18.6609C20.374 19.0578 20.0524 19.3794 19.6555 19.3794C19.2586 19.3794 18.937 19.0578 18.937 18.6609C18.937 18.264 19.2586 17.9424 19.6555 17.9424ZM29.4785 23.7723C29.7462 23.7723 29.9675 23.551 29.9675 23.2833V21.3909C29.9675 21.1232 29.7462 20.9019 29.4785 20.9019H18.66C18.3932 20.9038 18.1738 21.1241 18.1738 21.3909V23.2833C18.1738 23.551 18.395 23.7723 18.6627 23.7723H29.4785ZM23.6784 23.0556C23.2815 23.0556 22.9599 22.734 22.9599 22.3371C22.9599 21.9402 23.2815 21.6186 23.6784 21.6186C24.0753 21.6186 24.3969 21.9402 24.3969 22.3371C24.3969 22.734 24.0753 23.0556 23.6784 23.0556ZM25.7624 22.3371C25.7624 22.114 25.9427 21.9337 26.1658 21.9337H28.7414C28.9645 21.9337 29.1449 22.114 29.1449 22.3371C29.1449 22.5602 28.9645 22.7405 28.7414 22.7405H26.1658C25.9427 22.7405 25.7624 22.5602 25.7624 22.3371ZM22.3854 22.3371C22.3854 22.734 22.0638 23.0556 21.6669 23.0556C21.27 23.0556 20.9484 22.734 20.9484 22.3371C20.9484 21.9402 21.27 21.6186 21.6669 21.6186C22.0638 21.6186 22.3854 21.9411 22.3854 22.3371ZM19.6555 21.6186C20.0524 21.6186 20.374 21.9402 20.374 22.3371C20.374 22.734 20.0524 23.0556 19.6555 23.0556C19.2586 23.0556 18.937 22.734 18.937 22.3371C18.937 21.9411 19.2586 21.6186 19.6555 21.6186ZM29.4785 27.4494C29.7462 27.4494 29.9675 27.2282 29.9675 26.9605V25.068C29.9675 24.8003 29.7462 24.5791 29.4785 24.5791H18.6637C18.396 24.5791 18.1748 24.8003 18.1748 25.068V26.9605C18.1748 27.2282 18.396 27.4494 18.6637 27.4494H29.4785ZM23.6784 25.2957C24.0753 25.2957 24.3969 25.6173 24.3969 26.0142C24.3969 26.4111 24.0753 26.7328 23.6784 26.7328C23.2815 26.7328 22.9599 26.4111 22.9599 26.0142C22.9599 25.6173 23.2815 25.2957 23.6784 25.2957ZM26.1658 26.4177C25.9427 26.4177 25.7624 26.2373 25.7624 26.0142C25.7624 25.7912 25.9427 25.6108 26.1658 25.6108H28.7414C28.9645 25.6108 29.1449 25.7912 29.1449 26.0142C29.1449 26.2373 28.9645 26.4177 28.7414 26.4177H26.1658ZM21.6669 25.2957C22.0638 25.2957 22.3854 25.6173 22.3854 26.0142C22.3854 26.4111 22.0638 26.7328 21.6669 26.7328C21.27 26.7328 20.9484 26.4111 20.9484 26.0142C20.9484 25.6173 21.27 25.2957 21.6669 25.2957ZM19.6555 25.2957C20.0524 25.2957 20.374 25.6173 20.374 26.0142C20.374 26.4111 20.0524 26.7328 19.6555 26.7328C19.2586 26.7328 18.937 26.4111 18.937 26.0142C18.937 25.6173 19.2586 25.2957 19.6555 25.2957Z" fill="white"/>
</svg>
