<svg width="48" height="48" viewBox="0 0 48 48" fill="none" xmlns="http://www.w3.org/2000/svg">
<rect width="48" height="48" rx="8" fill="#EE0B0C"/>
<g clip-path="url(#clip0_12_59844)">
<path d="M24 16.6172C22.8179 16.6172 21.6624 16.9677 20.6796 17.6244C19.6968 18.2811 18.9307 19.2145 18.4784 20.3066C18.026 21.3987 17.9077 22.6004 18.1383 23.7597C18.3689 24.9191 18.9381 25.984 19.7739 26.8198C20.6098 27.6557 21.6747 28.2249 22.834 28.4555C23.9934 28.6861 25.1951 28.5677 26.2871 28.1154C27.3792 27.663 28.3126 26.897 28.9693 25.9142C29.626 24.9313 29.9766 23.7758 29.9766 22.5938C29.9747 21.0092 29.3444 19.4902 28.224 18.3697C27.1036 17.2493 25.5845 16.619 24 16.6172ZM27.5374 21.7774L24.1955 24.9415C23.9996 25.1268 23.7402 25.2301 23.4705 25.2301C23.2009 25.2301 22.9415 25.1268 22.7456 24.9415L20.4626 22.7808C20.2606 22.5882 20.1431 22.3235 20.1359 22.0445C20.1287 21.7655 20.2324 21.4951 20.4242 21.2924C20.616 21.0897 20.8803 20.9713 21.1593 20.9631C21.4382 20.9549 21.709 21.0576 21.9124 21.2487L23.4705 22.7252L26.0876 20.2481C26.1874 20.1493 26.306 20.0714 26.4363 20.019C26.5667 19.9666 26.7062 19.9408 26.8467 19.9431C26.9871 19.9454 27.1257 19.9757 27.2543 20.0323C27.3829 20.0889 27.4989 20.1705 27.5955 20.2726C27.6921 20.3746 27.7673 20.4949 27.8167 20.6263C27.8662 20.7578 27.8889 20.8979 27.8835 21.0383C27.8781 21.1786 27.8447 21.3165 27.7853 21.4438C27.7258 21.5711 27.6416 21.6852 27.5374 21.7795V21.7774Z" fill="white"/>
<path d="M38.3086 9.41998C38.1675 9.32298 38.0049 9.2618 37.8349 9.24171C37.6648 9.22162 37.4925 9.24323 37.3327 9.30467C35.2032 10.1287 32.8753 10.2945 30.6506 9.78048C28.4258 9.2665 26.4065 8.09646 24.8543 6.42185L24.7734 6.33537C24.6748 6.22955 24.5553 6.14516 24.4226 6.08747C24.29 6.02977 24.1468 6 24.0021 6C23.8574 6 23.7143 6.02977 23.5816 6.08747C23.4489 6.14516 23.3295 6.22955 23.2308 6.33537L23.1457 6.42185C21.5936 8.09662 19.5743 9.26678 17.3495 9.78077C15.1247 10.2948 12.7968 10.1289 10.6673 9.30467C10.5076 9.24329 10.3353 9.2217 10.1654 9.24177C9.99544 9.26184 9.83293 9.32296 9.69188 9.41985C9.55083 9.51675 9.43547 9.64651 9.35577 9.79794C9.27606 9.94937 9.2344 10.1179 9.23438 10.289V16.3015C9.23436 21.4159 10.5394 26.4457 13.0258 30.915C15.5123 35.3842 19.0981 39.1451 23.4438 41.8418C23.6108 41.9454 23.8035 42.0003 24 42.0003C24.1965 42.0003 24.3892 41.9454 24.5562 41.8418C28.9019 39.1451 32.4877 35.3842 34.9742 30.915C37.4606 26.4457 38.7656 21.4159 38.7656 16.3015V10.289C38.7656 10.118 38.724 9.94948 38.6444 9.79808C38.5648 9.64668 38.4495 9.51691 38.3086 9.41998ZM24 30.6797C22.4008 30.6797 20.8374 30.2054 19.5077 29.3169C18.178 28.4284 17.1416 27.1656 16.5296 25.6881C15.9176 24.2106 15.7574 22.5848 16.0694 21.0162C16.3814 19.4477 17.1515 18.0069 18.2824 16.8761C19.4132 15.7453 20.854 14.9752 22.4225 14.6632C23.991 14.3512 25.6168 14.5113 27.0944 15.1233C28.5719 15.7353 29.8347 16.7717 30.7232 18.1014C31.6117 19.4311 32.0859 20.9945 32.0859 22.5937C32.0835 24.7375 31.2308 26.7928 29.7149 28.3087C28.1991 29.8246 26.1438 30.6772 24 30.6797Z" fill="white"/>
</g>
<defs>
<clipPath id="clip0_12_59844">
<rect width="36" height="36" fill="white" transform="translate(6 6)"/>
</clipPath>
</defs>
</svg>
