<svg width="48" height="48" viewBox="0 0 48 48" fill="none" xmlns="http://www.w3.org/2000/svg">
<rect width="48" height="48" rx="8" fill="#FFB116"/>
<path fill-rule="evenodd" clip-rule="evenodd" d="M15.2089 39.6848H33.5888C33.7824 39.6848 33.9404 39.5269 33.9404 39.3333V38.2136C33.9404 37.4044 33.1118 36.7425 32.099 36.7425H28.8124V33.312H36.2829C37.4704 33.312 38.442 32.3403 38.442 31.1528V19.971L37.7166 19.6488C37.5035 19.7521 37.2845 19.8429 37.0608 19.9207L36.6364 21.0232V29.6749H19.8987C19.8987 34.1422 19.9852 32.6954 19.9852 36.7425H16.6986C15.6859 36.7425 14.8573 37.4045 14.8573 38.2137V39.3333C14.8575 39.4265 14.8946 39.5158 14.9605 39.5817C15.0264 39.6476 15.1157 39.6847 15.2089 39.6848ZM27.503 25.786C27.3892 25.8798 27.2429 25.9248 27.0961 25.9113C26.9492 25.8979 26.8136 25.827 26.7187 25.7141C26.6237 25.6013 26.5772 25.4555 26.5891 25.3085C26.601 25.1615 26.6705 25.0251 26.7823 24.929L29.2971 22.8099L26.7823 20.6907C26.6705 20.5947 26.601 20.4583 26.5891 20.3113C26.5772 20.1643 26.6237 20.0185 26.7187 19.9057C26.8136 19.7928 26.9492 19.7219 27.0961 19.7085C27.2429 19.695 27.3892 19.74 27.503 19.8338L30.5203 22.3763C30.7896 22.5973 30.7954 23.0119 30.5262 23.2382L27.503 25.786ZM22.0154 24.9291C22.1272 25.0252 22.1967 25.1616 22.2086 25.3086C22.2205 25.4556 22.174 25.6013 22.079 25.7142C21.9841 25.8271 21.8485 25.8979 21.7016 25.9114C21.5548 25.9249 21.4085 25.8798 21.2947 25.7861L18.2715 23.2385C18.0023 23.0121 18.0081 22.5976 18.2774 22.3766L21.2947 19.8341C21.4085 19.7403 21.5548 19.6953 21.7016 19.7087C21.8485 19.7222 21.9841 19.7931 22.079 19.9059C22.174 20.0188 22.2205 20.1646 22.2086 20.3116C22.1967 20.4586 22.1272 20.5949 22.0154 20.691L19.5006 22.8102L22.0154 24.9291ZM24.0139 26.4172C23.9956 26.4893 23.9632 26.5571 23.9185 26.6166C23.8739 26.6761 23.8178 26.7261 23.7537 26.7638C23.6895 26.8014 23.6185 26.826 23.5448 26.836C23.4711 26.846 23.3961 26.8413 23.3242 26.8221C23.2523 26.8028 23.185 26.7696 23.1261 26.7241C23.0672 26.6787 23.0179 26.622 22.9811 26.5573C22.9443 26.4927 22.9206 26.4214 22.9116 26.3475C22.9026 26.2737 22.9083 26.1988 22.9284 26.1272L24.7838 19.2027C24.8021 19.1306 24.8345 19.0628 24.8792 19.0033C24.9238 18.9438 24.9799 18.8938 25.044 18.8561C25.1082 18.8185 25.1792 18.7939 25.2529 18.7839C25.3266 18.7739 25.4016 18.7787 25.4735 18.7979C25.5454 18.8171 25.6127 18.8504 25.6716 18.8958C25.7305 18.9413 25.7798 18.9979 25.8166 19.0626C25.8534 19.1272 25.8771 19.1986 25.8861 19.2724C25.8951 19.3462 25.8894 19.4211 25.8693 19.4928L24.0139 26.4172ZM11.7896 25.987L12.1611 25.0219H13.7375L14.1091 25.987C14.6232 26.1095 15.1146 26.3132 15.5646 26.5905L16.5105 26.1704L17.6252 27.2851L17.2052 28.2309C17.4825 28.6809 17.6862 29.1723 17.8086 29.6865L18.7737 30.058V31.6345L17.8088 32.0059C17.6863 32.5202 17.4826 33.0117 17.2053 33.4618L17.6253 34.4074L16.5105 35.522L15.5647 35.102C15.1147 35.3793 14.6234 35.583 14.1092 35.7054L13.7377 36.6706H12.1611L11.7897 35.7056C11.2754 35.5832 10.7839 35.3794 10.3338 35.1021L9.38822 35.522L8.27348 34.4073L8.69353 33.4615C8.41628 33.0115 8.21258 32.5201 8.09011 32.0059L7.125 31.6344V30.0579L8.08997 29.6865C8.21244 29.1722 8.41616 28.6807 8.69346 28.2306L8.27355 27.2851L9.38829 26.1703L10.3341 26.5904C10.7841 26.3132 11.2754 26.1095 11.7896 25.987ZM12.9493 27.8566C14.6006 27.8566 15.939 29.1949 15.939 30.8462C15.939 32.4975 14.6006 33.8358 12.9493 33.8358C11.298 33.8358 9.95972 32.4975 9.95972 30.8462C9.95972 29.1949 11.298 27.8566 12.9493 27.8566ZM33.8909 9.28037L34.2625 8.31519H35.8389L36.2104 9.28037C36.7246 9.40282 37.2159 9.60652 37.6659 9.88379L38.6118 9.46374L39.7265 10.5785L39.3065 11.5242C39.5838 11.9742 39.7875 12.4656 39.91 12.9799L40.875 13.3512V14.9277L39.91 15.2991C39.7876 15.8134 39.5838 16.3049 39.3065 16.755L39.7265 17.7006L38.6118 18.8152L37.6659 18.3952C37.2159 18.6725 36.7246 18.8762 36.2104 18.9986L35.8389 19.9638H34.2624L33.891 18.9988C33.3767 18.8763 32.8852 18.6726 32.4351 18.3953L31.4896 18.8152L30.3749 17.7005L30.7949 16.7547C30.5177 16.3046 30.314 15.8133 30.1915 15.2991L29.2263 14.9276V13.3511L30.1913 12.9797C30.3138 12.4654 30.5175 11.974 30.7948 11.5238L30.3748 10.5783L31.4895 9.46353L32.4353 9.88358C32.8854 9.60646 33.3768 9.40284 33.8909 9.28037ZM35.0507 11.1498C33.3994 11.1498 32.061 12.4882 32.061 14.1395C32.061 15.7907 33.3994 17.1291 35.0507 17.1291C36.702 17.1291 38.0403 15.7907 38.0403 14.1395C38.0403 12.4882 36.702 11.1498 35.0507 11.1498ZM12.1611 23.8969H11.3888L10.9391 25.065C10.7406 25.1341 10.5459 25.2133 10.3556 25.3025V16.2987C10.3556 15.1111 11.3272 14.1395 12.5147 14.1395H28.1013V15.7001L28.7377 15.9451H12.4606C12.3813 15.9453 12.3052 15.9769 12.2491 16.0331C12.193 16.0892 12.1614 16.1652 12.1612 16.2445L12.1611 23.8969Z" fill="white"/>
</svg>
