<svg width="30" height="30" viewBox="0 0 30 30" fill="none" xmlns="http://www.w3.org/2000/svg">
<path d="M19.2375 6.5126L21 10.0376C21.2375 10.5251 21.875 10.9876 22.4125 11.0876L25.6 11.6126C27.6375 11.9501 28.1125 13.4251 26.65 14.9001L24.1625 17.3876C23.75 17.8001 23.5125 18.6126 23.65 19.2001L24.3625 22.2751C24.925 24.7001 23.625 25.6501 21.4875 24.3751L18.5 22.6001C17.9625 22.2751 17.0625 22.2751 16.525 22.6001L13.5375 24.3751C11.4 25.6376 10.1 24.7001 10.6625 22.2751L11.375 19.2001C11.4875 18.6001 11.25 17.7876 10.8375 17.3751L8.35 14.8876C6.8875 13.4251 7.3625 11.9501 9.4 11.6001L12.5875 11.0751C13.125 10.9876 13.7625 10.5126 14 10.0251L15.7625 6.5001C16.725 4.6001 18.275 4.6001 19.2375 6.5126Z" fill="#4F45E2"/>
<path d="M10 7.1875H2.5C1.9875 7.1875 1.5625 6.7625 1.5625 6.25C1.5625 5.7375 1.9875 5.3125 2.5 5.3125H10C10.5125 5.3125 10.9375 5.7375 10.9375 6.25C10.9375 6.7625 10.5125 7.1875 10 7.1875Z" fill="#4F45E2"/>
<path d="M6.25 24.6875H2.5C1.9875 24.6875 1.5625 24.2625 1.5625 23.75C1.5625 23.2375 1.9875 22.8125 2.5 22.8125H6.25C6.7625 22.8125 7.1875 23.2375 7.1875 23.75C7.1875 24.2625 6.7625 24.6875 6.25 24.6875Z" fill="#4F45E2"/>
<path d="M3.75 15.9375H2.5C1.9875 15.9375 1.5625 15.5125 1.5625 15C1.5625 14.4875 1.9875 14.0625 2.5 14.0625H3.75C4.2625 14.0625 4.6875 14.4875 4.6875 15C4.6875 15.5125 4.2625 15.9375 3.75 15.9375Z" fill="#4F45E2"/>
</svg>
