<svg width="31" height="30" viewBox="0 0 31 30" fill="none" xmlns="http://www.w3.org/2000/svg">
<path d="M26.6373 13.9V8.41252C26.6373 7.38752 25.8623 6.22502 24.8998 5.83752L17.9373 2.98752C16.3748 2.35002 14.6123 2.35002 13.0498 2.98752L6.0873 5.83752C5.1373 6.22502 4.3623 7.38752 4.3623 8.41252V13.9C4.3623 20.0125 8.7998 25.7375 14.8623 27.4125C15.2748 27.525 15.7248 27.525 16.1373 27.4125C22.1998 25.7375 26.6373 20.0125 26.6373 13.9ZM16.4373 16.0875V19.375C16.4373 19.8875 16.0123 20.3125 15.4998 20.3125C14.9873 20.3125 14.5623 19.8875 14.5623 19.375V16.0875C13.2998 15.6875 12.3748 14.5125 12.3748 13.125C12.3748 11.4 13.7748 10 15.4998 10C17.2248 10 18.6248 11.4 18.6248 13.125C18.6248 14.525 17.6998 15.6875 16.4373 16.0875Z" fill="#4F45E2"/>
</svg>
