<svg width="71" height="64" viewBox="0 0 71 64" fill="none" xmlns="http://www.w3.org/2000/svg">
<path fill-rule="evenodd" clip-rule="evenodd" d="M24.6712 44.6096L29.5001 52.5H20.2793L24.6712 44.6096Z" fill="#4F45E2"/>
<path fill-rule="evenodd" clip-rule="evenodd" d="M63.3557 25.9392L71 15.1568H61.7981C62.0263 15.5153 62.2464 15.8786 62.4591 16.2463C62.1931 15.8775 61.9195 15.514 61.6373 15.1568H32.0774L36.9839 25.9392H41.3582V35.5495L54.1766 63.7146H54.4026V25.9392H63.3557Z" fill="url(#paint0_linear_2002_188)"/>
<path fill-rule="evenodd" clip-rule="evenodd" d="M4.28003 45.5543L12.6128 56.9508L24.4749 29.2944L24.5362 29.4369L24.6259 29.2241L31.3674 45.242L31.4191 45.362L39.4745 64H53.1074L30.878 15.1568H18.4509L4.28003 45.5543Z" fill="#4F45E2"/>
<path fill-rule="evenodd" clip-rule="evenodd" d="M11.2224 10.8893L11.5445 6.64703C4.47565 12.2759 0 20.6148 0 29.9202C0 36.2041 2.04065 42.0468 5.54242 46.9124C3.05521 42.6064 1.64463 37.6875 1.64463 32.464C1.64463 24.0537 5.30075 16.4337 11.2224 10.8893Z" fill="#4F45E2"/>
<path fill-rule="evenodd" clip-rule="evenodd" d="M12.3326 6.69153L12.1562 10.703C18.1712 5.07173 24.6977 2.54252 34.823 2.54252C44.948 2.54252 55.6028 7.51085 61.6371 15.1568C61.9192 15.514 62.1929 15.8776 62.4588 16.2463C62.2462 15.8786 62.0261 15.5153 61.7979 15.1568C52.0079 -0.245173 27.5001 -5.38683 12.3326 6.69153Z" fill="black"/>
<path fill-rule="evenodd" clip-rule="evenodd" d="M12.3326 6.69153L12.1562 10.703C18.1712 5.07173 24.6977 2.54252 34.823 2.54252C44.948 2.54252 55.6028 7.51085 61.6371 15.1568C61.9192 15.514 62.1929 15.8776 62.4588 16.2463C62.2462 15.8786 62.0261 15.5153 61.7979 15.1568C52.0079 -0.245173 27.5001 -5.38683 12.3326 6.69153Z" fill="url(#paint1_linear_2002_188)"/>
<defs>
<linearGradient id="paint0_linear_2002_188" x1="70.4378" y1="15.2631" x2="32.3904" y2="15.2631" gradientUnits="userSpaceOnUse">
<stop stop-color="#9C9D9F"/>
<stop offset="1" stop-color="#C6C7C9"/>
</linearGradient>
<linearGradient id="paint1_linear_2002_188" x1="61.7322" y1="0.0355858" x2="12.5608" y2="0.0355891" gradientUnits="userSpaceOnUse">
<stop stop-color="#9C9D9F"/>
<stop offset="1" stop-color="#C6C7C9"/>
</linearGradient>
</defs>
</svg>
