<svg width="63" height="61" viewBox="0 0 63 61" fill="none" xmlns="http://www.w3.org/2000/svg">
<path fill-rule="evenodd" clip-rule="evenodd" d="M22.0654 42.689L26.495 49.8778H18.0366L22.0654 42.689Z" fill="#4F45E2"/>
<path fill-rule="evenodd" clip-rule="evenodd" d="M55.8574 25.0088L62.4877 14.9003H54.5065C54.7044 15.2364 54.8953 15.577 55.0797 15.9217C54.8491 15.576 54.6117 15.2352 54.367 14.9003H28.7285L32.9841 25.0088H36.7781V34.0185L47.896 60.4232H48.092V25.0088H55.8574Z" fill="url(#paint0_linear_2002_187)"/>
<path fill-rule="evenodd" clip-rule="evenodd" d="M4.61871 43.398L11.846 54.0822L22.1345 28.1544L22.1877 28.2879L22.2655 28.0884L28.1127 43.1052L28.1575 43.2177L35.1443 60.6908H46.9686L27.6882 14.9003H16.9097L4.61871 43.398Z" fill="#4F45E2"/>
<path fill-rule="evenodd" clip-rule="evenodd" d="M10.6401 10.8991L10.9196 6.92205C4.78846 12.1992 0.906555 20.0169 0.906555 28.7407C0.906555 34.6318 2.67649 40.1093 5.71372 44.6708C3.55646 40.634 2.33301 36.0225 2.33301 31.1254C2.33301 23.2408 5.50411 16.097 10.6401 10.8991Z" fill="#4F45E2"/>
<path fill-rule="evenodd" clip-rule="evenodd" d="M11.6032 6.96412L11.4503 10.7249C16.6672 5.44556 22.3279 3.07443 31.1101 3.07443C39.8919 3.07443 49.1331 7.73224 54.367 14.9003C54.6117 15.2352 54.849 15.576 55.0797 15.9218C54.8952 15.577 54.7044 15.2364 54.5064 14.9003C46.0152 0.460973 24.7585 -4.35933 11.6032 6.96412Z" fill="black"/>
<path fill-rule="evenodd" clip-rule="evenodd" d="M11.6032 6.96412L11.4503 10.7249C16.6672 5.44556 22.3279 3.07443 31.1101 3.07443C39.8919 3.07443 49.1331 7.73224 54.367 14.9003C54.6117 15.2352 54.849 15.576 55.0797 15.9218C54.8952 15.577 54.7044 15.2364 54.5064 14.9003C46.0152 0.460973 24.7585 -4.35933 11.6032 6.96412Z" fill="url(#paint1_linear_2002_187)"/>
<defs>
<linearGradient id="paint0_linear_2002_187" x1="62" y1="15" x2="29" y2="15" gradientUnits="userSpaceOnUse">
<stop stop-color="#9C9D9F"/>
<stop offset="1" stop-color="#C6C7C9"/>
</linearGradient>
<linearGradient id="paint1_linear_2002_187" x1="54.4494" y1="0.724184" x2="11.8011" y2="0.724187" gradientUnits="userSpaceOnUse">
<stop stop-color="#9C9D9F"/>
<stop offset="1" stop-color="#C6C7C9"/>
</linearGradient>
</defs>
</svg>
