<svg width="78" height="78" viewBox="0 0 78 78" fill="none" xmlns="http://www.w3.org/2000/svg">
<path fill-rule="evenodd" clip-rule="evenodd" d="M27.2394 54L33 64H22L27.2394 54Z" fill="white"/>
<path fill-rule="evenodd" clip-rule="evenodd" d="M69.602 31.6134L78 18.4723H67.8909C68.1416 18.9092 68.3833 19.352 68.6169 19.8002C68.3248 19.3507 68.0241 18.9076 67.7142 18.4723H35.2399L40.6302 31.6134H45.4357V43.3259L59.5179 77.6521H59.7661V31.6134H69.602Z" fill="url(#paint0_linear_312_755)"/>
<path fill-rule="evenodd" clip-rule="evenodd" d="M4.7019 55.5193L13.8562 69.4088L26.8878 35.7026L26.9551 35.8762L27.0537 35.6169L34.4598 55.1387L34.5167 55.2849L43.3662 78H58.3432L33.9223 18.4723H20.2699L4.7019 55.5193Z" fill="white"/>
<path fill-rule="evenodd" clip-rule="evenodd" d="M12.3288 13.2709L12.6827 8.1007C4.9169 14.9609 -7.62939e-06 25.124 -7.62939e-06 36.4649C-7.62939e-06 44.1234 2.24183 51.2442 6.08885 57.1741C3.35642 51.9262 1.80677 45.9313 1.80677 39.5651C1.80677 29.3151 5.82336 20.0281 12.3288 13.2709Z" fill="white"/>
<path fill-rule="evenodd" clip-rule="evenodd" d="M13.5486 8.15537L13.3549 13.0444C19.9628 6.18124 27.1328 3.09876 38.2564 3.09876C49.3796 3.09876 61.0849 9.15392 67.7141 18.4724C68.0241 18.9077 68.3247 19.3508 68.6169 19.8003C68.3832 19.3521 68.1415 18.9093 67.8908 18.4724C57.1356 -0.298734 30.2115 -6.56513 13.5486 8.15537Z" fill="black"/>
<path fill-rule="evenodd" clip-rule="evenodd" d="M13.5486 8.15537L13.3549 13.0444C19.9628 6.18124 27.1328 3.09876 38.2564 3.09876C49.3796 3.09876 61.0849 9.15392 67.7141 18.4724C68.0241 18.9077 68.3247 19.3508 68.6169 19.8003C68.3832 19.3521 68.1415 18.9093 67.8908 18.4724C57.1356 -0.298734 30.2115 -6.56513 13.5486 8.15537Z" fill="url(#paint1_linear_312_755)"/>
<defs>
<linearGradient id="paint0_linear_312_755" x1="77.3823" y1="18.6019" x2="35.5838" y2="18.6019" gradientUnits="userSpaceOnUse">
<stop stop-color="#9C9D9F"/>
<stop offset="1" stop-color="#C6C7C9"/>
</linearGradient>
<linearGradient id="paint1_linear_312_755" x1="67.8186" y1="0.0434412" x2="13.7993" y2="0.0434445" gradientUnits="userSpaceOnUse">
<stop stop-color="#9C9D9F"/>
<stop offset="1" stop-color="#C6C7C9"/>
</linearGradient>
</defs>
</svg>
