<svg width="163" height="61" viewBox="0 0 163 61" fill="none" xmlns="http://www.w3.org/2000/svg">
<g clip-path="url(#clip0_99_321)">
<path d="M70.6644 38.9185L69.3161 35.489H60.8744L59.5554 38.9185H54.2794L62.7504 18.9868H67.4988L75.9404 38.9185H70.6644ZM62.4866 31.3562H67.704L65.0953 24.6439L62.4866 31.3562ZM91.1147 18.9868H96.039V38.9185H91.1147V31.4441H82.9955V38.9185H78.0419V18.9868H82.9955V26.9888H91.1147V18.9868ZM113.226 18.9868H118.708L110.852 32.9097V38.9185H105.869V32.9097L97.9845 18.9868H103.466L108.331 27.6629L113.226 18.9868ZM125.588 34.4925H135.437V38.9185H120.635V18.9868H125.588V34.4925ZM137.781 18.9868H142.734V38.9185H137.781V18.9868ZM153.112 34.5511H162.756V38.9185H145.491V36.5736L155.369 23.3542H145.99V18.9868H162.58V21.3317L153.112 34.5511Z" fill="white"/>
<path d="M59.4053 51.1652L59.6154 52.8579C59.0317 53.1031 58.4247 53.1381 58.0978 53.1381C56.5569 53.1381 55.623 52.1341 55.623 50.6049V48.9472H54.514V47.3246H55.623V45.3984H57.5142V47.3246H59.4403V48.9472H57.5142V50.5465C57.5142 51.1302 57.8527 51.3987 58.4014 51.3987C58.7632 51.3987 59.0668 51.2936 59.4053 51.1652ZM63.0606 47.1728C65.0568 47.1728 66.2592 48.597 65.979 50.6049H61.8816C62.01 51.1886 62.3952 51.6439 63.1657 51.6439C63.5859 51.6439 63.8311 51.5505 64.0062 51.3403H65.9207C65.5821 52.4493 64.5315 53.1381 63.2007 53.1381C61.3446 53.1381 60.1072 51.8773 60.1072 50.1496C60.1072 48.4336 61.3096 47.1728 63.0606 47.1728ZM63.1073 48.5737C62.4419 48.5737 62.0567 48.9472 61.9049 49.5192H64.263C64.158 48.8655 63.7494 48.5737 63.1073 48.5737ZM69.9042 51.5388C70.4762 51.5388 70.9198 51.1769 71.0132 50.6633H72.7993C72.6592 52.1225 71.4568 53.1381 69.8926 53.1381C68.1182 53.1381 66.799 51.8773 66.799 50.1496C66.799 48.4336 68.1182 47.1728 69.8926 47.1728C71.4568 47.1728 72.6592 48.1884 72.7993 49.6477H71.0132C70.9198 49.134 70.4762 48.7721 69.9042 48.7721C69.0871 48.7721 68.6085 49.3792 68.6085 50.1496C68.6085 50.9201 69.0871 51.5388 69.9042 51.5388ZM77.2487 47.1728C78.6729 47.1728 79.6535 48.1417 79.6535 49.7527V52.9863H77.7624V50.0562C77.7624 49.2507 77.3538 48.8889 76.7234 48.8889C76.3849 48.8889 76.023 49.064 75.6961 49.4259V52.9863H73.7933V44.698H75.6961V47.6981C76.1514 47.3596 76.6417 47.1728 77.2487 47.1728ZM84.3282 47.1728C85.7524 47.1728 86.7329 48.1417 86.7329 49.7527V52.9863H84.8418V50.0562C84.8418 49.2507 84.4332 48.8889 83.8028 48.8889C83.4643 48.8889 83.1024 49.064 82.7756 49.4259V52.9863H80.8728V47.3246H82.7756V47.6981C83.2308 47.3596 83.7211 47.1728 84.3282 47.1728ZM90.8123 47.1728C92.6334 47.1728 93.9175 48.4219 93.9175 50.1613C93.9175 51.9123 92.6334 53.1381 90.8123 53.1381C88.9912 53.1381 87.6954 51.9123 87.6954 50.1613C87.6954 48.4219 88.9912 47.1728 90.8123 47.1728ZM90.8123 51.5621C91.5944 51.5621 92.1431 50.9901 92.1431 50.1613C92.1431 49.3441 91.5944 48.7605 90.8123 48.7605C90.0184 48.7605 89.4698 49.3441 89.4698 50.1613C89.4698 50.9901 90.0184 51.5621 90.8123 51.5621ZM94.9063 44.698H96.8091V52.9863H94.9063V44.698ZM100.913 47.1728C102.734 47.1728 104.018 48.4219 104.018 50.1613C104.018 51.9123 102.734 53.1381 100.913 53.1381C99.0916 53.1381 97.7959 51.9123 97.7959 50.1613C97.7959 48.4219 99.0916 47.1728 100.913 47.1728ZM100.913 51.5621C101.695 51.5621 102.244 50.9901 102.244 50.1613C102.244 49.3441 101.695 48.7605 100.913 48.7605C100.119 48.7605 99.5703 49.3441 99.5703 50.1613C99.5703 50.9901 100.119 51.5621 100.913 51.5621ZM109.059 47.3246H110.95V53.0213C110.95 54.7957 109.689 55.823 107.915 55.823C106.199 55.823 104.95 54.8424 104.856 53.3716H106.724C106.818 53.8969 107.214 54.2237 107.915 54.2237C108.557 54.2237 109.059 53.8268 109.059 53.0564V52.3793C108.639 52.6361 108.137 52.7879 107.506 52.7879C105.977 52.7879 104.693 51.5855 104.693 50.0562C104.693 48.3285 105.977 47.1728 107.506 47.1728C108.137 47.1728 108.639 47.3363 109.059 47.6048V47.3246ZM107.891 51.282C108.3 51.282 108.697 51.1536 109.059 50.745V49.2507C108.697 48.8422 108.3 48.7254 107.891 48.7254C107.121 48.7254 106.549 49.2391 106.549 50.0562C106.549 50.6749 107.121 51.282 107.891 51.282ZM113.343 46.4374C112.725 46.4374 112.234 45.9821 112.234 45.3751C112.234 44.7564 112.725 44.3011 113.343 44.3011C113.95 44.3011 114.452 44.7564 114.452 45.3751C114.452 45.9821 113.95 46.4374 113.343 46.4374ZM112.409 47.3246H114.301V52.9863H112.409V47.3246ZM118.408 47.1728C120.404 47.1728 121.607 48.597 121.326 50.6049H117.229C117.357 51.1886 117.743 51.6439 118.513 51.6439C118.933 51.6439 119.178 51.5505 119.354 51.3403H121.268C120.93 52.4493 119.879 53.1381 118.548 53.1381C116.692 53.1381 115.455 51.8773 115.455 50.1496C115.455 48.4336 116.657 47.1728 118.408 47.1728ZM118.455 48.5737C117.789 48.5737 117.404 48.9472 117.252 49.5192H119.61C119.505 48.8655 119.097 48.5737 118.455 48.5737ZM123.665 51.0485C123.747 51.5388 124.19 51.7489 124.786 51.7489C125.287 51.7489 125.603 51.6088 125.603 51.3637C125.603 51.1652 125.381 51.0251 125.007 50.9668L123.863 50.7683C122.894 50.6049 122.206 50.0562 122.206 49.064C122.206 47.8733 123.221 47.1728 124.727 47.1728C126.07 47.1728 127.284 47.6281 127.365 49.1223H125.696C125.661 48.7021 125.252 48.5153 124.727 48.5153C124.237 48.5153 124.015 48.6904 124.015 48.9005C124.015 49.099 124.155 49.2741 124.61 49.3558L125.661 49.5309C126.712 49.7294 127.424 50.243 127.424 51.2469C127.424 52.5544 126.256 53.1381 124.774 53.1381C123.315 53.1381 122.112 52.5427 121.984 51.0368L123.665 51.0485Z" fill="white"/>
<path fill-rule="evenodd" clip-rule="evenodd" d="M22.0654 42.5788L26.495 49.7676H18.0366L22.0654 42.5788Z" fill="white"/>
<path fill-rule="evenodd" clip-rule="evenodd" d="M55.8574 24.8986L62.4877 14.7901H54.5065C54.7044 15.1262 54.8953 15.4668 55.0797 15.8115C54.8491 15.4658 54.6117 15.1249 54.367 14.7901H28.7285L32.9841 24.8986H36.7781V33.9082L47.896 60.313H48.092V24.8986H55.8574Z" fill="white"/>
<path fill-rule="evenodd" clip-rule="evenodd" d="M4.61871 43.2877L11.846 53.972L22.1345 28.0441L22.1877 28.1777L22.2655 27.9782L28.1127 42.9949L28.1575 43.1074L35.1443 60.5806H46.9686L27.6882 14.7901H16.9097L4.61871 43.2877Z" fill="white"/>
<path fill-rule="evenodd" clip-rule="evenodd" d="M10.6401 10.7889L10.9196 6.81182C4.78846 12.0889 0.906555 19.9066 0.906555 28.6304C0.906555 34.5216 2.67649 39.9991 5.71372 44.5605C3.55646 40.5238 2.33301 35.9123 2.33301 31.0152C2.33301 23.1306 5.50411 15.9868 10.6401 10.7889Z" fill="white"/>
<path fill-rule="evenodd" clip-rule="evenodd" d="M11.6032 6.85389L11.4503 10.6147C16.6672 5.33533 22.3279 2.9642 31.1101 2.9642C39.8919 2.9642 49.1331 7.62201 54.367 14.7901C54.6117 15.1249 54.849 15.4658 55.0797 15.8115C54.8952 15.4668 54.7044 15.1262 54.5064 14.7901C46.0152 0.350743 24.7585 -4.46956 11.6032 6.85389Z" fill="white"/>
</g>
<defs>
<clipPath id="clip0_99_321">
<rect width="163" height="60" fill="white" transform="translate(0 0.889648)"/>
</clipPath>
</defs>
</svg>
