<svg width="165" height="61" viewBox="0 0 165 61" fill="none" xmlns="http://www.w3.org/2000/svg">
<path d="M70.6644 39.0288L69.3161 35.5994H60.8744L59.5554 39.0288H54.2794L62.7504 19.0972H67.4988L75.9404 39.0288H70.6644ZM62.4866 31.4665H67.704L65.0953 24.7542L62.4866 31.4665Z" fill="black"/>
<path d="M70.6644 39.0288L69.3161 35.5994H60.8744L59.5554 39.0288H54.2794L62.7504 19.0972H67.4988L75.9404 39.0288H70.6644ZM62.4866 31.4665H67.704L65.0953 24.7542L62.4866 31.4665Z" fill="url(#paint0_linear_57_7525)"/>
<path d="M91.1147 19.0972H96.039V39.0288H91.1147V31.5544H82.9955V39.0288H78.0419V19.0972H82.9955V27.0991H91.1147V19.0972Z" fill="black"/>
<path d="M91.1147 19.0972H96.039V39.0288H91.1147V31.5544H82.9955V39.0288H78.0419V19.0972H82.9955V27.0991H91.1147V19.0972Z" fill="url(#paint1_linear_57_7525)"/>
<path d="M113.226 19.0972H118.708L110.852 33.02V39.0288H105.869V33.02L97.9845 19.0972H103.466L108.331 27.7733L113.226 19.0972Z" fill="black"/>
<path d="M113.226 19.0972H118.708L110.852 33.02V39.0288H105.869V33.02L97.9845 19.0972H103.466L108.331 27.7733L113.226 19.0972Z" fill="url(#paint2_linear_57_7525)"/>
<path d="M125.588 34.6028H135.437V39.0288H120.635V19.0972H125.588V34.6028Z" fill="black"/>
<path d="M125.588 34.6028H135.437V39.0288H120.635V19.0972H125.588V34.6028Z" fill="url(#paint3_linear_57_7525)"/>
<path d="M137.781 19.0972H142.734V39.0288H137.781V19.0972Z" fill="black"/>
<path d="M137.781 19.0972H142.734V39.0288H137.781V19.0972Z" fill="url(#paint4_linear_57_7525)"/>
<path d="M153.112 34.6614H162.756V39.0288H145.491V36.6839L155.369 23.4645H145.99V19.0972H162.58V21.4421L153.112 34.6614Z" fill="black"/>
<path d="M153.112 34.6614H162.756V39.0288H145.491V36.6839L155.369 23.4645H145.99V19.0972H162.58V21.4421L153.112 34.6614Z" fill="url(#paint5_linear_57_7525)"/>
<path d="M57.4791 50.248V46.2322L55.9499 46.2673C55.3545 46.2789 55.1094 46.349 54.9576 46.5708C54.8526 46.7109 54.8059 46.8393 54.7825 46.9093C54.7592 46.991 54.7358 47.0377 54.6658 47.0377C54.5957 47.0377 54.5724 46.9794 54.5724 46.8743C54.5724 46.7109 54.7708 45.7536 54.7942 45.6719C54.8175 45.5435 54.8526 45.4851 54.9109 45.4851C54.9926 45.4851 55.0977 45.5668 55.3545 45.6019C55.658 45.6369 56.0433 45.6486 56.3818 45.6486H60.5493C60.8762 45.6486 61.098 45.6252 61.2497 45.6019C61.4132 45.5785 61.4949 45.5552 61.5299 45.5552C61.6 45.5552 61.6116 45.6135 61.6116 45.7653C61.6116 45.9754 61.5883 46.7109 61.5883 46.9677C61.5766 47.0728 61.5533 47.1311 61.4949 47.1311C61.4132 47.1311 61.3898 47.0844 61.3782 46.9327L61.3665 46.8276C61.3431 46.5708 61.0746 46.2673 60.1524 46.2556L58.8566 46.2322V50.248C58.8566 51.1585 58.8683 51.9407 58.915 52.3726C58.95 52.6528 59.0084 52.8396 59.3119 52.8862C59.452 52.9096 59.6855 52.9213 59.8372 52.9213C59.954 52.9213 60.0007 52.9796 60.0007 53.0263C60.0007 53.0964 59.9189 53.1314 59.8022 53.1314C59.1251 53.1314 58.4364 53.0964 58.1445 53.0964C57.9111 53.0964 57.2106 53.1314 56.8021 53.1314C56.6737 53.1314 56.6036 53.0964 56.6036 53.0263C56.6036 52.9796 56.6386 52.9213 56.767 52.9213C56.9188 52.9213 57.0472 52.9096 57.1289 52.8862C57.3391 52.8396 57.3974 52.6528 57.4324 52.3609C57.4791 51.9407 57.4791 51.1585 57.4791 50.248ZM64.9014 50.248V48.4969C64.9014 46.991 64.9014 46.7109 64.8897 46.3957C64.8664 46.0571 64.773 45.9521 64.4461 45.8587C64.3644 45.8353 64.1893 45.8237 64.0376 45.8237C63.9325 45.8237 63.8625 45.7886 63.8625 45.7186C63.8625 45.6486 63.9442 45.6252 64.0959 45.6252C64.6329 45.6252 65.2867 45.6486 65.5785 45.6486C65.9054 45.6486 68.1817 45.6602 68.3802 45.6486C68.567 45.6369 68.7304 45.6019 68.8121 45.5902C68.8705 45.5785 68.9288 45.5435 68.9755 45.5435C69.0339 45.5435 69.0456 45.5902 69.0456 45.6369C69.0456 45.7069 68.9872 45.8237 68.9639 46.2789C68.9522 46.384 68.9288 46.8159 68.9055 46.9327C68.8938 46.9794 68.8705 47.0961 68.7888 47.0961C68.7187 47.0961 68.707 47.0494 68.707 46.9677C68.707 46.8976 68.6954 46.7225 68.637 46.6058C68.5553 46.4307 68.4736 46.2906 67.9599 46.2439C67.7848 46.2206 66.5591 46.1972 66.349 46.1972C66.3023 46.1972 66.2789 46.2322 66.2789 46.2906V48.7421C66.2789 48.8005 66.2906 48.8472 66.349 48.8472C66.5824 48.8472 67.9132 48.8472 68.1467 48.8238C68.3919 48.8005 68.5436 48.7771 68.637 48.672C68.7187 48.602 68.7537 48.5436 68.8004 48.5436C68.8471 48.5436 68.8821 48.5903 68.8821 48.6487C68.8821 48.7071 68.8588 48.8705 68.8004 49.3725C68.7771 49.5709 68.7537 49.9678 68.7537 50.0379C68.7537 50.1196 68.7421 50.2597 68.6487 50.2597C68.5786 50.2597 68.5553 50.2246 68.5553 50.178C68.5436 50.0729 68.5436 49.9445 68.5203 49.8161C68.4619 49.6176 68.3335 49.4659 67.9483 49.4308C67.7615 49.4075 66.5941 49.3841 66.3373 49.3841C66.2906 49.3841 66.2789 49.4308 66.2789 49.4892V50.283C66.2789 50.6216 66.2672 51.4621 66.2789 51.7539C66.3023 52.431 66.6175 52.5827 67.6681 52.5827C67.9366 52.5827 68.3685 52.5711 68.637 52.4543C68.8938 52.3376 69.0106 52.1275 69.0806 51.7189C69.1039 51.6138 69.1273 51.5671 69.1973 51.5671C69.2791 51.5671 69.2907 51.6955 69.2907 51.8006C69.2907 52.0224 69.209 52.6995 69.1506 52.8979C69.0806 53.1547 68.9872 53.1547 68.602 53.1547C67.8315 53.1547 67.2128 53.1431 66.7108 53.1197C66.2089 53.108 65.8236 53.0964 65.5201 53.0964C65.4034 53.0964 65.1816 53.108 64.9364 53.108C64.6913 53.1197 64.4345 53.1314 64.2243 53.1314C64.0959 53.1314 64.0259 53.0964 64.0259 53.0263C64.0259 52.9796 64.0609 52.9213 64.1893 52.9213C64.3411 52.9213 64.4578 52.9096 64.5512 52.8862C64.7613 52.8396 64.8197 52.6528 64.8547 52.3609C64.9014 51.9407 64.9014 51.1585 64.9014 50.248ZM76.7172 53.2598C75.3164 53.2598 74.1256 52.968 73.1917 52.1858C72.1761 51.3336 71.9076 50.213 71.9076 49.2557C71.9076 48.5787 72.1294 47.4113 73.11 46.5358C73.8571 45.882 74.8377 45.4851 76.367 45.4851C77.009 45.4851 77.3943 45.5318 77.8612 45.5902C78.2464 45.6486 78.585 45.7186 78.8885 45.7536C79.0052 45.7653 79.0403 45.812 79.0403 45.8704C79.0403 45.9521 79.0169 46.0688 78.9936 46.419C78.9702 46.7459 78.9702 47.2946 78.9585 47.493C78.9469 47.6331 78.9118 47.7382 78.8185 47.7382C78.7367 47.7382 78.7134 47.6564 78.7134 47.528C78.7017 47.2128 78.5733 46.8626 78.3165 46.6058C77.9663 46.2673 77.2775 46.0221 76.332 46.0221C75.4331 46.0221 74.8611 46.1856 74.3941 46.5825C73.6353 47.2362 73.4486 48.1934 73.4486 49.1623C73.4486 51.5204 75.2697 52.6411 76.6472 52.6411C77.5577 52.6411 78.0597 52.5711 78.4682 52.1158C78.6434 51.9173 78.7834 51.6372 78.8185 51.4504C78.8418 51.2986 78.8652 51.2519 78.9469 51.2519C79.0169 51.2519 79.0636 51.3453 79.0636 51.427C79.0636 51.5438 78.9469 52.4076 78.8418 52.7462C78.7951 52.9213 78.7484 52.968 78.5733 53.038C78.1647 53.2014 77.3826 53.2598 76.7172 53.2598ZM84.1076 48.8588H87.9832C88.0066 48.8588 88.0416 48.8472 88.0416 48.7888V48.5787C88.0416 47.0728 88.0299 46.7109 88.0182 46.3957C87.9949 46.0571 87.9015 45.9521 87.5746 45.8587C87.4929 45.8353 87.3178 45.8237 87.1777 45.8237C87.061 45.8237 87.0026 45.7886 87.0026 45.7186C87.0026 45.6486 87.0727 45.6252 87.2244 45.6252C87.7731 45.6252 88.4969 45.6486 88.7654 45.6486C89.0105 45.6486 89.6876 45.6252 90.0845 45.6252C90.2362 45.6252 90.3063 45.6486 90.3063 45.7186C90.3063 45.7886 90.2362 45.8237 90.1195 45.8237C90.0378 45.8237 89.9444 45.8353 89.816 45.8587C89.5475 45.9054 89.4658 46.0455 89.4424 46.3957C89.4191 46.7109 89.4191 46.991 89.4191 48.4969V50.248C89.4191 51.1585 89.4191 51.9407 89.4658 52.3726C89.5008 52.6528 89.5592 52.8396 89.8744 52.8862C90.0144 52.9096 90.2362 52.9213 90.3997 52.9213C90.5047 52.9213 90.5631 52.9796 90.5631 53.0263C90.5631 53.0964 90.4814 53.1314 90.353 53.1314C89.6876 53.1314 89.0105 53.0964 88.7303 53.0964C88.4969 53.0964 87.7731 53.1314 87.3762 53.1314C87.2361 53.1314 87.1544 53.0964 87.1544 53.0263C87.1544 52.9796 87.2011 52.9213 87.3178 52.9213C87.4812 52.9213 87.598 52.9096 87.6914 52.8862C87.9015 52.8396 87.9599 52.6528 87.9949 52.3609C88.0416 51.9407 88.0416 51.1819 88.0416 50.2713V49.5126C88.0416 49.4775 88.0066 49.4542 87.9832 49.4542H84.1076C84.0725 49.4542 84.0375 49.4659 84.0375 49.5126V50.2713C84.0375 51.1819 84.0492 51.9407 84.0959 52.3726C84.1309 52.6528 84.1893 52.8396 84.4928 52.8862C84.6329 52.9096 84.8663 52.9213 85.0181 52.9213C85.1348 52.9213 85.1815 52.9796 85.1815 53.0263C85.1815 53.0964 85.0998 53.1314 84.9714 53.1314C84.306 53.1314 83.5939 53.0964 83.3021 53.0964C83.0686 53.0964 82.3915 53.1314 81.9829 53.1314C81.8545 53.1314 81.7845 53.0964 81.7845 53.0263C81.7845 52.9796 81.8195 52.9213 81.9479 52.9213C82.0997 52.9213 82.2164 52.9096 82.3098 52.8862C82.5199 52.8396 82.5783 52.6528 82.6133 52.3609C82.66 51.9407 82.66 51.1585 82.66 50.248V48.4969C82.66 46.991 82.66 46.7109 82.6483 46.3957C82.625 46.0571 82.5316 45.9521 82.2047 45.8587C82.123 45.8353 81.9479 45.8237 81.7962 45.8237C81.6911 45.8237 81.6211 45.7886 81.6211 45.7186C81.6211 45.6486 81.7028 45.6252 81.8429 45.6252C82.3915 45.6252 83.0686 45.6486 83.3488 45.6486C83.5939 45.6486 84.306 45.6252 84.7146 45.6252C84.8547 45.6252 84.9247 45.6486 84.9247 45.7186C84.9247 45.7886 84.8663 45.8237 84.7379 45.8237C84.6562 45.8237 84.5628 45.8353 84.4461 45.8587C84.1659 45.9054 84.0842 46.0455 84.0609 46.3957C84.0375 46.7109 84.0375 47.0728 84.0375 48.5787V48.7888C84.0375 48.8472 84.0725 48.8588 84.1076 48.8588ZM94.7094 47.7265L94.8262 51.7772C94.8495 52.5477 94.9779 52.7812 95.1764 52.8512C95.3515 52.9096 95.55 52.9213 95.7134 52.9213C95.8301 52.9213 95.8885 52.968 95.8885 53.0263C95.8885 53.108 95.7951 53.1314 95.655 53.1314C94.9896 53.1314 94.511 53.0964 94.3242 53.0964C94.2308 53.0964 93.7405 53.1314 93.2152 53.1314C93.0751 53.1314 92.9817 53.1197 92.9817 53.0263C92.9817 52.968 93.0518 52.9213 93.1452 52.9213C93.2853 52.9213 93.472 52.9096 93.6121 52.8746C93.8806 52.8045 93.9156 52.536 93.9273 51.6722L94.0207 45.7886C94.0207 45.5902 94.0907 45.4501 94.1958 45.4501C94.3242 45.4501 94.4643 45.6019 94.6394 45.777C94.7678 45.9054 96.3087 47.4813 97.803 48.9405C98.5034 49.6293 99.8692 51.0301 100.021 51.1702H100.068L99.9626 46.7576C99.9509 46.1505 99.8575 45.9754 99.6124 45.882C99.4606 45.8237 99.2155 45.8237 99.0754 45.8237C98.947 45.8237 98.912 45.777 98.912 45.7186C98.912 45.6369 99.017 45.6252 99.1688 45.6252C99.7058 45.6252 100.254 45.6486 100.476 45.6486C100.593 45.6486 100.978 45.6252 101.48 45.6252C101.62 45.6252 101.714 45.6369 101.714 45.7186C101.714 45.777 101.655 45.8237 101.539 45.8237C101.433 45.8237 101.352 45.8237 101.223 45.8587C100.943 45.9404 100.861 46.1155 100.85 46.6758L100.733 52.9329C100.733 53.1547 100.651 53.2481 100.57 53.2481C100.395 53.2481 100.254 53.1431 100.149 53.038C99.5073 52.4426 98.2232 51.2169 97.1492 50.178C96.0286 49.104 94.9429 47.9016 94.7445 47.7265H94.7094ZM108.368 53.2598C105.38 53.2598 104.166 51.1352 104.166 49.3725C104.166 47.6798 105.356 45.4851 108.473 45.4851C111.065 45.4851 112.676 46.921 112.676 49.1974C112.676 51.4737 111.018 53.2598 108.368 53.2598ZM108.789 52.7228C109.512 52.7228 111.147 52.3843 111.147 49.5592C111.147 47.3646 109.828 46.0104 108.17 46.0104C107.026 46.0104 105.683 46.6175 105.683 49.069C105.683 51.1118 106.851 52.7228 108.789 52.7228ZM117.367 48.4969V50.248C117.367 51.5204 117.367 52.1508 117.589 52.3376C117.764 52.4893 118.161 52.5477 118.955 52.5477C119.504 52.5477 119.9 52.536 120.157 52.2675C120.286 52.1391 120.391 51.859 120.414 51.6722C120.426 51.5788 120.449 51.5204 120.531 51.5204C120.601 51.5204 120.624 51.6255 120.624 51.7422C120.624 51.859 120.554 52.5944 120.472 52.8862C120.402 53.108 120.356 53.1547 119.819 53.1547C119.083 53.1547 118.488 53.1431 117.974 53.1197C117.461 53.108 117.029 53.0964 116.608 53.0964C116.492 53.0964 116.27 53.108 116.025 53.108C115.78 53.1197 115.523 53.1314 115.313 53.1314C115.184 53.1314 115.114 53.0964 115.114 53.0263C115.114 52.9796 115.149 52.9213 115.278 52.9213C115.429 52.9213 115.546 52.9096 115.64 52.8862C115.85 52.8396 115.908 52.6528 115.943 52.3609C115.99 51.9407 115.99 51.1585 115.99 50.248V48.4969C115.99 46.991 115.99 46.7109 115.978 46.3957C115.955 46.0571 115.861 45.9521 115.534 45.8587C115.453 45.8353 115.324 45.8237 115.196 45.8237C115.079 45.8237 115.021 45.7886 115.021 45.7186C115.021 45.6486 115.091 45.6252 115.243 45.6252C115.721 45.6252 116.375 45.6486 116.655 45.6486C116.9 45.6486 117.741 45.6252 118.138 45.6252C118.289 45.6252 118.36 45.6486 118.36 45.7186C118.36 45.7886 118.301 45.8237 118.173 45.8237C118.056 45.8237 117.893 45.8353 117.776 45.8587C117.496 45.9054 117.414 46.0455 117.391 46.3957C117.367 46.7109 117.367 46.991 117.367 48.4969ZM126.685 53.2598C123.697 53.2598 122.483 51.1352 122.483 49.3725C122.483 47.6798 123.674 45.4851 126.791 45.4851C129.382 45.4851 130.993 46.921 130.993 49.1974C130.993 51.4737 129.335 53.2598 126.685 53.2598ZM127.106 52.7228C127.83 52.7228 129.464 52.3843 129.464 49.5592C129.464 47.3646 128.145 46.0104 126.487 46.0104C125.343 46.0104 124.001 46.6175 124.001 49.069C124.001 51.1118 125.168 52.7228 127.106 52.7228ZM140.929 51.3687V52.466C140.929 52.7345 140.929 52.7462 140.801 52.8162C140.112 53.1547 139.096 53.2598 138.291 53.2598C135.769 53.2598 133.54 52.1158 133.54 49.3725C133.54 47.7848 134.392 46.6758 135.337 46.1272C136.318 45.5552 137.24 45.4851 138.104 45.4851C138.816 45.4851 139.715 45.6019 139.925 45.6486C140.135 45.6836 140.497 45.742 140.742 45.7536C140.859 45.7653 140.882 45.8003 140.882 45.8704C140.882 45.9871 140.812 46.2556 140.812 47.5047C140.812 47.6564 140.754 47.7265 140.672 47.7265C140.602 47.7265 140.579 47.6798 140.567 47.5981C140.544 47.3763 140.486 47.0611 140.217 46.7809C139.914 46.4657 139.143 46.0221 137.987 46.0221C137.427 46.0221 136.715 46.0338 136.003 46.6058C135.431 47.0728 135.057 47.8082 135.057 49.0223C135.057 51.1585 136.435 52.7111 138.629 52.7111C138.898 52.7111 139.108 52.7111 139.353 52.6061C139.505 52.536 139.552 52.431 139.552 52.2559V51.3453C139.552 50.855 139.552 50.4815 139.54 50.178C139.528 49.8394 139.423 49.7344 139.096 49.641C139.015 49.6176 138.84 49.6059 138.699 49.6059C138.606 49.6059 138.536 49.5592 138.536 49.5009C138.536 49.4192 138.618 49.4075 138.758 49.4075C139.295 49.4075 140.03 49.4308 140.334 49.4308C140.661 49.4308 141.198 49.4075 141.536 49.4075C141.676 49.4075 141.746 49.4192 141.746 49.5009C141.746 49.5592 141.688 49.6059 141.618 49.6059C141.536 49.6059 141.454 49.6176 141.338 49.641C141.058 49.6877 140.952 49.8277 140.941 50.178C140.929 50.4815 140.929 50.8784 140.929 51.3687ZM145.204 50.248V48.4969C145.204 46.991 145.204 46.7109 145.192 46.3957C145.169 46.0571 145.064 45.9404 144.842 45.8704C144.725 45.8353 144.597 45.8237 144.469 45.8237C144.364 45.8237 144.305 45.8003 144.305 45.7069C144.305 45.6486 144.387 45.6252 144.55 45.6252C144.936 45.6252 145.636 45.6486 145.928 45.6486C146.185 45.6486 146.85 45.6252 147.247 45.6252C147.375 45.6252 147.457 45.6486 147.457 45.7069C147.457 45.8003 147.399 45.8237 147.294 45.8237C147.189 45.8237 147.107 45.8353 146.99 45.8587C146.71 45.9054 146.628 46.0455 146.605 46.3957C146.582 46.7109 146.582 46.991 146.582 48.4969V50.248C146.582 51.2052 146.582 51.999 146.628 52.4193C146.663 52.6878 146.733 52.8396 147.037 52.8862C147.177 52.9096 147.41 52.9213 147.562 52.9213C147.679 52.9213 147.726 52.9796 147.726 53.0263C147.726 53.0964 147.644 53.1314 147.527 53.1314C146.85 53.1314 146.15 53.0964 145.869 53.0964C145.636 53.0964 144.936 53.1314 144.527 53.1314C144.399 53.1314 144.329 53.0964 144.329 53.0263C144.329 52.9796 144.364 52.9213 144.492 52.9213C144.644 52.9213 144.76 52.9096 144.854 52.8862C145.064 52.8396 145.122 52.6995 145.157 52.4076C145.204 51.999 145.204 51.2052 145.204 50.248ZM151.359 50.248V48.4969C151.359 46.991 151.359 46.7109 151.347 46.3957C151.324 46.0571 151.23 45.9521 150.903 45.8587C150.822 45.8353 150.647 45.8237 150.495 45.8237C150.39 45.8237 150.32 45.7886 150.32 45.7186C150.32 45.6486 150.402 45.6252 150.553 45.6252C151.09 45.6252 151.744 45.6486 152.036 45.6486C152.363 45.6486 154.639 45.6602 154.838 45.6486C155.024 45.6369 155.188 45.6019 155.269 45.5902C155.328 45.5785 155.386 45.5435 155.433 45.5435C155.491 45.5435 155.503 45.5902 155.503 45.6369C155.503 45.7069 155.445 45.8237 155.421 46.2789C155.41 46.384 155.386 46.8159 155.363 46.9327C155.351 46.9794 155.328 47.0961 155.246 47.0961C155.176 47.0961 155.164 47.0494 155.164 46.9677C155.164 46.8976 155.153 46.7225 155.094 46.6058C155.013 46.4307 154.931 46.2906 154.417 46.2439C154.242 46.2206 153.016 46.1972 152.806 46.1972C152.76 46.1972 152.736 46.2322 152.736 46.2906V48.7421C152.736 48.8005 152.748 48.8472 152.806 48.8472C153.04 48.8472 154.371 48.8472 154.604 48.8238C154.849 48.8005 155.001 48.7771 155.094 48.672C155.176 48.602 155.211 48.5436 155.258 48.5436C155.304 48.5436 155.339 48.5903 155.339 48.6487C155.339 48.7071 155.316 48.8705 155.258 49.3725C155.234 49.5709 155.211 49.9678 155.211 50.0379C155.211 50.1196 155.199 50.2597 155.106 50.2597C155.036 50.2597 155.013 50.2246 155.013 50.178C155.001 50.0729 155.001 49.9445 154.978 49.8161C154.919 49.6176 154.791 49.4659 154.406 49.4308C154.219 49.4075 153.051 49.3841 152.795 49.3841C152.748 49.3841 152.736 49.4308 152.736 49.4892V50.283C152.736 50.6216 152.725 51.4621 152.736 51.7539C152.76 52.431 153.075 52.5827 154.125 52.5827C154.394 52.5827 154.826 52.5711 155.094 52.4543C155.351 52.3376 155.468 52.1275 155.538 51.7189C155.561 51.6138 155.585 51.5671 155.655 51.5671C155.736 51.5671 155.748 51.6955 155.748 51.8006C155.748 52.0224 155.666 52.6995 155.608 52.8979C155.538 53.1547 155.445 53.1547 155.059 53.1547C154.289 53.1547 153.67 53.1431 153.168 53.1197C152.666 53.108 152.281 53.0964 151.977 53.0964C151.861 53.0964 151.639 53.108 151.394 53.108C151.149 53.1197 150.892 53.1314 150.682 53.1314C150.553 53.1314 150.483 53.0964 150.483 53.0263C150.483 52.9796 150.518 52.9213 150.647 52.9213C150.798 52.9213 150.915 52.9096 151.009 52.8862C151.219 52.8396 151.277 52.6528 151.312 52.3609C151.359 51.9407 151.359 51.1585 151.359 50.248ZM160.595 53.2598C159.999 53.2598 159.369 53.2014 158.925 53.003C158.762 52.9329 158.727 52.8862 158.727 52.6644C158.727 52.1275 158.774 51.5088 158.785 51.3453C158.785 51.1936 158.832 51.0885 158.914 51.0885C159.007 51.0885 159.019 51.1819 159.019 51.2519C159.019 51.3803 159.054 51.5905 159.112 51.7656C159.334 52.501 160.104 52.7462 160.746 52.7462C161.634 52.7462 162.171 52.1858 162.171 51.4854C162.171 51.0535 162.066 50.6216 161.155 50.0846L160.56 49.7344C159.346 49.0223 158.949 48.3569 158.949 47.4813C158.949 46.2673 160.116 45.4851 161.54 45.4851C162.206 45.4851 162.731 45.5785 162.999 45.6486C163.093 45.6719 163.14 45.7069 163.14 45.777C163.14 45.9054 163.104 46.1856 163.104 46.9677C163.104 47.1778 163.058 47.2829 162.976 47.2829C162.906 47.2829 162.871 47.2245 162.871 47.1078C162.871 47.0144 162.824 46.7109 162.603 46.454C162.451 46.2673 162.124 45.9871 161.458 45.9871C160.723 45.9871 160.058 46.3723 160.058 47.0494C160.058 47.493 160.221 47.8432 161.143 48.3569L161.564 48.5903C162.918 49.3374 163.338 50.0962 163.338 50.9951C163.338 51.7306 163.058 52.3259 162.311 52.8512C161.82 53.2014 161.143 53.2598 160.595 53.2598Z" fill="#4F45E2"/>
<path fill-rule="evenodd" clip-rule="evenodd" d="M22.0654 42.689L26.495 49.8778H18.0366L22.0654 42.689Z" fill="#4F45E2"/>
<path fill-rule="evenodd" clip-rule="evenodd" d="M55.8574 25.0088L62.4877 14.9003H54.5065C54.7044 15.2364 54.8953 15.577 55.0797 15.9217C54.8491 15.576 54.6117 15.2352 54.367 14.9003H28.7285L32.9841 25.0088H36.7781V34.0185L47.896 60.4232H48.092V25.0088H55.8574Z" fill="url(#paint6_linear_57_7525)"/>
<path fill-rule="evenodd" clip-rule="evenodd" d="M4.61871 43.398L11.846 54.0822L22.1345 28.1544L22.1877 28.2879L22.2655 28.0884L28.1127 43.1052L28.1575 43.2177L35.1443 60.6908H46.9686L27.6882 14.9003H16.9097L4.61871 43.398Z" fill="#4F45E2"/>
<path fill-rule="evenodd" clip-rule="evenodd" d="M10.6401 10.8991L10.9196 6.92205C4.78846 12.1992 0.906555 20.0169 0.906555 28.7407C0.906555 34.6318 2.67649 40.1093 5.71372 44.6708C3.55646 40.634 2.33301 36.0225 2.33301 31.1254C2.33301 23.2408 5.50411 16.097 10.6401 10.8991Z" fill="#4F45E2"/>
<path fill-rule="evenodd" clip-rule="evenodd" d="M11.6032 6.96412L11.4503 10.7249C16.6672 5.44556 22.3279 3.07443 31.1101 3.07443C39.8919 3.07443 49.1331 7.73224 54.367 14.9003C54.6117 15.2352 54.849 15.576 55.0797 15.9218C54.8952 15.577 54.7044 15.2364 54.5064 14.9003C46.0152 0.460973 24.7585 -4.35933 11.6032 6.96412Z" fill="black"/>
<path fill-rule="evenodd" clip-rule="evenodd" d="M11.6032 6.96412L11.4503 10.7249C16.6672 5.44556 22.3279 3.07443 31.1101 3.07443C39.8919 3.07443 49.1331 7.73224 54.367 14.9003C54.6117 15.2352 54.849 15.576 55.0797 15.9218C54.8952 15.577 54.7044 15.2364 54.5064 14.9003C46.0152 0.460973 24.7585 -4.35933 11.6032 6.96412Z" fill="url(#paint7_linear_57_7525)"/>
<defs>
<linearGradient id="paint0_linear_57_7525" x1="161.189" y1="38.9852" x2="55.1518" y2="38.9852" gradientUnits="userSpaceOnUse">
<stop stop-color="#9C9D9F"/>
<stop offset="1" stop-color="#C6C7C9"/>
</linearGradient>
<linearGradient id="paint1_linear_57_7525" x1="161.189" y1="38.9852" x2="55.1518" y2="38.9852" gradientUnits="userSpaceOnUse">
<stop stop-color="#9C9D9F"/>
<stop offset="1" stop-color="#C6C7C9"/>
</linearGradient>
<linearGradient id="paint2_linear_57_7525" x1="161.189" y1="38.9852" x2="55.1518" y2="38.9852" gradientUnits="userSpaceOnUse">
<stop stop-color="#9C9D9F"/>
<stop offset="1" stop-color="#C6C7C9"/>
</linearGradient>
<linearGradient id="paint3_linear_57_7525" x1="161.189" y1="38.9852" x2="55.1518" y2="38.9852" gradientUnits="userSpaceOnUse">
<stop stop-color="#9C9D9F"/>
<stop offset="1" stop-color="#C6C7C9"/>
</linearGradient>
<linearGradient id="paint4_linear_57_7525" x1="161.189" y1="38.9852" x2="55.1518" y2="38.9852" gradientUnits="userSpaceOnUse">
<stop stop-color="#9C9D9F"/>
<stop offset="1" stop-color="#C6C7C9"/>
</linearGradient>
<linearGradient id="paint5_linear_57_7525" x1="161.189" y1="38.9852" x2="55.1518" y2="38.9852" gradientUnits="userSpaceOnUse">
<stop stop-color="#9C9D9F"/>
<stop offset="1" stop-color="#C6C7C9"/>
</linearGradient>
<linearGradient id="paint6_linear_57_7525" x1="62" y1="15" x2="29" y2="15" gradientUnits="userSpaceOnUse">
<stop stop-color="#9C9D9F"/>
<stop offset="1" stop-color="#C6C7C9"/>
</linearGradient>
<linearGradient id="paint7_linear_57_7525" x1="54.4494" y1="0.724184" x2="11.8011" y2="0.724187" gradientUnits="userSpaceOnUse">
<stop stop-color="#9C9D9F"/>
<stop offset="1" stop-color="#C6C7C9"/>
</linearGradient>
</defs>
</svg>
