<svg width="30" height="30" viewBox="0 0 30 30" fill="none" xmlns="http://www.w3.org/2000/svg">
<path d="M26.95 13.4251L25.25 11.4501C24.925 11.0751 24.6625 10.3751 24.6625 9.87507V7.75007C24.6625 6.42507 23.575 5.33757 22.25 5.33757H20.125C19.6375 5.33757 18.925 5.07507 18.55 4.75007L16.575 3.05007C15.7125 2.31257 14.3 2.31257 13.425 3.05007L11.4625 4.76257C11.0875 5.07507 10.375 5.33757 9.88748 5.33757H7.72498C6.39998 5.33757 5.31248 6.42507 5.31248 7.75007V9.88757C5.31248 10.3751 5.04998 11.0751 4.73748 11.4501L3.04998 13.4376C2.32498 14.3001 2.32498 15.7001 3.04998 16.5626L4.73748 18.5501C5.04998 18.9251 5.31248 19.6251 5.31248 20.1126V22.2501C5.31248 23.5751 6.39998 24.6626 7.72498 24.6626H9.88748C10.375 24.6626 11.0875 24.9251 11.4625 25.2501L13.4375 26.9501C14.3 27.6876 15.7125 27.6876 16.5875 26.9501L18.5625 25.2501C18.9375 24.9251 19.6375 24.6626 20.1375 24.6626H22.2625C23.5875 24.6626 24.675 23.5751 24.675 22.2501V20.1251C24.675 19.6376 24.9375 18.9251 25.2625 18.5501L26.9625 16.5751C27.6875 15.7126 27.6875 14.2876 26.95 13.4251ZM20.85 15.0001L19.3875 19.4501C19.2 20.1876 18.4125 20.7876 17.6125 20.7876H15.3C14.9 20.7876 14.3375 20.6501 14.0875 20.4001L12.25 18.9626C12.2125 19.7626 11.85 20.1001 10.9625 20.1001H10.3625C9.43748 20.1001 9.06248 19.7376 9.06248 18.8626V12.8876C9.06248 12.0126 9.43748 11.6501 10.3625 11.6501H10.975C11.9 11.6501 12.275 12.0126 12.275 12.8876V13.3376L14.7 9.73757C14.95 9.35007 15.5875 9.07507 16.125 9.28757C16.7125 9.48757 17.0875 10.1376 16.9625 10.7126L16.6625 12.6626C16.6375 12.8376 16.675 13.0001 16.7875 13.1251C16.8875 13.2376 17.0375 13.3126 17.2 13.3126H19.6375C20.1125 13.3126 20.5125 13.5001 20.75 13.8376C20.9625 14.1626 21 14.5751 20.85 15.0001Z" fill="#4F45E2"/>
</svg>
