<svg width="101" height="100" viewBox="0 0 101 100" fill="none" xmlns="http://www.w3.org/2000/svg">
<g clip-path="url(#clip0_61_11589)">
<path d="M35.3949 77.4689C35.2096 77.3985 35.0123 77.3652 34.8142 77.3711C34.6161 77.3769 34.4211 77.4217 34.2403 77.5029C34.0596 77.5842 33.8966 77.7002 33.7606 77.8444C33.6247 77.9887 33.5185 78.1582 33.4482 78.3435L31.224 84.1964C31.1524 84.3819 31.1182 84.5797 31.1233 84.7785C31.1284 84.9772 31.1728 85.173 31.2538 85.3545C31.3348 85.536 31.4509 85.6998 31.5954 85.8363C31.7399 85.9729 31.9099 86.0795 32.0958 86.1501C32.2816 86.2208 32.4796 86.254 32.6783 86.2478C32.877 86.2417 33.0725 86.1964 33.2536 86.1145C33.4348 86.0326 33.5979 85.9156 33.7338 85.7705C33.8696 85.6253 33.9754 85.4547 34.045 85.2685L36.2693 79.4156C36.3397 79.2304 36.373 79.0331 36.3671 78.835C36.3613 78.6369 36.3165 78.4419 36.2353 78.2611C36.1541 78.0803 36.0381 77.9173 35.8939 77.7814C35.7497 77.6455 35.5801 77.5393 35.3949 77.4689ZM41.4241 61.6035C41.05 61.4613 40.6348 61.4736 40.2697 61.6377C39.9046 61.8017 39.6197 62.104 39.4775 62.4781L35.7292 72.3414C35.6588 72.5266 35.6256 72.7239 35.6315 72.922C35.6373 73.1201 35.6821 73.3151 35.7634 73.4958C35.8446 73.6766 35.9606 73.8396 36.1048 73.9755C36.249 74.1115 36.4186 74.2177 36.6038 74.2881C36.7891 74.3584 36.9864 74.3917 37.1845 74.3858C37.3826 74.3799 37.5775 74.3351 37.7583 74.2539C37.9391 74.1727 38.1021 74.0567 38.238 73.9125C38.3739 73.7683 38.4801 73.5987 38.5505 73.4134L42.2988 63.5502C42.3692 63.3649 42.4024 63.1676 42.3965 62.9695C42.3907 62.7714 42.3459 62.5764 42.2647 62.3957C42.1834 62.2149 42.0674 62.0519 41.9232 61.916C41.779 61.7801 41.6094 61.6739 41.4241 61.6035ZM19.957 57.3511L8.28294 65.6851C7.96153 65.9194 7.74557 66.271 7.682 66.6636C7.61844 67.0562 7.71242 67.458 7.9435 67.7817C8.17459 68.1054 8.5241 68.3247 8.91606 68.3921C9.30801 68.4595 9.71073 68.3695 10.0367 68.1416L21.7107 59.8076C22.0321 59.5733 22.2481 59.2217 22.3116 58.8291C22.3752 58.4365 22.2812 58.0347 22.0501 57.711C21.819 57.3873 21.4695 57.1679 21.0776 57.1006C20.6856 57.0332 20.2829 57.1232 19.957 57.3511ZM21.7607 14.4326L10.68 6.38844C10.5196 6.27201 10.3379 6.18831 10.1452 6.14211C9.95247 6.09591 9.75254 6.08812 9.55681 6.11919C9.16152 6.18193 8.80735 6.39914 8.5722 6.72302C8.45577 6.88338 8.37206 7.06512 8.32586 7.25784C8.27966 7.45055 8.27187 7.65049 8.30294 7.84621C8.36569 8.2415 8.58289 8.59568 8.90677 8.83083L19.9874 16.875C20.1477 16.9916 20.3295 17.0754 20.5222 17.1217C20.715 17.168 20.9149 17.1758 21.1107 17.1448C21.3065 17.1137 21.4942 17.0443 21.6632 16.9406C21.8321 16.8369 21.9789 16.7009 22.0952 16.5404C22.3304 16.2165 22.4272 15.8125 22.3645 15.4172C22.3017 15.0219 22.0845 14.6677 21.7607 14.4326ZM93.4031 6.70544C93.2878 6.5442 93.1419 6.40726 92.9737 6.30245C92.8054 6.19763 92.6182 6.12698 92.4227 6.09455C92.2272 6.06212 92.0272 6.06854 91.8341 6.11344C91.6411 6.15833 91.4587 6.24083 91.2976 6.35622L79.6156 14.7144C79.297 14.95 79.0838 15.3013 79.0221 15.6926C78.9603 16.0839 79.0549 16.4839 79.2854 16.8061C79.5159 17.1283 79.8639 17.3469 80.2542 17.4148C80.6445 17.4827 81.0458 17.3944 81.3716 17.1689L93.0536 8.81071C93.2148 8.69544 93.3518 8.54954 93.4566 8.38134C93.5614 8.21315 93.632 8.02596 93.6645 7.83046C93.6969 7.63495 93.6905 7.43498 93.6457 7.24194C93.6008 7.04891 93.5184 6.8666 93.4031 6.70544ZM77.7216 62.8966C77.5836 62.7533 77.4187 62.6387 77.2363 62.5594C77.0538 62.4801 76.8575 62.4376 76.6586 62.4344C76.4597 62.4312 76.2622 62.4674 76.0773 62.5408C75.8924 62.6142 75.7239 62.7235 75.5814 62.8623C75.4389 63.0011 75.3252 63.1667 75.2469 63.3496C75.1687 63.5325 75.1273 63.729 75.1253 63.9279C75.1233 64.1269 75.1606 64.3242 75.2351 64.5087C75.3096 64.6931 75.4199 64.861 75.5595 65.0027L86.9519 76.6988C87.0924 76.8433 87.2605 76.9581 87.4462 77.0365C87.6319 77.1148 87.8314 77.1551 88.0329 77.1548C88.3297 77.1547 88.6198 77.0671 88.867 76.903C89.1142 76.7389 89.3075 76.5055 89.4228 76.2322C89.5382 75.9588 89.5704 75.6575 89.5154 75.3659C89.4604 75.0743 89.3207 74.8054 89.1138 74.5927L77.7216 62.8966Z" fill="#A4E7FF"/>
<path d="M5.34995 74.3164C7.93641 74.3164 10.0332 72.2196 10.0332 69.6332C10.0332 67.0467 7.93641 64.95 5.34995 64.95C2.76349 64.95 0.666748 67.0467 0.666748 69.6332C0.666748 72.2196 2.76349 74.3164 5.34995 74.3164Z" fill="#FBF198"/>
<path d="M91.3001 83.6828C93.8866 83.6828 95.9833 81.5861 95.9833 78.9996C95.9833 76.4131 93.8866 74.3164 91.3001 74.3164C88.7137 74.3164 86.6169 76.4131 86.6169 78.9996C86.6169 81.5861 88.7137 83.6828 91.3001 83.6828Z" fill="#4F45E2"/>
<path d="M6.00425 9.54292C8.59071 9.54292 10.6875 7.44618 10.6875 4.85972C10.6875 2.27326 8.59071 0.176514 6.00425 0.176514C3.41779 0.176514 1.32104 2.27326 1.32104 4.85972C1.32104 7.44618 3.41779 9.54292 6.00425 9.54292Z" fill="#4F45E2"/>
<path d="M95.9835 9.54292C98.57 9.54292 100.667 7.44618 100.667 4.85972C100.667 2.27326 98.57 0.176514 95.9835 0.176514C93.397 0.176514 91.3003 2.27326 91.3003 4.85972C91.3003 7.44618 93.397 9.54292 95.9835 9.54292Z" fill="#FBF198"/>
<path d="M29.8413 99.9412C34.1819 99.9412 37.7007 96.4224 37.7007 92.0818C37.7007 87.7412 34.1819 84.2224 29.8413 84.2224C25.5007 84.2224 21.9819 87.7412 21.9819 92.0818C21.9819 96.4224 25.5007 99.9412 29.8413 99.9412Z" fill="#4F45E2"/>
<path d="M79.8539 60.5581C80.9191 58.8147 80.6977 56.5065 79.1891 54.9981L75.4924 51.3014C75.2854 51.0951 75.149 50.8286 75.1024 50.5401C75.0559 50.2516 75.1017 49.9557 75.2332 49.6948C75.857 48.4633 76.3866 47.1862 76.8174 45.8747C76.9091 45.5975 77.0859 45.3563 77.3227 45.1855C77.5595 45.0147 77.8442 44.923 78.1361 44.9235H83.3621C85.8629 44.9235 87.89 42.8961 87.89 40.3956V34.1686C87.89 31.668 85.8629 29.6407 83.3621 29.6407H78.1363C77.8443 29.6411 77.5597 29.5494 77.3229 29.3786C77.0861 29.2077 76.9092 28.9665 76.8176 28.6893C76.3866 27.3778 75.857 26.1009 75.2332 24.8694C75.1016 24.6084 75.0557 24.3126 75.1023 24.024C75.1488 23.7355 75.2854 23.4691 75.4924 23.2627L79.1891 19.5661C80.9572 17.7979 80.9572 14.9309 79.1891 13.1626L74.7859 8.75982C73.0178 6.99165 70.1508 6.99165 68.3824 8.75982L64.6857 12.4565C64.4794 12.6635 64.213 12.8 63.9245 12.8465C63.636 12.893 63.3402 12.8471 63.0793 12.7155C61.8478 12.0917 60.5708 11.5621 59.2592 11.1313C58.982 11.0396 58.7408 10.8628 58.57 10.626C58.3992 10.3892 58.3075 10.1045 58.308 9.81255V4.58677C58.3088 3.99204 58.192 3.40301 57.9644 2.85355C57.7368 2.30409 57.4029 1.80501 56.9818 1.38501L56.8031 1.40337C56.8377 1.37349 56.8711 1.34243 56.9057 1.31255C56.0647 0.506815 54.9447 0.0575704 53.7801 0.0588406H47.5531C45.0525 0.0588406 43.0252 2.08599 43.0252 4.58677V9.81255C43.0257 10.1045 42.934 10.3892 42.7632 10.626C42.5924 10.8628 42.3512 11.0396 42.074 11.1313C40.7625 11.5622 39.4855 12.0918 38.2539 12.7155C37.993 12.8471 37.6971 12.893 37.4086 12.8464C37.1201 12.7999 36.8536 12.6635 36.6473 12.4565L32.9508 8.75982C32.1344 7.94112 31.0347 7.46739 29.8789 7.43657L24.9189 12.9842L29.8414 36.1749L43.9576 58.3545L62.4873 60.5991L73.6729 64.0606L79.8539 60.5581Z" fill="#68A2DF"/>
<path d="M73.5053 61.0072C48.9055 61.0072 28.9633 41.065 28.9633 16.4652C28.9618 13.4334 29.2686 10.4093 29.8789 7.4396C28.6771 7.40542 27.4646 7.84234 26.5475 8.75953L22.1443 13.1627C20.3762 14.931 20.3762 17.7978 22.1443 19.5662L25.841 23.2628C26.048 23.4691 26.1845 23.7356 26.231 24.0241C26.2775 24.3126 26.2317 24.6084 26.1 24.8693C25.4763 26.1008 24.9467 27.3777 24.5158 28.6892C24.4242 28.9664 24.2473 29.2076 24.0105 29.3785C23.7737 29.5493 23.4891 29.641 23.1971 29.6406H17.9713C15.4705 29.6406 13.4434 31.6677 13.4434 34.1685V40.3955C13.4434 42.8962 15.4705 44.9234 17.9713 44.9234H23.1971C23.489 44.9229 23.7737 45.0146 24.0105 45.1854C24.2473 45.3562 24.4241 45.5974 24.5158 45.8746C24.9467 47.1861 25.4763 48.4631 26.1 49.6947C26.2316 49.9556 26.2775 50.2515 26.231 50.54C26.1845 50.8285 26.048 51.095 25.841 51.3013L22.1443 54.998C20.3762 56.7662 20.3762 59.6332 22.1443 61.4013L26.5475 65.8044C28.3156 67.5726 31.1826 67.5726 32.9508 65.8044L36.6475 62.1078C36.8538 61.9008 37.1202 61.7643 37.4087 61.7178C37.6972 61.6713 37.993 61.7171 38.2539 61.8488C39.4855 62.4725 40.7625 63.0021 42.074 63.433C42.3512 63.5247 42.5924 63.7015 42.7632 63.9383C42.934 64.1751 43.0257 64.4598 43.0252 64.7517V69.9775C43.0252 72.4781 45.0523 74.5054 47.5531 74.5054H53.7803C54.9445 74.5067 56.0642 74.0578 56.9051 73.2525L56.9068 73.2527C57.3503 72.8304 57.7033 72.3222 57.9442 71.7591C58.1851 71.1961 58.309 70.5899 58.3082 69.9775V64.7517C58.3077 64.4598 58.3994 64.1751 58.5702 63.9383C58.741 63.7015 58.9822 63.5247 59.2594 63.433C60.5709 63.0021 61.8479 62.4725 63.0795 61.8488C63.3404 61.7171 63.6362 61.6713 63.9248 61.7178C64.2133 61.7644 64.4797 61.9009 64.6859 62.108L68.3826 65.8046C70.1508 67.5728 73.0178 67.5728 74.7861 65.8046L79.1893 61.4015C79.4422 61.1468 79.6639 60.8627 79.8496 60.5554C77.7482 60.8557 75.6281 61.0067 73.5053 61.0072Z" fill="#4F45E2"/>
<path d="M41.2682 28.34C41.1311 27.9807 40.8879 27.6717 40.5709 27.454C40.2539 27.2362 39.8782 27.1201 39.4936 27.1211H39.4917C39.1081 27.1206 38.7333 27.2365 38.4171 27.4536C38.1008 27.6706 37.8578 27.9786 37.7204 28.3367L31.2227 45.3972C31.1506 45.5828 31.1158 45.7807 31.1205 45.9797C31.1252 46.1787 31.1693 46.3748 31.2501 46.5567C31.3309 46.7386 31.4469 46.9028 31.5914 47.0396C31.7359 47.1765 31.9061 47.2835 32.0921 47.3543C32.2781 47.4252 32.4763 47.4585 32.6753 47.4524C32.8742 47.4463 33.07 47.4009 33.2513 47.3188C33.4327 47.2368 33.596 47.1196 33.7319 46.9742C33.8677 46.8287 33.9735 46.6578 34.043 46.4713L35.2911 43.1943H43.6479L44.8831 46.4672C44.9914 46.7541 45.1845 47.0013 45.4368 47.1757C45.689 47.3502 45.9885 47.4437 46.2952 47.4437C46.4721 47.4437 46.6522 47.4123 46.8276 47.3461C47.013 47.2761 47.1828 47.1703 47.3274 47.0347C47.4719 46.8991 47.5883 46.7364 47.6699 46.5558C47.7516 46.3752 47.7968 46.1803 47.8032 45.9822C47.8095 45.7841 47.7767 45.5868 47.7067 45.4013L41.2682 28.34ZM36.4407 40.1761L39.4889 32.1728L42.5092 40.1761H36.4407ZM68.7006 27.1209C68.3004 27.1209 67.9166 27.2799 67.6336 27.5628C67.3506 27.8458 67.1917 28.2297 67.1917 28.6299V45.9342C67.1917 46.3344 67.3506 46.7182 67.6336 47.0012C67.9166 47.2842 68.3004 47.4431 68.7006 47.4431C69.1008 47.4431 69.4847 47.2842 69.7677 47.0012C70.0506 46.7182 70.2096 46.3344 70.2096 45.9342V28.6299C70.2096 28.2297 70.0506 27.8458 69.7677 27.5628C69.4847 27.2799 69.1008 27.1209 68.7006 27.1209ZM57.442 27.1209H52.6237C51.8126 27.1047 51.1006 27.8205 51.1147 28.6299V45.9342C51.1147 46.3344 51.2737 46.7182 51.5567 47.0012C51.8397 47.2842 52.2235 47.4431 52.6237 47.4431C53.0239 47.4431 53.4077 47.2842 53.6907 47.0012C53.9737 46.7182 54.1327 46.3344 54.1327 45.9342V39.9185C55.2372 39.9125 56.6858 39.9056 57.4418 39.9056C61.0194 39.9056 63.9299 37.0381 63.9299 33.5133C63.9299 29.9885 61.0196 27.1209 57.442 27.1209ZM57.442 36.8875C56.6905 36.8875 55.2637 36.8943 54.1612 36.9002L54.1379 30.1388H57.442C59.3229 30.1388 60.912 31.684 60.912 33.5131C60.912 35.3424 59.3229 36.8875 57.442 36.8875Z" fill="#F8F8FF"/>
</g>
<defs>
<clipPath id="clip0_61_11589">
<rect width="100" height="100" fill="white" transform="translate(0.666748)"/>
</clipPath>
</defs>
</svg>
