<svg width="101" height="100" viewBox="0 0 101 100" fill="none" xmlns="http://www.w3.org/2000/svg">
<path d="M15.9583 7.8125C15.9583 6.9837 16.2875 6.18884 16.8735 5.60279C17.4596 5.01674 18.2545 4.6875 19.0833 4.6875H92.5208C93.3496 4.6875 94.1444 5.01674 94.7305 5.60279C95.3165 6.18884 95.6458 6.9837 95.6458 7.8125V59.375C95.6458 60.2038 95.3165 60.9987 94.7305 61.5847C94.1444 62.1708 93.3496 62.5 92.5208 62.5H15.9583V7.8125Z" fill="#4F45E2"/>
<path d="M28.4583 34.375H36.2708V37.5H28.4583V34.375ZM70.6458 12.5H83.1458V15.625H70.6458V12.5ZM55.6499 22.0254L66.0288 14.3797L67.8819 16.8953L57.503 24.5408L55.6499 22.0254ZM40.5813 33.1236L51.1834 25.3137L53.0366 27.8293L42.4346 35.6393L40.5813 33.1236ZM86.2708 12.5H89.3958V15.625H86.2708V12.5ZM22.2083 34.375H25.3333V37.5H22.2083V34.375Z" fill="#C5DAFA"/>
<path d="M83.1458 89.0625L92.5208 68.75H69.0833L59.7083 89.0625H83.1458Z" fill="#8BE0E8"/>
<path d="M47.2083 89.0625H83.1458V92.1875C83.1458 93.0163 82.8165 93.8112 82.2305 94.3972C81.6444 94.9833 80.8496 95.3125 80.0208 95.3125H50.3333C49.5045 95.3125 48.7096 94.9833 48.1235 94.3972C47.5375 93.8112 47.2083 93.0163 47.2083 92.1875V89.0625Z" fill="#548AFF"/>
<path d="M12.8333 54.6875H23.5813V68.75H12.8333V54.6875Z" fill="#FFCEB6"/>
<path d="M23.5813 54.6875V65.625C22.7353 65.6275 21.8973 65.462 21.1157 65.1381C20.3342 64.8143 19.6248 64.3385 19.0286 63.7383L16.8743 61.584C16.2882 60.9982 15.9587 60.2036 15.9583 59.375V54.6875H23.5813Z" fill="#FFBFA1"/>
<path d="M26.8958 46.875V59.1855C26.8958 59.6208 26.81 60.0518 26.6435 60.4539C26.4769 60.8561 26.2327 61.2214 25.925 61.5292C25.6172 61.837 25.2518 62.0811 24.8497 62.2477C24.4476 62.4143 24.0166 62.5 23.5813 62.5C23.146 62.5 22.715 62.4143 22.3129 62.2478C21.9107 62.0812 21.5453 61.8371 21.2375 61.5293L19.0833 59.375V46.875H26.8958Z" fill="#FFCEB6"/>
<path d="M12.8333 59.375L9.19204 53.3063C8.5074 52.1652 8.14575 50.8596 8.14575 49.5289C8.1458 47.5818 8.91931 45.7145 10.2961 44.3377C11.6729 42.961 13.5403 42.1875 15.4874 42.1875H26.8958C27.7246 42.1875 28.5194 42.5167 29.1055 43.1028C29.6915 43.6888 30.0208 44.4837 30.0208 45.3125C30.0208 46.1413 29.6915 46.9362 29.1055 47.5222C28.5194 48.1083 27.7246 48.4375 26.8958 48.4375H22.2083L19.0833 53.125V59.375H12.8333Z" fill="#C47220"/>
<path d="M53.4583 92.1875H40.6168C39.7407 92.1875 38.8744 92.0033 38.074 91.6469C37.2737 91.2905 36.5572 90.7698 35.9711 90.1186L30.0208 83.507V96.875H5.02075V75C5.02075 72.5136 6.00847 70.129 7.76663 68.3709C9.52478 66.6127 11.9093 65.625 14.3958 65.625H24.8377C26.4577 65.625 28.0575 65.9849 29.5215 66.6787C30.9854 67.3724 32.2769 68.3827 33.3028 69.6365L44.0833 82.8125H53.4583V92.1875Z" fill="#FFB401"/>
<path d="M53.4583 92.1875V82.8125H56.5833L62.8333 81.25L69.7961 85.4277C70.0553 85.5832 70.2697 85.8031 70.4186 86.066C70.5675 86.329 70.6457 86.626 70.6458 86.9281C70.6458 87.187 70.5883 87.4427 70.4776 87.6767C70.3668 87.9107 70.2055 88.1172 70.0053 88.2813C69.8051 88.4455 69.571 88.5631 69.3198 88.6258C69.0686 88.6885 68.8066 88.6947 68.5528 88.6439L62.8333 87.5L57.4167 91.5625C56.8757 91.9682 56.2178 92.1875 55.5416 92.1875H53.4583Z" fill="#FFCEB6"/>
<path d="M80.0208 95.3125H69.0833C68.2545 95.3125 67.4596 94.9833 66.8735 94.3972C66.2875 93.8112 65.9583 93.0163 65.9583 92.1875V89.0625H83.1458V92.1875C83.1458 93.0163 82.8165 93.8112 82.2305 94.3972C81.6444 94.9833 80.8496 95.3125 80.0208 95.3125Z" fill="#4367E0"/>
<path d="M37.8333 48.4375H47.2083V56.25H37.8333V48.4375Z" fill="#FFA100"/>
<path d="M47.2083 42.1875H56.5833V56.25H47.2083V42.1875Z" fill="#FFB401"/>
<path d="M56.5833 34.375H65.9583V56.25H56.5833V34.375Z" fill="#FFC431"/>
<path d="M65.9583 26.5625H75.3333V56.25H65.9583V26.5625Z" fill="#FFCC4D"/>
<path d="M75.3333 20.3125H84.7083V56.25H75.3333V20.3125Z" fill="#FFD873"/>
<path d="M33.1458 54.6875H89.3958V57.8125H33.1458V54.6875Z" fill="#7DAFFF"/>
<path d="M39.3958 39.0625C41.1216 39.0625 42.5208 37.6634 42.5208 35.9375C42.5208 34.2116 41.1216 32.8125 39.3958 32.8125C37.6699 32.8125 36.2708 34.2116 36.2708 35.9375C36.2708 37.6634 37.6699 39.0625 39.3958 39.0625Z" fill="#C5DAFA"/>
<path d="M39.3958 40.625C38.4687 40.625 37.5624 40.3501 36.7915 39.835C36.0207 39.3199 35.4199 38.5879 35.0651 37.7313C34.7103 36.8748 34.6175 35.9323 34.7983 35.023C34.9792 34.1137 35.4256 33.2785 36.0812 32.6229C36.7367 31.9674 37.572 31.5209 38.4813 31.3401C39.3906 31.1592 40.3331 31.252 41.1896 31.6068C42.0461 31.9616 42.7782 32.5624 43.2933 33.3333C43.8083 34.1041 44.0833 35.0104 44.0833 35.9375C44.0819 37.1803 43.5876 38.3718 42.7088 39.2505C41.83 40.1293 40.6385 40.6236 39.3958 40.625ZM39.3958 34.375C39.0867 34.375 38.7846 34.4666 38.5277 34.6383C38.2707 34.81 38.0705 35.0541 37.9522 35.3396C37.8339 35.6251 37.803 35.9392 37.8633 36.2423C37.9236 36.5454 38.0724 36.8238 38.2909 37.0424C38.5094 37.2609 38.7878 37.4097 39.0909 37.47C39.394 37.5303 39.7082 37.4993 39.9937 37.3811C40.2792 37.2628 40.5232 37.0625 40.6949 36.8056C40.8666 36.5486 40.9583 36.2465 40.9583 35.9375C40.9577 35.5233 40.793 35.1261 40.5 34.8332C40.2071 34.5403 39.81 34.3755 39.3958 34.375Z" fill="#E0EDFF"/>
<path d="M55.0208 28.125C56.7466 28.125 58.1458 26.7259 58.1458 25C58.1458 23.2741 56.7466 21.875 55.0208 21.875C53.2949 21.875 51.8958 23.2741 51.8958 25C51.8958 26.7259 53.2949 28.125 55.0208 28.125Z" fill="#C5DAFA"/>
<path d="M55.0208 29.6875C54.0937 29.6875 53.1874 29.4126 52.4165 28.8975C51.6457 28.3824 51.0449 27.6504 50.6901 26.7938C50.3353 25.9373 50.2425 24.9948 50.4233 24.0855C50.6042 23.1762 51.0506 22.341 51.7062 21.6854C52.3618 21.0299 53.197 20.5834 54.1063 20.4026C55.0156 20.2217 55.9581 20.3145 56.8146 20.6693C57.6711 21.0241 58.4032 21.6249 58.9183 22.3958C59.4333 23.1666 59.7083 24.0729 59.7083 25C59.7069 26.2428 59.2126 27.4343 58.3338 28.313C57.455 29.1918 56.2635 29.6861 55.0208 29.6875ZM55.0208 23.4375C54.7117 23.4375 54.4096 23.5291 54.1527 23.7008C53.8957 23.8725 53.6955 24.1165 53.5772 24.4021C53.4589 24.6876 53.428 25.0017 53.4883 25.3048C53.5486 25.6079 53.6974 25.8863 53.9159 26.1049C54.1344 26.3234 54.4128 26.4722 54.7159 26.5325C55.019 26.5928 55.3332 26.5618 55.6187 26.4436C55.9042 26.3253 56.1482 26.125 56.3199 25.8681C56.4916 25.6111 56.5833 25.309 56.5833 25C56.5827 24.5858 56.418 24.1886 56.125 23.8957C55.8321 23.6028 55.435 23.438 55.0208 23.4375Z" fill="#E0EDFF"/>
<path d="M69.0833 17.1875C70.8091 17.1875 72.2083 15.7884 72.2083 14.0625C72.2083 12.3366 70.8091 10.9375 69.0833 10.9375C67.3574 10.9375 65.9583 12.3366 65.9583 14.0625C65.9583 15.7884 67.3574 17.1875 69.0833 17.1875Z" fill="#C5DAFA"/>
<path d="M69.0833 18.75C68.1562 18.75 67.2499 18.4751 66.479 17.96C65.7082 17.4449 65.1074 16.7129 64.7526 15.8563C64.3978 14.9998 64.305 14.0573 64.4858 13.148C64.6667 12.2387 65.1131 11.4035 65.7687 10.7479C66.4243 10.0924 67.2595 9.64594 68.1688 9.46507C69.0781 9.2842 70.0206 9.37703 70.8771 9.73182C71.7336 10.0866 72.4657 10.6874 72.9808 11.4583C73.4958 12.2291 73.7708 13.1354 73.7708 14.0625C73.7694 15.3053 73.2751 16.4967 72.3963 17.3755C71.5175 18.2543 70.326 18.7486 69.0833 18.75ZM69.0833 12.5C68.7742 12.5 68.4721 12.5916 68.2152 12.7633C67.9582 12.935 67.758 13.179 67.6397 13.4646C67.5214 13.7501 67.4905 14.0642 67.5508 14.3673C67.6111 14.6704 67.7599 14.9488 67.9784 15.1674C68.1969 15.3859 68.4753 15.5347 68.7784 15.595C69.0815 15.6553 69.3957 15.6243 69.6812 15.5061C69.9667 15.3878 70.2107 15.1875 70.3824 14.9306C70.5541 14.6736 70.6458 14.3715 70.6458 14.0625C70.6452 13.6483 70.4805 13.2511 70.1875 12.9582C69.8946 12.6653 69.4975 12.5005 69.0833 12.5Z" fill="#E0EDFF"/>
<path d="M20.6458 10.9375C21.5087 10.9375 22.2083 10.2379 22.2083 9.375C22.2083 8.51206 21.5087 7.8125 20.6458 7.8125C19.7828 7.8125 19.0833 8.51206 19.0833 9.375C19.0833 10.2379 19.7828 10.9375 20.6458 10.9375Z" fill="#F5714F"/>
<path d="M25.3333 10.9375C26.1962 10.9375 26.8958 10.2379 26.8958 9.375C26.8958 8.51206 26.1962 7.8125 25.3333 7.8125C24.4703 7.8125 23.7708 8.51206 23.7708 9.375C23.7708 10.2379 24.4703 10.9375 25.3333 10.9375Z" fill="#FFC431"/>
<path d="M30.0208 10.9375C30.8837 10.9375 31.5833 10.2379 31.5833 9.375C31.5833 8.51206 30.8837 7.8125 30.0208 7.8125C29.1578 7.8125 28.4583 8.51206 28.4583 9.375C28.4583 10.2379 29.1578 10.9375 30.0208 10.9375Z" fill="#3CDE8D"/>
<path d="M25.971 76.6544C25.3934 76.0132 24.4054 75.9616 23.7643 76.5391C23.1231 77.1167 23.0715 78.1046 23.649 78.7458L27.8103 83.3658C28.3878 84.007 29.3758 84.0586 30.017 83.4811C30.6582 82.9035 30.7098 81.9156 30.1323 81.2744L25.971 76.6544Z" fill="#FFA100"/>
</svg>
