<svg width="101" height="100" viewBox="0 0 101 100" fill="none" xmlns="http://www.w3.org/2000/svg">
<g clip-path="url(#clip0_58_9096)">
<path fill-rule="evenodd" clip-rule="evenodd" d="M81.3879 69.9219H72.2083C71.6223 69.9219 71.0364 69.3359 71.0364 68.75C71.0364 57.2266 61.8567 47.8516 50.3333 47.8516C38.8098 47.8516 29.6301 57.2266 29.6301 68.75C29.6301 69.3359 29.0442 69.9219 28.4583 69.9219H19.2786C8.73169 69.9219 0.333252 61.3281 0.333252 50.9766C0.333252 44.1406 4.04419 37.8906 10.0989 34.375C10.8801 30.4688 13.0286 26.7578 16.1536 24.0234C19.4739 21.0938 23.7708 19.5312 28.0676 19.5312C30.6067 19.5312 32.7551 19.9219 35.0989 20.8984C37.4426 13.2812 44.4739 8.20312 52.4817 8.20312C58.927 8.20312 64.9817 11.5234 68.302 16.9922C70.0598 16.6016 71.8176 16.2109 73.7708 16.2109C83.927 16.2109 92.1301 24.6094 92.1301 34.7656V35.3516C97.2083 39.0625 100.333 44.7266 100.333 50.9766C100.333 61.3281 91.9348 69.9219 81.3879 69.9219Z" fill="#239FFD"/>
<path fill-rule="evenodd" clip-rule="evenodd" d="M74.552 69.9219H72.2083C71.6223 69.9219 71.0364 69.3359 71.0364 68.75C71.0364 57.2266 61.8567 47.8516 50.3333 47.8516C38.8098 47.8516 29.6301 57.2266 29.6301 68.75C29.6301 69.3359 29.0442 69.9219 28.4583 69.9219H26.1145V68.75C26.1145 55.2734 36.8567 44.3359 50.3333 44.3359C63.8098 44.3359 74.552 55.2734 74.552 68.75V69.9219ZM93.302 52.1484C92.7161 52.1484 92.1301 51.5625 92.1301 50.9766C92.1301 47.2656 90.3723 43.9453 87.2473 41.9922L84.3176 40.0391C83.927 39.8438 83.7317 39.4531 83.7317 39.0625L83.927 35.5469V34.7656C83.927 29.1016 79.4348 24.4141 73.7708 24.4141C72.5989 24.4141 71.427 24.6094 70.2551 25L65.3723 26.7578C64.7864 26.9531 64.2004 26.7578 64.0051 26.3672L61.6614 21.875C59.7083 18.5547 56.3879 16.4062 52.4817 16.4062C47.7942 16.4062 43.6926 19.5312 42.5208 24.2188C42.5208 24.8047 41.7395 25.1953 41.1536 25C40.5676 24.8047 40.177 24.2188 40.3723 23.6328C41.7395 17.9688 46.8176 14.0625 52.4817 14.0625C57.1692 14.0625 61.4661 16.6016 63.6145 20.7031L65.5676 24.2188L69.4739 22.8516C70.8411 22.2656 72.2083 22.0703 73.7708 22.0703C80.6067 22.0703 86.2708 27.7344 86.2708 34.7656V35.7422L86.0754 38.4766L88.4192 40.0391C92.1301 42.3828 94.4739 46.4844 94.4739 50.9766C94.4739 51.5625 93.8879 52.1484 93.302 52.1484Z" fill="#4F45E2"/>
<path fill-rule="evenodd" clip-rule="evenodd" d="M50.3333 91.7969C37.6379 91.7969 27.2864 81.4453 27.2864 68.75C27.2864 55.8594 37.6379 45.5078 50.3333 45.5078C63.0286 45.5078 73.3801 55.8594 73.3801 68.75C73.3801 81.4453 63.0286 91.7969 50.3333 91.7969Z" fill="#FFC850"/>
<path fill-rule="evenodd" clip-rule="evenodd" d="M51.8958 84.7657C51.1145 84.7657 50.7239 84.3751 50.7239 83.7891C50.5286 83.0079 51.1145 82.6172 51.7005 82.4219C55.802 82.2266 59.513 80.0782 61.6614 76.3672C63.2239 73.6329 63.6145 70.3126 62.8333 67.1876C62.052 64.0626 60.0989 61.5235 57.1692 59.961C54.4348 58.2032 51.1145 57.8126 47.9895 58.5938C44.8645 59.5704 42.3255 61.5235 40.5677 64.2579C39.9817 65.4297 39.5911 66.7969 39.2005 67.9688C39.2005 68.7501 38.6145 69.1407 37.8333 68.9454C37.2473 68.9454 36.8567 68.1641 37.052 67.5782C37.2473 66.0157 37.8333 64.4532 38.6145 63.086C40.5677 59.7657 43.6927 57.4219 47.4036 56.4454C51.1145 55.4688 55.0208 55.8594 58.3411 57.8126C61.6614 59.7657 64.2005 62.8907 65.177 66.6016C66.1536 70.3126 65.5677 74.2188 63.6145 77.5391C61.2708 81.836 56.7786 84.5704 51.8958 84.7657Z" fill="white"/>
<path fill-rule="evenodd" clip-rule="evenodd" d="M38.0285 68.9454C37.8332 68.9454 37.6379 68.9454 37.4426 68.7501C37.2473 68.7501 37.052 68.3595 36.8567 67.9689L36.2707 61.5235C36.0754 60.9376 36.6614 60.3517 37.2473 60.3517C37.8332 60.1564 38.4192 60.7423 38.6145 61.3282L39.0051 66.211L43.4973 64.2579C44.0832 63.8673 44.8645 64.2579 45.0598 64.8439C45.2551 65.4298 45.0598 66.0157 44.4739 66.4064L38.6145 68.9454H38.0285Z" fill="white"/>
</g>
<defs>
<clipPath id="clip0_58_9096">
<rect width="100" height="100" fill="white" transform="translate(0.333252)"/>
</clipPath>
</defs>
</svg>
