<svg width="100" height="100" viewBox="0 0 100 100" fill="none" xmlns="http://www.w3.org/2000/svg">
<g clip-path="url(#clip0_61_11576)">
<path d="M27.5586 90.9718V97.0718C27.5586 98.689 28.8703 99.9999 30.4883 99.9999H50L56.9404 84.7362L50 71.1335C50 71.1335 48.0293 68.6075 47.0703 68.7325C42.0449 69.3864 37.541 71.7034 34.1309 75.1118C30.0703 79.1698 27.5586 84.778 27.5586 90.9718Z" fill="#239FFD"/>
<path d="M72.4414 90.9718V97.0718C72.4414 98.689 71.1297 99.9999 69.5117 99.9999H50V71.1335C50 71.1335 51.9707 68.6075 52.9297 68.7325C57.9551 69.3864 62.459 71.7034 65.8691 75.1118C69.9297 79.1698 72.4414 84.778 72.4414 90.9718Z" fill="#4F45E2"/>
<path d="M99.1603 32.4679L93.8946 37.8204L95.006 45.2438C95.0684 45.6604 95.0402 46.0856 94.9232 46.4902C94.8063 46.8949 94.6035 47.2696 94.3285 47.5887C94.0535 47.9078 93.7129 48.1638 93.33 48.3392C92.947 48.5146 92.5307 48.6054 92.1095 48.6052C91.6622 48.6052 91.2149 48.5036 90.8009 48.2968L84.0821 44.9472L77.3614 48.2968C76.8819 48.5359 76.346 48.6391 75.8119 48.5951C75.2778 48.551 74.766 48.3615 74.3321 48.047C73.8983 47.7322 73.5593 47.3043 73.3519 46.81C73.1446 46.3157 73.0769 45.7739 73.1564 45.2438L74.2677 37.8204L69.0021 32.4679C68.6267 32.0857 68.3633 31.608 68.2403 31.0867C68.1174 30.5653 68.1397 30.0202 68.3048 29.5106C68.4711 29.0011 68.7738 28.5468 69.1802 28.1972C69.5865 27.8475 70.0808 27.6159 70.6095 27.5274L78.0157 26.2897L81.4825 19.6333C81.7298 19.1575 82.1031 18.7589 82.5615 18.4807C83.0199 18.2026 83.5459 18.0557 84.0821 18.0562C85.1739 18.0562 86.1759 18.6632 86.6798 19.6333L90.1466 26.2897L97.5528 27.5274C98.0815 27.6159 98.5759 27.8475 98.9822 28.1972C99.3885 28.5468 99.6912 29.0011 99.8575 29.5106C100.023 30.0202 100.045 30.5653 99.922 31.0866C99.799 31.608 99.5356 32.0857 99.1603 32.4679Z" fill="#FF9922"/>
<path d="M30.9982 32.468L25.7325 37.8205L26.8439 45.2439C26.9063 45.6605 26.8781 46.0857 26.7611 46.4903C26.6442 46.895 26.4413 47.2697 26.1664 47.5888C25.8914 47.9079 25.5508 48.1639 25.1679 48.3393C24.7849 48.5147 24.3686 48.6055 23.9474 48.6053C23.5001 48.6053 23.0528 48.5037 22.6388 48.2969L15.9181 44.9473L9.19932 48.2969C8.71977 48.536 8.18385 48.6392 7.64978 48.5952C7.11571 48.5511 6.60392 48.3616 6.17003 48.0471C5.73621 47.7323 5.39714 47.3044 5.18981 46.8101C4.98248 46.3158 4.91483 45.774 4.99425 45.2439L6.10557 37.8205L0.839949 32.468C0.464602 32.0858 0.201155 31.6081 0.0782276 31.0868C-0.0447001 30.5654 -0.0224077 30.0203 0.142683 29.5107C0.30899 29.0012 0.611737 28.5469 1.01804 28.1973C1.42435 27.8476 1.91869 27.616 2.44737 27.5275L9.85362 26.2898L13.3204 19.6334C13.5675 19.1579 13.9404 18.7593 14.3985 18.4812C14.8566 18.2031 15.3822 18.0561 15.9181 18.0562C17.0118 18.0562 18.0138 18.6633 18.5177 19.6334L21.9845 26.2898L29.3907 27.5275C29.9194 27.616 30.4137 27.8476 30.8201 28.1973C31.2264 28.5469 31.5291 29.0012 31.6954 29.5107C31.8605 30.0203 31.8828 30.5654 31.7598 31.0867C31.6369 31.6081 31.3735 32.0858 30.9982 32.468ZM50.0001 0L60.7423 15.3326L50.0001 28.3627L42.7091 31.9973C42.2295 32.2364 41.6936 32.3396 41.1595 32.2956C40.6255 32.2515 40.1137 32.062 39.6798 31.7475C39.246 31.4326 38.9069 31.0048 38.6996 30.5105C38.4922 30.0162 38.4246 29.4744 38.504 28.9443L39.7091 20.8902L33.9982 15.083C33.2306 14.3041 32.963 13.1641 33.3009 12.1258C33.6388 11.0875 34.5255 10.3221 35.6036 10.1426L43.6407 8.79961L47.4005 1.57715C47.6482 1.1017 48.0215 0.703274 48.4798 0.425204C48.9382 0.147133 49.464 6.67806e-05 50.0001 0Z" fill="#FFBB17"/>
<path d="M50 46.54L56.9404 57.9922L50 68.5432C42.334 68.5432 36.1191 62.3318 36.1191 54.6701C36.1191 52.4018 36.6641 50.2625 37.627 48.3729C40.8359 51.4572 50 46.54 50 46.54Z" fill="#FFCCBD"/>
<path d="M63.8809 54.6701C63.8809 62.3318 57.666 68.5432 50 68.5432V46.54C50 46.54 59.1641 51.4572 62.373 48.373C63.3359 50.2625 63.8809 52.402 63.8809 54.6701Z" fill="#FFBDA9"/>
<path d="M50 40.7974L55.2098 46.5401L50 53.3546C45.1953 53.3546 40.8359 51.4573 37.627 48.3731C39.9258 43.8757 44.6035 40.7974 50 40.7974Z" fill="#8C4D4D"/>
<path d="M62.373 48.3731C59.1641 51.4573 54.8047 53.3545 50 53.3545V40.7971C55.3965 40.7973 60.0742 43.8756 62.373 48.3731Z" fill="#733333"/>
<path d="M50 68.5432L51.8715 74.0844L50 81.5944C48.3828 81.5944 47.0703 80.2827 47.0703 78.6665V68.7327C48.0293 68.6077 49.0078 68.5432 50 68.5432Z" fill="#E6F2FF"/>
<path d="M52.9297 68.7327V78.6665C52.9297 80.2827 51.6172 81.5944 50 81.5944V68.5432C50.9922 68.5432 51.9707 68.6077 52.9297 68.7327Z" fill="#CCE6FF"/>
<path d="M66.002 15.0832L60.291 20.8904L61.4961 28.9445C61.5585 29.3613 61.5303 29.7866 61.4132 30.1914C61.2962 30.5962 61.0932 30.971 60.818 31.2901C60.5428 31.6092 60.202 31.8652 59.8188 32.0405C59.4356 32.2158 59.019 32.3063 58.5977 32.3059C58.1523 32.3059 57.7051 32.2043 57.291 31.9975L50 28.3629V0C50.5361 6.67806e-05 51.0619 0.147133 51.5203 0.425204C51.9786 0.703274 52.3519 1.1017 52.5996 1.57715L56.3594 8.79961L64.3965 10.1426C65.4746 10.3223 66.3613 11.0873 66.6992 12.1258C67.0371 13.1643 66.7695 14.3045 66.002 15.0832Z" fill="#FF9922"/>
</g>
<defs>
<clipPath id="clip0_61_11576">
<rect width="100" height="100" fill="white"/>
</clipPath>
</defs>
</svg>
