<svg width="101" height="100" viewBox="0 0 101 100" fill="none" xmlns="http://www.w3.org/2000/svg">
<g clip-path="url(#clip0_58_9072)">
<path d="M65.0938 84.5629H86.0184C87.6363 84.5629 88.948 83.2512 88.948 81.6332C88.948 80.0153 87.6363 78.7035 86.0184 78.7035H65.0938C63.4758 78.7035 62.1641 80.0153 62.1641 81.6332C62.1641 83.2512 63.4758 84.5629 65.0938 84.5629ZM70.6018 26.6957C72.2197 26.6957 73.5314 25.384 73.5314 23.766V14.5524H86.0184C87.6363 14.5524 88.948 13.2406 88.948 11.6227C88.948 10.0047 87.6363 8.69299 86.0184 8.69299H70.6018C68.9838 8.69299 67.6721 10.0047 67.6721 11.6227V23.766C67.6721 25.384 68.9838 26.6957 70.6018 26.6957ZM83.0613 49.3836H97.7371C99.3551 49.3836 100.667 48.0719 100.667 46.4539C100.667 44.836 99.3551 43.5242 97.7371 43.5242H83.0613C81.4434 43.5242 80.1316 44.836 80.1316 46.4539C80.1316 48.0719 81.4434 49.3836 83.0613 49.3836ZM78.7486 63.2598H91.075C92.693 63.2598 94.0047 61.9481 94.0047 60.3301C94.0047 58.7121 92.693 57.4004 91.075 57.4004H78.7486C77.1307 57.4004 75.8189 58.7121 75.8189 60.3301C75.8189 61.9481 77.1307 63.2598 78.7486 63.2598Z" fill="#CFDBFD"/>
<path d="M91.8776 16.9473C94.8183 16.9473 97.2022 14.5634 97.2022 11.6227C97.2022 8.682 94.8183 6.2981 91.8776 6.2981C88.9369 6.2981 86.553 8.682 86.553 11.6227C86.553 14.5634 88.9369 16.9473 91.8776 16.9473Z" fill="#FFE370"/>
<path d="M91.8776 86.9578C94.8183 86.9578 97.2022 84.5739 97.2022 81.6332C97.2022 78.6925 94.8183 76.3086 91.8776 76.3086C88.9369 76.3086 86.553 78.6925 86.553 81.6332C86.553 84.5739 88.9369 86.9578 91.8776 86.9578Z" fill="#FFE370"/>
<path d="M83.0886 11.6227C83.0886 6.77639 87.0314 2.83362 91.8777 2.83362C96.724 2.83362 100.667 6.77639 100.667 11.6227C100.667 16.469 96.724 20.4117 91.8777 20.4117C87.0314 20.4117 83.0886 16.4692 83.0886 11.6227ZM88.948 11.6227C88.948 13.2381 90.2623 14.5524 91.8777 14.5524C93.4931 14.5524 94.8074 13.2381 94.8074 11.6227C94.8074 10.0073 93.4931 8.69299 91.8777 8.69299C90.2623 8.69299 88.948 10.0073 88.948 11.6227ZM83.0886 81.6332C83.0886 76.7869 87.0314 72.8442 91.8777 72.8442C96.724 72.8442 100.667 76.7869 100.667 81.6332C100.667 86.4795 96.724 90.4223 91.8777 90.4223C87.0314 90.4223 83.0886 86.4795 83.0886 81.6332ZM88.948 81.6332C88.948 83.2487 90.2623 84.5629 91.8777 84.5629C93.4931 84.5629 94.8074 83.2487 94.8074 81.6332C94.8074 80.0178 93.4931 78.7035 91.8777 78.7035C90.2623 78.7035 88.948 80.0176 88.948 81.6332Z" fill="#FFB54C"/>
<path d="M36.2398 84.5629H15.3152C13.6972 84.5629 12.3855 83.2512 12.3855 81.6332C12.3855 80.0153 13.6972 78.7035 15.3152 78.7035H36.2398C37.8578 78.7035 39.1695 80.0153 39.1695 81.6332C39.1695 83.2512 37.8578 84.5629 36.2398 84.5629ZM30.7318 26.6957C29.1138 26.6957 27.8021 25.384 27.8021 23.766V14.5524H15.3152C13.6972 14.5524 12.3855 13.2406 12.3855 11.6227C12.3855 10.0047 13.6972 8.69299 15.3152 8.69299H30.7318C32.3498 8.69299 33.6615 10.0047 33.6615 11.6227V23.766C33.6615 25.384 32.3498 26.6957 30.7318 26.6957ZM18.2722 49.3836H3.59644C1.97847 49.3836 0.666748 48.0719 0.666748 46.4539C0.666748 44.836 1.97847 43.5242 3.59644 43.5242H18.2722C19.8902 43.5242 21.2019 44.836 21.2019 46.4539C21.2019 48.0719 19.8902 49.3836 18.2722 49.3836ZM22.5849 63.2598H10.2585C8.64058 63.2598 7.32886 61.9481 7.32886 60.3301C7.32886 58.7121 8.64058 57.4004 10.2585 57.4004H22.5849C24.2029 57.4004 25.5146 58.7121 25.5146 60.3301C25.5146 61.9481 24.2029 63.2598 22.5849 63.2598Z" fill="#E8F1FD"/>
<path d="M9.45571 16.9473C12.3964 16.9473 14.7803 14.5634 14.7803 11.6227C14.7803 8.682 12.3964 6.2981 9.45571 6.2981C6.51501 6.2981 4.1311 8.682 4.1311 11.6227C4.1311 14.5634 6.51501 16.9473 9.45571 16.9473Z" fill="#FFEFB2"/>
<path d="M9.45571 86.9578C12.3964 86.9578 14.7803 84.5739 14.7803 81.6332C14.7803 78.6925 12.3964 76.3086 9.45571 76.3086C6.51501 76.3086 4.1311 78.6925 4.1311 81.6332C4.1311 84.5739 6.51501 86.9578 9.45571 86.9578Z" fill="#FFEFB2"/>
<path d="M9.45581 20.4117C4.60952 20.4117 0.666748 16.469 0.666748 11.6227C0.666748 6.77639 4.60952 2.83362 9.45581 2.83362C14.3021 2.83362 18.2449 6.77639 18.2449 11.6227C18.2449 16.469 14.3021 20.4117 9.45581 20.4117ZM9.45581 8.69299C7.84038 8.69299 6.52612 10.0073 6.52612 11.6227C6.52612 13.2381 7.84038 14.5524 9.45581 14.5524C11.0712 14.5524 12.3855 13.2381 12.3855 11.6227C12.3855 10.0073 11.0712 8.69299 9.45581 8.69299ZM9.45581 90.4223C4.60952 90.4223 0.666748 86.4795 0.666748 81.6332C0.666748 76.7869 4.60952 72.8442 9.45581 72.8442C14.3021 72.8442 18.2449 76.7869 18.2449 81.6332C18.2449 86.4795 14.3021 90.4223 9.45581 90.4223ZM9.45581 78.7035C7.84038 78.7035 6.52612 80.0178 6.52612 81.6332C6.52612 83.2487 7.84038 84.5629 9.45581 84.5629C11.0712 84.5629 12.3855 83.2487 12.3855 81.6332C12.3855 80.0178 11.0712 78.7035 9.45581 78.7035Z" fill="#FFE370"/>
<path d="M81.9948 50.4379C78.5573 62.7094 70.3307 80.1644 50.6666 94.5746C34.9206 83.057 24.4147 68.3129 19.4166 50.7113C16.5416 40.5844 16.3874 32.2582 16.5084 28.5629C36.6803 22.1351 46.5084 15.2699 50.6666 11.6234C54.8249 15.2699 64.653 22.1371 84.8288 28.5629C84.9538 32.2113 84.8112 40.3793 81.9948 50.4379Z" fill="#44ADFD"/>
<path d="M81.9949 50.4379C78.5574 62.7094 70.3308 80.1644 50.6667 94.5746V11.6234C54.825 15.2699 64.6531 22.1371 84.8289 28.5629C84.9539 32.2113 84.8113 40.3793 81.9949 50.4379Z" fill="#239FFD"/>
<path d="M52.4786 92.8234L50.6668 90.6371C36.4168 80.2133 26.9071 66.8676 22.3836 50.9379C19.7821 41.7719 19.6434 34.2367 19.7528 30.8929C38.0086 25.0746 46.9032 18.8617 50.6668 15.5609L52.4786 13.7599V11.1791L50.6668 8.44568C49.7293 8.44568 48.8875 8.8949 48.3368 9.65271C48.0301 10.0238 40.95 18.2933 16.0965 25.8968C14.9832 26.2367 14.1766 27.2054 14.0438 28.3636C13.995 28.7836 12.9032 38.8148 16.6707 52.2699C18.8723 60.1365 22.3111 67.6028 26.8582 74.389C32.536 82.8695 39.9813 90.3558 48.9911 96.639C49.495 96.9906 50.0809 97.1664 50.6668 97.1664L52.4786 94.8095V92.8234Z" fill="#6D65E7"/>
<path d="M52.3572 30.5275L50.6667 28.1234C43.7507 28.1234 38.1238 33.7504 38.1238 40.6664V45.2035C38.1238 46.8207 39.4363 48.1332 41.0535 48.1332C42.6726 48.1332 43.9832 46.8207 43.9832 45.2035V40.6664C43.9832 36.9808 46.9812 33.9828 50.6667 33.9828L52.3572 32.1107V30.5275Z" fill="#404A80"/>
<path d="M84.6628 52.2699C82.4613 60.1365 79.0225 67.6028 74.4753 74.389C68.7976 82.8695 61.3523 90.3558 52.3425 96.639C51.8386 96.9906 51.2527 97.1664 50.6667 97.1664V90.6371C68.4636 77.5941 75.9089 61.7972 79.0203 50.6898C81.5691 41.5863 81.698 34.1937 81.5847 30.8929C63.3249 25.0765 54.4304 18.8617 50.6667 15.5609V8.44568C51.6042 8.44568 52.446 8.8949 52.9968 9.65271C53.3035 10.0238 60.3835 18.2933 85.2371 25.8968C86.3503 26.2367 87.157 27.2054 87.2898 28.3636C87.3386 28.7836 88.4304 38.8148 84.6628 52.2699Z" fill="#4F45E2"/>
<path d="M63.2097 40.6664V45.2035C63.2097 46.8207 61.8972 48.1332 60.28 48.1332C58.6609 48.1332 57.3503 46.8207 57.3503 45.2035V40.6664C57.3503 36.9808 54.3523 33.9828 50.6667 33.9828V28.1234C57.5828 28.1234 63.2097 33.7504 63.2097 40.6664Z" fill="#283366"/>
<path d="M53.2882 48.1324L50.6667 42.2738H39.8855C36.9402 42.2738 34.5457 44.6683 34.5457 47.6136V64.391C34.5457 67.3363 36.9402 69.7308 39.8855 69.7308H50.6667L53.2882 62.7386V48.1324Z" fill="#FFE370"/>
<path d="M66.7878 47.6136V64.391C66.7878 67.3363 64.3933 69.7308 61.448 69.7308H50.6667V42.2738H61.448C64.3933 42.2738 66.7878 44.6683 66.7878 47.6136Z" fill="#FFB54C"/>
<path d="M53.5964 54.5785V57.4262C53.5964 59.0453 52.2839 60.3558 50.6667 60.3558C49.0496 60.3558 47.7371 59.0453 47.7371 57.4262V54.5785C47.7371 52.9594 49.0496 51.6488 50.6667 51.6488C52.2839 51.6488 53.5964 52.9592 53.5964 54.5785Z" fill="#404A80"/>
<path d="M53.5964 54.5785V57.4262C53.5964 59.0453 52.2839 60.3558 50.6667 60.3558V51.6488C52.2839 51.6488 53.5964 52.9592 53.5964 54.5785Z" fill="#283366"/>
</g>
<defs>
<clipPath id="clip0_58_9072">
<rect width="100" height="100" fill="white" transform="translate(0.666748)"/>
</clipPath>
</defs>
</svg>
