<svg width="101" height="100" viewBox="0 0 101 100" fill="none" xmlns="http://www.w3.org/2000/svg">
<g clip-path="url(#clip0_61_11557)">
<path d="M19.2932 61.1151C19.2932 61.1151 28.0961 37.3288 28.0208 37.3036C27.9454 37.2784 27.1668 34.1083 27.1668 34.1083C26.8576 34.1389 26.5455 34.1004 26.2529 33.9958C25.9603 33.8912 25.6946 33.7229 25.4749 33.5032L21.686 29.7144C20.8647 28.8931 19.5331 28.8931 18.7118 29.7144L11.6745 36.7517C10.8532 37.573 10.8532 38.9046 11.6745 39.7259L15.4633 43.5147C15.7858 43.8377 15.9946 44.2567 16.0582 44.7086C16.1218 45.1605 16.0367 45.6208 15.8159 46.0202C14.7198 48.0076 13.8478 50.1106 13.2159 52.2905C13.0894 52.7284 12.824 53.1133 12.4598 53.3873C12.0955 53.6613 11.6521 53.8095 11.1963 53.8097H5.84067C4.67915 53.8097 3.73755 54.7513 3.73755 55.9128V65.8649C3.73755 67.0265 4.67915 67.9681 5.84067 67.9681H11.1961C12.1327 67.9681 12.9551 68.5876 13.2157 69.4872C13.8474 71.6671 14.7195 73.77 15.8157 75.7573C16.0365 76.1567 16.1216 76.617 16.058 77.069C15.9944 77.5209 15.7856 77.9399 15.4631 78.2628L11.6743 82.0517C10.853 82.873 10.853 84.2046 11.6743 85.0259L18.7116 92.0632C19.5329 92.8845 20.8645 92.8845 21.6858 92.0632L25.4747 88.2743C25.6904 88.0587 25.9505 87.8928 26.2369 87.7879C26.5233 87.6831 26.8291 87.6419 27.1331 87.6673L28.0209 82.5003L19.2932 61.1151Z" fill="#4F45E2"/>
<path d="M79.8567 53.8099H71.6344C71.5026 53.8098 71.3722 53.8358 71.2504 53.8862C71.1287 53.9366 71.018 54.0105 70.9248 54.1037C70.8317 54.1968 70.7577 54.3074 70.7073 54.4292C70.6569 54.5509 70.6309 54.6814 70.6309 54.8132V59.8854C70.6309 60.4395 70.1817 60.889 69.6276 60.889H64.1508C63.6108 60.889 63.1737 61.3167 63.1483 61.8563C62.6389 72.7261 53.5903 81.3626 42.5594 81.2091C31.6139 81.0567 22.6809 72.1239 22.5288 61.1784C22.3708 49.8222 31.529 40.5669 42.8489 40.5669C44.8594 40.5669 46.8014 40.8595 48.6352 41.4034C49.2803 41.5948 49.9282 41.1171 49.9282 40.444V23.881C49.9282 22.7194 48.9866 21.7778 47.8251 21.7778H37.8729C36.7114 21.7778 35.7698 22.7194 35.7698 23.881V29.2364C35.7698 30.1729 35.1502 30.9954 34.2508 31.256C32.071 31.8879 29.968 32.7599 27.9805 33.856C27.7294 33.9946 27.4526 34.0805 27.167 34.1085C21.0833 41.3683 17.4143 50.7167 17.4143 60.9073C17.4143 71.0798 21.0696 80.4132 27.1334 87.6673C27.4241 87.6911 27.7129 87.7743 27.9805 87.922C29.9679 89.0181 32.0709 89.89 34.2508 90.5218C34.6887 90.6483 35.0736 90.9136 35.3475 91.2779C35.6215 91.6421 35.7697 92.0855 35.7698 92.5413V97.8968C35.7698 99.0583 36.7114 99.9999 37.8729 99.9999H47.8251C48.9866 99.9999 49.9282 99.0583 49.9282 97.8968V92.5413C49.9282 91.6048 50.5477 90.7823 51.4471 90.5218C53.6269 89.8899 55.7298 89.0179 57.7172 87.922C58.1166 87.701 58.5769 87.6159 59.0288 87.6795C59.4808 87.743 59.8998 87.9518 60.2227 88.2743L64.0116 92.0632C64.8329 92.8845 66.1645 92.8845 66.9858 92.0632L74.0231 85.0259C74.8444 84.2046 74.8444 82.8729 74.0231 82.0515L70.2342 78.2626C69.9117 77.9396 69.703 77.5206 69.6394 77.0686C69.5759 76.6167 69.661 76.1563 69.8819 75.7569C70.978 73.7696 71.8499 71.6667 72.4817 69.4868C72.6082 69.0489 72.8736 68.664 73.2378 68.3901C73.602 68.1161 74.0454 67.9678 74.5012 67.9677H79.8565C81.018 67.9677 81.9596 67.0261 81.9596 65.8646V55.9124C81.9598 54.7515 81.0182 53.8099 79.8567 53.8099Z" fill="#6B7ED9"/>
<path d="M64.1492 45.3248H56.499C56.2561 45.3248 56.0232 45.4213 55.8515 45.593C55.6798 45.7647 55.5834 45.9976 55.5834 46.2404V53.8906C55.5834 54.1335 55.6798 54.3664 55.8515 54.5381C56.0232 54.7098 56.2561 54.8063 56.499 54.8063H64.1492C64.392 54.8063 64.6249 54.7098 64.7966 54.5381C64.9683 54.3664 65.0648 54.1335 65.0648 53.8906V46.2404C65.0648 45.9976 64.9683 45.7647 64.7966 45.593C64.6249 45.4213 64.392 45.3248 64.1492 45.3248ZM76.0324 2.08419e-08H68.3822C68.1393 2.08419e-08 67.9064 0.0964674 67.7347 0.26818C67.563 0.439893 67.4666 0.672786 67.4666 0.915625V8.56582C67.4666 8.80866 67.563 9.04155 67.7347 9.21327C67.9064 9.38498 68.1393 9.48145 68.3822 9.48145H76.0324C76.2752 9.48145 76.5081 9.38498 76.6798 9.21327C76.8515 9.04155 76.948 8.80866 76.948 8.56582V0.915625C76.948 0.795376 76.9244 0.6763 76.8783 0.5652C76.8323 0.4541 76.7649 0.353152 76.6799 0.268123C76.5948 0.183094 76.4939 0.115651 76.3828 0.0696456C76.2717 0.0236402 76.1526 -2.56377e-05 76.0324 2.08419e-08ZM92.2435 36.2457H84.5933C84.3505 36.2457 84.1176 36.3422 83.9459 36.5139C83.7742 36.6856 83.6777 36.9185 83.6777 37.1613V44.8115C83.6777 45.0544 83.7742 45.2873 83.9459 45.459C84.1176 45.6307 84.3505 45.7271 84.5933 45.7271H92.2435C92.4863 45.7271 92.7192 45.6307 92.891 45.459C93.0627 45.2873 93.1591 45.0544 93.1591 44.8115V37.1613C93.1591 36.9185 93.0627 36.6856 92.891 36.5139C92.7192 36.3422 92.4863 36.2457 92.2435 36.2457ZM96.6802 12.1525H83.3642C83.1214 12.1525 82.8885 12.249 82.7168 12.4207C82.545 12.5924 82.4486 12.8253 82.4486 13.0682V26.3842C82.4486 26.627 82.545 26.8599 82.7168 27.0316C82.8885 27.2033 83.1214 27.2998 83.3642 27.2998H96.6802C96.9231 27.2998 97.156 27.2033 97.3277 27.0316C97.4994 26.8599 97.5959 26.627 97.5959 26.3842V13.0684C97.5959 12.9481 97.5722 12.829 97.5262 12.7179C97.4802 12.6068 97.4128 12.5058 97.3277 12.4208C97.2427 12.3357 97.1418 12.2683 97.0307 12.2223C96.9196 12.1762 96.8005 12.1525 96.6802 12.1525ZM74.9585 21.2012H60.0326C59.7897 21.2012 59.5568 21.2976 59.3851 21.4694C59.2134 21.6411 59.1169 21.874 59.1169 22.1168V37.0428C59.1169 37.2856 59.2134 37.5185 59.3851 37.6902C59.5568 37.8619 59.7897 37.9584 60.0326 37.9584H74.9585C75.2014 37.9584 75.4343 37.8619 75.606 37.6902C75.7777 37.5185 75.8742 37.2856 75.8742 37.0428V22.1168C75.8742 21.874 75.7777 21.6411 75.606 21.4694C75.4343 21.2976 75.2014 21.2012 74.9585 21.2012ZM42.8486 52.6791C38.3111 52.6791 34.6199 56.3705 34.6199 60.9076C34.6199 65.4451 38.3113 69.1363 42.8486 69.1363C47.3859 69.1363 51.0771 65.4449 51.0771 60.9076C51.0773 56.3705 47.3859 52.6791 42.8486 52.6791Z" fill="#239FFD"/>
</g>
<defs>
<clipPath id="clip0_61_11557">
<rect width="100" height="100" fill="white" transform="translate(0.666748)"/>
</clipPath>
</defs>
</svg>
