<svg width="100" height="100" viewBox="0 0 100 100" fill="none" xmlns="http://www.w3.org/2000/svg">
<path d="M96.7002 60.0193C96.7002 60.0193 94.1225 64.5898 93.7706 65.117C93.0092 66.5236 91.1928 66.992 89.7862 66.2303C89.2004 65.8787 85.2747 63.6521 84.8059 63.3006C83.2237 64.6484 81.4073 65.7617 79.2981 66.5234V70.5078C79.2981 72.1482 78.0092 73.4375 76.3684 73.4375H70.509C68.8682 73.4375 67.5793 72.1482 67.5793 70.5078V66.5234C65.47 65.7617 63.6538 64.6484 62.0715 63.3006L52.9309 68.2227L44.4348 69.5701L47.0129 58.1445L56.1536 53.2225C55.978 52.1678 55.8606 51.1131 55.8606 49.9998C55.8606 48.8865 55.978 47.8318 56.2122 46.7771L47.0715 41.8551L44.0833 31.0736L52.9897 31.7771L62.0717 36.6988C63.7126 35.2926 65.529 34.2381 67.5795 33.4762V29.4922C67.5795 27.8514 68.8684 26.5625 70.5092 26.5625H76.3686C78.0094 26.5625 79.2983 27.8514 79.2983 29.4922V33.4766C81.4077 34.2383 83.1653 35.3516 84.7475 36.6992H84.8061C85.3918 36.3477 89.318 34.1211 89.7864 33.7695C91.193 33.0078 92.9506 33.4766 93.7708 34.8242C93.7708 34.8242 96.3489 39.3947 96.7004 39.9219C97.5208 41.3281 97.0524 43.1445 95.6458 43.9648C95.0012 44.2578 91.1342 46.426 90.6655 46.7775C90.8997 47.8322 91.017 48.8869 91.017 50.0002C91.017 51.1135 90.8997 52.1682 90.7241 53.2229C91.3686 53.5158 95.1772 55.6836 95.6458 56.0352C97.0522 56.8553 97.5206 58.6131 96.7002 60.0193Z" fill="#979FEF"/>
<path d="M96.7002 60.0193C96.7002 60.0193 94.1225 64.5898 93.7706 65.117C93.0092 66.5236 91.1928 66.992 89.7862 66.2303C89.2004 65.8787 85.2747 63.6521 84.8059 63.3006C83.2237 64.6484 81.4073 65.7617 79.2981 66.5234V70.5078C79.2981 72.1482 78.0092 73.4375 76.3684 73.4375H73.4387V26.5625H76.3684C78.0092 26.5625 79.2981 27.8514 79.2981 29.4922V33.4766C81.4075 34.2383 83.1651 35.3516 84.7473 36.6992H84.8059C85.3916 36.3477 89.3178 34.1211 89.7862 33.7695C91.1928 33.0078 92.9504 33.4766 93.7706 34.8242C93.7706 34.8242 96.3487 39.3947 96.7002 39.9219C97.5206 41.3281 97.0522 43.1445 95.6456 43.9648C95.001 44.2578 91.134 46.426 90.6653 46.7775C90.8995 47.8322 91.0168 48.8869 91.0168 50.0002C91.0168 51.1135 90.8995 52.1682 90.7239 53.2229C91.3684 53.5158 95.177 55.6836 95.6456 56.0352C97.0522 56.8553 97.5206 58.6131 96.7002 60.0193Z" fill="#737EE6"/>
<path d="M49.8252 86.3864C49.8252 86.3864 47.2475 90.9569 46.8955 91.4841C46.1342 92.8907 44.3178 93.3591 42.9112 92.5974C42.3254 92.2458 38.3996 90.0192 37.9309 89.6677C36.3487 91.0155 34.5323 92.0702 32.4231 92.8905V97.0702C32.4231 98.7106 31.1342 99.9999 29.4934 99.9999H23.634C21.9932 99.9999 20.7043 98.7106 20.7043 97.0702V92.8905C18.595 92.0702 16.7787 91.0155 15.1965 89.6677C14.6108 90.0192 10.6846 92.2458 10.2162 92.5974C8.8096 93.3591 6.99339 92.8905 6.23187 91.4841C5.87991 90.8983 3.65374 86.914 3.30218 86.445C2.48187 85.0388 2.95023 83.2812 4.29808 82.4606C4.35667 82.4606 8.7512 79.9411 9.27835 79.5896C9.10277 78.4763 8.98538 77.4802 8.98538 76.3669C8.98538 75.2536 9.10277 74.1989 9.33694 73.1442C8.69241 72.8511 4.82503 70.6831 4.35667 70.3315C2.95003 69.5112 2.48167 67.6948 3.30198 66.2886C3.65355 65.7028 5.87972 61.7185 6.23167 61.2495C6.993 59.8433 8.7512 59.3745 10.1573 60.1362C10.1573 60.1362 14.6688 62.7144 15.1963 63.0659C16.8371 61.6597 18.6535 60.6052 20.7041 59.8433V49.9995L26.5635 44.1401L32.4229 49.9995V59.8433C34.4735 60.605 36.2899 61.6597 37.9307 63.0659L47.0127 58.1442L52.9307 68.2222L43.7901 73.1442C44.0243 74.1989 44.1416 75.2536 44.1416 76.3669C44.1416 77.4802 44.0243 78.5349 43.8487 79.5896C44.4932 79.8825 48.3018 82.0503 48.7703 82.4019C50.1772 83.2224 50.6455 84.9802 49.8252 86.3864Z" fill="#FF641A"/>
<path d="M49.8252 86.3865C49.8252 86.3865 47.2475 90.957 46.8956 91.4842C46.1342 92.8908 44.3178 93.3592 42.9112 92.5975C42.3254 92.2459 38.3997 90.0193 37.9309 89.6678C36.3487 91.0156 34.5323 92.0703 32.4231 92.8906V97.0703C32.4231 98.7107 31.1342 100 29.4934 100H26.5637V44.1406L32.4231 50V59.8437C34.4737 60.6055 36.2901 61.6602 37.9309 63.0664L47.0129 58.1447L52.9309 68.2227L43.7903 73.1447C44.0245 74.1994 44.1418 75.2541 44.1418 76.3674C44.1418 77.4807 44.0245 78.5354 43.8489 79.59C44.4934 79.883 48.302 82.0508 48.7706 82.4023C50.1772 83.2225 50.6456 84.9803 49.8252 86.3865Z" fill="#F03800"/>
<path d="M52.9895 31.7773L47.0715 41.8553L37.9309 36.9332C37.1106 37.6367 36.2319 38.2225 35.3528 38.8082C34.4155 39.3357 33.419 39.8045 32.4231 40.1561V49.9998H20.7043V40.1561C18.595 39.3943 16.7787 38.2811 15.1965 36.9332C14.6108 37.2848 10.6846 39.5113 10.2162 39.8629C8.8096 40.6246 6.99339 40.1561 6.23187 38.7496C5.87991 38.1639 3.65374 34.1795 3.30218 33.7105C2.48187 32.3043 2.95023 30.5467 4.29808 29.7262C4.35667 29.7262 8.7512 27.2066 9.27835 26.8551C9.10277 25.8004 8.98538 24.7457 8.98538 23.6324C8.98538 22.5191 9.10277 21.4645 9.33694 20.4098C8.69241 20.1166 4.82503 17.9486 4.35667 17.5971C2.95003 16.7768 2.48167 14.9604 3.30198 13.5541C3.65355 12.9684 5.87972 8.98398 6.23167 8.51504C6.993 7.10879 8.7512 6.64004 10.1573 7.40176C10.1573 7.40176 14.6688 9.97988 15.1963 10.3314C16.8371 8.9252 18.6535 7.8707 20.7041 7.10879V2.92969C20.7041 1.28887 21.993 0 23.6338 0H29.4932C31.134 0 32.4229 1.28887 32.4229 2.92969V7.10938C34.4735 7.87109 36.2317 8.92578 37.8721 10.332H37.9307C38.5164 9.98047 42.4426 7.75391 42.911 7.40234C44.3176 6.64063 46.0752 7.10938 46.8953 8.45703C46.8953 8.45703 49.4735 13.0275 49.825 13.5547C50.6453 14.9609 50.177 16.7773 48.7703 17.5977C48.1258 17.8906 44.2588 20.0588 43.7901 20.4104C44.0243 21.465 44.1416 22.5197 44.1416 23.633C44.1416 24.7463 44.0243 25.801 43.8487 26.8557L52.9895 31.7773Z" fill="#FFDA2D"/>
<path d="M52.9895 31.7773L47.0715 41.8553L37.9309 36.9332C37.1106 37.6367 36.2319 38.2225 35.3528 38.8082C34.4155 39.3357 33.419 39.8045 32.4231 40.1561V49.9998H26.5637V0H29.4934C31.1342 0 32.4231 1.28887 32.4231 2.92969V7.10938C34.4737 7.87109 36.2319 8.92578 37.8723 10.332H37.9309C38.5167 9.98047 42.4428 7.75391 42.9112 7.40234C44.3178 6.64063 46.0754 7.10938 46.8956 8.45703C46.8956 8.45703 49.4737 13.0275 49.8252 13.5547C50.6456 14.9609 50.1772 16.7773 48.7706 17.5977C48.126 17.8906 44.259 20.0588 43.7903 20.4104C44.0245 21.465 44.1418 22.5197 44.1418 23.633C44.1418 24.7463 44.0245 25.801 43.8489 26.8557L52.9895 31.7773Z" fill="#FDBF00"/>
<path d="M84.2783 42.0897C83.165 40.918 81.2904 40.918 80.177 42.0897L73.4385 48.7694L70.5088 51.6991L66.7 47.9491C65.5867 46.7774 63.7121 46.7774 62.5986 47.9491C61.4268 49.0624 61.4268 50.9374 62.5986 52.0506L68.458 57.91C68.9852 58.4961 69.7469 58.7891 70.5086 58.7891C71.2703 58.7891 72.032 58.4961 72.5592 57.91L73.4383 57.0313L84.2779 46.1913C85.4502 45.078 85.4502 43.203 84.2783 42.0897ZM37.4033 68.4569C36.29 67.2852 34.4154 67.2852 33.302 68.4569L26.5635 75.1366L23.6338 78.0663L19.825 74.3163C18.7117 73.1446 16.8371 73.1446 15.7236 74.3163C14.5518 75.4295 14.5518 77.3045 15.7236 78.4178L21.583 84.2772C22.1102 84.8633 22.8719 85.1563 23.6336 85.1563C24.3953 85.1563 25.157 84.8633 25.6842 84.2772L26.5633 83.3985L37.4029 72.5584C38.5752 71.4452 38.5752 69.5702 37.4033 68.4569ZM37.4033 15.7225C36.29 14.5508 34.4154 14.5508 33.302 15.7225L26.5635 22.4022L23.6338 25.3319L19.825 21.5819C18.7117 20.4102 16.8371 20.4102 15.7236 21.5819C14.5518 22.6952 14.5518 24.5702 15.7236 25.6834L21.583 31.5428C22.1102 32.129 22.8719 32.4219 23.6336 32.4219C24.3953 32.4219 25.157 32.129 25.6842 31.5428L26.5633 30.6641L37.4029 19.8241C38.5752 18.7108 38.5752 16.8358 37.4033 15.7225Z" fill="#47568C"/>
<path d="M37.4034 19.8241L26.5637 30.6641V22.4022L33.3022 15.7225C34.4155 14.5508 36.2901 14.5508 37.4036 15.7225C38.5752 16.8358 38.5752 18.7108 37.4034 19.8241ZM37.4034 72.5584L26.5637 83.3985V75.1366L33.3022 68.4569C34.4155 67.2852 36.2901 67.2852 37.4036 68.4569C38.5752 69.5702 38.5752 71.4452 37.4034 72.5584ZM84.2784 46.1913L73.4387 57.0313V48.7694L80.1772 42.0897C81.2905 40.918 83.1651 40.918 84.2786 42.0897C85.4502 43.203 85.4502 45.078 84.2784 46.1913Z" fill="#2C3B73"/>
</svg>
