<svg width="100" height="100" viewBox="0 0 100 100" fill="none" xmlns="http://www.w3.org/2000/svg">
<path d="M25 29.6875C24.172 29.69 23.3785 30.02 22.793 30.6055C22.2075 31.191 21.8775 31.9845 21.875 32.8125V34.375C21.8775 35.203 22.2075 35.9965 22.793 36.582C23.3785 37.1675 24.172 37.4975 25 37.5H28.125V29.6875H25Z" fill="#ED1C24"/>
<path d="M50 26.5625V37.5C49.9869 39.3859 49.492 41.2371 48.5622 42.8779C47.6324 44.5188 46.2986 45.8947 44.6875 46.875H33.4375C31.8156 45.9065 30.4733 44.5333 29.542 42.8898C28.6107 41.2463 28.1224 39.389 28.125 37.5V26.5625C28.1275 25.7345 28.4575 24.941 29.043 24.3555C29.6285 23.77 30.422 23.44 31.25 23.4375H46.875C47.7031 23.44 48.4965 23.77 49.082 24.3555C49.6675 24.941 49.9975 25.7345 50 26.5625Z" fill="#FFBCAB"/>
<path d="M46.875 14.0625H48.4375C50.0951 14.0625 51.6848 14.721 52.8569 15.8931C54.029 17.0652 54.6875 18.6549 54.6875 20.3125V30.1234C54.2149 29.8414 53.6754 29.6909 53.125 29.6875H50V26.5625C50 25.7337 49.6708 24.9388 49.0847 24.3528C48.4987 23.7667 47.7038 23.4375 46.875 23.4375H31.25C30.4212 23.4375 29.6263 23.7667 29.0403 24.3528C28.4542 24.9388 28.125 25.7337 28.125 26.5625V29.6875H25C24.4496 29.6909 23.9101 29.8414 23.4375 30.1234V20.3125C23.4375 17.8261 24.4252 15.4415 26.1834 13.6834C27.9415 11.9252 30.3261 10.9375 32.8125 10.9375H37.5C39.1576 10.9375 40.7473 11.596 41.9194 12.7681C43.0915 13.9402 43.75 15.5299 43.75 17.1875C43.75 16.3587 44.0792 15.5638 44.6653 14.9778C45.2513 14.3917 46.0462 14.0625 46.875 14.0625Z" fill="#58595B"/>
<path d="M62.5 50V78.125H15.625V50C15.6275 49.172 15.9575 48.3785 16.543 47.793C17.1285 47.2075 17.922 46.8775 18.75 46.875H59.375C60.203 46.8775 60.9965 47.2075 61.582 47.793C62.1675 48.3785 62.4975 49.172 62.5 50Z" fill="#D1D3D4"/>
<path d="M59.375 46.875V56.25C59.375 61.2228 57.3996 65.9919 53.8833 69.5083C50.3669 73.0246 45.5978 75 40.625 75H15.625V78.125H62.5V50C62.4975 49.172 62.1675 48.3785 61.582 47.793C60.9965 47.2075 60.203 46.8775 59.375 46.875Z" fill="#BCBEC0"/>
<path d="M92.1875 78.125H7.8125C6.9837 78.125 6.18884 78.4542 5.60279 79.0403C5.01674 79.6263 4.6875 80.4212 4.6875 81.25C4.6875 82.0788 5.01674 82.8737 5.60279 83.4597C6.18884 84.0458 6.9837 84.375 7.8125 84.375H92.1875C93.0163 84.375 93.8112 84.0458 94.3972 83.4597C94.9833 82.8737 95.3125 82.0788 95.3125 81.25C95.3125 80.4212 94.9833 79.6263 94.3972 79.0403C93.8112 78.4542 93.0163 78.125 92.1875 78.125Z" fill="#4F45E2"/>
<path d="M62.5 54.8125C64.4017 55.9047 65.9811 57.4799 67.0786 59.3785C68.1761 61.2772 68.7527 63.432 68.75 65.625V70.3125L62.5 68.75V54.8125ZM15.625 54.8125C13.7233 55.9047 12.1439 57.4799 11.0464 59.3785C9.9489 61.2772 9.37234 63.432 9.37501 65.625V70.3125L15.625 68.75V54.8125Z" fill="#FFCD00"/>
<path d="M15.625 68.75H12.5C11.2568 68.75 10.0645 69.2439 9.18544 70.1229C8.30636 71.002 7.8125 72.1943 7.8125 73.4375C7.8125 74.6807 8.30636 75.873 9.18544 76.7521C10.0645 77.6311 11.2568 78.125 12.5 78.125H15.625V68.75Z" fill="#FF9478"/>
<path d="M79.6875 4.6875C76.9296 4.68798 74.221 5.4184 71.8368 6.80457C69.4526 8.19073 67.4777 10.1832 66.1129 12.5797C64.748 14.9762 64.0417 17.6912 64.0658 20.449C64.0899 23.2067 64.8435 25.909 66.25 28.2812L64.0625 35.9375L71.7188 33.75C73.7868 34.9771 76.1102 35.7103 78.5081 35.8926C80.9059 36.0748 83.3134 35.7011 85.5432 34.8006C87.773 33.9001 89.7648 32.4971 91.3636 30.7008C92.9624 28.9045 94.125 26.7634 94.7609 24.4443C95.3968 22.1251 95.4888 19.6905 95.0298 17.33C94.5708 14.9694 93.5731 12.7467 92.1145 10.8349C90.6558 8.92302 88.7756 7.37365 86.6201 6.3074C84.4647 5.24115 82.0922 4.68679 79.6875 4.6875Z" fill="#ED1C24"/>
<path d="M7.8125 84.375H92.1875V95.3125H7.8125V84.375Z" fill="#239FFD"/>
<path d="M7.8125 84.375H92.1875V87.5H7.8125V84.375Z" fill="#2488FF"/>
<path d="M35.9375 31.25C35.9375 30.8356 35.7729 30.4382 35.4799 30.1451C35.1868 29.8521 34.7894 29.6875 34.375 29.6875C33.9606 29.6875 33.5632 29.8521 33.2701 30.1451C32.9771 30.4382 32.8125 30.8356 32.8125 31.25V32.8125C32.8125 33.2269 32.9771 33.6243 33.2701 33.9174C33.5632 34.2104 33.9606 34.375 34.375 34.375C34.7894 34.375 35.1868 34.2104 35.4799 33.9174C35.7729 33.6243 35.9375 33.2269 35.9375 32.8125V31.25ZM43.75 34.375C44.1644 34.375 44.5618 34.2104 44.8549 33.9174C45.1479 33.6243 45.3125 33.2269 45.3125 32.8125V31.25C45.3125 30.8356 45.1479 30.4382 44.8549 30.1451C44.5618 29.8521 44.1644 29.6875 43.75 29.6875C43.3356 29.6875 42.9382 29.8521 42.6451 30.1451C42.3521 30.4382 42.1875 30.8356 42.1875 31.25V32.8125C42.1875 33.2269 42.3521 33.6243 42.6451 33.9174C42.9382 34.2104 43.3356 34.375 43.75 34.375Z" fill="#58595B"/>
<path d="M39.0625 68.75C40.0728 68.7503 41.068 68.5057 41.9631 68.0372C42.8581 67.5686 43.6262 66.8901 44.2016 66.0597C44.777 65.2294 45.1426 64.2719 45.2669 63.2693C45.3913 62.2667 45.2707 61.2489 44.9156 60.3031C44.7644 59.9236 44.4705 59.6184 44.0969 59.453C43.7234 59.2876 43.2999 59.275 42.9172 59.418C42.5345 59.5611 42.223 59.8483 42.0495 60.2182C41.8761 60.5881 41.8543 61.0112 41.9891 61.3969C42.2242 62.02 42.254 62.702 42.0743 63.3434C41.8945 63.9847 41.5146 64.5518 40.9899 64.962C40.4651 65.3722 39.8231 65.604 39.1573 65.6236C38.4915 65.6433 37.8369 65.4497 37.289 65.0711C36.741 64.6925 36.3283 64.1487 36.1111 63.5191C35.8939 62.8895 35.8835 62.2069 36.0815 61.571C36.2795 60.9351 36.6755 60.379 37.2118 59.984C37.748 59.589 38.3965 59.3756 39.0625 59.375C39.4769 59.375 39.8743 59.2104 40.1674 58.9174C40.4604 58.6243 40.625 58.2269 40.625 57.8125C40.625 57.3981 40.4604 57.0007 40.1674 56.7076C39.8743 56.4146 39.4769 56.25 39.0625 56.25C37.4049 56.25 35.8152 56.9085 34.6431 58.0806C33.471 59.2527 32.8125 60.8424 32.8125 62.5C32.8125 64.1576 33.471 65.7473 34.6431 66.9194C35.8152 68.0915 37.4049 68.75 39.0625 68.75Z" fill="#A7A9AC"/>
<path d="M79.6875 15.625C80.1019 15.625 80.4993 15.4604 80.7924 15.1674C81.0854 14.8743 81.25 14.4769 81.25 14.0625V12.5C81.25 12.0856 81.0854 11.6882 80.7924 11.3951C80.4993 11.1021 80.1019 10.9375 79.6875 10.9375C79.2731 10.9375 78.8757 11.1021 78.5826 11.3951C78.2896 11.6882 78.125 12.0856 78.125 12.5V14.0625C78.125 14.4769 78.2896 14.8743 78.5826 15.1674C78.8757 15.4604 79.2731 15.625 79.6875 15.625ZM76.5625 28.125C76.5625 28.5394 76.7271 28.9368 77.0201 29.2299C77.3132 29.5229 77.7106 29.6875 78.125 29.6875H81.25C81.6644 29.6875 82.0618 29.5229 82.3549 29.2299C82.6479 28.9368 82.8125 28.5394 82.8125 28.125C82.8125 27.7106 82.6479 27.3132 82.3549 27.0201C82.0618 26.7271 81.6644 26.5625 81.25 26.5625V18.75C81.25 18.3356 81.0854 17.9382 80.7924 17.6451C80.4993 17.3521 80.1019 17.1875 79.6875 17.1875H78.125C77.7106 17.1875 77.3132 17.3521 77.0201 17.6451C76.7271 17.9382 76.5625 18.3356 76.5625 18.75C76.5625 19.1644 76.7271 19.5618 77.0201 19.8549C77.3132 20.1479 77.7106 20.3125 78.125 20.3125V26.5625C77.7106 26.5625 77.3132 26.7271 77.0201 27.0201C76.7271 27.3132 76.5625 27.7106 76.5625 28.125Z" fill="#F1F2F2"/>
<path d="M54.6875 35.9375V40.625C54.6875 41.4538 54.3583 42.2487 53.7722 42.8347C53.1862 43.4208 52.3913 43.75 51.5625 43.75H39.0625V40.625H51.5625V35.9375H54.6875Z" fill="#808285"/>
<path d="M39.0625 45.3125C40.7884 45.3125 42.1875 43.9134 42.1875 42.1875C42.1875 40.4616 40.7884 39.0625 39.0625 39.0625C37.3366 39.0625 35.9375 40.4616 35.9375 42.1875C35.9375 43.9134 37.3366 45.3125 39.0625 45.3125Z" fill="#6D6E71"/>
<path d="M53.125 37.5C53.953 37.4975 54.7465 37.1675 55.332 36.582C55.9175 35.9965 56.2475 35.203 56.25 34.375V32.8125C56.2475 31.9845 55.9175 31.191 55.332 30.6055C54.7465 30.02 53.953 29.69 53.125 29.6875H50V37.5H53.125Z" fill="#ED1C24"/>
<path d="M65.625 78.125C66.8682 78.125 68.0605 77.6311 68.9396 76.7521C69.8186 75.873 70.3125 74.6807 70.3125 73.4375C70.3125 72.1943 69.8186 71.002 68.9396 70.1229C68.0605 69.2439 66.8682 68.75 65.625 68.75H62.5V78.125H65.625Z" fill="#FF9478"/>
</svg>
