<svg width="101" height="100" viewBox="0 0 101 100" fill="none" xmlns="http://www.w3.org/2000/svg">
<path d="M50.3333 87.5H9.70825C8.87945 87.5 8.08459 87.1708 7.49854 86.5847C6.91249 85.9987 6.58325 85.2038 6.58325 84.375V78.125C6.58325 77.2962 6.91249 76.5013 7.49854 75.9153C8.08459 75.3292 8.87945 75 9.70825 75H50.3333V87.5Z" fill="#C80A50"/>
<path d="M20.8442 75C27.7161 82.6672 37.6896 87.5 48.7708 87.5V75H20.8442Z" fill="#A00028"/>
<path d="M25.3333 50H12.8333C12.8333 29.3219 29.6567 12.5 50.3333 12.5V25C36.5489 25 25.3333 36.2156 25.3333 50Z" fill="#239FFD"/>
<path d="M50.3333 87.5C29.6567 87.5 12.8333 70.6781 12.8333 50H25.3333C25.3333 63.7844 36.5489 75 50.3333 75V87.5ZM50.3333 75H78.4583V87.5H50.3333V75Z" fill="#00A0C8"/>
<path d="M16.8739 63.1469C17.4599 63.7328 18.2546 64.0619 19.0833 64.0619C19.9119 64.0619 20.7066 63.7328 21.2926 63.1469L26.5942 57.8454C25.757 55.3145 25.3313 52.6658 25.3333 50.0001H12.8333C12.8333 53.6969 13.3708 57.2688 14.3723 60.6454L16.8739 63.1469ZM83.7926 36.8532C83.2066 36.2673 82.4119 35.9382 81.5833 35.9382C80.7546 35.9382 79.9599 36.2673 79.3739 36.8532L74.0723 42.1548C74.8895 44.6235 75.3333 47.261 75.3333 50.0001H87.8333C87.8362 46.396 87.3178 42.8104 86.2942 39.3548L83.7926 36.8532Z" fill="#0082AA"/>
<path d="M53.4583 12.6298V9.37507C53.4582 8.7571 53.2748 8.15304 52.9314 7.63926C52.5881 7.12548 52.1 6.72504 51.5291 6.48857C50.9582 6.2521 50.3299 6.19022 49.7238 6.31074C49.1177 6.43127 48.561 6.72879 48.1239 7.16569L38.7489 16.5407C38.1631 17.1267 37.834 17.9214 37.834 18.7501C37.834 19.5787 38.1631 20.3734 38.7489 20.9594L48.1239 30.3344C48.5605 30.7724 49.1174 31.0708 49.7239 31.1915C50.3304 31.3123 50.9592 31.25 51.5302 31.0126C52.1011 30.7759 52.589 30.3752 52.9322 29.8612C53.2754 29.3473 53.4585 28.7431 53.4583 28.1251V25.1954C65.7739 26.7376 75.3333 37.2735 75.3333 50.0001H87.8333C87.8333 30.3751 72.6786 14.2235 53.4583 12.6298Z" fill="#00A0C8"/>
<path d="M31.3458 48.8047C31.1094 48.2335 30.7088 47.7453 30.1948 47.4018C29.6808 47.0583 29.0765 46.875 28.4583 46.875H9.70832C9.09035 46.8751 8.48629 47.0585 7.97251 47.4019C7.45873 47.7453 7.05829 48.2333 6.82182 48.8042C6.58536 49.3751 6.52347 50.0034 6.644 50.6095C6.76452 51.2156 7.06204 51.7723 7.49894 52.2094L16.8739 61.5844C17.4849 62.1953 18.2833 62.5 19.0833 62.5C19.8833 62.5 20.6818 62.1953 21.2927 61.5844L30.6677 52.2094C31.1047 51.7725 31.4023 51.2159 31.523 50.6099C31.6437 50.0038 31.5821 49.3757 31.3458 48.8047Z" fill="#239FFD"/>
<path d="M87.7036 53.1251H90.9583C91.5762 53.1249 92.1803 52.9416 92.6941 52.5982C93.2078 52.2548 93.6083 51.7668 93.8447 51.1959C94.0812 50.6249 94.1431 49.9967 94.0226 49.3906C93.9021 48.7845 93.6045 48.2277 93.1676 47.7907L83.7926 38.4157C83.2066 37.8298 82.4119 37.5007 81.5833 37.5007C80.7546 37.5007 79.9599 37.8298 79.3739 38.4157L69.9989 47.7907C69.562 48.2277 69.2645 48.7845 69.1439 49.3906C69.0234 49.9967 69.0853 50.6249 69.3218 51.1959C69.5582 51.7668 69.9587 52.2548 70.4724 52.5982C70.9862 52.9416 71.5903 53.1249 72.2083 53.1251H75.1379C73.5958 65.4407 63.0598 75.0001 50.3333 75.0001H78.2598C83.7107 68.9344 87.0273 61.252 87.7036 53.1251Z" fill="#239FFD"/>
<path d="M64.3958 46.875H63.5926C62.9067 46.875 62.3333 46.4187 62.1004 45.7734C61.9659 45.399 61.8131 45.0314 61.6426 44.6719C61.3489 44.0516 61.4333 43.3203 61.9176 42.8359L62.4864 42.2672C62.6316 42.1222 62.7468 41.95 62.8254 41.7605C62.904 41.5709 62.9445 41.3677 62.9445 41.1625C62.9445 40.9573 62.904 40.7541 62.8254 40.5645C62.7468 40.375 62.6316 40.2028 62.4864 40.0578L60.277 37.8484C60.132 37.7032 59.9598 37.588 59.7703 37.5094C59.5807 37.4308 59.3775 37.3903 59.1723 37.3903C58.9671 37.3903 58.7639 37.4308 58.5744 37.5094C58.3848 37.588 58.2126 37.7032 58.0676 37.8484L57.4989 38.4172C57.0129 38.9031 56.2833 38.9859 55.6629 38.6922C55.303 38.5226 54.9354 38.3699 54.5614 38.2344C53.9145 38.0016 53.4583 37.4266 53.4583 36.7406V35.9375C53.4583 35.5231 53.2936 35.1257 53.0006 34.8326C52.7076 34.5396 52.3102 34.375 51.8958 34.375H48.7708C48.3564 34.375 47.9589 34.5396 47.6659 34.8326C47.3729 35.1257 47.2083 35.5231 47.2083 35.9375V36.7406C47.2083 37.4266 46.752 38 46.1067 38.2328C45.7323 38.3673 45.3646 38.5201 45.0051 38.6906C44.3848 38.9844 43.6536 38.9 43.1692 38.4156L42.6004 37.8469C42.4555 37.7016 42.2833 37.5864 42.0937 37.5078C41.9042 37.4292 41.701 37.3887 41.4958 37.3887C41.2905 37.3887 41.0873 37.4292 40.8978 37.5078C40.7082 37.5864 40.536 37.7016 40.3911 37.8469L38.1817 40.0562C38.0365 40.2012 37.9212 40.3734 37.8426 40.563C37.764 40.7525 37.7236 40.9557 37.7236 41.1609C37.7236 41.3661 37.764 41.5693 37.8426 41.7589C37.9212 41.9484 38.0365 42.1206 38.1817 42.2656L38.7504 42.8344C39.2364 43.3203 39.3192 44.05 39.0254 44.6703C38.8559 45.0302 38.7031 45.3978 38.5676 45.7719C38.3348 46.4188 37.7598 46.875 37.0739 46.875H36.2708C35.8564 46.875 35.4589 47.0396 35.1659 47.3326C34.8729 47.6257 34.7083 48.0231 34.7083 48.4375V51.5625C34.7083 51.9769 34.8729 52.3743 35.1659 52.6674C35.4589 52.9604 35.8564 53.125 36.2708 53.125H37.0739C37.7598 53.125 38.3333 53.5813 38.5661 54.2266C38.702 54.6031 38.8536 54.9703 39.0239 55.3281C39.3176 55.9484 39.2333 56.6797 38.7489 57.1641L38.1801 57.7328C38.0349 57.8778 37.9197 58.05 37.8411 58.2395C37.7625 58.4291 37.722 58.6323 37.722 58.8375C37.722 59.0427 37.7625 59.2459 37.8411 59.4355C37.9197 59.625 38.0349 59.7972 38.1801 59.9422L40.3895 62.1516C40.5345 62.2968 40.7067 62.412 40.8962 62.4906C41.0858 62.5692 41.289 62.6097 41.4942 62.6097C41.6994 62.6097 41.9026 62.5692 42.0921 62.4906C42.2817 62.412 42.4539 62.2968 42.5989 62.1516L43.1676 61.5828C43.6536 61.0969 44.3833 61.0141 45.0036 61.3078C45.3614 61.4766 45.7301 61.6297 46.1051 61.7656C46.752 61.9984 47.2083 62.5734 47.2083 63.2594V64.0625C47.2083 64.4769 47.3729 64.8743 47.6659 65.1674C47.9589 65.4604 48.3564 65.625 48.7708 65.625H51.8958C52.3102 65.625 52.7076 65.4604 53.0006 65.1674C53.2936 64.8743 53.4583 64.4769 53.4583 64.0625V63.2594C53.4583 62.5734 53.9145 62 54.5598 61.7672C54.9364 61.6312 55.3036 61.4797 55.6614 61.3094C56.2817 61.0156 57.0129 61.1 57.4973 61.5844L58.0661 62.1531C58.211 62.2984 58.3832 62.4136 58.5728 62.4922C58.7624 62.5708 58.9655 62.6113 59.1707 62.6113C59.376 62.6113 59.5792 62.5708 59.7687 62.4922C59.9583 62.4136 60.1305 62.2984 60.2754 62.1531L62.4848 59.9437C62.63 59.7988 62.7453 59.6266 62.8239 59.437C62.9025 59.2475 62.9429 59.0443 62.9429 58.8391C62.9429 58.6339 62.9025 58.4307 62.8239 58.2411C62.7453 58.0515 62.63 57.8794 62.4848 57.7344L61.9161 57.1656C61.4301 56.6797 61.3473 55.95 61.6411 55.3297C61.8098 54.9719 61.9629 54.6031 62.0989 54.2281C62.3317 53.5813 62.9067 53.125 63.5926 53.125H64.3958C64.8102 53.125 65.2076 52.9604 65.5006 52.6674C65.7936 52.3743 65.9583 51.9769 65.9583 51.5625V48.4375C65.9583 48.0231 65.7936 47.6257 65.5006 47.3326C65.2076 47.0396 64.8102 46.875 64.3958 46.875ZM50.3333 56.25C48.6756 56.25 47.0859 55.5915 45.9138 54.4194C44.7417 53.2473 44.0833 51.6576 44.0833 50C44.0833 48.3424 44.7417 46.7527 45.9138 45.5806C47.0859 44.4085 48.6756 43.75 50.3333 43.75C51.9909 43.75 53.5806 44.4085 54.7527 45.5806C55.9248 46.7527 56.5833 48.3424 56.5833 50C56.5833 51.6576 55.9248 53.2473 54.7527 54.4194C53.5806 55.5915 51.9909 56.25 50.3333 56.25Z" fill="#C80A50"/>
<path d="M93.1676 79.0407L83.7926 69.6657C83.3556 69.2288 82.7988 68.9313 82.1927 68.8107C81.5866 68.6902 80.9584 68.7521 80.3875 68.9886C79.8165 69.225 79.3285 69.6255 78.9851 70.1393C78.6417 70.653 78.4584 71.2571 78.4583 71.8751V75.0001H50.3333V87.5001H78.4583V90.6251C78.4584 91.243 78.6417 91.8471 78.9851 92.3609C79.3285 92.8747 79.8165 93.2751 80.3875 93.5116C80.9584 93.748 81.5866 93.8099 82.1927 93.6894C82.7988 93.5689 83.3556 93.2713 83.7926 92.8344L93.1676 83.4594C93.7535 82.8734 94.0826 82.0787 94.0826 81.2501C94.0826 80.4214 93.7535 79.6267 93.1676 79.0407Z" fill="#00A0C8"/>
</svg>
