<svg width="101" height="100" viewBox="0 0 101 100" fill="none" xmlns="http://www.w3.org/2000/svg">
<path d="M88.1667 53.125H17.8542C16.611 53.125 15.4188 52.6311 14.5397 51.7521C13.6606 50.873 13.1667 49.6807 13.1667 48.4375H92.8542C92.8542 49.6807 92.3604 50.873 91.4813 51.7521C90.6022 52.6311 89.41 53.125 88.1667 53.125Z" fill="#E8E5DF"/>
<path d="M24.1042 50H42.8542C44.9263 50 46.9134 49.1768 48.3785 47.7117C49.8436 46.2466 50.6667 44.2595 50.6667 42.1875V37.3953C50.6667 29.6875 44.4871 18.75 42.6464 18.75H24.3121C22.4714 18.75 16.2917 29.6875 16.2917 37.3953V42.1875C16.2917 44.2595 17.1148 46.2466 18.58 47.7117C20.0451 49.1768 22.0322 50 24.1042 50ZM45.6199 6.68901L42.3542 8.32183C42.1142 8.44208 41.8395 8.47416 41.5782 8.41247C41.3168 8.35079 41.0855 8.19925 40.9246 7.98433L38.8542 5.22339C38.7557 5.09221 38.6301 4.9837 38.4861 4.90519C38.342 4.82668 38.1827 4.78 38.0191 4.7683C37.8554 4.7566 37.6912 4.78015 37.5374 4.83737C37.3836 4.89458 37.2439 4.98412 37.1277 5.09995L34.4121 7.81558C34.2961 7.93188 34.1565 8.02185 34.0026 8.07936C33.8488 8.13688 33.6844 8.16058 33.5205 8.14887C33.3567 8.13716 33.1973 8.0903 33.0533 8.01149C32.9092 7.93268 32.7837 7.82376 32.6855 7.69214L30.8339 5.22339C30.7354 5.09221 30.6098 4.9837 30.4658 4.90519C30.3217 4.82668 30.1624 4.78 29.9988 4.7683C29.8351 4.7566 29.6709 4.78015 29.5171 4.83737C29.3633 4.89458 29.2236 4.98412 29.1074 5.09995L25.9355 8.27183C25.791 8.41634 25.6105 8.51962 25.4128 8.57099C25.215 8.62236 25.007 8.61995 24.8105 8.56401L20.0683 7.20933C19.8511 7.14772 19.6205 7.15159 19.4055 7.22048C19.1905 7.28936 19.0005 7.42018 18.8596 7.59654C18.7186 7.7729 18.6328 7.98696 18.6129 8.21188C18.5931 8.43679 18.6401 8.66256 18.748 8.86089L24.1042 18.75H42.8542L47.1902 8.15464C47.5996 7.17495 46.5699 6.21558 45.6199 6.68901Z" fill="#FEBE07"/>
<path d="M42.8543 50C44.9263 50 46.9134 49.1769 48.3786 47.7118C49.8437 46.2467 50.6668 44.2595 50.6668 42.1875V37.3953C50.6668 29.6875 44.4871 18.75 42.6465 18.75H24.3121C23.2684 18.75 34.2496 19.4235 39.7293 28.125C43.9121 34.7672 42.8543 50 42.8543 50ZM45.6199 6.68909L43.4105 7.79377C39.1074 12.1118 33.7087 15.1752 27.7949 16.6547L23.5449 17.7172L24.1043 18.75H42.8543L47.1902 8.15471C47.5996 7.17502 46.5699 6.21565 45.6199 6.68909Z" fill="#E3A800"/>
<path d="M45.9792 46.875H27.2292C25.1572 46.875 23.1701 46.0519 21.705 44.5868C20.2398 43.1216 19.4167 41.1345 19.4167 39.0625V34.2703C19.4167 29.1266 22.1667 22.5594 24.5449 18.75H24.3121C22.4714 18.75 16.2917 29.6875 16.2917 37.3953V42.1875C16.2917 44.2595 17.1148 46.2466 18.58 47.7118C20.0451 49.1769 22.0322 50 24.1042 50H42.8542C45.8183 50 48.3652 48.3297 49.6902 45.8984C48.5549 46.5305 47.2786 46.8664 45.9792 46.875Z" fill="#E3A800"/>
<path d="M55.3542 6.25H70.9792V50H55.3542V6.25Z" fill="#CBE6FE"/>
<path d="M70.9792 25L64.7292 31.25L58.4792 37.5H61.6042V50H70.9792V25Z" fill="#A9C6EB"/>
<path d="M46.448 25H41.2917V50H55.3542V25H46.448Z" fill="#CBE6FE"/>
<path d="M74.1042 42.1875H80.3542V50H74.1042V42.1875Z" fill="#A9C6EB"/>
<path d="M90.8339 46.875C90.0323 46.875 89.2465 47.0983 88.5646 47.5197C87.8827 47.9411 87.3316 48.544 86.973 49.2609L86.6042 50L81.9167 59.375L70.9792 64.0625C70.9792 62.4049 70.3208 60.8152 69.1487 59.6431C67.9766 58.471 66.3869 57.8125 64.7292 57.8125H42.2324C33.4907 57.8123 24.9674 60.5437 17.8542 65.625V89.0625H54.7386C62.2886 89.0625 69.6855 86.9406 76.0871 82.9391C80.8731 79.9486 84.9772 75.9856 88.1333 71.3071C91.2894 66.6286 93.4269 61.339 94.4074 55.7813L95.0855 51.9406C95.1948 51.3199 95.1668 50.6827 95.0035 50.074C94.8403 49.4652 94.5457 48.8995 94.1405 48.4168C93.7353 47.934 93.2293 47.5458 92.6581 47.2794C92.0869 47.0131 91.4642 46.875 90.8339 46.875Z" fill="#FFE5CF"/>
<path d="M86.6042 37.5H67.8542V50H74.1042V42.1875H80.3542V50H86.6042V37.5Z" fill="#CBE6FE"/>
<path d="M89.7292 37.5L77.2292 25L70.9792 31.25L64.7292 37.5H89.7292Z" fill="#E3A800"/>
<path d="M50.6667 25H55.3542V50H50.6667V25Z" fill="#A9C6EB"/>
<path d="M21.1027 63.5453C19.9949 64.1922 18.9042 64.875 17.8542 65.625V89.0625H54.7386L45.8714 88.2422C32.6433 87.0172 22.3324 76.5297 21.1027 63.5453Z" fill="#F5DCC7"/>
<path d="M36.6042 31.25V29.6875C36.6042 29.2731 36.4396 28.8757 36.1466 28.5826C35.8536 28.2896 35.4561 28.125 35.0417 28.125H33.4792V26.5625H30.3542V28.125H28.7917C28.3773 28.125 27.9799 28.2896 27.6869 28.5826C27.3939 28.8757 27.2292 29.2731 27.2292 29.6875V34.375C27.2292 34.7894 27.3939 35.1868 27.6869 35.4799C27.9799 35.7729 28.3773 35.9375 28.7917 35.9375H33.4792V37.5H27.2292V39.0625C27.2292 39.4769 27.3939 39.8743 27.6869 40.1674C27.9799 40.4604 28.3773 40.625 28.7917 40.625H30.3542V42.1875H33.4792V40.625H35.0417C35.4561 40.625 35.8536 40.4604 36.1466 40.1674C36.4396 39.8743 36.6042 39.4769 36.6042 39.0625V34.375C36.6042 33.9606 36.4396 33.5632 36.1466 33.2701C35.8536 32.9771 35.4561 32.8125 35.0417 32.8125H30.3542V31.25H36.6042Z" fill="#FEFEFE"/>
<path d="M64.7292 73.4375H39.7292V70.3125H64.7292C67.3136 70.3125 70.9792 66.6469 70.9792 64.0625L72.5417 65.625C72.5417 69.9328 69.0371 73.4375 64.7292 73.4375Z" fill="#F5DCC7"/>
<path d="M60.0417 10.9375H61.6042V14.0625H60.0417V10.9375ZM64.7292 10.9375H66.2917V14.0625H64.7292V10.9375ZM60.0417 17.1875H61.6042V20.3125H60.0417V17.1875ZM64.7292 17.1875H66.2917V20.3125H64.7292V17.1875ZM60.0417 23.4375H61.6042V26.5625H60.0417V23.4375ZM64.7292 23.4375H66.2917V26.5625H64.7292V23.4375ZM45.9792 29.6875H47.5417V32.8125H45.9792V29.6875ZM50.6667 29.6875H52.2292V32.8125H50.6667V29.6875ZM45.9792 35.9375H47.5417V39.0625H45.9792V35.9375ZM50.6667 35.9375H52.2292V39.0625H50.6667V35.9375ZM45.9792 42.1875H47.5417V45.3125H45.9792V42.1875ZM50.6667 42.1875H52.2292V45.3125H50.6667V42.1875ZM60.0417 29.6875H61.6042V32.8125H60.0417V29.6875ZM64.7292 29.6875H66.2917V32.8125H64.7292V29.6875Z" fill="#4F45E2"/>
<path d="M83.4792 6.25H86.6042V9.375H83.4792V6.25ZM86.6042 3.125H89.7292V6.25H86.6042V3.125ZM89.7292 6.25H92.8542V9.375H89.7292V6.25ZM86.6042 9.375H89.7292V12.5H86.6042V9.375ZM94.4167 14.0625H97.5417V17.1875H94.4167V14.0625ZM83.4792 18.75H86.6042V21.875H83.4792V18.75ZM3.79175 17.1875H6.91675V20.3125H3.79175V17.1875ZM6.91675 14.0625H10.0417V17.1875H6.91675V14.0625ZM10.0417 17.1875H13.1667V20.3125H10.0417V17.1875ZM6.91675 20.3125H10.0417V23.4375H6.91675V20.3125ZM3.79175 29.6875H6.91675V32.8125H3.79175V29.6875ZM10.0417 3.125H13.1667V6.25H10.0417V3.125Z" fill="#FEBE07"/>
<path d="M16.2917 57.8125H6.91675C6.50235 57.8125 6.10492 57.9771 5.81189 58.2701C5.51887 58.5632 5.35425 58.9606 5.35425 59.375V93.75C5.35425 94.1644 5.51887 94.5618 5.81189 94.8549C6.10492 95.1479 6.50235 95.3125 6.91675 95.3125H16.2917C16.7061 95.3125 17.1036 95.1479 17.3966 94.8549C17.6896 94.5618 17.8542 94.1644 17.8542 93.75V59.375C17.8542 58.9606 17.6896 58.5632 17.3966 58.2701C17.1036 57.9771 16.7061 57.8125 16.2917 57.8125Z" fill="#4F45E2"/>
<path d="M11.6042 68.75C11.1898 68.75 10.7924 68.5854 10.4994 68.2924C10.2064 67.9993 10.0417 67.6019 10.0417 67.1875V65.625C10.0417 65.2106 10.2064 64.8132 10.4994 64.5201C10.7924 64.2271 11.1898 64.0625 11.6042 64.0625C12.0186 64.0625 12.4161 64.2271 12.7091 64.5201C13.0021 64.8132 13.1667 65.2106 13.1667 65.625V67.1875C13.1667 67.6019 13.0021 67.9993 12.7091 68.2924C12.4161 68.5854 12.0186 68.75 11.6042 68.75Z" fill="#FEFEFE"/>
</svg>
