<svg width="101" height="100" viewBox="0 0 101 100" fill="none" xmlns="http://www.w3.org/2000/svg">
<path d="M84.2514 17.3879V79.1212C84.2506 81.1157 83.4579 83.0283 82.0476 84.4386C80.6372 85.8489 78.7247 86.6416 76.7302 86.6424H13.5847C12.5968 86.6432 11.6184 86.4492 10.7055 86.0715C9.79263 85.6938 8.96318 85.1398 8.26461 84.4413C7.56605 83.7427 7.01207 82.9133 6.63437 82.0004C6.25668 81.0875 6.06268 80.1091 6.06348 79.1212V17.3879C6.06288 16.4001 6.25703 15.4218 6.63481 14.5091C7.01259 13.5964 7.5666 12.7672 8.26515 12.0688C8.9637 11.3704 9.79308 10.8165 10.7059 10.4389C11.6186 10.0613 12.5969 9.86737 13.5847 9.86817H76.7302C78.7244 9.86897 80.6367 10.6614 82.047 12.0714C83.4573 13.4814 84.2502 15.3936 84.2514 17.3879Z" fill="#E1D9E1"/>
<path d="M84.2514 24.6045V17.3879C84.2502 15.3936 83.4573 13.4814 82.047 12.0714C80.6367 10.6614 78.7244 9.86897 76.7302 9.86817H13.5847C12.5969 9.86737 11.6186 10.0613 10.7059 10.4389C9.79308 10.8165 8.9637 11.3704 8.26515 12.0688C7.5666 12.7672 7.01259 13.5964 6.63481 14.5091C6.25703 15.4218 6.06288 16.4001 6.06348 17.3879V24.6045H84.2514Z" fill="#4F45E2"/>
<path d="M78.2423 33.8167V76.103C78.2423 77.3005 77.7666 78.449 76.9199 79.2957C76.0731 80.1425 74.9247 80.6182 73.7272 80.6182H16.5908C14.0908 80.6182 12.0757 78.603 12.0757 76.103V33.8152C12.0757 31.3152 14.0908 29.3015 16.5908 29.3015H73.7272C74.9247 29.3015 76.0731 29.7772 76.9199 30.624C77.7666 31.4707 78.2423 32.6192 78.2423 33.8167Z" fill="#F6F0F5"/>
<path d="M20.9984 17.2378C20.9976 17.9925 20.6973 18.716 20.1635 19.2495C19.6298 19.783 18.9061 20.0829 18.1514 20.0833C17.4079 20.0661 16.7007 19.7587 16.1809 19.2268C15.6611 18.6949 15.3701 17.9808 15.3701 17.2371C15.3701 16.4934 15.6611 15.7792 16.1809 15.2473C16.7007 14.7154 17.4079 14.408 18.1514 14.3909C19.7272 14.3909 20.9984 15.6621 20.9984 17.2378ZM30.2105 17.2378C30.1811 17.973 29.8684 18.6683 29.3378 19.1781C28.8073 19.6879 28.1001 19.9726 27.3643 19.9726C26.6285 19.9726 25.9213 19.6879 25.3907 19.1781C24.8602 18.6683 24.5475 17.973 24.5181 17.2378C24.5181 15.6621 25.7878 14.3909 27.3635 14.3909C28.9393 14.3909 30.2105 15.6621 30.2105 17.2378ZM76.1696 17.2378C76.1688 17.9925 75.8685 18.716 75.3348 19.2495C74.801 19.783 74.0773 20.0829 73.3226 20.0833H48.4999C47.7564 20.0661 47.0491 19.7587 46.5294 19.2268C46.0096 18.6949 45.7186 17.9808 45.7186 17.2371C45.7186 16.4934 46.0096 15.7792 46.5294 15.2473C47.0491 14.7154 47.7564 14.408 48.4999 14.3909H73.3241C74.8999 14.3909 76.1696 15.6621 76.1696 17.2378ZM39.409 17.2378C39.4086 17.9903 39.1103 18.712 38.5794 19.2452C38.0485 19.7784 37.3281 20.0797 36.5757 20.0833C35.8207 20.0833 35.0967 19.7836 34.5625 19.2501C34.0284 18.7165 33.728 17.9928 33.7272 17.2378C33.7272 16.4844 34.0265 15.7618 34.5593 15.229C35.092 14.6962 35.8146 14.3969 36.5681 14.3969C37.3215 14.3969 38.0441 14.6962 38.5769 15.229C39.1097 15.7618 39.409 16.4844 39.409 17.2378Z" fill="white"/>
<path d="M47.7272 51.5666V45.8091C47.7272 45.5924 47.5756 45.406 47.3635 45.3636L45.0666 44.903C44.9882 44.8868 44.9157 44.8498 44.8565 44.7959C44.7974 44.7421 44.7537 44.6734 44.7302 44.5969C44.4979 43.8556 44.2018 43.1357 43.8453 42.4454C43.8077 42.3747 43.7898 42.2952 43.7935 42.2152C43.7973 42.1353 43.8225 42.0577 43.8666 41.9909L45.162 40.0454C45.2198 39.9585 45.2456 39.8542 45.2351 39.7503C45.2246 39.6464 45.1784 39.5494 45.1044 39.4757L41.0332 35.4045C40.9596 35.3305 40.8625 35.2844 40.7587 35.2739C40.6548 35.2634 40.5505 35.2892 40.4635 35.3469L38.5181 36.6424C38.4512 36.6865 38.3737 36.7117 38.2937 36.7154C38.2137 36.7192 38.1342 36.7013 38.0635 36.6636C37.3732 36.3071 36.6534 36.0111 35.912 35.7788C35.8354 35.7551 35.7665 35.7112 35.7127 35.6518C35.6588 35.5923 35.622 35.5195 35.6059 35.4409L35.1453 33.1439C35.125 33.0412 35.0696 32.9488 34.9886 32.8825C34.9076 32.8162 34.8061 32.78 34.7014 32.7803H28.9438C28.7272 32.7803 28.5423 32.9318 28.4999 33.1439L28.0378 35.4409C28.0218 35.5195 27.9849 35.5923 27.9311 35.6518C27.8772 35.7112 27.8083 35.7551 27.7317 35.7788C26.9847 36.0151 26.265 36.3091 25.5802 36.6636C25.5095 36.7013 25.43 36.7192 25.35 36.7154C25.27 36.7117 25.1925 36.6865 25.1256 36.6424L23.1817 35.3469C23.0946 35.2888 22.99 35.2628 22.8858 35.2733C22.7816 35.2838 22.6843 35.3302 22.6105 35.4045L18.5393 39.4757C18.3878 39.6272 18.3635 39.8666 18.4817 40.0454L19.7772 41.9909C19.8681 42.1272 19.8741 42.3 19.7999 42.4454C19.4429 43.1357 19.1463 43.8555 18.9135 44.5969C18.89 44.6734 18.8463 44.7421 18.7872 44.7959C18.728 44.8498 18.6555 44.8868 18.5772 44.903L16.2787 45.3636C16.176 45.384 16.0836 45.4394 16.0173 45.5204C15.9509 45.6014 15.9148 45.7029 15.915 45.8075V51.5651C15.915 51.7818 16.0681 51.9666 16.2787 52.0091L18.5772 52.4712C18.7378 52.503 18.865 52.6212 18.9135 52.7772C19.1499 53.5242 19.4438 54.2439 19.7999 54.9288C19.8756 55.0742 19.8681 55.2469 19.7772 55.3833L18.4817 57.3272C18.4236 57.4144 18.3975 57.519 18.408 57.6232C18.4185 57.7274 18.4649 57.8247 18.5393 57.8985L22.6105 61.9697C22.762 62.1212 23.0014 62.1454 23.1817 62.0272L25.1256 60.7318C25.1924 60.6875 25.2698 60.662 25.3498 60.658C25.4298 60.654 25.5094 60.6716 25.5802 60.7091C26.265 61.0651 26.9847 61.3606 27.7317 61.5954C27.8878 61.6439 28.0044 61.7712 28.0378 61.9318L28.4999 64.2303C28.5423 64.4409 28.7272 64.5939 28.9423 64.5939H34.6999C34.9166 64.5939 35.1029 64.4409 35.1453 64.2303L35.6059 61.9318C35.6378 61.7712 35.7559 61.6439 35.912 61.5954C36.659 61.3591 37.3787 61.0651 38.0635 60.7091C38.1343 60.6716 38.2139 60.654 38.2939 60.658C38.3739 60.662 38.4513 60.6875 38.5181 60.7318L40.4635 62.0272C40.5505 62.085 40.6548 62.1108 40.7587 62.1003C40.8625 62.0898 40.9596 62.0436 41.0332 61.9697L45.1044 57.8985C45.2559 57.7469 45.2817 57.5075 45.162 57.3272L43.8666 55.3833C43.8225 55.3164 43.7973 55.2389 43.7935 55.1589C43.7898 55.079 43.8077 54.9994 43.8453 54.9288C44.1999 54.2439 44.4938 53.5242 44.7302 52.7772C44.7537 52.7008 44.7974 52.6321 44.8565 52.5782C44.9157 52.5244 44.9882 52.4874 45.0666 52.4712L47.365 52.0091C47.5772 51.9666 47.7272 51.7818 47.7272 51.5666Z" fill="#239FFD"/>
<path d="M31.8225 57.1727C36.5094 57.1727 40.3089 53.3732 40.3089 48.6863C40.3089 43.9994 36.5094 40.2 31.8225 40.2C27.1357 40.2 23.3362 43.9994 23.3362 48.6863C23.3362 53.3732 27.1357 57.1727 31.8225 57.1727Z" fill="white"/>
<path d="M72.1257 38.8272H53.5045C53.0846 38.8272 52.6818 38.6604 52.3849 38.3634C52.088 38.0665 51.9212 37.6638 51.9212 37.2438V36.9908C51.9212 36.1166 52.6303 35.4075 53.506 35.4075H72.1257C72.9999 35.4075 73.709 36.1166 73.709 36.9908V37.2438C73.709 38.1181 72.9999 38.8272 72.1257 38.8272ZM72.1257 45.4863H53.5045C53.0846 45.4863 52.6818 45.3194 52.3849 45.0225C52.088 44.7256 51.9212 44.3229 51.9212 43.9029V43.6514C51.9212 42.7757 52.6303 42.0666 53.506 42.0666H72.1257C72.9999 42.0666 73.709 42.7757 73.709 43.6514V43.9029C73.709 44.7787 72.9999 45.4863 72.1257 45.4863ZM44.9348 74.312H18.8863C18.6783 74.312 18.4722 74.271 18.28 74.1913C18.0878 74.1117 17.9132 73.9949 17.7662 73.8477C17.6191 73.7006 17.5025 73.5258 17.4231 73.3336C17.3436 73.1413 17.3028 72.9352 17.303 72.7272V72.4741C17.303 71.5999 18.0121 70.8908 18.8863 70.8908H44.9348C45.8106 70.8908 46.5196 71.5999 46.5196 72.4741V72.7272C46.5196 73.6014 45.8106 74.3105 44.9348 74.3105V74.312ZM72.1257 52.1469H53.5045C53.0846 52.1469 52.6818 51.9801 52.3849 51.6831C52.088 51.3862 51.9212 50.9835 51.9212 50.5635V50.3105C51.9212 49.4363 52.6303 48.7272 53.506 48.7272H72.1257C72.9999 48.7272 73.709 49.4363 73.709 50.3105V50.5635C73.709 51.4378 72.9999 52.1469 72.1257 52.1469Z" fill="#E1D9E1"/>
<path d="M78.2423 69.0607V76.1031C78.2423 77.3006 77.7666 78.449 76.9199 79.2958C76.0731 80.1425 74.9247 80.6182 73.7272 80.6182H66.9196L62.0711 77.7001C61.843 77.5695 61.584 77.5025 61.3211 77.5061C61.0302 77.5061 60.7105 77.5758 60.3908 77.7137C58.4239 78.6281 56.2811 79.1022 54.112 79.1031C52.4293 79.1064 50.7593 78.8104 49.1802 78.2289C43.4151 76.241 39.359 71.047 38.9287 65.0167C38.8891 64.5307 38.9501 64.0418 39.1078 63.5804C39.2655 63.119 39.5166 62.695 39.8454 62.3349C40.17 61.9848 40.5633 61.7055 41.0007 61.5144C41.4382 61.3233 41.9104 61.2246 42.3878 61.2243C43.012 61.2243 43.6378 61.4061 44.1787 61.7243L50.4302 65.4895L54.1393 63.7531L53.9166 59.641L47.6802 55.891C47.1129 55.5451 46.6553 55.0456 46.3603 54.4503C46.0653 53.8549 45.9451 53.1882 46.0136 52.5273C46.0741 51.9181 46.302 51.3374 46.6721 50.8496C47.0422 50.3619 47.54 49.986 48.1105 49.7637C50.0271 48.9351 52.0937 48.5097 54.1817 48.5137C56.9454 48.5137 59.6545 49.2637 62.0302 50.6955C64.1443 51.9683 65.9217 53.7305 67.2127 55.8335C68.5036 57.9366 69.2704 60.3191 69.4484 62.7804C69.462 63.2107 69.5727 63.8364 70.1848 64.2122L78.2423 69.0607Z" fill="#103635" fill-opacity="0.0627451"/>
<path d="M59.2755 75.1698C60.6619 74.5607 62.2179 74.5471 63.5089 75.3228L86.8786 89.4016C88.0359 90.0988 89.4227 90.3077 90.7341 89.9824C92.0454 89.657 93.1738 88.8241 93.871 87.6668C94.5682 86.5094 94.7771 85.1226 94.4517 83.8112C94.1264 82.4999 93.2934 81.3715 92.1361 80.6743L68.7573 66.591C67.4649 65.8137 66.7331 64.4592 66.6725 62.9804C66.5282 60.963 65.9012 59.0098 64.8444 57.2854C63.7876 55.5609 62.3318 54.1157 60.5998 53.0713C58.8888 52.0427 56.9559 51.4396 54.9635 51.3128C52.9711 51.186 50.9774 51.5391 49.1498 52.3425C48.6649 52.5077 48.6483 53.2365 49.1119 53.5152L56.2937 57.8334C56.3933 57.8881 56.4768 57.9679 56.5358 58.065C56.5949 58.162 56.6274 58.2729 56.6301 58.3865L56.9816 64.9986C56.9994 65.1394 56.9693 65.2822 56.8962 65.4039C56.8231 65.5256 56.7113 65.6193 56.5786 65.6698L50.5573 68.488C50.3604 68.5819 50.1604 68.5652 49.927 68.4258L42.7452 64.1077C42.2543 63.8137 41.6437 64.1834 41.6892 64.8107C42.0316 69.4471 45.068 73.8758 50.1392 75.6228C53.1361 76.7213 56.4407 76.491 59.2755 75.1698Z" fill="#014140"/>
<path d="M89.6892 87.6289C91.0615 87.6289 92.174 86.5164 92.174 85.144C92.174 83.7717 91.0615 82.6592 89.6892 82.6592C88.3168 82.6592 87.2043 83.7717 87.2043 85.144C87.2043 86.5164 88.3168 87.6289 89.6892 87.6289Z" fill="white"/>
</svg>
