<svg width="499" height="320" viewBox="0 0 499 320" fill="none" xmlns="http://www.w3.org/2000/svg">
<path d="M316.4 130.264C313.905 114.293 300.059 102.035 283.398 102.035C277.131 102.035 271.108 103.769 265.884 107.004C257.937 93.6473 243.629 85.3359 227.734 85.3359C203.18 85.3359 183.203 105.313 183.203 129.867C183.203 130.019 183.203 130.177 183.209 130.329C167.428 132.987 155 146.746 155 163.266C155 181.683 170.353 196.664 188.77 196.664H311.23C329.647 196.664 345 181.683 345 163.266C345 146.605 332.371 132.759 316.4 130.264Z" fill="#4F45E2"/>
<path fill-rule="evenodd" clip-rule="evenodd" d="M235.647 158.898L240.178 165.728H231.525L235.647 158.898Z" fill="white"/>
<path fill-rule="evenodd" clip-rule="evenodd" d="M270.217 142.102L277 132.499H268.835C269.037 132.818 269.232 133.142 269.421 133.469C269.185 133.141 268.942 132.817 268.692 132.499H242.463L246.816 142.102H250.698V150.661L262.072 175.746H262.272V142.102H270.217Z" fill="url(#paint0_linear_32_5408)"/>
<path fill-rule="evenodd" clip-rule="evenodd" d="M217.798 159.572L225.191 169.722L235.717 145.09L235.771 145.217L235.851 145.028L241.833 159.294L241.879 159.401L249.027 176H261.123L241.399 132.499H230.372L217.798 159.572Z" fill="white"/>
<path fill-rule="evenodd" clip-rule="evenodd" d="M223.958 128.698L224.244 124.92C217.971 129.933 214 137.36 214 145.648C214 151.244 215.811 156.448 218.918 160.781C216.711 156.946 215.459 152.565 215.459 147.913C215.459 140.423 218.703 133.636 223.958 128.698Z" fill="white"/>
<path fill-rule="evenodd" clip-rule="evenodd" d="M224.943 124.959L224.787 128.532C230.124 123.517 235.915 121.264 244.899 121.264C253.884 121.264 263.338 125.689 268.692 132.499C268.943 132.817 269.185 133.141 269.421 133.469C269.233 133.142 269.037 132.818 268.835 132.499C260.148 118.781 238.402 114.202 224.943 124.959Z" fill="black"/>
<path fill-rule="evenodd" clip-rule="evenodd" d="M224.943 124.959L224.787 128.532C230.124 123.517 235.915 121.264 244.899 121.264C253.884 121.264 263.338 125.689 268.692 132.499C268.943 132.817 269.185 133.141 269.421 133.469C269.233 133.142 269.037 132.818 268.835 132.499C260.148 118.781 238.402 114.202 224.943 124.959Z" fill="url(#paint1_linear_32_5408)"/>
<circle cx="250" cy="160" r="130" stroke="#4F45E2" stroke-width="2" stroke-dasharray="2 2"/>
<path d="M172.612 205.322C171.133 202.775 167.869 201.909 165.322 203.388C162.775 204.867 161.909 208.131 163.388 210.678C164.867 213.225 168.131 214.091 170.678 212.612C173.225 211.133 174.091 207.869 172.612 205.322ZM167.498 207.135L165.709 208.174L166.714 209.903L168.502 208.865L167.498 207.135ZM162.132 210.251L158.556 212.327L159.56 214.057L163.137 211.98L162.132 210.251ZM154.979 214.404L151.402 216.481L152.406 218.211L155.983 216.134L154.979 214.404ZM147.825 218.558L144.248 220.635L145.252 222.365L148.829 220.288L147.825 218.558ZM140.671 222.712L137.094 224.789L138.098 226.518L141.675 224.442L140.671 222.712ZM133.517 226.866L129.94 228.943L130.944 230.672L134.521 228.595L133.517 226.866ZM126.363 231.02L122.786 233.097L123.791 234.826L127.368 232.749L126.363 231.02ZM119.209 235.173L115.632 237.25L116.637 238.98L120.214 236.903L119.209 235.173ZM112.056 239.327L108.479 241.404L109.483 243.134L113.06 241.057L112.056 239.327ZM104.902 243.481L101.325 245.558L102.329 247.288L105.906 245.211L104.902 243.481ZM97.7479 247.635L94.171 249.712L95.1752 251.441L98.7521 249.364L97.7479 247.635ZM90.594 251.789L87.0171 253.866L88.0214 255.595L91.5983 253.518L90.594 251.789ZM83.4402 255.942L79.8633 258.019L80.8675 259.749L84.4445 257.672L83.4402 255.942ZM76.2863 260.096L74.4979 261.135L75.5021 262.864L77.2906 261.826L76.2863 260.096Z" fill="#4F45E2"/>
<path d="M325.349 205.39C323.907 207.959 324.821 211.21 327.39 212.651C329.959 214.093 333.21 213.179 334.651 210.61C336.093 208.041 335.179 204.79 332.61 203.349C330.041 201.907 326.79 202.821 325.349 205.39ZM329.511 208.872L331.223 209.833L332.202 208.089L330.489 207.128L329.511 208.872ZM334.648 211.755L338.073 213.676L339.051 211.932L335.627 210.01L334.648 211.755ZM341.497 215.598L344.922 217.52L345.901 215.776L342.476 213.854L341.497 215.598ZM348.347 219.442L351.772 221.363L352.751 219.619L349.326 217.697L348.347 219.442ZM355.197 223.285L358.621 225.207L359.6 223.463L356.175 221.541L355.197 223.285ZM362.046 227.128L365.471 229.05L366.45 227.306L363.025 225.384L362.046 227.128ZM368.896 230.972L372.321 232.894L373.299 231.149L369.875 229.228L368.896 230.972ZM375.746 234.815L379.17 236.737L380.149 234.993L376.724 233.071L375.746 234.815ZM382.595 238.659L386.02 240.58L386.999 238.836L383.574 236.915L382.595 238.659ZM389.445 242.502L392.87 244.424L393.848 242.68L390.423 240.758L389.445 242.502ZM396.294 246.346L399.719 248.267L400.698 246.523L397.273 244.601L396.294 246.346ZM403.144 250.189L406.569 252.111L407.547 250.367L404.123 248.445L403.144 250.189ZM409.994 254.032L413.418 255.954L414.397 254.21L410.972 252.288L409.994 254.032ZM416.843 257.876L420.268 259.798L421.247 258.053L417.822 256.132L416.843 257.876ZM423.693 261.719L425.405 262.68L426.384 260.936L424.671 259.975L423.693 261.719Z" fill="#4F45E2"/>
<circle cx="38" cy="277" r="38" fill="#F4F9FF"/>
<g clip-path="url(#clip0_32_5408)">
<path d="M35.9219 272.25H19.5938C19.2375 272.25 19 271.953 19 271.656V267.856C19 266.194 20.3656 264.769 22.0875 264.769H37.9406C38.2969 264.769 38.5344 265.066 38.5344 265.363C38.5344 265.659 38.2375 265.956 37.9406 265.956H22.0281C21.0187 265.956 20.1875 266.788 20.1875 267.797V271.003H35.9219C36.2781 271.003 36.5156 271.3 36.5156 271.597C36.5156 271.894 36.2781 272.25 35.9219 272.25Z" fill="#4F45E2"/>
<path d="M22.0281 294.219C21.1969 294.219 20.425 293.922 19.8906 293.328C19.2969 292.734 19 291.962 19 291.131V271.597C19 271.241 19.2969 271.003 19.5938 271.003H35.9219C36.2781 271.003 36.5156 271.3 36.5156 271.597C36.5156 271.894 36.2188 272.191 35.9219 272.191H20.1875V291.072C20.1875 291.547 20.3656 292.022 20.7219 292.378C21.0781 292.734 21.5531 292.912 22.0281 292.912H49.875C50.8844 292.912 51.7156 292.081 51.7156 291.072V279.197C51.7156 278.841 52.0125 278.603 52.3094 278.603C52.6063 278.603 52.9031 278.9 52.9031 279.197V291.072C52.9031 292.734 51.5375 294.159 49.8156 294.159H22.0281V294.219ZM24.3438 269.103H23.0375C22.6813 269.103 22.4438 268.806 22.4438 268.509C22.4438 268.212 22.7406 267.916 23.0375 267.916H24.3438C24.7 267.916 24.9375 268.212 24.9375 268.509C24.9375 268.806 24.7 269.103 24.3438 269.103ZM27.2531 269.103H25.9469C25.5906 269.103 25.3531 268.806 25.3531 268.509C25.3531 268.212 25.65 267.916 25.9469 267.916H27.2531C27.6094 267.916 27.8469 268.212 27.8469 268.509C27.8469 268.806 27.6094 269.103 27.2531 269.103ZM30.1625 269.103H28.8562C28.5 269.103 28.2625 268.806 28.2625 268.509C28.2625 268.212 28.5594 267.916 28.8562 267.916H30.1625C30.5187 267.916 30.7562 268.212 30.7562 268.509C30.7562 268.806 30.5187 269.103 30.1625 269.103Z" fill="#4F45E2"/>
<path d="M33.6063 282.997H24.9375C23.9282 282.997 23.0969 282.166 23.0969 281.156V275.991C23.0969 274.981 23.9282 274.15 24.9375 274.15H33.6063C34.6157 274.15 35.4469 274.981 35.4469 275.991V281.156C35.4469 282.166 34.6157 282.997 33.6063 282.997ZM33.6063 275.338H24.9375C24.5813 275.338 24.3438 275.634 24.3438 275.931V281.156C24.3438 281.513 24.6407 281.75 24.9375 281.75H33.6063C33.9625 281.75 34.2 281.453 34.2 281.156V275.991C34.2 275.634 33.9032 275.338 33.6063 275.338ZM39.8407 279.316H39.1875C38.8313 279.316 38.5938 279.019 38.5938 278.722C38.5938 278.425 38.8907 278.128 39.1875 278.128H39.8407C40.1969 278.128 40.4344 278.425 40.4344 278.722C40.4344 279.019 40.1375 279.316 39.8407 279.316ZM48.5688 283.234H39.1875C38.8313 283.234 38.5938 282.938 38.5938 282.641C38.5938 282.344 38.8907 282.047 39.1875 282.047H48.5688C48.925 282.047 49.1625 282.344 49.1625 282.641C49.1625 282.938 48.8657 283.234 48.5688 283.234ZM48.5688 287.153H23.3938C23.0375 287.153 22.8 286.856 22.8 286.559C22.8 286.262 23.0969 285.966 23.3938 285.966H48.5688C48.925 285.966 49.1625 286.262 49.1625 286.559C49.1625 286.856 48.8657 287.153 48.5688 287.153ZM48.5688 291.072H23.3938C23.0375 291.072 22.8 290.775 22.8 290.478C22.8 290.181 23.0969 289.884 23.3938 289.884H48.5688C48.925 289.884 49.1625 290.181 49.1625 290.478C49.1625 290.775 48.8657 291.072 48.5688 291.072ZM47.7375 279.553H46.7875C46.0157 279.553 45.3625 278.959 45.2438 278.247L45.0063 276.763C45.0063 276.644 44.8875 276.584 44.8282 276.525C44.5907 276.466 44.4125 276.347 44.175 276.288C44.0563 276.228 43.9969 276.228 43.8782 276.288L42.6907 277.178C42.0969 277.594 41.2063 277.534 40.6719 277L39.9594 276.288C39.425 275.753 39.3657 274.922 39.7813 274.269L40.6719 273.081C40.7313 272.962 40.7313 272.844 40.6719 272.784C40.5532 272.606 40.4938 272.369 40.375 272.131C40.3157 272.012 40.2563 271.953 40.1375 271.953L38.7125 271.716C37.9407 271.597 37.4063 270.944 37.4063 270.172V269.162C37.4063 268.391 37.9407 267.738 38.7125 267.619L40.1375 267.381C40.2563 267.381 40.3157 267.262 40.375 267.203C40.4344 266.966 40.5532 266.787 40.6719 266.55C40.7313 266.431 40.7313 266.312 40.6719 266.253L39.7813 265.066C39.3063 264.472 39.425 263.641 39.9 263.047L40.6126 262.334C41.1469 261.8 42.0375 261.741 42.6313 262.216L43.7594 263.106C43.8782 263.225 43.9969 263.166 44.0563 263.106C44.2938 262.988 44.4719 262.928 44.7094 262.809C44.8282 262.75 44.8875 262.691 44.9469 262.572L45.1844 261.087C45.3625 260.375 46.0157 259.781 46.7875 259.781H47.7375C48.5094 259.781 49.1625 260.375 49.2813 261.087L49.5188 262.572C49.5188 262.691 49.6375 262.75 49.6969 262.809C49.9344 262.869 50.1125 262.987 50.35 263.047C50.4688 263.106 50.5282 263.106 50.6469 263.047L51.8344 262.156C52.4282 261.681 53.3188 261.8 53.8532 262.334L54.5657 263.047C55.1 263.581 55.1594 264.412 54.7438 265.066L53.8532 266.253C53.7938 266.372 53.7938 266.491 53.8532 266.55C53.9719 266.728 54.0313 266.966 54.15 267.203C54.2094 267.322 54.2688 267.381 54.3875 267.381L55.8125 267.619C56.5844 267.738 57.1188 268.391 57.1188 269.162V270.172C57.1188 270.944 56.5844 271.597 55.8125 271.716L54.3875 271.953C54.2688 271.953 54.2094 272.072 54.15 272.131C54.0907 272.369 53.9719 272.547 53.9125 272.784C53.8532 272.903 53.8532 273.022 53.9125 273.141L54.8032 274.328C55.2188 274.922 55.1594 275.753 54.6844 276.347L53.7938 277C53.2594 277.534 52.3688 277.594 51.775 277.119L50.6469 276.228C50.5282 276.109 50.4094 276.169 50.35 276.228C50.1125 276.347 49.9344 276.406 49.6969 276.525C49.5782 276.584 49.5188 276.644 49.5188 276.763L49.2813 278.247C49.1625 278.959 48.5094 279.553 47.7375 279.553ZM43.9969 274.981C44.2344 274.981 44.4719 275.041 44.65 275.159C44.8282 275.219 45.0063 275.337 45.1844 275.397C45.7188 275.575 46.075 276.05 46.1938 276.584L46.4313 278.069C46.4313 278.247 46.6094 278.366 46.7282 278.366H47.6782C47.8563 278.366 47.975 278.247 47.975 278.128L48.2125 276.644C48.2719 276.109 48.6875 275.634 49.2219 275.456C49.4 275.397 49.5782 275.337 49.7563 275.219C50.2313 274.981 50.8844 275.041 51.3594 275.397L52.5469 276.288C52.725 276.406 52.8438 276.347 52.9625 276.228L53.675 275.516C53.7938 275.397 53.7938 275.219 53.675 275.1L52.7844 273.912C52.4282 273.438 52.3688 272.844 52.6063 272.369C52.6657 272.191 52.7844 272.012 52.8438 271.834C53.0219 271.3 53.4969 270.884 54.0313 270.825L55.4563 270.588C55.6344 270.588 55.6938 270.409 55.6938 270.291V269.281C55.6938 269.103 55.5751 268.984 55.4563 268.984L54.0313 268.747C53.4969 268.688 53.0219 268.272 52.8438 267.737C52.7844 267.559 52.725 267.381 52.6063 267.203C52.3688 266.669 52.4282 266.075 52.725 265.6L53.6157 264.412C53.7344 264.294 53.675 264.116 53.6157 263.997L52.9032 263.284C52.8438 263.225 52.725 263.166 52.6657 263.166C52.6063 263.166 52.5469 263.166 52.4875 263.225L51.3594 264.116C50.9438 264.472 50.2907 264.531 49.7563 264.294C49.5782 264.234 49.4 264.116 49.2219 264.056C48.6875 263.878 48.3313 263.403 48.2125 262.869L47.975 261.384C47.975 261.206 47.7969 261.087 47.6782 261.087H46.7282C46.55 261.087 46.4313 261.206 46.4313 261.325L46.2532 262.75C46.1938 263.284 45.7782 263.759 45.2438 263.938C45.0657 263.997 44.8875 264.056 44.7094 264.175C44.2344 264.412 43.5813 264.353 43.1063 263.997L41.9188 263.106C41.7407 262.928 41.6219 263.047 41.5032 263.166L40.7907 263.878C40.6719 263.997 40.6719 264.175 40.7907 264.294L41.6813 265.481C41.9782 265.956 42.0375 266.55 41.8 267.025C41.7407 267.203 41.6219 267.381 41.5625 267.559C41.3844 268.094 40.9094 268.509 40.375 268.569L38.95 268.806C38.7719 268.806 38.7125 268.984 38.7125 269.103V270.113C38.7125 270.291 38.8313 270.409 38.95 270.409L40.375 270.647C40.9094 270.706 41.3844 271.122 41.5625 271.656C41.6219 271.834 41.6813 272.012 41.8 272.191C42.0375 272.725 41.9782 273.319 41.6219 273.794L40.7313 274.981C40.6125 275.1 40.6719 275.278 40.7313 275.397L41.4438 276.109C41.5625 276.228 41.6813 276.288 41.8594 276.169L43.0469 275.278C43.3438 275.1 43.7 274.981 43.9969 274.981Z" fill="#4F45E2"/>
<path d="M47.2625 273.616C46.7401 273.616 46.2228 273.513 45.7402 273.313C45.2575 273.113 44.819 272.82 44.4496 272.451C44.0802 272.081 43.7872 271.643 43.5872 271.16C43.3873 270.677 43.2844 270.16 43.2844 269.638C43.2844 269.115 43.3873 268.598 43.5872 268.115C43.7872 267.633 44.0802 267.194 44.4496 266.825C44.819 266.455 45.2575 266.162 45.7402 265.962C46.2228 265.762 46.7401 265.659 47.2625 265.659C48.3176 265.659 49.3295 266.079 50.0755 266.825C50.8216 267.571 51.2407 268.582 51.2407 269.638C51.2407 270.693 50.8216 271.704 50.0755 272.451C49.3295 273.197 48.3176 273.616 47.2625 273.616ZM47.2625 266.906C45.7188 266.906 44.5313 268.153 44.5313 269.638C44.5313 271.181 45.7782 272.369 47.2625 272.369C48.7469 272.369 49.9938 271.122 49.9938 269.638C49.9938 268.153 48.7469 266.906 47.2625 266.906Z" fill="#4F45E2"/>
</g>
<circle cx="38" cy="38" r="38" transform="matrix(1 0 0 -1 423 320)" fill="#F4F9FF"/>
<g clip-path="url(#clip1_32_5408)">
<path d="M479.256 298.031H465.972C465.562 298.031 465.23 298.364 465.23 298.774C465.23 299.183 465.562 299.516 465.972 299.516H479.256C479.666 299.516 479.998 299.183 479.998 298.774C479.998 298.364 479.666 298.031 479.256 298.031ZM455.953 298.031H442.744C442.334 298.031 442.001 298.364 442.001 298.774C442.001 299.183 442.334 299.516 442.744 299.516H455.953C456.363 299.516 456.696 299.183 456.696 298.774C456.696 298.364 456.363 298.031 455.953 298.031ZM461.293 278.182H455.542C455.132 278.182 454.8 278.514 454.8 278.924C454.8 279.334 455.132 279.666 455.542 279.666H461.293C461.703 279.666 462.035 279.334 462.035 278.924C462.035 278.514 461.703 278.182 461.293 278.182ZM467.07 278.399C466.93 278.26 466.742 278.182 466.545 278.182C466.349 278.182 466.158 278.261 466.021 278.399C465.882 278.538 465.803 278.727 465.803 278.924C465.803 279.119 465.882 279.31 466.021 279.448C466.159 279.586 466.349 279.666 466.545 279.666C466.74 279.666 466.932 279.586 467.07 279.448C467.208 279.31 467.287 279.119 467.287 278.924C467.287 278.729 467.208 278.537 467.07 278.399ZM464.478 278.399C464.338 278.26 464.149 278.182 463.952 278.182C463.757 278.182 463.565 278.261 463.427 278.399C463.289 278.539 463.211 278.727 463.21 278.924C463.21 279.12 463.289 279.31 463.427 279.448C463.566 279.586 463.757 279.666 463.952 279.666C464.147 279.666 464.339 279.586 464.478 279.448C464.616 279.31 464.694 279.119 464.694 278.924C464.694 278.729 464.616 278.537 464.478 278.399ZM461.293 284.119H455.542C455.132 284.119 454.8 284.451 454.8 284.861C454.8 285.271 455.132 285.603 455.542 285.603H461.293C461.703 285.603 462.035 285.271 462.035 284.861C462.035 284.451 461.703 284.119 461.293 284.119ZM467.07 284.336C466.93 284.197 466.742 284.119 466.545 284.119C466.349 284.119 466.158 284.198 466.021 284.336C465.882 284.475 465.803 284.664 465.803 284.861C465.803 285.057 465.882 285.247 466.021 285.385C466.159 285.524 466.349 285.603 466.545 285.603C466.74 285.603 466.932 285.524 467.07 285.385C467.208 285.247 467.287 285.056 467.287 284.861C467.287 284.666 467.208 284.474 467.07 284.336ZM464.478 284.336C464.338 284.197 464.149 284.119 463.952 284.119C463.757 284.119 463.565 284.198 463.427 284.336C463.289 284.474 463.21 284.666 463.21 284.861C463.21 285.056 463.289 285.247 463.427 285.385C463.566 285.524 463.757 285.603 463.952 285.603C464.148 285.603 464.339 285.524 464.478 285.385C464.616 285.247 464.694 285.056 464.694 284.861C464.694 284.666 464.616 284.474 464.478 284.336ZM461.293 290.056H455.542C455.132 290.056 454.8 290.388 454.8 290.798C454.8 291.208 455.132 291.54 455.542 291.54H461.293C461.703 291.54 462.035 291.208 462.035 290.798C462.035 290.388 461.703 290.056 461.293 290.056ZM467.07 290.273C466.93 290.135 466.742 290.057 466.545 290.056C466.349 290.056 466.158 290.135 466.02 290.273C465.882 290.411 465.803 290.603 465.803 290.798C465.803 290.993 465.882 291.185 466.02 291.323C466.159 291.461 466.349 291.54 466.545 291.54C466.74 291.54 466.932 291.461 467.07 291.323C467.208 291.184 467.287 290.993 467.287 290.798C467.287 290.603 467.208 290.411 467.07 290.273ZM464.477 290.273C464.337 290.134 464.149 290.056 463.952 290.056C463.757 290.056 463.565 290.135 463.427 290.273C463.289 290.411 463.21 290.603 463.21 290.798C463.21 290.993 463.289 291.185 463.427 291.323C463.566 291.461 463.757 291.54 463.952 291.54C464.148 291.54 464.339 291.461 464.477 291.323C464.616 291.184 464.694 290.993 464.694 290.798C464.694 290.603 464.616 290.411 464.477 290.273Z" fill="#4F45E2"/>
<path d="M470.657 284.967C470.657 283.754 470.073 282.676 469.17 281.999C470.073 281.321 470.657 280.243 470.657 279.03C470.657 276.984 468.993 275.319 466.947 275.319H455.072C453.026 275.319 451.362 276.984 451.362 279.03C451.362 280.243 451.946 281.321 452.849 281.999C451.947 282.676 451.362 283.754 451.362 284.967C451.362 286.18 451.946 287.258 452.849 287.936C451.947 288.613 451.362 289.692 451.362 290.904C451.362 292.95 453.026 294.615 455.072 294.615H460.258V296.675C459.394 296.981 458.774 297.806 458.774 298.774C458.774 300.001 459.772 301 461 301C462.228 301 463.226 300.001 463.226 298.774C463.226 297.806 462.606 296.981 461.742 296.675V294.615H466.947C468.993 294.615 470.657 292.95 470.657 290.904C470.657 289.692 470.073 288.613 469.17 287.936C470.073 287.258 470.657 286.18 470.657 284.967ZM452.846 279.03C452.846 277.802 453.845 276.804 455.072 276.804H466.946C468.174 276.804 469.173 277.802 469.173 279.03C469.173 280.258 468.174 281.256 466.946 281.256H455.072C453.845 281.256 452.846 280.258 452.846 279.03ZM461 299.516C460.591 299.516 460.258 299.183 460.258 298.774C460.258 298.364 460.591 298.032 461 298.032C461.409 298.032 461.742 298.364 461.742 298.774C461.742 299.183 461.409 299.516 461 299.516ZM469.173 290.904C469.173 292.132 468.174 293.13 466.946 293.13H455.072C453.845 293.13 452.846 292.132 452.846 290.904C452.846 289.676 453.845 288.678 455.072 288.678H466.946C468.174 288.678 469.173 289.677 469.173 290.904ZM466.946 287.193H455.072C453.845 287.193 452.846 286.195 452.846 284.967C452.846 283.739 453.845 282.741 455.072 282.741H466.946C468.174 282.741 469.173 283.739 469.173 284.967C469.173 286.195 468.174 287.193 466.946 287.193Z" fill="#4F45E2"/>
<path d="M478.405 274.492C477.452 273.108 476.151 272.027 474.627 271.349C472.759 266.341 467.966 263 462.596 263C459.471 263 456.459 264.136 454.116 266.199C451.974 268.085 450.526 270.619 449.99 273.396C449.875 273.391 449.76 273.388 449.645 273.388C445.431 273.388 442.001 276.817 442.001 281.032C442.001 282.867 442.661 284.64 443.858 286.027C445.043 287.399 446.677 288.307 448.46 288.585C448.498 288.591 448.537 288.594 448.575 288.594C448.934 288.594 449.25 288.332 449.307 287.966C449.37 287.561 449.093 287.181 448.688 287.118C445.674 286.648 443.486 284.089 443.486 281.032C443.486 277.636 446.249 274.873 449.645 274.873C449.931 274.873 450.221 274.893 450.507 274.933C450.604 274.947 450.703 274.941 450.797 274.916C450.892 274.892 450.981 274.849 451.058 274.79C451.136 274.731 451.202 274.657 451.251 274.572C451.3 274.488 451.332 274.395 451.346 274.298C452.104 268.703 456.941 264.484 462.596 264.484C467.445 264.484 471.761 267.564 473.336 272.147C473.371 272.248 473.427 272.34 473.5 272.417C473.574 272.494 473.663 272.555 473.762 272.594C476.649 273.753 478.514 276.511 478.514 279.622C478.514 283.203 475.973 286.322 472.471 287.038C472.069 287.12 471.81 287.513 471.893 287.914C471.975 288.316 472.367 288.574 472.768 288.492C476.958 287.635 479.999 283.905 479.999 279.622C479.999 277.779 479.448 276.005 478.405 274.492Z" fill="#4F45E2"/>
</g>
<path d="M172.591 115.715C174.09 113.18 173.25 109.909 170.715 108.409C168.18 106.91 164.909 107.75 163.409 110.285C161.91 112.82 162.75 116.091 165.285 117.591C167.82 119.09 171.091 118.25 172.591 115.715ZM168.509 112.139L166.848 111.157L165.83 112.879L167.491 113.861L168.509 112.139ZM163.527 109.193L160.205 107.229L159.187 108.95L162.509 110.914L163.527 109.193ZM156.884 105.264L153.563 103.3L152.545 105.022L155.866 106.986L156.884 105.264ZM150.241 101.336L146.92 99.3715L145.902 101.093L149.223 103.057L150.241 101.336ZM143.598 97.4072L140.277 95.443L139.259 97.1645L142.58 99.1287L143.598 97.4072ZM136.955 93.4787L133.634 91.5144L132.616 93.2359L135.937 95.2002L136.955 93.4787ZM130.313 89.5502L126.991 87.5859L125.973 89.3074L129.295 91.2717L130.313 89.5502ZM123.67 85.6216L120.348 83.6574L119.33 85.3789L122.652 87.3431L123.67 85.6216ZM117.027 81.6931L113.705 79.7288L112.687 81.4503L116.009 83.4146L117.027 81.6931ZM110.384 77.7646L107.063 75.8003L106.045 77.5218L109.366 79.486L110.384 77.7646ZM103.741 73.836L100.42 71.8717L99.4017 73.5932L102.723 75.5575L103.741 73.836ZM97.0983 69.9075L93.7769 67.9432L92.7588 69.6647L96.0803 71.629L97.0983 69.9075ZM90.4555 65.9789L87.134 64.0147L86.116 65.7362L89.4374 67.7004L90.4555 65.9789ZM83.8126 62.0504L80.4912 60.0861L79.4731 61.8076L82.7945 63.7719L83.8126 62.0504ZM77.1697 58.1219L75.509 57.1397L74.491 58.8612L76.1517 59.8434L77.1697 58.1219Z" fill="#4F45E2"/>
<path d="M322.396 118.691C323.882 121.234 327.149 122.091 329.691 120.604C332.234 119.118 333.091 115.851 331.604 113.309C330.118 110.766 326.851 109.909 324.309 111.396C321.766 112.882 320.909 116.149 322.396 118.691ZM327.505 116.863L329.271 115.831L328.261 114.104L326.495 115.137L327.505 116.863ZM332.803 113.766L336.335 111.702L335.325 109.975L331.793 112.04L332.803 113.766ZM339.866 109.637L343.398 107.573L342.389 105.846L338.857 107.911L339.866 109.637ZM346.93 105.508L350.462 103.444L349.453 101.717L345.921 103.782L346.93 105.508ZM353.994 101.379L357.526 99.3144L356.517 97.5878L352.985 99.6524L353.994 101.379ZM361.058 97.2499L364.59 95.1853L363.581 93.4586L360.049 95.5232L361.058 97.2499ZM368.122 93.1207L371.654 91.0561L370.645 89.3295L367.113 91.3941L368.122 93.1207ZM375.186 88.9916L378.718 86.927L377.709 85.2003L374.177 87.2649L375.186 88.9916ZM382.25 84.8624L385.782 82.7978L384.772 81.0712L381.241 83.1358L382.25 84.8624ZM389.314 80.7333L392.846 78.6687L391.836 76.942L388.304 79.0066L389.314 80.7333ZM396.378 76.6041L399.91 74.5395L398.9 72.8129L395.368 74.8775L396.378 76.6041ZM403.442 72.475L406.973 70.4104L405.964 68.6837L402.432 70.7483L403.442 72.475ZM410.505 68.3458L414.037 66.2812L413.028 64.5546L409.496 66.6192L410.505 68.3458ZM417.569 64.2167L421.101 62.1521L420.092 60.4254L416.56 62.49L417.569 64.2167ZM424.633 60.0875L426.399 59.0552L425.39 57.3286L423.624 58.3609L424.633 60.0875Z" fill="#4F45E2"/>
<circle cx="38" cy="38" r="38" transform="matrix(1 0 0 -1 0 81)" fill="#F4F9FF"/>
<path d="M56.0258 31.2055L55.2892 30.922C55.1733 30.5312 55.0168 30.1537 54.8222 29.7956L55.1427 29.0738C55.1915 28.9641 55.2058 28.8423 55.1839 28.7243C55.162 28.6064 55.1048 28.4978 55.02 28.4129L53.8433 27.2363C53.7585 27.1514 53.6499 27.0943 53.532 27.0724C53.414 27.0504 53.2921 27.0648 53.1825 27.1135L52.4605 27.4341C52.1024 27.2396 51.725 27.0831 51.3343 26.9672L51.0507 26.2305C51.0076 26.1186 50.9316 26.0223 50.8327 25.9543C50.7338 25.8864 50.6166 25.8501 50.4966 25.8501H48.8326C48.7126 25.8501 48.5954 25.8864 48.4965 25.9544C48.3976 26.0223 48.3216 26.1186 48.2785 26.2305L47.9949 26.9672C47.6042 27.0831 47.2267 27.2396 46.8687 27.4341L46.1467 27.1135C46.037 27.0648 45.9152 27.0504 45.7972 27.0724C45.6793 27.0943 45.5707 27.1514 45.4859 27.2363L44.3092 28.4129C44.2243 28.4978 44.1672 28.6063 44.1453 28.7243C44.1233 28.8423 44.1377 28.9641 44.1864 29.0738L44.5069 29.7955C44.3123 30.1537 44.1557 30.5313 44.0398 30.9221L43.3034 31.2056C43.1914 31.2487 43.0951 31.3247 43.0272 31.4236C42.9593 31.5225 42.9229 31.6397 42.9229 31.7597V31.998H25.8767C24.2925 31.998 23.0038 33.2867 23.0038 34.8709V44.8311L22.8175 44.7483C22.7079 44.6996 22.586 44.6853 22.468 44.7072C22.3501 44.7292 22.2415 44.7863 22.1567 44.8712L20.98 46.0478C20.8952 46.1327 20.838 46.2412 20.8161 46.3592C20.7941 46.4772 20.8085 46.599 20.8572 46.7087L21.1777 47.4304C20.9831 47.7886 20.8265 48.1662 20.7107 48.557L19.9742 48.8405C19.8622 48.8835 19.7659 48.9595 19.698 49.0584C19.6301 49.1573 19.5937 49.2745 19.5938 49.3944V51.0585C19.5937 51.1785 19.6301 51.2957 19.698 51.3946C19.7659 51.4935 19.8622 51.5695 19.9742 51.6126L20.7109 51.8962C20.8267 52.2869 20.9832 52.6644 21.1779 53.0224L20.8572 53.7445C20.8085 53.8541 20.7941 53.976 20.8161 54.0939C20.838 54.2119 20.8952 54.3205 20.98 54.4053L22.1567 55.582C22.2415 55.6668 22.3501 55.7239 22.468 55.7459C22.586 55.7678 22.7078 55.7535 22.8175 55.7048L23.5392 55.3843C23.8974 55.5789 24.275 55.7354 24.6659 55.8513L24.9493 56.5878C24.9924 56.6998 25.0684 56.7961 25.1673 56.864C25.2662 56.9319 25.3834 56.9683 25.5034 56.9682H27.1675C27.2875 56.9682 27.4046 56.9319 27.5036 56.864C27.6025 56.7961 27.6785 56.6998 27.7216 56.5878L28.0052 55.8511C28.3959 55.7352 28.7733 55.5787 29.1314 55.3841L29.8534 55.7048C29.963 55.7535 30.0849 55.7679 30.2028 55.746C30.3208 55.7241 30.4294 55.6669 30.5142 55.5821L31.6909 54.4054C31.7757 54.3205 31.8329 54.212 31.8548 54.094C31.8767 53.976 31.8624 53.8542 31.8136 53.7445L31.6709 53.4231H33.1685V55.8567H30.2931C28.894 55.8567 27.7557 56.8196 27.7557 58.0033V59.5562C27.7557 59.7137 27.8182 59.8647 27.9296 59.9761C28.0409 60.0874 28.1919 60.15 28.3494 60.15H48.4926C48.6501 60.15 48.8011 60.0874 48.9124 59.9761C49.0238 59.8647 49.0864 59.7137 49.0864 59.5562V58.0033C49.0864 56.8196 47.9481 55.8567 46.549 55.8567H43.6735V53.4231H50.9653C52.5494 53.4231 53.8381 52.1343 53.8381 50.5502V37.9515C53.8398 37.9499 53.8416 37.9487 53.8432 37.9471L55.0198 36.7704C55.1047 36.6856 55.1618 36.577 55.1838 36.4591C55.2057 36.3411 55.1914 36.2192 55.1427 36.1096L54.8221 35.3879C55.0168 35.0297 55.1733 34.6521 55.2891 34.2612L56.0256 33.9778C56.1376 33.9347 56.2339 33.8587 56.3018 33.7598C56.3697 33.6608 56.406 33.5437 56.406 33.4237V31.7596C56.4061 31.6396 56.3698 31.5225 56.3019 31.4235C56.2341 31.3246 56.1378 31.2486 56.0258 31.2055ZM31.9078 48.3963C31.799 48.0625 31.6601 47.7393 31.493 47.4305L31.8136 46.7086C31.8623 46.5989 31.8766 46.4771 31.8547 46.3591C31.8328 46.2412 31.7757 46.1326 31.6908 46.0478L30.5141 44.8711C30.4293 44.7863 30.3207 44.7292 30.2028 44.7072C30.0848 44.6853 29.963 44.6996 29.8533 44.7483L29.1312 45.069C28.7732 44.8744 28.3957 44.7179 28.005 44.602L27.7214 43.8652C27.6783 43.7532 27.6023 43.657 27.5034 43.589C27.4045 43.5211 27.2873 43.4848 27.1673 43.4848H26.0971V35.0912H44.3574C44.4044 35.1914 44.4543 35.2902 44.5069 35.3875L44.1862 36.1095C44.1375 36.2192 44.1232 36.341 44.1451 36.459C44.167 36.5769 44.2242 36.6855 44.309 36.7703L45.4857 37.947C45.5705 38.0319 45.6791 38.089 45.7971 38.1109C45.915 38.1329 46.0369 38.1185 46.1465 38.0698L46.8682 37.7493C47.2264 37.944 47.604 38.1005 47.9949 38.2164L48.2783 38.9528C48.3214 39.0648 48.3974 39.1611 48.4964 39.229C48.5953 39.2969 48.7125 39.3333 48.8324 39.3333H50.4964C50.5822 39.3331 50.6669 39.3142 50.7447 39.278V48.3963H31.9078ZM25.8767 33.1854H42.9229V33.4236C42.9231 33.5175 42.9456 33.6099 42.9885 33.6934C43.0314 33.7769 43.0936 33.849 43.1698 33.9037H25.8195C25.3179 33.9037 24.9097 34.3119 24.9097 34.8136V43.9682L24.6658 44.602C24.5053 44.6502 24.347 44.7053 24.1913 44.7671V34.8708C24.1913 33.9415 24.9474 33.1854 25.8767 33.1854ZM30.285 53.2284L30.5628 53.8539L29.9628 54.4539L29.337 54.176C29.2488 54.1368 29.1525 54.1197 29.0563 54.1262C28.96 54.1326 28.8668 54.1624 28.7847 54.213C28.3635 54.4726 27.9035 54.6634 27.4222 54.778C27.3284 54.8003 27.2414 54.8451 27.1688 54.9086C27.0962 54.9721 27.0402 55.0523 27.0055 55.1423L26.7598 55.7807H25.9111L25.6654 55.1425C25.6308 55.0525 25.5748 54.9723 25.5022 54.9088C25.4296 54.8454 25.3426 54.8005 25.2488 54.7782C24.7673 54.6637 24.3072 54.4729 23.8859 54.2132C23.8038 54.1627 23.7106 54.1328 23.6143 54.1264C23.5181 54.1199 23.4217 54.137 23.3336 54.1761L22.708 54.4539L22.1079 53.8538L22.3859 53.228C22.425 53.1398 22.4421 53.0435 22.4356 52.9473C22.4292 52.851 22.3993 52.7578 22.3487 52.6757C22.0891 52.2545 21.8984 51.7946 21.7839 51.3132C21.7615 51.2194 21.7167 51.1324 21.6532 51.0598C21.5897 50.9872 21.5095 50.9312 21.4195 50.8965L20.7812 50.6508V49.8021L21.4194 49.5565C21.5094 49.5218 21.5896 49.4658 21.6531 49.3932C21.7166 49.3206 21.7614 49.2336 21.7837 49.1398C21.8982 48.6583 22.0889 48.1982 22.3487 47.7768C22.3992 47.6947 22.429 47.6015 22.4355 47.5053C22.442 47.409 22.4249 47.3127 22.3858 47.2245L22.108 46.5991L22.7081 45.999L23.3339 46.277C23.422 46.3161 23.5183 46.3331 23.6146 46.3267C23.7108 46.3202 23.804 46.2904 23.8861 46.2399C24.3073 45.9803 24.7673 45.7896 25.2487 45.675C25.3425 45.6526 25.4295 45.6078 25.5021 45.5443C25.5747 45.4808 25.6307 45.4006 25.6654 45.3106L25.9111 44.6723H26.7598L27.0055 45.3106C27.0402 45.4006 27.0962 45.4808 27.1688 45.5443C27.2414 45.6078 27.3283 45.6526 27.4221 45.675C27.9035 45.7895 28.3635 45.9802 28.7847 46.2399C28.8668 46.2904 28.96 46.3202 29.0563 46.3267C29.1525 46.3331 29.2488 46.3161 29.337 46.277L29.9628 45.999L30.5628 46.5991L30.285 47.2248C30.2458 47.313 30.2287 47.4093 30.2352 47.5055C30.2416 47.6018 30.2714 47.695 30.322 47.7771C30.5816 48.1984 30.7724 48.6583 30.8869 49.1397C30.9093 49.2335 30.9541 49.3205 31.0176 49.3931C31.0811 49.4657 31.1613 49.5217 31.2513 49.5564L31.8896 49.802V50.6507L31.2514 50.8964C31.1614 50.931 31.0812 50.9871 31.0177 51.0597C30.9543 51.1323 30.9094 51.2192 30.8871 51.3131C30.7726 51.7946 30.5819 52.2547 30.3221 52.6759C30.2715 52.7581 30.2417 52.8513 30.2353 52.9476C30.2288 53.0438 30.2459 53.1402 30.285 53.2284ZM47.8989 58.0032V58.9624H28.9432V58.0032C28.9432 57.4833 29.5613 57.0441 30.2931 57.0441H46.549C47.2807 57.0441 47.8989 57.4833 47.8989 58.0032ZM42.486 55.8566H34.3559V53.423H42.486V55.8566ZM50.9653 52.2355H31.8469C31.8881 52.1236 31.9258 52.0104 31.9601 51.8961L32.6966 51.6127C32.8085 51.5696 32.9048 51.4936 32.9728 51.3947C33.0407 51.2957 33.077 51.1786 33.077 51.0586V49.5839H51.3386C51.4961 49.5839 51.6471 49.5214 51.7584 49.41C51.8698 49.2987 51.9323 49.1476 51.9323 48.9902V38.0021C52.1125 37.9267 52.2888 37.8423 52.4605 37.7492L52.6507 37.8338V50.5502C52.6507 51.4795 51.8946 52.2355 50.9653 52.2355ZM55.2188 33.016L54.5806 33.2617C54.4906 33.2963 54.4104 33.3523 54.3469 33.4249C54.2834 33.4975 54.2386 33.5845 54.2163 33.6783C54.1018 34.1598 53.911 34.6199 53.6512 35.0412C53.6007 35.1233 53.5709 35.2165 53.5644 35.3128C53.558 35.409 53.575 35.5054 53.6141 35.5935L53.8919 36.2191L53.2918 36.8192L52.666 36.5412C52.5778 36.5021 52.4815 36.485 52.3852 36.4915C52.289 36.498 52.1958 36.5278 52.1137 36.5783C51.6925 36.838 51.2326 37.0287 50.7512 37.1432C50.6574 37.1655 50.5704 37.2104 50.4978 37.2739C50.4252 37.3374 50.3692 37.4176 50.3346 37.5076L50.0888 38.1459H49.2401L48.9945 37.5078C48.9598 37.4178 48.9038 37.3376 48.8312 37.2741C48.7586 37.2106 48.6716 37.1658 48.5778 37.1434C48.0963 37.0289 47.6362 36.8382 47.2149 36.5785C47.1328 36.528 47.0396 36.4982 46.9433 36.4917C46.8471 36.4852 46.7508 36.5023 46.6626 36.5414L46.0371 36.8192L45.4371 36.2191L45.715 35.5933C45.7542 35.5052 45.7712 35.4088 45.7648 35.3126C45.7583 35.2164 45.7285 35.1232 45.678 35.041C45.4184 34.6198 45.2276 34.1598 45.1131 33.6785C45.0907 33.5847 45.0459 33.4977 44.9824 33.4251C44.9189 33.3525 44.8387 33.2965 44.7487 33.2619L44.1104 33.0161V32.1674L44.7484 31.9218C44.8384 31.8872 44.9186 31.8311 44.9821 31.7585C45.0456 31.686 45.0904 31.599 45.1128 31.5052C45.2273 31.0237 45.4181 30.5636 45.6778 30.1422C45.7283 30.0601 45.7581 29.9669 45.7646 29.8707C45.7711 29.7744 45.754 29.6781 45.7149 29.5899L45.4371 28.9644L46.0372 28.3643L46.663 28.6423C46.7512 28.6814 46.8475 28.6985 46.9438 28.6921C47.04 28.6856 47.1332 28.6558 47.2154 28.6052C47.6365 28.3456 48.0965 28.1549 48.5778 28.0404C48.6716 28.018 48.7586 27.9732 48.8312 27.9097C48.9038 27.8462 48.9598 27.766 48.9945 27.676L49.2402 27.0377H50.0889L50.3346 27.676C50.3693 27.766 50.4253 27.8462 50.4979 27.9097C50.5705 27.9732 50.6575 28.018 50.7513 28.0404C51.2327 28.1549 51.6926 28.3456 52.1138 28.6052C52.1959 28.6558 52.2892 28.6856 52.3854 28.6921C52.4816 28.6985 52.578 28.6814 52.6661 28.6423L53.2919 28.3643L53.892 28.9645L53.6141 29.5901C53.575 29.6783 53.5579 29.7746 53.5644 29.8709C53.5708 29.9671 53.6006 30.0603 53.6512 30.1425C53.9108 30.5637 54.1015 31.0237 54.2161 31.505C54.2384 31.5989 54.2833 31.6858 54.3468 31.7584C54.4102 31.831 54.4905 31.8871 54.5805 31.9217L55.2188 32.1674V33.016ZM49.6646 28.8422C47.5972 28.8422 45.9151 30.5242 45.9151 32.5917C45.9151 34.6592 47.5972 36.3411 49.6646 36.3411C51.732 36.3411 53.4141 34.6591 53.4141 32.5917C53.4141 30.5242 51.732 28.8422 49.6646 28.8422ZM49.6646 35.1536C48.2519 35.1536 47.1026 34.0044 47.1026 32.5917C47.1026 31.179 48.2519 30.0297 49.6646 30.0297C51.0773 30.0297 52.2266 31.1789 52.2266 32.5917C52.2265 34.0043 51.0773 35.1536 49.6646 35.1536ZM26.3354 46.477C24.268 46.477 22.586 48.1591 22.586 50.2266C22.586 52.2941 24.268 53.976 26.3354 53.976C28.4028 53.976 30.0849 52.294 30.0849 50.2266C30.0849 48.1591 28.4028 46.477 26.3354 46.477ZM26.3354 52.7885C24.9227 52.7885 23.7735 51.6392 23.7735 50.2265C23.7735 48.8138 24.9227 47.6645 26.3354 47.6645C27.7481 47.6645 28.8974 48.8137 28.8974 50.2265C28.8974 51.6392 27.7481 52.7885 26.3354 52.7885ZM39.9738 38.2429L38.0153 45.552C37.9815 45.6782 37.907 45.7897 37.8034 45.8693C37.6997 45.9489 37.5728 45.9921 37.4421 45.9922C37.351 45.9923 37.2611 45.9714 37.1793 45.9311C37.0976 45.8909 37.0262 45.8323 36.9708 45.7601C36.9153 45.6878 36.8772 45.6037 36.8594 45.5143C36.8416 45.425 36.8446 45.3327 36.8682 45.2447L38.8267 37.9357C38.8467 37.8601 38.8813 37.7892 38.9287 37.7271C38.9761 37.6649 39.0354 37.6128 39.103 37.5736C39.1706 37.5344 39.2453 37.5089 39.3227 37.4986C39.4002 37.4883 39.4789 37.4935 39.5544 37.5137C39.6299 37.5339 39.7007 37.5688 39.7627 37.6165C39.8246 37.6641 39.8766 37.7235 39.9155 37.7912C39.9545 37.859 39.9797 37.9338 39.9897 38.0113C39.9997 38.0888 39.9943 38.1675 39.9738 38.2429ZM35.9073 39.5087L33.255 41.7438L35.9073 43.9789C36.0278 44.0804 36.1029 44.2256 36.1163 44.3825C36.1297 44.5394 36.0802 44.6952 35.9788 44.8156C35.8773 44.936 35.7321 45.0112 35.5752 45.0246C35.4183 45.038 35.2625 44.9885 35.1421 44.8871L31.9509 42.1979C31.8847 42.1422 31.8315 42.0726 31.7951 41.9942C31.7586 41.9158 31.7397 41.8303 31.7397 41.7438C31.7397 41.6573 31.7586 41.5719 31.7951 41.4934C31.8315 41.415 31.8847 41.3455 31.9509 41.2897L35.1421 38.6007C35.2628 38.5018 35.4176 38.4545 35.5729 38.4688C35.7283 38.4832 35.8718 38.5582 35.9723 38.6775C36.0728 38.7968 36.1224 38.9509 36.1102 39.1064C36.0981 39.262 36.0252 39.4065 35.9073 39.5087ZM45.1021 41.7438C45.1021 41.8303 45.0833 41.9158 45.0468 41.9942C45.0103 42.0726 44.9571 42.1422 44.891 42.1979L41.6998 44.8871C41.5929 44.9774 41.4575 45.0269 41.3175 45.0267C41.1957 45.0268 41.0769 44.9895 40.977 44.9197C40.8772 44.85 40.8012 44.7512 40.7594 44.6368C40.7176 44.5224 40.712 44.398 40.7433 44.2803C40.7747 44.1626 40.8414 44.0574 40.9345 43.9789L43.5869 41.7438L40.9345 39.5087C40.8749 39.4585 40.8258 39.397 40.7899 39.3277C40.7541 39.2585 40.7322 39.1829 40.7256 39.1052C40.7189 39.0275 40.7277 38.9492 40.7513 38.8749C40.7749 38.8006 40.8129 38.7317 40.8631 38.6721C40.9134 38.6124 40.9749 38.5633 41.0441 38.5274C41.1134 38.4916 41.189 38.4697 41.2667 38.4631C41.3444 38.4564 41.4226 38.4652 41.4969 38.4888C41.5712 38.5124 41.6402 38.5504 41.6998 38.6007L44.891 41.2897C44.9571 41.3455 45.0103 41.415 45.0468 41.4934C45.0832 41.5719 45.1021 41.6573 45.1021 41.7438Z" fill="#4F45E2"/>
<circle cx="461" cy="38" r="38" fill="#F4F9FF"/>
<path d="M444.371 37.9997C444.407 37.9996 444.443 37.9972 444.478 37.9925C450.294 37.2035 455.966 35.5827 461.32 33.18C466.728 30.7472 471.751 27.5394 476.234 23.6578L475.269 27.5164C475.219 27.72 475.251 27.9354 475.359 28.1153C475.467 28.2952 475.642 28.4249 475.845 28.4759C475.908 28.4915 475.973 28.4995 476.037 28.4997C476.214 28.4995 476.385 28.4403 476.524 28.3316C476.663 28.2228 476.762 28.0708 476.804 27.8996L478.388 21.5663C478.417 21.4496 478.419 21.3279 478.394 21.2104C478.369 21.0928 478.318 20.9825 478.244 20.8877C478.17 20.7929 478.075 20.7163 477.967 20.6635C477.859 20.6107 477.741 20.5832 477.621 20.583H471.287C471.077 20.583 470.876 20.6664 470.728 20.8149C470.579 20.9633 470.496 21.1647 470.496 21.3747C470.496 21.5846 470.579 21.786 470.728 21.9345C470.876 22.0829 471.077 22.1663 471.287 22.1663H475.538C471.086 26.0784 466.075 29.3039 460.671 31.736C455.455 34.0766 449.929 35.6552 444.264 36.4235C444.065 36.4504 443.883 36.5519 443.756 36.7075C443.629 36.8631 443.566 37.0612 443.58 37.2616C443.594 37.462 443.683 37.6497 443.83 37.7867C443.976 37.9238 444.17 37.9999 444.371 37.9997ZM477.621 53.833H476.829V32.458C476.829 32.248 476.746 32.0467 476.597 31.8982C476.449 31.7497 476.247 31.6663 476.037 31.6663H468.121C467.911 31.6663 467.709 31.7497 467.561 31.8982C467.412 32.0467 467.329 32.248 467.329 32.458V53.833H465.746V37.208C465.746 36.998 465.662 36.7967 465.514 36.6482C465.365 36.4997 465.164 36.4163 464.954 36.4163H457.037C456.827 36.4163 456.626 36.4997 456.478 36.6482C456.329 36.7967 456.246 36.998 456.246 37.208V53.833H454.662V41.958C454.662 41.748 454.579 41.5467 454.43 41.3982C454.282 41.2498 454.081 41.1663 453.871 41.1663H445.954C445.744 41.1663 445.543 41.2498 445.394 41.3982C445.246 41.5467 445.162 41.748 445.162 41.958V53.833H444.371C444.161 53.833 443.959 53.9164 443.811 54.0649C443.662 54.2134 443.579 54.4147 443.579 54.6247C443.579 54.8346 443.662 55.036 443.811 55.1845C443.959 55.3329 444.161 55.4163 444.371 55.4163H477.621C477.831 55.4163 478.032 55.3329 478.18 55.1845C478.329 55.036 478.412 54.8346 478.412 54.6247C478.412 54.4147 478.329 54.2134 478.18 54.0649C478.032 53.9164 477.831 53.833 477.621 53.833ZM468.912 33.2497H475.246V53.833H468.912V33.2497ZM457.829 37.9997H464.162V53.833H457.829V37.9997ZM446.746 42.7497H453.079V53.833H446.746V42.7497Z" fill="#4F45E2"/>
<defs>
<linearGradient id="paint0_linear_32_5408" x1="276.501" y1="132.594" x2="242.74" y2="132.594" gradientUnits="userSpaceOnUse">
<stop stop-color="#9C9D9F"/>
<stop offset="1" stop-color="#C6C7C9"/>
</linearGradient>
<linearGradient id="paint1_linear_32_5408" x1="268.777" y1="119.032" x2="225.146" y2="119.032" gradientUnits="userSpaceOnUse">
<stop stop-color="#9C9D9F"/>
<stop offset="1" stop-color="#C6C7C9"/>
</linearGradient>
<clipPath id="clip0_32_5408">
<rect width="38" height="38" fill="white" transform="translate(19 258)"/>
</clipPath>
<clipPath id="clip1_32_5408">
<rect width="38" height="38" fill="white" transform="translate(442 263)"/>
</clipPath>
</defs>
</svg>
