<svg width="577" height="470" viewBox="0 0 577 470" fill="none" xmlns="http://www.w3.org/2000/svg">
<g clip-path="url(#clip0_32_5578)">
<g filter="url(#filter0_d_32_5578)">
<path d="M535.711 57.4022H424.238C410.671 57.4022 399.673 68.4005 399.673 81.9667V134.054C399.673 147.62 410.671 158.617 424.238 158.617H535.711C549.278 158.617 560.275 147.62 560.275 134.054V81.9667C560.275 68.4005 549.278 57.4022 535.711 57.4022Z" fill="white" fill-opacity="0.01"/>
</g>
<path d="M535.711 57.4022H424.238C410.671 57.4022 399.673 68.4005 399.673 81.9667V134.054C399.673 147.62 410.671 158.617 424.238 158.617H535.711C549.278 158.617 560.275 147.62 560.275 134.054V81.9667C560.275 68.4005 549.278 57.4022 535.711 57.4022Z" fill="white"/>
<path d="M540.687 79.0661H419.262C418.375 79.0661 417.524 79.4184 416.897 80.0454C416.27 80.6724 415.918 81.5228 415.918 82.4096C415.918 83.2963 416.27 84.1467 416.897 84.7738C417.524 85.4008 418.375 85.753 419.262 85.753H540.687C541.574 85.753 542.424 85.4008 543.051 84.7738C543.678 84.1467 544.03 83.2963 544.03 82.4096C544.03 81.5228 543.678 80.6724 543.051 80.0454C542.424 79.4184 541.574 79.0661 540.687 79.0661Z" fill="#EFF0F7"/>
<g filter="url(#filter1_d_32_5578)">
<path d="M463.356 79.0661H419.262C418.375 79.0661 417.524 79.4184 416.897 80.0454C416.27 80.6724 415.918 81.5228 415.918 82.4096C415.918 83.2963 416.27 84.1467 416.897 84.7738C417.524 85.4008 418.375 85.753 419.262 85.753H463.356C464.243 85.753 465.093 85.4008 465.72 84.7738C466.347 84.1467 466.7 83.2963 466.7 82.4096C466.7 81.5228 466.347 80.6724 465.72 80.0454C465.093 79.4184 464.243 79.0661 463.356 79.0661Z" fill="#3F80FD" fill-opacity="0.01"/>
</g>
<path d="M463.51 79.0661H419.415C418.529 79.0661 417.678 79.4184 417.051 80.0454C416.424 80.6724 416.072 81.5228 416.072 82.4096C416.072 83.2963 416.424 84.1467 417.051 84.7738C417.678 85.4008 418.529 85.753 419.415 85.753H463.51C464.397 85.753 465.247 85.4008 465.874 84.7738C466.501 84.1467 466.854 83.2963 466.854 82.4096C466.854 81.5228 466.501 80.6724 465.874 80.0454C465.247 79.4184 464.397 79.0661 463.51 79.0661Z" fill="#4F45E2"/>
<path d="M540.687 91.8663H419.262C418.375 91.8665 417.525 92.2188 416.898 92.8458C416.271 93.4728 415.919 94.3231 415.919 95.2097C415.919 96.0963 416.271 96.9466 416.898 97.5736C417.525 98.2006 418.375 98.553 419.262 98.5532H540.687C541.574 98.5532 542.424 98.2009 543.051 97.5739C543.678 96.9469 544.03 96.0965 544.03 95.2097C544.03 94.323 543.678 93.4726 543.051 92.8455C542.424 92.2185 541.574 91.8663 540.687 91.8663Z" fill="#EFF0F7"/>
<g filter="url(#filter2_d_32_5578)">
<path d="M527.6 91.8663H419.262C418.375 91.8665 417.525 92.2188 416.898 92.8458C416.271 93.4728 415.919 94.3231 415.919 95.2097C415.919 96.0963 416.271 96.9466 416.898 97.5736C417.525 98.2006 418.375 98.553 419.262 98.5532H527.6C528.487 98.5532 529.337 98.2009 529.964 97.5739C530.591 96.9469 530.944 96.0965 530.944 95.2097C530.944 94.323 530.591 93.4726 529.964 92.8455C529.337 92.2185 528.487 91.8663 527.6 91.8663Z" fill="#3F80FD" fill-opacity="0.01"/>
</g>
<path d="M527.754 91.8663H419.416C418.529 91.8665 417.679 92.2188 417.052 92.8458C416.425 93.4728 416.073 94.3231 416.073 95.2097C416.073 96.0963 416.425 96.9466 417.052 97.5736C417.679 98.2006 418.529 98.553 419.416 98.5532H527.754C528.641 98.5532 529.491 98.2009 530.118 97.5739C530.745 96.9469 531.098 96.0965 531.098 95.2097C531.098 94.323 530.745 93.4726 530.118 92.8455C529.491 92.2185 528.641 91.8663 527.754 91.8663Z" fill="#4F45E2"/>
<path d="M540.687 104.667H419.261C418.375 104.667 417.525 105.019 416.898 105.646C416.271 106.273 415.918 107.124 415.918 108.01C415.918 108.897 416.271 109.747 416.898 110.374C417.525 111.001 418.375 111.353 419.261 111.353H540.687C541.564 111.34 542.402 110.982 543.017 110.356C543.633 109.731 543.979 108.888 543.979 108.01C543.979 107.132 543.633 106.29 543.017 105.664C542.402 105.039 541.564 104.681 540.687 104.667Z" fill="#EFF0F7"/>
<g filter="url(#filter3_d_32_5578)">
<path d="M456.642 104.583H419.416C418.529 104.584 417.679 104.936 417.052 105.563C416.425 106.19 416.073 107.04 416.073 107.927C416.073 108.813 416.425 109.664 417.052 110.291C417.679 110.918 418.529 111.27 419.416 111.27H456.642C457.529 111.27 458.379 110.918 459.006 110.291C459.633 109.664 459.986 108.814 459.986 107.927C459.986 107.04 459.633 106.19 459.006 105.563C458.379 104.936 457.529 104.583 456.642 104.583Z" fill="#3F80FD" fill-opacity="0.01"/>
</g>
<path d="M456.724 104.583H419.416C418.529 104.584 417.679 104.936 417.052 105.563C416.425 106.19 416.073 107.04 416.073 107.927C416.073 108.813 416.425 109.664 417.052 110.291C417.679 110.918 418.529 111.27 419.416 111.27H456.724C457.611 111.27 458.462 110.918 459.089 110.291C459.716 109.664 460.068 108.814 460.068 107.927C460.068 107.04 459.716 106.19 459.089 105.563C458.462 104.936 457.611 104.583 456.724 104.583Z" fill="#4F45E2"/>
<path d="M540.687 117.467H419.262C418.375 117.467 417.525 117.82 416.898 118.447C416.271 119.074 415.919 119.924 415.919 120.811C415.919 121.697 416.271 122.548 416.898 123.175C417.525 123.802 418.375 124.154 419.262 124.154H540.687C541.574 124.154 542.424 123.802 543.051 123.175C543.678 122.548 544.03 121.697 544.03 120.811C544.03 119.924 543.678 119.074 543.051 118.447C542.424 117.82 541.574 117.467 540.687 117.467Z" fill="#EFF0F7"/>
<g filter="url(#filter4_d_32_5578)">
<path d="M506.803 117.467H419.262C418.375 117.467 417.525 117.82 416.898 118.447C416.271 119.074 415.919 119.924 415.919 120.811C415.919 121.697 416.271 122.548 416.898 123.175C417.525 123.802 418.375 124.154 419.262 124.154H506.803C507.69 124.154 508.54 123.802 509.167 123.175C509.794 122.548 510.146 121.697 510.146 120.811C510.146 119.924 509.794 119.074 509.167 118.447C508.54 117.82 507.69 117.467 506.803 117.467Z" fill="#3F80FD" fill-opacity="0.01"/>
</g>
<path d="M506.803 117.301H419.262C418.375 117.301 417.525 117.653 416.898 118.28C416.271 118.907 415.919 119.757 415.919 120.644C415.919 121.531 416.271 122.381 416.898 123.008C417.525 123.635 418.375 123.987 419.262 123.987H506.803C507.69 123.987 508.54 123.635 509.167 123.008C509.794 122.381 510.146 121.531 510.146 120.644C510.146 119.757 509.794 118.907 509.167 118.28C508.54 117.653 507.69 117.301 506.803 117.301Z" fill="#4F45E2"/>
<path d="M540.687 130.268H419.262C418.384 130.282 417.547 130.64 416.931 131.265C416.315 131.891 415.97 132.733 415.97 133.611C415.97 134.489 416.315 135.332 416.931 135.957C417.547 136.583 418.384 136.941 419.262 136.954H540.687C541.13 136.961 541.57 136.88 541.982 136.715C542.394 136.55 542.768 136.305 543.084 135.994C543.4 135.683 543.651 135.312 543.822 134.903C543.994 134.494 544.082 134.055 544.082 133.611C544.082 133.168 543.994 132.729 543.822 132.32C543.651 131.911 543.4 131.54 543.084 131.229C542.768 130.918 542.394 130.673 541.982 130.508C541.57 130.343 541.13 130.261 540.687 130.268Z" fill="#EFF0F7"/>
<g filter="url(#filter5_d_32_5578)">
<path d="M473.883 130.268H419.262C418.384 130.282 417.547 130.64 416.931 131.265C416.315 131.891 415.97 132.733 415.97 133.611C415.97 134.489 416.315 135.332 416.931 135.957C417.547 136.583 418.384 136.941 419.262 136.954H473.883C474.326 136.961 474.767 136.88 475.178 136.715C475.59 136.55 475.964 136.305 476.28 135.994C476.596 135.683 476.847 135.312 477.019 134.903C477.19 134.494 477.278 134.055 477.278 133.611C477.278 133.168 477.19 132.729 477.019 132.32C476.847 131.911 476.596 131.54 476.28 131.229C475.964 130.918 475.59 130.673 475.178 130.508C474.767 130.343 474.326 130.261 473.883 130.268Z" fill="#3F80FD" fill-opacity="0.01"/>
</g>
<path d="M474.037 130.268H419.416C418.538 130.282 417.701 130.64 417.085 131.265C416.469 131.891 416.124 132.733 416.124 133.611C416.124 134.489 416.469 135.332 417.085 135.957C417.701 136.583 418.538 136.941 419.416 136.954H474.037C474.48 136.961 474.921 136.88 475.332 136.715C475.744 136.55 476.118 136.305 476.434 135.994C476.75 135.683 477.001 135.312 477.173 134.903C477.344 134.494 477.432 134.055 477.432 133.611C477.432 133.168 477.344 132.729 477.173 132.32C477.001 131.911 476.75 131.54 476.434 131.229C476.118 130.918 475.744 130.673 475.332 130.508C474.921 130.343 474.48 130.261 474.037 130.268Z" fill="#4F45E2"/>
<g filter="url(#filter6_d_32_5578)">
<path d="M231.028 123.675H160.725C146.622 123.675 135.19 135.108 135.19 149.21V223.635C135.19 237.738 146.622 249.17 160.725 249.17H231.028C245.13 249.17 256.562 237.738 256.562 223.635V149.21C256.562 135.108 245.13 123.675 231.028 123.675Z" fill="white" fill-opacity="0.01"/>
</g>
<path d="M231.028 123.675H160.725C146.622 123.675 135.19 135.108 135.19 149.21V223.635C135.19 237.738 146.622 249.17 160.725 249.17H231.028C245.13 249.17 256.562 237.738 256.562 223.635V149.21C256.562 135.108 245.13 123.675 231.028 123.675Z" fill="white"/>
<path d="M241.292 186.422C241.292 211.505 220.958 231.838 195.877 231.838C170.794 231.838 150.461 211.505 150.461 186.422C150.461 161.34 170.794 141.007 195.877 141.007C220.958 141.007 241.292 161.34 241.292 186.422ZM170.81 186.422C170.81 200.266 182.033 211.489 195.877 211.489C209.72 211.489 220.942 200.266 220.942 186.422C220.942 172.579 209.72 161.357 195.877 161.357C182.033 161.357 170.81 172.579 170.81 186.422Z" fill="#F5F7FC"/>
<g filter="url(#filter7_d_32_5578)">
<path d="M200.668 151.437C205.588 152.111 210.311 153.815 214.527 156.438C218.744 159.06 222.36 162.543 225.139 166.658C227.918 170.773 229.799 175.428 230.657 180.319C231.515 185.21 231.332 190.227 230.12 195.043" stroke="#FFC226" stroke-opacity="0.01" stroke-width="20.206" stroke-linecap="round"/>
</g>
<path d="M200.668 151.437C205.588 152.111 210.311 153.815 214.527 156.438C218.744 159.06 222.36 162.543 225.139 166.658C227.918 170.773 229.799 175.428 230.657 180.319C231.515 185.21 231.332 190.227 230.12 195.043" stroke="#FFC226" stroke-width="20.206" stroke-linecap="round"/>
<g filter="url(#filter8_d_32_5578)">
<path d="M167.274 165.711C172.594 158.366 180.536 153.349 189.454 151.699C198.372 150.05 207.583 151.895 215.178 156.852" stroke="#FF8139" stroke-opacity="0.01" stroke-width="20.206" stroke-linecap="round"/>
</g>
<path d="M167.274 165.711C172.594 158.366 180.536 153.349 189.454 151.699C198.372 150.05 207.583 151.895 215.178 156.852" stroke="#FF8139" stroke-width="20.206" stroke-linecap="round"/>
<g filter="url(#filter9_d_32_5578)">
<path d="M202.824 221.045C196.12 222.391 189.17 221.761 182.817 219.232C176.464 216.704 170.982 212.385 167.037 206.801C163.091 201.217 160.851 194.607 160.589 187.775C160.328 180.942 162.055 174.181 165.562 168.311" stroke="#FF3951" stroke-opacity="0.01" stroke-width="20.206" stroke-linecap="round"/>
</g>
<path d="M202.824 221.045C196.12 222.391 189.17 221.761 182.817 219.232C176.464 216.704 170.982 212.385 167.037 206.801C163.091 201.217 160.851 194.607 160.589 187.775C160.328 180.942 162.055 174.181 165.562 168.311" stroke="#FF3951" stroke-width="20.206" stroke-linecap="round"/>
<g filter="url(#filter10_d_32_5578)">
<path d="M345.729 11.1715H241.146C229.687 11.1715 220.399 20.4598 220.399 31.9185V74.7898C220.399 86.2478 229.687 95.5369 241.146 95.5369H345.729C357.186 95.5369 366.476 86.2478 366.476 74.7898V31.9185C366.476 20.4598 357.186 11.1715 345.729 11.1715Z" fill="white" fill-opacity="0.01"/>
</g>
<path d="M345.729 11.1715H241.146C229.687 11.1715 220.399 20.4598 220.399 31.9185V74.7898C220.399 86.2478 229.687 95.5369 241.146 95.5369H345.729C357.186 95.5369 366.476 86.2478 366.476 74.7898V31.9185C366.476 20.4598 357.186 11.1715 345.729 11.1715Z" fill="white"/>
<path opacity="0.1" d="M319.04 47.2394C300.332 36.6895 309.611 73.1971 282.045 56.1702C258.243 41.4677 254.754 70.8503 241.699 80.1569C239.641 81.6236 236.805 86.1696 234.183 86.1967L349.213 85.5927C350.144 85.588 351.034 85.2151 351.69 84.5555C352.347 83.8959 352.715 83.0033 352.715 82.0728V20.5116C342.213 24.2126 337.748 57.7901 319.04 47.2394Z" fill="#F4263E"/>
<g filter="url(#filter11_d_32_5578)">
<path d="M234.909 83.9545C254.031 83.9545 254.96 39.5598 282.34 55.5757C309.72 71.5908 299.889 35.7272 318.471 45.6514C337.052 55.5757 341.486 23.9923 351.917 20.5108" stroke="#F4263E" stroke-opacity="0.01" stroke-width="2.51438" stroke-linecap="round"/>
</g>
<path d="M234.909 83.9545C254.031 83.9545 254.96 39.5598 282.34 55.5757C309.72 71.5908 299.889 35.7272 318.471 45.6514C337.052 55.5757 341.486 23.9923 351.917 20.5108" stroke="#F4263E" stroke-width="2.51438" stroke-linecap="round"/>
<mask id="mask0_32_5578" style="mask-type:luminance" maskUnits="userSpaceOnUse" x="390" y="11" width="180" height="207">
<path d="M390.538 11.1715H569.282V217.766H390.538V11.1715Z" fill="white"/>
</mask>
<g mask="url(#mask0_32_5578)">
<path d="M569.282 39.1002C569.282 23.6756 556.778 11.1715 541.353 11.1715H418.467C403.042 11.1715 390.538 23.6756 390.538 39.1002V189.673C390.538 205.097 403.042 217.601 418.467 217.601H541.353C556.778 217.601 569.282 205.097 569.282 189.673V39.1002Z" fill="white"/>
<path d="M479.91 189.627C509.014 189.627 532.608 166.034 532.608 136.929C532.608 107.825 509.014 84.2305 479.91 84.2305C450.806 84.2305 427.212 107.825 427.212 136.929C427.212 166.034 450.806 189.627 479.91 189.627Z" stroke="#EFEFF5" stroke-width="17.2799"/>
<g filter="url(#filter12_d_32_5578)">
<path d="M497.396 87.2165C486.533 83.3957 474.717 83.2383 463.756 86.7682C452.795 90.2982 443.292 97.3213 436.699 106.763" stroke="#CAB7FF" stroke-opacity="0.01" stroke-width="17.2799" stroke-linecap="round"/>
</g>
<path d="M497.396 87.2165C486.533 83.3957 474.717 83.2383 463.756 86.7682C452.795 90.2982 443.292 97.3213 436.699 106.763" stroke="#CAB7FF" stroke-width="17.2799" stroke-linecap="round"/>
<g filter="url(#filter13_d_32_5578)">
<path d="M472.778 189.143C480.69 190.223 488.744 189.492 496.332 187.003C503.92 184.514 510.844 180.334 516.579 174.777C522.314 169.22 526.712 162.433 529.439 154.927C532.167 147.421 533.153 139.394 532.323 131.452" stroke="#3C16A8" stroke-opacity="0.01" stroke-width="17.2799" stroke-linecap="round"/>
</g>
<path d="M472.778 189.143C480.69 190.223 488.744 189.492 496.332 187.003C503.92 184.514 510.844 180.334 516.579 174.777C522.314 169.22 526.712 162.433 529.439 154.927C532.167 147.421 533.153 139.394 532.323 131.452" stroke="black" stroke-width="17.2799" stroke-linecap="round"/>
<g filter="url(#filter14_d_32_5578)">
<path d="M532.608 136.929C532.608 124.401 528.145 112.283 520.019 102.748C511.894 93.2131 500.637 86.8847 488.268 84.8976" stroke="#7545FF" stroke-opacity="0.01" stroke-width="17.2799" stroke-linecap="round"/>
</g>
<path d="M532.608 136.929C532.608 124.401 528.145 112.283 520.019 102.748C511.894 93.2131 500.637 86.8847 488.268 84.8976" stroke="#4F45E2" stroke-width="17.2799" stroke-linecap="round"/>
<path d="M501.965 132.819H457.856C456.266 132.845 454.751 133.495 453.636 134.628C452.521 135.761 451.896 137.287 451.896 138.877C451.896 140.466 452.521 141.992 453.636 143.125C454.751 144.259 456.266 144.908 457.856 144.934H501.965C503.571 144.934 505.112 144.296 506.248 143.16C507.384 142.024 508.022 140.483 508.022 138.877C508.022 137.27 507.384 135.729 506.248 134.593C505.112 133.457 503.571 132.819 501.965 132.819Z" fill="#DADAE3"/>
<path d="M451.217 33.8416H408.777C407.123 33.8416 405.537 34.4985 404.368 35.6679C403.199 36.8372 402.542 38.4232 402.542 40.0769C402.542 41.7306 403.199 43.3165 404.368 44.4859C405.537 45.6552 407.123 46.3121 408.777 46.3121H451.217C452.87 46.3121 454.456 45.6552 455.626 44.4859C456.795 43.3165 457.452 41.7306 457.452 40.0769C457.452 38.4232 456.795 36.8372 455.626 35.6679C454.456 34.4985 452.87 33.8416 451.217 33.8416Z" fill="#9292C8"/>
<path d="M478.853 51.2827H407.428C406.132 51.2827 404.889 51.7974 403.973 52.7137C403.057 53.63 402.542 54.8728 402.542 56.1686C402.542 57.4644 403.057 58.7072 403.973 59.6234C404.889 60.5397 406.132 61.0545 407.428 61.0545H478.853C479.495 61.0545 480.13 60.9281 480.723 60.6826C481.316 60.437 481.854 60.0771 482.308 59.6234C482.762 59.1697 483.122 58.6311 483.367 58.0383C483.613 57.4456 483.739 56.8102 483.739 56.1686C483.739 55.527 483.613 54.8916 483.367 54.2988C483.122 53.706 482.762 53.1674 482.308 52.7137C481.854 52.26 481.316 51.9001 480.723 51.6546C480.13 51.409 479.495 51.2827 478.853 51.2827Z" fill="#E8E8F3"/>
<g filter="url(#filter15_d_32_5578)">
<path d="M512.425 53.9079C513.274 53.9079 514.114 53.7408 514.897 53.4162C515.681 53.0915 516.393 52.6156 516.993 52.0157C517.593 51.4158 518.069 50.7036 518.393 49.9198C518.718 49.136 518.885 48.296 518.885 47.4476C518.885 46.1701 518.506 44.9213 517.796 43.8591C517.086 42.797 516.077 41.9692 514.897 41.4804C513.716 40.9916 512.418 40.8638 511.165 41.1131C509.912 41.3625 508.761 41.9777 507.857 42.8812C506.954 43.7846 506.339 44.9355 506.09 46.1885C505.841 47.4415 505.969 48.7403 506.458 49.9206C506.947 51.1008 507.774 52.1096 508.837 52.8194C509.899 53.5291 511.148 53.9079 512.425 53.9079Z" fill="#7545FF" fill-opacity="0.01"/>
</g>
<path d="M512.425 53.9079C513.274 53.9079 514.114 53.7408 514.897 53.4162C515.681 53.0915 516.393 52.6156 516.993 52.0157C517.593 51.4158 518.069 50.7036 518.393 49.9198C518.718 49.136 518.885 48.296 518.885 47.4476C518.885 46.1701 518.506 44.9213 517.796 43.8591C517.086 42.797 516.077 41.9692 514.897 41.4804C513.716 40.9916 512.418 40.8638 511.165 41.1131C509.912 41.3625 508.761 41.9777 507.857 42.8812C506.954 43.7846 506.339 44.9355 506.09 46.1885C505.841 47.4415 505.969 48.7403 506.458 49.9206C506.947 51.1008 507.774 52.1096 508.837 52.8194C509.899 53.5291 511.148 53.9079 512.425 53.9079Z" fill="#7545FF"/>
<path d="M530.333 53.9079C531.611 53.9079 532.859 53.5291 533.922 52.8194C534.984 52.1096 535.812 51.1008 536.301 49.9206C536.79 48.7403 536.918 47.4415 536.669 46.1885C536.419 44.9355 535.804 43.7846 534.901 42.8812C533.998 41.9777 532.847 41.3625 531.594 41.1131C530.341 40.8638 529.042 40.9916 527.862 41.4804C526.681 41.9692 525.672 42.797 524.963 43.8591C524.253 44.9213 523.874 46.1701 523.874 47.4476C523.873 48.296 524.04 49.136 524.365 49.9198C524.69 50.7036 525.165 51.4158 525.765 52.0157C526.365 52.6156 527.077 53.0915 527.861 53.4162C528.645 53.7408 529.485 53.9079 530.333 53.9079Z" fill="#CAB7FF"/>
<path d="M548.242 53.9079C549.955 53.9079 551.598 53.2273 552.81 52.0158C554.021 50.8042 554.702 49.161 554.702 47.4476C554.702 45.7343 554.021 44.0911 552.81 42.8795C551.598 41.668 549.955 40.9873 548.242 40.9873C546.528 40.9873 544.885 41.668 543.674 42.8795C542.462 44.0911 541.781 45.7343 541.781 47.4476C541.781 49.161 542.462 50.8042 543.674 52.0158C544.885 53.2273 546.528 53.9079 548.242 53.9079Z" fill="#4F45E2"/>
</g>
<path d="M276.722 392.218H252.784V396.424H276.722V392.218Z" fill="#4E4B66"/>
<path d="M289.7 453.801H287.121L266.032 355.379L264.832 349.771L261.04 332.103L259.638 325.507L254.332 300.784L252.481 292.136H261.691L263.182 300.784L264.169 306.471L264.832 310.252L268.612 332.103L269.823 339.125L289.7 453.801Z" fill="#4E4B66"/>
<path d="M261.691 292.136L263.182 300.784H254.332L252.481 292.136H261.691ZM269.823 339.125L266.032 355.379L264.832 349.771L261.04 332.103L259.638 325.507L264.169 306.471L264.832 310.252L268.612 332.103L269.823 339.125Z" fill="black"/>
<path d="M277.171 292.136L275.32 300.784L268.612 332.103L264.832 349.771L242.531 453.801H239.962L261.04 332.103L264.832 310.252L266.469 300.784L267.973 292.136H277.171Z" fill="#4E4B66"/>
<path d="M277.171 292.136L275.32 300.784H266.469L267.973 292.136H277.171Z" fill="black"/>
<path d="M436.677 392.218H412.739V396.424H436.677V392.218Z" fill="#4E4B66"/>
<path d="M449.655 453.801H447.075L425.987 355.379L424.787 349.771L420.995 332.103L419.593 325.507L414.287 300.784L412.436 292.136H421.645L423.137 300.784L424.124 306.471L424.787 310.252L428.567 332.103L429.778 339.125L449.655 453.801Z" fill="#4E4B66"/>
<path d="M421.645 292.136L423.137 300.784H414.287L412.436 292.136H421.645ZM429.778 339.125L425.987 355.379L424.787 349.771L420.995 332.103L419.593 325.507L424.124 306.471L424.787 310.252L428.567 332.103L429.778 339.125Z" fill="black"/>
<path d="M437.125 292.136L435.274 300.784L428.566 332.103L424.787 349.771L402.497 453.801H399.917L420.995 332.103L424.787 310.252L426.424 300.784L427.927 292.136H437.125Z" fill="#4E4B66"/>
<path d="M437.126 292.136L435.274 300.784H426.424L427.927 292.136H437.126Z" fill="black"/>
<path d="M451.474 280.29H229.815C229.18 280.29 228.571 280.542 228.122 280.991C227.673 281.44 227.421 282.049 227.421 282.684V289.742C227.421 291.063 228.493 292.136 229.815 292.136H451.474C452.109 292.136 452.717 291.884 453.166 291.435C453.615 290.986 453.868 290.377 453.868 289.742V282.684C453.868 282.049 453.615 281.44 453.166 280.991C452.717 280.542 452.109 280.29 451.474 280.29Z" fill="#4E4B66"/>
<path d="M282.903 280.29H225.708C225.093 280.29 224.499 280.063 224.041 279.654C223.582 279.244 223.29 278.68 223.22 278.069L219.191 242.705C219.151 242.355 219.186 242 219.292 241.663C219.399 241.327 219.576 241.018 219.811 240.754C220.046 240.491 220.334 240.281 220.655 240.136C220.977 239.992 221.326 239.918 221.679 239.918H276.069C276.684 239.918 277.277 240.144 277.736 240.554C278.195 240.963 278.487 241.528 278.557 242.139L282.903 280.29Z" fill="#D9DBE9"/>
<path d="M279.672 277.575H228.321C227.706 277.575 227.113 277.348 226.654 276.939C226.195 276.529 225.903 275.965 225.834 275.355L222.104 242.621H275.69L279.672 277.575Z" fill="white"/>
<path d="M300.346 277.574H223.887V280.278H300.346V277.574Z" fill="#D9DBE9"/>
<path d="M316.948 277.574H240.489V280.278H316.948V277.574Z" fill="#EFF0F7"/>
<path d="M275.88 244.327L275.69 242.621H222.104L222.306 244.327H275.88ZM357.088 247.947L358.221 249.702L359.44 251.628C360.233 252.93 361.009 254.242 361.767 255.563C363.279 258.221 364.741 260.914 366.094 263.644C368.813 269.02 371.091 274.607 372.906 280.351C373.345 281.765 373.734 283.179 374.125 284.592L374.624 286.725L374.832 287.784L374.941 288.321C374.941 288.491 375.014 288.723 375.014 288.674C375.014 288.625 375.112 288.674 375.234 288.357C375.365 288.076 375.566 287.832 375.819 287.651C376.025 287.529 376.062 287.651 375.953 287.76C375.7 287.99 375.417 288.183 375.112 288.333C374.071 288.845 372.97 289.222 371.834 289.455C370.455 289.776 369.059 290.024 367.654 290.197C364.753 290.576 361.561 290.758 358.563 290.916H358.258C357.271 290.968 356.332 291.361 355.601 292.026C354.87 292.691 354.392 293.589 354.248 294.567C354.105 295.545 354.304 296.543 354.813 297.39C355.322 298.238 356.109 298.883 357.039 299.216C360.404 300.423 363.883 301.284 367.422 301.787C371.379 302.432 375.421 302.329 379.34 301.482C380.606 301.172 381.833 300.718 382.996 300.13C384.467 299.384 385.795 298.385 386.921 297.18C388.236 295.751 389.21 294.043 389.772 292.184C390.249 290.506 390.418 288.756 390.271 287.017C390.271 286.554 390.271 286.383 390.199 286.152L390.113 285.481L389.955 284.117C389.821 283.227 389.699 282.326 389.552 281.436C389.248 279.656 388.907 277.89 388.48 276.159C386.812 269.311 384.469 262.644 381.485 256.258C380.01 253.115 378.438 250.019 376.72 247.009C375.862 245.498 374.968 244.006 374.039 242.537C373.573 241.789 373.094 241.049 372.601 240.318C372.083 239.545 371.551 238.781 371.005 238.027C369.693 236.262 367.749 235.072 365.58 234.705C363.411 234.339 361.185 234.825 359.366 236.061C357.546 237.297 356.274 239.188 355.815 241.339C355.357 243.491 355.747 245.736 356.905 247.606L357.088 247.947Z" fill="white"/>
<path d="M324.502 198.763C324.38 199.592 323.844 200.189 323.283 200.115C322.722 200.043 322.406 199.299 322.528 198.483C322.65 197.667 323.186 197.057 323.746 197.13C324.307 197.203 324.624 197.947 324.502 198.763Z" fill="black"/>
<path d="M323.916 200.201C322.562 202.568 318.777 205.964 318.944 206.648C319.112 207.331 320.047 207.501 320.706 207.728C321.365 207.956 322.065 208.036 322.758 207.963L323.916 200.201Z" fill="#FF97B8"/>
<path d="M328.097 194.644C327.993 194.636 327.897 194.588 327.829 194.51C327.403 194.068 326.878 193.734 326.297 193.537C325.716 193.34 325.096 193.285 324.489 193.377C324.362 193.402 324.229 193.377 324.12 193.306C324.011 193.236 323.934 193.126 323.904 192.999C323.879 192.873 323.905 192.742 323.976 192.635C324.047 192.528 324.157 192.453 324.282 192.426C325.047 192.299 325.831 192.36 326.567 192.601C327.304 192.843 327.971 193.26 328.511 193.816C328.601 193.909 328.651 194.033 328.651 194.163C328.651 194.292 328.601 194.417 328.511 194.51C328.456 194.562 328.391 194.6 328.319 194.624C328.247 194.647 328.171 194.654 328.097 194.644Z" fill="black"/>
<path d="M348.643 207.842C348.29 215.519 348.875 229.387 354.834 233.592C354.834 233.592 353.92 241.452 340.064 243.524C324.843 245.79 331.656 237.04 331.656 237.04C339.674 233.823 338.54 227.681 336.225 222.112L348.643 207.842Z" fill="#FFD5BD"/>
<path d="M357.222 236.663C357.819 233.189 358.441 229.229 355.82 228.619C352.945 227.949 338.053 229.936 333.349 233.494C328.645 237.052 331.058 243.244 331.058 243.244L357.222 236.663Z" fill="white"/>
<path d="M317.068 249.605C316.507 261.889 317.068 286.249 325.404 323.125H380.51C380.852 315.46 372.942 282.411 373.625 246.095C373.659 244.275 373.33 242.466 372.658 240.774C371.986 239.082 370.984 237.54 369.71 236.239C368.437 234.938 366.917 233.904 365.239 233.196C363.562 232.489 361.76 232.122 359.939 232.117C358.855 232.117 357.71 232.117 356.527 232.251C348.731 232.794 340.975 233.803 333.3 235.274C331.009 235.798 328.779 236.407 326.756 237.028C324.043 237.872 321.656 239.532 319.922 241.783C318.187 244.035 317.191 246.766 317.068 249.605Z" fill="#4F45E2"/>
<path opacity="0.2" d="M325.392 271.711C326.269 277.95 328.291 288.772 320.992 300.739C320.217 296.106 319.534 291.458 318.945 286.798L325.392 271.711Z" fill="black"/>
<path d="M282.446 286.81L273.172 283.617L276.95 273.868C279.057 274.173 281.042 275.046 282.693 276.392C284.343 277.737 285.597 279.506 286.321 281.509L282.446 286.81Z" fill="#FFD5BD"/>
<path d="M268.482 280.983C267.993 279.884 266.508 273.674 267.495 273.11C268.482 272.546 277.171 273.914 277.171 273.914L273.392 283.7C273.392 283.7 268.97 282.081 268.482 280.983Z" fill="#FFD5BD"/>
<path d="M317.129 248.471C316.567 250.42 315.982 252.362 315.374 254.296C314.764 256.247 314.156 258.245 313.449 260.207C312.133 264.131 310.682 267.994 309.159 271.772C307.635 275.55 305.929 279.218 304.089 282.642C302.408 285.882 300.364 288.92 297.996 291.697L306.928 290.32C305.21 289.577 303.444 288.809 301.664 287.883C299.885 286.956 298.069 286.128 296.278 285.153L290.794 282.264C288.966 281.302 287.138 280.254 285.273 279.352L285.079 279.254C284.208 278.818 283.216 278.69 282.263 278.889C281.31 279.088 280.452 279.603 279.829 280.351C279.206 281.1 278.854 282.037 278.831 283.01C278.809 283.984 279.117 284.937 279.704 285.713C281.068 287.514 282.524 289.243 284.067 290.893C285.59 292.538 287.187 294.098 288.844 295.633C290.519 297.176 292.268 298.635 294.084 300.008C295.954 301.435 297.898 302.761 299.91 303.981C301.229 304.768 302.769 305.102 304.296 304.933C305.823 304.763 307.253 304.1 308.367 303.042L308.842 302.591C312.453 299.09 315.588 295.128 318.165 290.807C320.611 286.834 322.789 282.702 324.685 278.438C326.597 274.258 328.243 270.017 329.742 265.752C330.485 263.619 331.204 261.475 331.85 259.317C332.496 257.16 333.069 255.04 333.69 252.652C334.273 250.465 333.964 248.137 332.83 246.179C331.697 244.22 329.832 242.792 327.646 242.208C326.563 241.919 325.434 241.846 324.324 241.993C323.213 242.141 322.142 242.505 321.172 243.066C320.202 243.628 319.353 244.375 318.671 245.264C317.99 246.154 317.491 247.169 317.202 248.252L317.129 248.471Z" fill="white"/>
<path d="M352.177 201.127C350.045 211.12 349.313 217.079 343.439 221.502C334.604 228.157 322.832 221.673 321.93 211.23C321.126 201.833 324.733 187.064 335.214 184.517C337.523 183.946 339.939 183.975 342.234 184.601C344.529 185.227 346.626 186.429 348.325 188.093C350.025 189.757 351.271 191.828 351.945 194.109C352.619 196.39 352.699 198.806 352.177 201.127Z" fill="#FFD5BD"/>
<path d="M330.644 202.175C325.866 201.81 326.146 199.604 327.219 197.983C328.291 196.363 331.209 191.97 329.595 190.538C327.982 189.105 322.954 192.292 324.318 185.931C325.684 179.57 334.653 171.514 342.489 176.449C358.099 173.878 363.205 180.178 360.768 186.004C373.162 191.488 364.217 202.59 359.282 202.59C363.681 206.514 348.019 219.444 346.462 218.517C344.903 217.591 327.158 211.644 330.644 202.175Z" fill="black"/>
<path d="M340.296 179.642C340.458 179.639 340.618 179.605 340.766 179.54C340.915 179.475 341.049 179.382 341.161 179.265C342.977 177.438 345.24 176.12 347.725 175.442C350.21 174.764 352.83 174.75 355.322 175.401C355.635 175.475 355.965 175.422 356.239 175.253C356.514 175.084 356.71 174.813 356.784 174.499C356.857 174.186 356.803 173.857 356.634 173.583C356.465 173.309 356.195 173.113 355.883 173.037C352.975 172.295 349.925 172.323 347.031 173.118C344.138 173.913 341.502 175.447 339.381 177.571C339.155 177.799 339.028 178.108 339.028 178.43C339.028 178.751 339.155 179.06 339.381 179.289C339.501 179.408 339.644 179.501 339.801 179.562C339.959 179.623 340.127 179.65 340.296 179.642ZM356.443 213.691C356.603 213.692 356.762 213.661 356.91 213.601C357.059 213.54 357.194 213.451 357.308 213.338C360.745 209.877 362.182 207.172 361.744 204.807C361.539 203.914 361.115 203.086 360.511 202.397C359.907 201.707 359.141 201.179 358.283 200.858C358.065 200.755 357.821 200.719 357.582 200.754C357.343 200.789 357.12 200.895 356.941 201.056C356.762 201.218 356.635 201.429 356.575 201.663C356.516 201.897 356.527 202.144 356.608 202.371C356.716 202.676 356.942 202.926 357.234 203.065C358.514 203.674 359.196 204.381 359.343 205.222C359.489 206.063 359.002 208.171 355.577 211.608C355.463 211.721 355.372 211.855 355.31 212.004C355.248 212.153 355.216 212.312 355.216 212.473C355.216 212.634 355.248 212.793 355.31 212.941C355.403 213.165 355.56 213.356 355.762 213.489C355.964 213.623 356.201 213.693 356.443 213.691Z" fill="black"/>
<path d="M336.517 201.395C335.699 203.801 334.115 205.873 332.008 207.293C329.217 209.133 327.328 207.05 327.694 204.04C328.023 201.322 329.875 197.094 332.873 196.447C335.871 195.802 337.455 198.483 336.517 201.395Z" fill="#FFD5BD"/>
<path d="M241.231 459.066C239.915 459.066 238.635 458.883 238.209 458.298C238.1 458.14 238.042 457.953 238.042 457.762C238.042 457.57 238.1 457.383 238.209 457.225C238.292 457.083 238.402 456.959 238.534 456.86C238.666 456.762 238.817 456.691 238.977 456.653C240.695 456.19 244.291 458.237 244.449 458.335C244.491 458.358 244.525 458.394 244.545 458.438C244.565 458.482 244.569 458.531 244.559 458.578C244.552 458.627 244.532 458.673 244.499 458.71C244.466 458.747 244.423 458.773 244.375 458.785C243.337 458.964 242.285 459.058 241.231 459.066ZM239.599 457.067C239.442 457.067 239.287 457.087 239.136 457.128C239.035 457.147 238.939 457.188 238.856 457.247C238.771 457.305 238.7 457.381 238.648 457.47C238.477 457.774 238.538 457.92 238.648 458.006C239.136 458.675 241.743 458.688 243.656 458.42C242.389 457.705 240.994 457.246 239.55 457.067H239.599Z" fill="#4F45E2"/>
<path d="M244.351 458.785H244.254C243.035 458.237 240.537 456.007 240.732 454.837C240.732 454.569 240.963 454.227 241.633 454.155C241.875 454.129 242.119 454.153 242.352 454.224C242.584 454.295 242.8 454.413 242.986 454.569C244.303 455.653 244.583 458.432 244.595 458.542C244.597 458.585 244.588 458.627 244.568 458.666C244.549 458.704 244.521 458.737 244.485 458.761C244.446 458.786 244.397 458.795 244.351 458.785ZM241.828 454.606H241.682C241.243 454.606 241.219 454.825 241.207 454.874C241.097 455.58 242.767 457.311 244.046 458.09C243.93 456.915 243.453 455.805 242.682 454.911C242.443 454.711 242.14 454.603 241.828 454.606Z" fill="#4F45E2"/>
<path d="M256.062 458.542H245.752L247.715 434.681H258.024L256.062 458.542Z" fill="#FFD5BD"/>
<path d="M245.741 457.348H256.989C257.185 457.34 257.377 457.41 257.523 457.542C257.669 457.674 257.757 457.857 257.769 458.054L258.439 467.17C258.447 467.406 258.407 467.642 258.323 467.864C258.239 468.085 258.111 468.287 257.948 468.459C257.785 468.63 257.589 468.767 257.371 468.862C257.154 468.956 256.921 469.007 256.684 469.01C252.638 468.936 246.813 468.705 241.707 468.705C235.748 468.705 235.126 469.022 228.131 469.022C223.903 469.022 223.367 464.745 225.195 464.366C233.505 462.6 235.541 462.404 243.145 458.115C243.93 457.642 244.824 457.378 245.741 457.348Z" fill="black"/>
<path opacity="0.2" d="M247.727 434.693L246.703 446.989H257.013L258.024 434.693H247.727Z" fill="black"/>
<path d="M305.357 459.066C304.489 459.166 303.615 458.926 302.919 458.395C302.791 458.218 302.722 458.005 302.722 457.786C302.722 457.567 302.791 457.354 302.919 457.177C303 457.034 303.11 456.91 303.243 456.813C303.375 456.716 303.527 456.649 303.687 456.616C305.186 456.262 308.038 458.213 308.16 458.298C308.197 458.326 308.225 458.363 308.242 458.406C308.26 458.449 308.265 458.496 308.257 458.541C308.25 458.587 308.228 458.63 308.196 458.662C308.163 458.695 308.12 458.717 308.074 458.724C307.184 458.938 306.273 459.052 305.357 459.066ZM304.065 457.103C303.964 457.091 303.862 457.091 303.761 457.103C303.666 457.122 303.577 457.161 303.499 457.218C303.421 457.275 303.357 457.348 303.31 457.432C303.09 457.834 303.224 458.005 303.31 458.054C303.749 458.639 305.857 458.639 307.392 458.383C306.416 457.719 305.304 457.282 304.138 457.103H304.065Z" fill="#4F45E2"/>
<path d="M308.014 458.785H307.904C306.831 458.201 304.772 455.946 304.991 454.8C305.027 454.62 305.125 454.457 305.267 454.339C305.409 454.221 305.587 454.156 305.771 454.154C305.957 454.131 306.145 454.148 306.323 454.202C306.502 454.257 306.666 454.349 306.807 454.472C308.026 455.446 308.257 458.42 308.257 458.541C308.263 458.586 308.255 458.632 308.236 458.673C308.217 458.714 308.186 458.749 308.148 458.773C308.105 458.79 308.059 458.794 308.014 458.785ZM305.942 454.606H305.832C305.515 454.606 305.479 454.788 305.467 454.849C305.344 455.531 306.685 457.286 307.721 458.042C307.646 456.868 307.222 455.743 306.502 454.812C306.346 454.68 306.147 454.607 305.942 454.606Z" fill="#4F45E2"/>
<path d="M317.445 458.542H307.148L301.969 434.681H312.266L317.445 458.542Z" fill="#FFD5BD"/>
<path d="M306.417 457.347H317.982C318.187 457.346 318.387 457.415 318.547 457.544C318.707 457.672 318.817 457.853 318.859 458.054L320.894 467.17C320.944 467.393 320.942 467.624 320.889 467.846C320.837 468.068 320.734 468.276 320.59 468.453C320.446 468.63 320.263 468.772 320.056 468.868C319.849 468.965 319.623 469.013 319.395 469.01C315.349 468.936 313.387 468.705 308.294 468.705C305.162 468.705 301.152 469.022 296.826 469.022C292.5 469.022 291.951 464.745 293.706 464.366C301.64 462.624 302.236 460.235 304.735 457.944C305.203 457.546 305.802 457.333 306.417 457.347Z" fill="black"/>
<path d="M341.916 323.125C341.916 323.125 284.762 340.467 283.348 363.427C280.752 405.713 301.494 441.748 301.494 441.748H316.946C316.946 441.748 311.072 423.883 308.964 385.581C306.32 337.445 397.34 386.702 380.51 323.125H341.916Z" fill="black"/>
<path opacity="0.2" d="M312.279 434.693H301.969L304.637 446.989H314.948L312.279 434.693Z" fill="black"/>
<path d="M325.404 323.125C325.404 323.125 251.492 328 248.568 367.228C245.216 412.318 244.241 441.748 244.241 441.748H259.548C259.548 441.748 267.42 414.097 274.171 374.345C276.207 362.439 301.457 360.392 325.355 358.978C345.95 357.759 361.768 356.541 363.498 333.728L363.23 323.125H325.404Z" fill="black"/>
<path d="M240.501 437.654C240.416 437.654 241.488 444.966 241.488 444.966H262.704L263.277 438.495L240.501 437.654ZM296.826 437.654C296.741 437.654 298.776 444.966 298.776 444.966H319.98L319.59 438.495L296.826 437.654Z" fill="#4F45E2"/>
<path d="M328.73 355.737L339.077 285.458C339.354 283.555 340.308 281.816 341.762 280.559C343.217 279.301 345.075 278.609 346.998 278.609H408.04C409.19 278.609 410.327 278.857 411.373 279.335C412.419 279.814 413.349 280.513 414.101 281.383C414.853 282.254 415.408 283.277 415.729 284.382C416.05 285.486 416.129 286.647 415.961 287.785L405.968 355.737C405.968 356.519 405.814 357.293 405.514 358.015C405.214 358.737 404.775 359.393 404.222 359.946C403.668 360.498 403.011 360.936 402.288 361.234C401.566 361.532 400.791 361.685 400.009 361.684H288.734C288.735 360.105 289.363 358.591 290.481 357.474C291.034 356.922 291.691 356.484 292.413 356.185C293.136 355.887 293.911 355.735 294.693 355.737H328.73Z" fill="#4F45E2"/>
<path opacity="0.5" d="M328.73 355.737L339.077 285.458C339.354 283.555 340.308 281.816 341.762 280.559C343.217 279.301 345.075 278.609 346.998 278.609H408.04C409.19 278.609 410.327 278.857 411.373 279.335C412.419 279.814 413.349 280.513 414.101 281.383C414.853 282.254 415.408 283.277 415.729 284.382C416.05 285.486 416.129 286.647 415.961 287.785L405.968 355.737C405.968 356.519 405.814 357.293 405.514 358.015C405.214 358.737 404.775 359.393 404.222 359.946C403.668 360.498 403.011 360.936 402.288 361.234C401.566 361.532 400.791 361.685 400.009 361.684H288.734C288.735 360.105 289.363 358.591 290.481 357.474C291.034 356.922 291.691 356.484 292.413 356.185C293.136 355.887 293.911 355.735 294.693 355.737H328.73Z" fill="white"/>
<path opacity="0.3" d="M346.998 278.609H408.04C409.19 278.609 410.327 278.857 411.373 279.335C412.419 279.814 413.349 280.513 414.101 281.383C414.853 282.254 415.408 283.277 415.729 284.382C416.05 285.486 416.129 286.647 415.961 287.785L405.968 355.737C405.968 356.519 405.814 357.293 405.514 358.015C405.215 358.737 404.775 359.393 404.222 359.946C403.668 360.498 403.011 360.936 402.289 361.234C401.566 361.532 400.791 361.685 400.009 361.684H335.286L346.998 278.609Z" fill="#4F45E2"/>
<path d="M405.188 469.9H408.637L400.009 361.684H396.548L405.188 469.9Z" fill="#4F45E2"/>
<path opacity="0.6" d="M405.188 469.9H408.637L400.009 361.684H396.548L405.188 469.9Z" fill="white"/>
<path d="M346.51 469.9H349.959L341.319 361.684H337.87L346.51 469.9Z" fill="#4F45E2"/>
<path opacity="0.6" d="M346.51 469.9H349.959L341.319 361.684H337.87L346.51 469.9Z" fill="white"/>
<path d="M341.197 469.9H344.658L353.286 361.684H349.837L341.197 469.9Z" fill="#4F45E2"/>
<path opacity="0.7" d="M341.197 469.9H344.658L353.286 361.684H349.837L341.197 469.9Z" fill="white"/>
<path d="M282.52 469.9H285.968L294.608 361.684H291.16L282.52 469.9Z" fill="#4F45E2"/>
<path opacity="0.7" d="M282.52 469.9H285.968L294.608 361.684H291.16L282.52 469.9Z" fill="white"/>
<path d="M82.2134 124.896C82.2134 124.896 98.2014 117.885 102.894 137.652C106.697 153.571 115.052 156.249 114.69 159.532C114.33 162.815 86.4274 170.449 70.6685 157.648L82.2134 124.896Z" fill="black"/>
<path d="M100.793 191.45C101.336 192.913 101.923 194.36 102.552 195.789C103.164 197.181 103.8 198.563 104.459 199.934C105.772 202.675 107.256 205.325 108.764 207.928C111.82 213.244 115.364 218.263 119.35 222.922L120.115 223.789C120.389 224.098 120.526 224.292 121.097 224.875C122.158 225.942 123.469 226.728 124.911 227.158C126.23 227.529 127.613 227.607 128.965 227.387C130.043 227.217 131.094 226.91 132.094 226.473C133.721 225.746 135.255 224.826 136.662 223.733C137.945 222.747 139.172 221.691 140.339 220.57C144.663 216.259 148.472 211.461 151.69 206.273L147.636 203.212C143.773 207.311 139.621 211.127 135.211 214.631C133.314 216.182 131.188 217.43 128.908 218.331C127.995 218.639 127.367 218.502 127.526 218.457C127.686 218.411 127.675 218.457 127.64 218.457C127.606 218.457 127.389 218.125 127.206 217.874L126.578 217.052C123.239 212.585 120.224 207.883 117.557 202.983C116.21 200.517 114.954 197.993 113.731 195.458C113.125 194.194 112.535 192.922 111.961 191.644C111.403 190.399 110.87 189.142 110.363 187.876L100.793 191.45Z" fill="#FFD5BD"/>
<path d="M104.048 177.712C108.319 177.551 115.732 188.709 115.833 193.082C115.933 197.455 104.721 206.546 104.721 206.546C104.721 206.546 91.7721 190.296 93.5419 185.043C95.4371 179.573 97.8358 177.929 104.048 177.712Z" fill="black"/>
<path opacity="0.2" d="M104.756 181.458L110.534 199.558L105.326 205.85L104.756 181.458Z" fill="black"/>
<path d="M148.549 208.133L160.361 205.129L152.375 198.827C152.375 198.827 146.436 201.328 146.06 205.484L148.549 208.133Z" fill="#FFD5BD"/>
<path d="M165.718 200.167C165.653 198.703 161.219 195.795 159.585 195.598C157.953 195.402 152.231 198.922 152.231 198.922L160.351 205.134C160.351 205.134 165.783 201.629 165.718 200.167ZM73.8889 456.451H83.9153L83.4246 433.224H73.3982L73.8889 456.451Z" fill="#FFD5BD"/>
<path d="M84.8858 455.286H73.581C73.3874 455.285 73.1998 455.353 73.0528 455.479C72.9058 455.605 72.8094 455.78 72.7815 455.972L71.5023 464.891C71.4782 465.116 71.5019 465.344 71.5719 465.56C71.642 465.775 71.7568 465.973 71.9088 466.142C72.0608 466.31 72.2466 466.444 72.4541 466.535C72.6615 466.627 72.886 466.673 73.1126 466.672C77.041 466.603 78.937 466.375 83.8923 466.375C86.9413 466.375 95.6894 466.695 99.8803 466.695C104.071 466.695 104.311 462.526 102.564 462.127C94.7071 460.437 89.1573 458.107 86.508 455.881C86.0496 455.506 85.478 455.296 84.8858 455.286Z" fill="black"/>
<path opacity="0.2" d="M83.4239 433.224L83.6752 445.203H73.6488L73.3855 433.224H83.4239Z" fill="black"/>
<path d="M108.079 182.679C108.296 189.029 107.2 203.84 100.531 238.316L59.809 237.105C60.9501 220.558 51.1407 178.262 54.3956 176.09C57.6513 173.918 65.9325 174.493 71.7537 174.321C77.9255 174.065 84.1077 174.252 90.2528 174.88C94.9576 175.45 100.04 176.422 103.374 177.164C104.66 177.429 105.821 178.115 106.673 179.114C107.525 180.113 108.019 181.368 108.079 182.679Z" fill="black"/>
<path d="M74.209 153.571C75.2025 159.555 76.0363 170.494 71.7537 174.332C74.9725 179.399 80.0397 183.012 85.8792 184.404C95.2664 179.641 90.2528 174.88 90.2528 174.88C83.6641 173.098 83.984 168.176 85.2743 163.586L74.209 153.571Z" fill="#FFD5BD"/>
<path d="M85.8792 184.404L84.6687 182.029L78.1477 183.502L85.8792 184.404Z" fill="#A0A3BD"/>
<path d="M84.6686 182.028C82.5676 181.069 73.2019 173.021 72.5069 172.79C71.8127 172.558 67.9473 173.021 67.6425 173.874C67.3369 174.727 73.0016 192.631 74.8481 193.391C76.6946 194.151 81.1744 184.312 84.6686 182.028Z" fill="white"/>
<path d="M85.8792 184.404L86.4273 182.029L90.4243 182.314L85.8792 184.404Z" fill="#A0A3BD"/>
<path d="M86.4272 182.029C89.659 179.882 87.9266 174.012 88.5514 173.43C89.1762 172.848 93.198 174.156 93.4166 174.503C93.6344 174.85 95.6868 193.988 94.4556 193.391C93.2243 192.794 89.9215 184.313 86.4272 182.029Z" fill="white"/>
<path opacity="0.2" d="M78.7189 157.648L85.2622 163.586C84.9496 164.654 84.7281 165.746 84.5999 166.852C82.0759 166.406 78.6734 163.518 78.4907 160.857C78.3714 159.782 78.4487 158.695 78.7189 157.648Z" fill="black"/>
<path d="M70.954 139.868C71.0793 149.825 70.954 154.039 75.682 159.372C82.8533 167.365 95.0948 165.082 97.9044 155.284C100.462 146.48 99.8339 131.68 90.3102 127.249C87.1461 125.76 83.5298 125.55 80.2143 126.661C76.8988 127.771 74.1395 130.118 72.5109 133.213C71.4333 135.262 70.8968 137.553 70.954 139.868Z" fill="#FFD5BD"/>
<path d="M71.7648 144.652L84.2689 144.035C84.3446 144.032 84.4159 143.999 84.4672 143.944C84.5185 143.888 84.5456 143.814 84.5426 143.739C84.5416 143.7 84.5326 143.662 84.5163 143.627C84.5001 143.592 84.4768 143.561 84.4479 143.535C84.4191 143.509 84.3853 143.49 84.3486 143.477C84.3119 143.465 84.2731 143.461 84.2346 143.464L71.7305 144.081C71.6739 144.085 71.6196 144.106 71.5751 144.141C71.5305 144.176 71.4976 144.224 71.4808 144.278C71.4693 144.314 71.4649 144.351 71.468 144.389C71.4693 144.426 71.4781 144.462 71.4939 144.496C71.5097 144.53 71.5321 144.56 71.5599 144.584C71.5877 144.609 71.6202 144.628 71.6554 144.639C71.6906 144.651 71.7279 144.655 71.7648 144.652Z" fill="white"/>
<path d="M100.531 238.316C100.531 238.316 95.3805 312.828 92.5365 343.284C89.5561 374.973 85.6852 442.885 85.6852 442.885H72.1302C72.1302 442.885 69.2975 373.819 70.3715 342.565C71.5134 308.5 70.7945 237.436 70.7945 237.436L100.531 238.316Z" fill="black"/>
<path d="M70.8743 443.365H86.7816L87.9578 438.295L70.1313 437.666L70.8743 443.365Z" fill="#4F45E2"/>
<path opacity="0.2" d="M70.8966 264.043C72.5404 262.216 74.3223 263.164 76.3547 268.372C83.127 286.141 75.9094 314.495 70.6453 330.825C70.9996 310.498 70.9884 283.754 70.8966 264.043Z" fill="black"/>
<path d="M87.2834 144.162C87.2834 144.972 87.6489 145.646 88.1748 145.669C88.6998 145.691 89.1563 145.063 89.2026 144.252C89.248 143.442 88.8483 142.768 88.3112 142.745C87.775 142.722 87.2834 143.35 87.2834 144.162ZM96.4193 144.435C96.4193 145.246 96.7848 145.919 97.3098 145.943C97.8357 145.966 98.2921 145.337 98.3376 144.526C98.3839 143.715 97.9841 143.042 97.4471 143.019C96.9101 142.997 96.4193 143.567 96.4193 144.435Z" fill="black"/>
<path d="M97.2302 142.997L99.1948 142.528C99.1948 142.528 98.1215 144.001 97.2302 142.997Z" fill="black"/>
<path d="M92.9029 145.041C93.5296 146.92 94.4133 148.703 95.5289 150.339C95.1035 150.618 94.6216 150.798 94.118 150.867C93.6145 150.936 93.1018 150.892 92.6172 150.739L92.9029 145.041Z" fill="#FF97B8"/>
<path d="M88.06 153.685C88.4367 153.763 88.8181 153.814 89.2019 153.834C89.2493 153.836 89.2964 153.824 89.3371 153.799C89.3778 153.775 89.4104 153.739 89.4309 153.696C89.4442 153.668 89.4518 153.637 89.4533 153.605C89.451 153.544 89.4265 153.486 89.3845 153.442C89.3425 153.398 89.2858 153.371 89.2251 153.365C88.2182 153.34 87.2316 153.076 86.3463 152.596C85.461 152.115 84.7021 151.432 84.1317 150.602C84.0982 150.548 84.045 150.508 83.9832 150.493C83.9524 150.485 83.9203 150.484 83.8889 150.489C83.8575 150.494 83.8274 150.505 83.8005 150.522C83.7602 150.545 83.7279 150.58 83.7079 150.621C83.688 150.663 83.6813 150.71 83.6888 150.756C83.6936 150.786 83.7047 150.816 83.7207 150.841C84.2153 151.583 84.8546 152.217 85.6002 152.706C86.3459 153.195 87.1825 153.528 88.06 153.685Z" fill="black"/>
<path d="M67.8708 148.843C68.1605 149.751 68.6263 150.592 69.2417 151.319C69.857 152.046 70.6098 152.645 71.4569 153.08C73.7406 154.222 75.3621 152.315 75.145 149.905C74.9511 147.748 73.5348 144.527 71.0451 144.379C70.5011 144.355 69.9598 144.468 69.4707 144.707C68.9815 144.946 68.5599 145.304 68.2444 145.748C67.9289 146.192 67.7294 146.708 67.6641 147.248C67.5989 147.789 67.6699 148.337 67.8708 148.843Z" fill="#FFD5BD"/>
<path d="M83.7095 141.375C83.8067 141.397 83.9082 141.386 83.9989 141.345C84.0896 141.304 84.1644 141.234 84.2122 141.147C85.2966 139.24 88.1174 138.943 88.1406 138.931C88.2022 138.925 88.2621 138.908 88.3168 138.879C88.3715 138.85 88.4199 138.81 88.4592 138.762C88.4984 138.714 88.5278 138.659 88.5456 138.6C88.5634 138.541 88.5692 138.479 88.5627 138.417C88.5535 138.325 88.5171 138.237 88.4582 138.165C88.3993 138.093 88.3204 138.04 88.2315 138.013C88.1725 137.995 88.1102 137.988 88.0488 137.995C87.9123 137.995 84.7149 138.337 83.3895 140.678C83.3574 140.732 83.3364 140.792 83.3276 140.854C83.3189 140.916 83.3226 140.979 83.3386 141.04C83.3545 141.101 83.3824 141.157 83.4206 141.207C83.4588 141.257 83.5066 141.299 83.5611 141.33L83.7095 141.375ZM99.3655 139.776C99.4462 139.795 99.5307 139.792 99.6094 139.766C99.6881 139.739 99.7579 139.691 99.8108 139.628C99.8561 139.584 99.8922 139.532 99.9169 139.474C99.9416 139.416 99.9543 139.354 99.9543 139.291C99.9543 139.228 99.9416 139.166 99.9169 139.108C99.8922 139.05 99.8561 138.998 99.8108 138.954C99.2644 138.436 98.6022 138.056 97.8792 137.845C97.1562 137.634 96.3933 137.6 95.6542 137.744C95.5316 137.775 95.4266 137.855 95.3624 137.964C95.2983 138.073 95.2801 138.203 95.3118 138.326C95.3463 138.447 95.4259 138.55 95.5342 138.614C95.6425 138.677 95.7712 138.697 95.8936 138.668C96.4796 138.557 97.0837 138.59 97.6545 138.763C98.2253 138.936 98.7458 139.244 99.1716 139.662C99.2263 139.715 99.2928 139.754 99.3655 139.776Z" fill="black"/>
<path d="M49.3708 187.601C48.0266 192.983 46.6411 198.354 45.2142 203.714C43.7867 209.058 42.2219 214.392 40.4983 219.553C38.7739 224.715 36.6385 229.831 34.6628 235.084C32.687 240.337 30.6769 245.635 28.8616 250.991L33.4291 253.15C36.3983 248.308 39.1393 243.386 41.846 238.384C43.1786 235.887 44.4793 233.359 45.7513 230.801C47.078 228.196 48.2784 225.529 49.3485 222.808C51.5293 217.395 53.3455 211.948 54.9661 206.466C56.5884 200.984 58.0726 195.503 59.3286 189.862L49.3708 187.601Z" fill="#FFD5BD"/>
<path d="M54.3956 176.09C50.2845 177.232 45.3866 187.449 44.9637 191.106C44.5391 194.765 60.4593 202.892 60.4593 202.892C60.4593 202.892 66.5797 191.347 65.0268 186.014C63.3942 180.475 59.1004 174.811 54.3956 176.09Z" fill="black"/>
<path d="M88.6543 457.045C89.5114 457.119 90.3685 456.902 91.0865 456.428C91.2438 456.286 91.3651 456.108 91.4406 455.909C91.516 455.711 91.5434 455.497 91.5206 455.286C91.5103 455.156 91.4672 455.03 91.3954 454.92C91.3236 454.81 91.2253 454.72 91.1097 454.658C89.8872 453.985 85.8902 456.028 85.3994 456.257C85.3558 456.281 85.3206 456.318 85.2983 456.363C85.276 456.408 85.2676 456.458 85.2742 456.508C85.2792 456.558 85.3012 456.604 85.3366 456.64C85.3719 456.675 85.4183 456.698 85.4681 456.703C86.5166 456.918 87.5835 457.033 88.6543 457.045ZM90.4474 454.966C90.5958 454.958 90.745 454.986 90.8807 455.047C90.9289 455.071 90.9693 455.109 90.9972 455.155C91.0258 455.202 91.041 455.255 91.041 455.31C91.0632 455.45 91.0496 455.593 91.0017 455.727C90.9537 455.86 90.8728 455.98 90.7666 456.074C90.1617 456.622 88.4828 456.714 86.29 456.348C87.5858 455.652 88.9923 455.184 90.4474 454.966Z" fill="#4F45E2"/>
<path d="M85.5479 456.691H85.6388C86.8382 456.143 89.2018 453.985 89.0653 452.854C89.0653 452.58 88.8251 452.249 88.174 452.18C87.9367 452.153 87.6963 452.175 87.4682 452.246C87.2401 452.317 87.0293 452.435 86.8494 452.592C85.5934 453.642 85.3651 456.337 85.354 456.451C85.3502 456.493 85.3579 456.536 85.3763 456.574C85.394 456.612 85.4215 456.645 85.4561 456.669C85.4849 456.682 85.5161 456.689 85.5479 456.691ZM87.9346 452.626H88.0718C88.5051 452.626 88.5394 452.842 88.5514 452.9C88.6536 453.585 87.0552 455.286 85.8336 456.029C85.9285 454.889 86.3756 453.808 87.1127 452.934C87.3385 452.732 87.6314 452.622 87.9346 452.626Z" fill="#4F45E2"/>
<path d="M15.0328 456.451H25.0584L31.1341 433.224H21.0957L15.0328 456.451Z" fill="#FFD5BD"/>
<path d="M14.941 455.286H26.2123C26.3028 455.278 26.3939 455.291 26.4788 455.323C26.5638 455.355 26.6402 455.407 26.7022 455.473C26.7649 455.539 26.812 455.618 26.8399 455.704C26.8678 455.79 26.8758 455.882 26.8634 455.972L26.178 464.891C26.1035 465.373 25.8633 465.815 25.4988 466.14C25.1342 466.465 24.6679 466.653 24.1799 466.672C20.2627 466.603 18.4696 466.375 13.468 466.375C10.419 466.375 7.38115 466.695 3.19025 466.695C-1.00065 466.695 -0.326372 462.526 1.51213 462.127C9.74551 460.437 10.0192 458.107 13.16 455.881C13.6804 455.508 14.3011 455.301 14.941 455.286Z" fill="black"/>
<path opacity="0.2" d="M31.1231 433.224L28.0054 445.203H17.967L21.0967 433.224H31.1231Z" fill="black"/>
<path d="M59.8081 237.105C48.2177 252.635 41.1598 309.665 36.0328 340.155C30.7001 371.867 17.5903 442.931 17.5903 442.931H31.1453C31.1453 442.931 49.5878 370.645 59.2488 340.041C69.9255 306.25 85.8792 237.151 85.8792 237.151L59.8081 237.105Z" fill="black"/>
<path d="M16.6199 443.365H32.5392L33.7034 438.295L15.877 437.666L16.6199 443.365Z" fill="#4F45E2"/>
<path d="M13.6044 455.572C12.7963 455.271 12.1155 454.703 11.6749 453.962C11.5921 453.762 11.5592 453.546 11.5791 453.331C11.599 453.116 11.671 452.909 11.789 452.728C11.8522 452.616 11.9431 452.521 12.0529 452.453C12.1627 452.385 12.288 452.346 12.417 452.34C13.8214 452.261 16.5504 455.823 16.8592 456.234C16.8872 456.275 16.9022 456.322 16.9022 456.371C16.9022 456.42 16.8872 456.468 16.8592 456.508C16.8337 456.549 16.7951 456.581 16.7495 456.598C16.7039 456.614 16.654 456.615 16.6079 456.6C15.5767 456.353 14.5713 456.009 13.6051 455.572H13.6044ZM12.8862 452.923C12.7514 452.853 12.6029 452.814 12.4513 452.809C12.3975 452.81 12.3452 452.827 12.3007 452.857C12.2562 452.888 12.2212 452.93 12.1999 452.979C12.1198 453.095 12.0696 453.228 12.0537 453.368C12.0378 453.507 12.0568 453.649 12.109 453.779C12.4282 454.533 13.8789 455.332 16.0373 455.96C15.1653 454.777 14.1004 453.75 12.8862 452.923Z" fill="#4F45E2"/>
<path d="M16.5626 456.588C16.5318 456.576 16.5044 456.556 16.4828 456.531C15.6377 455.526 14.4392 452.557 15.0895 451.609C15.2491 451.381 15.5691 451.164 16.2314 451.392C16.4555 451.471 16.6612 451.595 16.836 451.756C17.0108 451.917 17.151 452.111 17.248 452.328C17.9335 453.813 16.9743 456.348 16.94 456.463C16.9247 456.501 16.8998 456.535 16.8676 456.561C16.8355 456.587 16.7972 456.604 16.7565 456.611C16.7246 456.623 16.6904 456.627 16.6567 456.623C16.623 456.619 16.5907 456.607 16.5626 456.588ZM16.1636 451.895L16.0263 451.838C15.6154 451.689 15.5124 451.838 15.4893 451.838C15.0903 452.397 15.8085 454.624 16.6312 455.823C17.0387 454.754 17.1028 453.584 16.8147 452.477C16.6775 452.208 16.4458 452.001 16.1636 451.895Z" fill="#4F45E2"/>
<path d="M88.095 142.779L90.0588 142.311C90.0588 142.311 88.9855 143.784 88.095 142.779Z" fill="black"/>
<path d="M59.272 234.65L58.1301 238.27C57.9817 238.544 58.3128 238.841 58.7812 238.864L100.69 240.109C101.056 240.109 101.364 239.948 101.399 239.72L101.867 236.077C101.867 235.826 101.593 235.609 101.193 235.598L59.9574 234.364C59.8283 234.349 59.6975 234.368 59.5776 234.418C59.4576 234.468 59.3524 234.548 59.272 234.65Z" fill="#4F45E2"/>
<path d="M64.674 239.48H63.5313C63.3143 239.48 63.1547 239.354 63.1658 239.217L63.8281 234.49C63.8281 234.353 64.0452 234.25 64.2622 234.25H65.4041C65.6212 234.25 65.7808 234.375 65.7696 234.512L65.1073 239.24C65.0841 239.378 64.891 239.48 64.674 239.48ZM97.5612 240.451H96.4193C96.2023 240.451 96.0427 240.325 96.0539 240.188L96.7162 235.472C96.7162 235.335 96.9332 235.22 97.1503 235.232H98.2922C98.5092 235.232 98.6688 235.357 98.6576 235.495L97.9953 240.211C97.9722 240.359 97.7783 240.462 97.5612 240.451ZM81.1176 239.959H79.9749C79.7587 239.959 79.5983 239.834 79.6095 239.686L80.2718 234.97C80.2718 234.832 80.4888 234.729 80.7059 234.729H81.8477C82.0648 234.729 82.2252 234.856 82.2132 234.992L81.5509 239.709C81.574 239.868 81.3339 239.971 81.1176 239.959Z" fill="black"/>
<path d="M30.0144 249.187L22.0212 256.507L32.1394 257.808C32.1394 257.808 35.9297 252.613 34.1263 248.856L30.0144 249.187Z" fill="#FFD5BD"/>
<path d="M20.6617 264.832C21.6775 266.5 28.1944 265.747 29.1919 265.46C30.1909 265.172 32.1611 257.808 32.1611 257.808L22.0437 256.518C22.0437 256.518 19.6467 263.164 20.6617 264.832Z" fill="#FFD5BD"/>
<path d="M81.0035 125.936C81.0035 125.936 89.4196 122.076 98.7031 133.781C87.5236 137.104 80.01 134.797 80.01 134.797L81.0035 125.936Z" fill="black"/>
<path d="M82.2132 124.896C82.2132 124.896 85.5296 166.227 82.2132 168.987C78.8977 171.747 59.3779 155.091 59.1122 153.559C58.8457 152.027 60.7672 121.345 82.2132 124.896Z" fill="black"/>
<path d="M88.2091 150.979C90.8583 150.979 93.2905 147.701 93.6448 143.67C93.7946 142.588 93.7265 141.487 93.4445 140.432C93.1617 139.377 92.6706 138.389 92.0002 137.526C91.6834 137.153 91.2901 136.851 90.8468 136.642C90.4036 136.434 89.9207 136.322 89.4308 136.316C86.7815 136.316 84.3374 139.593 83.9839 143.625C83.8318 144.707 83.9002 145.81 84.1847 146.865C84.4692 147.921 84.9641 148.908 85.6396 149.768C85.9564 150.142 86.3497 150.443 86.793 150.652C87.2362 150.861 87.7191 150.972 88.2091 150.979ZM89.4308 136.887C89.8397 136.897 90.2422 136.992 90.6117 137.167C90.982 137.342 91.3108 137.593 91.5773 137.903C92.1936 138.708 92.6433 139.627 92.9002 140.608C93.1571 141.588 93.216 142.61 93.0735 143.613C92.7535 147.347 90.5615 150.396 88.2091 150.396C87.7982 150.39 87.3936 150.294 87.023 150.117C86.6524 149.94 86.3245 149.684 86.0618 149.368C85.4421 148.565 84.9895 147.647 84.7306 146.666C84.4717 145.685 84.4118 144.663 84.5544 143.659C84.8856 139.924 87.0672 136.887 89.4308 136.887ZM98.1557 150.979C100.302 150.979 102.267 147.77 102.62 143.67C102.86 140.918 102.289 138.417 101.136 137.161C100.92 136.903 100.651 136.695 100.348 136.549C100.044 136.403 99.7137 136.324 99.3774 136.316C97.2308 136.316 95.2774 139.525 94.912 143.625C94.6837 146.377 95.2551 148.866 96.4081 150.133C96.6235 150.389 96.8905 150.597 97.1916 150.743C97.4928 150.888 97.8213 150.969 98.1557 150.979ZM99.3774 136.887C99.6349 136.893 99.888 136.956 100.119 137.07C100.35 137.184 100.553 137.348 100.713 137.55C101.753 138.692 102.278 141.066 102.05 143.625C101.741 147.302 99.9487 150.408 98.1557 150.408C97.9004 150.398 97.6502 150.334 97.4218 150.22C97.1933 150.106 96.9919 149.944 96.8311 149.746C95.7913 148.604 95.2663 146.228 95.4833 143.67C95.8033 139.993 97.562 136.887 99.3774 136.887Z" fill="white"/>
<path d="M93.3591 143.933H93.4844C93.7254 143.805 93.994 143.738 94.2668 143.738C94.5395 143.738 94.8081 143.805 95.0492 143.933C95.1128 143.971 95.1892 143.984 95.2618 143.967C95.3344 143.95 95.3973 143.905 95.437 143.842C95.4584 143.811 95.4731 143.777 95.4801 143.74C95.4917 143.686 95.4861 143.629 95.4641 143.577C95.4422 143.526 95.4048 143.482 95.3572 143.453C95.0311 143.283 94.6688 143.194 94.3011 143.194C93.9334 143.194 93.5711 143.283 93.245 143.453C93.177 143.485 93.1238 143.542 93.0963 143.612C93.0687 143.682 93.0688 143.76 93.0966 143.83C93.1293 143.867 93.1701 143.895 93.2157 143.913C93.2613 143.93 93.3104 143.937 93.3591 143.933Z" fill="white"/>
</g>
<defs>
<filter id="filter0_d_32_5578" x="383.714" y="46.2307" width="192.521" height="133.134" filterUnits="userSpaceOnUse" color-interpolation-filters="sRGB">
<feFlood flood-opacity="0" result="BackgroundImageFix"/>
<feColorMatrix in="SourceAlpha" type="matrix" values="0 0 0 0 0 0 0 0 0 0 0 0 0 0 0 0 0 0 127 0" result="hardAlpha"/>
<feOffset dy="4.78778"/>
<feGaussianBlur stdDeviation="7.97963"/>
<feColorMatrix type="matrix" values="0 0 0 0 0.247059 0 0 0 0 0.501961 0 0 0 0 0.992157 0 0 0 0.05 0"/>
<feBlend mode="normal" in2="BackgroundImageFix" result="effect1_dropShadow_32_5578"/>
<feBlend mode="normal" in="SourceGraphic" in2="effect1_dropShadow_32_5578" result="shape"/>
</filter>
<filter id="filter1_d_32_5578" x="408.693" y="74.7316" width="65.231" height="21.1364" filterUnits="userSpaceOnUse" color-interpolation-filters="sRGB">
<feFlood flood-opacity="0" result="BackgroundImageFix"/>
<feColorMatrix in="SourceAlpha" type="matrix" values="0 0 0 0 0 0 0 0 0 0 0 0 0 0 0 0 0 0 127 0" result="hardAlpha"/>
<feOffset dy="2.89022"/>
<feGaussianBlur stdDeviation="3.61238"/>
<feColorMatrix type="matrix" values="0 0 0 0 0.247059 0 0 0 0 0.501961 0 0 0 0 0.992157 0 0 0 0.29 0"/>
<feBlend mode="normal" in2="BackgroundImageFix" result="effect1_dropShadow_32_5578"/>
<feBlend mode="normal" in="SourceGraphic" in2="effect1_dropShadow_32_5578" result="shape"/>
</filter>
<filter id="filter2_d_32_5578" x="408.694" y="87.5317" width="129.474" height="21.1364" filterUnits="userSpaceOnUse" color-interpolation-filters="sRGB">
<feFlood flood-opacity="0" result="BackgroundImageFix"/>
<feColorMatrix in="SourceAlpha" type="matrix" values="0 0 0 0 0 0 0 0 0 0 0 0 0 0 0 0 0 0 127 0" result="hardAlpha"/>
<feOffset dy="2.89022"/>
<feGaussianBlur stdDeviation="3.61238"/>
<feColorMatrix type="matrix" values="0 0 0 0 0.247059 0 0 0 0 0.501961 0 0 0 0 0.992157 0 0 0 0.29 0"/>
<feBlend mode="normal" in2="BackgroundImageFix" result="effect1_dropShadow_32_5578"/>
<feBlend mode="normal" in="SourceGraphic" in2="effect1_dropShadow_32_5578" result="shape"/>
</filter>
<filter id="filter3_d_32_5578" x="408.848" y="100.249" width="58.3621" height="21.1364" filterUnits="userSpaceOnUse" color-interpolation-filters="sRGB">
<feFlood flood-opacity="0" result="BackgroundImageFix"/>
<feColorMatrix in="SourceAlpha" type="matrix" values="0 0 0 0 0 0 0 0 0 0 0 0 0 0 0 0 0 0 127 0" result="hardAlpha"/>
<feOffset dy="2.89022"/>
<feGaussianBlur stdDeviation="3.61238"/>
<feColorMatrix type="matrix" values="0 0 0 0 0.247059 0 0 0 0 0.501961 0 0 0 0 0.992157 0 0 0 0.29 0"/>
<feBlend mode="normal" in2="BackgroundImageFix" result="effect1_dropShadow_32_5578"/>
<feBlend mode="normal" in="SourceGraphic" in2="effect1_dropShadow_32_5578" result="shape"/>
</filter>
<filter id="filter4_d_32_5578" x="408.694" y="113.133" width="108.677" height="21.1364" filterUnits="userSpaceOnUse" color-interpolation-filters="sRGB">
<feFlood flood-opacity="0" result="BackgroundImageFix"/>
<feColorMatrix in="SourceAlpha" type="matrix" values="0 0 0 0 0 0 0 0 0 0 0 0 0 0 0 0 0 0 127 0" result="hardAlpha"/>
<feOffset dy="2.89022"/>
<feGaussianBlur stdDeviation="3.61238"/>
<feColorMatrix type="matrix" values="0 0 0 0 0.247059 0 0 0 0 0.501961 0 0 0 0 0.992157 0 0 0 0.29 0"/>
<feBlend mode="normal" in2="BackgroundImageFix" result="effect1_dropShadow_32_5578"/>
<feBlend mode="normal" in="SourceGraphic" in2="effect1_dropShadow_32_5578" result="shape"/>
</filter>
<filter id="filter5_d_32_5578" x="408.745" y="125.933" width="75.7579" height="21.1364" filterUnits="userSpaceOnUse" color-interpolation-filters="sRGB">
<feFlood flood-opacity="0" result="BackgroundImageFix"/>
<feColorMatrix in="SourceAlpha" type="matrix" values="0 0 0 0 0 0 0 0 0 0 0 0 0 0 0 0 0 0 127 0" result="hardAlpha"/>
<feOffset dy="2.89022"/>
<feGaussianBlur stdDeviation="3.61238"/>
<feColorMatrix type="matrix" values="0 0 0 0 0.247059 0 0 0 0 0.501961 0 0 0 0 0.992157 0 0 0 0.29 0"/>
<feBlend mode="normal" in2="BackgroundImageFix" result="effect1_dropShadow_32_5578"/>
<feBlend mode="normal" in="SourceGraphic" in2="effect1_dropShadow_32_5578" result="shape"/>
</filter>
<filter id="filter6_d_32_5578" x="119.231" y="112.504" width="153.291" height="157.413" filterUnits="userSpaceOnUse" color-interpolation-filters="sRGB">
<feFlood flood-opacity="0" result="BackgroundImageFix"/>
<feColorMatrix in="SourceAlpha" type="matrix" values="0 0 0 0 0 0 0 0 0 0 0 0 0 0 0 0 0 0 127 0" result="hardAlpha"/>
<feOffset dy="4.78778"/>
<feGaussianBlur stdDeviation="7.97963"/>
<feColorMatrix type="matrix" values="0 0 0 0 1 0 0 0 0 0.505882 0 0 0 0 0.223529 0 0 0 0.1 0"/>
<feBlend mode="normal" in2="BackgroundImageFix" result="effect1_dropShadow_32_5578"/>
<feBlend mode="normal" in="SourceGraphic" in2="effect1_dropShadow_32_5578" result="shape"/>
</filter>
<filter id="filter7_d_32_5578" x="184.346" y="138.223" width="63.1627" height="76.2513" filterUnits="userSpaceOnUse" color-interpolation-filters="sRGB">
<feFlood flood-opacity="0" result="BackgroundImageFix"/>
<feColorMatrix in="SourceAlpha" type="matrix" values="0 0 0 0 0 0 0 0 0 0 0 0 0 0 0 0 0 0 127 0" result="hardAlpha"/>
<feOffset dy="3.10886"/>
<feGaussianBlur stdDeviation="3.10886"/>
<feColorMatrix type="matrix" values="0 0 0 0 1 0 0 0 0 0.760784 0 0 0 0 0.14902 0 0 0 0.21 0"/>
<feBlend mode="normal" in2="BackgroundImageFix" result="effect1_dropShadow_32_5578"/>
<feBlend mode="normal" in="SourceGraphic" in2="effect1_dropShadow_32_5578" result="shape"/>
</filter>
<filter id="filter8_d_32_5578" x="150.953" y="137.898" width="80.5468" height="47.2434" filterUnits="userSpaceOnUse" color-interpolation-filters="sRGB">
<feFlood flood-opacity="0" result="BackgroundImageFix"/>
<feColorMatrix in="SourceAlpha" type="matrix" values="0 0 0 0 0 0 0 0 0 0 0 0 0 0 0 0 0 0 127 0" result="hardAlpha"/>
<feOffset dy="3.10886"/>
<feGaussianBlur stdDeviation="3.10886"/>
<feColorMatrix type="matrix" values="0 0 0 0 1 0 0 0 0 0.505882 0 0 0 0 0.223529 0 0 0 0.16 0"/>
<feBlend mode="normal" in2="BackgroundImageFix" result="effect1_dropShadow_32_5578"/>
<feBlend mode="normal" in="SourceGraphic" in2="effect1_dropShadow_32_5578" result="shape"/>
</filter>
<filter id="filter9_d_32_5578" x="138.027" y="150.435" width="87.336" height="98.4999" filterUnits="userSpaceOnUse" color-interpolation-filters="sRGB">
<feFlood flood-opacity="0" result="BackgroundImageFix"/>
<feColorMatrix in="SourceAlpha" type="matrix" values="0 0 0 0 0 0 0 0 0 0 0 0 0 0 0 0 0 0 127 0" result="hardAlpha"/>
<feOffset dy="4.6625"/>
<feGaussianBlur stdDeviation="6.21693"/>
<feColorMatrix type="matrix" values="0 0 0 0 1 0 0 0 0 0.223529 0 0 0 0 0.317647 0 0 0 0.34 0"/>
<feBlend mode="normal" in2="BackgroundImageFix" result="effect1_dropShadow_32_5578"/>
<feBlend mode="normal" in="SourceGraphic" in2="effect1_dropShadow_32_5578" result="shape"/>
</filter>
<filter id="filter10_d_32_5578" x="204.44" y="9.53674e-07" width="177.995" height="116.284" filterUnits="userSpaceOnUse" color-interpolation-filters="sRGB">
<feFlood flood-opacity="0" result="BackgroundImageFix"/>
<feColorMatrix in="SourceAlpha" type="matrix" values="0 0 0 0 0 0 0 0 0 0 0 0 0 0 0 0 0 0 127 0" result="hardAlpha"/>
<feOffset dy="4.78778"/>
<feGaussianBlur stdDeviation="7.97963"/>
<feColorMatrix type="matrix" values="0 0 0 0 0.956863 0 0 0 0 0.14902 0 0 0 0 0.243137 0 0 0 0.1 0"/>
<feBlend mode="normal" in2="BackgroundImageFix" result="effect1_dropShadow_32_5578"/>
<feBlend mode="normal" in="SourceGraphic" in2="effect1_dropShadow_32_5578" result="shape"/>
</filter>
<filter id="filter11_d_32_5578" x="231.138" y="17.7451" width="124.55" height="70.9855" filterUnits="userSpaceOnUse" color-interpolation-filters="sRGB">
<feFlood flood-opacity="0" result="BackgroundImageFix"/>
<feColorMatrix in="SourceAlpha" type="matrix" values="0 0 0 0 0 0 0 0 0 0 0 0 0 0 0 0 0 0 127 0" result="hardAlpha"/>
<feOffset dy="1.00543"/>
<feGaussianBlur stdDeviation="1.25679"/>
<feColorMatrix type="matrix" values="0 0 0 0 0.956863 0 0 0 0 0.14902 0 0 0 0 0.243137 0 0 0 0.33 0"/>
<feBlend mode="normal" in2="BackgroundImageFix" result="effect1_dropShadow_32_5578"/>
<feBlend mode="normal" in="SourceGraphic" in2="effect1_dropShadow_32_5578" result="shape"/>
</filter>
<filter id="filter12_d_32_5578" x="421.693" y="75.5912" width="90.7123" height="52.5452" filterUnits="userSpaceOnUse" color-interpolation-filters="sRGB">
<feFlood flood-opacity="0" result="BackgroundImageFix"/>
<feColorMatrix in="SourceAlpha" type="matrix" values="0 0 0 0 0 0 0 0 0 0 0 0 0 0 0 0 0 0 127 0" result="hardAlpha"/>
<feOffset dy="6.36615"/>
<feGaussianBlur stdDeviation="3.18307"/>
<feColorMatrix type="matrix" values="0 0 0 0 0.460416 0 0 0 0 0.270833 0 0 0 0 1 0 0 0 0.09 0"/>
<feBlend mode="normal" in2="BackgroundImageFix" result="effect1_dropShadow_32_5578"/>
<feBlend mode="normal" in="SourceGraphic" in2="effect1_dropShadow_32_5578" result="shape"/>
</filter>
<filter id="filter13_d_32_5578" x="457.771" y="122.811" width="89.8434" height="88.1888" filterUnits="userSpaceOnUse" color-interpolation-filters="sRGB">
<feFlood flood-opacity="0" result="BackgroundImageFix"/>
<feColorMatrix in="SourceAlpha" type="matrix" values="0 0 0 0 0 0 0 0 0 0 0 0 0 0 0 0 0 0 127 0" result="hardAlpha"/>
<feOffset dy="6.36615"/>
<feGaussianBlur stdDeviation="3.18307"/>
<feColorMatrix type="matrix" values="0 0 0 0 0.460416 0 0 0 0 0.270833 0 0 0 0 1 0 0 0 0.09 0"/>
<feBlend mode="normal" in2="BackgroundImageFix" result="effect1_dropShadow_32_5578"/>
<feBlend mode="normal" in="SourceGraphic" in2="effect1_dropShadow_32_5578" result="shape"/>
</filter>
<filter id="filter14_d_32_5578" x="473.261" y="76.2564" width="74.3539" height="82.0446" filterUnits="userSpaceOnUse" color-interpolation-filters="sRGB">
<feFlood flood-opacity="0" result="BackgroundImageFix"/>
<feColorMatrix in="SourceAlpha" type="matrix" values="0 0 0 0 0 0 0 0 0 0 0 0 0 0 0 0 0 0 127 0" result="hardAlpha"/>
<feOffset dy="6.36615"/>
<feGaussianBlur stdDeviation="3.18307"/>
<feColorMatrix type="matrix" values="0 0 0 0 0.460416 0 0 0 0 0.270833 0 0 0 0 1 0 0 0 0.09 0"/>
<feBlend mode="normal" in2="BackgroundImageFix" result="effect1_dropShadow_32_5578"/>
<feBlend mode="normal" in="SourceGraphic" in2="effect1_dropShadow_32_5578" result="shape"/>
</filter>
<filter id="filter15_d_32_5578" x="501.808" y="39.7417" width="21.2337" height="21.2338" filterUnits="userSpaceOnUse" color-interpolation-filters="sRGB">
<feFlood flood-opacity="0" result="BackgroundImageFix"/>
<feColorMatrix in="SourceAlpha" type="matrix" values="0 0 0 0 0 0 0 0 0 0 0 0 0 0 0 0 0 0 127 0" result="hardAlpha"/>
<feOffset dy="2.91017"/>
<feGaussianBlur stdDeviation="2.07869"/>
<feColorMatrix type="matrix" values="0 0 0 0 0.460416 0 0 0 0 0.270833 0 0 0 0 1 0 0 0 0.18 0"/>
<feBlend mode="normal" in2="BackgroundImageFix" result="effect1_dropShadow_32_5578"/>
<feBlend mode="normal" in="SourceGraphic" in2="effect1_dropShadow_32_5578" result="shape"/>
</filter>
<clipPath id="clip0_32_5578">
<rect width="577" height="470" fill="white"/>
</clipPath>
</defs>
</svg>
