<svg width="48" height="48" viewBox="0 0 48 48" fill="none" xmlns="http://www.w3.org/2000/svg">
<rect width="48" height="48" rx="8" fill="#EE0B0C"/>
<g clip-path="url(#clip0_32_5850)">
<g clip-path="url(#clip1_32_5850)">
<path d="M7.00543 26.6018L9.35466 26.9868C9.72583 28.7857 10.4361 30.4974 11.4476 32.0306L10.0564 33.9723C9.91587 34.1636 9.84111 34.3953 9.84331 34.6327C9.84552 34.8701 9.92457 35.1004 10.0686 35.289C10.4194 35.7178 10.7921 36.1282 11.1853 36.5186C11.5819 36.9158 11.9907 37.2819 12.4118 37.6358C12.6006 37.7802 12.8311 37.8594 13.0688 37.8616C13.3064 37.8638 13.5384 37.7889 13.7298 37.648L15.6702 36.2562C17.2019 37.2683 18.9125 37.979 20.7104 38.3504L21.0948 40.7014C21.1305 40.9355 21.2415 41.1515 21.4111 41.3167C21.5807 41.4819 21.7996 41.5873 22.0345 41.6167C22.3689 41.6546 22.7057 41.6777 23.0499 41.6948C23.1326 41.6989 23.2153 41.6862 23.2929 41.6574C23.3706 41.6287 23.4417 41.5846 23.5019 41.5277C23.562 41.4708 23.6101 41.4024 23.6432 41.3264C23.6762 41.2505 23.6936 41.1687 23.6942 41.0859V36.1958C23.6934 36.0372 23.6311 35.885 23.5206 35.7713C23.41 35.6575 23.2597 35.591 23.1011 35.5856C16.9349 35.266 12.0991 30.173 12.0991 23.9985C12.0991 17.8239 16.9349 12.731 23.1011 12.4113C23.2597 12.4059 23.41 12.3394 23.5206 12.2257C23.6311 12.1119 23.6934 11.9597 23.6942 11.8011V6.91532C23.6938 6.83254 23.6766 6.75071 23.6438 6.67473C23.6109 6.59876 23.5631 6.53021 23.503 6.47321C23.443 6.41621 23.3721 6.37194 23.2945 6.34305C23.2169 6.31416 23.1343 6.30126 23.0516 6.30511C22.7119 6.31913 22.3727 6.34314 22.0344 6.3771C21.7993 6.40913 21.5808 6.51625 21.4115 6.68249C21.2422 6.84873 21.1311 7.06521 21.0948 7.2997L20.7103 9.65077C18.9125 10.0226 17.2019 10.7335 15.6702 11.7455L13.7298 10.3531C13.5383 10.2123 13.3064 10.1373 13.0687 10.1395C12.831 10.1417 12.6005 10.221 12.4117 10.3653C11.9841 10.7166 11.5747 11.0895 11.1852 11.4826C10.7891 11.8701 10.4163 12.2806 10.0686 12.7121C9.92392 12.901 9.84452 13.1317 9.84231 13.3696C9.84011 13.6076 9.91522 13.8397 10.0563 14.0313L11.4475 15.9729C10.4363 17.5056 9.726 19.2167 9.35461 21.0149L7.00537 21.3994C6.77125 21.4351 6.55519 21.5463 6.39 21.716C6.22481 21.8857 6.11951 22.1047 6.09009 22.3397C5.96997 23.4347 5.96997 24.5396 6.09009 25.6347C6.1165 25.8736 6.2202 26.0973 6.38542 26.2719C6.55064 26.4464 6.76834 26.5623 7.00543 26.6018Z" fill="white"/>
<path d="M23.1106 14.866C18.2899 15.1714 14.5364 19.1702 14.5364 24.0005C14.5364 28.8308 18.29 32.8297 23.1106 33.135C23.1865 33.1382 23.2622 33.1259 23.3332 33.0989C23.4043 33.0718 23.469 33.0306 23.5236 32.9778C23.5781 32.9249 23.6214 32.8615 23.6507 32.7914C23.68 32.7213 23.6947 32.646 23.6939 32.57V15.431C23.6947 15.3551 23.68 15.2797 23.6507 15.2096C23.6214 15.1395 23.5781 15.0761 23.5236 15.0233C23.469 14.9704 23.4043 14.9292 23.3332 14.9022C23.2622 14.8751 23.1865 14.8628 23.1106 14.866ZM27.9653 15.4579H24.9143V16.6783H27.9653C28.975 16.6752 29.7928 15.8575 29.7958 14.8477V11.0743C30.6364 10.7771 31.1406 9.91761 30.9898 9.03888C30.8391 8.16016 30.0772 7.51788 29.1856 7.51788C28.2941 7.51788 27.5322 8.16016 27.3814 9.03888C27.2306 9.91761 27.7348 10.7771 28.5754 11.0743V14.8477C28.5754 15.1847 28.3022 15.4579 27.9653 15.4579ZM24.9143 19.119H31.0162C31.3532 19.119 31.6264 18.8458 31.6264 18.5088C31.6264 18.1718 31.3532 17.8986 31.0162 17.8986H24.9143V19.119ZM24.9143 32.5431H27.9652C28.3022 32.5431 28.5754 32.8163 28.5754 33.1533V36.9267C27.7348 37.2239 27.2306 38.0834 27.3814 38.9621C27.5322 39.8409 28.294 40.4831 29.1856 40.4831C30.0772 40.4831 30.8391 39.8409 30.9898 38.9621C31.1406 38.0834 30.6364 37.2239 29.7958 36.9267V33.1533C29.7928 32.1436 28.975 31.3258 27.9653 31.3228H24.9143V32.5431H24.9143ZM34.0671 26.4413H24.9143V27.6616H34.0671C34.4041 27.6616 34.6773 27.9348 34.6773 28.2718V31.4351C33.8367 31.7323 33.3325 32.5918 33.4833 33.4705C33.634 34.3492 34.3959 34.9915 35.2875 34.9915C36.1791 34.9915 36.941 34.3492 37.0917 33.4705C37.2425 32.5918 36.7383 31.7323 35.8977 31.4351V28.2718C35.8946 27.2621 35.0769 26.4443 34.0671 26.4413ZM40.169 22.17C39.7917 22.1715 39.4242 22.2896 39.1166 22.508C38.809 22.7265 38.5764 23.0346 38.4507 23.3903H24.9143V24.6107H38.4507C38.7625 25.486 39.6816 25.988 40.5866 25.7773C41.4917 25.5666 42.0945 24.7103 41.9876 23.7873C41.8808 22.8643 41.0982 22.1683 40.169 22.17Z" fill="white"/>
<path d="M31.6265 29.4922C31.6265 29.1552 31.3533 28.882 31.0163 28.882H24.9144V30.1024H31.0163C31.3533 30.1024 31.6265 29.8292 31.6265 29.4922ZM35.8977 19.7292V16.566C36.7383 16.2688 37.2425 15.4093 37.0918 14.5306C36.941 13.6519 36.1791 13.0096 35.2875 13.0096C34.396 13.0096 33.6341 13.6519 33.4833 14.5306C33.3325 15.4093 33.8368 16.2688 34.6773 16.566V19.7292C34.6773 20.0663 34.4041 20.3395 34.0671 20.3395H24.9143V21.5598H34.0671C35.077 21.5567 35.8947 20.739 35.8977 19.7292Z" fill="white"/>
</g>
</g>
<defs>
<clipPath id="clip0_32_5850">
<rect width="36" height="36" fill="white" transform="translate(6 6)"/>
</clipPath>
<clipPath id="clip1_32_5850">
<rect width="36" height="36" fill="white" transform="translate(6 6)"/>
</clipPath>
</defs>
</svg>
