<svg width="48" height="48" viewBox="0 0 48 48" fill="none" xmlns="http://www.w3.org/2000/svg">
<rect width="48" height="48" rx="8" fill="#5CC9A7"/>
<path d="M18.3496 38.584H29.6887V39.8593H18.3496V38.584Z" fill="white"/>
<path fill-rule="evenodd" clip-rule="evenodd" d="M26.2467 34.1568H21.9645L21.0861 37.8191H26.9922L26.2467 34.1568ZM9.29614 29.7612H38.7422V15.4922C38.7422 15.1288 38.4559 14.8081 38.0887 14.8081H34.5965C35.4666 17.1904 34.2452 20.4409 30.6368 20.8109C30.7251 20.9856 30.7744 21.1827 30.7744 21.3918V23.2843C30.7744 23.6292 30.6377 23.9443 30.4165 24.1767C30.6377 24.409 30.7744 24.7241 30.7744 25.069V26.9605C30.7744 27.6735 30.1925 28.2563 29.4786 28.2563H18.6638C17.9508 28.2563 17.368 27.6744 17.368 26.9605V25.0681C17.368 24.7232 17.5047 24.4081 17.7259 24.1757C17.5047 23.9433 17.368 23.6282 17.368 23.2834V21.3909C17.368 21.2087 17.4061 21.0358 17.474 20.8787C14.4354 20.5925 12.5429 17.5548 13.5468 14.8081H9.94959C9.54618 14.8081 9.29614 15.113 9.29614 15.4922V29.7612ZM38.7422 30.568H9.29614V32.6966C9.29614 33.0842 9.54153 33.35 9.94959 33.35H38.0878C38.4596 33.35 38.7412 33.0684 38.7412 32.6966L38.7422 30.568ZM30.1423 31.5561C30.3654 31.5561 30.5457 31.7364 30.5457 31.9595C30.5457 32.1825 30.3654 32.3629 30.1423 32.3629H29.2937C29.0706 32.3629 28.8903 32.1825 28.8903 31.9595C28.8903 31.7364 29.0706 31.5561 29.2937 31.5561H30.1423ZM33.2199 31.5561C33.443 31.5561 33.6233 31.7364 33.6233 31.9595C33.6233 32.1825 33.443 32.3629 33.2199 32.3629H32.3722C32.1491 32.3629 31.9688 32.1825 31.9688 31.9595C31.9688 31.7364 32.1491 31.5561 32.3722 31.5561H33.2199ZM35.3903 31.5561H36.2975C36.5206 31.5561 36.7009 31.7364 36.7009 31.9595C36.7009 32.1825 36.5206 32.3629 36.2975 32.3629H35.3903C35.1672 32.3629 34.9869 32.1825 34.9869 31.9595C34.9869 31.7364 35.1672 31.5561 35.3903 31.5561Z" fill="white"/>
<path d="M30.7157 19.991C30.8161 19.6694 30.7566 19.569 30.7743 17.7147C30.7743 17.0017 30.1924 16.4189 29.4785 16.4189H18.6636C17.9507 16.4189 17.3679 17.0008 17.3679 17.7147V19.6071C17.3679 19.7689 17.3976 19.925 17.4525 20.0682C15.481 19.8349 14.083 18.1794 14.083 16.339C14.083 14.3061 15.7348 12.6609 17.7871 12.6609C17.8791 12.6609 18.0325 12.6693 18.1134 12.6544C18.4824 12.5838 18.4331 12.2473 18.4331 11.9731C18.4331 9.91512 20.0877 8.25037 22.1382 8.25037C23.1755 8.25037 24.1868 8.72442 24.8719 9.49312C25.4788 10.1745 25.6443 10.8316 25.6815 10.9125C25.7753 11.1142 26.0152 11.2025 26.2169 11.1086V11.1077C26.4929 10.9803 26.7885 10.959 27.0915 10.959C28.1168 10.959 29.0138 11.525 29.4451 12.4387C29.5176 12.6256 29.7211 12.7334 29.92 12.6832C30.0548 12.6488 30.2379 12.6628 30.3532 12.6628C32.3944 12.6628 34.0582 14.2968 34.0582 16.3408C34.0582 18.0911 32.9465 19.6964 30.7157 19.991Z" fill="white"/>
<path fill-rule="evenodd" clip-rule="evenodd" d="M29.6514 20.0635C29.6738 20.0533 29.7463 20.0291 29.8234 19.952C29.9126 19.8627 29.9675 19.741 29.9675 19.6071V17.7146C29.9675 17.4469 29.7463 17.2257 29.4786 17.2257H18.6637C18.396 17.2257 18.1748 17.4469 18.1748 17.7146V19.6071C18.1748 19.8748 18.396 20.096 18.6637 20.096C30.1506 20.084 29.4925 20.1249 29.6514 20.0635ZM24.3969 18.6609C24.3969 19.0578 24.0753 19.3794 23.6784 19.3794C23.2815 19.3794 22.9599 19.0578 22.9599 18.6609C22.9599 18.264 23.2815 17.9424 23.6784 17.9424C24.0753 17.9424 24.3969 18.264 24.3969 18.6609ZM25.7624 18.6609C25.7624 18.4378 25.9427 18.2575 26.1658 18.2575H28.7415C28.9645 18.2575 29.1449 18.4378 29.1449 18.6609C29.1449 18.884 28.9645 19.0643 28.7415 19.0643H26.1658C25.9427 19.0643 25.7624 18.884 25.7624 18.6609ZM21.6669 17.9424C22.0638 17.9424 22.3854 18.264 22.3854 18.6609C22.3854 19.0578 22.0638 19.3794 21.6669 19.3794C21.27 19.3794 20.9484 19.0578 20.9484 18.6609C20.9484 18.264 21.27 17.9424 21.6669 17.9424ZM19.6555 17.9424C20.0524 17.9424 20.374 18.264 20.374 18.6609C20.374 19.0578 20.0524 19.3794 19.6555 19.3794C19.2586 19.3794 18.937 19.0578 18.937 18.6609C18.937 18.264 19.2586 17.9424 19.6555 17.9424ZM29.4786 23.7723C29.7463 23.7723 29.9675 23.551 29.9675 23.2833V21.3909C29.9675 21.1232 29.7463 20.9019 29.4786 20.9019H18.66C18.3932 20.9038 18.1738 21.1241 18.1738 21.3909V23.2833C18.1738 23.551 18.3951 23.7723 18.6628 23.7723H29.4786ZM23.6784 23.0556C23.2815 23.0556 22.9599 22.734 22.9599 22.3371C22.9599 21.9402 23.2815 21.6186 23.6784 21.6186C24.0753 21.6186 24.3969 21.9402 24.3969 22.3371C24.3969 22.734 24.0753 23.0556 23.6784 23.0556ZM25.7624 22.3371C25.7624 22.114 25.9427 21.9337 26.1658 21.9337H28.7415C28.9645 21.9337 29.1449 22.114 29.1449 22.3371C29.1449 22.5602 28.9645 22.7405 28.7415 22.7405H26.1658C25.9427 22.7405 25.7624 22.5602 25.7624 22.3371ZM22.3854 22.3371C22.3854 22.734 22.0638 23.0556 21.6669 23.0556C21.27 23.0556 20.9484 22.734 20.9484 22.3371C20.9484 21.9402 21.27 21.6186 21.6669 21.6186C22.0638 21.6186 22.3854 21.9411 22.3854 22.3371ZM19.6555 21.6186C20.0524 21.6186 20.374 21.9402 20.374 22.3371C20.374 22.734 20.0524 23.0556 19.6555 23.0556C19.2586 23.0556 18.937 22.734 18.937 22.3371C18.937 21.9411 19.2586 21.6186 19.6555 21.6186ZM29.4786 27.4494C29.7463 27.4494 29.9675 27.2282 29.9675 26.9605V25.068C29.9675 24.8003 29.7463 24.5791 29.4786 24.5791H18.6637C18.396 24.5791 18.1748 24.8003 18.1748 25.068V26.9605C18.1748 27.2282 18.396 27.4494 18.6637 27.4494H29.4786ZM23.6784 25.2957C24.0753 25.2957 24.3969 25.6173 24.3969 26.0142C24.3969 26.4111 24.0753 26.7328 23.6784 26.7328C23.2815 26.7328 22.9599 26.4111 22.9599 26.0142C22.9599 25.6173 23.2815 25.2957 23.6784 25.2957ZM26.1658 26.4177C25.9427 26.4177 25.7624 26.2373 25.7624 26.0142C25.7624 25.7912 25.9427 25.6108 26.1658 25.6108H28.7415C28.9645 25.6108 29.1449 25.7912 29.1449 26.0142C29.1449 26.2373 28.9645 26.4177 28.7415 26.4177H26.1658ZM21.6669 25.2957C22.0638 25.2957 22.3854 25.6173 22.3854 26.0142C22.3854 26.4111 22.0638 26.7328 21.6669 26.7328C21.27 26.7328 20.9484 26.4111 20.9484 26.0142C20.9484 25.6173 21.27 25.2957 21.6669 25.2957ZM19.6555 25.2957C20.0524 25.2957 20.374 25.6173 20.374 26.0142C20.374 26.4111 20.0524 26.7328 19.6555 26.7328C19.2586 26.7328 18.937 26.4111 18.937 26.0142C18.937 25.6173 19.2586 25.2957 19.6555 25.2957Z" fill="white"/>
</svg>
