<svg width="1440" height="1304" viewBox="0 0 1440 1304" fill="none" xmlns="http://www.w3.org/2000/svg">
<g filter="url(#filter0_d_5_58067)">
<rect width="1440" height="1296" fill="#F4F9FF"/>
<g clip-path="url(#clip0_5_58067)">
<g clip-path="url(#clip1_5_58067)">
<g clip-path="url(#clip2_5_58067)">
<path d="M116.35 720.395C91.7497 715.58 67.0522 708.26 44.3722 698.765C39.6022 696.77 34.0297 697.565 31.2097 702.485C28.8322 706.625 29.9347 713.585 34.7347 715.595C59.4247 725.93 84.9847 733.918 111.325 739.07C116.41 740.068 121.727 737.353 123.137 732.11C124.435 727.273 121.465 721.393 116.35 720.395Z" fill="#FFCE22"/>
<path d="M81.7658 623.222C80.3156 622.411 78.6799 621.99 77.0183 622C76.2008 622.112 75.3908 622.217 74.5733 622.33C72.8933 622.787 71.4308 623.635 70.1858 624.872L68.8808 626.177C67.9227 627.053 67.2114 628.165 66.8183 629.402C66.2408 630.527 65.9708 631.727 66.0083 633.01C65.9483 634.292 66.2033 635.492 66.7658 636.602C67.1408 637.84 67.8158 638.905 68.7833 639.797C69.4658 640.315 70.1483 640.832 70.8233 641.35C72.2734 642.161 73.9092 642.582 75.5708 642.572C76.3883 642.46 77.1983 642.355 78.0158 642.242C79.6958 641.785 81.1583 640.937 82.4033 639.7L83.7083 638.395C84.6664 637.519 85.3776 636.407 85.7708 635.17C86.3483 634.045 86.6183 632.845 86.5808 631.562C86.6408 630.28 86.3858 629.08 85.8233 627.97C85.4483 626.732 84.7733 625.667 83.8058 624.775C83.1233 624.257 82.4408 623.74 81.7658 623.222Z" fill="#EE0B0C"/>
<path d="M99.5475 750.266C98.437 749.703 97.1982 749.442 95.955 749.508C94.6725 749.471 93.4725 749.741 92.3475 750.318C91.1104 750.711 89.9983 751.423 89.1225 752.381C88.5975 753.071 88.065 753.761 87.54 754.443C86.7097 755.897 86.2656 757.539 86.25 759.213L86.5425 761.658C86.9775 763.331 87.8025 764.786 89.0175 766.008L90.3075 767.298C91.1719 768.246 92.2756 768.942 93.5025 769.316C94.62 769.878 95.8125 770.133 97.095 770.073C98.3775 770.111 99.5775 769.841 100.702 769.263C101.94 768.87 103.052 768.159 103.927 767.201C104.452 766.511 104.985 765.821 105.51 765.138C106.34 763.685 106.784 762.042 106.8 760.368L106.508 757.923C106.073 756.251 105.247 754.796 104.032 753.573L102.742 752.283C101.842 751.308 100.778 750.641 99.5475 750.266Z" fill="#770FFB"/>
<path d="M92.0797 674.305C88.4872 677.897 88.1647 684.445 91.9822 687.925C95.8147 691.42 101.755 691.675 105.602 687.827C109.195 684.235 109.517 677.687 105.7 674.207C101.875 670.705 95.9272 670.457 92.0797 674.305Z" fill="#239FFD"/>
</g>
</g>
</g>
<g clip-path="url(#clip3_5_58067)">
<g clip-path="url(#clip4_5_58067)">
<g clip-path="url(#clip5_5_58067)">
<path d="M112.64 719.946C88.0397 715.131 63.3422 707.811 40.6622 698.316C35.8922 696.321 30.3197 697.116 27.4997 702.036C25.1222 706.176 26.2247 713.136 31.0247 715.146C55.7147 725.481 81.2747 733.468 107.615 738.621C112.7 739.618 118.017 736.903 119.427 731.661C120.725 726.823 117.755 720.943 112.64 719.946Z" fill="#FFCE22"/>
<path d="M78.0558 622.773C76.6056 621.961 74.9698 621.54 73.3083 621.55C72.4908 621.663 71.6807 621.768 70.8632 621.88C69.1832 622.338 67.7208 623.185 66.4758 624.423L65.1707 625.728C64.2126 626.603 63.5014 627.715 63.1082 628.953C62.5307 630.078 62.2608 631.278 62.2983 632.56C62.2383 633.843 62.4932 635.043 63.0557 636.153C63.4307 637.39 64.1057 638.455 65.0732 639.348C65.7557 639.865 66.4382 640.383 67.1132 640.9C68.5634 641.711 70.1992 642.132 71.8608 642.123C72.6783 642.01 73.4883 641.905 74.3058 641.793C75.9858 641.335 77.4483 640.488 78.6933 639.25L79.9982 637.945C80.9564 637.069 81.6676 635.957 82.0607 634.72C82.6382 633.595 82.9083 632.395 82.8708 631.113C82.9308 629.83 82.6757 628.63 82.1132 627.52C81.7382 626.283 81.0632 625.218 80.0957 624.325C79.4132 623.808 78.7308 623.29 78.0558 622.773Z" fill="#EE0B0C"/>
<path d="M95.8375 749.816C94.727 749.253 93.4882 748.992 92.245 749.058C90.9625 749.021 89.7625 749.291 88.6375 749.868C87.4004 750.261 86.2883 750.973 85.4125 751.931C84.8875 752.621 84.355 753.311 83.83 753.993C82.9997 755.447 82.5556 757.089 82.54 758.763L82.8325 761.208C83.2675 762.881 84.0925 764.336 85.3075 765.558L86.5975 766.848C87.4619 767.796 88.5656 768.493 89.7925 768.866C90.91 769.428 92.1025 769.683 93.385 769.623C94.6675 769.661 95.8675 769.391 96.9925 768.813C98.2296 768.42 99.3417 767.709 100.217 766.751C100.742 766.061 101.275 765.371 101.8 764.688C102.63 763.235 103.074 761.592 103.09 759.918L102.797 757.473C102.362 755.801 101.537 754.346 100.322 753.123L99.0325 751.833C98.1325 750.858 97.0675 750.191 95.8375 749.816Z" fill="#770FFB"/>
<path d="M88.3697 673.855C84.7772 677.448 84.4547 683.995 88.2722 687.475C92.1047 690.97 98.0447 691.225 101.892 687.378C105.485 683.785 105.807 677.238 101.99 673.758C98.1647 670.255 92.2172 670.008 88.3697 673.855Z" fill="#239FFD"/>
</g>
</g>
</g>
<g clip-path="url(#clip6_5_58067)">
<g clip-path="url(#clip7_5_58067)">
<g clip-path="url(#clip8_5_58067)">
<path d="M549.653 783.931C538.493 775.838 524.063 772.246 510.338 774.721C497.16 777.098 485.858 785.768 478.065 796.411C471.353 805.576 468.195 815.941 467.858 826.426C463.485 848.138 472.943 872.183 493.508 882.128C505.403 887.881 519.548 889.246 532.358 885.263C547.485 880.561 558.908 868.913 566.408 855.211C573.248 842.708 575.88 828.421 571.845 814.718C568.14 802.148 560.168 791.558 549.653 783.931ZM545.348 805.891C545.738 806.318 546.113 806.753 546.488 807.196C546.563 807.286 546.803 807.578 547.005 807.826C547.208 808.096 547.493 808.478 547.568 808.591C548.642 810.122 549.626 811.715 550.515 813.361C551.123 814.501 551.67 815.663 552.203 816.833C552.218 816.863 552.225 816.886 552.24 816.916C552.435 817.448 552.623 817.981 552.803 818.521C553.5 820.643 554.01 822.818 554.37 825.031C554.318 824.858 554.535 826.883 554.558 827.371C554.603 828.511 554.595 829.651 554.535 830.798C554.513 831.188 554.145 833.873 554.325 833.018C554.018 834.646 553.65 836.251 553.17 837.841C550.26 847.531 542.73 858.571 533.97 863.776C532.928 864.398 531.84 864.916 530.775 865.486C530.603 865.576 530.468 865.651 530.348 865.711C529.875 865.898 529.388 866.078 528.908 866.243C527.768 866.641 526.613 866.986 525.443 867.278C524.858 867.428 524.273 867.563 523.68 867.683C523.613 867.698 522.053 867.968 521.963 868.013C519.765 868.276 517.53 868.336 515.333 868.246C514.733 868.223 514.133 868.171 513.525 868.141C513.413 868.133 513.105 868.096 512.873 868.073C511.665 867.893 510.473 867.661 509.288 867.383C507.968 867.068 506.7 866.641 505.403 866.258L504.96 866.131C504.758 866.048 504.555 865.958 504.353 865.868C504.053 865.448 503.715 865.036 503.325 864.653C501.51 862.876 499.823 861.008 498.188 859.066C498.03 858.878 497.903 858.728 497.805 858.616C497.483 858.188 497.168 857.753 496.868 857.318C495.956 856.018 495.093 854.685 494.28 853.321C492.975 851.138 491.865 848.866 490.778 846.563C490.718 846.443 490.478 845.873 490.403 845.716C490.245 845.303 490.095 844.883 489.945 844.463C489.471 843.124 489.045 841.768 488.67 840.398C487.335 835.516 486.9 832.951 486.99 828.376C487.351 827.006 487.785 825.657 488.288 824.333C488.333 824.243 488.385 824.146 488.438 824.033C488.858 823.208 489.263 822.383 489.705 821.566C491.138 818.933 491.273 815.866 490.268 813.241C491.153 811.456 492.105 809.716 493.2 808.051C493.41 807.728 494.925 805.718 494.633 806.033C495.473 805.021 496.343 804.023 497.258 803.071C498.09 802.208 498.968 801.383 499.86 800.588C500.265 800.228 502.073 798.871 501.75 799.066C503.685 797.746 505.665 796.531 507.78 795.518C507.893 795.466 508.328 795.271 508.65 795.128C508.973 795.008 509.43 794.836 509.543 794.798C510.653 794.416 511.778 794.078 512.918 793.801C513.488 793.658 514.065 793.538 514.643 793.426C514.755 793.403 515.235 793.336 515.58 793.283C515.933 793.253 516.458 793.208 516.585 793.201C517.328 793.156 518.07 793.126 518.813 793.133C521.67 793.141 522.998 793.321 525.975 794.056C527.37 794.401 528.75 794.806 530.108 795.271C530.423 795.383 530.745 795.496 531.06 795.608C531.015 795.616 532.493 796.268 532.605 796.321C534.686 797.323 536.689 798.479 538.598 799.778C538.995 800.048 539.378 800.326 539.768 800.611C539.843 800.671 539.925 800.746 540.023 800.828C541.013 801.676 541.995 802.516 542.933 803.423C543.773 804.21 544.579 805.033 545.348 805.891Z" fill="#239FFD"/>
</g>
</g>
</g>
</g>
<defs>
<filter id="filter0_d_5_58067" x="-4" y="0" width="1448" height="1304" filterUnits="userSpaceOnUse" color-interpolation-filters="sRGB">
<feFlood flood-opacity="0" result="BackgroundImageFix"/>
<feColorMatrix in="SourceAlpha" type="matrix" values="0 0 0 0 0 0 0 0 0 0 0 0 0 0 0 0 0 0 127 0" result="hardAlpha"/>
<feOffset dy="4"/>
<feGaussianBlur stdDeviation="2"/>
<feComposite in2="hardAlpha" operator="out"/>
<feColorMatrix type="matrix" values="0 0 0 0 0 0 0 0 0 0 0 0 0 0 0 0 0 0 0.25 0"/>
<feBlend mode="normal" in2="BackgroundImageFix" result="effect1_dropShadow_5_58067"/>
<feBlend mode="normal" in="SourceGraphic" in2="effect1_dropShadow_5_58067" result="shape"/>
</filter>
<clipPath id="clip0_5_58067">
<rect width="100" height="148.5" fill="white" transform="translate(30 622)"/>
</clipPath>
<clipPath id="clip1_5_58067">
<rect width="93.75" height="148.5" fill="white" transform="translate(30 622)"/>
</clipPath>
<clipPath id="clip2_5_58067">
<rect width="93.75" height="148.5" fill="white" transform="translate(30 622)"/>
</clipPath>
<clipPath id="clip3_5_58067">
<rect width="93.75" height="148.5" fill="white" transform="translate(26.29 621.55)"/>
</clipPath>
<clipPath id="clip4_5_58067">
<rect width="93.75" height="148.5" fill="white" transform="translate(26.29 621.55)"/>
</clipPath>
<clipPath id="clip5_5_58067">
<rect width="93.75" height="148.5" fill="white" transform="translate(26.29 621.55)"/>
</clipPath>
<clipPath id="clip6_5_58067">
<rect width="107.25" height="114" fill="white" transform="translate(466.81 773.95)"/>
</clipPath>
<clipPath id="clip7_5_58067">
<rect width="107.25" height="114" fill="white" transform="translate(466.81 773.95)"/>
</clipPath>
<clipPath id="clip8_5_58067">
<rect width="107.25" height="114" fill="white" transform="translate(466.81 773.95)"/>
</clipPath>
</defs>
</svg>
