<svg width="180" height="158" viewBox="0 0 180 158" fill="none" xmlns="http://www.w3.org/2000/svg">
<g filter="url(#filter0_d_11_59121)">
<path d="M24.7701 29.8288C18.5367 41.0526 13.6845 53.4107 13.5146 66.2481C13.3197 80.9711 19.3118 95.1695 27.2698 107.558C36.3328 121.667 48.3067 134.215 63.1521 142.014C77.9974 149.812 95.8876 152.508 111.846 147.359C135.45 139.744 144.803 120.196 157.931 101.456C164.383 92.2459 167.045 84.6119 165.719 72.8634C164.426 61.4005 159.729 50.3569 153.252 40.8826C139.917 21.3778 119.111 6.78169 95.9001 2.37035C82.2105 -0.230222 67.8173 0.874608 54.6739 5.49785C40.9073 10.3387 31.7684 17.2271 24.7701 29.8288Z" fill="#DCE2FC"/>
<path d="M45.4732 109.499C61.8229 109.499 75.077 97.6648 75.077 83.0669C75.077 68.469 61.8229 56.635 45.4732 56.635C29.1234 56.635 15.8693 68.469 15.8693 83.0669C15.8693 97.6648 29.1234 109.499 45.4732 109.499Z" fill="white"/>
<path d="M136.4 109.499C152.75 109.499 166.004 97.6648 166.004 83.0669C166.004 68.469 152.75 56.635 136.4 56.635C120.051 56.635 106.797 68.469 106.797 83.0669C106.797 97.6648 120.051 109.499 136.4 109.499Z" fill="white"/>
<path d="M100.559 53.6825C101.418 48.6964 102.169 43.6929 103.061 38.7109C103.577 35.8209 105.109 33.7402 107.124 31.9352C108.372 30.8174 108.869 29.7611 108.696 28.0403C108.31 24.213 109.412 22.9393 113.27 22.1291C116.494 21.4523 119.721 20.7098 123.035 20.7806C126 20.8442 128.584 21.6861 129.438 24.9996C129.59 25.5883 129.937 25.8344 130.419 26.0251C131.124 26.3041 131.848 26.5461 132.536 26.8619C134.994 27.99 137.404 29.1499 139.033 31.4984C139.746 32.5259 140.737 33.372 141.656 34.2427C149.216 41.4121 155.96 49.3076 162.368 57.5026C162.575 57.7682 162.82 58.0041 163.054 58.2482C175.005 70.7463 176.006 89.819 164.891 104.145C153.39 118.966 132.146 123.616 115.857 114.635C104.017 108.106 97.8119 97.8981 97.5894 84.3242C97.5514 81.985 96.5526 80.5513 95.1302 79.0899C93.7519 77.6737 92.0433 76.9866 90.1092 77.0984C87.7064 77.2378 85.4359 77.7311 84.0319 80.0724C83.5715 80.8405 83.3807 81.5635 83.3664 82.4311C83.0843 100.311 69.4223 115.644 51.0141 118.614C39.0616 120.543 28.2966 117.683 19.3058 109.465C5.89402 97.2048 4.47059 77.1199 15.8498 62.4046C18.026 59.5906 19.9817 56.6432 21.8327 53.6364C24.8016 48.8143 28.031 44.1687 31.1404 39.4441C32.8582 36.8342 34.6139 34.1104 37.2926 32.4511C39.5354 31.0615 41.1701 29.6637 41.4562 26.8404C41.6151 25.2693 43.1422 24.5268 44.6404 24.3679C48.5969 23.9494 52.5667 23.892 56.5253 24.4079C57.0216 24.4725 57.5016 24.6766 57.9815 24.8396C59.9126 25.499 61.2037 26.6845 61.1791 28.8802C61.1647 30.1672 61.6006 31.0112 62.8774 31.6019C65.9683 33.0336 68.0235 35.3533 69.3351 38.6268C71.9133 45.0579 74.3099 51.5381 76.2748 58.1805C76.5312 59.047 76.8081 59.9085 77.1281 60.9391C78.2838 60.2613 79.2776 59.6685 80.2805 59.0952C80.8025 58.7968 80.8918 58.3497 80.8292 57.8062C80.742 57.0514 80.6477 56.2935 80.6179 55.5346C80.5421 53.6189 81.1769 52.5698 83.0648 52.296C87.6705 51.6284 92.311 51.3341 96.9587 51.8715C98.1534 52.0099 99.2897 52.3791 99.8291 53.6446C99.9953 55.1849 99.3133 56.754 100.007 58.7076C100.47 56.7847 100.699 55.2557 100.559 53.6825ZM25.6262 52.8888C25.5616 53.0303 25.498 53.1718 25.4334 53.3133C25.8425 53.4333 26.1215 53.221 26.3748 52.9441C42.5955 43.9646 58.0225 45.265 72.9829 57.0176C70.817 49.8635 68.5055 43.3709 65.4781 37.1429C65.0494 36.2609 64.2536 35.7717 63.506 35.2241C58.1384 31.2871 52.1811 30.961 45.8629 32.0706C41.0849 32.9095 37.3869 35.1236 34.7359 39.1888C31.7403 43.7821 28.6658 48.3242 25.6262 52.8888ZM138.008 116.256C145.158 116.141 154.595 111.911 161.906 103.295C175.688 87.0521 171.558 61.4273 149.247 52.3432C135.707 46.83 119.032 50.7557 109.304 61.7062C101.287 70.7288 98.2673 81.182 101.565 92.9745C105.491 107.017 118.638 116.36 138.008 116.256ZM48.5662 116.261C55.9346 116.148 65.4453 111.876 72.7604 103.134C86.7198 86.4553 81.8681 60.4346 59.2706 52.1801C45.1686 47.0289 32.1259 50.0276 21.3446 60.452C12.1518 69.3403 8.85881 80.4159 12.2851 92.9263C16.137 106.989 29.317 116.341 48.5662 116.261ZM152.84 50.3701C152.478 49.9096 152.114 49.4502 151.753 48.9897C146.881 42.7843 140.767 37.7499 135.57 31.8491C135.084 31.2973 134.362 30.9322 133.706 30.5528C126.505 26.3871 119.433 27.4137 112.517 31.243C108.449 33.495 106.003 36.9418 105.244 41.6264C103.946 49.6358 103.003 57.6852 102.182 65.752C102.156 66.0032 102.241 66.0852 102.62 65.9273C107.804 57.6503 115.152 51.8827 124.649 48.9251C134.164 45.9634 143.471 46.6771 152.84 50.3701ZM98.8415 69.0131C99.1195 66.9775 99.3205 65.1633 99.6292 63.3676C99.8466 62.1041 99.2846 61.5534 98.1698 61.1443C94.5354 59.8111 90.7881 59.3014 86.9875 59.8818C84.2452 60.3003 81.5563 61.1166 79.3514 62.9728C78.8479 63.3963 78.2715 63.8147 78.6992 64.6546C79.6406 66.5016 80.5451 68.367 81.4773 70.2499C87.0029 66.0545 92.7181 65.9068 98.8415 69.0131ZM83.1397 76.4215C88.3145 73.5172 93.3006 73.1563 97.8294 77.7178C99.2538 74.3274 98.7349 72.0928 95.9916 70.8252C92.1613 69.0552 88.295 69.2213 84.6616 71.4354C82.6352 72.6701 82.3572 73.8577 83.1397 76.4215ZM96.9946 55.8638C97.2653 54.6978 96.3741 54.5501 95.5137 54.4486C91.8116 54.0138 88.1402 54.6834 84.4544 54.8096C83.1787 54.8537 83.4156 55.8608 83.4792 56.6935C83.554 57.6739 84.1129 57.6872 84.8862 57.4596C88.3699 56.433 91.8649 56.794 95.3609 57.4154C96.9279 57.6954 97.0274 57.5908 96.9946 55.8638ZM126.658 25.1647C125.103 23.5136 123.618 23.4695 122.149 23.5403C119.201 23.6818 116.308 24.251 113.433 24.8735C111.465 25.2991 111.239 25.7923 111.648 28.3582C116.215 26.0241 121.042 24.9216 126.658 25.1647ZM58.4871 29.3396C58.12 27.5388 56.9683 27.347 55.9274 27.1604C52.497 26.5451 49.0359 26.7471 45.5932 27.0066C44.0938 27.1194 43.9841 27.466 44.0159 29.5673C48.7415 28.5612 53.4836 28.43 58.4871 29.3396Z" fill="black"/>
<path d="M45.3481 10.1808C45.2896 10.9397 44.8989 11.3417 44.4076 11.716C42.5576 13.1292 41.1619 14.8777 40.4727 17.1441C40.2153 17.9902 39.7364 18.7306 38.7796 18.8116C37.9222 18.8844 37.4597 18.2219 37.03 17.5677C35.6086 15.4018 34.459 13.041 32.048 11.6555C31.1138 11.1192 31.1425 10.1511 31.9824 9.30296C34.1626 7.10116 35.7881 4.60399 36.0373 1.3982C36.0958 0.651615 36.5337 0.119368 37.2895 0.0147642C38.072 -0.092916 38.5468 0.401392 38.8247 1.07414C39.1139 1.77252 39.3231 2.50576 39.6297 3.19492C40.6409 5.46851 42.0336 7.45393 44.1995 8.76968C44.8209 9.1481 45.2711 9.55317 45.3481 10.1808ZM41.5444 10.4095C40.0071 9.03222 38.9221 7.57597 37.7704 6.13306C37.0157 7.296 36.3429 8.35229 35.6476 9.3932C35.3707 9.80752 34.9708 10.2034 35.4948 10.6751C36.6444 11.7088 37.35 13.1415 38.5293 14.4624C39.3795 12.8123 40.3712 11.6914 41.5444 10.4095Z" fill="black"/>
<path d="M175.332 41.3136C175.281 42.0315 174.858 42.5381 174.375 43.0149C171.991 45.3706 169.916 47.9723 167.977 50.7064C166.232 53.1687 164.497 53.0641 163.292 50.3895C162.466 48.5569 161.527 47.2617 159.41 46.6956C157.465 46.1746 157.179 42.9524 159.004 41.1659C160.951 39.2605 162.477 37.1705 163.647 34.7205C164.641 32.6356 166.187 32.6335 167.264 34.6384C167.894 35.8127 168.32 37.0925 169.391 37.9827C170.558 38.9518 171.495 40.2317 173.425 39.6153C174.563 39.2523 175.288 40.0748 175.332 41.3136ZM166.018 46.9909C166.972 45.8228 167.614 44.907 168.389 44.1215C169.35 43.1462 169.059 42.5627 168.13 41.7187C165.616 39.4348 165.655 39.3743 163.36 42.0089C162.956 42.4724 162.279 42.7504 162.226 43.6272C163.745 44.2856 164.813 45.5624 166.018 46.9909Z" fill="black"/>
<path d="M20.5139 38.6791C18.5357 40.8696 17.7655 44.1954 16.0334 47.0094C15.3596 48.1047 13.6101 47.9755 12.9302 46.6854C11.3252 43.6416 8.68756 41.9484 5.84377 40.3486C4.4747 39.5784 4.2778 38.4452 5.37408 37.3387C7.5041 35.1892 9.43926 32.9751 10.7222 30.1723C11.2565 29.0053 12.9168 29.0166 13.8357 30.1713C15.7042 32.5218 17.3861 35.0138 19.9796 36.6824C20.4616 36.9931 20.5796 37.5951 20.5139 38.6791ZM14.2326 41.6797C16.3298 38.2135 16.3298 38.2135 12.362 35.0795C11.5621 36.0896 10.7632 37.0987 9.90178 38.1868C11.3867 39.3846 12.7363 40.4737 14.2326 41.6797Z" fill="black"/>
<path d="M161.739 25.4365C160.937 25.3903 160.319 25.0899 160.041 24.4192C159.352 22.7537 158.278 21.3887 157.053 20.0853C156.056 19.0239 156.195 17.8743 157.551 17.1933C159.357 16.2868 160.33 14.9095 160.977 13.0717C161.457 11.7109 162.587 11.5427 163.479 12.6523C164.787 14.2808 165.623 16.2611 167.245 17.6733C167.652 18.0271 167.606 18.6547 167.241 19.0649C165.562 20.9498 163.988 22.9106 162.56 24.9935C162.392 25.2375 161.982 25.3124 161.739 25.4365ZM162.595 16.5708C161.759 17.4794 160.94 18.3675 160.129 19.2485C160.722 19.9387 160.99 20.6791 161.712 21.0103C164.142 18.6373 164.142 18.6373 162.595 16.5708Z" fill="black"/>
<path d="M100.559 53.6827C100.699 55.2559 100.469 56.7849 100.009 58.7129C99.3154 56.7583 99.9973 55.1892 99.8312 53.6499C100.074 53.6612 100.317 53.6715 100.559 53.6827Z" fill="#EBE0D4"/>
<path d="M138.008 116.256C118.637 116.36 105.491 107.017 101.564 92.9734C98.2672 81.1809 101.287 70.7278 109.303 61.7052C119.031 50.7546 135.707 46.8289 149.246 52.3421C171.556 61.4262 175.687 87.0521 161.905 103.294C154.595 111.911 145.158 116.141 138.008 116.256ZM164.539 82.6567C164.39 63.3706 147.477 52.0324 132.006 54.5788C118.027 56.879 106.923 68.7547 106.261 82.8669C105.351 102.285 121.757 115.034 138.377 112.641C153.097 110.523 164.555 97.5391 164.539 82.6567Z" fill="#4F45E2"/>
<path d="M48.5662 116.261C29.3171 116.341 16.137 106.989 12.2851 92.9263C8.85884 80.417 12.1518 69.3413 21.3446 60.452C32.126 50.0286 45.1676 47.0289 59.2706 52.1801C81.8681 60.4346 86.7198 86.4553 72.7604 103.134C65.4453 111.876 55.9346 116.148 48.5662 116.261ZM16.3113 83.2905C16.3226 89.3688 18.0537 95.1845 21.72 99.8609C29.7037 110.045 40.2266 113.717 52.7626 110.942C69.7669 107.177 79.7135 89.5441 74.1746 73.4752C69.1557 58.9168 52.9606 50.8634 37.7592 55.3664C24.9914 59.1476 16.2878 70.4796 16.3113 83.2905Z" fill="#4F45E2"/>
<path d="M152.84 50.3701C143.47 46.6772 134.164 45.9635 124.65 48.9262C115.152 51.8838 107.804 57.6514 102.621 65.9284C102.241 66.0863 102.157 66.0033 102.183 65.753C103.004 57.6862 103.947 49.6359 105.245 41.6275C106.004 36.9429 108.451 33.4961 112.518 31.2441C119.434 27.4158 126.505 26.3892 133.707 30.5539C134.363 30.9323 135.085 31.2984 135.571 31.8502C140.768 37.7511 146.881 42.7853 151.754 48.9908C152.115 49.4502 152.478 49.9097 152.84 50.3701Z" fill="#EBE0D4"/>
<path d="M25.6262 52.8889C28.6658 48.3243 31.7404 43.7822 34.7359 39.1879C37.3869 35.1227 41.0839 32.9075 45.8629 32.0697C52.1822 30.9611 58.1384 31.2872 63.506 35.2232C64.2536 35.7708 65.0484 36.26 65.4781 37.142C68.5065 43.37 70.818 49.8636 72.9829 57.0167C58.0226 45.2641 42.5956 43.9648 26.38 52.9391C26.1318 52.9197 25.8795 52.9043 25.6262 52.8889Z" fill="#EBE0D4"/>
<path d="M98.8415 69.0131C92.7181 65.9068 87.0039 66.0545 81.4763 70.2509C80.5441 68.3681 79.6396 66.5026 78.6982 64.6557C78.2705 63.8158 78.8469 63.3973 79.3504 62.9738C81.5563 61.1176 84.2442 60.3013 86.9865 59.8828C90.7871 59.3024 94.5353 59.8121 98.1688 61.1453C99.2835 61.5545 99.8455 62.1062 99.6281 63.3686C99.3205 65.1633 99.1195 66.9774 98.8415 69.0131Z" fill="#4F45E2"/>
<path d="M83.1397 76.4216C82.3573 73.8578 82.6352 72.6702 84.6626 71.4344C88.2961 69.2203 92.1623 69.0542 95.9927 70.8243C98.7359 72.0918 99.2538 74.3275 97.8304 77.7168C93.3007 73.1563 88.3145 73.5173 83.1397 76.4216Z" fill="#4F45E2"/>
<path d="M96.9946 55.8639C97.0274 57.5908 96.9269 57.6954 95.3599 57.4165C91.8639 56.794 88.3689 56.433 84.8852 57.4606C84.1119 57.6883 83.553 57.6749 83.4781 56.6945C83.4146 55.8618 83.1777 54.8547 84.4534 54.8106C88.1402 54.6835 91.8105 54.0138 95.5127 54.4496C96.3741 54.5501 97.2653 54.6978 96.9946 55.8639Z" fill="#4F45E2"/>
<path d="M126.658 25.1647C121.042 24.9217 116.215 26.0231 111.649 28.3572C111.239 25.7924 111.466 25.2991 113.434 24.8725C116.309 24.25 119.202 23.6808 122.15 23.5393C123.618 23.4696 125.104 23.5137 126.658 25.1647Z" fill="#4F45E2"/>
<path d="M58.4871 29.3396C53.4836 28.43 48.7416 28.5612 44.0159 29.5672C43.9841 27.4659 44.0939 27.1193 45.5932 27.0065C49.0359 26.7471 52.4981 26.544 55.9274 27.1604C56.9683 27.346 58.12 27.5377 58.4871 29.3396Z" fill="#4F45E2"/>
<path d="M25.6262 52.8888C25.8795 52.9042 26.1328 52.9195 26.38 52.939C26.1215 53.221 25.8415 53.4323 25.4334 53.3123C25.497 53.1718 25.5616 53.0303 25.6262 52.8888Z" fill="#4F45E2"/>
<path d="M41.5444 10.4095C40.3712 11.6904 39.3795 12.8123 38.5283 14.4624C37.349 13.1415 36.6434 11.7088 35.4938 10.6751C34.9697 10.2044 35.3697 9.80854 35.6466 9.3932C36.3419 8.3523 37.0146 7.296 37.7694 6.13306C38.9221 7.57597 40.0071 9.03222 41.5444 10.4095Z" fill="#F6F6AE"/>
<path d="M145.85 14.2828C145.791 15.0417 145.4 15.4438 144.909 15.8181C143.059 17.2312 141.663 18.9798 140.974 21.2462C140.717 22.0922 140.237 22.8327 139.281 22.9137C138.424 22.9865 137.961 22.324 137.532 21.6697C136.11 19.5038 134.961 17.143 132.55 15.7576C131.615 15.2212 131.644 14.2531 132.484 13.405C134.664 11.2032 136.29 8.70604 136.539 5.50025C136.597 4.75367 137.035 4.22142 137.791 4.11681C138.574 4.00913 139.048 4.50344 139.326 5.17619C139.615 5.87457 139.825 6.60782 140.131 7.29697C141.142 9.57056 142.535 11.556 144.701 12.8717C145.323 13.2502 145.773 13.6552 145.85 14.2828ZM142.046 14.5115C140.509 13.1343 139.424 11.678 138.272 10.2351C137.517 11.3981 136.844 12.4543 136.149 13.4953C135.872 13.9096 135.472 14.3054 135.996 14.7772C137.146 15.8109 137.852 17.2435 139.031 18.5644C139.881 16.9144 140.873 15.7935 142.046 14.5115Z" fill="black"/>
<path d="M142.046 14.5117C140.873 15.7926 139.881 16.9145 139.03 18.5645C137.851 17.2437 137.145 15.811 135.995 14.7773C135.471 14.3066 135.871 13.9107 136.148 13.4954C136.843 12.4545 137.516 11.3982 138.271 10.2352C139.424 11.6781 140.509 13.1344 142.046 14.5117Z" fill="#F6F6AE"/>
<path d="M166.173 48.3057C164.513 46.3388 163.044 44.58 160.953 43.6724C161.024 42.4654 161.958 42.0828 162.514 41.4439C165.673 37.8156 165.62 37.8997 169.083 41.045C170.363 42.208 170.763 43.012 169.439 44.3544C168.372 45.4363 167.488 46.6967 166.173 48.3057Z" fill="#F6F6AE"/>
<path d="M14.6366 42.5884C12.7281 41.0491 11.0073 39.6616 9.11314 38.1335C10.2115 36.746 11.2309 35.459 12.2513 34.1709C17.3112 38.1674 17.3112 38.1674 14.6366 42.5884Z" fill="#F6F6AE"/>
<path d="M162.595 16.5708C164.141 18.6372 164.141 18.6372 161.712 21.0103C160.99 20.6801 160.722 19.9386 160.129 19.2485C160.941 18.3665 161.759 17.4784 162.595 16.5708Z" fill="#F6F6AE"/>
<path d="M164.539 82.6567C164.555 97.5392 153.096 110.523 138.378 112.641C121.758 115.033 105.352 102.284 106.262 82.867C106.924 68.7547 118.028 56.8791 132.007 54.5788C147.478 52.0335 164.39 63.3707 164.539 82.6567ZM156.629 79.8078C157.285 82.548 157.08 85.2503 156.263 87.9238C155.863 88.1638 155.768 88.6181 155.989 88.894C156.246 89.218 156.467 88.8581 156.607 88.5976C156.886 88.291 157.202 88.01 157.439 87.6736C160.823 82.8711 160.703 84.275 157.334 79.8468C157.275 79.495 156.979 79.2971 156.713 79.3033C156.466 79.3104 156.474 79.6017 156.629 79.8078ZM109.744 80.0591C110.704 80.0057 111.1 79.1525 111.696 78.6213C115.639 75.114 119.931 72.1461 124.811 70.0981C130.715 67.6205 136.827 66.6719 143.153 68.0327C149.85 69.4726 155.242 73.0691 159.619 78.2808C160.155 78.9187 160.535 79.7617 161.598 80.2519C161.521 79.3976 161.522 78.8048 161.409 78.2357C159.547 68.8111 154.34 61.9996 145.252 58.6912C129.572 52.9842 113.404 63.0292 109.761 78.4152C109.636 78.9443 109.262 79.535 109.766 80.0868C109.583 79.9083 109.457 79.9422 109.426 80.1934C109.418 80.2632 109.491 80.4067 109.522 80.4067C109.74 80.3995 109.814 80.2703 109.744 80.0591ZM109.33 87.891C110.577 101.018 122.145 110.678 135.591 110.099C148.063 109.561 160.76 98.4796 160.867 88.0366C148.831 104.111 124.242 103.788 109.33 87.891ZM137.4 70.5227C135.713 70.2632 134.069 70.3802 132.429 70.7053C123.898 72.3922 117.083 77.0235 111.052 83.0526C110.159 83.9458 110.313 84.515 111.056 85.358C118.189 93.4576 127.138 97.4058 137.923 97.1843C138.305 97.1761 138.786 97.3002 138.999 96.7813C126.027 91.2394 127.308 75.8688 137.4 70.5227Z" fill="black"/>
<path d="M16.3113 83.2905C16.2888 70.4796 24.9914 59.1475 37.7582 55.3654C52.9595 50.8623 69.1557 58.9158 74.1735 73.4741C79.7134 89.5441 69.7658 107.177 52.7616 110.941C40.2256 113.716 29.7026 110.045 21.7189 99.8599C18.0537 95.1845 16.3216 89.3698 16.3113 83.2905ZM19.2382 81.3963C19.5315 81.3512 19.6402 81.3676 19.6843 81.3225C20.2719 80.7164 20.8503 80.1021 21.4297 79.4899C25.7287 74.9509 30.6379 71.3072 36.5747 69.1741C42.8324 66.9261 49.1692 66.7969 55.4669 68.8275C61.5186 70.778 66.6811 74.2658 71.2487 78.6612C71.6251 79.0232 71.8651 79.697 72.6086 79.5145C71.9666 69.733 62.8107 57.0985 46.5377 56.9714C29.9016 56.8411 19.6043 70.1258 19.2382 81.3963ZM19.6248 87.8161C20.7847 97.7022 30.9374 109.611 46.7694 109.062C58.845 108.644 71.0057 98.8754 71.9994 88.3535C64.5408 95.1907 55.7941 98.4457 45.8454 98.3524C35.8476 98.259 27.104 94.8163 19.6248 87.8161ZM45.9603 70.3811C44.0631 70.3001 42.5761 70.4765 41.0788 70.7944C32.8325 72.5501 26.6804 77.4706 21.3436 83.6802C20.4083 84.7682 21.1436 85.3077 21.8122 85.963C26.5204 90.5768 32.1588 93.4298 38.5765 94.7948C41.3362 95.3814 44.1215 95.6552 47.3571 95.5783C37.4597 89.2498 37.3438 77.6285 45.9603 70.3811ZM65.7899 77.6757C67.0103 82.5849 66.3067 86.7229 63.6927 90.6353C66.1057 89.8312 70.6468 86.1783 71.8405 84.3252C72.3174 83.5848 71.8641 83.2453 71.4826 82.8403C69.8715 81.1348 68.2193 79.4724 65.7899 77.6757Z" fill="black"/>
<path d="M109.765 80.0869C109.261 79.5341 109.635 78.9444 109.76 78.4142C113.403 63.0283 129.571 52.9832 145.251 58.6903C154.339 61.9976 159.546 68.8102 161.408 78.2348C161.521 78.805 161.52 79.3977 161.597 80.251C160.534 79.7608 160.154 78.9177 159.618 78.2799C155.241 73.0681 149.849 69.4716 143.152 68.0318C136.826 66.6709 130.714 67.6196 124.81 70.0972C119.93 72.1452 115.639 75.113 111.695 78.6203C111.098 79.1516 110.703 80.0048 109.743 80.0581L109.765 80.0869Z" fill="#F6F6AE"/>
<path d="M109.33 87.8911C124.242 103.788 148.831 104.111 160.867 88.0357C160.76 98.4786 148.063 109.56 135.591 110.098C122.145 110.678 110.577 101.018 109.33 87.8911Z" fill="#F6F6AE"/>
<path d="M156.263 87.9239C157.08 85.2503 157.286 82.548 156.63 79.8109C156.865 79.8253 157.1 79.8366 157.333 79.8468C160.702 84.275 160.822 82.87 157.438 87.6736C157.201 88.01 156.885 88.291 156.61 88.5956C156.498 88.371 156.38 88.1474 156.263 87.9239Z" fill="#EBE0D4"/>
<path d="M156.263 87.9238C156.381 88.1474 156.498 88.371 156.611 88.5966C156.467 88.8581 156.246 89.2191 155.989 88.895C155.769 88.6181 155.863 88.1638 156.263 87.9238Z" fill="#4F45E2"/>
<path d="M157.334 79.8479C157.101 79.8366 156.866 79.8263 156.631 79.812C156.475 79.6028 156.467 79.3105 156.713 79.3043C156.979 79.2982 157.275 79.4961 157.334 79.8479Z" fill="#4F45E2"/>
<path d="M109.744 80.059C109.814 80.2702 109.74 80.3995 109.521 80.4056C109.49 80.4066 109.416 80.262 109.425 80.1923C109.456 79.941 109.582 79.9072 109.766 80.0856L109.744 80.059Z" fill="#F6F6AE"/>
<path d="M19.2382 81.3965C19.6043 70.1269 29.9016 56.8423 46.5387 56.9715C62.8107 57.0987 71.9677 69.7332 72.6096 79.5146C71.8661 79.6961 71.6261 79.0234 71.2498 78.6614C66.6821 74.265 61.5196 70.7782 55.468 68.8276C49.1702 66.7971 42.8325 66.9263 36.5757 69.1742C30.639 71.3073 25.7287 74.951 21.4307 79.49C20.8503 80.1023 20.2719 80.7165 19.6853 81.3226C19.6402 81.3677 19.5315 81.3513 19.2382 81.3965Z" fill="#F6F6AE"/>
<path d="M19.6248 87.8163C27.104 94.8165 35.8486 98.2592 45.8465 98.3526C55.7951 98.4459 64.5418 95.1909 72.0005 88.3537C71.0067 98.8756 58.846 108.644 46.7705 109.062C30.9374 109.612 20.7836 97.7034 19.6248 87.8163Z" fill="#F6F6AE"/>
</g>
<defs>
<filter id="filter0_d_11_59121" x="0.667557" y="0" width="178.665" height="158" filterUnits="userSpaceOnUse" color-interpolation-filters="sRGB">
<feFlood flood-opacity="0" result="BackgroundImageFix"/>
<feColorMatrix in="SourceAlpha" type="matrix" values="0 0 0 0 0 0 0 0 0 0 0 0 0 0 0 0 0 0 127 0" result="hardAlpha"/>
<feOffset dy="4"/>
<feGaussianBlur stdDeviation="2"/>
<feComposite in2="hardAlpha" operator="out"/>
<feColorMatrix type="matrix" values="0 0 0 0 0 0 0 0 0 0 0 0 0 0 0 0 0 0 0.25 0"/>
<feBlend mode="normal" in2="BackgroundImageFix" result="effect1_dropShadow_11_59121"/>
<feBlend mode="normal" in="SourceGraphic" in2="effect1_dropShadow_11_59121" result="shape"/>
</filter>
</defs>
</svg>
