<svg width="477" height="540" viewBox="0 0 477 540" fill="none" xmlns="http://www.w3.org/2000/svg">
<g clip-path="url(#clip0_2002_163)">
<g clip-path="url(#clip1_2002_163)">
<g clip-path="url(#clip2_2002_163)">
<path d="M15.6397 415.946C-8.96028 411.131 -33.6578 403.811 -56.3378 394.316C-61.1078 392.321 -66.6803 393.116 -69.5003 398.036C-71.8778 402.176 -70.7753 409.136 -65.9753 411.146C-41.2853 421.481 -15.7253 429.468 10.6147 434.621C15.6997 435.618 21.0172 432.903 22.4272 427.661C23.7247 422.823 20.7547 416.943 15.6397 415.946Z" fill="#FFCE22"/>
<path d="M-1.16252 445.816C-2.273 445.253 -3.51184 444.992 -4.75502 445.058C-6.03752 445.021 -7.23752 445.291 -8.36252 445.868C-9.59962 446.261 -10.7117 446.973 -11.5875 447.931C-12.1125 448.621 -12.645 449.311 -13.17 449.993C-14.0003 451.447 -14.4444 453.089 -14.46 454.763L-14.1675 457.208C-13.7325 458.881 -12.9075 460.336 -11.6925 461.558L-10.4025 462.848C-9.53807 463.796 -8.43441 464.493 -7.20752 464.866C-6.09002 465.428 -4.89752 465.683 -3.61502 465.623C-2.33252 465.661 -1.13252 465.391 -0.00752449 464.813C1.22957 464.42 2.34169 463.709 3.21748 462.751C3.74248 462.061 4.27498 461.371 4.79998 460.688C5.63025 459.235 6.07436 457.592 6.08998 455.918L5.79748 453.473C5.36248 451.801 4.53748 450.346 3.32248 449.123L2.03248 447.833C1.13248 446.858 0.0674801 446.191 -1.16252 445.816Z" fill="#770FFB"/>
<path d="M-8.63029 369.855C-12.2228 373.448 -12.5453 379.995 -8.72779 383.475C-4.89529 386.97 1.04471 387.225 4.89221 383.378C8.48471 379.785 8.80721 373.238 4.98971 369.758C1.16471 366.255 -4.78279 366.008 -8.63029 369.855Z" fill="#239FFD"/>
</g>
</g>
</g>
<g clip-path="url(#clip3_2002_163)">
<g clip-path="url(#clip4_2002_163)">
<g clip-path="url(#clip5_2002_163)">
<path d="M452.653 479.931C441.493 471.838 427.063 468.246 413.338 470.721C400.16 473.098 388.858 481.768 381.065 492.411C374.353 501.576 371.195 511.941 370.858 522.426C366.485 544.138 375.943 568.183 396.508 578.128C408.403 583.881 422.548 585.246 435.358 581.263C450.485 576.561 461.908 564.913 469.408 551.211C476.248 538.708 478.88 524.421 474.845 510.718C471.14 498.148 463.168 487.558 452.653 479.931ZM448.348 501.891C448.738 502.318 449.113 502.753 449.488 503.196C449.563 503.286 449.803 503.578 450.005 503.826C450.208 504.096 450.493 504.478 450.568 504.591C451.642 506.122 452.626 507.715 453.515 509.361C454.123 510.501 454.67 511.663 455.203 512.833C455.218 512.863 455.225 512.886 455.24 512.916C455.435 513.448 455.623 513.981 455.803 514.521C456.5 516.643 457.01 518.818 457.37 521.031C457.318 520.858 457.535 522.883 457.558 523.371C457.603 524.511 457.595 525.651 457.535 526.798C457.513 527.188 457.145 529.873 457.325 529.018C457.018 530.646 456.65 532.251 456.17 533.841C453.26 543.531 445.73 554.571 436.97 559.776C435.928 560.398 434.84 560.916 433.775 561.486C433.603 561.576 433.468 561.651 433.348 561.711C432.875 561.898 432.388 562.078 431.908 562.243C430.768 562.641 429.613 562.986 428.443 563.278C427.858 563.428 427.273 563.563 426.68 563.683C426.613 563.698 425.053 563.968 424.963 564.013C422.765 564.276 420.53 564.336 418.333 564.246C417.733 564.223 417.133 564.171 416.525 564.141C416.413 564.133 416.105 564.096 415.873 564.073C414.665 563.893 413.473 563.661 412.288 563.383C410.968 563.068 409.7 562.641 408.403 562.258L407.96 562.131C407.758 562.048 407.555 561.958 407.353 561.868C407.053 561.448 406.715 561.036 406.325 560.653C404.51 558.876 402.823 557.008 401.188 555.066C401.03 554.878 400.903 554.728 400.805 554.616C400.483 554.188 400.168 553.753 399.868 553.318C398.956 552.018 398.093 550.685 397.28 549.321C395.975 547.138 394.865 544.866 393.778 542.563C393.718 542.443 393.478 541.873 393.403 541.716C393.245 541.303 393.095 540.883 392.945 540.463C392.471 539.124 392.045 537.768 391.67 536.398C390.335 531.516 389.9 528.951 389.99 524.376C390.351 523.006 390.785 521.657 391.288 520.333C391.333 520.243 391.385 520.146 391.438 520.033C391.858 519.208 392.263 518.383 392.705 517.566C394.138 514.933 394.273 511.866 393.268 509.241C394.153 507.456 395.105 505.716 396.2 504.051C396.41 503.728 397.925 501.718 397.633 502.033C398.473 501.021 399.343 500.023 400.258 499.071C401.09 498.208 401.968 497.383 402.86 496.588C403.265 496.228 405.073 494.871 404.75 495.066C406.685 493.746 408.665 492.531 410.78 491.518C410.893 491.466 411.328 491.271 411.65 491.128C411.973 491.008 412.43 490.836 412.543 490.798C413.653 490.416 414.778 490.078 415.918 489.801C416.488 489.658 417.065 489.538 417.643 489.426C417.755 489.403 418.235 489.336 418.58 489.283C418.933 489.253 419.458 489.208 419.585 489.201C420.328 489.156 421.07 489.126 421.813 489.133C424.67 489.141 425.998 489.321 428.975 490.056C430.37 490.401 431.75 490.806 433.108 491.271C433.423 491.383 433.745 491.496 434.06 491.608C434.015 491.616 435.493 492.268 435.605 492.321C437.686 493.323 439.689 494.479 441.598 495.778C441.995 496.048 442.378 496.326 442.768 496.611C442.843 496.671 442.925 496.746 443.023 496.828C444.013 497.676 444.995 498.516 445.933 499.423C446.773 500.21 447.579 501.033 448.348 501.891Z" fill="#239FFD"/>
</g>
</g>
</g>
<path d="M0.375 16C0.375 7.37055 7.37055 0.375 16 0.375H238.125V179.625H0.375V16Z" fill="#F8F9FA"/>
<path d="M0.375 16C0.375 7.37055 7.37055 0.375 16 0.375H238.125V179.625H0.375V16Z" stroke="#DEE2E6" stroke-width="0.75"/>
<path d="M107.805 71.968C113.133 72.544 116.625 76.144 116.625 80.68C116.625 85.936 112.449 90.004 106.293 90.004C100.137 90.004 96.1048 85.936 96.1048 80.716C96.1048 78.808 96.8608 76.828 98.0128 75.028L104.277 65.02H112.305L107.805 71.968ZM106.293 84.208C108.453 84.208 109.929 82.552 109.929 80.788C109.929 79.096 108.453 77.44 106.293 77.44C105.321 77.44 104.349 77.764 103.701 78.268L103.485 78.628C102.873 79.528 102.657 80.176 102.657 80.824C102.657 82.552 104.133 84.208 106.293 84.208ZM130.487 64.516C137.615 64.516 142.151 69.7 142.151 77.26C142.151 84.82 137.615 90.004 130.487 90.004C123.359 90.004 118.787 84.82 118.787 77.26C118.787 69.7 123.359 64.516 130.487 64.516ZM130.487 83.884C133.655 83.884 135.491 81.148 135.491 77.26C135.491 73.372 133.655 70.636 130.487 70.636C127.283 70.636 125.447 73.372 125.447 77.26C125.447 81.148 127.283 83.884 130.487 83.884Z" fill="#5CC9A7"/>
<path d="M72.3695 115.768C73.8575 115.768 74.9375 114.904 75.2735 113.584H76.2575C75.8735 115.42 74.3735 116.656 72.3695 116.656C70.0175 116.656 68.1215 114.832 68.1215 112.42C68.1215 110.008 70.0175 108.196 72.3695 108.196C74.3735 108.196 75.8735 109.42 76.2575 111.256H75.2735C74.9375 109.924 73.8575 109.084 72.3695 109.084C70.5215 109.084 69.0815 110.512 69.0815 112.42C69.0815 114.328 70.5215 115.768 72.3695 115.768ZM77.9117 107.98H78.8237V116.5H77.9117V107.98ZM81.3948 109.444C81.0468 109.444 80.7828 109.18 80.7828 108.844C80.7828 108.496 81.0468 108.232 81.3948 108.232C81.7428 108.232 82.0188 108.496 82.0188 108.844C82.0188 109.18 81.7428 109.444 81.3948 109.444ZM80.9508 110.932H81.8628V116.5H80.9508V110.932ZM86.4446 110.788C88.2326 110.788 89.3486 112.168 89.1686 113.992H84.5126C84.6206 115.024 85.3286 115.828 86.4926 115.828C87.2006 115.828 87.7406 115.576 87.9806 115.108H89.0006C88.6526 116.068 87.6926 116.644 86.4926 116.644C84.7766 116.644 83.5886 115.36 83.5886 113.716C83.5886 112.072 84.7646 110.788 86.4446 110.788ZM86.4446 111.58C85.3406 111.58 84.6566 112.36 84.5246 113.344H88.2566C88.2086 112.24 87.5006 111.58 86.4446 111.58ZM93.6595 110.788C95.0755 110.788 96.0475 111.736 96.0475 113.308V116.5H95.1355V113.356C95.1355 112.228 94.4755 111.628 93.4915 111.628C92.8315 111.628 92.1475 111.964 91.6675 112.588V116.5H90.7555V110.932H91.6675V111.556C92.1835 111.064 92.8675 110.788 93.6595 110.788ZM101.328 115.6L101.46 116.44C101.004 116.596 100.62 116.644 100.284 116.644C98.9156 116.644 98.2556 115.888 98.2556 114.436V111.712H96.8036V110.932H98.2556V108.88H99.1676V110.932H101.268V111.712H99.1676V114.436C99.1676 115.396 99.5756 115.792 100.368 115.792C100.68 115.792 101.028 115.708 101.328 115.6ZM103.317 114.748C103.485 115.492 104.061 115.888 105.081 115.888C105.945 115.888 106.533 115.564 106.533 115C106.533 114.532 106.161 114.256 105.621 114.16L104.361 113.956C103.449 113.8 102.705 113.392 102.705 112.444C102.705 111.412 103.617 110.788 104.961 110.788C106.125 110.788 107.277 111.232 107.385 112.552H106.533C106.437 111.856 105.849 111.532 104.961 111.532C104.121 111.532 103.617 111.856 103.617 112.36C103.617 112.768 103.893 113.068 104.649 113.2L105.753 113.38C106.557 113.512 107.409 113.872 107.409 114.94C107.409 116.032 106.425 116.644 105.057 116.644C103.641 116.644 102.633 116.056 102.465 114.748H103.317ZM122.201 108.34H123.197L120.413 116.56H119.489L117.269 110.032L115.049 116.56H114.125L111.341 108.34H112.337L114.581 115.108L116.861 108.34H117.677L119.945 115.096L122.201 108.34ZM126.139 110.788C127.831 110.788 129.091 112.036 129.091 113.716C129.091 115.396 127.831 116.644 126.139 116.644C124.435 116.644 123.175 115.396 123.175 113.716C123.175 112.036 124.435 110.788 126.139 110.788ZM126.139 115.804C127.303 115.804 128.167 114.916 128.167 113.716C128.167 112.516 127.303 111.628 126.139 111.628C124.963 111.628 124.087 112.516 124.087 113.716C124.087 114.916 124.963 115.804 126.139 115.804ZM131.558 111.844C132.074 111.184 132.818 110.8 133.706 110.8V111.664C132.794 111.688 132.05 112.108 131.558 112.876V116.5H130.646V110.932H131.558V111.844ZM135.017 107.98H135.929V116.5H135.017V107.98ZM142.389 107.98H143.301V116.5H142.389V115.924C141.897 116.38 141.225 116.644 140.433 116.644C138.837 116.644 137.565 115.336 137.565 113.716C137.565 112.084 138.837 110.788 140.433 110.788C141.225 110.788 141.897 111.052 142.389 111.508V107.98ZM140.553 115.804C141.285 115.804 141.933 115.528 142.389 114.856V112.576C141.933 111.904 141.285 111.628 140.553 111.628C139.377 111.628 138.477 112.564 138.477 113.716C138.477 114.868 139.377 115.804 140.553 115.804ZM152.291 110.932H153.275L151.247 116.5H150.419L148.979 112.24L147.539 116.5H146.711L144.683 110.932H145.667L147.131 115.12L148.583 110.932H149.375L150.827 115.108L152.291 110.932ZM155.27 109.444C154.922 109.444 154.658 109.18 154.658 108.844C154.658 108.496 154.922 108.232 155.27 108.232C155.618 108.232 155.894 108.496 155.894 108.844C155.894 109.18 155.618 109.444 155.27 109.444ZM154.826 110.932H155.738V116.5H154.826V110.932ZM162.288 107.98H163.2V116.5H162.288V115.924C161.796 116.38 161.124 116.644 160.332 116.644C158.736 116.644 157.464 115.336 157.464 113.716C157.464 112.084 158.736 110.788 160.332 110.788C161.124 110.788 161.796 111.052 162.288 111.508V107.98ZM160.452 115.804C161.184 115.804 161.832 115.528 162.288 114.856V112.576C161.832 111.904 161.184 111.628 160.452 111.628C159.276 111.628 158.376 112.564 158.376 113.716C158.376 114.868 159.276 115.804 160.452 115.804ZM167.702 110.788C169.49 110.788 170.606 112.168 170.426 113.992H165.77C165.878 115.024 166.586 115.828 167.75 115.828C168.458 115.828 168.998 115.576 169.238 115.108H170.258C169.91 116.068 168.95 116.644 167.75 116.644C166.034 116.644 164.846 115.36 164.846 113.716C164.846 112.072 166.022 110.788 167.702 110.788ZM167.702 111.58C166.598 111.58 165.914 112.36 165.782 113.344H169.514C169.466 112.24 168.758 111.58 167.702 111.58Z" fill="black"/>
<path d="M238.875 0.375H461C469.629 0.375 476.625 7.37055 476.625 16V179.625H238.875V0.375Z" fill="white"/>
<path d="M238.875 0.375H461C469.629 0.375 476.625 7.37055 476.625 16V179.625H238.875V0.375Z" stroke="#DEE2E6" stroke-width="0.75"/>
<path d="M349.577 83.596H357.353V89.5H339.029V86.224L347.921 76.36C349.361 74.704 350.189 73.66 350.189 72.508C350.189 71.464 349.433 70.564 347.921 70.564C346.337 70.564 345.545 71.572 345.365 73.084H338.669C338.849 67.792 342.341 64.516 348.245 64.516C353.861 64.516 357.245 67.756 357.245 72.544C357.245 74.668 356.129 76.756 353.393 79.636L349.577 83.596ZM372.26 83.596H377.768V89.5H359.48V83.596H365.492V72.688L359.948 74.2V67.648L367.868 65.02H372.26V83.596Z" fill="#4F45E2"/>
<path d="M321.482 108.34V109.216H318.47V116.5H317.522V109.216H314.522V108.34H321.482ZM323.749 110.788C325.537 110.788 326.653 112.168 326.473 113.992H321.817C321.925 115.024 322.633 115.828 323.797 115.828C324.505 115.828 325.045 115.576 325.285 115.108H326.305C325.957 116.068 324.997 116.644 323.797 116.644C322.081 116.644 320.893 115.36 320.893 113.716C320.893 112.072 322.069 110.788 323.749 110.788ZM323.749 111.58C322.645 111.58 321.961 112.36 321.829 113.344H325.561C325.513 112.24 324.805 111.58 323.749 111.58ZM332.713 110.932H333.625V116.5H332.713V115.924C332.221 116.38 331.549 116.644 330.757 116.644C329.161 116.644 327.889 115.348 327.889 113.716C327.889 112.096 329.161 110.788 330.757 110.788C331.549 110.788 332.221 111.052 332.713 111.508V110.932ZM330.877 115.804C331.609 115.804 332.257 115.528 332.713 114.856V112.576C332.257 111.904 331.609 111.628 330.877 111.628C329.701 111.628 328.801 112.564 328.801 113.716C328.801 114.868 329.701 115.804 330.877 115.804ZM342.351 110.788C343.767 110.788 344.691 111.616 344.691 113.212V116.5H343.779V113.212C343.779 112.108 343.203 111.628 342.291 111.628C341.619 111.628 340.995 111.904 340.551 112.576C340.587 112.756 340.599 112.948 340.599 113.164V116.5H339.687V113.164C339.687 112.072 339.099 111.628 338.247 111.628C337.551 111.628 336.939 111.916 336.507 112.564V116.5H335.595V110.932H336.507V111.532C336.963 111.064 337.539 110.788 338.343 110.788C339.195 110.788 339.855 111.1 340.239 111.712C340.779 111.124 341.463 110.788 342.351 110.788ZM357.77 108.34V116.5H356.822V110.416L354.098 114.94H353.474L350.726 110.392L350.75 116.5H349.802V108.34H350.522L353.786 113.788L357.05 108.34H357.77ZM362.421 110.788C364.209 110.788 365.325 112.168 365.145 113.992H360.489C360.597 115.024 361.305 115.828 362.469 115.828C363.177 115.828 363.717 115.576 363.957 115.108H364.977C364.629 116.068 363.669 116.644 362.469 116.644C360.753 116.644 359.565 115.36 359.565 113.716C359.565 112.072 360.741 110.788 362.421 110.788ZM362.421 111.58C361.317 111.58 360.633 112.36 360.501 113.344H364.233C364.185 112.24 363.477 111.58 362.421 111.58ZM373.488 110.788C374.904 110.788 375.828 111.616 375.828 113.212V116.5H374.916V113.212C374.916 112.108 374.34 111.628 373.428 111.628C372.756 111.628 372.132 111.904 371.688 112.576C371.724 112.756 371.736 112.948 371.736 113.164V116.5H370.824V113.164C370.824 112.072 370.236 111.628 369.384 111.628C368.688 111.628 368.076 111.916 367.644 112.564V116.5H366.732V110.932H367.644V111.532C368.1 111.064 368.676 110.788 369.48 110.788C370.332 110.788 370.992 111.1 371.376 111.712C371.916 111.124 372.6 110.788 373.488 110.788ZM380.44 110.788C382.036 110.788 383.308 112.084 383.308 113.716C383.308 115.336 382.036 116.644 380.44 116.644C379.648 116.644 378.976 116.38 378.484 115.924V116.5H377.572V107.98H378.484V111.508C378.976 111.052 379.648 110.788 380.44 110.788ZM380.32 115.804C381.496 115.804 382.396 114.868 382.396 113.716C382.396 112.564 381.496 111.628 380.32 111.628C379.588 111.628 378.94 111.904 378.484 112.576V114.856C378.94 115.528 379.588 115.804 380.32 115.804ZM387.558 110.788C389.346 110.788 390.462 112.168 390.282 113.992H385.626C385.734 115.024 386.442 115.828 387.606 115.828C388.314 115.828 388.854 115.576 389.094 115.108H390.114C389.766 116.068 388.806 116.644 387.606 116.644C385.89 116.644 384.702 115.36 384.702 113.716C384.702 112.072 385.878 110.788 387.558 110.788ZM387.558 111.58C386.454 111.58 385.77 112.36 385.638 113.344H389.37C389.322 112.24 388.614 111.58 387.558 111.58ZM392.781 111.844C393.297 111.184 394.041 110.8 394.929 110.8V111.664C394.017 111.688 393.273 112.108 392.781 112.876V116.5H391.869V110.932H392.781V111.844ZM396.473 114.748C396.641 115.492 397.217 115.888 398.237 115.888C399.101 115.888 399.689 115.564 399.689 115C399.689 114.532 399.317 114.256 398.777 114.16L397.517 113.956C396.605 113.8 395.861 113.392 395.861 112.444C395.861 111.412 396.773 110.788 398.117 110.788C399.281 110.788 400.433 111.232 400.541 112.552H399.689C399.593 111.856 399.005 111.532 398.117 111.532C397.277 111.532 396.773 111.856 396.773 112.36C396.773 112.768 397.049 113.068 397.805 113.2L398.909 113.38C399.713 113.512 400.565 113.872 400.565 114.94C400.565 116.032 399.581 116.644 398.213 116.644C396.797 116.644 395.789 116.056 395.621 114.748H396.473Z" fill="black"/>
<rect x="0.375" y="180.375" width="237.75" height="179.25" fill="white"/>
<rect x="0.375" y="180.375" width="237.75" height="179.25" stroke="#DEE2E6" stroke-width="0.75"/>
<path d="M89.6489 244.516C95.8049 244.516 99.8369 248.584 99.8369 253.804C99.8369 255.712 99.0809 257.692 97.9289 259.492L91.6649 269.5H83.6369L88.1369 262.552C82.8089 261.976 79.3169 258.376 79.3169 253.84C79.3169 248.584 83.4929 244.516 89.6489 244.516ZM92.2409 256.252L92.4569 255.892C93.0689 254.992 93.2849 254.344 93.2849 253.696C93.2849 251.968 91.8089 250.312 89.6489 250.312C87.4889 250.312 86.0129 251.968 86.0129 253.732C86.0129 255.424 87.4889 257.08 89.6489 257.08C90.6209 257.08 91.5929 256.756 92.2409 256.252ZM112.639 251.968C117.967 252.544 121.459 256.144 121.459 260.68C121.459 265.936 117.283 270.004 111.127 270.004C104.971 270.004 100.939 265.936 100.939 260.716C100.939 258.808 101.695 256.828 102.847 255.028L109.111 245.02H117.139L112.639 251.968ZM111.127 264.208C113.287 264.208 114.763 262.552 114.763 260.788C114.763 259.096 113.287 257.44 111.127 257.44C110.155 257.44 109.183 257.764 108.535 258.268L108.319 258.628C107.707 259.528 107.491 260.176 107.491 260.824C107.491 262.552 108.967 264.208 111.127 264.208ZM130.177 244.516C134.497 244.516 137.773 247.576 137.773 251.86C137.773 256.18 134.497 259.24 130.177 259.24C125.857 259.24 122.617 256.18 122.617 251.86C122.617 247.576 125.857 244.516 130.177 244.516ZM150.481 245.02L134.533 269.5H129.961L145.909 245.02H150.481ZM130.177 255.028C131.869 255.028 133.309 253.768 133.309 251.86C133.309 250.024 131.869 248.764 130.177 248.764C128.521 248.764 127.045 250.024 127.045 251.86C127.045 253.768 128.521 255.028 130.177 255.028ZM150.661 255.28C154.981 255.28 158.257 258.34 158.257 262.624C158.257 266.944 154.981 270.004 150.661 270.004C146.341 270.004 143.101 266.944 143.101 262.624C143.101 258.34 146.341 255.28 150.661 255.28ZM150.661 265.756C152.353 265.756 153.793 264.496 153.793 262.624C153.793 260.752 152.353 259.492 150.661 259.492C149.005 259.492 147.529 260.752 147.529 262.624C147.529 264.496 149.005 265.756 150.661 265.756Z" fill="black"/>
<path d="M77.4789 295.768C78.9669 295.768 80.0469 294.904 80.3829 293.584H81.3669C80.9829 295.42 79.4829 296.656 77.4789 296.656C75.1269 296.656 73.2309 294.832 73.2309 292.42C73.2309 290.008 75.1269 288.196 77.4789 288.196C79.4829 288.196 80.9829 289.42 81.3669 291.256H80.3829C80.0469 289.924 78.9669 289.084 77.4789 289.084C75.6309 289.084 74.1909 290.512 74.1909 292.42C74.1909 294.328 75.6309 295.768 77.4789 295.768ZM83.0211 287.98H83.9331V296.5H83.0211V287.98ZM86.5042 289.444C86.1562 289.444 85.8922 289.18 85.8922 288.844C85.8922 288.496 86.1562 288.232 86.5042 288.232C86.8522 288.232 87.1282 288.496 87.1282 288.844C87.1282 289.18 86.8522 289.444 86.5042 289.444ZM86.0602 290.932H86.9722V296.5H86.0602V290.932ZM91.554 290.788C93.342 290.788 94.458 292.168 94.278 293.992H89.622C89.73 295.024 90.438 295.828 91.602 295.828C92.31 295.828 92.85 295.576 93.09 295.108H94.11C93.762 296.068 92.802 296.644 91.602 296.644C89.886 296.644 88.698 295.36 88.698 293.716C88.698 292.072 89.874 290.788 91.554 290.788ZM91.554 291.58C90.45 291.58 89.766 292.36 89.634 293.344H93.366C93.318 292.24 92.61 291.58 91.554 291.58ZM98.7689 290.788C100.185 290.788 101.157 291.736 101.157 293.308V296.5H100.245V293.356C100.245 292.228 99.5849 291.628 98.6009 291.628C97.9409 291.628 97.2569 291.964 96.7769 292.588V296.5H95.8649V290.932H96.7769V291.556C97.2929 291.064 97.9769 290.788 98.7689 290.788ZM106.437 295.6L106.569 296.44C106.113 296.596 105.729 296.644 105.393 296.644C104.025 296.644 103.365 295.888 103.365 294.436V291.712H101.913V290.932H103.365V288.88H104.277V290.932H106.377V291.712H104.277V294.436C104.277 295.396 104.685 295.792 105.477 295.792C105.789 295.792 106.137 295.708 106.437 295.6ZM116.819 296.5L114.443 293.584H112.367V296.5H111.419V288.34H114.503C116.339 288.34 117.623 289.348 117.623 290.956C117.623 292.252 116.795 293.164 115.523 293.464L117.995 296.5H116.819ZM112.367 289.216V292.708H114.479C115.751 292.708 116.687 292.048 116.687 290.956C116.687 289.864 115.751 289.216 114.479 289.216H112.367ZM121.484 290.788C123.272 290.788 124.388 292.168 124.208 293.992H119.552C119.66 295.024 120.368 295.828 121.532 295.828C122.24 295.828 122.78 295.576 123.02 295.108H124.04C123.692 296.068 122.732 296.644 121.532 296.644C119.816 296.644 118.628 295.36 118.628 293.716C118.628 292.072 119.804 290.788 121.484 290.788ZM121.484 291.58C120.38 291.58 119.696 292.36 119.564 293.344H123.296C123.248 292.24 122.54 291.58 121.484 291.58ZM129.453 295.6L129.585 296.44C129.129 296.596 128.745 296.644 128.409 296.644C127.041 296.644 126.381 295.888 126.381 294.436V291.712H124.929V290.932H126.381V288.88H127.293V290.932H129.393V291.712H127.293V294.436C127.293 295.396 127.701 295.792 128.493 295.792C128.805 295.792 129.153 295.708 129.453 295.6ZM133.214 290.788C135.002 290.788 136.118 292.168 135.938 293.992H131.282C131.39 295.024 132.098 295.828 133.262 295.828C133.97 295.828 134.51 295.576 134.75 295.108H135.77C135.422 296.068 134.462 296.644 133.262 296.644C131.546 296.644 130.358 295.36 130.358 293.716C130.358 292.072 131.534 290.788 133.214 290.788ZM133.214 291.58C132.11 291.58 131.426 292.36 131.294 293.344H135.026C134.978 292.24 134.27 291.58 133.214 291.58ZM140.429 290.788C141.845 290.788 142.817 291.736 142.817 293.308V296.5H141.905V293.356C141.905 292.228 141.245 291.628 140.261 291.628C139.601 291.628 138.917 291.964 138.437 292.588V296.5H137.525V290.932H138.437V291.556C138.953 291.064 139.637 290.788 140.429 290.788ZM148.097 295.6L148.229 296.44C147.773 296.596 147.389 296.644 147.053 296.644C145.685 296.644 145.025 295.888 145.025 294.436V291.712H143.573V290.932H145.025V288.88H145.937V290.932H148.037V291.712H145.937V294.436C145.937 295.396 146.345 295.792 147.137 295.792C147.449 295.792 147.797 295.708 148.097 295.6ZM150.325 289.444C149.977 289.444 149.713 289.18 149.713 288.844C149.713 288.496 149.977 288.232 150.325 288.232C150.673 288.232 150.949 288.496 150.949 288.844C150.949 289.18 150.673 289.444 150.325 289.444ZM149.881 290.932H150.793V296.5H149.881V290.932ZM155.482 290.788C157.174 290.788 158.434 292.036 158.434 293.716C158.434 295.396 157.174 296.644 155.482 296.644C153.778 296.644 152.518 295.396 152.518 293.716C152.518 292.036 153.778 290.788 155.482 290.788ZM155.482 295.804C156.646 295.804 157.51 294.916 157.51 293.716C157.51 292.516 156.646 291.628 155.482 291.628C154.306 291.628 153.43 292.516 153.43 293.716C153.43 294.916 154.306 295.804 155.482 295.804ZM162.894 290.788C164.31 290.788 165.282 291.736 165.282 293.308V296.5H164.37V293.356C164.37 292.228 163.71 291.628 162.726 291.628C162.066 291.628 161.382 291.964 160.902 292.588V296.5H159.99V290.932H160.902V291.556C161.418 291.064 162.102 290.788 162.894 290.788Z" fill="black"/>
<rect x="238.875" y="180.375" width="237.75" height="179.25" fill="#F8F9FA"/>
<rect x="238.875" y="180.375" width="237.75" height="179.25" stroke="#DEE2E6" stroke-width="0.75"/>
<path d="M299.012 261.596H304.52V267.5H286.232V261.596H292.244V250.688L286.7 252.2V245.648L294.62 243.02H299.012V261.596ZM318.559 261.596H324.067V267.5H305.779V261.596H311.791V250.688L306.247 252.2V245.648L314.167 243.02H318.559V261.596ZM356.827 243.02L347.215 260.84L347.251 267.5H339.979L339.943 260.84L330.331 243.02H338.359L343.543 252.668L348.799 243.02H356.827ZM362.598 249.284C368.97 249.284 372.858 253.532 372.03 259.976H359.25C359.646 261.632 360.798 262.892 362.886 262.892C364.182 262.892 364.866 262.604 365.334 262.028H371.886C370.986 265.592 367.602 268.004 363.174 268.004C357.198 268.004 353.238 264.08 353.238 258.608C353.238 253.1 356.982 249.284 362.598 249.284ZM362.778 253.856C361.014 253.856 359.862 254.756 359.358 256.52H366.054C365.766 254.684 364.65 253.856 362.778 253.856ZM387.441 249.788H394.425V267.5H387.441V266.672C386.181 267.464 384.741 268.004 382.869 268.004C378.153 268.004 374.085 264.008 374.085 258.572C374.085 253.136 378.153 249.284 382.869 249.284C384.741 249.284 386.181 249.752 387.441 250.508V249.788ZM384.453 262.316C385.461 262.316 386.469 262.1 387.441 261.2V255.908C386.469 255.008 385.461 254.792 384.453 254.792C382.401 254.792 380.781 256.304 380.781 258.572C380.781 260.804 382.401 262.316 384.453 262.316ZM410.757 249.5V256.124C407.733 256.16 406.077 256.88 404.817 257.924V267.5H397.869V249.788H404.817V251.588C406.365 250.328 408.129 249.5 410.757 249.5ZM417.492 261.452C417.708 262.604 419.076 263.288 420.696 263.288C422.028 263.288 422.712 262.892 422.712 262.28C422.712 261.812 421.956 261.524 420.804 261.308L417.492 260.768C413.964 260.192 412.272 258.212 412.272 255.26C412.272 251.516 415.584 249.248 420.516 249.248C425.7 249.248 429.048 251.228 429.228 255.548H423.216C423.108 254.468 422.136 253.784 420.552 253.784C419.328 253.784 418.788 254.252 418.788 254.792C418.788 255.332 419.184 255.656 420.336 255.836L423.72 256.484C427.572 257.204 429.48 259.112 429.48 262.028C429.48 266.276 425.52 267.968 420.804 267.968C415.512 267.968 411.912 265.772 411.552 261.452H417.492Z" fill="#FFB116"/>
<path d="M326.688 288.34H327.636V296.5H326.688V288.34ZM332.625 290.788C334.041 290.788 335.013 291.736 335.013 293.308V296.5H334.101V293.356C334.101 292.228 333.441 291.628 332.457 291.628C331.797 291.628 331.113 291.964 330.633 292.588V296.5H329.721V290.932H330.633V291.556C331.149 291.064 331.833 290.788 332.625 290.788ZM344.774 292.276C345.974 292.48 346.574 293.26 346.574 294.268C346.574 295.6 345.41 296.5 343.598 296.5H340.118V288.34H343.502C345.146 288.34 346.154 289.144 346.154 290.404C346.154 291.304 345.65 292.012 344.774 292.276ZM343.406 289.18H341.066V291.976H343.286C344.546 291.976 345.254 291.412 345.254 290.512C345.254 289.696 344.558 289.18 343.406 289.18ZM343.562 295.66C344.87 295.66 345.638 295.024 345.638 294.172C345.638 293.284 344.87 292.768 343.586 292.768H341.066V295.66H343.562ZM352.318 290.932H353.23V296.5H352.318V295.864C351.802 296.356 351.118 296.644 350.326 296.644C348.91 296.644 347.938 295.672 347.938 294.1V290.932H348.85V294.052C348.85 295.18 349.51 295.804 350.494 295.804C351.154 295.804 351.838 295.456 352.318 294.82V290.932ZM355.665 294.748C355.833 295.492 356.409 295.888 357.429 295.888C358.293 295.888 358.881 295.564 358.881 295C358.881 294.532 358.509 294.256 357.969 294.16L356.709 293.956C355.797 293.8 355.053 293.392 355.053 292.444C355.053 291.412 355.965 290.788 357.309 290.788C358.473 290.788 359.625 291.232 359.733 292.552H358.881C358.785 291.856 358.197 291.532 357.309 291.532C356.469 291.532 355.965 291.856 355.965 292.36C355.965 292.768 356.241 293.068 356.997 293.2L358.101 293.38C358.905 293.512 359.757 293.872 359.757 294.94C359.757 296.032 358.773 296.644 357.405 296.644C355.989 296.644 354.981 296.056 354.813 294.748H355.665ZM362.02 289.444C361.672 289.444 361.408 289.18 361.408 288.844C361.408 288.496 361.672 288.232 362.02 288.232C362.368 288.232 362.644 288.496 362.644 288.844C362.644 289.18 362.368 289.444 362.02 289.444ZM361.576 290.932H362.488V296.5H361.576V290.932ZM367.5 290.788C368.916 290.788 369.888 291.736 369.888 293.308V296.5H368.976V293.356C368.976 292.228 368.316 291.628 367.332 291.628C366.672 291.628 365.988 291.964 365.508 292.588V296.5H364.596V290.932H365.508V291.556C366.024 291.064 366.708 290.788 367.5 290.788ZM374.195 290.788C375.983 290.788 377.099 292.168 376.919 293.992H372.263C372.371 295.024 373.079 295.828 374.243 295.828C374.951 295.828 375.491 295.576 375.731 295.108H376.751C376.403 296.068 375.443 296.644 374.243 296.644C372.527 296.644 371.339 295.36 371.339 293.716C371.339 292.072 372.515 290.788 374.195 290.788ZM374.195 291.58C373.091 291.58 372.407 292.36 372.275 293.344H376.007C375.959 292.24 375.251 291.58 374.195 291.58ZM378.974 294.748C379.142 295.492 379.718 295.888 380.738 295.888C381.602 295.888 382.19 295.564 382.19 295C382.19 294.532 381.818 294.256 381.278 294.16L380.018 293.956C379.106 293.8 378.362 293.392 378.362 292.444C378.362 291.412 379.274 290.788 380.618 290.788C381.782 290.788 382.934 291.232 383.042 292.552H382.19C382.094 291.856 381.506 291.532 380.618 291.532C379.778 291.532 379.274 291.856 379.274 292.36C379.274 292.768 379.55 293.068 380.306 293.2L381.41 293.38C382.214 293.512 383.066 293.872 383.066 294.94C383.066 296.032 382.082 296.644 380.714 296.644C379.298 296.644 378.29 296.056 378.122 294.748H378.974ZM385.067 294.748C385.235 295.492 385.811 295.888 386.831 295.888C387.695 295.888 388.283 295.564 388.283 295C388.283 294.532 387.911 294.256 387.371 294.16L386.111 293.956C385.199 293.8 384.455 293.392 384.455 292.444C384.455 291.412 385.367 290.788 386.711 290.788C387.875 290.788 389.027 291.232 389.135 292.552H388.283C388.187 291.856 387.599 291.532 386.711 291.532C385.871 291.532 385.367 291.856 385.367 292.36C385.367 292.768 385.643 293.068 386.399 293.2L387.503 293.38C388.307 293.512 389.159 293.872 389.159 294.94C389.159 296.032 388.175 296.644 386.807 296.644C385.391 296.644 384.383 296.056 384.215 294.748H385.067Z" fill="black"/>
<path d="M0.375 360.375H238.125V539.625H16C7.37056 539.625 0.375 532.629 0.375 524V360.375Z" fill="#F8F9FA"/>
<path d="M0.375 360.375H238.125V539.625H16C7.37056 539.625 0.375 532.629 0.375 524V360.375Z" stroke="#DEE2E6" stroke-width="0.75"/>
<path d="M86.0709 443.596H91.5789V449.5H73.2909V443.596H79.3029V432.688L73.7589 434.2V427.648L81.6789 425.02H86.0709V443.596ZM103.979 424.516C111.107 424.516 115.643 429.7 115.643 437.26C115.643 444.82 111.107 450.004 103.979 450.004C96.8507 450.004 92.2787 444.82 92.2787 437.26C92.2787 429.7 96.8507 424.516 103.979 424.516ZM103.979 443.884C107.147 443.884 108.983 441.148 108.983 437.26C108.983 433.372 107.147 430.636 103.979 430.636C100.775 430.636 98.9387 433.372 98.9387 437.26C98.9387 441.148 100.775 443.884 103.979 443.884ZM129.783 424.516C136.911 424.516 141.447 429.7 141.447 437.26C141.447 444.82 136.911 450.004 129.783 450.004C122.655 450.004 118.083 444.82 118.083 437.26C118.083 429.7 122.655 424.516 129.783 424.516ZM129.783 443.884C132.951 443.884 134.787 441.148 134.787 437.26C134.787 433.372 132.951 430.636 129.783 430.636C126.579 430.636 124.743 433.372 124.743 437.26C124.743 441.148 126.579 443.884 129.783 443.884ZM162.896 440.248H156.992V445.9H151.952V440.248H146.012V435.388H151.952V429.736H156.992V435.388H162.896V440.248Z" fill="#4F45E2"/>
<path d="M66.1581 468.34C68.0421 468.34 69.3021 469.42 69.3021 471.052C69.3021 472.744 67.9941 473.86 66.0381 473.86H64.2261V476.5H63.2781V468.34H66.1581ZM66.1221 472.984C67.4661 472.984 68.3661 472.216 68.3661 471.052C68.3661 469.948 67.4661 469.204 66.1221 469.204H64.2261V472.984H66.1221ZM71.5112 471.844C72.0272 471.184 72.7712 470.8 73.6592 470.8V471.664C72.7472 471.688 72.0032 472.108 71.5112 472.876V476.5H70.5992V470.932H71.5112V471.844ZM77.4354 470.788C79.1274 470.788 80.3874 472.036 80.3874 473.716C80.3874 475.396 79.1274 476.644 77.4354 476.644C75.7314 476.644 74.4714 475.396 74.4714 473.716C74.4714 472.036 75.7314 470.788 77.4354 470.788ZM77.4354 475.804C78.5994 475.804 79.4634 474.916 79.4634 473.716C79.4634 472.516 78.5994 471.628 77.4354 471.628C76.2594 471.628 75.3834 472.516 75.3834 473.716C75.3834 474.916 76.2594 475.804 77.4354 475.804ZM82.5762 469.444C82.2282 469.444 81.9522 469.18 81.9522 468.844C81.9522 468.496 82.2282 468.232 82.5762 468.232C82.9242 468.232 83.1882 468.496 83.1882 468.844C83.1882 469.18 82.9242 469.444 82.5762 469.444ZM83.0322 470.932V477.064C83.0322 478.648 82.5402 479.392 80.9082 479.404L80.8482 478.6C81.7962 478.564 82.1202 478.204 82.1202 477.172V470.932H83.0322ZM87.7219 470.788C89.5099 470.788 90.6259 472.168 90.4459 473.992H85.7899C85.8979 475.024 86.6059 475.828 87.7699 475.828C88.4779 475.828 89.0179 475.576 89.2579 475.108H90.2779C89.9299 476.068 88.9699 476.644 87.7699 476.644C86.0539 476.644 84.8659 475.36 84.8659 473.716C84.8659 472.072 86.0419 470.788 87.7219 470.788ZM87.7219 471.58C86.6179 471.58 85.9339 472.36 85.8019 473.344H89.5339C89.4859 472.24 88.7779 471.58 87.7219 471.58ZM94.778 475.804C95.642 475.804 96.29 475.336 96.458 474.604H97.406C97.19 475.816 96.122 476.644 94.778 476.644C93.086 476.644 91.862 475.36 91.862 473.716C91.862 472.072 93.086 470.788 94.778 470.788C96.122 470.788 97.19 471.616 97.406 472.84H96.458C96.29 472.108 95.642 471.628 94.778 471.628C93.566 471.628 92.774 472.564 92.774 473.716C92.774 474.88 93.566 475.804 94.778 475.804ZM102.617 475.6L102.749 476.44C102.293 476.596 101.909 476.644 101.573 476.644C100.205 476.644 99.5446 475.888 99.5446 474.436V471.712H98.0926V470.932H99.5446V468.88H100.457V470.932H102.557V471.712H100.457V474.436C100.457 475.396 100.865 475.792 101.657 475.792C101.969 475.792 102.317 475.708 102.617 475.6ZM104.606 474.748C104.774 475.492 105.35 475.888 106.37 475.888C107.234 475.888 107.822 475.564 107.822 475C107.822 474.532 107.45 474.256 106.91 474.16L105.65 473.956C104.738 473.8 103.994 473.392 103.994 472.444C103.994 471.412 104.906 470.788 106.25 470.788C107.414 470.788 108.566 471.232 108.674 472.552H107.822C107.726 471.856 107.138 471.532 106.25 471.532C105.41 471.532 104.906 471.856 104.906 472.36C104.906 472.768 105.182 473.068 105.938 473.2L107.042 473.38C107.846 473.512 108.698 473.872 108.698 474.94C108.698 476.032 107.714 476.644 106.346 476.644C104.93 476.644 103.922 476.056 103.754 474.748H104.606ZM117.534 475.768C119.022 475.768 120.102 474.904 120.438 473.584H121.422C121.038 475.42 119.538 476.656 117.534 476.656C115.182 476.656 113.286 474.832 113.286 472.42C113.286 470.008 115.182 468.196 117.534 468.196C119.538 468.196 121.038 469.42 121.422 471.256H120.438C120.102 469.924 119.022 469.084 117.534 469.084C115.686 469.084 114.246 470.512 114.246 472.42C114.246 474.328 115.686 475.768 117.534 475.768ZM125.635 470.788C127.327 470.788 128.587 472.036 128.587 473.716C128.587 475.396 127.327 476.644 125.635 476.644C123.931 476.644 122.671 475.396 122.671 473.716C122.671 472.036 123.931 470.788 125.635 470.788ZM125.635 475.804C126.799 475.804 127.663 474.916 127.663 473.716C127.663 472.516 126.799 471.628 125.635 471.628C124.459 471.628 123.583 472.516 123.583 473.716C123.583 474.916 124.459 475.804 125.635 475.804ZM136.898 470.788C138.314 470.788 139.238 471.616 139.238 473.212V476.5H138.326V473.212C138.326 472.108 137.75 471.628 136.838 471.628C136.166 471.628 135.542 471.904 135.098 472.576C135.134 472.756 135.146 472.948 135.146 473.164V476.5H134.234V473.164C134.234 472.072 133.646 471.628 132.794 471.628C132.098 471.628 131.486 471.916 131.054 472.564V476.5H130.142V470.932H131.054V471.532C131.51 471.064 132.086 470.788 132.89 470.788C133.742 470.788 134.402 471.1 134.786 471.712C135.326 471.124 136.01 470.788 136.898 470.788ZM143.85 470.8C145.446 470.8 146.718 472.096 146.718 473.716C146.718 475.348 145.446 476.632 143.85 476.632C143.058 476.632 142.386 476.368 141.894 475.912V479.284H140.982V470.932H141.894V471.52C142.386 471.064 143.058 470.8 143.85 470.8ZM143.73 475.828C144.906 475.828 145.806 474.868 145.806 473.716C145.806 472.564 144.906 471.604 143.73 471.604C142.998 471.604 142.35 471.904 141.894 472.576V474.856C142.35 475.528 142.998 475.828 143.73 475.828ZM148.341 467.98H149.253V476.5H148.341V467.98ZM153.745 470.788C155.533 470.788 156.649 472.168 156.469 473.992H151.813C151.921 475.024 152.629 475.828 153.793 475.828C154.501 475.828 155.041 475.576 155.281 475.108H156.301C155.953 476.068 154.993 476.644 153.793 476.644C152.077 476.644 150.889 475.36 150.889 473.716C150.889 472.072 152.065 470.788 153.745 470.788ZM153.745 471.58C152.641 471.58 151.957 472.36 151.825 473.344H155.557C155.509 472.24 154.801 471.58 153.745 471.58ZM161.714 475.6L161.846 476.44C161.39 476.596 161.006 476.644 160.67 476.644C159.302 476.644 158.642 475.888 158.642 474.436V471.712H157.19V470.932H158.642V468.88H159.554V470.932H161.654V471.712H159.554V474.436C159.554 475.396 159.962 475.792 160.754 475.792C161.066 475.792 161.414 475.708 161.714 475.6ZM165.476 470.788C167.264 470.788 168.38 472.168 168.2 473.992H163.544C163.652 475.024 164.36 475.828 165.524 475.828C166.232 475.828 166.772 475.576 167.012 475.108H168.032C167.684 476.068 166.724 476.644 165.524 476.644C163.808 476.644 162.62 475.36 162.62 473.716C162.62 472.072 163.796 470.788 165.476 470.788ZM165.476 471.58C164.372 471.58 163.688 472.36 163.556 473.344H167.288C167.24 472.24 166.532 471.58 165.476 471.58ZM174.44 467.98H175.352V476.5H174.44V475.924C173.948 476.38 173.276 476.644 172.484 476.644C170.888 476.644 169.616 475.336 169.616 473.716C169.616 472.084 170.888 470.788 172.484 470.788C173.276 470.788 173.948 471.052 174.44 471.508V467.98ZM172.604 475.804C173.336 475.804 173.984 475.528 174.44 474.856V472.576C173.984 471.904 173.336 471.628 172.604 471.628C171.428 471.628 170.528 472.564 170.528 473.716C170.528 474.868 171.428 475.804 172.604 475.804Z" fill="black"/>
<path d="M238.875 360.375H476.625V524C476.625 532.629 469.629 539.625 461 539.625H238.875V360.375Z" fill="white"/>
<path d="M238.875 360.375H476.625V524C476.625 532.629 469.629 539.625 461 539.625H238.875V360.375Z" stroke="#DEE2E6" stroke-width="0.75"/>
<path d="M328.747 443.596H336.523V449.5H318.199V446.224L327.091 436.36C328.531 434.704 329.359 433.66 329.359 432.508C329.359 431.464 328.603 430.564 327.091 430.564C325.507 430.564 324.715 431.572 324.535 433.084H317.839C318.019 427.792 321.511 424.516 327.415 424.516C333.031 424.516 336.415 427.756 336.415 432.544C336.415 434.668 335.299 436.756 332.563 439.636L328.747 443.596ZM360.581 439.672V445.648H357.629V449.5H350.897V445.648H338.477V441.148L344.921 425.02H351.617L346.325 439.672H350.897V433.336H357.629V439.672H360.581ZM377.964 423.22L368.82 455.26H362.16L371.304 423.22H377.964ZM379.59 425.02H398.202V428.872L389.274 449.5H381.462L389.49 431.356H379.59V425.02Z" fill="#5CC9A7"/>
<path d="M328.673 468.34H329.621V476.5H328.673V468.34ZM337.912 468.34V469.216H334.9V476.5H333.952V469.216H330.952V468.34H337.912ZM345.451 468.196C347.059 468.196 348.451 468.904 348.655 470.584H347.707C347.527 469.612 346.843 469.012 345.511 469.012C344.311 469.012 343.531 469.552 343.531 470.476C343.531 471.196 344.047 471.604 345.019 471.796L346.351 472.048C347.815 472.336 348.643 472.996 348.643 474.196C348.643 475.684 347.419 476.644 345.583 476.644C343.627 476.644 342.355 475.648 342.175 473.884H343.111C343.303 475.108 344.179 475.792 345.631 475.792C346.879 475.792 347.671 475.228 347.671 474.304C347.671 473.656 347.227 473.152 346.195 472.972L344.671 472.672C343.219 472.396 342.523 471.652 342.523 470.536C342.523 469.108 343.699 468.196 345.451 468.196ZM354.443 470.932H355.355V476.5H354.443V475.864C353.927 476.356 353.243 476.644 352.451 476.644C351.035 476.644 350.063 475.672 350.063 474.1V470.932H350.975V474.052C350.975 475.18 351.635 475.804 352.619 475.804C353.279 475.804 353.963 475.456 354.443 474.82V470.932ZM360.19 470.8C361.786 470.8 363.058 472.096 363.058 473.716C363.058 475.348 361.786 476.632 360.19 476.632C359.398 476.632 358.726 476.368 358.234 475.912V479.284H357.322V470.932H358.234V471.52C358.726 471.064 359.398 470.8 360.19 470.8ZM360.07 475.828C361.246 475.828 362.146 474.868 362.146 473.716C362.146 472.564 361.246 471.604 360.07 471.604C359.338 471.604 358.69 471.904 358.234 472.576V474.856C358.69 475.528 359.338 475.828 360.07 475.828ZM367.573 470.8C369.169 470.8 370.441 472.096 370.441 473.716C370.441 475.348 369.169 476.632 367.573 476.632C366.781 476.632 366.109 476.368 365.617 475.912V479.284H364.705V470.932H365.617V471.52C366.109 471.064 366.781 470.8 367.573 470.8ZM367.453 475.828C368.629 475.828 369.529 474.868 369.529 473.716C369.529 472.564 368.629 471.604 367.453 471.604C366.721 471.604 366.073 471.904 365.617 472.576V474.856C366.073 475.528 366.721 475.828 367.453 475.828ZM374.799 470.788C376.491 470.788 377.751 472.036 377.751 473.716C377.751 475.396 376.491 476.644 374.799 476.644C373.095 476.644 371.835 475.396 371.835 473.716C371.835 472.036 373.095 470.788 374.799 470.788ZM374.799 475.804C375.963 475.804 376.827 474.916 376.827 473.716C376.827 472.516 375.963 471.628 374.799 471.628C373.623 471.628 372.747 472.516 372.747 473.716C372.747 474.916 373.623 475.804 374.799 475.804ZM380.218 471.844C380.734 471.184 381.478 470.8 382.366 470.8V471.664C381.454 471.688 380.71 472.108 380.218 472.876V476.5H379.306V470.932H380.218V471.844ZM387.312 475.6L387.444 476.44C386.988 476.596 386.604 476.644 386.268 476.644C384.9 476.644 384.24 475.888 384.24 474.436V471.712H382.788V470.932H384.24V468.88H385.152V470.932H387.252V471.712H385.152V474.436C385.152 475.396 385.56 475.792 386.352 475.792C386.664 475.792 387.012 475.708 387.312 475.6Z" fill="black"/>
<defs>
<clipPath id="clip0_2002_163">
<rect width="93.75" height="148.5" fill="white" transform="translate(-70.71 317.55)"/>
</clipPath>
<clipPath id="clip1_2002_163">
<rect width="93.75" height="148.5" fill="white" transform="translate(-70.71 317.55)"/>
</clipPath>
<clipPath id="clip2_2002_163">
<rect width="93.75" height="148.5" fill="white" transform="translate(-70.71 317.55)"/>
</clipPath>
<clipPath id="clip3_2002_163">
<rect width="107.25" height="114" fill="white" transform="translate(369.81 469.95)"/>
</clipPath>
<clipPath id="clip4_2002_163">
<rect width="107.25" height="114" fill="white" transform="translate(369.81 469.95)"/>
</clipPath>
<clipPath id="clip5_2002_163">
<rect width="107.25" height="114" fill="white" transform="translate(369.81 469.95)"/>
</clipPath>
</defs>
</svg>
