<svg width="154" height="158" viewBox="0 0 154 158" fill="none" xmlns="http://www.w3.org/2000/svg">
<g filter="url(#filter0_d_11_59266)">
<path d="M40.9285 17.3978C27.4413 26.844 22.1048 38.3645 14.0617 51.8567C9.92607 58.7945 6.15099 66.1435 4.88732 74.1219C3.0381 85.7917 6.72954 97.6348 11.5164 108.437C16.59 119.885 23.2032 131.056 33.1592 138.65C42.1474 145.506 53.401 149.017 64.6785 149.812C75.955 150.607 87.2882 148.805 98.1982 145.847C107.578 143.303 116.891 139.811 124.535 133.81C132.415 127.625 138.152 119.035 142.207 109.875C153.842 83.59 151.61 51.6157 136.438 27.2005C132.284 20.5147 128.459 12.6408 121.217 9.03503C108.62 2.76246 93.8346 0.12358 79.8725 0.0010961C66.202 -0.120392 51.6593 9.88247 40.9285 17.3978Z" fill="#DCE2FC"/>
<path d="M118.466 122.332C119.131 122.69 119.726 122.959 120.268 123.31C123.051 125.111 123.505 127.904 121.44 130.469C120.642 131.46 119.697 132.306 118.658 133.036C116.204 134.761 113.262 135.515 110.684 137.008C110.094 137.35 109.211 137.497 108.555 137.343C107.35 137.059 106.405 137.371 105.352 137.893C102.252 139.429 99.4226 138.851 96.8885 136.556C96.3051 136.028 95.6773 135.547 95.0135 134.998C94.7589 135.393 94.4278 135.937 94.0669 136.463C91.7256 139.875 88.7373 142.37 84.5669 143.23C81.6987 143.821 79.0002 143.436 76.5136 141.882C75.8843 141.489 75.4836 141.319 74.8405 141.918C74.111 142.598 73.1124 142.903 72.139 143.143C69.283 143.849 66.4615 143.64 63.672 142.773C61.9615 142.24 60.6814 141.089 59.497 139.779C58.5083 140.539 57.5968 141.321 56.6066 141.986C53.4172 144.124 49.9205 144.867 46.1416 144.095C43.6389 143.584 41.5262 142.373 40.0068 140.296C39.5327 139.647 39.0976 139.511 38.346 139.657C31.5344 140.978 23.2196 134.213 26.4984 125.289C27.4252 122.767 29.1357 120.969 31.9405 120.576C32.7823 120.458 33.0087 120.164 32.9674 119.318C32.8328 116.544 33.5309 114.013 35.6322 112.07C36.3571 111.4 36.1025 110.849 35.841 110.131C34.4998 106.444 33.1257 102.767 32.2891 98.9183C31.1987 93.8983 30.4899 88.8264 30.2858 83.6933C30.2093 81.7633 30.428 79.8463 30.8524 77.9461C31.2989 75.9458 32.5384 74.8386 34.4699 74.4211C37.3626 73.7964 40.2721 73.6388 43.1931 74.2169C45.0091 74.5763 46.8198 74.964 48.6856 75.3494C48.9876 74.3752 48.8997 73.5127 48.931 72.6677C49.3585 61.0947 51.1921 49.7603 54.8839 38.7707C57.3338 31.4782 60.5843 24.5749 65.5362 18.5824C67.0304 16.7747 68.6812 15.1414 70.6128 13.8094C71.3224 13.3193 72.0541 12.8383 72.8325 12.4759C75.2251 11.3625 77.5099 11.2784 79.7595 13.0096C81.6979 14.5014 83.2387 16.2746 84.4935 18.3491C86.3653 21.446 87.6813 24.7906 88.8206 28.1956C91.4594 36.0814 93.9683 44.0078 95.4096 52.2255C96.4335 58.0652 97.0751 63.953 97.6853 69.8454C97.7525 70.4977 97.647 71.1866 98.0301 71.7922C98.6151 72.0338 98.8506 71.4917 99.1809 71.2432C101.206 69.7208 103.253 68.2435 105.609 67.2548C106.716 66.7899 107.846 66.4259 109.043 66.2447C111.852 65.8195 113.642 66.864 114.54 69.6129C115.497 72.5416 116.046 75.5604 115.983 78.6443C115.811 87.0478 115.086 95.3917 113.026 103.574C112.961 103.833 112.942 104.108 112.841 104.35C112.445 105.304 112.708 105.749 113.764 105.977C119.798 107.28 122.848 115.122 119.58 120.39C119.206 120.998 118.868 121.631 118.466 122.332ZM55.3732 102.253C55.3243 103.117 55.2914 103.778 55.2494 104.439C55.0268 107.954 54.1444 111.253 52.1388 114.207C51.1761 115.624 50.3877 115.686 49.2484 114.334C46.7854 111.41 43.1595 110.515 39.7208 111.981C35.5405 113.764 34.028 117.836 36.1009 121.774C36.3663 122.279 36.5781 122.739 36.1139 123.223C35.675 123.682 35.1528 123.658 34.655 123.377C33.3436 122.639 32.0307 122.439 30.6933 123.282C29.8239 123.829 29.2153 124.607 28.771 125.526C27.3617 128.442 27.9054 132.224 30.0938 134.678C32.3144 137.169 36.1782 138.224 39.1886 137.161C40.6162 136.657 40.7791 136.668 41.2601 137.996C41.7234 139.274 42.6265 140.109 43.7031 140.792C45.5681 141.974 47.6258 142.359 49.818 142.164C53.1848 141.865 55.8236 140.196 58.1627 137.886C59.4802 136.584 60.1661 136.627 61.1624 138.155C62.1786 139.713 63.5864 140.608 65.3397 140.982C67.2391 141.387 69.163 141.499 71.093 141.14C71.8874 140.992 72.6146 140.676 73.3372 140.333C73.8786 140.076 74.2663 139.8 73.8128 139.133C73.6714 138.925 73.6263 138.634 73.5926 138.374C73.5093 137.721 73.6729 137.147 74.3718 136.951C74.9888 136.778 75.3727 137.149 75.6174 137.683C76.7177 140.085 78.8037 140.941 81.23 141.204C84.0898 141.515 86.6269 140.644 88.8742 138.912C90.8049 137.425 92.2731 135.55 93.3023 133.336C93.5263 132.854 93.7152 132.345 94.0103 131.909C94.6901 130.904 95.5251 130.9 96.2355 131.902C96.6178 132.442 96.8648 133.077 97.2356 133.626C99.2612 136.627 102.065 137.293 105.199 135.531C106.44 134.834 107.503 133.958 108.108 132.616C108.422 131.918 108.826 131.265 109.759 131.59C110.442 131.827 110.515 132.543 110.053 133.668C109.875 134.101 109.465 134.472 109.621 135.622C111.821 133.159 114.804 133.013 117.104 131.448C117.986 130.848 118.809 130.164 119.511 129.358C121.074 127.564 120.729 125.94 118.57 124.872C118.333 124.755 118.076 124.673 117.821 124.601C115.831 124.039 115.68 122.555 116.63 121.024C117.155 120.178 117.691 119.325 118.097 118.419C120.027 114.117 117.409 108.953 112.815 107.989C110.149 107.429 107.53 107.663 104.982 108.631C102.978 109.392 101.106 110.312 99.6741 112.026C98.7175 113.171 98.193 113.036 97.569 111.668C97.3098 111.1 96.8931 110.688 96.5283 110.221C94.2199 107.266 92.5644 104.067 92.7211 100.178C92.7318 99.9047 92.6775 99.6531 92.2654 99.4535C90.2574 100.43 88.0292 101.045 85.7597 101.585C81.8669 102.513 77.8976 102.916 73.9497 103.403C67.7996 104.161 61.625 104.567 55.3732 102.253ZM66.0891 80.9887C70.1096 81.2441 73.341 80.731 76.5778 80.3387C82.9175 79.5695 88.5882 77.0415 93.9584 73.7031C95.311 72.862 95.8042 71.8542 95.5779 70.24C94.9761 65.9564 94.554 61.6483 94.0057 57.3571C92.9987 49.4713 90.9319 41.8354 88.5155 34.2822C88.2487 33.4487 87.8044 32.9792 87.013 32.5984C84.011 31.1548 80.8109 30.6639 77.5428 30.4123C71.5861 29.9543 66.0807 31.4866 60.7839 34.0834C59.2722 34.8243 58.0862 35.6907 57.6748 37.4303C57.447 38.3945 56.9729 39.2976 56.6716 40.248C53.0586 51.6238 51.3489 63.3084 50.9971 75.2148C50.9727 76.0467 51.2778 76.6401 51.9598 77.0439C52.5876 77.4155 53.236 77.758 53.8936 78.0738C57.9807 80.0367 62.3017 80.9879 66.0891 80.9887ZM98.3 85.2883C98.0202 87.6603 98.2702 90.0949 97.6463 92.421C97.2066 94.0604 97.1745 95.4819 98.4293 96.8116C98.911 97.3224 99.1977 98.0588 99.4478 98.7385C100.297 101.044 101.221 103.324 101.859 105.704C102.283 107.288 102.297 107.295 103.745 106.717C105.297 106.098 106.889 105.616 108.563 105.55C110.564 105.471 110.278 105.492 110.735 103.667C112.86 95.176 113.738 86.5347 113.722 77.7917C113.717 75.3739 113.252 73.0355 112.582 70.7309C111.948 68.5486 111.1 68.0133 108.926 68.4606C108.151 68.6197 107.393 68.9003 106.658 69.1993C103.85 70.3424 101.471 72.1363 99.2138 74.1236C98.4048 74.8363 98.0615 75.6025 98.1005 76.7181C98.2029 79.5718 98.4965 82.4239 98.3 85.2883ZM48.655 84.2064C48.616 83.3423 48.6061 82.4752 48.5311 81.6142C48.4164 80.302 49.1062 78.6733 48.2505 77.7573C47.4224 76.8703 45.7623 77.0362 44.4792 76.6967C41.5323 75.9175 38.5838 75.8158 35.5848 76.387C34.0265 76.6837 33.1349 77.4216 32.8435 79.0495C32.4757 81.1034 32.41 83.1519 32.5575 85.2134C32.8581 89.3983 33.4361 93.545 34.2788 97.6581C35.0694 101.519 36.4167 105.204 37.7449 108.896C37.9667 109.513 38.1594 110.269 39.1083 109.857C40.9374 109.065 42.8436 108.945 44.7874 109.189C45.4939 109.278 45.757 108.993 45.7493 108.32C45.7348 106.989 45.7134 105.657 45.7432 104.327C45.8197 100.854 46.322 97.5296 49.2499 95.1478C49.7523 94.7394 49.7844 94.2371 49.6292 93.7102C48.7093 90.5996 48.7972 87.3927 48.655 84.2064ZM60.2334 31.7321C68.8953 27.4852 77.7324 27.0218 86.6834 29.9076C86.9763 29.6446 86.9189 29.4351 86.8601 29.2607C85.6198 25.6026 84.258 21.9988 82.1636 18.72C81.3699 17.4767 80.4699 16.3144 79.2923 15.4251C76.8393 13.5739 75.6702 13.2772 72.7691 14.9916C71.746 15.5964 70.7741 16.3358 69.9108 17.1532C65.5943 21.238 62.5854 26.2151 60.2334 31.7321ZM57.9968 82.0332C58.0885 84.5795 58.1474 86.8796 58.4663 89.1865C58.9656 92.8049 59.4137 96.4286 60.098 100.019C60.2854 101.001 60.6815 101.569 61.7933 101.536C62.9196 101.504 64.0505 101.638 65.1799 101.657C66.5234 101.679 66.6151 101.607 66.4087 100.34C65.5446 95.0262 65.0484 89.6683 64.5085 84.3165C64.4168 83.4057 64.0551 83.002 63.1887 82.937C61.5317 82.8124 59.9137 82.4438 57.9968 82.0332ZM81.4486 81.7472C79.862 81.9912 78.3556 82.2198 76.85 82.4553C75.3261 82.6939 75.3062 82.6977 75.3452 84.3723C75.4408 88.4937 75.5532 92.6145 75.6694 96.7352C75.6954 97.6657 75.791 98.5948 75.8109 99.5254C75.833 100.577 76.3484 100.906 77.3409 100.727C78.6485 100.492 79.9591 100.255 81.2781 100.11C82.2829 99.9987 82.435 99.4275 82.3364 98.5971C81.9113 95.0178 82.1697 91.4185 82.0497 87.83C81.9831 85.8427 82.0932 83.8439 81.4486 81.7472ZM84.3727 99.5025C86.1421 99.2073 87.4221 98.906 88.6998 98.539C89.8751 98.201 90.233 97.5763 90.2047 96.3873C90.0946 91.7336 90.0762 87.0768 90.0227 82.4216C90.0112 81.4238 89.9959 80.4267 89.9799 79.4296C89.9692 78.7811 89.6335 78.6198 89.0714 78.8515C87.5368 79.4846 86.0144 80.1506 84.4682 80.7547C83.8282 81.0048 83.7273 81.4521 83.8053 82.021C84.4002 86.3826 84.2947 90.7747 84.3688 95.1585C84.3925 96.5463 84.3727 97.9349 84.3727 99.5025ZM66.606 83.1007C67.0931 88.483 67.5985 93.5022 68.3395 98.4931C68.8487 101.922 68.8824 101.868 72.3172 101.373C73.403 101.216 73.7769 100.828 73.6782 99.7395C73.4274 96.96 73.2875 94.1743 73.3097 91.3795C73.328 89.0542 73.2615 86.7266 73.1858 84.4013C73.1445 83.1182 73.0558 83.0892 71.788 83.0976C70.1348 83.1091 68.4809 83.1007 66.606 83.1007ZM57.9364 100.702C57.5594 98.3295 57.1709 96.1227 56.8635 93.9052C56.326 90.0261 55.8856 86.1348 55.728 82.219C55.7059 81.6578 55.6638 81.1661 55.0628 80.9138C53.7315 80.3556 52.4056 79.7844 51.0323 79.1994C50.936 79.477 50.8205 79.6506 50.8236 79.8226C50.9253 84.7921 50.7807 89.7593 52.0332 94.6645C52.8522 97.8669 54.7997 99.634 57.9364 100.702ZM92.4122 96.1043C93.0415 96.3031 93.2717 96.0187 93.5202 95.8275C95.1543 94.5781 95.4532 92.7421 95.6819 90.8749C96.289 85.9115 96.0397 80.9329 95.9594 75.9565C95.9548 75.6828 95.9044 75.4358 95.5259 75.3234C94.7222 75.8097 93.8995 76.3717 93.0186 76.8206C92.2662 77.2044 92.0391 77.693 92.0712 78.5525C92.2318 82.8629 92.3166 87.1763 92.4061 91.4889C92.4398 93.0534 92.4122 94.6186 92.4122 96.1043ZM50.6163 97.041C48.8989 98.4258 48.3147 100.063 48.1312 101.885C47.9446 103.739 48.1832 105.628 47.9577 107.455C47.6808 109.694 48.6038 111.081 50.3525 112.163C50.4489 112.222 50.5926 112.204 50.715 112.221C52.8124 109.405 53.1986 104.483 53.0953 101.719C53.0671 100.967 52.8017 100.35 52.18 99.829C51.4085 99.1836 50.9291 98.2958 50.6163 97.041ZM95.6436 96.9317C95.4272 97.2085 95.2606 97.3415 95.2009 97.5113C94.0562 100.782 95.8807 107.101 98.5768 109.241C99.0746 109.636 99.9349 109.292 100.071 108.583C100.143 108.21 100.072 107.789 99.9861 107.407C99.3147 104.423 98.2029 101.585 97.0231 98.7753C96.7478 98.1222 96.4129 97.4471 95.6436 96.9317Z" fill="black"/>
<path d="M123.147 4.97987C123.971 5.04027 124.902 5.03109 125.802 5.3339C127.266 5.8271 127.515 6.63839 126.511 7.81978C126.257 8.11952 125.931 8.36345 125.616 8.60661C121.214 12.0108 122.131 18.3766 127.02 21.0322C127.543 21.3167 128.135 21.4872 128.627 21.8129C129.379 22.3107 129.414 23.1602 128.67 23.5861C125.24 25.5482 121.673 26.8076 117.657 25.5352C112.45 23.8859 109.734 18.7467 111.327 13.5203C112.874 8.44985 117.722 4.91563 123.147 4.97987ZM125.474 22.7397C122.699 20.8265 121.07 18.4813 120.655 15.4349C120.226 12.2907 121.422 9.63354 123.648 7.218C119.102 7.13924 115.364 9.47678 113.774 13.1685C111.774 17.8077 114.139 22.5126 119.057 23.6465C121.136 24.1252 123.131 23.8186 125.474 22.7397Z" fill="black"/>
<path d="M111.851 50.053C111.493 48.6942 111.08 47.3675 110.806 46.0133C110.516 44.5773 111.433 43.8631 112.802 44.445C113.59 44.78 114.299 45.2976 115.064 45.6945C116.691 46.5402 116.467 46.9194 117.848 45.3733C117.981 45.225 118.123 45.0843 118.27 44.9497C118.831 44.4366 119.44 44.0054 120.228 44.4122C120.971 44.796 121.157 45.5094 121.104 46.2794C121.055 47.0059 120.962 47.7307 120.855 48.4518C120.767 49.0421 120.668 49.6355 120.505 50.2075C120.337 50.7939 120.377 51.2382 120.995 51.5188C121.234 51.6274 121.451 51.7926 121.657 51.9585C122.283 52.4617 122.972 52.9701 122.713 53.9153C122.484 54.7518 121.716 54.9972 120.992 55.0355C119.115 55.1333 117.959 56.0746 117.299 57.7897C117.114 58.2715 116.751 58.6966 116.421 59.1088C116.033 59.5928 115.547 59.9667 114.875 59.735C114.255 59.5217 113.907 59.03 113.827 58.3954C113.735 57.672 113.683 56.9417 113.657 56.2123C113.631 55.5096 113.356 55.1532 112.611 55.0401C111.633 54.8917 110.642 54.6929 109.718 54.3481C108.296 53.8174 108.104 52.5366 109.306 51.6014C110.08 50.9989 110.989 50.5691 111.851 50.053ZM115.954 55.8904C116.612 54.3106 117.172 53.2676 118.69 53.3242C116.911 51.5578 119.031 49.8236 118.417 48.1498C116.616 49.9307 115.187 47.9319 113.547 47.5449C113.654 48.6139 114.107 49.3595 114.388 50.1608C114.846 51.4722 114.697 51.7727 113.388 52.1726C113.062 52.272 112.643 52.139 112.257 52.7239C113.969 53.0313 115.735 53.2179 115.954 55.8904Z" fill="black"/>
<path d="M26.5068 50.8199C27.5147 50.8261 28.2197 51.4691 28.9835 51.9914C30.5236 53.0428 30.5243 53.0397 31.9718 51.908C32.2333 51.7031 32.4879 51.4852 32.7709 51.3132C34.0425 50.5401 34.9287 51.021 35.0235 52.5328C35.0404 52.7966 35.0236 53.0657 34.9945 53.3295C34.9211 53.9879 35.178 54.319 35.8662 54.3358C36.4634 54.3503 37.0705 54.3718 37.6524 54.4926C38.898 54.751 39.2635 55.817 38.3223 56.6688C37.4437 57.464 36.4374 58.156 35.3944 58.7226C34.3109 59.3114 33.6984 60.0906 33.4912 61.3064C33.3589 62.0802 33.0347 62.8281 32.7441 63.5667C32.4872 64.2174 32.0536 64.7328 31.2714 64.7014C30.5044 64.6708 30.1191 64.1226 29.8216 63.4979C29.765 63.3786 29.6962 63.2517 29.6863 63.1247C29.5234 61.0365 28.2502 60.6006 26.4396 60.8927C26.1291 60.9432 25.7743 60.8491 25.4631 60.7482C24.18 60.3315 23.8573 59.3542 24.6579 58.2898C24.895 57.9748 25.1779 57.6636 25.5052 57.4541C26.1903 57.0144 26.2446 56.4929 26.019 55.7527C25.691 54.6761 25.4218 53.5681 25.2689 52.4548C25.1198 51.3766 25.5977 50.8475 26.5068 50.8199ZM34.642 56.6581C33.3941 56.2834 32.9475 55.4247 32.6164 54.2578C30.9831 55.9829 29.5249 55.0018 27.9773 54.1401C27.9054 55.7657 29.7482 56.9678 28.2418 58.4734C30.1695 58.6286 30.155 58.5934 31.445 60.4515C31.3991 58.2401 33.0217 57.5963 34.642 56.6581Z" fill="black"/>
<path d="M46.1462 10.6337C46.1248 10.9304 46.1485 11.1414 46.0903 11.3265C45.5872 12.9299 45.7768 14.0953 47.4721 15.0557C48.8936 15.8609 48.6519 17.7014 47.0484 18.0967C44.431 18.7428 42.9973 20.3333 42.1065 22.6991C41.8634 23.3445 41.3411 23.8063 40.5696 23.7505C39.7552 23.6916 39.4945 23.0379 39.288 22.4024C39.1045 21.8358 38.869 21.231 38.9072 20.6598C38.9913 19.3958 38.2725 19.0686 37.2479 18.947C36.9206 18.908 36.5857 18.8476 36.2791 18.7314C35.441 18.414 34.6611 17.9629 34.5907 16.9673C34.525 16.039 35.1749 15.4556 35.9618 15.2162C37.2273 14.8324 37.3343 13.9729 37.173 12.8986C37.0843 12.309 36.9665 11.708 36.9979 11.1192C37.0529 10.0969 37.9139 9.38119 38.7612 9.87668C40.734 11.0305 42.2204 10.8363 43.5662 8.94839C43.9424 8.42001 44.6994 8.24262 45.3853 8.61807C46.254 9.09368 46.1324 9.93939 46.1462 10.6337ZM43.5005 12.5117C42.1891 14.4057 40.7798 12.9789 39.4555 12.7044C39.2047 13.6831 39.7208 14.4134 39.7162 15.2017C39.7109 16.1422 38.7627 16.2393 38.1349 16.689C40.5933 17.6815 40.5933 17.6815 41.2379 19.4119C41.9566 17.446 43.7941 17.1424 45.4985 16.2325C43.8415 15.4877 43.2504 14.291 43.5005 12.5117Z" fill="black"/>
<path d="M55.3733 102.253C61.6258 104.567 67.7996 104.161 73.9497 103.402C77.8976 102.915 81.8669 102.512 85.7598 101.584C88.0285 101.044 90.2575 100.429 92.2654 99.4526C92.6776 99.6522 92.7319 99.9038 92.7212 100.177C92.5644 104.066 94.2199 107.265 96.5284 110.22C96.8931 110.687 97.3098 111.099 97.5691 111.667C98.193 113.036 98.7168 113.17 99.6741 112.025C101.106 110.311 102.979 109.392 104.982 108.63C107.53 107.662 110.149 107.428 112.815 107.988C117.41 108.952 120.027 114.116 118.097 118.418C117.691 119.324 117.155 120.177 116.63 121.023C115.68 122.554 115.832 124.038 117.821 124.6C118.076 124.672 118.334 124.754 118.57 124.871C120.729 125.939 121.074 127.564 119.512 129.357C118.809 130.163 117.986 130.847 117.104 131.447C114.804 133.012 111.821 133.157 109.622 135.621C109.465 134.471 109.875 134.101 110.053 133.667C110.515 132.543 110.441 131.826 109.759 131.589C108.827 131.264 108.423 131.917 108.108 132.615C107.503 133.957 106.441 134.833 105.2 135.53C102.065 137.292 99.2612 136.626 97.2357 133.625C96.8648 133.076 96.6186 132.441 96.2355 131.901C95.5252 130.899 94.6902 130.904 94.0104 131.908C93.7152 132.344 93.5264 132.853 93.3023 133.335C92.2731 135.55 90.8049 137.424 88.8742 138.911C86.6269 140.642 84.0898 141.513 81.23 141.203C78.8037 140.94 76.7178 140.084 75.6174 137.682C75.3727 137.148 74.9881 136.778 74.3718 136.95C73.6729 137.146 73.5093 137.72 73.5926 138.373C73.6255 138.633 73.6714 138.924 73.8128 139.132C74.2663 139.799 73.8786 140.076 73.3372 140.332C72.6146 140.675 71.8867 140.991 71.093 141.139C69.1622 141.499 67.2384 141.387 65.3397 140.981C63.5872 140.606 62.1787 139.712 61.1624 138.154C60.1661 136.626 59.4802 136.583 58.1627 137.885C55.8236 140.196 53.1841 141.864 49.8181 142.163C47.6258 142.358 45.5681 141.973 43.7031 140.791C42.6265 140.109 41.7235 139.273 41.2601 137.995C40.7783 136.667 40.6162 136.656 39.1886 137.16C36.1782 138.223 32.3152 137.168 30.0939 134.677C27.9062 132.223 27.3618 128.442 28.771 125.525C29.2153 124.606 29.8239 123.828 30.6933 123.281C32.0307 122.437 33.3436 122.638 34.655 123.376C35.1528 123.657 35.6751 123.681 36.114 123.223C36.5781 122.739 36.3663 122.278 36.101 121.774C34.028 117.835 35.5405 113.763 39.7208 111.98C43.1587 110.513 46.7847 111.409 49.2484 114.333C50.3877 115.685 51.1761 115.624 52.1388 114.206C54.1445 111.252 55.0269 107.953 55.2494 104.438C55.2914 103.778 55.3243 103.117 55.3733 102.253ZM59.0237 119.138C54.3226 118.926 49.4617 121.927 47.6166 126.051C47.3429 126.664 47.0859 127.274 47.1571 127.961C47.2098 128.477 47.4904 128.834 48.0074 128.935C48.4394 129.018 48.7942 128.818 49.0213 128.46C49.1597 128.242 49.2308 127.978 49.3142 127.729C50.1178 125.32 51.7985 123.68 53.9678 122.502C57.7651 120.442 60.4024 120.9 63.3501 124.108C63.7867 124.583 64.2394 124.994 64.8794 124.591C65.602 124.138 65.4605 123.446 65.1279 122.83C64.7464 122.121 64.14 121.591 63.5413 121.058C62.5939 120.214 62.6023 119.84 63.4793 119.022C64.2057 118.346 65.105 118.119 66.047 118.115C66.7039 118.112 67.3615 118.268 68.0183 118.353C68.6706 118.436 69.2578 118.33 69.4153 117.586C69.5675 116.866 69.0972 116.522 68.4916 116.264C66.2015 115.286 62.9036 116.003 61.44 118.057C60.7105 119.08 60.0392 119.548 59.0237 119.138ZM88.1363 116.31C85.3392 116.294 83.3549 116.899 81.7821 118.022C81.2399 118.41 80.7337 118.839 80.3782 119.413C79.9943 120.032 79.8437 120.676 80.5212 121.175C81.1329 121.626 81.6658 121.321 82.0573 120.796C82.6331 120.023 83.4024 119.533 84.2588 119.148C87.2256 117.813 90.8684 118.545 93.2274 120.955C93.927 121.67 94.486 122.485 94.9937 123.347C95.3332 123.924 95.8777 124.187 96.5123 123.817C97.0606 123.497 97.0583 122.94 96.8923 122.405C96.796 122.094 96.6347 121.794 96.4588 121.517C94.3499 118.192 91.3394 116.431 88.1363 116.31Z" fill="#F6F6AE"/>
<path d="M66.089 80.9886C62.3017 80.9878 57.9799 80.0366 53.8929 78.0737C53.2345 77.7579 52.5868 77.4154 51.959 77.0437C51.277 76.64 50.9719 76.0466 50.9964 75.2147C51.3481 63.3083 53.0586 51.6236 56.6708 40.2479C56.9729 39.2974 57.4462 38.3944 57.674 37.4302C58.0854 35.6913 59.2714 34.825 60.7831 34.0833C66.0799 31.4865 71.5846 29.9542 77.542 30.4122C80.8101 30.6638 84.0094 31.1547 87.0122 32.5983C87.8036 32.9791 88.2479 33.4479 88.5148 34.2821C90.9311 41.8361 92.9979 49.4719 94.005 57.357C94.5532 61.6482 94.9753 65.9563 95.5771 70.2399C95.8042 71.854 95.3102 72.8618 93.9576 73.703C88.5874 77.0414 82.9167 79.5694 76.577 80.3386C73.3418 80.7309 70.1103 81.244 66.089 80.9886ZM72.5144 66.8991C77.1367 66.935 81.4532 65.093 84.4422 61.8088C89.635 56.1014 88.917 47.6528 82.8403 42.9617C76.1037 37.7605 65.5699 39.3036 60.6172 46.2168C56.5095 51.9501 57.619 59.521 63.2231 63.816C65.9552 65.9104 69.0781 66.893 72.5144 66.8991Z" fill="#EBE0D4"/>
<path d="M98.3001 85.2883C98.4966 82.4247 98.203 79.5718 98.102 76.7181C98.063 75.6025 98.4064 74.8363 99.2154 74.1236C101.473 72.1355 103.851 70.3417 106.659 69.1993C107.395 68.9003 108.153 68.6197 108.927 68.4606C111.102 68.0133 111.949 68.5486 112.584 70.7309C113.254 73.0355 113.719 75.3738 113.723 77.7917C113.739 86.5347 112.861 95.176 110.736 103.667C110.28 105.492 110.565 105.472 108.565 105.55C106.89 105.616 105.298 106.098 103.747 106.717C102.298 107.294 102.285 107.288 101.86 105.704C101.223 103.324 100.298 101.044 99.4494 98.7385C99.1993 98.0588 98.9126 97.3217 98.4308 96.8116C97.1753 95.4819 97.2074 94.0604 97.6478 92.421C98.2702 90.0949 98.0202 87.6603 98.3001 85.2883Z" fill="#4F45E2"/>
<path d="M48.655 84.2064C48.7973 87.3927 48.7093 90.5997 49.6277 93.7087C49.7837 94.2356 49.7508 94.7379 49.2484 95.1463C46.3205 97.5281 45.8189 100.852 45.7417 104.325C45.7126 105.656 45.7333 106.988 45.7478 108.319C45.7555 108.992 45.4917 109.276 44.7859 109.188C42.8421 108.944 40.9359 109.064 39.1068 109.856C38.1579 110.267 37.9652 109.512 37.7434 108.895C36.4152 105.202 35.0679 101.518 34.2773 97.6566C33.4346 93.5443 32.8565 89.3968 32.556 85.2119C32.4084 83.1504 32.4742 81.1019 32.842 79.048C33.1334 77.4201 34.0257 76.6822 35.5833 76.3855C38.583 75.8143 41.5308 75.916 44.4777 76.6952C45.7608 77.0347 47.4201 76.8688 48.249 77.7558C49.1046 78.6718 48.4149 80.3005 48.5296 81.6127C48.6061 82.4752 48.616 83.3423 48.655 84.2064Z" fill="#4F45E2"/>
<path d="M60.2334 31.7321C62.5854 26.2151 65.5943 21.238 69.91 17.1532C70.7733 16.3358 71.7452 15.5956 72.7683 14.9916C75.6694 13.2772 76.8393 13.5747 79.2916 15.4251C80.4699 16.3144 81.3691 17.4767 82.1628 18.72C84.2572 21.9988 85.6191 25.6026 86.8593 29.2607C86.9182 29.4351 86.9755 29.6446 86.6827 29.9076C77.7324 27.0226 68.8953 27.4852 60.2334 31.7321Z" fill="#4F45E2"/>
<path d="M57.9968 82.0331C59.9137 82.4437 61.5317 82.8123 63.1887 82.9361C64.0551 83.0011 64.4168 83.4049 64.5085 84.3156C65.0491 89.6674 65.5446 95.0253 66.4087 100.34C66.6144 101.606 66.5234 101.679 65.1799 101.656C64.0505 101.638 62.9196 101.503 61.7933 101.536C60.6815 101.568 60.2854 101 60.098 100.018C59.4137 96.4277 58.9663 92.804 58.4662 89.1856C58.1474 86.8794 58.0885 84.5794 57.9968 82.0331Z" fill="#4F45E2"/>
<path d="M81.4487 81.7472C82.0933 83.8439 81.9832 85.8427 82.0497 87.8308C82.1705 91.4193 81.9113 95.0185 82.3364 98.5978C82.4351 99.4282 82.2829 100 81.2781 100.11C79.9591 100.256 78.6485 100.493 77.3409 100.728C76.3484 100.907 75.8331 100.577 75.8109 99.5261C75.791 98.5955 75.6962 97.6665 75.6694 96.7359C75.5532 92.6152 75.4408 88.4945 75.3452 84.373C75.3062 82.6976 75.3261 82.6946 76.85 82.456C78.3556 82.2197 79.862 81.9911 81.4487 81.7472Z" fill="#4F45E2"/>
<path d="M84.3727 99.5024C84.3727 97.9348 84.3926 96.5462 84.3689 95.1576C84.2939 90.7739 84.3995 86.3825 83.8053 82.0201C83.7273 81.4505 83.8283 81.0039 84.4683 80.7539C86.0144 80.1498 87.5368 79.4845 89.0715 78.8506C89.6335 78.6189 89.97 78.7803 89.9799 79.4287C89.996 80.4258 90.0112 81.4237 90.0227 82.4208C90.0762 87.076 90.0946 91.732 90.2047 96.3864C90.233 97.5754 89.8751 98.2002 88.6999 98.5381C87.4214 98.9067 86.1421 99.208 84.3727 99.5024Z" fill="#4F45E2"/>
<path d="M66.606 83.1007C68.4809 83.1007 70.1349 83.1099 71.7888 83.0976C73.0566 83.0885 73.1453 83.1183 73.1866 84.4014C73.2623 86.7267 73.3288 89.0535 73.3105 91.3796C73.2883 94.1752 73.429 96.9608 73.6791 99.7395C73.7769 100.828 73.4038 101.216 72.3179 101.373C68.8824 101.868 68.8487 101.922 68.3402 98.4932C67.5993 93.5023 67.0931 88.4831 66.606 83.1007Z" fill="#4F45E2"/>
<path d="M57.9363 100.702C54.7997 99.6332 52.8514 97.8661 52.034 94.6637C50.7815 89.7592 50.926 84.792 50.8243 79.8218C50.8205 79.6498 50.9367 79.4762 51.033 79.1986C52.4071 79.7836 53.7331 80.3548 55.0635 80.913C55.6646 81.1653 55.7059 81.6577 55.7288 82.2182C55.8863 86.1348 56.3267 90.0253 56.8643 93.9044C57.1709 96.1234 57.5594 98.3302 57.9363 100.702Z" fill="#4F45E2"/>
<path d="M92.4123 96.1043C92.4123 94.6186 92.4398 93.0533 92.4069 91.4896C92.3174 87.177 92.2326 82.8636 92.072 78.5532C92.0399 77.6938 92.267 77.2059 93.0194 76.8213C93.9003 76.3717 94.723 75.8097 95.5267 75.3241C95.906 75.4365 95.9564 75.6835 95.9602 75.9572C96.0405 80.9328 96.2898 85.9122 95.6827 90.8756C95.454 92.7429 95.1551 94.5796 93.521 95.8282C93.2717 96.0186 93.0416 96.3031 92.4123 96.1043Z" fill="#4F45E2"/>
<path d="M125.474 22.7397C123.131 23.8186 121.136 24.1253 119.057 23.6458C114.139 22.5118 111.774 17.8069 113.774 13.1678C115.364 9.47681 119.102 7.1385 123.648 7.21726C121.422 9.6328 120.226 12.29 120.655 15.4342C121.07 18.4814 122.699 20.8265 125.474 22.7397Z" fill="#F6F6AE"/>
<path d="M115.954 55.8904C115.736 53.2179 113.969 53.0306 112.257 52.7224C112.643 52.1382 113.062 52.2713 113.387 52.1711C114.696 51.7712 114.846 51.4707 114.387 50.1593C114.106 49.358 113.653 48.6132 113.546 47.5435C115.187 47.9311 116.615 49.9292 118.417 48.1483C119.03 49.8221 116.91 51.5571 118.689 53.3227C117.172 53.2676 116.611 54.3106 115.954 55.8904Z" fill="#F6F6AE"/>
<path d="M34.642 56.6582C33.0209 57.5972 31.3991 58.2403 31.445 60.4524C30.155 58.5943 30.1695 58.6295 28.2418 58.4743C29.7482 56.9687 27.9054 55.7666 27.9773 54.141C29.5249 55.0028 30.9831 55.983 32.6164 54.2587C32.9475 55.4248 33.3948 56.2828 34.642 56.6582Z" fill="#F6F6AE"/>
<path d="M43.5005 12.5117C43.2512 14.2911 43.8423 15.4885 45.4986 16.2318C43.7941 17.1417 41.9567 17.446 41.2379 19.4112C40.5933 17.6815 40.5933 17.6815 38.1349 16.6883C38.7627 16.2386 39.7109 16.1408 39.7162 15.201C39.7208 14.4126 39.2047 13.6824 39.4555 12.7037C40.7799 12.9789 42.1884 14.405 43.5005 12.5117Z" fill="#F6F6AE"/>
<path d="M59.0237 119.138C60.0391 119.549 60.7105 119.08 61.4392 118.057C62.9028 116.003 66.2007 115.286 68.4908 116.264C69.0964 116.522 69.5667 116.866 69.4145 117.586C69.257 118.33 68.6698 118.436 68.0175 118.353C67.3599 118.268 66.7031 118.113 66.0462 118.115C65.1042 118.118 64.2057 118.345 63.4785 119.022C62.6015 119.84 62.5931 120.215 63.5405 121.058C64.1392 121.592 64.7456 122.121 65.1271 122.83C65.459 123.447 65.6005 124.138 64.8786 124.591C64.2386 124.994 63.7859 124.583 63.3493 124.108C60.4016 120.9 57.7643 120.442 53.967 122.502C51.7977 123.68 50.117 125.32 49.3134 127.729C49.23 127.978 49.1589 128.242 49.0205 128.46C48.7934 128.818 48.4378 129.018 48.0066 128.935C47.4897 128.835 47.2098 128.477 47.1563 127.961C47.0852 127.274 47.3421 126.664 47.6158 126.051C49.4617 121.927 54.3226 118.926 59.0237 119.138Z" fill="black"/>
<path d="M88.1363 116.31C91.3386 116.431 94.3498 118.192 96.458 121.517C96.6339 121.794 96.7952 122.093 96.8916 122.404C97.0575 122.94 97.0598 123.496 96.5115 123.816C95.8769 124.186 95.3324 123.923 94.9929 123.346C94.4852 122.485 93.927 121.669 93.2266 120.954C90.8676 118.544 87.2248 117.812 84.258 119.147C83.4016 119.532 82.6323 120.023 82.0565 120.795C81.665 121.32 81.1321 121.625 80.5203 121.174C79.8429 120.675 79.9935 120.03 80.3773 119.412C80.7329 118.839 81.2391 118.409 81.7812 118.021C83.3557 116.899 85.3392 116.294 88.1363 116.31Z" fill="black"/>
<path d="M72.5145 66.8983C69.0781 66.8929 65.9553 65.9103 63.2224 63.8152C57.6183 59.5201 56.5095 51.9493 60.6165 46.216C65.5691 39.3027 76.1037 37.7597 82.8396 42.9608C88.9155 47.652 89.6335 56.1006 84.4415 61.808C81.4532 65.0929 77.1368 66.9358 72.5145 66.8983ZM72.5321 42.0173C69.8198 42.0563 66.6389 43.2231 63.9817 45.6708C58.3722 50.8391 59.3938 59.3145 66.0501 63.0192C71.5372 66.074 78.6347 64.9048 82.8373 60.2557C87.2883 55.3306 86.516 48.2278 81.0977 44.4045C78.803 42.7842 76.236 41.9951 72.5321 42.0173Z" fill="black"/>
<path d="M72.532 42.0174C76.2368 41.996 78.8029 42.7851 81.0969 44.4039C86.5152 48.2271 87.2875 55.33 82.8365 60.2551C78.6339 64.905 71.5364 66.0733 66.0493 63.0186C59.3938 59.3138 58.3714 50.8384 63.9809 45.6701C66.6381 43.2225 69.8198 42.0564 72.532 42.0174ZM72.8402 62.4313C75.742 62.3533 78.3464 61.5153 80.5318 59.5707C84.3925 56.1367 84.4667 50.6205 80.7138 47.0725C76.512 43.1001 68.9665 43.2684 64.9513 47.4235C61.4507 51.0456 61.6212 56.2705 65.3619 59.6518C67.4853 61.5719 70.0324 62.3686 72.8402 62.4313Z" fill="#4F45E2"/>
<path d="M72.8402 62.4313C70.0332 62.3686 67.4861 61.5719 65.3611 59.6518C61.6212 56.2705 61.4507 51.0457 64.9505 47.4235C68.9665 43.2684 76.5113 43.1009 80.713 47.0725C84.4667 50.6205 84.3918 56.1367 80.5311 59.5708C78.3465 61.5153 75.7413 62.3533 72.8402 62.4313ZM73.3082 46.4004C70.4759 46.4073 68.0978 47.266 66.2527 49.3137C64.0788 51.7262 64.0964 55.0632 66.2313 57.4634C69.647 61.3042 76.6635 61.1268 79.8696 57.1178C81.8509 54.641 81.766 51.4517 79.6158 49.1226C77.8938 47.2583 75.6908 46.4799 73.3082 46.4004Z" fill="black"/>
<path d="M73.3081 46.4004C75.6908 46.4799 77.8938 47.2583 79.6158 49.1226C81.7667 51.4517 81.8508 54.641 79.8696 57.1178C76.6634 61.1261 69.647 61.3035 66.2313 57.4634C64.0964 55.0631 64.0788 51.7262 66.2527 49.3137C68.0978 47.266 70.4759 46.4073 73.3081 46.4004Z" fill="#F6F6AE"/>
</g>
<defs>
<filter id="filter0_d_11_59266" x="0.401367" y="0" width="153.197" height="158" filterUnits="userSpaceOnUse" color-interpolation-filters="sRGB">
<feFlood flood-opacity="0" result="BackgroundImageFix"/>
<feColorMatrix in="SourceAlpha" type="matrix" values="0 0 0 0 0 0 0 0 0 0 0 0 0 0 0 0 0 0 127 0" result="hardAlpha"/>
<feOffset dy="4"/>
<feGaussianBlur stdDeviation="2"/>
<feComposite in2="hardAlpha" operator="out"/>
<feColorMatrix type="matrix" values="0 0 0 0 0 0 0 0 0 0 0 0 0 0 0 0 0 0 0.25 0"/>
<feBlend mode="normal" in2="BackgroundImageFix" result="effect1_dropShadow_11_59266"/>
<feBlend mode="normal" in="SourceGraphic" in2="effect1_dropShadow_11_59266" result="shape"/>
</filter>
</defs>
</svg>
