<svg width="164" height="158" viewBox="0 0 164 158" fill="none" xmlns="http://www.w3.org/2000/svg">
<g filter="url(#filter0_d_11_59247)">
<path d="M64.0335 9.28643C56.1254 11.0164 48.8084 14.792 41.9484 19.0885C33.315 24.4971 25.1418 30.894 19.0379 39.0507C10.254 50.788 6.26177 65.5293 5.04863 80.1396C4.34096 88.6688 4.62669 97.6982 8.87784 105.127C14.37 114.726 25.2408 119.7 35.5257 123.763C50.4218 129.649 66.1555 134.976 82.1079 133.54C90.2337 132.808 98.0933 130.34 105.816 127.71C121.317 122.431 137.581 115.653 146.526 101.936C155.179 88.6677 155.131 71.3403 151.06 56.0326C149.259 49.2603 146.781 41.4213 142.489 35.761C137.878 29.6777 130.581 24.7014 124.873 19.5682C122.678 17.5938 120.465 15.6069 117.936 14.0854C115.439 12.5844 112.683 11.5662 109.901 10.7069C95.5246 6.26286 78.7171 6.07305 64.0335 9.28643Z" fill="#DCE2FC"/>
<path d="M86.8212 99.6138C86.4581 98.4378 85.3316 98.3325 84.4661 97.9385C81.9665 96.8006 79.4392 95.7226 76.9221 94.624C75.7378 94.1072 74.6536 93.4769 75.0766 91.9202C75.4655 90.4905 76.592 90.1067 77.9362 90.2181C80.577 90.4368 83.2241 90.6111 85.8526 90.932C88.2974 91.2301 90.6473 90.769 93.0973 90.5833C93.1118 89.3753 92.2659 89.2722 91.716 89.0266C88.7214 87.6918 85.4956 87.143 82.3513 86.3074C81.1 85.9752 79.2618 86.2651 78.944 84.3278C78.7594 83.2013 80.0818 82.3554 82.7629 82.0573C86.8119 81.6075 90.8763 81.2939 94.9366 80.94C96.5655 80.7977 98.1242 80.4707 99.7108 79.5382C98.6307 77.9124 97.1185 77.8639 95.6423 77.8071C90.7484 77.6194 85.8597 77.834 80.9711 78.0506C80.0602 78.0908 79.14 78.1197 78.2343 78.0361C77.3616 77.9547 76.6735 77.4646 76.5095 76.5558C76.3403 75.6181 76.8974 75.0023 77.6948 74.6412C80.381 73.425 83.0755 72.2252 85.7793 71.0472C87.6433 70.2353 89.5394 69.4946 91.3993 68.6725C92.1483 68.3413 92.9839 67.8689 92.7384 66.8909C92.5083 65.9749 91.551 65.8222 90.7536 65.7583C88.7915 65.6004 86.9192 66.1162 85.0685 66.7032C79.5279 68.461 74.2431 70.8501 68.947 73.2125C68.3889 73.4611 67.8628 73.8056 67.2841 73.9769C65.3818 74.538 63.7993 73.4498 63.5972 71.4722C63.4558 70.0899 63.95 68.8705 64.6442 67.7131C65.6387 66.0554 66.6888 64.4275 67.6018 62.7275C67.9608 62.059 68.4085 61.2214 67.6802 60.4632C66.9364 59.6874 66.0152 59.7885 65.1177 60.0938C63.919 60.5024 63.0649 61.404 62.2499 62.3128C60.6138 64.1387 59.2253 66.1523 57.9121 68.2186C56.0965 71.075 53.8724 73.5973 51.4203 75.9101C49.71 77.5235 49.4335 77.3718 47.7438 75.7512C44.289 72.4377 40.7672 69.1924 37.2113 65.9873C32.6693 61.8939 28.0664 57.8687 23.4913 53.8115C23.187 53.5412 22.8528 53.2895 22.6042 52.9728C21.4694 51.5307 20.1304 50.1081 21.1104 48.0553C22.0656 46.055 23.9483 45.4773 25.9248 45.4031C27.8508 45.3308 29.7871 45.6032 31.7213 45.663C40.988 45.9477 50.2702 45.2865 59.5265 46.0612C61.3638 46.2149 62.1354 45.5145 62.8668 43.8774C68.1825 31.9781 73.0114 19.8838 77.5896 7.68634C77.9785 6.6496 78.3571 5.62007 79.0864 4.70816C82.4906 0.451845 87.2627 1.03161 89.3486 6.09049C90.8217 9.66389 92.1782 13.2909 93.445 16.9438C96.3138 25.214 99.39 33.4058 102.486 41.5934C103.335 43.8402 104.601 44.6087 106.965 44.7955C118.136 45.6795 129.292 46.7648 140.45 47.8118C143.055 48.0563 144.523 51.1273 143.368 53.8961C142.606 55.724 141.289 57.1373 139.727 58.3371C129.873 65.9109 120.053 73.5271 110.145 81.0308C108.36 82.3832 107.649 83.5799 108.051 86.0031C109.304 93.5347 109.804 101.181 111.171 108.704C112.044 113.513 113.014 118.304 113.939 123.104C114.347 125.216 114.443 127.353 114.414 129.496C114.398 130.616 114.251 131.717 113.773 132.77C112.088 136.485 108.8 137.46 105.712 134.863C102.91 132.507 100.338 129.87 97.726 127.295C92.2091 121.855 86.8418 116.272 81.7633 110.414C81.1031 109.653 80.381 108.946 79.5568 108.077C74.761 111.99 70.0456 115.847 65.3189 119.691C59.6276 124.32 53.8889 128.89 48.2575 133.589C46.7091 134.882 45.2752 134.677 43.7495 133.923C42.0402 133.078 40.6331 131.892 40.6414 129.767C40.6455 128.755 40.7496 127.715 41.0024 126.737C43.471 117.178 45.4392 107.49 48.2926 98.0282C48.469 97.4433 48.6496 96.8543 48.8982 96.2983C49.9349 93.9803 50.787 93.6337 53.1431 94.5281C57.6594 96.2425 62.416 96.8347 67.1551 97.4866C72.9062 98.2779 78.6614 99.033 84.4186 99.7726C85.1892 99.8717 85.999 100.071 86.8212 99.6138ZM68.59 69.4812C70.025 69.245 71.2536 68.4858 72.5461 67.8998C76.9087 65.9223 81.3713 64.2181 85.9825 62.9111C87.9786 62.3458 90.017 62.2829 92.0441 62.5614C94.2733 62.8678 96.0786 64.4646 96.3417 66.3555C96.6243 68.3877 95.6392 69.9403 94.0062 70.9956C92.8188 71.7621 91.4674 72.2737 90.1903 72.9009C89.5456 73.2166 88.6894 73.2445 88.3077 74.1935C91.6232 74.4163 94.7922 73.9748 97.9189 74.6598C99.5602 75.0198 101.043 75.6027 102.198 76.8344C103.613 78.3436 103.634 79.8796 102.352 81.493C101.121 83.0414 99.3498 83.5283 97.5507 83.9244C95.5484 84.3659 93.4955 84.5351 91.4313 84.8147C92.6795 85.7111 93.9691 86.2805 95.1502 87.0223C96.5212 87.8826 97.4145 89.1391 97.1515 90.8505C96.8833 92.598 95.6041 93.4387 93.9999 93.742C92.5042 94.0257 90.9806 94.1784 89.4631 94.3259C88.3449 94.4342 87.2163 94.4414 85.6906 94.5116C87.2617 95.4854 88.4408 96.1012 89.4848 96.8945C90.5927 97.7363 91.2271 98.9154 90.9548 100.369C90.6752 101.861 89.5776 102.59 88.2159 102.91C87.3339 103.117 86.3931 103.307 85.5059 103.22C81.9604 102.873 78.4117 102.5 74.8888 101.977C67.6482 100.902 60.3157 100.326 53.2762 98.1242C52.2642 97.8075 51.7412 98.2552 51.4688 99.1753C51.2656 99.8582 51.0294 100.533 50.8571 101.224C48.729 109.716 46.6091 118.209 44.4933 126.704C44.3458 127.295 44.1818 127.897 44.1518 128.5C44.1106 129.322 44.2086 130.165 44.9761 130.681C45.8994 131.302 46.4884 130.542 47.1042 130.06C57.2158 122.157 67.0757 113.947 76.8994 105.692C79.3206 103.658 79.9313 103.571 82.2234 105.937C84.0658 107.839 85.7958 109.849 87.5639 111.822C93.7596 118.731 100.397 125.205 107.091 131.621C109.066 133.515 110.47 133.012 110.974 130.282C111.174 129.199 111.134 128.042 111.023 126.936C110.841 125.115 110.587 123.293 110.233 121.498C108.579 113.107 106.885 104.725 105.953 96.2116C105.51 92.1657 105.363 88.059 104.254 84.1287C103.742 82.3141 104.208 81.2341 105.614 80.2262C116.464 72.4491 126.654 63.8117 137.352 55.8365C138.079 55.2939 138.799 54.6842 139.354 53.9755C140.872 52.0341 140.494 51.149 138.06 50.921C127.112 49.8956 116.166 48.8454 105.208 47.9294C102.801 47.7282 101.124 46.8287 100.209 44.617C99.1579 42.0772 98.0923 39.5416 97.1442 36.9637C93.8401 27.9827 90.5968 18.9801 87.2957 9.99914C86.8408 8.7633 86.3023 7.52851 85.6029 6.41852C84.6621 4.92686 83.6202 4.88663 82.3576 6.09461C81.1269 7.27165 80.6575 8.8737 80.1149 10.3901C75.6853 22.766 70.4448 34.8097 65.1982 46.8504C64.116 49.3334 63.6972 49.6171 61.0615 49.4923C59.2305 49.4056 57.4025 49.2024 55.5725 49.1838C45.8942 49.0837 36.2148 49.0208 26.5355 48.9641C25.8691 48.96 25.114 48.7547 24.6003 49.4015C24.4301 50.1783 24.9768 50.561 25.4059 50.9509C33.018 57.8728 40.9395 64.4523 48.3462 71.6001C49.4356 72.6513 50.1876 72.4914 51.1057 71.4381C52.5819 69.7463 53.9787 68.004 55.2362 66.141C56.4896 64.2862 57.7914 62.4582 59.1644 60.6911C60.294 59.2376 61.6392 57.9708 63.3094 57.1342C65.7934 55.8891 68.3249 56.2275 70.091 57.9873C71.7394 59.6296 71.953 61.4576 70.6439 64.1665C69.8506 65.8088 68.884 67.3675 68 68.9644C67.8442 69.179 67.6038 69.4255 67.8762 69.6587C68.1227 69.866 68.3889 69.6999 68.59 69.4812Z" fill="black"/>
<path d="M47.5653 25.8763C46.2613 25.6823 45.9333 24.7776 45.7858 23.7027C45.2638 19.8982 43.4204 16.8551 40.4505 14.4577C40.0585 14.141 39.6541 13.8078 39.3611 13.4055C38.5472 12.2852 38.7143 11.1442 40.0255 10.7027C43.6319 9.48957 44.6996 6.47528 45.6342 3.31245C45.8054 2.7327 45.8188 2.1055 45.9828 1.52265C46.3005 0.394101 47.0134 -0.148513 48.2482 0.035109C49.3716 0.202225 50.1711 0.648907 50.2969 1.88577C50.3898 2.79357 50.4382 3.70961 50.5868 4.60915C51.0469 7.38102 51.8402 9.95687 54.6347 11.3536C55.0639 11.5682 55.4321 11.987 55.7148 12.3904C56.3523 13.3002 56.2295 14.3803 55.2402 14.6949C52.749 15.4882 52.061 17.6566 51.0634 19.6104C50.3248 21.0567 49.7853 22.5876 49.3819 24.1669C49.1385 25.1211 48.6082 25.8133 47.5653 25.8763ZM50.9726 13.1734C49.6749 11.6786 48.6082 10.0528 47.8222 7.84935C46.4481 9.86093 45.3557 11.4908 43.7567 12.802C45.496 14.5258 46.5977 16.3259 47.8954 18.3261C48.765 16.3568 49.8523 14.8125 50.9726 13.1734Z" fill="black"/>
<path d="M33.4182 115.952C33.2831 116.844 32.7962 117.324 32.2185 117.784C29.231 120.165 26.6964 122.893 25.4874 126.638C25.2223 127.458 24.6982 128.074 23.712 128.01C22.7227 127.946 22.2472 127.237 22.1162 126.414C21.4941 122.507 18.7532 120.038 16.1609 117.46C15.9453 117.246 15.6678 117.092 15.4614 116.871C13.9842 115.288 14.2555 114.023 16.3032 113.222C17.2564 112.85 18.1869 112.464 19.0204 111.868C20.8442 110.563 21.9583 108.769 22.4226 106.612C22.6547 105.535 22.9208 104.537 24.1814 104.493C25.4812 104.448 25.9413 105.5 26.0094 106.542C26.2436 110.143 28.3336 112.269 31.4314 113.635C32.5321 114.121 33.3088 114.81 33.4182 115.952ZM23.9741 111.733C22.6578 113.41 20.9546 114.466 19.5176 115.819C21.1083 117.758 22.5577 119.525 24.0638 121.362C25.6267 119.589 27.0802 117.941 28.6863 116.12C26.747 115.012 25.3048 113.529 23.9741 111.733Z" fill="black"/>
<path d="M129.363 82.0181C130.367 81.9943 130.87 82.3182 131.161 82.9021C131.431 83.4437 131.627 84.0235 131.84 84.5919C132.838 87.2533 134.377 89.3733 137.116 90.5565C138.785 91.2776 139.045 92.2235 137.97 93.3294C135.657 95.7072 134.315 98.6523 132.836 101.529C132.651 101.889 132.533 102.294 132.301 102.617C131.262 104.061 129.75 103.941 128.985 102.353C128.767 101.901 128.708 101.375 128.507 100.912C127.384 98.3099 125.946 96.0435 122.767 95.6999C121.941 95.6112 121.48 95.1192 121.395 94.3218C121.29 93.3562 121.455 92.3886 122.48 92.0461C126.185 90.8082 127.407 87.8733 127.899 84.3876C127.969 83.8924 128.084 83.3942 128.251 82.9227C128.481 82.2667 129.029 82.0325 129.363 82.0181ZM130.271 89.3846C129.244 90.7277 128.211 92.076 127.144 93.4717C128.37 94.7818 129.596 96.0909 131.005 97.595C131.956 95.9517 133.349 94.5332 133.494 92.9962C133.621 91.6489 131.494 90.9423 130.65 89.692C130.595 89.6115 130.494 89.5631 130.271 89.3846Z" fill="black"/>
<path d="M159.25 80.6192C159.088 81.5507 158.875 82.3203 158.184 82.8732C155.712 84.8487 153.309 86.8727 152.102 89.9509C151.818 90.6761 151.121 90.9557 150.333 90.8298C149.518 90.6998 149.121 90.1541 148.999 89.3774C148.936 88.9761 148.9 88.5707 148.843 88.1683C148.524 85.9123 147.467 84.2844 145.349 83.1745C142.871 81.8747 142.873 80.8183 145.181 79.3277C147.265 77.9825 148.673 76.2639 148.972 73.7437C149.019 73.3424 149.069 72.9267 149.213 72.5543C149.53 71.7342 150.13 71.2081 151.04 71.1771C151.826 71.1503 152.441 71.5609 152.755 72.2397C153.221 73.2506 153.556 74.3214 153.976 75.355C154.714 77.1686 155.434 78.9687 157.89 79.0048C158.896 79.0223 159.138 79.8827 159.25 80.6192ZM154.173 81.6818C153.11 80.3933 152.212 79.306 151.246 78.1352C150.374 79.1688 149.549 80.1467 148.764 81.0772C149.691 82.2099 150.514 83.2157 151.36 84.2483C152.466 83.6603 153.201 82.6814 154.173 81.6818Z" fill="black"/>
<path d="M63.3444 141.655C63.1422 142.072 63.0246 142.618 62.6914 142.949C61.0151 144.621 59.7813 146.592 58.6239 148.629C58.1535 149.457 57.5263 150.159 56.4534 149.968C55.5374 149.805 55.1454 149.069 54.9515 148.238C54.447 146.081 53.4175 144.308 51.5111 143.06C50.6147 142.473 50.4775 141.601 51.147 140.686C51.6226 140.037 51.9722 139.308 52.6902 138.832C54.479 137.644 55.4239 135.88 55.9108 133.836C55.9583 133.638 56.0057 133.441 56.048 133.242C56.2368 132.347 56.766 131.726 57.6872 131.718C58.6115 131.709 59.2232 132.301 59.312 133.224C59.5379 135.582 60.7211 137.427 62.3201 139.06C63.0154 139.77 63.0473 140.707 63.3444 141.655ZM57.2168 144.249C58.0967 143.142 58.8384 142.209 59.5678 141.291C58.9581 140.338 58.4485 139.502 57.5851 138.981C55.0391 141.428 55.0391 141.428 57.2168 144.249Z" fill="black"/>
<path d="M67.9948 68.9593C68.883 67.3634 69.8486 65.8047 70.6429 64.1624C71.952 61.4545 71.7384 59.6255 70.09 57.9832C68.3239 56.2244 65.7924 55.886 63.3084 57.1301C61.6382 57.9667 60.2931 59.2335 59.1635 60.687C57.7904 62.4541 56.4885 64.2821 55.2352 66.1369C53.9766 67.9999 52.5799 69.7422 51.1047 71.434C50.1866 72.4862 49.4346 72.6462 48.3453 71.596C40.9385 64.4471 33.017 57.8687 25.4049 50.9468C24.9758 50.5569 24.429 50.1741 24.5993 49.3974C25.112 48.7495 25.8681 48.9559 26.5345 48.96C36.2139 49.0167 45.8932 49.0796 55.5715 49.1797C57.4015 49.1983 59.2295 49.4015 61.0605 49.4882C63.6962 49.613 64.1151 49.3293 65.1972 46.8463C70.4438 34.8056 75.6842 22.7629 80.1138 10.386C80.6565 8.86957 81.1269 7.2665 82.3565 6.0905C83.6192 4.88252 84.6611 4.92274 85.6019 6.41441C86.3013 7.52439 86.8398 8.75919 87.2947 9.99503C90.5958 18.977 93.8391 27.9796 97.1432 36.9596C98.0912 39.5375 99.1579 42.0731 100.208 44.6129C101.123 46.8246 102.8 47.7241 105.207 47.9253C116.165 48.8413 127.111 49.8915 138.059 50.9169C140.494 51.1449 140.872 52.0299 139.353 53.9714C138.798 54.6811 138.08 55.2898 137.351 55.8324C126.653 63.8075 116.462 72.445 105.613 80.2221C104.208 81.2299 103.741 82.31 104.253 84.1246C105.362 88.0549 105.509 92.1616 105.952 96.2075C106.884 104.721 108.578 113.103 110.232 121.494C110.586 123.29 110.84 125.111 111.022 126.932C111.133 128.037 111.173 129.194 110.973 130.278C110.469 133.008 109.065 133.511 107.09 131.617C100.396 125.201 93.7576 118.727 87.5629 111.817C85.7948 109.845 84.0638 107.834 82.2224 105.933C79.9302 103.567 79.3195 103.652 76.8984 105.688C67.0746 113.942 57.2148 122.153 47.1032 130.056C46.4873 130.538 45.8994 131.298 44.9751 130.677C44.2086 130.161 44.1106 129.317 44.1508 128.496C44.1807 127.893 44.3447 127.291 44.4923 126.7C46.608 118.205 48.7279 109.712 50.8561 101.22C51.0294 100.53 51.2657 99.8552 51.4678 99.1712C51.7412 98.2521 52.2632 97.8034 53.2752 98.1201C60.3147 100.321 67.6482 100.899 74.8879 101.973C78.4118 102.496 81.9594 102.868 85.5049 103.216C86.3921 103.303 87.3329 103.113 88.2149 102.906C89.5766 102.586 90.6742 101.856 90.9537 100.365C91.2261 98.9102 90.5916 97.7322 89.4837 96.8904C88.4398 96.0971 87.2617 95.4813 85.6896 94.5074C87.2163 94.4373 88.3438 94.4301 89.4621 94.3218C90.9795 94.1743 92.5032 94.0216 93.999 93.7379C95.6031 93.4346 96.8822 92.5938 97.1505 90.8463C97.4135 89.1349 96.5202 87.8785 95.1492 87.0181C93.968 86.2764 92.6786 85.707 91.4304 84.8106C93.4945 84.531 95.5464 84.3618 97.5497 83.9203C99.3488 83.5242 101.12 83.0373 102.351 81.4889C103.633 79.8755 103.611 78.3395 102.197 76.8303C101.042 75.5985 99.5592 75.0147 97.918 74.6557C94.7912 73.9707 91.6212 74.4122 88.3067 74.1894C88.6884 73.2404 89.5456 73.2125 90.1893 72.8968C91.4664 72.2696 92.8178 71.758 94.0051 70.9915C95.6381 69.9362 96.6233 68.3836 96.3407 66.3514C96.0776 64.4605 94.2724 62.8637 92.0431 62.5573C90.016 62.2788 87.9777 62.3417 85.9815 62.907C81.3704 64.214 76.9087 65.9182 72.5452 67.8957C71.2515 68.4816 70.0229 69.2409 68.589 69.4771C68.392 69.3069 68.1929 69.1336 67.9948 68.9593Z" fill="#4F45E2"/>
<path d="M68.59 69.4811C68.3878 69.6998 68.1217 69.8659 67.8751 69.6555C67.6018 69.4223 67.8421 69.1758 67.9968 68.9602C68.1928 69.1335 68.392 69.3068 68.59 69.4811Z" fill="#4F45E2"/>
<path d="M50.9727 13.1734C49.8524 14.8126 48.765 16.3568 47.8954 18.3261C46.5967 16.3249 45.495 14.5258 43.7567 12.802C45.3557 11.4909 46.4481 9.86095 47.8222 7.84937C48.6093 10.0528 49.6749 11.6786 50.9727 13.1734Z" fill="#F6F6AE"/>
<path d="M23.9741 111.733C25.3038 113.529 26.747 115.012 28.6874 116.12C27.0812 117.942 25.6277 119.589 24.0649 121.362C22.5588 119.525 21.1094 117.758 19.5187 115.819C20.9546 114.466 22.6588 113.41 23.9741 111.733Z" fill="#F6F6AE"/>
<path d="M130.271 89.3846C130.494 89.5631 130.595 89.6116 130.65 89.6921C131.494 90.9423 133.621 91.649 133.494 92.9962C133.349 94.5333 131.956 95.9517 131.005 97.595C129.596 96.0899 128.371 94.7819 127.144 93.4718C128.211 92.0771 129.244 90.7278 130.271 89.3846Z" fill="#F6F6AE"/>
<path d="M154.173 81.6818C153.201 82.6814 152.465 83.6603 151.36 84.2494C150.514 83.2157 149.691 82.211 148.764 81.0783C149.549 80.1478 150.374 79.1699 151.246 78.1362C152.212 79.306 153.111 80.3933 154.173 81.6818Z" fill="#F6F6AE"/>
<path d="M57.2168 144.249C55.0391 141.427 55.0391 141.427 57.5851 138.981C58.4495 139.502 58.9581 140.338 59.5678 141.291C58.8384 142.209 58.0967 143.142 57.2168 144.249Z" fill="#F6F6AE"/>
</g>
<defs>
<filter id="filter0_d_11_59247" x="0.750305" y="0" width="162.499" height="158" filterUnits="userSpaceOnUse" color-interpolation-filters="sRGB">
<feFlood flood-opacity="0" result="BackgroundImageFix"/>
<feColorMatrix in="SourceAlpha" type="matrix" values="0 0 0 0 0 0 0 0 0 0 0 0 0 0 0 0 0 0 127 0" result="hardAlpha"/>
<feOffset dy="4"/>
<feGaussianBlur stdDeviation="2"/>
<feComposite in2="hardAlpha" operator="out"/>
<feColorMatrix type="matrix" values="0 0 0 0 0 0 0 0 0 0 0 0 0 0 0 0 0 0 0.25 0"/>
<feBlend mode="normal" in2="BackgroundImageFix" result="effect1_dropShadow_11_59247"/>
<feBlend mode="normal" in="SourceGraphic" in2="effect1_dropShadow_11_59247" result="shape"/>
</filter>
</defs>
</svg>
