<svg width="508" height="320" viewBox="0 0 508 320" fill="none" xmlns="http://www.w3.org/2000/svg">
<g filter="url(#filter0_d_13_59924)">
<circle cx="255" cy="160" r="79" fill="#4F45E2"/>
<path fill-rule="evenodd" clip-rule="evenodd" d="M245.239 175L251 185H240L245.239 175Z" fill="white"/>
<path fill-rule="evenodd" clip-rule="evenodd" d="M287.602 152.613L296 139.472H285.891C286.142 139.909 286.383 140.352 286.617 140.8C286.325 140.351 286.024 139.908 285.714 139.472H253.24L258.63 152.613H263.436V164.326L277.518 198.652H277.766V152.613H287.602Z" fill="url(#paint0_linear_13_59924)"/>
<path fill-rule="evenodd" clip-rule="evenodd" d="M222.702 176.519L231.856 190.409L244.888 156.703L244.955 156.876L245.054 156.617L252.46 176.139L252.517 176.285L261.366 199H276.343L251.922 139.472H238.27L222.702 176.519Z" fill="white"/>
<path fill-rule="evenodd" clip-rule="evenodd" d="M230.329 134.271L230.683 129.101C222.917 135.961 218 146.124 218 157.465C218 165.123 220.242 172.244 224.089 178.174C221.356 172.926 219.807 166.931 219.807 160.565C219.807 150.315 223.823 141.028 230.329 134.271Z" fill="white"/>
<path fill-rule="evenodd" clip-rule="evenodd" d="M231.549 129.155L231.355 134.044C237.963 127.181 245.133 124.099 256.256 124.099C267.38 124.099 279.085 130.154 285.714 139.472C286.024 139.908 286.325 140.351 286.617 140.8C286.383 140.352 286.141 139.909 285.891 139.472C275.136 120.701 248.211 114.435 231.549 129.155Z" fill="black"/>
<path fill-rule="evenodd" clip-rule="evenodd" d="M231.549 129.155L231.355 134.044C237.963 127.181 245.133 124.099 256.256 124.099C267.38 124.099 279.085 130.154 285.714 139.472C286.024 139.908 286.325 140.351 286.617 140.8C286.383 140.352 286.141 139.909 285.891 139.472C275.136 120.701 248.211 114.435 231.549 129.155Z" fill="url(#paint1_linear_13_59924)"/>
<circle cx="255" cy="160" r="130" stroke="#4F45E2" stroke-width="2" stroke-dasharray="2 2"/>
<path d="M192.504 196.508C191.022 193.963 187.757 193.1 185.211 194.582C182.666 196.064 181.803 199.329 183.285 201.875C184.767 204.42 188.032 205.283 190.578 203.801C193.123 202.319 193.986 199.054 192.504 196.508ZM187.391 198.327L185.706 199.309L186.712 201.037L188.398 200.056L187.391 198.327ZM182.334 201.271L178.962 203.234L179.968 204.963L183.34 203L182.334 201.271ZM175.59 205.197L172.219 207.16L173.225 208.888L176.597 206.925L175.59 205.197ZM168.847 209.122L165.475 211.085L166.482 212.814L169.853 210.851L168.847 209.122ZM162.104 213.048L158.732 215.011L159.738 216.739L163.11 214.776L162.104 213.048ZM155.36 216.973L151.989 218.936L152.995 220.665L156.366 218.702L155.36 216.973ZM148.617 220.899L145.245 222.862L146.251 224.59L149.623 222.627L148.617 220.899ZM141.873 224.824L138.502 226.787L139.508 228.516L142.88 226.553L141.873 224.824ZM135.13 228.75L131.758 230.713L132.765 232.441L136.136 230.478L135.13 228.75ZM128.387 232.675L125.015 234.638L126.021 236.367L129.393 234.404L128.387 232.675ZM121.643 236.601L118.272 238.564L119.278 240.292L122.649 238.329L121.643 236.601ZM114.9 240.526L111.528 242.489L112.534 244.218L115.906 242.255L114.9 240.526ZM108.156 244.452L104.785 246.415L105.791 248.143L109.163 246.18L108.156 244.452ZM101.413 248.377L98.0413 250.34L99.0475 252.069L102.419 250.106L101.413 248.377ZM94.6696 252.303L91.2979 254.266L92.3041 255.994L95.6758 254.031L94.6696 252.303ZM87.9262 256.228L84.5545 258.191L85.5607 259.92L88.9324 257.957L87.9262 256.228ZM81.1828 260.154L79.4969 261.135L80.5031 262.864L82.189 261.882L81.1828 260.154Z" fill="#4F45E2"/>
<path d="M318.391 196.317C319.873 193.771 323.138 192.909 325.683 194.391C328.229 195.873 329.091 199.138 327.609 201.683C326.127 204.229 322.862 205.091 320.317 203.609C317.771 202.127 316.909 198.862 318.391 196.317ZM323.503 198.136L325.189 199.117L324.183 200.846L322.497 199.864L323.503 198.136ZM328.561 201.08L331.932 203.043L330.926 204.771L327.554 202.808L328.561 201.08ZM335.304 205.005L338.676 206.968L337.67 208.697L334.298 206.734L335.304 205.005ZM342.047 208.931L345.419 210.894L344.413 212.622L341.041 210.659L342.047 208.931ZM348.791 212.856L352.163 214.819L351.156 216.548L347.785 214.585L348.791 212.856ZM355.534 216.782L358.906 218.745L357.9 220.473L354.528 218.51L355.534 216.782ZM362.278 220.707L365.649 222.67L364.643 224.399L361.272 222.436L362.278 220.707ZM369.021 224.633L372.393 226.596L371.387 228.324L368.015 226.361L369.021 224.633ZM375.764 228.558L379.136 230.521L378.13 232.25L374.758 230.287L375.764 228.558ZM382.508 232.484L385.88 234.447L384.873 236.175L381.502 234.212L382.508 232.484ZM389.251 236.409L392.623 238.372L391.617 240.101L388.245 238.138L389.251 236.409ZM395.995 240.335L399.366 242.298L398.36 244.026L394.989 242.063L395.995 240.335ZM402.738 244.26L406.11 246.223L405.104 247.952L401.732 245.989L402.738 244.26ZM409.482 248.186L412.853 250.149L411.847 251.877L408.475 249.914L409.482 248.186ZM416.225 252.111L419.597 254.074L418.59 255.803L415.219 253.84L416.225 252.111ZM422.968 256.037L426.34 258L425.334 259.728L421.962 257.765L422.968 256.037ZM429.712 259.962L431.398 260.944L430.391 262.672L428.706 261.691L429.712 259.962Z" fill="#4F45E2"/>
<circle cx="42" cy="272" r="38" fill="#F4F9FF"/>
<g clip-path="url(#clip0_13_59924)">
<path d="M39.9219 267.25H23.5938C23.2375 267.25 23 266.953 23 266.656V262.856C23 261.194 24.3656 259.769 26.0875 259.769H41.9406C42.2969 259.769 42.5344 260.066 42.5344 260.363C42.5344 260.659 42.2375 260.956 41.9406 260.956H26.0281C25.0187 260.956 24.1875 261.788 24.1875 262.797V266.003H39.9219C40.2781 266.003 40.5156 266.3 40.5156 266.597C40.5156 266.894 40.2781 267.25 39.9219 267.25Z" fill="#4F45E2"/>
<path d="M26.0281 289.219C25.1969 289.219 24.425 288.922 23.8906 288.328C23.2969 287.734 23 286.963 23 286.131V266.597C23 266.241 23.2969 266.003 23.5938 266.003H39.9219C40.2781 266.003 40.5156 266.3 40.5156 266.597C40.5156 266.894 40.2188 267.191 39.9219 267.191H24.1875V286.072C24.1875 286.547 24.3656 287.022 24.7219 287.378C25.0781 287.734 25.5531 287.913 26.0281 287.913H53.875C54.8844 287.913 55.7156 287.081 55.7156 286.072V274.197C55.7156 273.841 56.0125 273.603 56.3094 273.603C56.6063 273.603 56.9031 273.9 56.9031 274.197V286.072C56.9031 287.734 55.5375 289.159 53.8156 289.159H26.0281V289.219ZM28.3438 264.103H27.0375C26.6813 264.103 26.4438 263.806 26.4438 263.509C26.4438 263.213 26.7406 262.916 27.0375 262.916H28.3438C28.7 262.916 28.9375 263.213 28.9375 263.509C28.9375 263.806 28.7 264.103 28.3438 264.103ZM31.2531 264.103H29.9469C29.5906 264.103 29.3531 263.806 29.3531 263.509C29.3531 263.213 29.65 262.916 29.9469 262.916H31.2531C31.6094 262.916 31.8469 263.213 31.8469 263.509C31.8469 263.806 31.6094 264.103 31.2531 264.103ZM34.1625 264.103H32.8562C32.5 264.103 32.2625 263.806 32.2625 263.509C32.2625 263.213 32.5594 262.916 32.8562 262.916H34.1625C34.5187 262.916 34.7562 263.213 34.7562 263.509C34.7562 263.806 34.5187 264.103 34.1625 264.103Z" fill="#4F45E2"/>
<path d="M37.6062 277.997H28.9375C27.9281 277.997 27.0969 277.166 27.0969 276.156V270.991C27.0969 269.981 27.9281 269.15 28.9375 269.15H37.6062C38.6156 269.15 39.4469 269.981 39.4469 270.991V276.156C39.4469 277.166 38.6156 277.997 37.6062 277.997ZM37.6062 270.338H28.9375C28.5812 270.338 28.3437 270.634 28.3437 270.931V276.156C28.3437 276.513 28.6406 276.75 28.9375 276.75H37.6062C37.9625 276.75 38.2 276.453 38.2 276.156V270.991C38.2 270.634 37.9031 270.338 37.6062 270.338ZM43.8406 274.316H43.1875C42.8312 274.316 42.5937 274.019 42.5937 273.722C42.5937 273.425 42.8906 273.128 43.1875 273.128H43.8406C44.1969 273.128 44.4344 273.425 44.4344 273.722C44.4344 274.019 44.1375 274.316 43.8406 274.316ZM52.5687 278.234H43.1875C42.8312 278.234 42.5937 277.938 42.5937 277.641C42.5937 277.344 42.8906 277.047 43.1875 277.047H52.5687C52.925 277.047 53.1625 277.344 53.1625 277.641C53.1625 277.938 52.8656 278.234 52.5687 278.234ZM52.5687 282.153H27.3937C27.0375 282.153 26.8 281.856 26.8 281.559C26.8 281.262 27.0969 280.966 27.3937 280.966H52.5687C52.925 280.966 53.1625 281.262 53.1625 281.559C53.1625 281.856 52.8656 282.153 52.5687 282.153ZM52.5687 286.072H27.3937C27.0375 286.072 26.8 285.775 26.8 285.478C26.8 285.181 27.0969 284.884 27.3937 284.884H52.5687C52.925 284.884 53.1625 285.181 53.1625 285.478C53.1625 285.775 52.8656 286.072 52.5687 286.072ZM51.7375 274.553H50.7875C50.0156 274.553 49.3625 273.959 49.2437 273.247L49.0062 271.763C49.0062 271.644 48.8875 271.584 48.8281 271.525C48.5906 271.466 48.4125 271.347 48.175 271.288C48.0562 271.228 47.9969 271.228 47.8781 271.288L46.6906 272.178C46.0969 272.594 45.2062 272.534 44.6719 272L43.9594 271.288C43.425 270.753 43.3656 269.922 43.7812 269.269L44.6719 268.081C44.7312 267.962 44.7312 267.844 44.6719 267.784C44.5531 267.606 44.4937 267.369 44.375 267.131C44.3156 267.012 44.2562 266.953 44.1375 266.953L42.7125 266.716C41.9406 266.597 41.4062 265.944 41.4062 265.172V264.162C41.4062 263.391 41.9406 262.738 42.7125 262.619L44.1375 262.381C44.2562 262.381 44.3156 262.262 44.375 262.203C44.4344 261.966 44.5531 261.787 44.6719 261.55C44.7312 261.431 44.7312 261.312 44.6719 261.253L43.7812 260.066C43.3062 259.472 43.425 258.641 43.9 258.047L44.6125 257.334C45.1469 256.8 46.0375 256.741 46.6312 257.216L47.7594 258.106C47.8781 258.225 47.9969 258.166 48.0562 258.106C48.2937 257.988 48.4719 257.928 48.7094 257.809C48.8281 257.75 48.8875 257.691 48.9469 257.572L49.1844 256.087C49.3625 255.375 50.0156 254.781 50.7875 254.781H51.7375C52.5094 254.781 53.1625 255.375 53.2812 256.087L53.5187 257.572C53.5187 257.691 53.6375 257.75 53.6969 257.809C53.9344 257.869 54.1125 257.987 54.35 258.047C54.4687 258.106 54.5281 258.106 54.6469 258.047L55.8344 257.156C56.4281 256.681 57.3187 256.8 57.8531 257.334L58.5656 258.047C59.1 258.581 59.1594 259.412 58.7437 260.066L57.8531 261.253C57.7937 261.372 57.7937 261.491 57.8531 261.55C57.9719 261.728 58.0312 261.966 58.15 262.203C58.2094 262.322 58.2687 262.381 58.3875 262.381L59.8125 262.619C60.5844 262.738 61.1187 263.391 61.1187 264.162V265.172C61.1187 265.944 60.5844 266.597 59.8125 266.716L58.3875 266.953C58.2687 266.953 58.2094 267.072 58.15 267.131C58.0906 267.369 57.9719 267.547 57.9125 267.784C57.8531 267.903 57.8531 268.022 57.9125 268.141L58.8031 269.328C59.2187 269.922 59.1594 270.753 58.6844 271.347L57.7937 272C57.2594 272.534 56.3687 272.594 55.775 272.119L54.6469 271.228C54.5281 271.109 54.4094 271.169 54.35 271.228C54.1125 271.347 53.9344 271.406 53.6969 271.525C53.5781 271.584 53.5187 271.644 53.5187 271.763L53.2812 273.247C53.1625 273.959 52.5094 274.553 51.7375 274.553ZM47.9969 269.981C48.2344 269.981 48.4719 270.041 48.65 270.159C48.8281 270.219 49.0062 270.337 49.1844 270.397C49.7187 270.575 50.075 271.05 50.1937 271.584L50.4312 273.069C50.4312 273.247 50.6094 273.366 50.7281 273.366H51.6781C51.8562 273.366 51.975 273.247 51.975 273.128L52.2125 271.644C52.2719 271.109 52.6875 270.634 53.2219 270.456C53.4 270.397 53.5781 270.337 53.7562 270.219C54.2312 269.981 54.8844 270.041 55.3594 270.397L56.5469 271.288C56.725 271.406 56.8437 271.347 56.9625 271.228L57.675 270.516C57.7937 270.397 57.7937 270.219 57.675 270.1L56.7844 268.912C56.4281 268.438 56.3687 267.844 56.6062 267.369C56.6656 267.191 56.7844 267.012 56.8437 266.834C57.0219 266.3 57.4969 265.884 58.0312 265.825L59.4562 265.588C59.6344 265.588 59.6937 265.409 59.6937 265.291V264.281C59.6937 264.103 59.575 263.984 59.4562 263.984L58.0312 263.747C57.4969 263.688 57.0219 263.272 56.8437 262.737C56.7844 262.559 56.725 262.381 56.6062 262.203C56.3687 261.669 56.4281 261.075 56.725 260.6L57.6156 259.412C57.7344 259.294 57.675 259.116 57.6156 258.997L56.9031 258.284C56.8437 258.225 56.725 258.166 56.6656 258.166C56.6062 258.166 56.5469 258.166 56.4875 258.225L55.3594 259.116C54.9437 259.472 54.2906 259.531 53.7562 259.294C53.5781 259.234 53.4 259.116 53.2219 259.056C52.6875 258.878 52.3312 258.403 52.2125 257.869L51.975 256.384C51.975 256.206 51.7969 256.087 51.6781 256.087H50.7281C50.55 256.087 50.4312 256.206 50.4312 256.325L50.2531 257.75C50.1937 258.284 49.7781 258.759 49.2437 258.938C49.0656 258.997 48.8875 259.056 48.7094 259.175C48.2344 259.412 47.5812 259.353 47.1062 258.997L45.9187 258.106C45.7406 257.928 45.6219 258.047 45.5031 258.166L44.7906 258.878C44.6719 258.997 44.6719 259.175 44.7906 259.294L45.6812 260.481C45.9781 260.956 46.0375 261.55 45.8 262.025C45.7406 262.203 45.6219 262.381 45.5625 262.559C45.3844 263.094 44.9094 263.509 44.375 263.569L42.95 263.806C42.7719 263.806 42.7125 263.984 42.7125 264.103V265.113C42.7125 265.291 42.8312 265.409 42.95 265.409L44.375 265.647C44.9094 265.706 45.3844 266.122 45.5625 266.656C45.6219 266.834 45.6812 267.012 45.8 267.191C46.0375 267.725 45.9781 268.319 45.6219 268.794L44.7312 269.981C44.6125 270.1 44.6719 270.278 44.7312 270.397L45.4437 271.109C45.5625 271.228 45.6812 271.288 45.8594 271.169L47.0469 270.278C47.3437 270.1 47.7 269.981 47.9969 269.981Z" fill="#4F45E2"/>
<path d="M51.2625 268.616C50.7401 268.616 50.2228 268.513 49.7401 268.313C49.2575 268.113 48.8189 267.82 48.4495 267.451C48.0801 267.081 47.7871 266.643 47.5872 266.16C47.3873 265.677 47.2844 265.16 47.2844 264.638C47.2844 264.115 47.3873 263.598 47.5872 263.115C47.7871 262.633 48.0801 262.194 48.4495 261.825C48.8189 261.455 49.2575 261.162 49.7401 260.962C50.2228 260.762 50.7401 260.659 51.2625 260.659C52.3176 260.659 53.3294 261.079 54.0755 261.825C54.8215 262.571 55.2406 263.582 55.2406 264.638C55.2406 265.693 54.8215 266.704 54.0755 267.451C53.3294 268.197 52.3176 268.616 51.2625 268.616ZM51.2625 261.906C49.7188 261.906 48.5313 263.153 48.5313 264.638C48.5313 266.181 49.7781 267.369 51.2625 267.369C52.7469 267.369 53.9938 266.122 53.9938 264.638C53.9938 263.153 52.7469 261.906 51.2625 261.906Z" fill="#4F45E2"/>
</g>
<circle cx="466" cy="277" r="38" fill="#F4F9FF"/>
<path d="M449.371 277C449.407 277 449.443 276.997 449.478 276.993C455.294 276.203 460.966 274.583 466.32 272.18C471.728 269.747 476.751 266.539 481.234 262.658L480.269 266.516C480.219 266.72 480.251 266.935 480.359 267.115C480.467 267.295 480.642 267.425 480.845 267.476C480.908 267.491 480.973 267.499 481.037 267.5C481.214 267.499 481.385 267.44 481.524 267.332C481.663 267.223 481.762 267.071 481.804 266.9L483.388 260.566C483.417 260.45 483.419 260.328 483.394 260.21C483.369 260.093 483.318 259.982 483.244 259.888C483.17 259.793 483.075 259.716 482.967 259.663C482.859 259.611 482.741 259.583 482.621 259.583H476.287C476.077 259.583 475.876 259.666 475.728 259.815C475.579 259.963 475.496 260.165 475.496 260.375C475.496 260.585 475.579 260.786 475.728 260.934C475.876 261.083 476.077 261.166 476.287 261.166H480.538C476.086 265.078 471.075 268.304 465.671 270.736C460.455 273.077 454.929 274.655 449.264 275.423C449.065 275.45 448.883 275.552 448.756 275.708C448.629 275.863 448.566 276.061 448.58 276.262C448.594 276.462 448.683 276.65 448.83 276.787C448.976 276.924 449.17 277 449.371 277ZM482.621 292.833H481.829V271.458C481.829 271.248 481.746 271.047 481.597 270.898C481.449 270.75 481.247 270.666 481.037 270.666H473.121C472.911 270.666 472.709 270.75 472.561 270.898C472.412 271.047 472.329 271.248 472.329 271.458V292.833H470.746V276.208C470.746 275.998 470.662 275.797 470.514 275.648C470.365 275.5 470.164 275.416 469.954 275.416H462.037C461.827 275.416 461.626 275.5 461.478 275.648C461.329 275.797 461.246 275.998 461.246 276.208V292.833H459.662V280.958C459.662 280.748 459.579 280.547 459.43 280.398C459.282 280.25 459.081 280.166 458.871 280.166H450.954C450.744 280.166 450.543 280.25 450.394 280.398C450.246 280.547 450.162 280.748 450.162 280.958V292.833H449.371C449.161 292.833 448.959 292.916 448.811 293.065C448.662 293.213 448.579 293.415 448.579 293.625C448.579 293.835 448.662 294.036 448.811 294.184C448.959 294.333 449.161 294.416 449.371 294.416H482.621C482.831 294.416 483.032 294.333 483.18 294.184C483.329 294.036 483.412 293.835 483.412 293.625C483.412 293.415 483.329 293.213 483.18 293.065C483.032 292.916 482.831 292.833 482.621 292.833ZM473.912 272.25H480.246V292.833H473.912V272.25ZM462.829 277H469.162V292.833H462.829V277ZM451.746 281.75H458.079V292.833H451.746V281.75Z" fill="#4F45E2"/>
<path d="M192.504 123.492C191.022 126.037 187.757 126.9 185.211 125.418C182.666 123.936 181.803 120.671 183.285 118.125C184.767 115.58 188.032 114.717 190.578 116.199C193.123 117.681 193.986 120.946 192.504 123.492ZM187.391 121.673L185.706 120.691L186.712 118.963L188.398 119.944L187.391 121.673ZM182.334 118.729L178.962 116.766L179.968 115.037L183.34 117L182.334 118.729ZM175.59 114.803L172.219 112.84L173.225 111.112L176.597 113.075L175.59 114.803ZM168.847 110.878L165.475 108.915L166.482 107.186L169.853 109.149L168.847 110.878ZM162.104 106.952L158.732 104.989L159.738 103.261L163.11 105.224L162.104 106.952ZM155.36 103.027L151.989 101.064L152.995 99.3354L156.366 101.298L155.36 103.027ZM148.617 99.1012L145.245 97.1384L146.251 95.4099L149.623 97.3727L148.617 99.1012ZM141.873 95.1757L138.502 93.2129L139.508 91.4844L142.88 93.4472L141.873 95.1757ZM135.13 91.2502L131.758 89.2874L132.765 87.5589L136.136 89.5217L135.13 91.2502ZM128.387 87.3246L125.015 85.3619L126.021 83.6334L129.393 85.5962L128.387 87.3246ZM121.643 83.3991L118.272 81.4364L119.278 79.7079L122.649 81.6707L121.643 83.3991ZM114.9 79.4736L111.528 77.5109L112.534 75.7824L115.906 77.7452L114.9 79.4736ZM108.156 75.5481L104.785 73.5854L105.791 71.8569L109.163 73.8197L108.156 75.5481ZM101.413 71.6226L98.0413 69.6599L99.0475 67.9314L102.419 69.8942L101.413 71.6226ZM94.6696 67.6971L91.2979 65.7344L92.3041 64.0059L95.6758 65.9686L94.6696 67.6971ZM87.9262 63.7716L84.5545 61.8089L85.5607 60.0804L88.9324 62.0431L87.9262 63.7716ZM81.1828 59.8461L79.4969 58.8647L80.5031 57.1363L82.189 58.1176L81.1828 59.8461Z" fill="#4F45E2"/>
<path d="M318.391 123.683C319.873 126.229 323.138 127.091 325.683 125.609C328.229 124.127 329.091 120.862 327.609 118.317C326.127 115.771 322.862 114.909 320.317 116.391C317.771 117.873 316.909 121.138 318.391 123.683ZM323.503 121.864L325.189 120.883L324.183 119.154L322.497 120.136L323.503 121.864ZM328.561 118.92L331.932 116.957L330.926 115.229L327.554 117.192L328.561 118.92ZM335.304 114.995L338.676 113.032L337.67 111.303L334.298 113.266L335.304 114.995ZM342.047 111.069L345.419 109.106L344.413 107.378L341.041 109.341L342.047 111.069ZM348.791 107.144L352.163 105.181L351.156 103.452L347.785 105.415L348.791 107.144ZM355.534 103.218L358.906 101.255L357.9 99.5269L354.528 101.49L355.534 103.218ZM362.278 99.2926L365.649 97.3298L364.643 95.6014L361.272 97.5641L362.278 99.2926ZM369.021 95.3671L372.393 93.4043L371.387 91.6758L368.015 93.6386L369.021 95.3671ZM375.764 91.4416L379.136 89.4788L378.13 87.7503L374.758 89.7131L375.764 91.4416ZM382.508 87.516L385.88 85.5533L384.873 83.8248L381.502 85.7876L382.508 87.516ZM389.251 83.5905L392.623 81.6278L391.617 79.8993L388.245 81.8621L389.251 83.5905ZM395.995 79.665L399.366 77.7023L398.36 75.9738L394.989 77.9366L395.995 79.665ZM402.738 75.7395L406.11 73.7768L405.104 72.0483L401.732 74.0111L402.738 75.7395ZM409.482 71.814L412.853 69.8513L411.847 68.1228L408.475 70.0856L409.482 71.814ZM416.225 67.8885L419.597 65.9258L418.59 64.1973L415.219 66.1601L416.225 67.8885ZM422.968 63.963L426.34 62.0003L425.334 60.2718L421.962 62.2345L422.968 63.963ZM429.712 60.0375L431.398 59.0561L430.391 57.3277L428.706 58.309L429.712 60.0375Z" fill="#4F45E2"/>
<circle cx="38" cy="38" r="38" transform="matrix(1 0 0 -1 5 81)" fill="#F4F9FF"/>
<path d="M61.0258 31.2055L60.2892 30.922C60.1733 30.5312 60.0168 30.1537 59.8222 29.7956L60.1427 29.0738C60.1915 28.9641 60.2058 28.8423 60.1839 28.7243C60.162 28.6064 60.1048 28.4978 60.02 28.4129L58.8433 27.2363C58.7585 27.1514 58.6499 27.0943 58.532 27.0724C58.414 27.0504 58.2921 27.0648 58.1825 27.1135L57.4605 27.4341C57.1024 27.2396 56.725 27.0831 56.3343 26.9672L56.0507 26.2305C56.0076 26.1186 55.9316 26.0223 55.8327 25.9543C55.7338 25.8864 55.6166 25.8501 55.4966 25.8501H53.8326C53.7126 25.8501 53.5954 25.8864 53.4965 25.9544C53.3976 26.0223 53.3216 26.1186 53.2785 26.2305L52.9949 26.9672C52.6042 27.0831 52.2267 27.2396 51.8687 27.4341L51.1467 27.1135C51.037 27.0648 50.9152 27.0504 50.7972 27.0724C50.6793 27.0943 50.5707 27.1514 50.4859 27.2363L49.3092 28.4129C49.2243 28.4978 49.1672 28.6063 49.1453 28.7243C49.1233 28.8423 49.1377 28.9641 49.1864 29.0738L49.5069 29.7955C49.3123 30.1537 49.1557 30.5313 49.0398 30.9221L48.3034 31.2056C48.1914 31.2487 48.0951 31.3247 48.0272 31.4236C47.9593 31.5225 47.9229 31.6397 47.9229 31.7597V31.998H30.8767C29.2925 31.998 28.0038 33.2867 28.0038 34.8709V44.8311L27.8175 44.7483C27.7079 44.6996 27.586 44.6853 27.468 44.7072C27.3501 44.7292 27.2415 44.7863 27.1567 44.8712L25.98 46.0478C25.8952 46.1327 25.838 46.2412 25.8161 46.3592C25.7941 46.4772 25.8085 46.599 25.8572 46.7087L26.1777 47.4304C25.9831 47.7886 25.8265 48.1662 25.7107 48.557L24.9742 48.8405C24.8622 48.8835 24.7659 48.9595 24.698 49.0584C24.6301 49.1573 24.5937 49.2745 24.5938 49.3944V51.0585C24.5937 51.1785 24.6301 51.2957 24.698 51.3946C24.7659 51.4935 24.8622 51.5695 24.9742 51.6126L25.7109 51.8962C25.8267 52.2869 25.9832 52.6644 26.1779 53.0224L25.8572 53.7445C25.8085 53.8541 25.7941 53.976 25.8161 54.0939C25.838 54.2119 25.8952 54.3205 25.98 54.4053L27.1567 55.582C27.2415 55.6668 27.3501 55.7239 27.468 55.7459C27.586 55.7678 27.7078 55.7535 27.8175 55.7048L28.5392 55.3843C28.8974 55.5789 29.275 55.7354 29.6659 55.8513L29.9493 56.5878C29.9924 56.6998 30.0684 56.7961 30.1673 56.864C30.2662 56.9319 30.3834 56.9683 30.5034 56.9682H32.1675C32.2875 56.9682 32.4046 56.9319 32.5036 56.864C32.6025 56.7961 32.6785 56.6998 32.7216 56.5878L33.0052 55.8511C33.3959 55.7352 33.7733 55.5787 34.1314 55.3841L34.8534 55.7048C34.963 55.7535 35.0849 55.7679 35.2028 55.746C35.3208 55.7241 35.4294 55.6669 35.5142 55.5821L36.6909 54.4054C36.7757 54.3205 36.8329 54.212 36.8548 54.094C36.8767 53.976 36.8624 53.8542 36.8136 53.7445L36.6709 53.4231H38.1685V55.8567H35.2931C33.894 55.8567 32.7557 56.8196 32.7557 58.0033V59.5562C32.7557 59.7137 32.8182 59.8647 32.9296 59.9761C33.0409 60.0874 33.1919 60.15 33.3494 60.15H53.4926C53.6501 60.15 53.8011 60.0874 53.9124 59.9761C54.0238 59.8647 54.0864 59.7137 54.0864 59.5562V58.0033C54.0864 56.8196 52.9481 55.8567 51.549 55.8567H48.6735V53.4231H55.9653C57.5494 53.4231 58.8381 52.1343 58.8381 50.5502V37.9515C58.8398 37.9499 58.8416 37.9487 58.8432 37.9471L60.0198 36.7704C60.1047 36.6856 60.1618 36.577 60.1838 36.4591C60.2057 36.3411 60.1914 36.2192 60.1427 36.1096L59.8221 35.3879C60.0168 35.0297 60.1733 34.6521 60.2891 34.2612L61.0256 33.9778C61.1376 33.9347 61.2339 33.8587 61.3018 33.7598C61.3697 33.6608 61.406 33.5437 61.406 33.4237V31.7596C61.4061 31.6396 61.3698 31.5225 61.3019 31.4235C61.2341 31.3246 61.1378 31.2486 61.0258 31.2055ZM36.9078 48.3963C36.799 48.0625 36.6601 47.7393 36.493 47.4305L36.8136 46.7086C36.8623 46.5989 36.8766 46.4771 36.8547 46.3591C36.8328 46.2412 36.7757 46.1326 36.6908 46.0478L35.5141 44.8711C35.4293 44.7863 35.3207 44.7292 35.2028 44.7072C35.0848 44.6853 34.963 44.6996 34.8533 44.7483L34.1312 45.069C33.7732 44.8744 33.3957 44.7179 33.005 44.602L32.7214 43.8652C32.6783 43.7532 32.6023 43.657 32.5034 43.589C32.4045 43.5211 32.2873 43.4848 32.1673 43.4848H31.0971V35.0912H49.3574C49.4044 35.1914 49.4543 35.2902 49.5069 35.3875L49.1862 36.1095C49.1375 36.2192 49.1232 36.341 49.1451 36.459C49.167 36.5769 49.2242 36.6855 49.309 36.7703L50.4857 37.947C50.5705 38.0319 50.6791 38.089 50.7971 38.1109C50.915 38.1329 51.0369 38.1185 51.1465 38.0698L51.8682 37.7493C52.2264 37.944 52.604 38.1005 52.9949 38.2164L53.2783 38.9528C53.3214 39.0648 53.3974 39.1611 53.4964 39.229C53.5953 39.2969 53.7125 39.3333 53.8324 39.3333H55.4964C55.5822 39.3331 55.6669 39.3142 55.7447 39.278V48.3963H36.9078ZM30.8767 33.1854H47.9229V33.4236C47.9231 33.5175 47.9456 33.6099 47.9885 33.6934C48.0314 33.7769 48.0936 33.849 48.1698 33.9037H30.8195C30.3179 33.9037 29.9097 34.3119 29.9097 34.8136V43.9682L29.6658 44.602C29.5053 44.6502 29.347 44.7053 29.1913 44.7671V34.8708C29.1913 33.9415 29.9474 33.1854 30.8767 33.1854ZM35.285 53.2284L35.5628 53.8539L34.9628 54.4539L34.337 54.176C34.2488 54.1368 34.1525 54.1197 34.0563 54.1262C33.96 54.1326 33.8668 54.1624 33.7847 54.213C33.3635 54.4726 32.9035 54.6634 32.4222 54.778C32.3284 54.8003 32.2414 54.8451 32.1688 54.9086C32.0962 54.9721 32.0402 55.0523 32.0055 55.1423L31.7598 55.7807H30.9111L30.6654 55.1425C30.6308 55.0525 30.5748 54.9723 30.5022 54.9088C30.4296 54.8454 30.3426 54.8005 30.2488 54.7782C29.7673 54.6637 29.3072 54.4729 28.8859 54.2132C28.8038 54.1627 28.7106 54.1328 28.6143 54.1264C28.5181 54.1199 28.4217 54.137 28.3336 54.1761L27.708 54.4539L27.1079 53.8538L27.3859 53.228C27.425 53.1398 27.4421 53.0435 27.4356 52.9473C27.4292 52.851 27.3993 52.7578 27.3487 52.6757C27.0891 52.2545 26.8984 51.7946 26.7839 51.3132C26.7615 51.2194 26.7167 51.1324 26.6532 51.0598C26.5897 50.9872 26.5095 50.9312 26.4195 50.8965L25.7812 50.6508V49.8021L26.4194 49.5565C26.5094 49.5218 26.5896 49.4658 26.6531 49.3932C26.7166 49.3206 26.7614 49.2336 26.7837 49.1398C26.8982 48.6583 27.0889 48.1982 27.3487 47.7768C27.3992 47.6947 27.429 47.6015 27.4355 47.5053C27.442 47.409 27.4249 47.3127 27.3858 47.2245L27.108 46.5991L27.7081 45.999L28.3339 46.277C28.422 46.3161 28.5183 46.3331 28.6146 46.3267C28.7108 46.3202 28.804 46.2904 28.8861 46.2399C29.3073 45.9803 29.7673 45.7896 30.2487 45.675C30.3425 45.6526 30.4295 45.6078 30.5021 45.5443C30.5747 45.4808 30.6307 45.4006 30.6654 45.3106L30.9111 44.6723H31.7598L32.0055 45.3106C32.0402 45.4006 32.0962 45.4808 32.1688 45.5443C32.2414 45.6078 32.3283 45.6526 32.4221 45.675C32.9035 45.7895 33.3635 45.9802 33.7847 46.2399C33.8668 46.2904 33.96 46.3202 34.0563 46.3267C34.1525 46.3331 34.2488 46.3161 34.337 46.277L34.9628 45.999L35.5628 46.5991L35.285 47.2248C35.2458 47.313 35.2287 47.4093 35.2352 47.5055C35.2416 47.6018 35.2714 47.695 35.322 47.7771C35.5816 48.1984 35.7724 48.6583 35.8869 49.1397C35.9093 49.2335 35.9541 49.3205 36.0176 49.3931C36.0811 49.4657 36.1613 49.5217 36.2513 49.5564L36.8896 49.802V50.6507L36.2514 50.8964C36.1614 50.931 36.0812 50.9871 36.0177 51.0597C35.9543 51.1323 35.9094 51.2192 35.8871 51.3131C35.7726 51.7946 35.5819 52.2547 35.3221 52.6759C35.2715 52.7581 35.2417 52.8513 35.2353 52.9476C35.2288 53.0438 35.2459 53.1402 35.285 53.2284ZM52.8989 58.0032V58.9624H33.9432V58.0032C33.9432 57.4833 34.5613 57.0441 35.2931 57.0441H51.549C52.2807 57.0441 52.8989 57.4833 52.8989 58.0032ZM47.486 55.8566H39.3559V53.423H47.486V55.8566ZM55.9653 52.2355H36.8469C36.8881 52.1236 36.9258 52.0104 36.9601 51.8961L37.6966 51.6127C37.8085 51.5696 37.9048 51.4936 37.9728 51.3947C38.0407 51.2957 38.077 51.1786 38.077 51.0586V49.5839H56.3386C56.4961 49.5839 56.6471 49.5214 56.7584 49.41C56.8698 49.2987 56.9323 49.1476 56.9323 48.9902V38.0021C57.1125 37.9267 57.2888 37.8423 57.4605 37.7492L57.6507 37.8338V50.5502C57.6507 51.4795 56.8946 52.2355 55.9653 52.2355ZM60.2188 33.016L59.5806 33.2617C59.4906 33.2963 59.4104 33.3523 59.3469 33.4249C59.2834 33.4975 59.2386 33.5845 59.2163 33.6783C59.1018 34.1598 58.911 34.6199 58.6512 35.0412C58.6007 35.1233 58.5709 35.2165 58.5644 35.3128C58.558 35.409 58.575 35.5054 58.6141 35.5935L58.8919 36.2191L58.2918 36.8192L57.666 36.5412C57.5778 36.5021 57.4815 36.485 57.3852 36.4915C57.289 36.498 57.1958 36.5278 57.1137 36.5783C56.6925 36.838 56.2326 37.0287 55.7512 37.1432C55.6574 37.1655 55.5704 37.2104 55.4978 37.2739C55.4252 37.3374 55.3692 37.4176 55.3346 37.5076L55.0888 38.1459H54.2401L53.9945 37.5078C53.9598 37.4178 53.9038 37.3376 53.8312 37.2741C53.7586 37.2106 53.6716 37.1658 53.5778 37.1434C53.0963 37.0289 52.6362 36.8382 52.2149 36.5785C52.1328 36.528 52.0396 36.4982 51.9433 36.4917C51.8471 36.4852 51.7508 36.5023 51.6626 36.5414L51.0371 36.8192L50.4371 36.2191L50.715 35.5933C50.7542 35.5052 50.7712 35.4088 50.7648 35.3126C50.7583 35.2164 50.7285 35.1232 50.678 35.041C50.4184 34.6198 50.2276 34.1598 50.1131 33.6785C50.0907 33.5847 50.0459 33.4977 49.9824 33.4251C49.9189 33.3525 49.8387 33.2965 49.7487 33.2619L49.1104 33.0161V32.1674L49.7484 31.9218C49.8384 31.8872 49.9186 31.8311 49.9821 31.7585C50.0456 31.686 50.0904 31.599 50.1128 31.5052C50.2273 31.0237 50.4181 30.5636 50.6778 30.1422C50.7283 30.0601 50.7581 29.9669 50.7646 29.8707C50.7711 29.7744 50.754 29.6781 50.7149 29.5899L50.4371 28.9644L51.0372 28.3643L51.663 28.6423C51.7512 28.6814 51.8475 28.6985 51.9438 28.6921C52.04 28.6856 52.1332 28.6558 52.2154 28.6052C52.6365 28.3456 53.0965 28.1549 53.5778 28.0404C53.6716 28.018 53.7586 27.9732 53.8312 27.9097C53.9038 27.8462 53.9598 27.766 53.9945 27.676L54.2402 27.0377H55.0889L55.3346 27.676C55.3693 27.766 55.4253 27.8462 55.4979 27.9097C55.5705 27.9732 55.6575 28.018 55.7513 28.0404C56.2327 28.1549 56.6926 28.3456 57.1138 28.6052C57.1959 28.6558 57.2892 28.6856 57.3854 28.6921C57.4816 28.6985 57.578 28.6814 57.6661 28.6423L58.2919 28.3643L58.892 28.9645L58.6141 29.5901C58.575 29.6783 58.5579 29.7746 58.5644 29.8709C58.5708 29.9671 58.6006 30.0603 58.6512 30.1425C58.9108 30.5637 59.1015 31.0237 59.2161 31.505C59.2384 31.5989 59.2833 31.6858 59.3468 31.7584C59.4102 31.831 59.4905 31.8871 59.5805 31.9217L60.2188 32.1674V33.016ZM54.6646 28.8422C52.5972 28.8422 50.9151 30.5242 50.9151 32.5917C50.9151 34.6592 52.5972 36.3411 54.6646 36.3411C56.732 36.3411 58.4141 34.6591 58.4141 32.5917C58.4141 30.5242 56.732 28.8422 54.6646 28.8422ZM54.6646 35.1536C53.2519 35.1536 52.1026 34.0044 52.1026 32.5917C52.1026 31.179 53.2519 30.0297 54.6646 30.0297C56.0773 30.0297 57.2266 31.1789 57.2266 32.5917C57.2265 34.0043 56.0773 35.1536 54.6646 35.1536ZM31.3354 46.477C29.268 46.477 27.586 48.1591 27.586 50.2266C27.586 52.2941 29.268 53.976 31.3354 53.976C33.4028 53.976 35.0849 52.294 35.0849 50.2266C35.0849 48.1591 33.4028 46.477 31.3354 46.477ZM31.3354 52.7885C29.9227 52.7885 28.7735 51.6392 28.7735 50.2265C28.7735 48.8138 29.9227 47.6645 31.3354 47.6645C32.7481 47.6645 33.8974 48.8137 33.8974 50.2265C33.8974 51.6392 32.7481 52.7885 31.3354 52.7885ZM44.9738 38.2429L43.0153 45.552C42.9815 45.6782 42.907 45.7897 42.8034 45.8693C42.6997 45.9489 42.5728 45.9921 42.4421 45.9922C42.351 45.9923 42.2611 45.9714 42.1793 45.9311C42.0976 45.8909 42.0262 45.8323 41.9708 45.7601C41.9153 45.6878 41.8772 45.6037 41.8594 45.5143C41.8416 45.425 41.8446 45.3327 41.8682 45.2447L43.8267 37.9357C43.8467 37.8601 43.8813 37.7892 43.9287 37.7271C43.9761 37.6649 44.0354 37.6128 44.103 37.5736C44.1706 37.5344 44.2453 37.5089 44.3227 37.4986C44.4002 37.4883 44.4789 37.4935 44.5544 37.5137C44.6299 37.5339 44.7007 37.5688 44.7627 37.6165C44.8246 37.6641 44.8766 37.7235 44.9155 37.7912C44.9545 37.859 44.9797 37.9338 44.9897 38.0113C44.9997 38.0888 44.9943 38.1675 44.9738 38.2429ZM40.9073 39.5087L38.255 41.7438L40.9073 43.9789C41.0278 44.0804 41.1029 44.2256 41.1163 44.3825C41.1297 44.5394 41.0802 44.6952 40.9788 44.8156C40.8773 44.936 40.7321 45.0112 40.5752 45.0246C40.4183 45.038 40.2625 44.9885 40.1421 44.8871L36.9509 42.1979C36.8847 42.1422 36.8315 42.0726 36.7951 41.9942C36.7586 41.9158 36.7397 41.8303 36.7397 41.7438C36.7397 41.6573 36.7586 41.5719 36.7951 41.4934C36.8315 41.415 36.8847 41.3455 36.9509 41.2897L40.1421 38.6007C40.2628 38.5018 40.4176 38.4545 40.5729 38.4688C40.7283 38.4832 40.8718 38.5582 40.9723 38.6775C41.0728 38.7968 41.1224 38.9509 41.1102 39.1064C41.0981 39.262 41.0252 39.4065 40.9073 39.5087ZM50.1021 41.7438C50.1021 41.8303 50.0833 41.9158 50.0468 41.9942C50.0103 42.0726 49.9571 42.1422 49.891 42.1979L46.6998 44.8871C46.5929 44.9774 46.4575 45.0269 46.3175 45.0267C46.1957 45.0268 46.0769 44.9895 45.977 44.9197C45.8772 44.85 45.8012 44.7512 45.7594 44.6368C45.7176 44.5224 45.712 44.398 45.7433 44.2803C45.7747 44.1626 45.8414 44.0574 45.9345 43.9789L48.5869 41.7438L45.9345 39.5087C45.8749 39.4585 45.8258 39.397 45.7899 39.3277C45.7541 39.2585 45.7322 39.1829 45.7256 39.1052C45.7189 39.0275 45.7277 38.9492 45.7513 38.8749C45.7749 38.8006 45.8129 38.7317 45.8631 38.6721C45.9134 38.6124 45.9749 38.5633 46.0441 38.5274C46.1134 38.4916 46.189 38.4697 46.2667 38.4631C46.3444 38.4564 46.4226 38.4652 46.4969 38.4888C46.5712 38.5124 46.6402 38.5504 46.6998 38.6007L49.891 41.2897C49.9571 41.3455 50.0103 41.415 50.0468 41.4934C50.0832 41.5719 50.1021 41.6573 50.1021 41.7438Z" fill="#4F45E2"/>
<circle cx="38" cy="38" r="38" transform="matrix(1 0 0 -1 428 76)" fill="#F4F9FF"/>
<g clip-path="url(#clip1_13_59924)">
<path d="M484.256 54.0314H470.972C470.562 54.0314 470.23 54.3637 470.23 54.7736C470.23 55.1834 470.562 55.5157 470.972 55.5157H484.256C484.666 55.5157 484.999 55.1834 484.999 54.7736C484.999 54.3637 484.666 54.0314 484.256 54.0314ZM460.953 54.0314H447.744C447.334 54.0314 447.001 54.3637 447.001 54.7736C447.001 55.1834 447.334 55.5157 447.744 55.5157H460.953C461.363 55.5157 461.696 55.1834 461.696 54.7736C461.696 54.3637 461.363 54.0314 460.953 54.0314ZM466.293 34.1818H460.542C460.132 34.1818 459.8 34.5141 459.8 34.9239C459.8 35.3338 460.132 35.666 460.542 35.666H466.293C466.703 35.666 467.035 35.3337 467.035 34.9239C467.035 34.5141 466.703 34.1818 466.293 34.1818ZM472.07 34.3991C471.93 34.2604 471.742 34.1823 471.545 34.1816C471.349 34.1816 471.158 34.2611 471.021 34.3991C470.882 34.5384 470.803 34.727 470.803 34.9238C470.803 35.1189 470.882 35.3104 471.021 35.4484C471.159 35.5865 471.349 35.6659 471.545 35.6659C471.74 35.6659 471.932 35.5865 472.07 35.4484C472.208 35.3104 472.287 35.1189 472.287 34.9238C472.287 34.7286 472.208 34.5371 472.07 34.3991ZM469.478 34.3991C469.338 34.2604 469.149 34.1823 468.952 34.1816C468.757 34.1816 468.565 34.2611 468.427 34.3991C468.289 34.5386 468.211 34.7271 468.21 34.9238C468.21 35.1197 468.289 35.3104 468.427 35.4484C468.566 35.5865 468.757 35.6659 468.952 35.6659C469.147 35.6659 469.339 35.5865 469.478 35.4484C469.616 35.3104 469.694 35.1189 469.694 34.9238C469.694 34.7286 469.616 34.5371 469.478 34.3991ZM466.293 40.1188H460.542C460.132 40.1188 459.8 40.4511 459.8 40.861C459.8 41.2708 460.132 41.6031 460.542 41.6031H466.293C466.703 41.6031 467.035 41.2708 467.035 40.861C467.035 40.4511 466.703 40.1188 466.293 40.1188ZM472.07 40.3362C471.93 40.1975 471.742 40.1194 471.545 40.1187C471.349 40.1187 471.158 40.1981 471.021 40.3362C470.882 40.4754 470.803 40.6641 470.803 40.8608C470.803 41.0567 470.882 41.2475 471.021 41.3855C471.159 41.5235 471.349 41.6029 471.545 41.6029C471.74 41.6029 471.932 41.5235 472.07 41.3855C472.208 41.2474 472.287 41.0559 472.287 40.8608C472.287 40.6657 472.208 40.4742 472.07 40.3362ZM469.478 40.3362C469.338 40.1975 469.149 40.1194 468.952 40.1187C468.757 40.1187 468.565 40.1981 468.427 40.3362C468.289 40.4742 468.21 40.6657 468.21 40.8608C468.21 41.0559 468.289 41.2475 468.427 41.3855C468.566 41.5235 468.757 41.6029 468.952 41.6029C469.148 41.6029 469.339 41.5235 469.478 41.3855C469.616 41.2474 469.694 41.0559 469.694 40.8608C469.694 40.6657 469.616 40.4742 469.478 40.3362ZM466.293 46.0559H460.542C460.132 46.0559 459.8 46.3882 459.8 46.798C459.8 47.2078 460.132 47.5401 460.542 47.5401H466.293C466.703 47.5401 467.035 47.2078 467.035 46.798C467.035 46.3882 466.703 46.0559 466.293 46.0559ZM472.07 46.2732C471.93 46.1347 471.742 46.0566 471.545 46.0557C471.349 46.0557 471.158 46.1352 471.02 46.2732C470.882 46.4113 470.803 46.6027 470.803 46.7979C470.803 46.993 470.882 47.1845 471.02 47.3225C471.159 47.4606 471.349 47.54 471.545 47.54C471.74 47.54 471.932 47.4606 472.07 47.3225C472.208 47.1845 472.287 46.993 472.287 46.7979C472.287 46.6027 472.208 46.4113 472.07 46.2732ZM469.477 46.2732C469.337 46.1344 469.149 46.0563 468.952 46.0557C468.757 46.0557 468.565 46.1352 468.427 46.2732C468.289 46.4113 468.21 46.6027 468.21 46.7979C468.21 46.993 468.289 47.1845 468.427 47.3225C468.566 47.4606 468.757 47.54 468.952 47.54C469.148 47.54 469.339 47.4606 469.477 47.3225C469.616 47.1845 469.694 46.993 469.694 46.7979C469.694 46.6027 469.616 46.4113 469.477 46.2732Z" fill="#4F45E2"/>
<path d="M475.657 40.967C475.657 39.7544 475.072 38.676 474.17 37.9985C475.072 37.321 475.657 36.2426 475.657 35.03C475.657 32.9839 473.993 31.3193 471.946 31.3193H460.072C458.026 31.3193 456.362 32.9839 456.362 35.03C456.362 36.2426 456.946 37.321 457.849 37.9985C456.946 38.676 456.362 39.7544 456.362 40.967C456.362 42.1796 456.946 43.258 457.849 43.9356C456.946 44.6131 456.362 45.6915 456.362 46.9041C456.362 48.9501 458.026 50.6147 460.072 50.6147H465.258V52.6748C464.394 52.9812 463.774 53.8061 463.774 54.7736C463.774 56.0012 464.772 57 466 57C467.228 57 468.226 56.0012 468.226 54.7736C468.226 53.8061 467.606 52.9812 466.742 52.6748V50.6147H471.947C473.993 50.6147 475.657 48.9501 475.657 46.9041C475.657 45.6915 475.073 44.6131 474.17 43.9356C475.072 43.258 475.657 42.1796 475.657 40.967ZM457.846 35.0301C457.846 33.8024 458.845 32.8036 460.072 32.8036H471.946C473.174 32.8036 474.173 33.8024 474.173 35.0301C474.173 36.2577 473.174 37.2565 471.946 37.2565H460.072C458.845 37.2564 457.846 36.2576 457.846 35.0301ZM466 55.5158C465.591 55.5158 465.258 55.1828 465.258 54.7736C465.258 54.3644 465.591 54.0315 466 54.0315C466.409 54.0315 466.742 54.3645 466.742 54.7736C466.742 55.1828 466.409 55.5158 466 55.5158ZM474.173 46.9041C474.173 48.1317 473.174 49.1305 471.946 49.1305H460.072C458.845 49.1305 457.846 48.1317 457.846 46.9041C457.846 45.6764 458.845 44.6777 460.072 44.6777H471.946C473.174 44.6777 474.173 45.6765 474.173 46.9041ZM471.946 43.1934H460.072C458.845 43.1934 457.846 42.1947 457.846 40.967C457.846 39.7394 458.845 38.7406 460.072 38.7406H471.946C473.174 38.7406 474.173 39.7394 474.173 40.967C474.173 42.1947 473.174 43.1934 471.946 43.1934Z" fill="#4F45E2"/>
<path d="M483.405 30.4917C482.452 29.1084 481.151 28.0274 479.627 27.349C477.759 22.3414 472.966 19 467.596 19C464.471 19 461.459 20.1361 459.116 22.1988C456.974 24.0848 455.526 26.6191 454.99 29.3962C454.875 29.391 454.76 29.3884 454.645 29.3884C450.43 29.3884 447.001 32.8175 447.001 37.0323C447.001 38.8665 447.661 40.6403 448.858 42.0267C450.043 43.3985 451.677 44.307 453.46 44.5848C453.498 44.5908 453.537 44.5937 453.575 44.5937C453.934 44.5937 454.25 44.332 454.307 43.9659C454.37 43.5608 454.093 43.1814 453.688 43.1183C450.674 42.6484 448.486 40.089 448.486 37.0324C448.486 33.6359 451.249 30.8727 454.645 30.8727C454.931 30.8727 455.221 30.893 455.507 30.933C455.604 30.9466 455.703 30.9409 455.797 30.9162C455.892 30.8916 455.98 30.8485 456.058 30.7895C456.136 30.7305 456.202 30.6567 456.251 30.5723C456.3 30.488 456.332 30.3947 456.345 30.2979C457.104 24.7032 461.941 20.4843 467.596 20.4843C472.445 20.4843 476.761 23.5636 478.336 28.1468C478.371 28.2476 478.427 28.3397 478.5 28.4169C478.573 28.4942 478.663 28.5547 478.762 28.5943C481.649 29.7528 483.514 32.5114 483.514 35.6223C483.514 39.2028 480.973 42.3216 477.471 43.0382C477.069 43.1204 476.81 43.5125 476.893 43.914C476.975 44.3156 477.367 44.5744 477.768 44.4923C481.958 43.6351 484.999 39.9047 484.999 35.6223C484.999 33.7787 484.448 32.0045 483.405 30.4917Z" fill="#4F45E2"/>
</g>
</g>
<defs>
<filter id="filter0_d_13_59924" x="0" y="0" width="508" height="323" filterUnits="userSpaceOnUse" color-interpolation-filters="sRGB">
<feFlood flood-opacity="0" result="BackgroundImageFix"/>
<feColorMatrix in="SourceAlpha" type="matrix" values="0 0 0 0 0 0 0 0 0 0 0 0 0 0 0 0 0 0 127 0" result="hardAlpha"/>
<feOffset dy="4"/>
<feGaussianBlur stdDeviation="2"/>
<feComposite in2="hardAlpha" operator="out"/>
<feColorMatrix type="matrix" values="0 0 0 0 0 0 0 0 0 0 0 0 0 0 0 0 0 0 0.25 0"/>
<feBlend mode="normal" in2="BackgroundImageFix" result="effect1_dropShadow_13_59924"/>
<feBlend mode="normal" in="SourceGraphic" in2="effect1_dropShadow_13_59924" result="shape"/>
</filter>
<linearGradient id="paint0_linear_13_59924" x1="295.382" y1="139.602" x2="253.584" y2="139.602" gradientUnits="userSpaceOnUse">
<stop stop-color="#9C9D9F"/>
<stop offset="1" stop-color="#C6C7C9"/>
</linearGradient>
<linearGradient id="paint1_linear_13_59924" x1="285.819" y1="121.043" x2="231.799" y2="121.043" gradientUnits="userSpaceOnUse">
<stop stop-color="#9C9D9F"/>
<stop offset="1" stop-color="#C6C7C9"/>
</linearGradient>
<clipPath id="clip0_13_59924">
<rect width="38" height="38" fill="white" transform="translate(23 253)"/>
</clipPath>
<clipPath id="clip1_13_59924">
<rect width="38" height="38" fill="white" transform="translate(447 19)"/>
</clipPath>
</defs>
</svg>
