<svg width="507" height="315" viewBox="0 0 507 315" fill="none" xmlns="http://www.w3.org/2000/svg">
<g filter="url(#filter0_d_13_59924)">
<circle cx="254" cy="155" r="79" fill="#4F45E2"/>
<g clip-path="url(#clip0_13_59924)">
<path d="M246.555 159.64L245.628 157.283H239.828L238.922 159.64H235.296L241.117 145.944H244.38L250.18 159.64H246.555ZM240.936 154.443H244.521L242.728 149.831L240.936 154.443ZM260.606 145.944H263.99V159.64H260.606V154.504H255.028V159.64H251.624V145.944H255.028V151.442H260.606V145.944ZM275.8 145.944H279.566L274.168 155.511V159.64H270.745V155.511L265.327 145.944H269.093L272.436 151.906L275.8 145.944ZM284.294 156.598H291.061V159.64H280.89V145.944H284.294V156.598ZM292.671 145.944H296.075V159.64H292.671V145.944ZM303.206 156.639H309.832V159.64H297.97V158.028L304.757 148.945H298.312V145.944H309.711V147.555L303.206 156.639Z" fill="white"/>
<path d="M238.818 167.674L238.963 168.837C238.562 169.005 238.145 169.029 237.92 169.029C236.861 169.029 236.22 168.34 236.22 167.289V166.15H235.458V165.035H236.22V163.711H237.519V165.035H238.842V166.15H237.519V167.249C237.519 167.65 237.752 167.834 238.129 167.834C238.377 167.834 238.586 167.762 238.818 167.674ZM241.33 164.931C242.702 164.931 243.528 165.909 243.335 167.289H240.52C240.608 167.69 240.873 168.003 241.402 168.003C241.691 168.003 241.859 167.939 241.98 167.794H243.295C243.063 168.556 242.341 169.029 241.426 169.029C240.151 169.029 239.301 168.163 239.301 166.976C239.301 165.797 240.127 164.931 241.33 164.931ZM241.362 165.893C240.905 165.893 240.64 166.15 240.536 166.543H242.156C242.084 166.094 241.803 165.893 241.362 165.893ZM246.032 167.931C246.425 167.931 246.73 167.682 246.794 167.329H248.022C247.925 168.332 247.099 169.029 246.024 169.029C244.805 169.029 243.899 168.163 243.899 166.976C243.899 165.797 244.805 164.931 246.024 164.931C247.099 164.931 247.925 165.628 248.022 166.631H246.794C246.73 166.278 246.425 166.03 246.032 166.03C245.471 166.03 245.142 166.447 245.142 166.976C245.142 167.505 245.471 167.931 246.032 167.931ZM251.079 164.931C252.057 164.931 252.731 165.596 252.731 166.703V168.925H251.432V166.912C251.432 166.358 251.151 166.11 250.718 166.11C250.485 166.11 250.237 166.23 250.012 166.479V168.925H248.705V163.23H250.012V165.292C250.325 165.059 250.662 164.931 251.079 164.931ZM255.943 164.931C256.922 164.931 257.596 165.596 257.596 166.703V168.925H256.296V166.912C256.296 166.358 256.015 166.11 255.582 166.11C255.35 166.11 255.101 166.23 254.876 166.479V168.925H253.569V165.035H254.876V165.292C255.189 165.059 255.526 164.931 255.943 164.931ZM260.399 164.931C261.65 164.931 262.532 165.789 262.532 166.984C262.532 168.187 261.65 169.029 260.399 169.029C259.147 169.029 258.257 168.187 258.257 166.984C258.257 165.789 259.147 164.931 260.399 164.931ZM260.399 167.947C260.936 167.947 261.313 167.554 261.313 166.984C261.313 166.423 260.936 166.022 260.399 166.022C259.853 166.022 259.476 166.423 259.476 166.984C259.476 167.554 259.853 167.947 260.399 167.947ZM263.212 163.23H264.519V168.925H263.212V163.23ZM267.339 164.931C268.59 164.931 269.472 165.789 269.472 166.984C269.472 168.187 268.59 169.029 267.339 169.029C266.088 169.029 265.197 168.187 265.197 166.984C265.197 165.789 266.088 164.931 267.339 164.931ZM267.339 167.947C267.876 167.947 268.253 167.554 268.253 166.984C268.253 166.423 267.876 166.022 267.339 166.022C266.793 166.022 266.416 166.423 266.416 166.984C266.416 167.554 266.793 167.947 267.339 167.947ZM272.936 165.035H274.236V168.949C274.236 170.168 273.369 170.874 272.15 170.874C270.971 170.874 270.113 170.201 270.049 169.19H271.332C271.396 169.551 271.669 169.775 272.15 169.775C272.591 169.775 272.936 169.503 272.936 168.973V168.508C272.647 168.685 272.302 168.789 271.869 168.789C270.819 168.789 269.936 167.963 269.936 166.912C269.936 165.725 270.819 164.931 271.869 164.931C272.302 164.931 272.647 165.043 272.936 165.227V165.035ZM272.134 167.754C272.415 167.754 272.688 167.666 272.936 167.385V166.358C272.688 166.078 272.415 165.997 272.134 165.997C271.605 165.997 271.212 166.35 271.212 166.912C271.212 167.337 271.605 167.754 272.134 167.754ZM275.88 164.425C275.455 164.425 275.118 164.112 275.118 163.695C275.118 163.27 275.455 162.957 275.88 162.957C276.297 162.957 276.642 163.27 276.642 163.695C276.642 164.112 276.297 164.425 275.88 164.425ZM275.238 165.035H276.538V168.925H275.238V165.035ZM279.36 164.931C280.732 164.931 281.558 165.909 281.365 167.289H278.55C278.638 167.69 278.903 168.003 279.432 168.003C279.721 168.003 279.89 167.939 280.01 167.794H281.325C281.093 168.556 280.371 169.029 279.456 169.029C278.181 169.029 277.331 168.163 277.331 166.976C277.331 165.797 278.157 164.931 279.36 164.931ZM279.392 165.893C278.935 165.893 278.67 166.15 278.566 166.543H280.186C280.114 166.094 279.833 165.893 279.392 165.893ZM282.972 167.594C283.028 167.931 283.333 168.075 283.742 168.075C284.087 168.075 284.304 167.979 284.304 167.81C284.304 167.674 284.151 167.578 283.895 167.538L283.109 167.401C282.443 167.289 281.97 166.912 281.97 166.23C281.97 165.412 282.667 164.931 283.702 164.931C284.625 164.931 285.459 165.243 285.515 166.27H284.368C284.344 165.981 284.063 165.853 283.702 165.853C283.365 165.853 283.213 165.973 283.213 166.118C283.213 166.254 283.309 166.374 283.622 166.431L284.344 166.551C285.066 166.687 285.555 167.04 285.555 167.73C285.555 168.628 284.753 169.029 283.734 169.029C282.732 169.029 281.905 168.62 281.817 167.586L282.972 167.594Z" fill="white"/>
<path fill-rule="evenodd" clip-rule="evenodd" d="M213.162 162.645L216.205 167.585H210.393L213.162 162.645Z" fill="white"/>
<path fill-rule="evenodd" clip-rule="evenodd" d="M236.381 150.497L240.936 143.551H235.452C235.588 143.782 235.719 144.016 235.846 144.253C235.688 144.015 235.525 143.781 235.356 143.551H217.74L220.664 150.497H223.271V156.688L230.91 174.831H231.045V150.497H236.381Z" fill="white"/>
<path fill-rule="evenodd" clip-rule="evenodd" d="M201.174 163.132L206.14 170.474L213.209 152.658L213.246 152.75L213.299 152.613L217.317 162.931L217.347 163.009L222.148 175.015H230.273L217.025 143.551H209.619L201.174 163.132Z" fill="white"/>
<path fill-rule="evenodd" clip-rule="evenodd" d="M205.311 140.802L205.503 138.069C201.29 141.695 198.623 147.067 198.623 153.061C198.623 157.109 199.839 160.873 201.926 164.007C200.444 161.233 199.603 158.065 199.603 154.7C199.603 149.282 201.782 144.373 205.311 140.802Z" fill="white"/>
<path fill-rule="evenodd" clip-rule="evenodd" d="M205.973 138.098L205.868 140.682C209.452 137.055 213.342 135.425 219.376 135.425C225.41 135.425 231.76 138.626 235.356 143.551C235.525 143.781 235.688 144.015 235.846 144.253C235.719 144.016 235.588 143.782 235.452 143.551C229.618 133.63 215.012 130.318 205.973 138.098Z" fill="white"/>
</g>
<circle cx="254" cy="155" r="130" stroke="#4F45E2" stroke-width="2" stroke-dasharray="2 2"/>
<path d="M191.504 191.508C190.022 188.963 186.757 188.1 184.211 189.582C181.666 191.064 180.803 194.329 182.285 196.875C183.767 199.42 187.032 200.283 189.578 198.801C192.123 197.319 192.986 194.054 191.504 191.508ZM186.391 193.327L184.706 194.309L185.712 196.037L187.398 195.056L186.391 193.327ZM181.334 196.271L177.962 198.234L178.968 199.963L182.34 198L181.334 196.271ZM174.59 200.197L171.219 202.16L172.225 203.888L175.597 201.925L174.59 200.197ZM167.847 204.122L164.475 206.085L165.482 207.814L168.853 205.851L167.847 204.122ZM161.104 208.048L157.732 210.011L158.738 211.739L162.11 209.776L161.104 208.048ZM154.36 211.973L150.989 213.936L151.995 215.665L155.366 213.702L154.36 211.973ZM147.617 215.899L144.245 217.862L145.251 219.59L148.623 217.627L147.617 215.899ZM140.873 219.824L137.502 221.787L138.508 223.516L141.88 221.553L140.873 219.824ZM134.13 223.75L130.758 225.713L131.765 227.441L135.136 225.478L134.13 223.75ZM127.387 227.675L124.015 229.638L125.021 231.367L128.393 229.404L127.387 227.675ZM120.643 231.601L117.272 233.564L118.278 235.292L121.649 233.329L120.643 231.601ZM113.9 235.526L110.528 237.489L111.534 239.218L114.906 237.255L113.9 235.526ZM107.156 239.452L103.785 241.415L104.791 243.143L108.163 241.18L107.156 239.452ZM100.413 243.377L97.0413 245.34L98.0475 247.069L101.419 245.106L100.413 243.377ZM93.6696 247.303L90.2979 249.266L91.3041 250.994L94.6758 249.031L93.6696 247.303ZM86.9262 251.228L83.5545 253.191L84.5607 254.92L87.9324 252.957L86.9262 251.228ZM80.1828 255.154L78.4969 256.135L79.5031 257.864L81.189 256.882L80.1828 255.154Z" fill="#4F45E2"/>
<path d="M317.391 191.317C318.873 188.771 322.138 187.909 324.683 189.391C327.229 190.873 328.091 194.138 326.609 196.683C325.127 199.229 321.862 200.091 319.317 198.609C316.771 197.127 315.909 193.862 317.391 191.317ZM322.503 193.136L324.189 194.117L323.183 195.846L321.497 194.864L322.503 193.136ZM327.561 196.08L330.932 198.043L329.926 199.771L326.554 197.808L327.561 196.08ZM334.304 200.005L337.676 201.968L336.67 203.697L333.298 201.734L334.304 200.005ZM341.047 203.931L344.419 205.894L343.413 207.622L340.041 205.659L341.047 203.931ZM347.791 207.856L351.163 209.819L350.156 211.548L346.785 209.585L347.791 207.856ZM354.534 211.782L357.906 213.745L356.9 215.473L353.528 213.51L354.534 211.782ZM361.278 215.707L364.649 217.67L363.643 219.399L360.272 217.436L361.278 215.707ZM368.021 219.633L371.393 221.596L370.387 223.324L367.015 221.361L368.021 219.633ZM374.764 223.558L378.136 225.521L377.13 227.25L373.758 225.287L374.764 223.558ZM381.508 227.484L384.88 229.447L383.873 231.175L380.502 229.212L381.508 227.484ZM388.251 231.409L391.623 233.372L390.617 235.101L387.245 233.138L388.251 231.409ZM394.995 235.335L398.366 237.298L397.36 239.026L393.989 237.063L394.995 235.335ZM401.738 239.26L405.11 241.223L404.104 242.952L400.732 240.989L401.738 239.26ZM408.482 243.186L411.853 245.149L410.847 246.877L407.475 244.914L408.482 243.186ZM415.225 247.111L418.597 249.074L417.59 250.803L414.219 248.84L415.225 247.111ZM421.968 251.037L425.34 253L424.334 254.728L420.962 252.765L421.968 251.037ZM428.712 254.962L430.398 255.944L429.391 257.672L427.706 256.691L428.712 254.962Z" fill="#4F45E2"/>
<circle cx="42" cy="272" r="38" fill="#F4F9FF"/>
<g clip-path="url(#clip1_13_59924)">
<path d="M39.9219 267.25H23.5938C23.2375 267.25 23 266.953 23 266.656V262.856C23 261.194 24.3656 259.769 26.0875 259.769H41.9406C42.2969 259.769 42.5344 260.066 42.5344 260.363C42.5344 260.659 42.2375 260.956 41.9406 260.956H26.0281C25.0187 260.956 24.1875 261.788 24.1875 262.797V266.003H39.9219C40.2781 266.003 40.5156 266.3 40.5156 266.597C40.5156 266.894 40.2781 267.25 39.9219 267.25Z" fill="#4F45E2"/>
<path d="M26.0281 289.219C25.1969 289.219 24.425 288.922 23.8906 288.328C23.2969 287.734 23 286.963 23 286.131V266.597C23 266.241 23.2969 266.003 23.5938 266.003H39.9219C40.2781 266.003 40.5156 266.3 40.5156 266.597C40.5156 266.894 40.2188 267.191 39.9219 267.191H24.1875V286.072C24.1875 286.547 24.3656 287.022 24.7219 287.378C25.0781 287.734 25.5531 287.913 26.0281 287.913H53.875C54.8844 287.913 55.7156 287.081 55.7156 286.072V274.197C55.7156 273.841 56.0125 273.603 56.3094 273.603C56.6063 273.603 56.9031 273.9 56.9031 274.197V286.072C56.9031 287.734 55.5375 289.159 53.8156 289.159H26.0281V289.219ZM28.3438 264.103H27.0375C26.6813 264.103 26.4438 263.806 26.4438 263.509C26.4438 263.213 26.7406 262.916 27.0375 262.916H28.3438C28.7 262.916 28.9375 263.213 28.9375 263.509C28.9375 263.806 28.7 264.103 28.3438 264.103ZM31.2531 264.103H29.9469C29.5906 264.103 29.3531 263.806 29.3531 263.509C29.3531 263.213 29.65 262.916 29.9469 262.916H31.2531C31.6094 262.916 31.8469 263.213 31.8469 263.509C31.8469 263.806 31.6094 264.103 31.2531 264.103ZM34.1625 264.103H32.8562C32.5 264.103 32.2625 263.806 32.2625 263.509C32.2625 263.213 32.5594 262.916 32.8562 262.916H34.1625C34.5187 262.916 34.7562 263.213 34.7562 263.509C34.7562 263.806 34.5187 264.103 34.1625 264.103Z" fill="#4F45E2"/>
<path d="M37.6062 277.997H28.9375C27.9281 277.997 27.0969 277.166 27.0969 276.156V270.991C27.0969 269.981 27.9281 269.15 28.9375 269.15H37.6062C38.6156 269.15 39.4469 269.981 39.4469 270.991V276.156C39.4469 277.166 38.6156 277.997 37.6062 277.997ZM37.6062 270.338H28.9375C28.5812 270.338 28.3437 270.634 28.3437 270.931V276.156C28.3437 276.513 28.6406 276.75 28.9375 276.75H37.6062C37.9625 276.75 38.2 276.453 38.2 276.156V270.991C38.2 270.634 37.9031 270.338 37.6062 270.338ZM43.8406 274.316H43.1875C42.8312 274.316 42.5937 274.019 42.5937 273.722C42.5937 273.425 42.8906 273.128 43.1875 273.128H43.8406C44.1969 273.128 44.4344 273.425 44.4344 273.722C44.4344 274.019 44.1375 274.316 43.8406 274.316ZM52.5687 278.234H43.1875C42.8312 278.234 42.5937 277.938 42.5937 277.641C42.5937 277.344 42.8906 277.047 43.1875 277.047H52.5687C52.925 277.047 53.1625 277.344 53.1625 277.641C53.1625 277.938 52.8656 278.234 52.5687 278.234ZM52.5687 282.153H27.3937C27.0375 282.153 26.8 281.856 26.8 281.559C26.8 281.262 27.0969 280.966 27.3937 280.966H52.5687C52.925 280.966 53.1625 281.262 53.1625 281.559C53.1625 281.856 52.8656 282.153 52.5687 282.153ZM52.5687 286.072H27.3937C27.0375 286.072 26.8 285.775 26.8 285.478C26.8 285.181 27.0969 284.884 27.3937 284.884H52.5687C52.925 284.884 53.1625 285.181 53.1625 285.478C53.1625 285.775 52.8656 286.072 52.5687 286.072ZM51.7375 274.553H50.7875C50.0156 274.553 49.3625 273.959 49.2437 273.247L49.0062 271.763C49.0062 271.644 48.8875 271.584 48.8281 271.525C48.5906 271.466 48.4125 271.347 48.175 271.288C48.0562 271.228 47.9969 271.228 47.8781 271.288L46.6906 272.178C46.0969 272.594 45.2062 272.534 44.6719 272L43.9594 271.288C43.425 270.753 43.3656 269.922 43.7812 269.269L44.6719 268.081C44.7312 267.962 44.7312 267.844 44.6719 267.784C44.5531 267.606 44.4937 267.369 44.375 267.131C44.3156 267.012 44.2562 266.953 44.1375 266.953L42.7125 266.716C41.9406 266.597 41.4062 265.944 41.4062 265.172V264.162C41.4062 263.391 41.9406 262.738 42.7125 262.619L44.1375 262.381C44.2562 262.381 44.3156 262.262 44.375 262.203C44.4344 261.966 44.5531 261.787 44.6719 261.55C44.7312 261.431 44.7312 261.312 44.6719 261.253L43.7812 260.066C43.3062 259.472 43.425 258.641 43.9 258.047L44.6125 257.334C45.1469 256.8 46.0375 256.741 46.6312 257.216L47.7594 258.106C47.8781 258.225 47.9969 258.166 48.0562 258.106C48.2937 257.988 48.4719 257.928 48.7094 257.809C48.8281 257.75 48.8875 257.691 48.9469 257.572L49.1844 256.087C49.3625 255.375 50.0156 254.781 50.7875 254.781H51.7375C52.5094 254.781 53.1625 255.375 53.2812 256.087L53.5187 257.572C53.5187 257.691 53.6375 257.75 53.6969 257.809C53.9344 257.869 54.1125 257.987 54.35 258.047C54.4687 258.106 54.5281 258.106 54.6469 258.047L55.8344 257.156C56.4281 256.681 57.3187 256.8 57.8531 257.334L58.5656 258.047C59.1 258.581 59.1594 259.412 58.7437 260.066L57.8531 261.253C57.7937 261.372 57.7937 261.491 57.8531 261.55C57.9719 261.728 58.0312 261.966 58.15 262.203C58.2094 262.322 58.2687 262.381 58.3875 262.381L59.8125 262.619C60.5844 262.738 61.1187 263.391 61.1187 264.162V265.172C61.1187 265.944 60.5844 266.597 59.8125 266.716L58.3875 266.953C58.2687 266.953 58.2094 267.072 58.15 267.131C58.0906 267.369 57.9719 267.547 57.9125 267.784C57.8531 267.903 57.8531 268.022 57.9125 268.141L58.8031 269.328C59.2187 269.922 59.1594 270.753 58.6844 271.347L57.7937 272C57.2594 272.534 56.3687 272.594 55.775 272.119L54.6469 271.228C54.5281 271.109 54.4094 271.169 54.35 271.228C54.1125 271.347 53.9344 271.406 53.6969 271.525C53.5781 271.584 53.5187 271.644 53.5187 271.763L53.2812 273.247C53.1625 273.959 52.5094 274.553 51.7375 274.553ZM47.9969 269.981C48.2344 269.981 48.4719 270.041 48.65 270.159C48.8281 270.219 49.0062 270.337 49.1844 270.397C49.7187 270.575 50.075 271.05 50.1937 271.584L50.4312 273.069C50.4312 273.247 50.6094 273.366 50.7281 273.366H51.6781C51.8562 273.366 51.975 273.247 51.975 273.128L52.2125 271.644C52.2719 271.109 52.6875 270.634 53.2219 270.456C53.4 270.397 53.5781 270.337 53.7562 270.219C54.2312 269.981 54.8844 270.041 55.3594 270.397L56.5469 271.288C56.725 271.406 56.8437 271.347 56.9625 271.228L57.675 270.516C57.7937 270.397 57.7937 270.219 57.675 270.1L56.7844 268.912C56.4281 268.438 56.3687 267.844 56.6062 267.369C56.6656 267.191 56.7844 267.012 56.8437 266.834C57.0219 266.3 57.4969 265.884 58.0312 265.825L59.4562 265.588C59.6344 265.588 59.6937 265.409 59.6937 265.291V264.281C59.6937 264.103 59.575 263.984 59.4562 263.984L58.0312 263.747C57.4969 263.688 57.0219 263.272 56.8437 262.737C56.7844 262.559 56.725 262.381 56.6062 262.203C56.3687 261.669 56.4281 261.075 56.725 260.6L57.6156 259.412C57.7344 259.294 57.675 259.116 57.6156 258.997L56.9031 258.284C56.8437 258.225 56.725 258.166 56.6656 258.166C56.6062 258.166 56.5469 258.166 56.4875 258.225L55.3594 259.116C54.9437 259.472 54.2906 259.531 53.7562 259.294C53.5781 259.234 53.4 259.116 53.2219 259.056C52.6875 258.878 52.3312 258.403 52.2125 257.869L51.975 256.384C51.975 256.206 51.7969 256.087 51.6781 256.087H50.7281C50.55 256.087 50.4312 256.206 50.4312 256.325L50.2531 257.75C50.1937 258.284 49.7781 258.759 49.2437 258.938C49.0656 258.997 48.8875 259.056 48.7094 259.175C48.2344 259.412 47.5812 259.353 47.1062 258.997L45.9187 258.106C45.7406 257.928 45.6219 258.047 45.5031 258.166L44.7906 258.878C44.6719 258.997 44.6719 259.175 44.7906 259.294L45.6812 260.481C45.9781 260.956 46.0375 261.55 45.8 262.025C45.7406 262.203 45.6219 262.381 45.5625 262.559C45.3844 263.094 44.9094 263.509 44.375 263.569L42.95 263.806C42.7719 263.806 42.7125 263.984 42.7125 264.103V265.113C42.7125 265.291 42.8312 265.409 42.95 265.409L44.375 265.647C44.9094 265.706 45.3844 266.122 45.5625 266.656C45.6219 266.834 45.6812 267.012 45.8 267.191C46.0375 267.725 45.9781 268.319 45.6219 268.794L44.7312 269.981C44.6125 270.1 44.6719 270.278 44.7312 270.397L45.4437 271.109C45.5625 271.228 45.6812 271.288 45.8594 271.169L47.0469 270.278C47.3437 270.1 47.7 269.981 47.9969 269.981Z" fill="#4F45E2"/>
<path d="M51.2625 268.616C50.7401 268.616 50.2228 268.513 49.7401 268.313C49.2575 268.113 48.8189 267.82 48.4495 267.451C48.0801 267.081 47.7871 266.643 47.5872 266.16C47.3873 265.677 47.2844 265.16 47.2844 264.638C47.2844 264.115 47.3873 263.598 47.5872 263.115C47.7871 262.633 48.0801 262.194 48.4495 261.825C48.8189 261.455 49.2575 261.162 49.7401 260.962C50.2228 260.762 50.7401 260.659 51.2625 260.659C52.3176 260.659 53.3294 261.079 54.0755 261.825C54.8215 262.571 55.2406 263.582 55.2406 264.638C55.2406 265.693 54.8215 266.704 54.0755 267.451C53.3294 268.197 52.3176 268.616 51.2625 268.616ZM51.2625 261.906C49.7188 261.906 48.5313 263.153 48.5313 264.638C48.5313 266.181 49.7781 267.369 51.2625 267.369C52.7469 267.369 53.9938 266.122 53.9938 264.638C53.9938 263.153 52.7469 261.906 51.2625 261.906Z" fill="#4F45E2"/>
</g>
<circle cx="465" cy="272" r="38" fill="#F4F9FF"/>
<path d="M448.371 272C448.407 272 448.443 271.997 448.478 271.993C454.294 271.203 459.966 269.583 465.32 267.18C470.728 264.747 475.751 261.539 480.234 257.658L479.269 261.516C479.219 261.72 479.251 261.935 479.359 262.115C479.467 262.295 479.642 262.425 479.845 262.476C479.908 262.491 479.973 262.499 480.037 262.5C480.214 262.499 480.385 262.44 480.524 262.332C480.663 262.223 480.762 262.071 480.804 261.9L482.388 255.566C482.417 255.45 482.419 255.328 482.394 255.21C482.369 255.093 482.318 254.982 482.244 254.888C482.17 254.793 482.075 254.716 481.967 254.663C481.859 254.611 481.741 254.583 481.621 254.583H475.287C475.077 254.583 474.876 254.666 474.728 254.815C474.579 254.963 474.496 255.165 474.496 255.375C474.496 255.585 474.579 255.786 474.728 255.934C474.876 256.083 475.077 256.166 475.287 256.166H479.538C475.086 260.078 470.075 263.304 464.671 265.736C459.455 268.077 453.929 269.655 448.264 270.423C448.065 270.45 447.883 270.552 447.756 270.708C447.629 270.863 447.566 271.061 447.58 271.262C447.594 271.462 447.683 271.65 447.83 271.787C447.976 271.924 448.17 272 448.371 272ZM481.621 287.833H480.829V266.458C480.829 266.248 480.746 266.047 480.597 265.898C480.449 265.75 480.247 265.666 480.037 265.666H472.121C471.911 265.666 471.709 265.75 471.561 265.898C471.412 266.047 471.329 266.248 471.329 266.458V287.833H469.746V271.208C469.746 270.998 469.662 270.797 469.514 270.648C469.365 270.5 469.164 270.416 468.954 270.416H461.037C460.827 270.416 460.626 270.5 460.478 270.648C460.329 270.797 460.246 270.998 460.246 271.208V287.833H458.662V275.958C458.662 275.748 458.579 275.547 458.43 275.398C458.282 275.25 458.081 275.166 457.871 275.166H449.954C449.744 275.166 449.543 275.25 449.394 275.398C449.246 275.547 449.162 275.748 449.162 275.958V287.833H448.371C448.161 287.833 447.959 287.916 447.811 288.065C447.662 288.213 447.579 288.415 447.579 288.625C447.579 288.835 447.662 289.036 447.811 289.184C447.959 289.333 448.161 289.416 448.371 289.416H481.621C481.831 289.416 482.032 289.333 482.18 289.184C482.329 289.036 482.412 288.835 482.412 288.625C482.412 288.415 482.329 288.213 482.18 288.065C482.032 287.916 481.831 287.833 481.621 287.833ZM472.912 267.25H479.246V287.833H472.912V267.25ZM461.829 272H468.162V287.833H461.829V272ZM450.746 276.75H457.079V287.833H450.746V276.75Z" fill="#4F45E2"/>
<path d="M191.504 118.492C190.022 121.037 186.757 121.9 184.211 120.418C181.666 118.936 180.803 115.671 182.285 113.125C183.767 110.58 187.032 109.717 189.578 111.199C192.123 112.681 192.986 115.946 191.504 118.492ZM186.391 116.673L184.706 115.691L185.712 113.963L187.398 114.944L186.391 116.673ZM181.334 113.729L177.962 111.766L178.968 110.037L182.34 112L181.334 113.729ZM174.59 109.803L171.219 107.84L172.225 106.112L175.597 108.075L174.59 109.803ZM167.847 105.878L164.475 103.915L165.482 102.186L168.853 104.149L167.847 105.878ZM161.104 101.952L157.732 99.9894L158.738 98.261L162.11 100.224L161.104 101.952ZM154.36 98.0267L150.989 96.0639L151.995 94.3354L155.366 96.2982L154.36 98.0267ZM147.617 94.1012L144.245 92.1384L145.251 90.4099L148.623 92.3727L147.617 94.1012ZM140.873 90.1757L137.502 88.2129L138.508 86.4844L141.88 88.4472L140.873 90.1757ZM134.13 86.2502L130.758 84.2874L131.765 82.5589L135.136 84.5217L134.13 86.2502ZM127.387 82.3246L124.015 80.3619L125.021 78.6334L128.393 80.5962L127.387 82.3246ZM120.643 78.3991L117.272 76.4364L118.278 74.7079L121.649 76.6707L120.643 78.3991ZM113.9 74.4736L110.528 72.5109L111.534 70.7824L114.906 72.7452L113.9 74.4736ZM107.156 70.5481L103.785 68.5854L104.791 66.8569L108.163 68.8197L107.156 70.5481ZM100.413 66.6226L97.0413 64.6599L98.0475 62.9314L101.419 64.8942L100.413 66.6226ZM93.6696 62.6971L90.2979 60.7344L91.3041 59.0059L94.6758 60.9686L93.6696 62.6971ZM86.9262 58.7716L83.5545 56.8089L84.5607 55.0804L87.9324 57.0431L86.9262 58.7716ZM80.1828 54.8461L78.4969 53.8647L79.5031 52.1363L81.189 53.1176L80.1828 54.8461Z" fill="#4F45E2"/>
<path d="M317.391 118.683C318.873 121.229 322.138 122.091 324.683 120.609C327.229 119.127 328.091 115.862 326.609 113.317C325.127 110.771 321.862 109.909 319.317 111.391C316.771 112.873 315.909 116.138 317.391 118.683ZM322.503 116.864L324.189 115.883L323.183 114.154L321.497 115.136L322.503 116.864ZM327.561 113.92L330.932 111.957L329.926 110.229L326.554 112.192L327.561 113.92ZM334.304 109.995L337.676 108.032L336.67 106.303L333.298 108.266L334.304 109.995ZM341.047 106.069L344.419 104.106L343.413 102.378L340.041 104.341L341.047 106.069ZM347.791 102.144L351.163 100.181L350.156 98.4524L346.785 100.415L347.791 102.144ZM354.534 98.2181L357.906 96.2553L356.9 94.5269L353.528 96.4896L354.534 98.2181ZM361.278 94.2926L364.649 92.3298L363.643 90.6014L360.272 92.5641L361.278 94.2926ZM368.021 90.3671L371.393 88.4043L370.387 86.6758L367.015 88.6386L368.021 90.3671ZM374.764 86.4416L378.136 84.4788L377.13 82.7503L373.758 84.7131L374.764 86.4416ZM381.508 82.516L384.88 80.5533L383.873 78.8248L380.502 80.7876L381.508 82.516ZM388.251 78.5905L391.623 76.6278L390.617 74.8993L387.245 76.8621L388.251 78.5905ZM394.995 74.665L398.366 72.7023L397.36 70.9738L393.989 72.9366L394.995 74.665ZM401.738 70.7395L405.11 68.7768L404.104 67.0483L400.732 69.0111L401.738 70.7395ZM408.482 66.814L411.853 64.8513L410.847 63.1228L407.475 65.0856L408.482 66.814ZM415.225 62.8885L418.597 60.9258L417.59 59.1973L414.219 61.1601L415.225 62.8885ZM421.968 58.963L425.34 57.0003L424.334 55.2718L420.962 57.2345L421.968 58.963ZM428.712 55.0375L430.398 54.0561L429.391 52.3277L427.706 53.309L428.712 55.0375Z" fill="#4F45E2"/>
<circle cx="38" cy="38" r="38" transform="matrix(1 0 0 -1 4 76)" fill="#F4F9FF"/>
<path d="M60.0258 26.2055L59.2892 25.922C59.1733 25.5312 59.0168 25.1537 58.8222 24.7956L59.1427 24.0738C59.1915 23.9641 59.2058 23.8423 59.1839 23.7243C59.162 23.6064 59.1048 23.4978 59.02 23.4129L57.8433 22.2363C57.7585 22.1514 57.6499 22.0943 57.532 22.0724C57.414 22.0504 57.2921 22.0648 57.1825 22.1135L56.4605 22.4341C56.1024 22.2396 55.725 22.0831 55.3343 21.9672L55.0507 21.2305C55.0076 21.1186 54.9316 21.0223 54.8327 20.9543C54.7338 20.8864 54.6166 20.8501 54.4966 20.8501H52.8326C52.7126 20.8501 52.5954 20.8864 52.4965 20.9544C52.3976 21.0223 52.3216 21.1186 52.2785 21.2305L51.9949 21.9672C51.6042 22.0831 51.2267 22.2396 50.8687 22.4341L50.1467 22.1135C50.037 22.0648 49.9152 22.0504 49.7972 22.0724C49.6793 22.0943 49.5707 22.1514 49.4859 22.2363L48.3092 23.4129C48.2243 23.4978 48.1672 23.6063 48.1453 23.7243C48.1233 23.8423 48.1377 23.9641 48.1864 24.0738L48.5069 24.7955C48.3123 25.1537 48.1557 25.5313 48.0398 25.9221L47.3034 26.2056C47.1914 26.2487 47.0951 26.3247 47.0272 26.4236C46.9593 26.5225 46.9229 26.6397 46.9229 26.7597V26.998H29.8767C28.2925 26.998 27.0038 28.2867 27.0038 29.8709V39.8311L26.8175 39.7483C26.7079 39.6996 26.586 39.6853 26.468 39.7072C26.3501 39.7292 26.2415 39.7863 26.1567 39.8712L24.98 41.0478C24.8952 41.1327 24.838 41.2412 24.8161 41.3592C24.7941 41.4772 24.8085 41.599 24.8572 41.7087L25.1777 42.4304C24.9831 42.7886 24.8265 43.1662 24.7107 43.557L23.9742 43.8405C23.8622 43.8835 23.7659 43.9595 23.698 44.0584C23.6301 44.1573 23.5937 44.2745 23.5938 44.3944V46.0585C23.5937 46.1785 23.6301 46.2957 23.698 46.3946C23.7659 46.4935 23.8622 46.5695 23.9742 46.6126L24.7109 46.8962C24.8267 47.2869 24.9832 47.6644 25.1779 48.0224L24.8572 48.7445C24.8085 48.8541 24.7941 48.976 24.8161 49.0939C24.838 49.2119 24.8952 49.3205 24.98 49.4053L26.1567 50.582C26.2415 50.6668 26.3501 50.7239 26.468 50.7459C26.586 50.7678 26.7078 50.7535 26.8175 50.7048L27.5392 50.3843C27.8974 50.5789 28.275 50.7354 28.6659 50.8513L28.9493 51.5878C28.9924 51.6998 29.0684 51.7961 29.1673 51.864C29.2662 51.9319 29.3834 51.9683 29.5034 51.9682H31.1675C31.2875 51.9682 31.4046 51.9319 31.5036 51.864C31.6025 51.7961 31.6785 51.6998 31.7216 51.5878L32.0052 50.8511C32.3959 50.7352 32.7733 50.5787 33.1314 50.3841L33.8534 50.7048C33.963 50.7535 34.0849 50.7679 34.2028 50.746C34.3208 50.7241 34.4294 50.6669 34.5142 50.5821L35.6909 49.4054C35.7757 49.3205 35.8329 49.212 35.8548 49.094C35.8767 48.976 35.8624 48.8542 35.8136 48.7445L35.6709 48.4231H37.1685V50.8567H34.2931C32.894 50.8567 31.7557 51.8196 31.7557 53.0033V54.5562C31.7557 54.7137 31.8182 54.8647 31.9296 54.9761C32.0409 55.0874 32.1919 55.15 32.3494 55.15H52.4926C52.6501 55.15 52.8011 55.0874 52.9124 54.9761C53.0238 54.8647 53.0864 54.7137 53.0864 54.5562V53.0033C53.0864 51.8196 51.9481 50.8567 50.549 50.8567H47.6735V48.4231H54.9653C56.5494 48.4231 57.8381 47.1343 57.8381 45.5502V32.9515C57.8398 32.9499 57.8416 32.9487 57.8432 32.9471L59.0198 31.7704C59.1047 31.6856 59.1618 31.577 59.1838 31.4591C59.2057 31.3411 59.1914 31.2192 59.1427 31.1096L58.8221 30.3879C59.0168 30.0297 59.1733 29.6521 59.2891 29.2612L60.0256 28.9778C60.1376 28.9347 60.2339 28.8587 60.3018 28.7598C60.3697 28.6608 60.406 28.5437 60.406 28.4237V26.7596C60.4061 26.6396 60.3698 26.5225 60.3019 26.4235C60.2341 26.3246 60.1378 26.2486 60.0258 26.2055ZM35.9078 43.3963C35.799 43.0625 35.6601 42.7393 35.493 42.4305L35.8136 41.7086C35.8623 41.5989 35.8766 41.4771 35.8547 41.3591C35.8328 41.2412 35.7757 41.1326 35.6908 41.0478L34.5141 39.8711C34.4293 39.7863 34.3207 39.7292 34.2028 39.7072C34.0848 39.6853 33.963 39.6996 33.8533 39.7483L33.1312 40.069C32.7732 39.8744 32.3957 39.7179 32.005 39.602L31.7214 38.8652C31.6783 38.7532 31.6023 38.657 31.5034 38.589C31.4045 38.5211 31.2873 38.4848 31.1673 38.4848H30.0971V30.0912H48.3574C48.4044 30.1914 48.4543 30.2902 48.5069 30.3875L48.1862 31.1095C48.1375 31.2192 48.1232 31.341 48.1451 31.459C48.167 31.5769 48.2242 31.6855 48.309 31.7703L49.4857 32.947C49.5705 33.0319 49.6791 33.089 49.7971 33.1109C49.915 33.1329 50.0369 33.1185 50.1465 33.0698L50.8682 32.7493C51.2264 32.944 51.604 33.1005 51.9949 33.2164L52.2783 33.9528C52.3214 34.0648 52.3974 34.1611 52.4964 34.229C52.5953 34.2969 52.7125 34.3333 52.8324 34.3333H54.4964C54.5822 34.3331 54.6669 34.3142 54.7447 34.278V43.3963H35.9078ZM29.8767 28.1854H46.9229V28.4236C46.9231 28.5175 46.9456 28.6099 46.9885 28.6934C47.0314 28.7769 47.0936 28.849 47.1698 28.9037H29.8195C29.3179 28.9037 28.9097 29.3119 28.9097 29.8136V38.9682L28.6658 39.602C28.5053 39.6502 28.347 39.7053 28.1913 39.7671V29.8708C28.1913 28.9415 28.9474 28.1854 29.8767 28.1854ZM34.285 48.2284L34.5628 48.8539L33.9628 49.4539L33.337 49.176C33.2488 49.1368 33.1525 49.1197 33.0563 49.1262C32.96 49.1326 32.8668 49.1624 32.7847 49.213C32.3635 49.4726 31.9035 49.6634 31.4222 49.778C31.3284 49.8003 31.2414 49.8451 31.1688 49.9086C31.0962 49.9721 31.0402 50.0523 31.0055 50.1423L30.7598 50.7807H29.9111L29.6654 50.1425C29.6308 50.0525 29.5748 49.9723 29.5022 49.9088C29.4296 49.8454 29.3426 49.8005 29.2488 49.7782C28.7673 49.6637 28.3072 49.4729 27.8859 49.2132C27.8038 49.1627 27.7106 49.1328 27.6143 49.1264C27.5181 49.1199 27.4217 49.137 27.3336 49.1761L26.708 49.4539L26.1079 48.8538L26.3859 48.228C26.425 48.1398 26.4421 48.0435 26.4356 47.9473C26.4292 47.851 26.3993 47.7578 26.3487 47.6757C26.0891 47.2545 25.8984 46.7946 25.7839 46.3132C25.7615 46.2194 25.7167 46.1324 25.6532 46.0598C25.5897 45.9872 25.5095 45.9312 25.4195 45.8965L24.7812 45.6508V44.8021L25.4194 44.5565C25.5094 44.5218 25.5896 44.4658 25.6531 44.3932C25.7166 44.3206 25.7614 44.2336 25.7837 44.1398C25.8982 43.6583 26.0889 43.1982 26.3487 42.7768C26.3992 42.6947 26.429 42.6015 26.4355 42.5053C26.442 42.409 26.4249 42.3127 26.3858 42.2245L26.108 41.5991L26.7081 40.999L27.3339 41.277C27.422 41.3161 27.5183 41.3331 27.6146 41.3267C27.7108 41.3202 27.804 41.2904 27.8861 41.2399C28.3073 40.9803 28.7673 40.7896 29.2487 40.675C29.3425 40.6526 29.4295 40.6078 29.5021 40.5443C29.5747 40.4808 29.6307 40.4006 29.6654 40.3106L29.9111 39.6723H30.7598L31.0055 40.3106C31.0402 40.4006 31.0962 40.4808 31.1688 40.5443C31.2414 40.6078 31.3283 40.6526 31.4221 40.675C31.9035 40.7895 32.3635 40.9802 32.7847 41.2399C32.8668 41.2904 32.96 41.3202 33.0563 41.3267C33.1525 41.3331 33.2488 41.3161 33.337 41.277L33.9628 40.999L34.5628 41.5991L34.285 42.2248C34.2458 42.313 34.2287 42.4093 34.2352 42.5055C34.2416 42.6018 34.2714 42.695 34.322 42.7771C34.5816 43.1984 34.7724 43.6583 34.8869 44.1397C34.9093 44.2335 34.9541 44.3205 35.0176 44.3931C35.0811 44.4657 35.1613 44.5217 35.2513 44.5564L35.8896 44.802V45.6507L35.2514 45.8964C35.1614 45.931 35.0812 45.9871 35.0177 46.0597C34.9543 46.1323 34.9094 46.2192 34.8871 46.3131C34.7726 46.7946 34.5819 47.2547 34.3221 47.6759C34.2715 47.7581 34.2417 47.8513 34.2353 47.9476C34.2288 48.0438 34.2459 48.1402 34.285 48.2284ZM51.8989 53.0032V53.9624H32.9432V53.0032C32.9432 52.4833 33.5613 52.0441 34.2931 52.0441H50.549C51.2807 52.0441 51.8989 52.4833 51.8989 53.0032ZM46.486 50.8566H38.3559V48.423H46.486V50.8566ZM54.9653 47.2355H35.8469C35.8881 47.1236 35.9258 47.0104 35.9601 46.8961L36.6966 46.6127C36.8085 46.5696 36.9048 46.4936 36.9728 46.3947C37.0407 46.2957 37.077 46.1786 37.077 46.0586V44.5839H55.3386C55.4961 44.5839 55.6471 44.5214 55.7584 44.41C55.8698 44.2987 55.9323 44.1476 55.9323 43.9902V33.0021C56.1125 32.9267 56.2888 32.8423 56.4605 32.7492L56.6507 32.8338V45.5502C56.6507 46.4795 55.8946 47.2355 54.9653 47.2355ZM59.2188 28.016L58.5806 28.2617C58.4906 28.2963 58.4104 28.3523 58.3469 28.4249C58.2834 28.4975 58.2386 28.5845 58.2163 28.6783C58.1018 29.1598 57.911 29.6199 57.6512 30.0412C57.6007 30.1233 57.5709 30.2165 57.5644 30.3128C57.558 30.409 57.575 30.5054 57.6141 30.5935L57.8919 31.2191L57.2918 31.8192L56.666 31.5412C56.5778 31.5021 56.4815 31.485 56.3852 31.4915C56.289 31.498 56.1958 31.5278 56.1137 31.5783C55.6925 31.838 55.2326 32.0287 54.7512 32.1432C54.6574 32.1655 54.5704 32.2104 54.4978 32.2739C54.4252 32.3374 54.3692 32.4176 54.3346 32.5076L54.0888 33.1459H53.2401L52.9945 32.5078C52.9598 32.4178 52.9038 32.3376 52.8312 32.2741C52.7586 32.2106 52.6716 32.1658 52.5778 32.1434C52.0963 32.0289 51.6362 31.8382 51.2149 31.5785C51.1328 31.528 51.0396 31.4982 50.9433 31.4917C50.8471 31.4852 50.7508 31.5023 50.6626 31.5414L50.0371 31.8192L49.4371 31.2191L49.715 30.5933C49.7542 30.5052 49.7712 30.4088 49.7648 30.3126C49.7583 30.2164 49.7285 30.1232 49.678 30.041C49.4184 29.6198 49.2276 29.1598 49.1131 28.6785C49.0907 28.5847 49.0459 28.4977 48.9824 28.4251C48.9189 28.3525 48.8387 28.2965 48.7487 28.2619L48.1104 28.0161V27.1674L48.7484 26.9218C48.8384 26.8872 48.9186 26.8311 48.9821 26.7585C49.0456 26.686 49.0904 26.599 49.1128 26.5052C49.2273 26.0237 49.4181 25.5636 49.6778 25.1422C49.7283 25.0601 49.7581 24.9669 49.7646 24.8707C49.7711 24.7744 49.754 24.6781 49.7149 24.5899L49.4371 23.9644L50.0372 23.3643L50.663 23.6423C50.7512 23.6814 50.8475 23.6985 50.9438 23.6921C51.04 23.6856 51.1332 23.6558 51.2154 23.6052C51.6365 23.3456 52.0965 23.1549 52.5778 23.0404C52.6716 23.018 52.7586 22.9732 52.8312 22.9097C52.9038 22.8462 52.9598 22.766 52.9945 22.676L53.2402 22.0377H54.0889L54.3346 22.676C54.3693 22.766 54.4253 22.8462 54.4979 22.9097C54.5705 22.9732 54.6575 23.018 54.7513 23.0404C55.2327 23.1549 55.6926 23.3456 56.1138 23.6052C56.1959 23.6558 56.2892 23.6856 56.3854 23.6921C56.4816 23.6985 56.578 23.6814 56.6661 23.6423L57.2919 23.3643L57.892 23.9645L57.6141 24.5901C57.575 24.6783 57.5579 24.7746 57.5644 24.8709C57.5708 24.9671 57.6006 25.0603 57.6512 25.1425C57.9108 25.5637 58.1015 26.0237 58.2161 26.505C58.2384 26.5989 58.2833 26.6858 58.3468 26.7584C58.4102 26.831 58.4905 26.8871 58.5805 26.9217L59.2188 27.1674V28.016ZM53.6646 23.8422C51.5972 23.8422 49.9151 25.5242 49.9151 27.5917C49.9151 29.6592 51.5972 31.3411 53.6646 31.3411C55.732 31.3411 57.4141 29.6591 57.4141 27.5917C57.4141 25.5242 55.732 23.8422 53.6646 23.8422ZM53.6646 30.1536C52.2519 30.1536 51.1026 29.0044 51.1026 27.5917C51.1026 26.179 52.2519 25.0297 53.6646 25.0297C55.0773 25.0297 56.2266 26.1789 56.2266 27.5917C56.2265 29.0043 55.0773 30.1536 53.6646 30.1536ZM30.3354 41.477C28.268 41.477 26.586 43.1591 26.586 45.2266C26.586 47.2941 28.268 48.976 30.3354 48.976C32.4028 48.976 34.0849 47.294 34.0849 45.2266C34.0849 43.1591 32.4028 41.477 30.3354 41.477ZM30.3354 47.7885C28.9227 47.7885 27.7735 46.6392 27.7735 45.2265C27.7735 43.8138 28.9227 42.6645 30.3354 42.6645C31.7481 42.6645 32.8974 43.8137 32.8974 45.2265C32.8974 46.6392 31.7481 47.7885 30.3354 47.7885ZM43.9738 33.2429L42.0153 40.552C41.9815 40.6782 41.907 40.7897 41.8034 40.8693C41.6997 40.9489 41.5728 40.9921 41.4421 40.9922C41.351 40.9923 41.2611 40.9714 41.1793 40.9311C41.0976 40.8909 41.0262 40.8323 40.9708 40.7601C40.9153 40.6878 40.8772 40.6037 40.8594 40.5143C40.8416 40.425 40.8446 40.3327 40.8682 40.2447L42.8267 32.9357C42.8467 32.8601 42.8813 32.7892 42.9287 32.7271C42.9761 32.6649 43.0354 32.6128 43.103 32.5736C43.1706 32.5344 43.2453 32.5089 43.3227 32.4986C43.4002 32.4883 43.4789 32.4935 43.5544 32.5137C43.6299 32.5339 43.7007 32.5688 43.7627 32.6165C43.8246 32.6641 43.8766 32.7235 43.9155 32.7912C43.9545 32.859 43.9797 32.9338 43.9897 33.0113C43.9997 33.0888 43.9943 33.1675 43.9738 33.2429ZM39.9073 34.5087L37.255 36.7438L39.9073 38.9789C40.0278 39.0804 40.1029 39.2256 40.1163 39.3825C40.1297 39.5394 40.0802 39.6952 39.9788 39.8156C39.8773 39.936 39.7321 40.0112 39.5752 40.0246C39.4183 40.038 39.2625 39.9885 39.1421 39.8871L35.9509 37.1979C35.8847 37.1422 35.8315 37.0726 35.7951 36.9942C35.7586 36.9158 35.7397 36.8303 35.7397 36.7438C35.7397 36.6573 35.7586 36.5719 35.7951 36.4934C35.8315 36.415 35.8847 36.3455 35.9509 36.2897L39.1421 33.6007C39.2628 33.5018 39.4176 33.4545 39.5729 33.4688C39.7283 33.4832 39.8718 33.5582 39.9723 33.6775C40.0728 33.7968 40.1224 33.9509 40.1102 34.1064C40.0981 34.262 40.0252 34.4065 39.9073 34.5087ZM49.1021 36.7438C49.1021 36.8303 49.0833 36.9158 49.0468 36.9942C49.0103 37.0726 48.9571 37.1422 48.891 37.1979L45.6998 39.8871C45.5929 39.9774 45.4575 40.0269 45.3175 40.0267C45.1957 40.0268 45.0769 39.9895 44.977 39.9197C44.8772 39.85 44.8012 39.7512 44.7594 39.6368C44.7176 39.5224 44.712 39.398 44.7433 39.2803C44.7747 39.1626 44.8414 39.0574 44.9345 38.9789L47.5869 36.7438L44.9345 34.5087C44.8749 34.4585 44.8258 34.397 44.7899 34.3277C44.7541 34.2585 44.7322 34.1829 44.7256 34.1052C44.7189 34.0275 44.7277 33.9492 44.7513 33.8749C44.7749 33.8006 44.8129 33.7317 44.8631 33.6721C44.9134 33.6124 44.9749 33.5633 45.0441 33.5274C45.1134 33.4916 45.189 33.4697 45.2667 33.4631C45.3444 33.4564 45.4226 33.4652 45.4969 33.4888C45.5712 33.5124 45.6402 33.5504 45.6998 33.6007L48.891 36.2897C48.9571 36.3455 49.0103 36.415 49.0468 36.4934C49.0832 36.5719 49.1021 36.6573 49.1021 36.7438Z" fill="#4F45E2"/>
<circle cx="38" cy="38" r="38" transform="matrix(1 0 0 -1 427 76)" fill="#F4F9FF"/>
<g clip-path="url(#clip2_13_59924)">
<path d="M483.256 54.0314H469.972C469.562 54.0314 469.23 54.3637 469.23 54.7736C469.23 55.1834 469.562 55.5157 469.972 55.5157H483.256C483.666 55.5157 483.999 55.1834 483.999 54.7736C483.999 54.3637 483.666 54.0314 483.256 54.0314ZM459.953 54.0314H446.744C446.334 54.0314 446.001 54.3637 446.001 54.7736C446.001 55.1834 446.334 55.5157 446.744 55.5157H459.953C460.363 55.5157 460.696 55.1834 460.696 54.7736C460.696 54.3637 460.363 54.0314 459.953 54.0314ZM465.293 34.1818H459.542C459.132 34.1818 458.8 34.5141 458.8 34.9239C458.8 35.3338 459.132 35.666 459.542 35.666H465.293C465.703 35.666 466.035 35.3337 466.035 34.9239C466.035 34.5141 465.703 34.1818 465.293 34.1818ZM471.07 34.3991C470.93 34.2604 470.742 34.1823 470.545 34.1816C470.349 34.1816 470.158 34.2611 470.021 34.3991C469.882 34.5384 469.803 34.727 469.803 34.9238C469.803 35.1189 469.882 35.3104 470.021 35.4484C470.159 35.5865 470.349 35.6659 470.545 35.6659C470.74 35.6659 470.932 35.5865 471.07 35.4484C471.208 35.3104 471.287 35.1189 471.287 34.9238C471.287 34.7286 471.208 34.5371 471.07 34.3991ZM468.478 34.3991C468.338 34.2604 468.149 34.1823 467.952 34.1816C467.757 34.1816 467.565 34.2611 467.427 34.3991C467.289 34.5386 467.211 34.7271 467.21 34.9238C467.21 35.1197 467.289 35.3104 467.427 35.4484C467.566 35.5865 467.757 35.6659 467.952 35.6659C468.147 35.6659 468.339 35.5865 468.478 35.4484C468.616 35.3104 468.694 35.1189 468.694 34.9238C468.694 34.7286 468.616 34.5371 468.478 34.3991ZM465.293 40.1188H459.542C459.132 40.1188 458.8 40.4511 458.8 40.861C458.8 41.2708 459.132 41.6031 459.542 41.6031H465.293C465.703 41.6031 466.035 41.2708 466.035 40.861C466.035 40.4511 465.703 40.1188 465.293 40.1188ZM471.07 40.3362C470.93 40.1975 470.742 40.1194 470.545 40.1187C470.349 40.1187 470.158 40.1981 470.021 40.3362C469.882 40.4754 469.803 40.6641 469.803 40.8608C469.803 41.0567 469.882 41.2475 470.021 41.3855C470.159 41.5235 470.349 41.6029 470.545 41.6029C470.74 41.6029 470.932 41.5235 471.07 41.3855C471.208 41.2474 471.287 41.0559 471.287 40.8608C471.287 40.6657 471.208 40.4742 471.07 40.3362ZM468.478 40.3362C468.338 40.1975 468.149 40.1194 467.952 40.1187C467.757 40.1187 467.565 40.1981 467.427 40.3362C467.289 40.4742 467.21 40.6657 467.21 40.8608C467.21 41.0559 467.289 41.2475 467.427 41.3855C467.566 41.5235 467.757 41.6029 467.952 41.6029C468.148 41.6029 468.339 41.5235 468.478 41.3855C468.616 41.2474 468.694 41.0559 468.694 40.8608C468.694 40.6657 468.616 40.4742 468.478 40.3362ZM465.293 46.0559H459.542C459.132 46.0559 458.8 46.3882 458.8 46.798C458.8 47.2078 459.132 47.5401 459.542 47.5401H465.293C465.703 47.5401 466.035 47.2078 466.035 46.798C466.035 46.3882 465.703 46.0559 465.293 46.0559ZM471.07 46.2732C470.93 46.1347 470.742 46.0566 470.545 46.0557C470.349 46.0557 470.158 46.1352 470.02 46.2732C469.882 46.4113 469.803 46.6027 469.803 46.7979C469.803 46.993 469.882 47.1845 470.02 47.3225C470.159 47.4606 470.349 47.54 470.545 47.54C470.74 47.54 470.932 47.4606 471.07 47.3225C471.208 47.1845 471.287 46.993 471.287 46.7979C471.287 46.6027 471.208 46.4113 471.07 46.2732ZM468.477 46.2732C468.337 46.1344 468.149 46.0563 467.952 46.0557C467.757 46.0557 467.565 46.1352 467.427 46.2732C467.289 46.4113 467.21 46.6027 467.21 46.7979C467.21 46.993 467.289 47.1845 467.427 47.3225C467.566 47.4606 467.757 47.54 467.952 47.54C468.148 47.54 468.339 47.4606 468.477 47.3225C468.616 47.1845 468.694 46.993 468.694 46.7979C468.694 46.6027 468.616 46.4113 468.477 46.2732Z" fill="#4F45E2"/>
<path d="M474.657 40.967C474.657 39.7544 474.072 38.676 473.17 37.9985C474.072 37.321 474.657 36.2426 474.657 35.03C474.657 32.9839 472.993 31.3193 470.946 31.3193H459.072C457.026 31.3193 455.362 32.9839 455.362 35.03C455.362 36.2426 455.946 37.321 456.849 37.9985C455.946 38.676 455.362 39.7544 455.362 40.967C455.362 42.1796 455.946 43.258 456.849 43.9356C455.946 44.6131 455.362 45.6915 455.362 46.9041C455.362 48.9501 457.026 50.6147 459.072 50.6147H464.258V52.6748C463.394 52.9812 462.774 53.8061 462.774 54.7736C462.774 56.0012 463.772 57 465 57C466.228 57 467.226 56.0012 467.226 54.7736C467.226 53.8061 466.606 52.9812 465.742 52.6748V50.6147H470.947C472.993 50.6147 474.657 48.9501 474.657 46.9041C474.657 45.6915 474.073 44.6131 473.17 43.9356C474.072 43.258 474.657 42.1796 474.657 40.967ZM456.846 35.0301C456.846 33.8024 457.845 32.8036 459.072 32.8036H470.946C472.174 32.8036 473.173 33.8024 473.173 35.0301C473.173 36.2577 472.174 37.2565 470.946 37.2565H459.072C457.845 37.2564 456.846 36.2576 456.846 35.0301ZM465 55.5158C464.591 55.5158 464.258 55.1828 464.258 54.7736C464.258 54.3644 464.591 54.0315 465 54.0315C465.409 54.0315 465.742 54.3645 465.742 54.7736C465.742 55.1828 465.409 55.5158 465 55.5158ZM473.173 46.9041C473.173 48.1317 472.174 49.1305 470.946 49.1305H459.072C457.845 49.1305 456.846 48.1317 456.846 46.9041C456.846 45.6764 457.845 44.6777 459.072 44.6777H470.946C472.174 44.6777 473.173 45.6765 473.173 46.9041ZM470.946 43.1934H459.072C457.845 43.1934 456.846 42.1947 456.846 40.967C456.846 39.7394 457.845 38.7406 459.072 38.7406H470.946C472.174 38.7406 473.173 39.7394 473.173 40.967C473.173 42.1947 472.174 43.1934 470.946 43.1934Z" fill="#4F45E2"/>
<path d="M482.405 30.4917C481.452 29.1084 480.151 28.0274 478.627 27.349C476.759 22.3414 471.966 19 466.596 19C463.471 19 460.459 20.1361 458.116 22.1988C455.974 24.0848 454.526 26.6191 453.99 29.3962C453.875 29.391 453.76 29.3884 453.645 29.3884C449.43 29.3884 446.001 32.8175 446.001 37.0323C446.001 38.8665 446.661 40.6403 447.858 42.0267C449.043 43.3985 450.677 44.307 452.46 44.5848C452.498 44.5908 452.537 44.5937 452.575 44.5937C452.934 44.5937 453.25 44.332 453.307 43.9659C453.37 43.5608 453.093 43.1814 452.688 43.1183C449.674 42.6484 447.486 40.089 447.486 37.0324C447.486 33.6359 450.249 30.8727 453.645 30.8727C453.931 30.8727 454.221 30.893 454.507 30.933C454.604 30.9466 454.703 30.9409 454.797 30.9162C454.892 30.8916 454.98 30.8485 455.058 30.7895C455.136 30.7305 455.202 30.6567 455.251 30.5723C455.3 30.488 455.332 30.3947 455.345 30.2979C456.104 24.7032 460.941 20.4843 466.596 20.4843C471.445 20.4843 475.761 23.5636 477.336 28.1468C477.371 28.2476 477.427 28.3397 477.5 28.4169C477.573 28.4942 477.663 28.5547 477.762 28.5943C480.649 29.7528 482.514 32.5114 482.514 35.6223C482.514 39.2028 479.973 42.3216 476.471 43.0382C476.069 43.1204 475.81 43.5125 475.893 43.914C475.975 44.3156 476.367 44.5744 476.768 44.4923C480.958 43.6351 483.999 39.9047 483.999 35.6223C483.999 33.7787 483.448 32.0045 482.405 30.4917Z" fill="#4F45E2"/>
</g>
</g>
<defs>
<filter id="filter0_d_13_59924" x="0" y="0" width="507" height="318" filterUnits="userSpaceOnUse" color-interpolation-filters="sRGB">
<feFlood flood-opacity="0" result="BackgroundImageFix"/>
<feColorMatrix in="SourceAlpha" type="matrix" values="0 0 0 0 0 0 0 0 0 0 0 0 0 0 0 0 0 0 127 0" result="hardAlpha"/>
<feOffset dy="4"/>
<feGaussianBlur stdDeviation="2"/>
<feComposite in2="hardAlpha" operator="out"/>
<feColorMatrix type="matrix" values="0 0 0 0 0 0 0 0 0 0 0 0 0 0 0 0 0 0 0.25 0"/>
<feBlend mode="normal" in2="BackgroundImageFix" result="effect1_dropShadow_13_59924"/>
<feBlend mode="normal" in="SourceGraphic" in2="effect1_dropShadow_13_59924" result="shape"/>
</filter>
<clipPath id="clip0_13_59924">
<rect width="112" height="41.227" fill="white" transform="translate(198 134)"/>
</clipPath>
<clipPath id="clip1_13_59924">
<rect width="38" height="38" fill="white" transform="translate(23 253)"/>
</clipPath>
<clipPath id="clip2_13_59924">
<rect width="38" height="38" fill="white" transform="translate(446 19)"/>
</clipPath>
</defs>
</svg>
