<svg width="619" height="470" viewBox="0 0 619 470" fill="none" xmlns="http://www.w3.org/2000/svg">
<g filter="url(#filter0_d_5_57872)">
<path d="M426.193 133.912C384.062 94.3912 334.7 84.1888 321.657 82.1067C330.448 58.3833 344.024 23.1171 347.405 17.8988C348.497 17.7556 350.72 17.5214 353.997 17.5214C363.581 17.5214 384.087 19.5124 413.775 32.8771C456.623 52.1759 468.105 73.8822 470.354 79.1916L426.193 133.912Z" fill="white"/>
<path d="M354.011 20.1241C363.386 20.1241 383.477 22.0892 412.721 35.2586C451.485 52.7225 464.022 72.2295 467.325 78.8403L425.934 130.112C401.032 107.418 374.179 94.8857 355.623 88.2879C342.451 83.6031 331.683 81.2087 325.22 80.0505C334.934 53.9327 345.493 27.0602 349.043 20.3324C350.175 20.2282 351.839 20.1241 354.011 20.1241ZM354.011 14.9188C348.796 14.9188 346.118 15.4653 346.118 15.4653C343.074 16.4804 318.107 84.2277 318.107 84.2277C318.107 84.2277 377.352 90.2789 426.454 137.738L473.319 79.6732C473.319 79.6732 465.504 53.3081 414.854 30.5087C385.168 17.131 364.478 14.9188 354.011 14.9188Z" fill="#A0C6F4"/>
<path d="M326.807 89.4982C326.807 89.4982 385.063 95.3933 420.966 128.369" stroke="black" stroke-width="1.2545" stroke-miterlimit="10" stroke-linecap="round" stroke-linejoin="round"/>
<path d="M377.117 86.6483L398.847 44.3549L421.187 88.457L377.117 86.6483Z" fill="#A0C6F4"/>
<path d="M381.344 86.0497L403.073 43.7564L425.413 87.8585L381.344 86.0497Z" stroke="black" stroke-width="1.2545" stroke-miterlimit="10" stroke-linecap="round" stroke-linejoin="round"/>
<path d="M360.941 12.3421C360.941 12.3421 426.259 18.2371 466.869 66.5166" stroke="black" stroke-width="1.2545" stroke-miterlimit="10" stroke-linecap="round" stroke-linejoin="round"/>
<path d="M394.309 199.76C390.72 197.119 388.367 195.349 388.367 195.349C389.354 194.021 405.075 177.26 414.178 163.752C414.192 163.765 395.778 200.84 394.309 199.76Z" fill="black"/>
<path d="M171.582 77.604C173.338 80.519 174.104 79.3608 179.163 78.9704C184.222 78.58 191.413 82.2758 193.948 88.5092C196.483 94.7426 195.703 95.7055 194.338 96.4863C192.973 97.2671 183.246 98.4383 182.856 100.377" stroke="black" stroke-width="1.2545" stroke-miterlimit="10" stroke-linecap="round" stroke-linejoin="round"/>
<path d="M302.62 394.426L298.082 386.761L282.009 413.583L286.223 416.823L302.62 394.426Z" fill="#F9865F"/>
<path d="M195.86 327.928C195.86 327.928 187.524 314.368 191.1 307.732L217.679 310.582L195.86 327.928Z" fill="#F9865F"/>
<path d="M195.86 327.928L197.446 331.585L192.531 350.741C191.907 353.148 192.712 355.713 194.598 357.338L218.903 321.383C221.217 317.973 220.684 313.379 217.667 310.568L212.231 305.52L195.86 327.928Z" fill="black"/>
<path d="M182.856 100.377C190.463 100.195 200.111 99.7137 198.187 93.9228C196.263 88.1318 189.019 73.6479 172.622 77.9944C172.622 77.9944 166.836 82.8223 174.066 91.5022C181.309 100.195 182.856 100.377 182.856 100.377Z" fill="#2A1E33"/>
<path d="M221.386 310.907C221.386 310.907 208.395 272.518 219.383 255.665C228.459 241.754 258.096 264.384 262.165 267.43L283.375 229.092C283.375 229.092 278.472 222.221 266.457 215.493C254.441 208.766 204.781 188.621 181.438 225.474C172.817 239.099 172.687 297.529 189.227 319.925L221.386 310.907Z" fill="black"/>
<path d="M221.385 310.907C221.385 310.907 208.395 272.518 219.383 255.665C228.459 241.754 258.096 264.384 262.165 267.43" stroke="black" stroke-width="1.2545" stroke-miterlimit="10" stroke-linecap="round" stroke-linejoin="round"/>
<path d="M283.374 229.092C273.725 239.256 245.13 288.759 238.694 312.416C230.085 344.065 233.323 370.312 280.605 421.703L303.465 388.389C303.465 388.389 287.392 363.962 290.396 340.955C294.74 307.654 318.419 275.368 330.396 254.885L283.374 229.092Z" fill="black"/>
<path d="M287.003 233.386L325.012 263.252L336.378 245.97L287.003 233.386Z" fill="black"/>
<path d="M505.36 201.999C511.29 203.273 515.802 205.525 518.91 208.778C522.018 212.032 520.601 213.723 519.469 214.712C518.338 215.702 513.968 214.569 510.158 211.186C506.348 207.802 505.36 201.999 505.36 201.999Z" fill="#FF8A66"/>
<path d="M388.367 195.349C389.354 194.021 405.075 177.26 414.178 163.752C414.178 163.752 441.681 194.594 444.672 195.596C445.777 195.96 452.527 195.882 460.9 195.792C475.049 195.649 493.865 195.504 498.026 197.587C504.657 200.905 508.637 202.558 510.289 207.204C511.94 211.849 512.603 214.881 508.637 215.169C503.995 215.493 501.017 209.533 501.017 209.533C501.017 209.533 497.219 211.824 487.428 215.506C487.428 215.506 452.175 229.196 428.612 222.573C422.189 220.764 388.367 195.349 388.367 195.349Z" fill="#FFD2C6"/>
<path d="M174.689 72.1515C171.659 73.3096 169.827 74.676 171.582 77.604C173.337 80.519 174.104 79.3608 179.163 78.9704C184.221 78.58 191.413 82.2758 193.948 88.5092C196.483 94.7426 195.703 95.7055 194.338 96.4863C192.973 97.2671 183.246 98.4383 182.856 100.377C182.466 102.329 186.796 108.068 195.742 107.678L197.888 107.287C197.888 107.287 216.705 125.675 219.422 128.407C222.14 131.141 242.152 144.701 253.179 147.46C261.554 149.555 278.536 146.849 288.732 144.856C293.686 143.894 297.042 143.088 297.042 143.088C297.042 143.088 289.382 129.293 287.835 108.068C287.835 108.068 269.525 111.009 257.354 113.69C257.354 113.69 228.954 97.8397 215.144 90.8386C215.144 90.8386 203.09 76.0424 197.446 74.1035C191.803 72.1515 178.772 70.6028 174.689 72.1515Z" fill="#FFD2C6"/>
<path d="M288.744 144.856C293.7 143.894 297.054 143.088 297.054 143.088C297.054 143.088 287.796 131.401 286.235 110.189C286.235 110.189 282.048 114.705 283.349 126.716C284.987 141.838 288.744 144.856 288.744 144.856Z" fill="black"/>
<path d="M285.792 107.821C285.792 107.821 286.053 133.744 292.997 144.57L295.481 143.568C295.481 143.568 262.764 181.867 252.192 206.891C250.462 210.991 320.109 255.509 330.396 254.885C330.396 254.885 364.335 203.053 375.934 187.696L388.405 197.366C388.405 197.366 412.864 172.576 414.178 163.765C414.178 163.765 390.551 134.992 371.214 126.561C351.878 118.141 334.609 103.696 313.842 104.099C295.871 104.437 285.792 107.821 285.792 107.821Z" fill="#4F45E2"/>
<path d="M388.405 197.366L375.934 187.684L377.924 182.271L388.405 197.366Z" fill="black"/>
<path d="M407.377 94.8337C405.193 101.627 398.886 121.29 391.852 123.723C384.816 126.157 377.495 123.099 377.495 123.099L370.004 126.937C369.173 129.449 363.257 131.609 355.623 131.909C349.966 132.13 346.52 124.855 348.197 119.598C348.965 117.178 351.839 105.27 351.839 105.27C351.839 105.27 357.899 82.9395 363.477 78.3197C369.056 73.713 374.296 69.1453 389.186 75.1575C411.994 84.397 407.377 94.8337 407.377 94.8337Z" fill="#FFD2C6"/>
<path d="M362.176 95.7966C361.175 99.974 356.832 108.316 353.997 106.819C351.163 105.322 350.161 101.47 352.164 94.1309C354.166 86.7915 355.831 70.0823 361.5 67.0892C367.171 64.0831 369.68 67.5837 369.68 67.5837C369.68 67.5837 367.183 55.3902 374.517 53.7245C374.517 53.7245 377.013 52.5533 376.012 60.9079C376.012 60.9079 378.847 53.2301 388.028 54.2321C397.208 55.234 400.368 68.0913 400.368 68.0913C400.368 68.0913 401.032 64.5907 405.206 64.5907C409.379 64.5907 415.713 70.772 414.217 77.6171C414.217 77.6171 424.894 74.2726 430.563 82.7964C436.233 91.307 435.57 100.664 421.889 104.333C407.585 108.172 407.702 91.4762 405.544 89.303C403.373 87.1298 401.045 84.6312 393.035 87.6372C385.025 90.6434 376.688 81.7943 376.688 81.7943C376.688 81.7943 375.35 92.4782 374.023 93.4803C372.684 94.4823 370.018 95.8227 370.681 90.8125C371.344 85.8024 372.176 86.31 371.683 84.9695C371.189 83.6292 368.926 79.4259 364.18 83.1347C358.834 87.286 362.176 95.7966 362.176 95.7966Z" fill="#2A1E33"/>
<path d="M364.439 97.6706C361.253 94.9898 359.055 90.2789 361.851 85.5682C364.648 80.8573 369.238 80.2197 370.629 82.0025C372.033 83.7853 372.566 86.7914 371.253 90.3571" stroke="#2A1E33" stroke-width="1.2545" stroke-miterlimit="10" stroke-linecap="round" stroke-linejoin="round"/>
<path d="M286.222 416.823L287.808 420.48L282.893 439.635C282.269 442.042 283.075 444.606 284.961 446.232L309.264 410.277C311.579 406.867 311.046 402.273 308.03 399.463L302.594 394.414L286.222 416.823Z" fill="black"/>
<path d="M369.68 67.5837C369.68 67.5837 367.82 61.5195 362.242 59.9319" stroke="#2A1E33" stroke-width="1.2545" stroke-miterlimit="10" stroke-linecap="round" stroke-linejoin="round"/>
<path d="M251.424 205.056L318.757 110.931" stroke="black" stroke-width="1.2545" stroke-miterlimit="10" stroke-linecap="round" stroke-linejoin="round"/>
<path d="M346.52 117.516C344.089 120.678 342.983 134.251 354.154 135.137C365.31 136.021 372.449 131.115 372.449 131.115" stroke="black" stroke-width="1.2545" stroke-miterlimit="10" stroke-linecap="round" stroke-linejoin="round"/>
<path d="M197.446 74.1035C197.446 74.1035 205.145 84.2929 206.354 87.9235" stroke="black" stroke-width="1.2545" stroke-miterlimit="10" stroke-linecap="round" stroke-linejoin="round"/>
<path d="M485.633 210.783C485.633 210.783 490.77 215.024 501.017 209.533C504.736 207.542 502.083 202.844 497.389 204.016C492.694 205.187 487.103 203.43 487.103 203.43" stroke="black" stroke-width="1.2545" stroke-miterlimit="10" stroke-linecap="round" stroke-linejoin="round"/>
<path d="M507.116 202.583C507.116 202.583 512.044 208.349 511.913 211.771" stroke="black" stroke-width="1.2545" stroke-miterlimit="10" stroke-linecap="round" stroke-linejoin="round"/>
<path d="M434.516 201.96C434.516 201.96 438.977 196.012 444.685 195.608" stroke="black" stroke-width="1.2545" stroke-miterlimit="10" stroke-linecap="round" stroke-linejoin="round"/>
<path d="M246.405 123.307C246.405 123.307 249.006 115.187 257.354 113.69" stroke="black" stroke-width="1.2545" stroke-miterlimit="10" stroke-linecap="round" stroke-linejoin="round"/>
<path d="M269.019 246.505L259.07 265.556C259.07 265.556 226.249 321.149 237.38 357.052" stroke="black" stroke-width="1.2545" stroke-miterlimit="10" stroke-linecap="round" stroke-linejoin="round"/>
<path d="M298.094 310.282L330.382 254.885C330.382 254.885 372.709 193.448 377.04 184.782L391.981 157.128" stroke="black" stroke-width="1.2545" stroke-miterlimit="10" stroke-linecap="round" stroke-linejoin="round"/>
<path d="M255.937 210.965C255.937 210.965 313.361 252.868 330.396 254.885" stroke="black" stroke-width="1.2545" stroke-miterlimit="10" stroke-linecap="round" stroke-linejoin="round"/>
<path d="M285.792 107.821C285.792 107.821 285.741 134.12 292.828 144.897" stroke="black" stroke-width="1.2545" stroke-miterlimit="10" stroke-linecap="round" stroke-linejoin="round"/>
<path d="M412.345 159.588C410.537 170.428 386.571 193.188 386.571 193.188" stroke="black" stroke-width="1.2545" stroke-miterlimit="10" stroke-linecap="round" stroke-linejoin="round"/>
<path d="M233.466 294.576C235.348 294.576 236.873 293.049 236.873 291.166C236.873 289.283 235.348 287.756 233.466 287.756C231.584 287.756 230.059 289.283 230.059 291.166C230.059 293.049 231.584 294.576 233.466 294.576Z" fill="black"/>
<path d="M553.408 364.495L551.523 351.443L562.641 358.848L556.828 360.111L553.408 364.495Z" stroke="black" stroke-width="1.2545" stroke-miterlimit="10" stroke-linecap="round" stroke-linejoin="round"/>
<path d="M184.443 141.669C163.363 123.06 128.527 169.478 256.002 317.218C329.538 402.456 387.313 410.095 395.141 380.437C409.185 327.239 358.471 313.796 377.34 334.631C404.777 364.926 482.825 371.329 540.978 343.05C598.362 315.15 563.083 271.828 559.52 269.304" stroke="black" stroke-width="1.2545" stroke-miterlimit="10" stroke-linecap="round" stroke-linejoin="round"/>
<path d="M541.901 346.2C543.783 346.2 545.307 344.673 545.307 342.79C545.307 340.907 543.783 339.38 541.901 339.38C540.019 339.38 538.494 340.907 538.494 342.79C538.494 344.673 540.019 346.2 541.901 346.2Z" fill="black"/>
<path d="M492.278 370.651L593.355 313.627" stroke="black" stroke-width="1.2545" stroke-miterlimit="10" stroke-linecap="round" stroke-linejoin="round"/>
<path d="M186.537 147.837C188.418 147.837 189.942 146.31 189.942 144.427C189.942 142.544 188.418 141.018 186.537 141.018C184.655 141.018 183.129 142.544 183.129 144.427C183.129 146.31 184.655 147.837 186.537 147.837Z" fill="black"/>
<path d="M273.492 81.2868C277.535 81.2868 280.812 78.0066 280.812 73.9603C280.812 69.9139 277.535 66.6338 273.492 66.6338C269.449 66.6338 266.171 69.9139 266.171 73.9603C266.171 78.0066 269.449 81.2868 273.492 81.2868Z" fill="#FF6D66"/>
<path d="M140.737 18.1201C138.956 18.1201 137.526 19.5645 137.526 21.3343C137.526 23.1042 138.968 24.5486 140.737 24.5486C142.506 24.5486 143.949 23.1042 143.949 21.3343C143.949 19.5645 142.519 18.1201 140.737 18.1201Z" fill="#A0C6F4"/>
<path d="M571.679 417.864C573.453 417.864 574.89 416.424 574.89 414.649C574.89 412.874 573.453 411.435 571.679 411.435C569.905 411.435 568.467 412.874 568.467 414.649C568.467 416.424 569.905 417.864 571.679 417.864Z" fill="#FAD8B0"/>
<path d="M514.215 269.29L479.639 253.049C476.843 251.736 476.895 247.753 479.717 246.503L544.034 218.187C544.943 217.784 545.983 217.784 546.894 218.174L591.08 237.147L514.215 269.29Z" fill="#2A1E33"/>
<path d="M512.07 215.923C512.16 230.238 514.215 269.29 514.215 269.29L591.08 237.16L589.351 182.83C589.247 179.498 585.788 177.338 582.745 178.73L516.556 208.909C513.813 210.158 512.056 212.904 512.07 215.923Z" fill="#C6CBCB"/>
<path d="M514.215 269.29L591.08 237.16L589.351 182.83C589.351 182.83 588.844 176.896 582.745 178.73" stroke="black" stroke-width="1.2545" stroke-miterlimit="10" stroke-linecap="round" stroke-linejoin="round"/>
<path d="M551.419 230.238L556.607 217.966" stroke="black" stroke-width="1.2545" stroke-miterlimit="10" stroke-linecap="round" stroke-linejoin="round"/>
<path d="M556.607 230.238L561.796 217.966" stroke="black" stroke-width="1.2545" stroke-miterlimit="10" stroke-linecap="round" stroke-linejoin="round"/>
<path d="M154.599 364.144C156.373 364.144 157.811 362.705 157.811 360.93C157.811 359.155 156.373 357.716 154.599 357.716C152.826 357.716 151.387 359.155 151.387 360.93C151.387 362.705 152.826 364.144 154.599 364.144Z" fill="#FF6D66"/>
<path d="M425.764 381.361C428.236 381.361 430.238 379.357 430.238 376.885C430.238 374.412 428.236 372.409 425.764 372.409C423.294 372.409 421.291 374.412 421.291 376.885C421.291 379.357 423.294 381.361 425.764 381.361Z" fill="#FF6D66"/>
<path d="M187.928 408.65C193.155 411.161 208.382 417.499 228.538 417.369C229.644 417.356 230.488 418.332 230.359 419.439L227.55 441.73C227.446 442.524 226.847 443.161 226.067 443.304C220.372 444.372 197.433 447.521 180.268 432.96C179.735 432.504 179.514 431.775 179.696 431.098L185.366 409.848C185.665 408.728 186.9 408.156 187.928 408.65Z" fill="#FFF7DC"/>
<path d="M189.942 415.208C189.942 415.208 199.852 429.146 203.388 431.151C206.926 433.141 226.016 421.767 226.016 421.767" stroke="black" stroke-width="1.2545" stroke-miterlimit="10" stroke-linecap="round" stroke-linejoin="round"/>
<path d="M212.752 429.199L223.154 439.908" stroke="black" stroke-width="1.2545" stroke-miterlimit="10" stroke-linecap="round" stroke-linejoin="round"/>
<path d="M198.279 427.129L186.094 430.448" stroke="black" stroke-width="1.2545" stroke-miterlimit="10" stroke-linecap="round" stroke-linejoin="round"/>
<path d="M506.843 145.013H495.205V156.66H506.843V145.013Z" fill="#FFE1C0"/>
<path d="M496.778 302.071L500.236 308.07L503.695 314.069H496.778H489.873L493.319 308.07L496.778 302.071Z" fill="#A0C6F4"/>
<path d="M217.134 36.5079L218.031 9.29702C217.94 6.75942 218.967 5.9526 220.527 5.60124C227.914 3.96156 250.37 -1.04858 274.792 6.18684C277.952 7.1238 277.848 8.7895 277.796 10.299L276.924 36.2476C276.859 38.1476 274.87 39.527 272.647 39.2017C265.52 38.1606 255.82 37.8353 245.963 37.9133C235.781 38.0044 226.717 38.7592 220.372 39.9825C217.965 40.438 217.056 38.6291 217.134 36.5079Z" stroke="black" stroke-width="1.2545" stroke-miterlimit="10" stroke-linecap="round" stroke-linejoin="round"/>
<path d="M225.352 32.5259L239.565 15.8687L255.299 31.4067C249.877 29.6499 225.352 32.5259 225.352 32.5259Z" stroke="black" stroke-width="1.2545" stroke-miterlimit="10" stroke-linecap="round" stroke-linejoin="round"/>
<path d="M248.278 23.5857L259.773 14.3723L269.46 21.2953L269.824 32.1094L255.299 31.4067" stroke="black" stroke-width="1.2545" stroke-miterlimit="10" stroke-linecap="round" stroke-linejoin="round"/>
<path d="M231.538 14.6475C231.67 13.339 230.532 12.1522 228.995 11.9968C227.46 11.8413 226.107 12.7761 225.974 14.0846C225.842 15.3932 226.98 16.5799 228.517 16.7353C230.053 16.8908 231.405 15.956 231.538 14.6475Z" stroke="black" stroke-width="1.2545" stroke-miterlimit="10" stroke-linecap="round" stroke-linejoin="round"/>
<path d="M492.018 390.08L501.55 407.7C502.551 409.275 502.2 410.173 501.329 410.98C497.246 414.767 484.84 426.309 466.635 430.799C464.281 431.384 463.722 430.279 463.202 429.303L454.112 412.502C453.45 411.266 454.19 409.652 455.726 409.028C460.641 407.037 466.921 403.639 473.151 399.919C479.587 396.08 485.061 392.227 488.637 389.091C490.029 387.894 491.277 388.701 492.018 390.08Z" stroke="black" stroke-width="1.2545" stroke-miterlimit="10" stroke-linecap="round" stroke-linejoin="round"/>
<path d="M488.274 395.663L485.426 411.526L469.652 407.505C473.774 406.62 488.274 395.663 488.274 395.663Z" stroke="black" stroke-width="1.2545" stroke-miterlimit="10" stroke-linecap="round" stroke-linejoin="round"/>
<path d="M477.038 409.873L473.151 419.998L464.438 419.204L460.185 412.464L469.664 407.505" stroke="black" stroke-width="1.2545" stroke-miterlimit="10" stroke-linecap="round" stroke-linejoin="round"/>
<path d="M493.586 410.062C494.618 409.59 495.131 408.497 494.73 407.621C494.33 406.746 493.169 406.418 492.137 406.89C491.105 407.362 490.593 408.454 490.993 409.331C491.392 410.207 492.554 410.534 493.586 410.062Z" stroke="black" stroke-width="1.2545" stroke-miterlimit="10" stroke-linecap="round" stroke-linejoin="round"/>
<path d="M445.595 89.238L484.346 118.908C485.191 119.559 486.413 119.39 487.05 118.531L492.903 110.593C493.514 109.76 493.358 108.602 492.564 107.964L454.373 77.3828C453.514 76.6931 452.266 76.8753 451.628 77.7602L445.232 86.6093C444.607 87.4291 444.776 88.6003 445.595 89.238Z" fill="white" stroke="black" stroke-width="1.2545" stroke-miterlimit="10" stroke-linecap="round" stroke-linejoin="round"/>
<path d="M448.47 87.9106L457.858 94.5084L463.411 87.8845L454.008 80.0375L448.47 87.9106Z" fill="#FF6D66"/>
<path d="M461.395 97.085L470.81 104.555L475.855 98.3473L466.375 90.6564L461.395 97.085Z" fill="#FAD8B0"/>
<path d="M473.97 107.418L483.371 114.015L487.845 108.263L478.95 100.807L473.97 107.418Z" fill="#A0C6F4"/>
<path d="M522.902 47.7384L531.732 121.992C531.926 123.619 533.422 124.777 535.035 124.556L549.989 122.513C551.549 122.305 552.654 120.886 552.511 119.325L545.268 44.7063C545.112 43.0406 543.578 41.8434 541.926 42.0906L525.399 44.5111C523.825 44.7324 522.72 46.1638 522.902 47.7384Z" fill="white" stroke="black" stroke-width="1.2545" stroke-miterlimit="10" stroke-linecap="round" stroke-linejoin="round"/>
<path d="M527.428 49.4821L530.223 66.842L543.409 65.866L541.965 47.1658L527.428 49.4821Z" fill="#FF6D66"/>
<path d="M531.172 73.4788L533.032 91.7886L545.229 90.6954L543.539 72.0863L531.172 73.4788Z" fill="#91BA83"/>
<path d="M533.266 98.3342L536.061 115.694L547.153 114.471L545.815 96.7336L533.266 98.3342Z" fill="#FAD8B0"/>
<path d="M503.631 63.5496L528.078 135.474C528.494 136.711 529.846 137.361 531.068 136.919L546.387 131.401C547.57 130.972 548.195 129.696 547.817 128.499L524.852 55.8717C524.45 54.5965 523.071 53.9197 521.823 54.3883L505.022 60.6216C503.852 61.051 503.227 62.3524 503.631 63.5496Z" fill="white" stroke="black" stroke-width="1.2545" stroke-miterlimit="10" stroke-linecap="round" stroke-linejoin="round"/>
<path d="M508.598 64.8639L514.944 81.2738L527.636 77.565L522.343 59.5676L508.598 64.8639Z" fill="#A0C6F4"/>
<path d="M517.259 87.5592L522.876 105.088L534.58 101.484L529.066 83.6162L517.259 87.5592Z" fill="#F9865F"/>
<path d="M524.462 111.439L530.809 127.835L541.407 124.322L536.412 107.261L524.462 111.439Z" fill="#FAD8B0"/>
<path d="M319.369 185.38H195.911C191.971 185.38 188.786 182.179 188.786 178.249V161.54C188.786 157.597 191.985 154.408 195.911 154.408H319.369C323.308 154.408 326.495 157.61 326.495 161.54V178.249C326.507 182.179 323.308 185.38 319.369 185.38Z" fill="#7595EC"/>
<path d="M273.115 168.229H205.808C204.507 168.229 203.453 167.175 203.453 165.873C203.453 164.572 204.507 163.518 205.808 163.518H273.115C274.415 163.518 275.468 164.572 275.468 165.873C275.468 167.175 274.415 168.229 273.115 168.229Z" fill="white"/>
<path d="M204.13 174.345H318.55" stroke="black" stroke-width="1.2545" stroke-miterlimit="10" stroke-linecap="round" stroke-linejoin="round"/>
<path d="M147.538 98.2431L145.587 96.109L139.138 102.004L141.089 104.138C141.908 105.036 143.312 105.101 144.21 104.281L147.395 101.366C148.292 100.547 148.357 99.154 147.538 98.2431Z" fill="#91BA83"/>
<path d="M136.29 84.436L145.47 94.4953C145.938 95.0158 145.912 95.8227 145.393 96.2911L139.046 102.095C138.527 102.563 137.72 102.538 137.252 102.017L128.072 91.9577C127.603 91.4371 127.629 90.6303 128.15 90.1619L134.495 84.358C135.003 83.8764 135.808 83.9155 136.29 84.436Z" stroke="black" stroke-width="1.2545" stroke-miterlimit="10" stroke-linecap="round" stroke-linejoin="round"/>
<path d="M118.462 137.661H106.928V148.201H118.462V137.661Z" fill="#FF6D66"/>
<path d="M106.928 130.88V137.661H100.036" stroke="black" stroke-width="1.2545" stroke-miterlimit="10" stroke-linecap="round" stroke-linejoin="round"/>
<path d="M498.494 18.6276H486.96V29.1684H498.494V18.6276Z" fill="#FAD8B0"/>
<path d="M486.96 11.8476V18.6276H480.068" stroke="black" stroke-width="1.2545" stroke-miterlimit="10" stroke-linecap="round" stroke-linejoin="round"/>
<path d="M174.768 83.7853C55.1729 34.1785 -36.893 129.722 188.539 276.018C206.289 287.536 233.505 291.583 233.505 291.583" stroke="black" stroke-width="1.2545" stroke-miterlimit="10" stroke-linecap="round" stroke-linejoin="round"/>
<path d="M64.7696 90.5262C66.6512 90.5262 68.1766 88.9998 68.1766 87.1167C68.1766 85.2337 66.6512 83.7073 64.7696 83.7073C62.888 83.7073 61.3626 85.2337 61.3626 87.1167C61.3626 88.9998 62.888 90.5262 64.7696 90.5262Z" fill="black"/>
<path d="M43.0796 68.3906L46.8116 64.7988L55.3811 69.718L59.6983 83.0306L46.5256 77.5129L43.0796 68.3906Z" stroke="black" stroke-width="1.2545" stroke-miterlimit="10" stroke-linecap="round" stroke-linejoin="round"/>
<path d="M46.8116 64.7988L43.0796 68.3906L40.9859 65.853L44.562 62.4174L46.8116 64.7988Z" stroke="black" stroke-width="1.2545" stroke-miterlimit="10" stroke-linecap="round" stroke-linejoin="round"/>
<path d="M59.6983 83.0306L51.1288 73.6219" stroke="black" stroke-width="1.2545" stroke-miterlimit="10" stroke-linecap="round" stroke-linejoin="round"/>
<path d="M80.4261 321.929L89.7237 369.857C89.9318 370.912 90.9591 371.588 91.9994 371.367L101.635 369.324C102.636 369.116 103.3 368.14 103.117 367.125L94.8342 318.872C94.6521 317.792 93.5989 317.088 92.5325 317.322L81.8825 319.691C80.8812 319.925 80.231 320.914 80.4261 321.929Z" fill="white" stroke="black" stroke-width="1.2545" stroke-miterlimit="10" stroke-linecap="round" stroke-linejoin="round"/>
<path d="M83.456 322.84L86.0957 334.019L94.6391 332.756L92.8185 320.641L83.456 322.84Z" fill="#FF6D66"/>
<path d="M87.045 338.3L89.1256 350.129L97.0187 348.84L95.0292 336.791L87.045 338.3Z" fill="#FAD8B0"/>
<path d="M89.5807 354.384L92.2335 365.563L99.3984 364.223L97.6949 352.744L89.5807 354.384Z" fill="#A0C6F4"/>
<path d="M346.598 442.056L385.869 431.541L387.378 435.796L347.652 446.115L346.598 442.056Z" stroke="black" stroke-width="1.2545" stroke-miterlimit="10" stroke-linecap="round" stroke-linejoin="round"/>
<path d="M341.137 436.564L342.281 440.129" stroke="black" stroke-width="1.2545" stroke-miterlimit="10" stroke-linecap="round" stroke-linejoin="round"/>
<path d="M340.032 438.893L343.348 437.748" stroke="black" stroke-width="1.2545" stroke-miterlimit="10" stroke-linecap="round" stroke-linejoin="round"/>
<path d="M339.238 450.189L341.371 456.929" stroke="black" stroke-width="1.2545" stroke-miterlimit="10" stroke-linecap="round" stroke-linejoin="round"/>
<path d="M337.418 454.457L343.321 452.584" stroke="black" stroke-width="1.2545" stroke-miterlimit="10" stroke-linecap="round" stroke-linejoin="round"/>
<path d="M330.253 439.075L333.048 448.002" stroke="black" stroke-width="1.2545" stroke-miterlimit="10" stroke-linecap="round" stroke-linejoin="round"/>
<path d="M327.483 444.633L335.753 441.991" stroke="black" stroke-width="1.2545" stroke-miterlimit="10" stroke-linecap="round" stroke-linejoin="round"/>
<path d="M60.1663 15.0099L35.3164 3.77935L36.3437 0.942444L61.3497 12.4592L60.1663 15.0099Z" stroke="black" stroke-width="0.841392" stroke-miterlimit="10" stroke-linecap="round" stroke-linejoin="round"/>
<path d="M60.6735 20.1892L61.5968 17.8468" stroke="black" stroke-width="0.841392" stroke-miterlimit="10" stroke-linecap="round" stroke-linejoin="round"/>
<path d="M62.234 19.4474L60.0233 18.6276" stroke="black" stroke-width="0.841392" stroke-miterlimit="10" stroke-linecap="round" stroke-linejoin="round"/>
<path d="M67.4354 13.9167L69.191 9.51825" stroke="black" stroke-width="0.841392" stroke-miterlimit="10" stroke-linecap="round" stroke-linejoin="round"/>
<path d="M70.1922 12.4723L66.3431 10.9367" stroke="black" stroke-width="0.841392" stroke-miterlimit="10" stroke-linecap="round" stroke-linejoin="round"/>
<path d="M67.3833 23.5076L69.7241 17.6906" stroke="black" stroke-width="0.841392" stroke-miterlimit="10" stroke-linecap="round" stroke-linejoin="round"/>
<path d="M71.1805 21.8028L65.7709 19.6556" stroke="black" stroke-width="0.841392" stroke-miterlimit="10" stroke-linecap="round" stroke-linejoin="round"/>
<path d="M153.065 225.11C135.549 212.488 118.332 192.864 125.874 172.719C125.874 172.719 137.955 164.664 157.082 174.736C176.211 184.808 176.211 184.808 176.211 184.808L153.065 225.11Z" fill="#FAD8B0"/>
<path d="M145.119 309.202C137.238 305.467 103.573 287.938 97.5779 257.968C92.4024 232.085 112.194 197.17 122.103 181.75C121.466 202.22 142.012 219.54 151.92 226.685C161.96 233.92 169.345 237.46 179.528 241.286L145.119 309.202Z" fill="white"/>
<path d="M120.607 187.841C122.753 201.439 133.13 215.545 150.788 228.272C160.32 235.144 167.498 238.736 176.822 242.34L144.261 306.613C134.339 301.667 104.977 284.932 99.5154 257.578C94.9512 234.857 110.36 204.705 120.607 187.841ZM125.887 172.705C125.887 172.705 88.6314 223.079 95.6793 258.346C102.727 293.612 146.016 311.752 146.016 311.752L182.257 240.218C170.932 236.067 163.572 232.684 153.064 225.11C135.549 212.474 118.332 192.864 125.887 172.705Z" fill="#FAD8B0"/>
<path d="M116.082 201.985C116.082 201.985 118.254 222.221 138.474 233.061" stroke="black" stroke-width="1.2545" stroke-miterlimit="10" stroke-linecap="round" stroke-linejoin="round"/>
<path d="M149.307 240.296L169.527 251.136" stroke="black" stroke-width="1.2545" stroke-miterlimit="10" stroke-linecap="round" stroke-linejoin="round"/>
<path d="M118.969 230.901C118.969 230.901 125.471 245.359 146.42 254.754" stroke="black" stroke-width="1.2545" stroke-miterlimit="10" stroke-linecap="round" stroke-linejoin="round"/>
<path d="M102.363 233.061C102.363 233.061 103.092 248.235 113.195 253.297" stroke="black" stroke-width="1.2545" stroke-miterlimit="10" stroke-linecap="round" stroke-linejoin="round"/>
<path d="M125.471 180.305C125.471 180.305 123.598 199.8 153.064 225.11" stroke="black" stroke-width="1.2545" stroke-miterlimit="10" stroke-linecap="round" stroke-linejoin="round"/>
<path d="M136.303 183.91C136.303 183.91 145.691 183.181 159.41 193.305" stroke="black" stroke-width="1.2545" stroke-miterlimit="10" stroke-linecap="round" stroke-linejoin="round"/>
<path d="M92.1554 246.152C91.5572 255.822 92.7536 290.866 143.468 313.21" stroke="black" stroke-width="1.2545" stroke-miterlimit="10" stroke-linecap="round" stroke-linejoin="round"/>
<path d="M415.986 226.659L394.478 269.798C394.478 269.798 409.068 275.172 397.664 291.908C397.664 291.908 424.633 303.099 442.28 274.027C459.926 244.955 415.986 226.659 415.986 226.659Z" fill="#91BA83"/>
<path d="M366.754 358.51C355.87 358.51 344.375 354.059 332.58 345.288L372.827 278.582L396.767 293.664L396.922 293.729C397.143 293.821 402.475 295.993 409.992 295.993C416.038 295.993 423.671 294.576 431.096 289.318L401.682 339.68C401.604 339.758 388.939 358.51 366.754 358.51Z" fill="white"/>
<path d="M373.464 281.276L395.57 295.213L395.843 295.395L396.142 295.525C396.377 295.63 402.059 297.945 409.965 297.945C414.582 297.945 420.069 297.165 425.713 294.64L400.043 338.586C399.198 339.809 387.286 356.571 366.741 356.571C356.716 356.571 346.104 352.601 335.168 344.768L373.464 281.276ZM442.266 274.04C432.293 290.464 419.354 294.029 409.978 294.029C402.761 294.029 397.651 291.907 397.651 291.907L372.176 275.849L330.006 345.769C344.128 356.662 356.442 360.448 366.754 360.448C390.317 360.448 403.359 340.642 403.359 340.642L442.266 274.04Z" fill="#96BD89"/>
<path d="M394.478 269.798C394.478 269.798 410.525 275.472 397.664 291.907" stroke="black" stroke-width="1.2545" stroke-miterlimit="10" stroke-linecap="round" stroke-linejoin="round"/>
<path d="M371.683 274.352C371.683 274.352 393.541 294.38 405.635 294.25C417.728 294.12 431.915 291.231 440.29 276.786" stroke="black" stroke-width="1.2545" stroke-miterlimit="10" stroke-linecap="round" stroke-linejoin="round"/>
<path d="M374.361 300.275C374.361 300.275 389.368 313.6 406.129 309.32" stroke="black" stroke-width="1.2545" stroke-miterlimit="10" stroke-linecap="round" stroke-linejoin="round"/>
<path d="M390.122 320.199C390.122 320.199 397.989 326.106 408.991 320.524" stroke="black" stroke-width="1.2545" stroke-miterlimit="10" stroke-linecap="round" stroke-linejoin="round"/>
<path d="M353.919 328.41C353.919 328.41 372.072 346.486 400.668 334.565" stroke="black" stroke-width="1.2545" stroke-miterlimit="10" stroke-linecap="round" stroke-linejoin="round"/>
<path d="M363.802 310.776C363.802 310.776 371.214 316.073 375.857 317.765" stroke="black" stroke-width="1.2545" stroke-miterlimit="10" stroke-linecap="round" stroke-linejoin="round"/>
<path d="M419.679 239.177C419.679 239.177 436.258 244.604 438.248 266.493" stroke="black" stroke-width="1.2545" stroke-miterlimit="10" stroke-linecap="round" stroke-linejoin="round"/>
<path d="M428.015 266.232C428.015 266.232 435.647 278.048 422.747 289.878" stroke="black" stroke-width="1.2545" stroke-miterlimit="10" stroke-linecap="round" stroke-linejoin="round"/>
<path d="M331.54 349.075C331.54 349.075 373.165 384.758 403.385 343.037" stroke="black" stroke-width="1.2545" stroke-miterlimit="10" stroke-linecap="round" stroke-linejoin="round"/>
<path d="M31.0512 213.19H40.752" stroke="#FF6D66" stroke-width="1.2545" stroke-miterlimit="10" stroke-linecap="round" stroke-linejoin="round"/>
<path d="M571.679 96.3692H581.38" stroke="#FF6D66" stroke-width="1.2545" stroke-miterlimit="10" stroke-linecap="round" stroke-linejoin="round"/>
<path d="M311.411 29.741H321.124" stroke="#FAD8B0" stroke-width="1.2545" stroke-miterlimit="10"/>
<path d="M590.209 146.744L599.753 148.462" stroke="#FAD8B0" stroke-width="1.2545" stroke-miterlimit="10"/>
<path d="M208.967 389.091H218.681" stroke="#A0C6F4" stroke-width="1.2545" stroke-miterlimit="10" stroke-linecap="round" stroke-linejoin="round"/>
<path d="M611.119 271.23C612.893 271.23 614.331 269.791 614.331 268.016C614.331 266.24 612.893 264.8 611.119 264.8C609.345 264.8 607.908 266.24 607.908 268.016C607.908 269.791 609.345 271.23 611.119 271.23Z" fill="#91BA83"/>
<path d="M7.24144 116.865C9.01533 116.865 10.4533 115.426 10.4533 113.651C10.4533 111.876 9.01533 110.437 7.24144 110.437C5.46755 110.437 4.02953 111.876 4.02953 113.651C4.02953 115.426 5.46755 116.865 7.24144 116.865Z" fill="#91BA83"/>
</g>
<defs>
<filter id="filter0_d_5_57872" x="0" y="0" width="619" height="478" filterUnits="userSpaceOnUse" color-interpolation-filters="sRGB">
<feFlood flood-opacity="0" result="BackgroundImageFix"/>
<feColorMatrix in="SourceAlpha" type="matrix" values="0 0 0 0 0 0 0 0 0 0 0 0 0 0 0 0 0 0 127 0" result="hardAlpha"/>
<feOffset dy="4"/>
<feGaussianBlur stdDeviation="2"/>
<feComposite in2="hardAlpha" operator="out"/>
<feColorMatrix type="matrix" values="0 0 0 0 0 0 0 0 0 0 0 0 0 0 0 0 0 0 0.25 0"/>
<feBlend mode="normal" in2="BackgroundImageFix" result="effect1_dropShadow_5_57872"/>
<feBlend mode="normal" in="SourceGraphic" in2="effect1_dropShadow_5_57872" result="shape"/>
</filter>
</defs>
</svg>
