<svg width="171" height="69" viewBox="0 0 171 69" fill="none" xmlns="http://www.w3.org/2000/svg">
<g clip-path="url(#clip0_39_12977)" filter="url(#filter0_d_39_12977)">
<path d="M74.6644 38.7788L73.3161 35.3494H64.8744L63.5554 38.7788H58.2794L66.7504 18.8472H71.4988L79.9404 38.7788H74.6644ZM66.4866 31.2165H71.704L69.0953 24.5042L66.4866 31.2165ZM95.1147 18.8472H100.039V38.7788H95.1147V31.3044H86.9955V38.7788H82.0419V18.8472H86.9955V26.8491H95.1147V18.8472ZM117.226 18.8472H122.708L114.852 32.77V38.7788H109.869V32.77L101.985 18.8472H107.466L112.331 27.5233L117.226 18.8472ZM129.588 34.3528H139.437V38.7788H124.635V18.8472H129.588V34.3528ZM141.781 18.8472H146.734V38.7788H141.781V18.8472ZM157.112 34.4114H166.756V38.7788H149.491V36.4339L159.369 23.2145H149.99V18.8472H166.58V21.1921L157.112 34.4114Z" fill="white"/>
<path d="M63.4053 51.0256L63.6154 52.7183C63.0317 52.9634 62.4247 52.9984 62.0978 52.9984C60.5569 52.9984 59.623 51.9945 59.623 50.4652V48.8076H58.514V47.1849H59.623V45.2588H61.5142V47.1849H63.4403V48.8076H61.5142V50.4069C61.5142 50.9906 61.8527 51.2591 62.4014 51.2591C62.7632 51.2591 63.0668 51.154 63.4053 51.0256ZM67.0606 47.0332C69.0568 47.0332 70.2592 48.4574 69.979 50.4652H65.8816C66.01 51.0489 66.3952 51.5042 67.1657 51.5042C67.5859 51.5042 67.8311 51.4108 68.0062 51.2007H69.9207C69.5821 52.3097 68.5315 52.9984 67.2007 52.9984C65.3446 52.9984 64.1072 51.7377 64.1072 50.01C64.1072 48.2939 65.3096 47.0332 67.0606 47.0332ZM67.1073 48.434C66.4419 48.434 66.0567 48.8076 65.9049 49.3796H68.263C68.158 48.7259 67.7494 48.434 67.1073 48.434ZM73.9042 51.3991C74.4762 51.3991 74.9198 51.0373 75.0132 50.5236H76.7993C76.6592 51.9828 75.4568 52.9984 73.8926 52.9984C72.1182 52.9984 70.799 51.7377 70.799 50.01C70.799 48.2939 72.1182 47.0332 73.8926 47.0332C75.4568 47.0332 76.6592 48.0488 76.7993 49.508H75.0132C74.9198 48.9944 74.4762 48.6325 73.9042 48.6325C73.0871 48.6325 72.6085 49.2395 72.6085 50.01C72.6085 50.7804 73.0871 51.3991 73.9042 51.3991ZM81.2487 47.0332C82.6729 47.0332 83.6535 48.0021 83.6535 49.6131V52.8467H81.7624V49.9166C81.7624 49.1111 81.3538 48.7492 80.7234 48.7492C80.3849 48.7492 80.023 48.9243 79.6961 49.2862V52.8467H77.7933V44.5584H79.6961V47.5585C80.1514 47.22 80.6417 47.0332 81.2487 47.0332ZM88.3282 47.0332C89.7524 47.0332 90.7329 48.0021 90.7329 49.6131V52.8467H88.8418V49.9166C88.8418 49.1111 88.4332 48.7492 87.8028 48.7492C87.4643 48.7492 87.1024 48.9243 86.7756 49.2862V52.8467H84.8728V47.1849H86.7756V47.5585C87.2308 47.22 87.7211 47.0332 88.3282 47.0332ZM94.8123 47.0332C96.6334 47.0332 97.9175 48.2823 97.9175 50.0216C97.9175 51.7727 96.6334 52.9984 94.8123 52.9984C92.9912 52.9984 91.6954 51.7727 91.6954 50.0216C91.6954 48.2823 92.9912 47.0332 94.8123 47.0332ZM94.8123 51.4225C95.5944 51.4225 96.1431 50.8505 96.1431 50.0216C96.1431 49.2045 95.5944 48.6208 94.8123 48.6208C94.0184 48.6208 93.4698 49.2045 93.4698 50.0216C93.4698 50.8505 94.0184 51.4225 94.8123 51.4225ZM98.9063 44.5584H100.809V52.8467H98.9063V44.5584ZM104.913 47.0332C106.734 47.0332 108.018 48.2823 108.018 50.0216C108.018 51.7727 106.734 52.9984 104.913 52.9984C103.092 52.9984 101.796 51.7727 101.796 50.0216C101.796 48.2823 103.092 47.0332 104.913 47.0332ZM104.913 51.4225C105.695 51.4225 106.244 50.8505 106.244 50.0216C106.244 49.2045 105.695 48.6208 104.913 48.6208C104.119 48.6208 103.57 49.2045 103.57 50.0216C103.57 50.8505 104.119 51.4225 104.913 51.4225ZM113.059 47.1849H114.95V52.8817C114.95 54.6561 113.689 55.6834 111.915 55.6834C110.199 55.6834 108.95 54.7028 108.856 53.2319H110.724C110.818 53.7572 111.214 54.0841 111.915 54.0841C112.557 54.0841 113.059 53.6872 113.059 52.9167V52.2396C112.639 52.4965 112.137 52.6482 111.506 52.6482C109.977 52.6482 108.693 51.4458 108.693 49.9166C108.693 48.1889 109.977 47.0332 111.506 47.0332C112.137 47.0332 112.639 47.1966 113.059 47.4651V47.1849ZM111.891 51.1423C112.3 51.1423 112.697 51.0139 113.059 50.6053V49.1111C112.697 48.7025 112.3 48.5858 111.891 48.5858C111.121 48.5858 110.549 49.0994 110.549 49.9166C110.549 50.5353 111.121 51.1423 111.891 51.1423ZM117.343 46.2977C116.725 46.2977 116.234 45.8425 116.234 45.2354C116.234 44.6167 116.725 44.1615 117.343 44.1615C117.95 44.1615 118.452 44.6167 118.452 45.2354C118.452 45.8425 117.95 46.2977 117.343 46.2977ZM116.409 47.1849H118.301V52.8467H116.409V47.1849ZM122.408 47.0332C124.404 47.0332 125.607 48.4574 125.326 50.4652H121.229C121.357 51.0489 121.743 51.5042 122.513 51.5042C122.933 51.5042 123.178 51.4108 123.354 51.2007H125.268C124.93 52.3097 123.879 52.9984 122.548 52.9984C120.692 52.9984 119.455 51.7377 119.455 50.01C119.455 48.2939 120.657 47.0332 122.408 47.0332ZM122.455 48.434C121.789 48.434 121.404 48.8076 121.252 49.3796H123.61C123.505 48.7259 123.097 48.434 122.455 48.434ZM127.665 50.9088C127.747 51.3991 128.19 51.6093 128.786 51.6093C129.287 51.6093 129.603 51.4692 129.603 51.224C129.603 51.0256 129.381 50.8855 129.007 50.8271L127.863 50.6287C126.894 50.4652 126.206 49.9166 126.206 48.9243C126.206 47.7336 127.221 47.0332 128.727 47.0332C130.07 47.0332 131.284 47.4885 131.365 48.9827H129.696C129.661 48.5624 129.252 48.3757 128.727 48.3757C128.237 48.3757 128.015 48.5508 128.015 48.7609C128.015 48.9593 128.155 49.1344 128.61 49.2162L129.661 49.3913C130.712 49.5897 131.424 50.1034 131.424 51.1073C131.424 52.4148 130.256 52.9984 128.774 52.9984C127.315 52.9984 126.112 52.4031 125.984 50.8972L127.665 50.9088Z" fill="white"/>
<path fill-rule="evenodd" clip-rule="evenodd" d="M26.0654 42.4391L30.495 49.6279H22.0366L26.0654 42.4391Z" fill="white"/>
<path fill-rule="evenodd" clip-rule="evenodd" d="M59.8574 24.759L66.4877 14.6504H58.5065C58.7044 14.9865 58.8953 15.3271 59.0797 15.6719C58.8491 15.3261 58.6117 14.9853 58.367 14.6504H32.7285L36.9841 24.759H40.7781V33.7686L51.896 60.1733H52.092V24.759H59.8574Z" fill="white"/>
<path fill-rule="evenodd" clip-rule="evenodd" d="M8.61871 43.1481L15.846 53.8323L26.1345 27.9045L26.1877 28.038L26.2655 27.8386L32.1127 42.8553L32.1575 42.9678L39.1443 60.4409H50.9686L31.6882 14.6504H20.9097L8.61871 43.1481Z" fill="white"/>
<path fill-rule="evenodd" clip-rule="evenodd" d="M14.6401 10.6493L14.9196 6.67218C8.78846 11.9493 4.90656 19.767 4.90656 28.4908C4.90656 34.3819 6.67649 39.8594 9.71372 44.4209C7.55646 40.3841 6.33301 35.7726 6.33301 30.8755C6.33301 22.9909 9.50411 15.8471 14.6401 10.6493Z" fill="white"/>
<path fill-rule="evenodd" clip-rule="evenodd" d="M15.6032 6.71424L15.4503 10.475C20.6672 5.19568 26.3279 2.82455 35.1101 2.82455C43.8919 2.82455 53.1331 7.48236 58.367 14.6505C58.6117 14.9853 58.849 15.3261 59.0797 15.6719C58.8952 15.3271 58.7044 14.9865 58.5064 14.6505C50.0152 0.211095 28.7585 -4.60921 15.6032 6.71424Z" fill="white"/>
</g>
<defs>
<filter id="filter0_d_39_12977" x="0" y="0.75" width="171" height="68" filterUnits="userSpaceOnUse" color-interpolation-filters="sRGB">
<feFlood flood-opacity="0" result="BackgroundImageFix"/>
<feColorMatrix in="SourceAlpha" type="matrix" values="0 0 0 0 0 0 0 0 0 0 0 0 0 0 0 0 0 0 127 0" result="hardAlpha"/>
<feOffset dy="4"/>
<feGaussianBlur stdDeviation="2"/>
<feComposite in2="hardAlpha" operator="out"/>
<feColorMatrix type="matrix" values="0 0 0 0 0 0 0 0 0 0 0 0 0 0 0 0 0 0 0.25 0"/>
<feBlend mode="normal" in2="BackgroundImageFix" result="effect1_dropShadow_39_12977"/>
<feBlend mode="normal" in="SourceGraphic" in2="effect1_dropShadow_39_12977" result="shape"/>
</filter>
<clipPath id="clip0_39_12977">
<rect width="163" height="60" fill="white" transform="translate(4 0.75)"/>
</clipPath>
</defs>
</svg>
