<svg width="172" height="69" viewBox="0 0 172 69" fill="none" xmlns="http://www.w3.org/2000/svg">
<g filter="url(#filter0_d_14_60217)">
<path d="M74.6644 39.0288L73.3161 35.5994H64.8744L63.5554 39.0288H58.2794L66.7504 19.0972H71.4988L79.9404 39.0288H74.6644ZM66.4866 31.4665H71.704L69.0953 24.7542L66.4866 31.4665Z" fill="black"/>
<path d="M74.6644 39.0288L73.3161 35.5994H64.8744L63.5554 39.0288H58.2794L66.7504 19.0972H71.4988L79.9404 39.0288H74.6644ZM66.4866 31.4665H71.704L69.0953 24.7542L66.4866 31.4665Z" fill="url(#paint0_linear_14_60217)"/>
<path d="M95.1147 19.0972H100.039V39.0288H95.1147V31.5544H86.9955V39.0288H82.0419V19.0972H86.9955V27.0991H95.1147V19.0972Z" fill="black"/>
<path d="M95.1147 19.0972H100.039V39.0288H95.1147V31.5544H86.9955V39.0288H82.0419V19.0972H86.9955V27.0991H95.1147V19.0972Z" fill="url(#paint1_linear_14_60217)"/>
<path d="M117.226 19.0972H122.708L114.852 33.02V39.0288H109.869V33.02L101.985 19.0972H107.466L112.331 27.7733L117.226 19.0972Z" fill="black"/>
<path d="M117.226 19.0972H122.708L114.852 33.02V39.0288H109.869V33.02L101.985 19.0972H107.466L112.331 27.7733L117.226 19.0972Z" fill="url(#paint2_linear_14_60217)"/>
<path d="M129.588 34.6028H139.437V39.0288H124.635V19.0972H129.588V34.6028Z" fill="black"/>
<path d="M129.588 34.6028H139.437V39.0288H124.635V19.0972H129.588V34.6028Z" fill="url(#paint3_linear_14_60217)"/>
<path d="M141.781 19.0972H146.734V39.0288H141.781V19.0972Z" fill="black"/>
<path d="M141.781 19.0972H146.734V39.0288H141.781V19.0972Z" fill="url(#paint4_linear_14_60217)"/>
<path d="M157.112 34.6614H166.756V39.0288H149.491V36.6839L159.369 23.4645H149.99V19.0972H166.58V21.4421L157.112 34.6614Z" fill="black"/>
<path d="M157.112 34.6614H166.756V39.0288H149.491V36.6839L159.369 23.4645H149.99V19.0972H166.58V21.4421L157.112 34.6614Z" fill="url(#paint5_linear_14_60217)"/>
<path d="M61.4791 50.248V46.2322L59.9499 46.2673C59.3545 46.2789 59.1094 46.349 58.9576 46.5708C58.8526 46.7109 58.8059 46.8393 58.7825 46.9093C58.7592 46.991 58.7358 47.0377 58.6658 47.0377C58.5957 47.0377 58.5724 46.9794 58.5724 46.8743C58.5724 46.7109 58.7708 45.7536 58.7942 45.6719C58.8175 45.5435 58.8526 45.4851 58.9109 45.4851C58.9926 45.4851 59.0977 45.5668 59.3545 45.6019C59.658 45.6369 60.0433 45.6486 60.3818 45.6486H64.5493C64.8762 45.6486 65.098 45.6252 65.2497 45.6019C65.4132 45.5785 65.4949 45.5552 65.5299 45.5552C65.6 45.5552 65.6116 45.6135 65.6116 45.7653C65.6116 45.9754 65.5883 46.7109 65.5883 46.9677C65.5766 47.0728 65.5533 47.1311 65.4949 47.1311C65.4132 47.1311 65.3898 47.0844 65.3782 46.9327L65.3665 46.8276C65.3431 46.5708 65.0746 46.2673 64.1524 46.2556L62.8566 46.2322V50.248C62.8566 51.1585 62.8683 51.9407 62.915 52.3726C62.95 52.6528 63.0084 52.8396 63.3119 52.8862C63.452 52.9096 63.6855 52.9213 63.8372 52.9213C63.954 52.9213 64.0007 52.9796 64.0007 53.0263C64.0007 53.0964 63.9189 53.1314 63.8022 53.1314C63.1251 53.1314 62.4364 53.0964 62.1445 53.0964C61.9111 53.0964 61.2106 53.1314 60.8021 53.1314C60.6737 53.1314 60.6036 53.0964 60.6036 53.0263C60.6036 52.9796 60.6386 52.9213 60.767 52.9213C60.9188 52.9213 61.0472 52.9096 61.1289 52.8862C61.3391 52.8396 61.3974 52.6528 61.4324 52.3609C61.4791 51.9407 61.4791 51.1585 61.4791 50.248ZM68.9014 50.248V48.4969C68.9014 46.991 68.9014 46.7109 68.8897 46.3957C68.8664 46.0571 68.773 45.9521 68.4461 45.8587C68.3644 45.8353 68.1893 45.8237 68.0376 45.8237C67.9325 45.8237 67.8625 45.7886 67.8625 45.7186C67.8625 45.6486 67.9442 45.6252 68.0959 45.6252C68.6329 45.6252 69.2867 45.6486 69.5785 45.6486C69.9054 45.6486 72.1817 45.6602 72.3802 45.6486C72.567 45.6369 72.7304 45.6019 72.8121 45.5902C72.8705 45.5785 72.9288 45.5435 72.9755 45.5435C73.0339 45.5435 73.0456 45.5902 73.0456 45.6369C73.0456 45.7069 72.9872 45.8237 72.9639 46.2789C72.9522 46.384 72.9288 46.8159 72.9055 46.9327C72.8938 46.9794 72.8705 47.0961 72.7888 47.0961C72.7187 47.0961 72.707 47.0494 72.707 46.9677C72.707 46.8976 72.6954 46.7225 72.637 46.6058C72.5553 46.4307 72.4736 46.2906 71.9599 46.2439C71.7848 46.2206 70.5591 46.1972 70.349 46.1972C70.3023 46.1972 70.2789 46.2322 70.2789 46.2906V48.7421C70.2789 48.8005 70.2906 48.8472 70.349 48.8472C70.5824 48.8472 71.9132 48.8472 72.1467 48.8238C72.3919 48.8005 72.5436 48.7771 72.637 48.672C72.7187 48.602 72.7537 48.5436 72.8004 48.5436C72.8471 48.5436 72.8821 48.5903 72.8821 48.6487C72.8821 48.7071 72.8588 48.8705 72.8004 49.3725C72.7771 49.5709 72.7537 49.9678 72.7537 50.0379C72.7537 50.1196 72.7421 50.2597 72.6487 50.2597C72.5786 50.2597 72.5553 50.2246 72.5553 50.178C72.5436 50.0729 72.5436 49.9445 72.5203 49.8161C72.4619 49.6176 72.3335 49.4659 71.9483 49.4308C71.7615 49.4075 70.5941 49.3841 70.3373 49.3841C70.2906 49.3841 70.2789 49.4308 70.2789 49.4892V50.283C70.2789 50.6216 70.2672 51.4621 70.2789 51.7539C70.3023 52.431 70.6175 52.5827 71.6681 52.5827C71.9366 52.5827 72.3685 52.5711 72.637 52.4543C72.8938 52.3376 73.0106 52.1275 73.0806 51.7189C73.1039 51.6138 73.1273 51.5671 73.1973 51.5671C73.2791 51.5671 73.2907 51.6955 73.2907 51.8006C73.2907 52.0224 73.209 52.6995 73.1506 52.8979C73.0806 53.1547 72.9872 53.1547 72.602 53.1547C71.8315 53.1547 71.2128 53.1431 70.7108 53.1197C70.2089 53.108 69.8236 53.0964 69.5201 53.0964C69.4034 53.0964 69.1816 53.108 68.9364 53.108C68.6913 53.1197 68.4345 53.1314 68.2243 53.1314C68.0959 53.1314 68.0259 53.0964 68.0259 53.0263C68.0259 52.9796 68.0609 52.9213 68.1893 52.9213C68.3411 52.9213 68.4578 52.9096 68.5512 52.8862C68.7613 52.8396 68.8197 52.6528 68.8547 52.3609C68.9014 51.9407 68.9014 51.1585 68.9014 50.248ZM80.7172 53.2598C79.3164 53.2598 78.1256 52.968 77.1917 52.1858C76.1761 51.3336 75.9076 50.213 75.9076 49.2557C75.9076 48.5787 76.1294 47.4113 77.11 46.5358C77.8571 45.882 78.8377 45.4851 80.367 45.4851C81.009 45.4851 81.3943 45.5318 81.8612 45.5902C82.2464 45.6486 82.585 45.7186 82.8885 45.7536C83.0052 45.7653 83.0403 45.812 83.0403 45.8704C83.0403 45.9521 83.0169 46.0688 82.9936 46.419C82.9702 46.7459 82.9702 47.2946 82.9585 47.493C82.9469 47.6331 82.9118 47.7382 82.8185 47.7382C82.7367 47.7382 82.7134 47.6564 82.7134 47.528C82.7017 47.2128 82.5733 46.8626 82.3165 46.6058C81.9663 46.2673 81.2775 46.0221 80.332 46.0221C79.4331 46.0221 78.8611 46.1856 78.3941 46.5825C77.6353 47.2362 77.4486 48.1934 77.4486 49.1623C77.4486 51.5204 79.2697 52.6411 80.6472 52.6411C81.5577 52.6411 82.0597 52.5711 82.4682 52.1158C82.6434 51.9173 82.7834 51.6372 82.8185 51.4504C82.8418 51.2986 82.8652 51.2519 82.9469 51.2519C83.0169 51.2519 83.0636 51.3453 83.0636 51.427C83.0636 51.5438 82.9469 52.4076 82.8418 52.7462C82.7951 52.9213 82.7484 52.968 82.5733 53.038C82.1647 53.2014 81.3826 53.2598 80.7172 53.2598ZM88.1076 48.8588H91.9832C92.0066 48.8588 92.0416 48.8472 92.0416 48.7888V48.5787C92.0416 47.0728 92.0299 46.7109 92.0182 46.3957C91.9949 46.0571 91.9015 45.9521 91.5746 45.8587C91.4929 45.8353 91.3178 45.8237 91.1777 45.8237C91.061 45.8237 91.0026 45.7886 91.0026 45.7186C91.0026 45.6486 91.0727 45.6252 91.2244 45.6252C91.7731 45.6252 92.4969 45.6486 92.7654 45.6486C93.0105 45.6486 93.6876 45.6252 94.0845 45.6252C94.2362 45.6252 94.3063 45.6486 94.3063 45.7186C94.3063 45.7886 94.2362 45.8237 94.1195 45.8237C94.0378 45.8237 93.9444 45.8353 93.816 45.8587C93.5475 45.9054 93.4658 46.0455 93.4424 46.3957C93.4191 46.7109 93.4191 46.991 93.4191 48.4969V50.248C93.4191 51.1585 93.4191 51.9407 93.4658 52.3726C93.5008 52.6528 93.5592 52.8396 93.8744 52.8862C94.0144 52.9096 94.2362 52.9213 94.3997 52.9213C94.5047 52.9213 94.5631 52.9796 94.5631 53.0263C94.5631 53.0964 94.4814 53.1314 94.353 53.1314C93.6876 53.1314 93.0105 53.0964 92.7303 53.0964C92.4969 53.0964 91.7731 53.1314 91.3762 53.1314C91.2361 53.1314 91.1544 53.0964 91.1544 53.0263C91.1544 52.9796 91.2011 52.9213 91.3178 52.9213C91.4812 52.9213 91.598 52.9096 91.6914 52.8862C91.9015 52.8396 91.9599 52.6528 91.9949 52.3609C92.0416 51.9407 92.0416 51.1819 92.0416 50.2713V49.5126C92.0416 49.4775 92.0066 49.4542 91.9832 49.4542H88.1076C88.0725 49.4542 88.0375 49.4659 88.0375 49.5126V50.2713C88.0375 51.1819 88.0492 51.9407 88.0959 52.3726C88.1309 52.6528 88.1893 52.8396 88.4928 52.8862C88.6329 52.9096 88.8663 52.9213 89.0181 52.9213C89.1348 52.9213 89.1815 52.9796 89.1815 53.0263C89.1815 53.0964 89.0998 53.1314 88.9714 53.1314C88.306 53.1314 87.5939 53.0964 87.3021 53.0964C87.0686 53.0964 86.3915 53.1314 85.9829 53.1314C85.8545 53.1314 85.7845 53.0964 85.7845 53.0263C85.7845 52.9796 85.8195 52.9213 85.9479 52.9213C86.0997 52.9213 86.2164 52.9096 86.3098 52.8862C86.5199 52.8396 86.5783 52.6528 86.6133 52.3609C86.66 51.9407 86.66 51.1585 86.66 50.248V48.4969C86.66 46.991 86.66 46.7109 86.6483 46.3957C86.625 46.0571 86.5316 45.9521 86.2047 45.8587C86.123 45.8353 85.9479 45.8237 85.7962 45.8237C85.6911 45.8237 85.6211 45.7886 85.6211 45.7186C85.6211 45.6486 85.7028 45.6252 85.8429 45.6252C86.3915 45.6252 87.0686 45.6486 87.3488 45.6486C87.5939 45.6486 88.306 45.6252 88.7146 45.6252C88.8547 45.6252 88.9247 45.6486 88.9247 45.7186C88.9247 45.7886 88.8663 45.8237 88.7379 45.8237C88.6562 45.8237 88.5628 45.8353 88.4461 45.8587C88.1659 45.9054 88.0842 46.0455 88.0609 46.3957C88.0375 46.7109 88.0375 47.0728 88.0375 48.5787V48.7888C88.0375 48.8472 88.0725 48.8588 88.1076 48.8588ZM98.7094 47.7265L98.8262 51.7772C98.8495 52.5477 98.9779 52.7812 99.1764 52.8512C99.3515 52.9096 99.55 52.9213 99.7134 52.9213C99.8301 52.9213 99.8885 52.968 99.8885 53.0263C99.8885 53.108 99.7951 53.1314 99.655 53.1314C98.9896 53.1314 98.511 53.0964 98.3242 53.0964C98.2308 53.0964 97.7405 53.1314 97.2152 53.1314C97.0751 53.1314 96.9817 53.1197 96.9817 53.0263C96.9817 52.968 97.0518 52.9213 97.1452 52.9213C97.2853 52.9213 97.472 52.9096 97.6121 52.8746C97.8806 52.8045 97.9156 52.536 97.9273 51.6722L98.0207 45.7886C98.0207 45.5902 98.0907 45.4501 98.1958 45.4501C98.3242 45.4501 98.4643 45.6019 98.6394 45.777C98.7678 45.9054 100.309 47.4813 101.803 48.9405C102.503 49.6293 103.869 51.0301 104.021 51.1702H104.068L103.963 46.7576C103.951 46.1505 103.858 45.9754 103.612 45.882C103.461 45.8237 103.215 45.8237 103.075 45.8237C102.947 45.8237 102.912 45.777 102.912 45.7186C102.912 45.6369 103.017 45.6252 103.169 45.6252C103.706 45.6252 104.254 45.6486 104.476 45.6486C104.593 45.6486 104.978 45.6252 105.48 45.6252C105.62 45.6252 105.714 45.6369 105.714 45.7186C105.714 45.777 105.655 45.8237 105.539 45.8237C105.433 45.8237 105.352 45.8237 105.223 45.8587C104.943 45.9404 104.861 46.1155 104.85 46.6758L104.733 52.9329C104.733 53.1547 104.651 53.2481 104.57 53.2481C104.395 53.2481 104.254 53.1431 104.149 53.038C103.507 52.4426 102.223 51.2169 101.149 50.178C100.029 49.104 98.9429 47.9016 98.7445 47.7265H98.7094ZM112.368 53.2598C109.38 53.2598 108.166 51.1352 108.166 49.3725C108.166 47.6798 109.356 45.4851 112.473 45.4851C115.065 45.4851 116.676 46.921 116.676 49.1974C116.676 51.4737 115.018 53.2598 112.368 53.2598ZM112.789 52.7228C113.512 52.7228 115.147 52.3843 115.147 49.5592C115.147 47.3646 113.828 46.0104 112.17 46.0104C111.026 46.0104 109.683 46.6175 109.683 49.069C109.683 51.1118 110.851 52.7228 112.789 52.7228ZM121.367 48.4969V50.248C121.367 51.5204 121.367 52.1508 121.589 52.3376C121.764 52.4893 122.161 52.5477 122.955 52.5477C123.504 52.5477 123.9 52.536 124.157 52.2675C124.286 52.1391 124.391 51.859 124.414 51.6722C124.426 51.5788 124.449 51.5204 124.531 51.5204C124.601 51.5204 124.624 51.6255 124.624 51.7422C124.624 51.859 124.554 52.5944 124.472 52.8862C124.402 53.108 124.356 53.1547 123.819 53.1547C123.083 53.1547 122.488 53.1431 121.974 53.1197C121.461 53.108 121.029 53.0964 120.608 53.0964C120.492 53.0964 120.27 53.108 120.025 53.108C119.78 53.1197 119.523 53.1314 119.313 53.1314C119.184 53.1314 119.114 53.0964 119.114 53.0263C119.114 52.9796 119.149 52.9213 119.278 52.9213C119.429 52.9213 119.546 52.9096 119.64 52.8862C119.85 52.8396 119.908 52.6528 119.943 52.3609C119.99 51.9407 119.99 51.1585 119.99 50.248V48.4969C119.99 46.991 119.99 46.7109 119.978 46.3957C119.955 46.0571 119.861 45.9521 119.534 45.8587C119.453 45.8353 119.324 45.8237 119.196 45.8237C119.079 45.8237 119.021 45.7886 119.021 45.7186C119.021 45.6486 119.091 45.6252 119.243 45.6252C119.721 45.6252 120.375 45.6486 120.655 45.6486C120.9 45.6486 121.741 45.6252 122.138 45.6252C122.289 45.6252 122.36 45.6486 122.36 45.7186C122.36 45.7886 122.301 45.8237 122.173 45.8237C122.056 45.8237 121.893 45.8353 121.776 45.8587C121.496 45.9054 121.414 46.0455 121.391 46.3957C121.367 46.7109 121.367 46.991 121.367 48.4969ZM130.685 53.2598C127.697 53.2598 126.483 51.1352 126.483 49.3725C126.483 47.6798 127.674 45.4851 130.791 45.4851C133.382 45.4851 134.993 46.921 134.993 49.1974C134.993 51.4737 133.335 53.2598 130.685 53.2598ZM131.106 52.7228C131.83 52.7228 133.464 52.3843 133.464 49.5592C133.464 47.3646 132.145 46.0104 130.487 46.0104C129.343 46.0104 128.001 46.6175 128.001 49.069C128.001 51.1118 129.168 52.7228 131.106 52.7228ZM144.929 51.3687V52.466C144.929 52.7345 144.929 52.7462 144.801 52.8162C144.112 53.1547 143.096 53.2598 142.291 53.2598C139.769 53.2598 137.54 52.1158 137.54 49.3725C137.54 47.7848 138.392 46.6758 139.337 46.1272C140.318 45.5552 141.24 45.4851 142.104 45.4851C142.816 45.4851 143.715 45.6019 143.925 45.6486C144.135 45.6836 144.497 45.742 144.742 45.7536C144.859 45.7653 144.882 45.8003 144.882 45.8704C144.882 45.9871 144.812 46.2556 144.812 47.5047C144.812 47.6564 144.754 47.7265 144.672 47.7265C144.602 47.7265 144.579 47.6798 144.567 47.5981C144.544 47.3763 144.486 47.0611 144.217 46.7809C143.914 46.4657 143.143 46.0221 141.987 46.0221C141.427 46.0221 140.715 46.0338 140.003 46.6058C139.431 47.0728 139.057 47.8082 139.057 49.0223C139.057 51.1585 140.435 52.7111 142.629 52.7111C142.898 52.7111 143.108 52.7111 143.353 52.6061C143.505 52.536 143.552 52.431 143.552 52.2559V51.3453C143.552 50.855 143.552 50.4815 143.54 50.178C143.528 49.8394 143.423 49.7344 143.096 49.641C143.015 49.6176 142.84 49.6059 142.699 49.6059C142.606 49.6059 142.536 49.5592 142.536 49.5009C142.536 49.4192 142.618 49.4075 142.758 49.4075C143.295 49.4075 144.03 49.4308 144.334 49.4308C144.661 49.4308 145.198 49.4075 145.536 49.4075C145.676 49.4075 145.746 49.4192 145.746 49.5009C145.746 49.5592 145.688 49.6059 145.618 49.6059C145.536 49.6059 145.454 49.6176 145.338 49.641C145.058 49.6877 144.952 49.8277 144.941 50.178C144.929 50.4815 144.929 50.8784 144.929 51.3687ZM149.204 50.248V48.4969C149.204 46.991 149.204 46.7109 149.192 46.3957C149.169 46.0571 149.064 45.9404 148.842 45.8704C148.725 45.8353 148.597 45.8237 148.469 45.8237C148.364 45.8237 148.305 45.8003 148.305 45.7069C148.305 45.6486 148.387 45.6252 148.55 45.6252C148.936 45.6252 149.636 45.6486 149.928 45.6486C150.185 45.6486 150.85 45.6252 151.247 45.6252C151.375 45.6252 151.457 45.6486 151.457 45.7069C151.457 45.8003 151.399 45.8237 151.294 45.8237C151.189 45.8237 151.107 45.8353 150.99 45.8587C150.71 45.9054 150.628 46.0455 150.605 46.3957C150.582 46.7109 150.582 46.991 150.582 48.4969V50.248C150.582 51.2052 150.582 51.999 150.628 52.4193C150.663 52.6878 150.733 52.8396 151.037 52.8862C151.177 52.9096 151.41 52.9213 151.562 52.9213C151.679 52.9213 151.726 52.9796 151.726 53.0263C151.726 53.0964 151.644 53.1314 151.527 53.1314C150.85 53.1314 150.15 53.0964 149.869 53.0964C149.636 53.0964 148.936 53.1314 148.527 53.1314C148.399 53.1314 148.329 53.0964 148.329 53.0263C148.329 52.9796 148.364 52.9213 148.492 52.9213C148.644 52.9213 148.76 52.9096 148.854 52.8862C149.064 52.8396 149.122 52.6995 149.157 52.4076C149.204 51.999 149.204 51.2052 149.204 50.248ZM155.359 50.248V48.4969C155.359 46.991 155.359 46.7109 155.347 46.3957C155.324 46.0571 155.23 45.9521 154.903 45.8587C154.822 45.8353 154.647 45.8237 154.495 45.8237C154.39 45.8237 154.32 45.7886 154.32 45.7186C154.32 45.6486 154.402 45.6252 154.553 45.6252C155.09 45.6252 155.744 45.6486 156.036 45.6486C156.363 45.6486 158.639 45.6602 158.838 45.6486C159.024 45.6369 159.188 45.6019 159.269 45.5902C159.328 45.5785 159.386 45.5435 159.433 45.5435C159.491 45.5435 159.503 45.5902 159.503 45.6369C159.503 45.7069 159.445 45.8237 159.421 46.2789C159.41 46.384 159.386 46.8159 159.363 46.9327C159.351 46.9794 159.328 47.0961 159.246 47.0961C159.176 47.0961 159.164 47.0494 159.164 46.9677C159.164 46.8976 159.153 46.7225 159.094 46.6058C159.013 46.4307 158.931 46.2906 158.417 46.2439C158.242 46.2206 157.016 46.1972 156.806 46.1972C156.76 46.1972 156.736 46.2322 156.736 46.2906V48.7421C156.736 48.8005 156.748 48.8472 156.806 48.8472C157.04 48.8472 158.371 48.8472 158.604 48.8238C158.849 48.8005 159.001 48.7771 159.094 48.672C159.176 48.602 159.211 48.5436 159.258 48.5436C159.304 48.5436 159.339 48.5903 159.339 48.6487C159.339 48.7071 159.316 48.8705 159.258 49.3725C159.234 49.5709 159.211 49.9678 159.211 50.0379C159.211 50.1196 159.199 50.2597 159.106 50.2597C159.036 50.2597 159.013 50.2246 159.013 50.178C159.001 50.0729 159.001 49.9445 158.978 49.8161C158.919 49.6176 158.791 49.4659 158.406 49.4308C158.219 49.4075 157.051 49.3841 156.795 49.3841C156.748 49.3841 156.736 49.4308 156.736 49.4892V50.283C156.736 50.6216 156.725 51.4621 156.736 51.7539C156.76 52.431 157.075 52.5827 158.125 52.5827C158.394 52.5827 158.826 52.5711 159.094 52.4543C159.351 52.3376 159.468 52.1275 159.538 51.7189C159.561 51.6138 159.585 51.5671 159.655 51.5671C159.736 51.5671 159.748 51.6955 159.748 51.8006C159.748 52.0224 159.666 52.6995 159.608 52.8979C159.538 53.1547 159.445 53.1547 159.059 53.1547C158.289 53.1547 157.67 53.1431 157.168 53.1197C156.666 53.108 156.281 53.0964 155.977 53.0964C155.861 53.0964 155.639 53.108 155.394 53.108C155.149 53.1197 154.892 53.1314 154.682 53.1314C154.553 53.1314 154.483 53.0964 154.483 53.0263C154.483 52.9796 154.518 52.9213 154.647 52.9213C154.798 52.9213 154.915 52.9096 155.009 52.8862C155.219 52.8396 155.277 52.6528 155.312 52.3609C155.359 51.9407 155.359 51.1585 155.359 50.248ZM164.595 53.2598C163.999 53.2598 163.369 53.2014 162.925 53.003C162.762 52.9329 162.727 52.8862 162.727 52.6644C162.727 52.1275 162.774 51.5088 162.785 51.3453C162.785 51.1936 162.832 51.0885 162.914 51.0885C163.007 51.0885 163.019 51.1819 163.019 51.2519C163.019 51.3803 163.054 51.5905 163.112 51.7656C163.334 52.501 164.104 52.7462 164.746 52.7462C165.634 52.7462 166.171 52.1858 166.171 51.4854C166.171 51.0535 166.066 50.6216 165.155 50.0846L164.56 49.7344C163.346 49.0223 162.949 48.3569 162.949 47.4813C162.949 46.2673 164.116 45.4851 165.54 45.4851C166.206 45.4851 166.731 45.5785 166.999 45.6486C167.093 45.6719 167.14 45.7069 167.14 45.777C167.14 45.9054 167.104 46.1856 167.104 46.9677C167.104 47.1778 167.058 47.2829 166.976 47.2829C166.906 47.2829 166.871 47.2245 166.871 47.1078C166.871 47.0144 166.824 46.7109 166.603 46.454C166.451 46.2673 166.124 45.9871 165.458 45.9871C164.723 45.9871 164.058 46.3723 164.058 47.0494C164.058 47.493 164.221 47.8432 165.143 48.3569L165.564 48.5903C166.918 49.3374 167.338 50.0962 167.338 50.9951C167.338 51.7306 167.058 52.3259 166.311 52.8512C165.82 53.2014 165.143 53.2598 164.595 53.2598Z" fill="#4F45E2"/>
<path fill-rule="evenodd" clip-rule="evenodd" d="M26.0654 42.689L30.495 49.8778H22.0366L26.0654 42.689Z" fill="#4F45E2"/>
<path fill-rule="evenodd" clip-rule="evenodd" d="M59.8574 25.0088L66.4877 14.9003H58.5065C58.7044 15.2364 58.8953 15.577 59.0797 15.9217C58.8491 15.576 58.6117 15.2352 58.367 14.9003H32.7285L36.9841 25.0088H40.7781V34.0185L51.896 60.4232H52.092V25.0088H59.8574Z" fill="url(#paint6_linear_14_60217)"/>
<path fill-rule="evenodd" clip-rule="evenodd" d="M8.61871 43.398L15.846 54.0822L26.1345 28.1544L26.1877 28.2879L26.2655 28.0884L32.1127 43.1052L32.1575 43.2177L39.1443 60.6908H50.9686L31.6882 14.9003H20.9097L8.61871 43.398Z" fill="#4F45E2"/>
<path fill-rule="evenodd" clip-rule="evenodd" d="M14.6401 10.8991L14.9196 6.92205C8.78846 12.1992 4.90656 20.0169 4.90656 28.7407C4.90656 34.6318 6.67649 40.1093 9.71372 44.6708C7.55646 40.634 6.33301 36.0225 6.33301 31.1254C6.33301 23.2408 9.50411 16.097 14.6401 10.8991Z" fill="#4F45E2"/>
<path fill-rule="evenodd" clip-rule="evenodd" d="M15.6032 6.96412L15.4503 10.7249C20.6672 5.44556 26.3279 3.07443 35.1101 3.07443C43.8919 3.07443 53.1331 7.73224 58.367 14.9003C58.6117 15.2352 58.849 15.576 59.0797 15.9218C58.8952 15.577 58.7044 15.2364 58.5064 14.9003C50.0152 0.460973 28.7585 -4.35933 15.6032 6.96412Z" fill="black"/>
<path fill-rule="evenodd" clip-rule="evenodd" d="M15.6032 6.96412L15.4503 10.7249C20.6672 5.44556 26.3279 3.07443 35.1101 3.07443C43.8919 3.07443 53.1331 7.73224 58.367 14.9003C58.6117 15.2352 58.849 15.576 59.0797 15.9218C58.8952 15.577 58.7044 15.2364 58.5064 14.9003C50.0152 0.460973 28.7585 -4.35933 15.6032 6.96412Z" fill="url(#paint7_linear_14_60217)"/>
</g>
<defs>
<filter id="filter0_d_14_60217" x="0.906555" y="0.690826" width="170.431" height="68" filterUnits="userSpaceOnUse" color-interpolation-filters="sRGB">
<feFlood flood-opacity="0" result="BackgroundImageFix"/>
<feColorMatrix in="SourceAlpha" type="matrix" values="0 0 0 0 0 0 0 0 0 0 0 0 0 0 0 0 0 0 127 0" result="hardAlpha"/>
<feOffset dy="4"/>
<feGaussianBlur stdDeviation="2"/>
<feComposite in2="hardAlpha" operator="out"/>
<feColorMatrix type="matrix" values="0 0 0 0 0 0 0 0 0 0 0 0 0 0 0 0 0 0 0.25 0"/>
<feBlend mode="normal" in2="BackgroundImageFix" result="effect1_dropShadow_14_60217"/>
<feBlend mode="normal" in="SourceGraphic" in2="effect1_dropShadow_14_60217" result="shape"/>
</filter>
<linearGradient id="paint0_linear_14_60217" x1="165.189" y1="38.9852" x2="59.1518" y2="38.9852" gradientUnits="userSpaceOnUse">
<stop stop-color="#9C9D9F"/>
<stop offset="1" stop-color="#C6C7C9"/>
</linearGradient>
<linearGradient id="paint1_linear_14_60217" x1="165.189" y1="38.9852" x2="59.1518" y2="38.9852" gradientUnits="userSpaceOnUse">
<stop stop-color="#9C9D9F"/>
<stop offset="1" stop-color="#C6C7C9"/>
</linearGradient>
<linearGradient id="paint2_linear_14_60217" x1="165.189" y1="38.9852" x2="59.1518" y2="38.9852" gradientUnits="userSpaceOnUse">
<stop stop-color="#9C9D9F"/>
<stop offset="1" stop-color="#C6C7C9"/>
</linearGradient>
<linearGradient id="paint3_linear_14_60217" x1="165.189" y1="38.9852" x2="59.1518" y2="38.9852" gradientUnits="userSpaceOnUse">
<stop stop-color="#9C9D9F"/>
<stop offset="1" stop-color="#C6C7C9"/>
</linearGradient>
<linearGradient id="paint4_linear_14_60217" x1="165.189" y1="38.9852" x2="59.1518" y2="38.9852" gradientUnits="userSpaceOnUse">
<stop stop-color="#9C9D9F"/>
<stop offset="1" stop-color="#C6C7C9"/>
</linearGradient>
<linearGradient id="paint5_linear_14_60217" x1="165.189" y1="38.9852" x2="59.1518" y2="38.9852" gradientUnits="userSpaceOnUse">
<stop stop-color="#9C9D9F"/>
<stop offset="1" stop-color="#C6C7C9"/>
</linearGradient>
<linearGradient id="paint6_linear_14_60217" x1="66" y1="15" x2="33" y2="15" gradientUnits="userSpaceOnUse">
<stop stop-color="#9C9D9F"/>
<stop offset="1" stop-color="#C6C7C9"/>
</linearGradient>
<linearGradient id="paint7_linear_14_60217" x1="58.4494" y1="0.724184" x2="15.8011" y2="0.724187" gradientUnits="userSpaceOnUse">
<stop stop-color="#9C9D9F"/>
<stop offset="1" stop-color="#C6C7C9"/>
</linearGradient>
</defs>
</svg>
