<svg width="118" height="16" viewBox="0 0 118 16" fill="none" xmlns="http://www.w3.org/2000/svg">
<path d="M6.51981 10.16C8.11981 10.16 9.20781 9.248 9.60781 7.648H11.8478C11.3518 10.416 9.28781 12.192 6.51981 12.192C3.38381 12.192 0.855813 9.856 0.855813 6.56C0.855813 3.264 3.38381 0.927999 6.51981 0.927999C9.28781 0.927999 11.3518 2.704 11.8478 5.472H9.60781C9.20781 3.872 8.11981 2.96 6.51981 2.96C4.53581 2.96 3.06381 4.416 3.06381 6.56C3.06381 8.704 4.53581 10.16 6.51981 10.16ZM17.0868 4.176C19.4708 4.176 21.1348 5.824 21.1348 8.192C21.1348 10.544 19.4708 12.192 17.0868 12.192C14.6868 12.192 13.0228 10.544 13.0228 8.192C13.0228 5.824 14.6868 4.176 17.0868 4.176ZM17.0868 10.288C18.2388 10.288 19.0388 9.424 19.0388 8.192C19.0388 6.944 18.2388 6.08 17.0868 6.08C15.9188 6.08 15.1188 6.944 15.1188 8.192C15.1188 9.424 15.9188 10.288 17.0868 10.288ZM24.7212 5.248C25.4092 4.592 26.2892 4.24 27.4252 4.24V6.224C26.2412 6.288 25.3772 6.64 24.7212 7.376V12H22.6252V4.368H24.7212V5.248ZM30.1864 2.88C29.4664 2.88 28.9064 2.352 28.9064 1.648C28.9064 0.927999 29.4664 0.4 30.1864 0.4C30.8904 0.4 31.4664 0.927999 31.4664 1.648C31.4664 2.352 30.8904 2.88 30.1864 2.88ZM29.1464 4.368H31.2424V12H29.1464V4.368ZM34.8926 9.36C35.0206 10.224 35.6446 10.496 36.5406 10.496C37.3406 10.496 37.9006 10.288 37.9006 9.856C37.9006 9.552 37.6446 9.296 37.1166 9.2L35.4686 8.912C34.3486 8.72 33.2126 8.112 33.2126 6.672C33.2126 5.104 34.5406 4.16 36.4766 4.16C37.8526 4.16 39.6766 4.544 39.8526 6.736H37.9166C37.8686 6.048 37.2126 5.824 36.4766 5.824C35.6766 5.824 35.2926 6.096 35.2926 6.464C35.2926 6.752 35.5006 7.088 36.2366 7.216L37.6126 7.44C38.7966 7.648 39.9006 8.192 39.9006 9.664C39.9006 11.36 38.4286 12.192 36.4926 12.192C34.8126 12.192 33.1166 11.568 32.9566 9.344L34.8926 9.36ZM42.9551 9.36C43.0831 10.224 43.7071 10.496 44.6031 10.496C45.4031 10.496 45.9631 10.288 45.9631 9.856C45.9631 9.552 45.7071 9.296 45.1791 9.2L43.5311 8.912C42.4111 8.72 41.2751 8.112 41.2751 6.672C41.2751 5.104 42.6031 4.16 44.5391 4.16C45.9151 4.16 47.7391 4.544 47.9151 6.736H45.9791C45.9311 6.048 45.2751 5.824 44.5391 5.824C43.7391 5.824 43.3551 6.096 43.3551 6.464C43.3551 6.752 43.5631 7.088 44.2991 7.216L45.6751 7.44C46.8591 7.648 47.9631 8.192 47.9631 9.664C47.9631 11.36 46.4911 12.192 44.5551 12.192C42.8751 12.192 41.1791 11.568 41.0191 9.344L42.9551 9.36ZM62.1818 12L61.2858 9.824H56.2778L55.3818 12H53.0458L57.7658 1.12H59.7978L64.5018 12H62.1818ZM57.0618 7.888H60.4858L58.7738 3.728L57.0618 7.888ZM74.9171 4.176C76.9811 4.176 78.4211 5.456 78.4211 7.76V12H76.3251V7.76C76.3251 6.576 75.7011 6.08 74.7731 6.08C74.1971 6.08 73.6051 6.272 73.1091 6.88C73.1411 7.12 73.1571 7.36 73.1571 7.632V12H71.0611V7.632C71.0611 6.464 70.4371 6.08 69.6371 6.08C68.9811 6.08 68.3891 6.336 67.8931 6.976V12H65.7971V4.368H67.8931V4.88C68.4051 4.448 68.9971 4.176 69.9091 4.176C70.9171 4.176 71.7651 4.496 72.3411 5.136C73.0931 4.496 73.8771 4.176 74.9171 4.176ZM84.6163 4.176C86.7283 4.176 88.4243 5.968 88.4243 8.176C88.4243 10.4 86.7283 12.192 84.6163 12.192C83.7683 12.192 83.0163 11.952 82.4243 11.568V12H80.3283V0.639999H82.4243V4.8C83.0163 4.416 83.7683 4.176 84.6163 4.176ZM84.2963 10.288C85.4963 10.288 86.3283 9.328 86.3283 8.176C86.3283 7.04 85.4963 6.08 84.2963 6.08C83.6083 6.08 82.9203 6.272 82.4243 6.976V9.392C82.9203 10.096 83.6083 10.288 84.2963 10.288ZM95.7103 4.368H97.8063V12H95.7103V11.568C95.1183 11.952 94.3663 12.192 93.5183 12.192C91.4063 12.192 89.7103 10.4 89.7103 8.192C89.7103 5.968 91.4063 4.176 93.5183 4.176C94.3663 4.176 95.1183 4.416 95.7103 4.8V4.368ZM93.8383 10.288C94.5263 10.288 95.2143 10.096 95.7103 9.392V6.976C95.2143 6.272 94.5263 6.08 93.8383 6.08C92.6383 6.08 91.8063 7.04 91.8063 8.192C91.8063 9.328 92.6383 10.288 93.8383 10.288ZM105.304 0.639999H107.4V12H105.304V11.568C104.712 11.952 103.96 12.192 103.112 12.192C101 12.192 99.3041 10.4 99.3041 8.176C99.3041 5.968 101 4.176 103.112 4.176C103.96 4.176 104.712 4.416 105.304 4.8V0.639999ZM103.432 10.288C104.12 10.288 104.808 10.096 105.304 9.392V6.976C104.808 6.272 104.12 6.08 103.432 6.08C102.232 6.08 101.4 7.04 101.4 8.176C101.4 9.328 102.232 10.288 103.432 10.288ZM115.54 4.352H117.748L112.868 15.712H110.66L112.26 11.968L108.42 4.352H110.66L113.236 9.728L115.54 4.352Z" fill="black"/>
</svg>
