<svg width="475" height="312" viewBox="0 0 475 312" fill="none" xmlns="http://www.w3.org/2000/svg">
<g clip-path="url(#clip0_102_2544)">
<path d="M335.749 268.767C335.749 268.767 397.336 191.599 401.492 120.003C405.648 48.4034 390.305 96.0553 380.653 130.099C371.001 164.142 358.801 186.834 350.01 193.039C341.22 199.247 371.729 148.185 380.787 94.2982C389.845 40.4089 389.026 6.80068 374.849 37.5068C360.669 68.2151 351.248 123.478 335.749 154.062C320.25 184.648 331.149 148.466 332.638 129.194C334.126 109.922 336.227 73.1057 320.794 72.9175C305.358 72.7293 309.575 122.444 292.727 161.886C275.879 201.328 203.277 268.763 203.277 268.763H335.749V268.767Z" fill="#BDD0FB"/>
<path opacity="0.62" d="M395.592 102.064C393.899 109.299 392.092 116.511 390.11 123.656C389.639 125.449 389.113 127.224 388.611 129.009L387.104 134.357L383.939 144.996C379.619 159.139 374.838 173.088 369.668 186.834C364.546 200.61 358.731 214.024 352.607 227.238L347.891 237.078C347.51 237.907 347.09 238.708 346.662 239.506L345.401 241.911L342.887 246.732L340.384 251.566C339.531 253.162 338.604 254.706 337.717 256.279C335.919 259.408 334.128 262.546 332.366 265.718L332.357 265.736C332.258 265.918 332.303 266.158 332.462 266.274C332.611 266.383 332.809 266.339 332.915 266.181C334.904 263.19 336.863 260.168 338.815 257.139C339.783 255.617 340.794 254.128 341.73 252.581L344.449 247.868L347.154 243.14L348.503 240.773C348.956 239.987 349.398 239.193 349.802 238.372L354.788 228.618C356.488 225.387 357.951 222.014 359.504 218.692L361.791 213.684C362.168 212.845 362.562 212.017 362.921 211.171L363.984 208.623L368.224 198.42C369.58 194.99 370.856 191.518 372.176 188.07C377.336 174.219 381.952 160.107 386.006 145.794C386.995 142.207 387.979 138.618 388.929 135.017C389.831 131.401 390.797 127.805 391.622 124.166L392.888 118.715L394.087 113.244C394.885 109.596 395.599 105.93 396.254 102.237C396.293 102.026 396.173 101.819 395.989 101.776C395.812 101.735 395.64 101.86 395.592 102.055V102.067V102.064Z" fill="white"/>
<path d="M376.744 55.384C371.375 73.2436 365.999 91.085 360.481 108.861C354.998 126.65 349.36 144.364 343.53 161.986C340.621 170.799 337.595 179.557 334.552 188.305L332.244 194.85C331.477 197.034 330.695 199.21 329.895 201.376L327.544 207.901L325.149 214.404C323.492 218.705 321.914 223.051 320.222 227.334C319.393 229.486 318.551 231.631 317.676 233.755C316.812 235.886 316.001 238.054 315.094 240.158C311.582 248.66 307.897 257.067 303.798 265.259C303.703 265.445 303.76 265.685 303.923 265.792C304.072 265.892 304.263 265.844 304.365 265.69C309.403 258.149 313.763 250.034 317.796 241.75C319.814 237.605 321.789 233.431 323.623 229.18C325.514 224.958 327.306 220.686 329.056 216.39C336.062 199.21 342.129 181.58 347.879 163.845C353.602 146.094 358.894 128.176 363.841 110.139C368.74 92.0849 373.388 73.9442 377.395 55.5994C377.44 55.3908 377.329 55.18 377.148 55.1278C376.975 55.0779 376.798 55.1936 376.742 55.3818L376.744 55.384Z" fill="#DCE5FE"/>
<path d="M321.819 102.113C320.261 109.407 319.59 116.851 318.792 124.12C318.44 127.77 317.973 131.364 317.547 134.962C317.273 136.749 317.042 138.538 316.788 140.324C316.676 141.22 316.522 142.106 316.361 142.993L315.897 145.652C315.38 149.221 314.513 152.715 313.779 156.236C313.681 156.676 313.595 157.118 313.489 157.554L313.139 158.855L312.443 161.46L311.049 166.67L307.791 176.948L304.163 187.099C298.998 200.499 293.235 213.651 287.095 226.611C285.63 229.894 283.966 233.052 282.404 236.279L277.695 245.951C274.441 252.327 271.183 258.709 268.007 265.16L268.002 265.169C267.909 265.357 267.968 265.595 268.131 265.699C268.283 265.797 268.476 265.745 268.576 265.586C272.348 259.573 276.076 253.513 279.744 247.407C283.261 241.188 286.891 235.039 290.242 228.683C291.906 225.5 293.602 222.333 295.244 219.129L296.482 216.73C296.887 215.925 297.266 215.102 297.658 214.291L299.998 209.398C303.216 202.934 306.004 196.191 308.823 189.466C314.332 175.948 318.796 161.707 321.377 146.881L321.832 144.099C321.982 143.172 322.152 142.247 322.231 141.306C322.426 139.433 322.646 137.563 322.821 135.688C322.989 133.815 323.061 131.935 323.156 130.06C323.277 128.183 323.279 126.315 323.295 124.446C323.34 116.962 322.955 109.616 322.497 102.177C322.485 101.959 322.32 101.794 322.132 101.81C321.977 101.821 321.855 101.948 321.819 102.109V102.113Z" fill="#DCE5FE"/>
<path d="M267.127 43.7668C268.079 88.6572 271.163 243.503 269.691 298.376C269.535 304.189 265.551 308.855 260.584 309.046C236.006 309.987 145.91 312.372 105.711 310.399C97.3376 309.989 90.6786 302.053 90.5063 292.252C89.6719 245.133 87.8286 112.607 92.209 51.8951C92.735 44.6216 97.6143 38.8287 103.824 38.1009C130.59 34.9674 221.073 27.313 255.804 29.9476C262.066 30.4238 266.975 36.4253 267.131 43.7646L267.127 43.7668Z" fill="url(#paint0_linear_102_2544)"/>
<path d="M256.16 57.5414C257.482 93.7752 261.656 214.316 260.332 258.889C260.139 265.405 255.749 270.672 250.186 271.053C227.281 272.622 149.139 276.078 115.544 272.931C109.495 272.364 104.747 266.641 104.421 259.551C102.718 222.585 97.8296 110.345 99.0992 66.2705C99.301 59.2396 103.958 53.4965 109.946 52.8685C134.725 50.2656 217.761 44.0736 246.308 45.8943C251.668 46.2366 255.931 51.2655 256.16 57.5391V57.5414Z" fill="url(#paint1_linear_102_2544)"/>
<path d="M195.602 40.0394C195.602 41.4179 194.684 42.5539 193.51 42.6241C187.705 42.9801 171.354 43.9868 164.044 44.4811C162.604 44.5786 161.473 43.064 161.745 41.4066L161.792 41.1232C161.978 39.9918 162.781 39.1393 163.763 39.035C168.703 38.5045 183.608 37.0375 193.485 37.4502C194.671 37.5 195.605 38.6496 195.605 40.0394H195.602Z" fill="#7D97F4"/>
<path d="M256.16 57.5414C257.482 93.7752 261.656 214.316 260.332 258.889C260.139 265.405 255.749 270.672 250.185 271.053C227.281 272.622 149.139 276.078 115.544 272.931C109.495 272.364 104.747 266.641 104.42 259.551C102.718 222.585 97.8294 110.345 99.0991 66.2705C99.3009 59.2396 103.958 53.4965 109.946 52.8685C134.725 50.2656 217.761 44.0736 246.308 45.8943C251.668 46.2366 255.931 51.2655 256.16 57.5391V57.5414Z" fill="url(#paint2_linear_102_2544)"/>
<mask id="mask0_102_2544" style="mask-type:luminance" maskUnits="userSpaceOnUse" x="98" y="45" width="163" height="230">
<path d="M256.159 57.5394C257.481 93.7732 261.655 214.314 260.331 258.887C260.138 265.404 255.749 270.67 250.185 271.051C227.281 272.62 149.138 276.076 115.544 272.929C109.494 272.362 104.747 266.639 104.42 259.549C102.717 222.583 97.8291 110.343 99.0988 66.2686C99.3006 59.2377 103.958 53.4946 109.946 52.8665C134.725 50.2637 217.76 44.0717 246.308 45.8923C251.668 46.2347 255.93 51.2635 256.159 57.5372V57.5394Z" fill="white"/>
</mask>
<g mask="url(#mask0_102_2544)">
<path d="M279.762 24.4619H75.7504V72.0934H279.762V24.4619Z" fill="url(#paint3_linear_102_2544)"/>
</g>
<path d="M173.661 92.7642H114.297C112.324 92.7642 110.726 94.363 110.726 96.3352V163.787C110.726 165.76 112.324 167.358 114.297 167.358H173.661C175.634 167.358 177.232 165.76 177.232 163.787V96.3352C177.232 94.363 175.634 92.7642 173.661 92.7642Z" fill="url(#paint4_linear_102_2544)"/>
<path d="M110.277 158.823H177.682V172.921C177.682 174.565 176.348 175.898 174.705 175.898H113.254C111.61 175.898 110.277 174.565 110.277 172.921V158.823Z" fill="url(#paint5_linear_102_2544)"/>
<path d="M168.343 164.663H119.614C118.8 164.663 118.14 165.322 118.14 166.136V169.029C118.14 169.843 118.8 170.503 119.614 170.503H168.343C169.157 170.503 169.816 169.843 169.816 169.029V166.136C169.816 165.322 169.157 164.663 168.343 164.663Z" fill="url(#paint6_linear_102_2544)"/>
<path d="M246.907 92.7642H187.542C185.57 92.7642 183.971 94.363 183.971 96.3352V163.787C183.971 165.76 185.57 167.358 187.542 167.358H246.907C248.879 167.358 250.478 165.76 250.478 163.787V96.3352C250.478 94.363 248.879 92.7642 246.907 92.7642Z" fill="url(#paint7_linear_102_2544)"/>
<path d="M183.522 158.823H250.927V172.921C250.927 174.565 249.594 175.898 247.95 175.898H186.499C184.856 175.898 183.522 174.565 183.522 172.921V158.823Z" fill="url(#paint8_linear_102_2544)"/>
<path d="M241.59 164.663H192.861C192.047 164.663 191.388 165.322 191.388 166.136V169.029C191.388 169.843 192.047 170.503 192.861 170.503H241.59C242.404 170.503 243.064 169.843 243.064 169.029V166.136C243.064 165.322 242.404 164.663 241.59 164.663Z" fill="url(#paint9_linear_102_2544)"/>
<path d="M173.661 181.292H114.297C112.324 181.292 110.726 182.891 110.726 184.863V252.316C110.726 254.288 112.324 255.887 114.297 255.887H173.661C175.634 255.887 177.232 254.288 177.232 252.316V184.863C177.232 182.891 175.634 181.292 173.661 181.292Z" fill="url(#paint10_linear_102_2544)"/>
<path d="M110.277 247.348H177.682V261.446C177.682 263.09 176.348 264.423 174.705 264.423H113.254C111.61 264.423 110.277 263.09 110.277 261.446V247.348Z" fill="url(#paint11_linear_102_2544)"/>
<path d="M168.343 253.189H119.614C118.8 253.189 118.14 253.849 118.14 254.663V257.558C118.14 258.372 118.8 259.032 119.614 259.032H168.343C169.157 259.032 169.816 258.372 169.816 257.558V254.663C169.816 253.849 169.157 253.189 168.343 253.189Z" fill="url(#paint12_linear_102_2544)"/>
<path d="M246.907 181.292H187.542C185.57 181.292 183.971 182.891 183.971 184.863V252.316C183.971 254.288 185.57 255.887 187.542 255.887H246.907C248.879 255.887 250.478 254.288 250.478 252.316V184.863C250.478 182.891 248.879 181.292 246.907 181.292Z" fill="url(#paint13_linear_102_2544)"/>
<path d="M183.522 247.348H250.927V261.446C250.927 263.09 249.594 264.423 247.95 264.423H186.499C184.855 264.423 183.522 263.09 183.522 261.446V247.348Z" fill="url(#paint14_linear_102_2544)"/>
<path d="M241.59 253.189H192.861C192.047 253.189 191.387 253.849 191.387 254.663V257.558C191.387 258.372 192.047 259.032 192.861 259.032H241.59C242.404 259.032 243.064 258.372 243.064 257.558V254.663C243.064 253.849 242.404 253.189 241.59 253.189Z" fill="url(#paint15_linear_102_2544)"/>
<path d="M116.02 65.8794L106.982 106.33L138.378 106.387L142.833 65.2876L116.02 65.8794Z" fill="#91B3FA"/>
<path d="M99.1172 66.2545L60.9222 106.247L106.983 106.331L116.02 65.8804L99.1172 66.2545Z" fill="url(#paint16_linear_102_2544)"/>
<path d="M142.833 65.2874L138.378 106.387L162.486 106.43L165.433 64.7886L142.833 65.2874Z" fill="url(#paint17_linear_102_2544)"/>
<path d="M193.627 64.166L196.625 106.492L220.744 106.535L216.099 63.6694L193.627 64.166Z" fill="url(#paint18_linear_102_2544)"/>
<path d="M242.461 63.0864L216.099 63.6691L220.744 106.535L252.183 106.591L242.461 63.0864Z" fill="#91B3FA"/>
<path d="M165.434 64.789L162.486 106.43L196.625 106.492L193.627 64.1655L165.434 64.789Z" fill="#91B3FA"/>
<path d="M311.216 106.696L257.733 62.7485L242.46 63.0864L252.183 106.591L311.216 106.696Z" fill="url(#paint19_linear_102_2544)"/>
<path d="M60.9223 106.248C60.9223 106.248 58.6754 121.076 78.8975 122.874C99.1196 124.672 107.207 106.248 107.207 106.248H60.9223Z" fill="url(#paint20_linear_102_2544)"/>
<path d="M138.213 106.248C138.213 106.248 137.315 122.425 122.035 122.874C104.931 123.377 107.207 106.248 107.207 106.248H138.213Z" fill="#BDD0FB"/>
<path d="M138.213 106.248H162.477C162.477 106.248 162.477 122.874 150.345 122.874C138.213 122.874 138.213 106.248 138.213 106.248Z" fill="url(#paint21_linear_102_2544)"/>
<path d="M311.217 106.248C311.217 106.248 300.808 121.076 280.586 122.874C260.364 124.672 252.276 106.248 252.276 106.248H311.217Z" fill="url(#paint22_linear_102_2544)"/>
<path d="M221.271 106.248C221.271 106.248 222.169 122.425 237.448 122.874C254.553 123.377 252.276 106.248 252.276 106.248H221.271Z" fill="#BDD0FB"/>
<path d="M221.271 106.248H197.006C197.006 106.248 197.006 122.874 209.138 122.874C221.271 122.874 221.271 106.248 221.271 106.248Z" fill="url(#paint23_linear_102_2544)"/>
<path d="M162.477 106.248H197.078C197.078 106.248 194.831 122.425 180.003 122.874C165.175 123.323 162.477 106.248 162.477 106.248Z" fill="#BDD0FB"/>
<path d="M383.229 186.349C382.657 186.349 382.181 185.895 382.161 185.319C382.15 185.045 380.957 157.817 369.153 148.092C365.734 145.276 361.692 144.204 357.139 144.909C347.439 146.41 340.719 153.584 337.159 166.231C334.455 175.844 334.704 185.152 334.706 185.245C334.724 185.834 334.26 186.328 333.67 186.346C333.087 186.371 332.586 185.9 332.568 185.31C332.557 184.92 332.303 175.624 335.087 165.698C338.835 152.335 346.349 144.415 356.812 142.794C361.998 141.991 366.609 143.22 370.518 146.442C375.815 150.806 379.744 158.683 382.197 169.85C384.006 178.082 384.29 184.947 384.299 185.235C384.322 185.825 383.861 186.324 383.272 186.346C383.258 186.346 383.245 186.346 383.229 186.346V186.349Z" fill="url(#paint24_linear_102_2544)"/>
<path d="M293.682 311.158C289.909 311.158 287.018 307.809 287.569 304.077L306.363 176.673L376.96 175.505L399.715 311.158H293.682Z" fill="url(#paint25_linear_102_2544)"/>
<path d="M390.67 176.673L376.96 175.505L399.715 311.158H413.328C416.087 311.158 418.15 308.621 417.588 305.92L390.673 176.673H390.67Z" fill="url(#paint26_linear_102_2544)"/>
<path d="M368.06 186.056C367.489 186.056 367.013 185.603 366.993 185.027C366.981 184.752 365.789 157.524 353.987 147.8C350.568 144.984 346.526 143.914 341.973 144.617C332.273 146.117 325.553 153.291 321.993 165.936C319.288 175.549 319.538 184.857 319.54 184.95C319.558 185.539 319.093 186.033 318.504 186.052C317.921 186.079 317.42 185.605 317.402 185.015C317.391 184.625 317.137 175.329 319.921 165.403C323.669 152.04 331.183 144.12 341.646 142.499C346.832 141.696 351.443 142.925 355.352 146.147C360.649 150.512 364.578 158.388 367.031 169.555C368.84 177.787 369.124 184.653 369.133 184.941C369.155 185.53 368.695 186.029 368.106 186.052C368.092 186.052 368.079 186.052 368.063 186.052L368.06 186.056Z" fill="url(#paint27_linear_102_2544)"/>
<path d="M91.1432 257.026C90.4176 257.026 89.8191 256.45 89.7964 255.72C89.7692 254.865 89.3067 234.747 103.189 232.598C106.141 232.14 108.771 232.842 111.005 234.684C117.857 240.331 118.503 255.005 118.525 255.627C118.555 256.37 117.974 256.996 117.231 257.026C116.485 257.057 115.861 256.475 115.832 255.731C115.825 255.59 115.211 241.64 109.288 236.763C107.651 235.416 105.792 234.926 103.602 235.264C92.0501 237.053 92.4854 255.452 92.4899 255.638C92.5126 256.382 91.9277 257.005 91.184 257.028C91.1704 257.028 91.1568 257.028 91.1409 257.028L91.1432 257.026Z" fill="#91B3FA"/>
<path d="M66.9579 307.44L76.8229 251.159L113.887 250.547L125.833 311.159H70.1661C68.1868 311.159 66.6677 309.399 66.9579 307.44Z" fill="url(#paint28_linear_102_2544)"/>
<path d="M121.085 251.159L113.887 250.547L125.833 311.159H132.98C134.428 311.159 135.512 309.828 135.215 308.408L121.085 251.159Z" fill="#7D97F4"/>
<path d="M83.1782 256.871C82.4527 256.871 81.8541 256.295 81.8314 255.565C81.8042 254.711 81.3417 234.593 95.2244 232.443C98.1764 231.985 100.806 232.688 103.04 234.529C109.892 240.177 110.538 254.851 110.56 255.472C110.59 256.216 110.009 256.842 109.266 256.871C108.524 256.91 107.896 256.32 107.867 255.577C107.86 255.436 107.246 241.485 101.323 236.608C99.6864 235.262 97.8272 234.772 95.637 235.11C84.0829 236.899 84.5204 255.298 84.525 255.484C84.5476 256.227 83.9627 256.851 83.219 256.874C83.2054 256.874 83.1918 256.874 83.1759 256.874L83.1782 256.871Z" fill="#91B3FA"/>
<path d="M274.828 245.46C274.223 245.46 273.724 244.979 273.706 244.371C273.695 244.029 273.475 235.889 275.91 227.201C279.202 215.463 285.811 208.505 295.021 207.079C299.601 206.369 303.675 207.455 307.131 210.303C318.138 219.374 319.186 243.279 319.227 244.292C319.252 244.911 318.769 245.435 318.147 245.457C317.519 245.473 317.005 244.999 316.982 244.378C316.973 244.14 315.932 220.463 305.7 212.033C302.762 209.611 299.284 208.691 295.366 209.296C275.198 212.418 275.942 243.979 275.953 244.299C275.971 244.92 275.486 245.437 274.865 245.457C274.853 245.457 274.842 245.457 274.828 245.457V245.46Z" fill="#91B3FA"/>
<path d="M234.632 304.978L251.031 236.825L312.634 235.807L332.488 311.156H239.966C236.674 311.156 234.151 308.233 234.632 304.978Z" fill="url(#paint29_linear_102_2544)"/>
<path d="M324.596 236.827L312.631 235.809L332.486 311.158H344.364C346.772 311.158 348.573 308.945 348.081 306.587L324.596 236.827Z" fill="#7D97F4"/>
<path d="M261.592 245.205C260.987 245.205 260.488 244.724 260.47 244.117C260.458 243.774 260.238 235.635 262.676 226.946C265.968 215.208 272.577 208.25 281.787 206.824C286.367 206.117 290.441 207.2 293.896 210.048C304.904 219.12 305.952 243.024 305.993 244.037C306.017 244.656 305.535 245.18 304.913 245.203C304.303 245.221 303.771 244.745 303.748 244.123C303.739 243.885 302.698 220.208 292.466 211.778C289.525 209.357 286.049 208.434 282.131 209.041C261.964 212.163 262.707 243.724 262.719 244.044C262.737 244.665 262.252 245.182 261.63 245.203C261.619 245.203 261.608 245.203 261.594 245.203L261.592 245.205Z" fill="#91B3FA"/>
<path d="M450.422 310.775C450.422 310.775 466.243 290.895 463.67 272.103C461.099 253.312 448.259 255.552 442.548 266.666C436.834 277.779 431.699 276.253 435.093 265.807C438.487 255.359 442.741 248.56 435.707 238.16C428.674 227.76 427.946 223.341 431.896 214.061C435.848 204.78 440.809 191.632 425.087 186.939C409.364 182.248 393.701 196.661 397.367 215.527C401.034 234.394 403.237 236.448 398.186 243.436C393.137 250.424 395.241 253.294 395.955 257.842C396.671 262.39 388.956 263.456 389.119 257.049C389.282 250.641 399.097 235.521 392.4 228.467C385.702 221.413 372.572 221.336 369.21 237.647C365.847 253.958 376.622 261.288 376.084 267.188C375.547 273.087 369.761 264.143 364.723 270.156C359.683 276.169 366.469 280.894 371.461 284.152C376.454 287.41 383.983 293.253 376.819 297.493C369.654 301.735 362.87 297.674 367.26 310.772H450.42L450.422 310.775Z" fill="#91B3FA"/>
<path d="M417.898 200.543C417.381 200.817 416.93 201.162 416.487 201.529C416.048 201.899 415.642 202.309 415.265 202.744C414.504 203.611 413.86 204.586 413.336 205.622C412.284 207.699 411.722 210.011 411.536 212.324C411.502 212.614 411.493 212.904 411.479 213.194C411.468 213.485 411.45 213.775 411.459 214.065L411.463 214.936L411.506 215.804L411.529 216.239L411.572 216.67L411.658 217.534C411.744 218.103 411.805 218.681 411.914 219.246C412.019 219.813 412.121 220.382 412.259 220.94L412.452 221.781L412.653 222.595L413.461 225.844C414.531 230.172 415.56 234.5 416.372 238.849C417.159 243.195 417.705 247.589 417.583 251.931C417.555 253.015 417.483 254.097 417.342 255.162C417.208 256.228 417.023 257.287 416.748 258.314C416.478 259.343 416.147 260.352 415.726 261.318C415.256 262.411 414.889 263.544 414.603 264.667C414.064 266.923 413.744 269.179 413.499 271.423C413.263 273.67 413.08 275.91 412.932 278.144C412.626 282.61 412.363 287.063 411.717 291.455C411.635 292.004 411.549 292.552 411.447 293.094C411.357 293.641 411.239 294.18 411.125 294.722C411.021 295.266 410.871 295.797 410.749 296.336C410.679 296.604 410.599 296.867 410.524 297.132C410.447 297.398 410.377 297.665 410.284 297.924L410.019 298.708C409.93 298.969 409.817 299.22 409.717 299.477C409.525 299.996 409.273 300.483 409.044 300.987C408.531 301.959 407.928 302.889 407.192 303.719L407.371 303.896C408.187 303.107 408.881 302.2 409.486 301.236C410.064 300.259 410.568 299.234 410.976 298.175C411.819 296.064 412.372 293.861 412.828 291.65C413.737 287.222 414.168 282.737 414.658 278.293C414.907 276.071 415.127 273.854 415.433 271.657C415.737 269.464 416.116 267.29 416.68 265.206C416.979 264.17 417.313 263.175 417.746 262.218C418.24 261.141 418.628 260.026 418.945 258.897C419.265 257.767 419.489 256.618 419.655 255.468C419.827 254.319 419.925 253.165 419.975 252.013C420.167 247.399 419.594 242.858 418.825 238.402C418.038 233.945 416.975 229.562 415.785 225.232C415.483 224.15 415.182 223.069 414.871 221.992L414.635 221.184L414.42 220.398C414.266 219.874 414.152 219.346 414.027 218.817C413.894 218.291 413.812 217.756 413.699 217.226L413.574 216.425C413.531 216.158 413.492 215.89 413.465 215.623C413.315 214.55 413.279 213.473 413.27 212.399C413.266 211.322 413.356 210.247 413.54 209.188C413.728 208.132 413.987 207.082 414.37 206.073C414.567 205.572 414.78 205.073 415.032 204.595C415.272 204.107 415.551 203.642 415.853 203.189C416.46 202.291 417.177 201.432 418.031 200.754L417.902 200.536L417.898 200.543Z" fill="#DCE5FE"/>
<path d="M451.579 267.88C451.107 271.398 450.436 274.886 449.617 278.325C449.205 280.046 448.751 281.753 448.248 283.447C448.13 283.871 447.987 284.29 447.858 284.712C447.731 285.134 447.588 285.553 447.45 285.97C447.182 286.812 446.881 287.639 446.586 288.469C446.269 289.292 445.962 290.117 445.616 290.927C445.296 291.747 444.929 292.546 444.575 293.35C443.831 294.944 443.044 296.516 442.172 298.041C441.301 299.57 440.34 301.041 439.317 302.474C438.272 303.891 437.136 305.24 435.932 306.548L436.102 306.734C437.496 305.61 438.78 304.342 439.961 302.984C441.122 301.61 442.185 300.15 443.156 298.631C444.092 297.094 444.976 295.52 445.74 293.89C446.112 293.072 446.495 292.258 446.831 291.423C447.18 290.593 447.484 289.75 447.801 288.909C448.094 288.061 448.395 287.215 448.658 286.356C448.797 285.93 448.924 285.499 449.046 285.068C449.166 284.637 449.3 284.209 449.409 283.773C449.887 282.046 450.279 280.295 450.617 278.538C451.284 275.022 451.749 271.469 451.828 267.891L451.576 267.875L451.579 267.88Z" fill="#DCE5FE"/>
<path d="M349.201 310.89C349.7 310.89 350.105 310.484 350.105 309.985V201.928C350.105 201.429 349.702 201.023 349.201 201.023C348.7 201.023 348.296 201.427 348.296 201.928V309.985C348.296 310.484 348.7 310.89 349.201 310.89Z" fill="url(#paint30_linear_102_2544)"/>
<path d="M387.403 310.89C387.902 310.89 388.307 310.484 388.307 309.985V201.928C388.307 201.429 387.904 201.023 387.403 201.023C386.902 201.023 386.498 201.427 386.498 201.928V309.985C386.498 310.484 386.902 310.89 387.403 310.89Z" fill="url(#paint31_linear_102_2544)"/>
<path d="M447.591 311.575C447.709 311.575 447.829 311.552 447.944 311.502C448.405 311.307 448.618 310.776 448.423 310.316L402.195 201.574C402 201.114 401.467 200.901 401.009 201.096C400.549 201.291 400.336 201.821 400.53 202.281L446.759 311.024C446.904 311.368 447.239 311.575 447.591 311.575Z" fill="url(#paint32_linear_102_2544)"/>
<path d="M419.036 311.575C419.154 311.575 419.274 311.552 419.39 311.502C419.85 311.307 420.063 310.776 419.868 310.316L373.64 201.574C373.445 201.114 372.912 200.901 372.454 201.096C371.994 201.291 371.781 201.821 371.976 202.281L418.204 311.024C418.349 311.368 418.685 311.575 419.036 311.575Z" fill="url(#paint33_linear_102_2544)"/>
<path d="M347.144 202.924H404.503C404.844 202.924 405.122 202.647 405.122 202.305V200.994C405.122 200.653 404.844 200.375 404.503 200.375H347.144C346.803 200.375 346.525 200.653 346.525 200.994V202.305C346.525 202.647 346.803 202.924 347.144 202.924Z" fill="url(#paint34_linear_102_2544)"/>
<path d="M379.791 219.462H408.432C408.931 219.462 409.337 219.058 409.337 218.557C409.337 218.056 408.933 217.652 408.432 217.652H379.791C379.293 217.652 378.887 218.056 378.887 218.557C378.887 219.058 379.29 219.462 379.791 219.462Z" fill="url(#paint35_linear_102_2544)"/>
<path d="M417.22 238.219H388.579V240.026H417.22V238.219Z" fill="url(#paint36_linear_102_2544)"/>
<path d="M425.727 258.786H397.086V260.593H425.727V258.786Z" fill="url(#paint37_linear_102_2544)"/>
<path d="M406.008 281.159H434.649C435.148 281.159 435.553 280.753 435.553 280.254C435.553 279.755 435.15 279.35 434.649 279.35H406.008C405.509 279.35 405.104 279.753 405.104 280.254C405.104 280.755 405.507 281.159 406.008 281.159Z" fill="url(#paint38_linear_102_2544)"/>
<path d="M414.633 301.723H443.273C443.772 301.723 444.178 301.32 444.178 300.819C444.178 300.318 443.772 299.914 443.273 299.914H414.633C414.134 299.914 413.728 300.318 413.728 300.819C413.728 301.32 414.132 301.723 414.633 301.723Z" fill="url(#paint39_linear_102_2544)"/>
<path d="M376.443 194.223C376.443 194.223 376.869 196.64 377.08 199.034C377.161 199.968 376.44 200.782 375.502 200.821C372.316 200.954 365.498 201.21 363.052 201.102C362.685 201.086 362.444 200.709 362.58 200.367C362.694 200.081 362.914 199.848 363.195 199.721L374.454 194.547L376.443 194.225V194.223Z" fill="url(#paint40_linear_102_2544)"/>
<path d="M376.792 192.801L376.449 195.692C376.449 195.692 374.477 196.61 373.13 195.576L373.946 192.354L376.792 192.801Z" fill="url(#paint41_linear_102_2544)"/>
<path d="M376.533 138.443C376.681 139.198 377.329 176.123 373.382 192.67C373.318 192.94 373.454 193.218 373.711 193.323C374.316 193.57 375.502 193.928 376.926 193.976C377.365 193.992 377.76 193.704 377.885 193.282C379.014 189.443 384.419 170.208 385.124 151.831C385.913 131.298 385.124 151.133 385.124 151.133L384.662 138.44H376.531L376.533 138.443Z" fill="url(#paint42_linear_102_2544)"/>
<path d="M389.393 195.484C389.393 195.484 390.073 196.704 390.731 199.946C390.849 200.531 390.441 201.091 389.847 201.15C388.795 201.254 387.174 201.386 385.877 201.376C385.278 201.372 384.811 200.85 384.884 200.259C385.026 199.075 385.475 197.132 386.858 195.62L389.393 195.481V195.484Z" fill="url(#paint43_linear_102_2544)"/>
<path d="M389.992 191.764L389.189 196.138C389.189 196.138 388.396 196.728 386.829 196.301L387.212 191.597L389.992 191.767V191.764Z" fill="url(#paint44_linear_102_2544)"/>
<path d="M392.157 139.576C395.386 159.059 391.457 187.727 390.133 193.339C390.051 193.681 389.774 193.946 389.425 194.003C388.833 194.1 387.861 194.182 386.899 193.903C386.568 193.808 386.337 193.509 386.324 193.164C386.147 188.627 386.466 160.778 383.458 149.77C383.306 149.212 382.966 148.725 382.494 148.392L376.656 144.24L376.209 137.531L392.157 139.574V139.576Z" fill="url(#paint45_linear_102_2544)"/>
<path d="M373.13 103.356C373.13 103.356 387.96 99.6605 398.331 105.152L392.157 139.574C392.157 139.574 382.335 140.365 376.209 138.418L373.13 103.354V103.356Z" fill="url(#paint46_linear_102_2544)"/>
<path d="M389.761 93.0423L390.894 102.81C390.967 102.948 390.931 103.118 390.808 103.213C390.049 103.798 387.26 105.576 383.312 103.837C382.902 103.656 382.587 103.306 382.464 102.873L384.07 94.4072L389.761 93.04V93.0423Z" fill="url(#paint47_linear_102_2544)"/>
<path d="M380.66 87.9487C380.66 87.9487 379.215 95.0068 380.356 97.3512C381.498 99.6934 385.464 98.333 388.382 95.2971L388.892 87.985L380.657 87.9487H380.66Z" fill="url(#paint48_linear_102_2544)"/>
<path d="M387.275 92.1072C387.114 92.0868 387.01 91.9281 387.058 91.7716C387.201 91.2978 387.45 90.3455 387.396 89.5905C387.396 89.5905 387.869 89.0463 385.657 89.1597C383.444 89.2731 380.136 89.4137 378.97 87.8447C377.834 86.3165 378.222 81.5144 381.882 84.1716C382.02 84.2737 382.219 84.217 382.281 84.056C382.548 83.3645 383.344 81.8545 385.137 82.0993C386.815 82.3283 387.303 83.3645 387.443 83.9177C387.484 84.081 387.665 84.1626 387.815 84.0855C388.522 83.7227 390.284 83.0697 391.667 84.6659C392.805 85.981 392.61 86.974 392.325 87.5159C392.232 87.6905 392.356 87.8991 392.554 87.9014C393.091 87.9082 393.851 88.1372 394.125 89.3094C394.506 90.9305 392.681 91.3159 392.152 91.393C392.066 91.4066 391.991 91.4588 391.953 91.5381C391.66 92.148 390.3 94.7713 388.25 95.6442C388.074 95.719 387.876 95.5807 387.885 95.388L388.017 92.4473C388.024 92.3113 387.924 92.1911 387.788 92.1752L387.273 92.1072H387.275Z" fill="url(#paint49_linear_102_2544)"/>
<path d="M387.017 92.5945C387.017 92.5945 388.858 90.3295 389.42 91.6151C389.983 92.8984 387.91 94.159 386.65 93.9912L387.015 92.5968L387.017 92.5945Z" fill="url(#paint50_linear_102_2544)"/>
<path d="M401.043 124.048C401.043 124.048 400.031 136.974 391.522 137.532C391.522 137.532 387.874 137.198 386.292 138.441C384.709 139.683 385.475 141.599 385.475 141.599L392.341 140.762C392.341 140.762 402.158 142.397 408.062 125.964L401.043 124.05V124.048Z" fill="url(#paint51_linear_102_2544)"/>
<path d="M398.331 105.152C398.331 105.152 409.978 112.081 408.065 125.961C408.065 125.961 403.904 127.763 400.877 125.347C400.877 125.347 398.519 116.327 393.4 115.878L398.331 105.149V105.152Z" fill="url(#paint52_linear_102_2544)"/>
<path d="M365.392 110.119C365.392 110.119 359.798 112.72 353.257 105.777C348.786 101.034 346.051 103.943 345.185 105.857C344.321 107.773 346.389 107.612 347.11 107.612C347.831 107.612 347.922 105.528 349.192 105.811C350.464 106.095 350.09 105.716 350.169 106.993C350.248 108.269 357.084 122.685 365.541 115.663L365.392 110.117V110.119Z" fill="url(#paint53_linear_102_2544)"/>
<path d="M339.825 111.055L354.608 110.123C355.955 110.039 357.139 111.014 357.311 112.354L360.621 138.063C360.818 139.595 359.626 140.953 358.08 140.953H338.792C337.327 140.953 336.161 139.729 336.232 138.267L337.427 113.49C337.49 112.186 338.522 111.138 339.825 111.057V111.055Z" fill="url(#paint54_linear_102_2544)"/>
<path d="M342.007 113.667C341.75 113.667 341.539 113.466 341.528 113.209C341.515 112.878 341.254 105.113 346.72 104.26C347.89 104.079 348.926 104.353 349.804 105.076C352.463 107.276 352.69 112.933 352.697 113.173C352.706 113.438 352.5 113.658 352.234 113.667C351.971 113.672 351.749 113.47 351.74 113.205C351.74 113.15 351.522 107.736 349.192 105.813C348.527 105.265 347.765 105.065 346.868 105.206C342.238 105.929 342.483 113.096 342.485 113.168C342.496 113.434 342.29 113.656 342.027 113.667C342.02 113.667 342.013 113.667 342.007 113.667Z" fill="#91B3FA"/>
<path d="M373.13 103.356L364.106 110.12C364.106 110.12 363.947 115.187 365.142 117.584L375.196 115.112L373.13 103.356Z" fill="url(#paint55_linear_102_2544)"/>
<path d="M46.1874 266.395C46.1874 266.395 35.1524 290.448 29.3617 300.411C29.3617 300.411 28.2122 306.68 29.3617 308.65L30.3412 309.086L25.768 308.95C25.768 308.95 25.3622 300.518 25.6796 300.046C25.997 299.574 26.6319 299.606 26.6319 299.606C26.6319 299.606 28.5931 284.068 34.2727 280.751L39.7777 261.792L46.1896 266.395H46.1874Z" fill="url(#paint56_linear_102_2544)"/>
<path d="M32.2954 310.266C32.3022 310.377 28.7244 310.325 26.779 310.291C26.0603 310.277 25.4504 309.774 25.2962 309.071L23.827 301.358C23.6864 300.626 24.1535 299.914 24.8813 299.746L25.6998 299.558C25.6998 299.558 26.8697 301.161 26.5002 302.671C26.1329 304.181 25.8041 308.092 26.7337 308.547C27.6633 309.003 30.3387 309.083 30.3387 309.083C30.3387 309.083 32.2319 309.271 32.2931 310.264L32.2954 310.266Z" fill="url(#paint57_linear_102_2544)"/>
<path d="M56.6487 310.407C57.0115 310.613 56.8619 311.166 56.4447 311.162C53.1911 311.13 45.9017 311.026 45.2555 310.756C44.4189 310.409 45.5594 307.402 46.761 306.387L53.3906 308.55L56.6487 310.407Z" fill="url(#paint58_linear_102_2544)"/>
<path d="M58.705 264.858C58.705 264.858 51.5744 299.36 49.5565 306.089L54.3291 309.084C54.3291 309.084 51.9371 308.679 50.1641 308.549C48.3911 308.42 46.7586 306.386 46.7586 306.386L47.33 305.475C47.33 305.475 49.1189 271.161 48.6835 267.266L58.705 264.861V264.858Z" fill="url(#paint59_linear_102_2544)"/>
<path d="M61.6229 210.161C58.8885 210.918 49.6289 213.355 43.8472 213.256L47.3978 233.287L47.1144 236.554L58.689 236.502C58.689 236.502 61.9471 228.936 64.5182 225.163C65.2596 224.073 64.7087 222.774 64.287 221.524L64.8651 221.139C65.4524 220.747 65.7086 220.012 65.4886 219.339L62.6704 210.716C62.523 210.281 62.0673 210.036 61.6252 210.158L61.6229 210.161Z" fill="url(#paint60_linear_102_2544)"/>
<path d="M59.6145 234.792L59.3878 236.771C59.3878 236.771 62.6595 246.566 57.7531 269.443C57.7531 269.443 47.1285 272.454 38.3948 265.251C38.3948 265.251 40.8594 243.657 41.5305 242.653C44.8816 237.642 47.1149 236.554 47.1149 236.554L47.2146 234.391C47.2146 234.391 56.5559 236.08 59.6145 234.792Z" fill="url(#paint61_linear_102_2544)"/>
<path d="M55.0843 211.775C55.1251 211.721 52.6673 204.356 52.6673 204.356L49.1485 204.676L47.7745 213.031C47.7745 213.031 53.2908 214.144 55.0843 211.775Z" fill="url(#paint62_linear_102_2544)"/>
<path d="M49.992 192.743C50.2256 192.889 57.5127 195.899 55.946 203.463C55.853 203.91 55.556 204.289 55.1388 204.474C54.0686 204.951 51.7673 205.767 49.0148 205.488C45.1989 205.1 42.6981 198.441 42.8047 196.503C42.9112 194.564 47.6658 191.295 49.992 192.743Z" fill="url(#paint63_linear_102_2544)"/>
<path d="M62.2213 214.355C61.8427 213.369 62.541 212.307 63.5953 212.258C66.2798 212.133 70.9482 211.287 74.9001 207.335C77.4622 204.773 78.1423 195.448 78.1423 195.448C78.1423 195.448 78.682 191.124 79.7635 191.124C80.845 191.124 79.7635 193.827 79.7635 193.827C79.7635 193.827 82.4661 195.448 85.1664 193.287C87.8691 191.126 84.6268 196.529 81.9242 197.609C81.9242 197.609 82.9626 218.896 65.1915 219.227C64.5408 219.239 63.949 218.842 63.7155 218.234L62.2213 214.353V214.355Z" fill="url(#paint64_linear_102_2544)"/>
<path d="M52.463 208.015C52.463 206.591 52.166 205.238 51.6286 204.011C51.0232 202.63 51.1479 201.016 52.1161 199.86C53.6987 197.967 54.2723 195.565 53.4016 193.464C52.039 190.181 47.6722 188.875 43.6477 190.546C40.7954 191.729 38.8818 194.092 38.4964 196.536C38.2742 197.939 37.5214 199.193 36.3923 200.057C34.7893 201.281 33.5695 202.977 32.937 204.939C32.5084 206.265 31.6491 207.405 30.4384 208.095C27.7063 209.652 25.4277 212.06 24.0491 215.148C20.5892 222.896 24.0854 231.987 31.8577 235.459C39.63 238.93 48.7355 235.463 52.1954 227.718C54.1181 223.415 53.8914 218.696 51.9778 214.756C51.4971 213.767 51.3973 212.629 51.7941 211.604C52.2272 210.491 52.4652 209.28 52.4652 208.015H52.463Z" fill="url(#paint65_linear_102_2544)"/>
<path d="M102.702 180.453C105.531 170.241 99.545 159.67 89.3333 156.842C79.1216 154.014 68.5507 160 65.7226 170.211C62.8945 180.423 68.8801 190.994 79.0918 193.822C89.3035 196.65 99.8744 190.664 102.702 180.453Z" fill="url(#paint66_linear_102_2544)"/>
<path d="M102.263 179.59C104.616 169.621 98.4419 159.632 88.4728 157.279C78.5038 154.926 68.5148 161.1 66.1619 171.07C63.809 181.039 69.9831 191.028 79.9522 193.38C89.9213 195.733 99.9102 189.559 102.263 179.59Z" fill="url(#paint67_linear_102_2544)"/>
<path opacity="0.59" d="M68.9192 168.062C68.8534 168.062 68.7877 168.049 68.7265 168.017C68.5156 167.91 68.4317 167.652 68.5383 167.441C71.5425 161.487 77.5508 157.789 84.2144 157.789C85.2778 157.789 86.3434 157.884 87.3796 158.075C87.6131 158.118 87.7673 158.34 87.7242 158.574C87.6811 158.807 87.4589 158.959 87.2254 158.918C86.2391 158.739 85.2256 158.646 84.2121 158.646C77.8728 158.646 72.1592 162.165 69.3001 167.829C69.2253 167.978 69.0734 168.064 68.9169 168.064L68.9192 168.062Z" fill="white"/>
<path opacity="0.59" d="M100.202 177.668C101.261 169.063 95.1445 161.228 86.5393 160.169C77.934 159.109 70.0991 165.226 69.0395 173.831C67.9799 182.436 74.0968 190.271 82.702 191.331C91.3072 192.39 99.1421 186.273 100.202 177.668Z" fill="white"/>
<path d="M83.0784 187.413V185.706C81.2985 185.636 79.5368 185.214 78.2853 184.667C77.8386 184.472 77.6119 183.971 77.7389 183.5L78.1719 181.908C78.3306 181.325 78.9655 181.022 79.5232 181.257C80.7634 181.777 82.2961 182.189 83.9467 182.189C85.5973 182.189 86.9396 181.609 86.9396 180.416C86.9396 179.341 85.951 178.702 83.5681 178.063C80.1671 177.133 77.7253 175.65 77.7253 172.657C77.7253 169.955 79.7023 167.892 83.1305 167.338V165.631C83.1305 165.082 83.5772 164.636 84.1259 164.636H85.1303C85.679 164.636 86.1256 165.08 86.1256 165.631V167.164C87.7739 167.23 88.9733 167.511 89.9233 167.846C90.4108 168.019 90.6784 168.542 90.5423 169.041L90.1433 170.513C89.9891 171.079 89.3837 171.39 88.8328 171.184C87.9576 170.853 86.7174 170.508 85.1076 170.508C83.0738 170.508 82.4911 171.351 82.4911 172.107C82.4911 173.036 83.7109 173.675 86.3569 174.489C90.1365 175.623 91.7054 177.192 91.7054 180.013C91.7054 182.6 89.7873 184.924 86.0667 185.506V187.418C86.0667 187.966 85.6223 188.413 85.0713 188.413H84.0669C83.5182 188.413 83.0716 187.966 83.0716 187.418L83.0784 187.413Z" fill="url(#paint68_linear_102_2544)"/>
<path d="M234.491 288.691L233.299 289.183C233.183 289.23 233.052 289.176 233.004 289.06C232.956 288.945 233.011 288.813 233.126 288.766C233.126 288.766 233.126 288.766 233.129 288.766H233.135L234.326 288.296H234.33C234.441 288.251 234.564 288.305 234.607 288.416C234.65 288.525 234.596 288.648 234.489 288.693L234.491 288.691Z" fill="url(#paint69_linear_102_2544)"/>
<path d="M230.464 290.208L229.231 290.593C229.091 290.636 228.941 290.559 228.898 290.419C228.855 290.278 228.932 290.128 229.072 290.085C229.072 290.085 229.075 290.085 229.077 290.085H229.086L230.313 289.725H230.319C230.455 289.684 230.596 289.761 230.635 289.897C230.673 290.031 230.598 290.169 230.467 290.212L230.464 290.208Z" fill="url(#paint70_linear_102_2544)"/>
<path d="M226.32 291.366L225.057 291.643C224.891 291.679 224.728 291.575 224.69 291.41C224.651 291.244 224.758 291.081 224.923 291.042C224.923 291.042 224.925 291.042 224.928 291.042H224.937L226.188 290.791H226.195C226.356 290.757 226.51 290.861 226.542 291.022C226.574 291.181 226.472 291.332 226.315 291.369L226.32 291.366Z" fill="url(#paint71_linear_102_2544)"/>
<path d="M222.084 292.162L220.803 292.33C220.615 292.355 220.445 292.223 220.42 292.035C220.395 291.847 220.527 291.677 220.715 291.652C220.715 291.652 220.715 291.652 220.717 291.652H220.726L221.994 291.504H222.003C222.184 291.482 222.35 291.613 222.372 291.795C222.393 291.976 222.266 292.139 222.084 292.162Z" fill="url(#paint72_linear_102_2544)"/>
<path d="M217.797 292.597L216.505 292.66C216.298 292.669 216.126 292.513 216.115 292.307C216.106 292.1 216.262 291.928 216.468 291.917C216.468 291.917 216.468 291.917 216.471 291.917H216.482L217.756 291.871H217.765C217.965 291.865 218.133 292.021 218.142 292.22C218.149 292.42 217.994 292.585 217.797 292.595V292.597Z" fill="url(#paint73_linear_102_2544)"/>
<path d="M213.487 292.685L212.194 292.647C211.972 292.64 211.798 292.454 211.805 292.232C211.811 292.01 211.997 291.835 212.219 291.842C212.219 291.842 212.222 291.842 212.224 291.842H212.235L213.507 291.899H213.516C213.734 291.908 213.902 292.091 213.893 292.309C213.884 292.524 213.702 292.69 213.489 292.685H213.487Z" fill="url(#paint74_linear_102_2544)"/>
<path d="M209.183 292.441L207.896 292.303C207.658 292.278 207.485 292.064 207.512 291.826C207.537 291.588 207.751 291.416 207.989 291.443C207.989 291.443 207.991 291.443 207.993 291.443H208.004L209.27 291.597H209.279C209.51 291.627 209.675 291.838 209.648 292.069C209.621 292.298 209.412 292.464 209.183 292.439V292.441Z" fill="url(#paint75_linear_102_2544)"/>
<path d="M204.907 291.87L203.633 291.637C203.381 291.591 203.216 291.349 203.261 291.097C203.307 290.845 203.549 290.68 203.801 290.725C203.801 290.725 203.803 290.725 203.805 290.725H203.819L205.068 290.975H205.077C205.322 291.025 205.483 291.265 205.433 291.51C205.386 291.752 205.15 291.913 204.907 291.868V291.87Z" fill="url(#paint76_linear_102_2544)"/>
<path d="M200.683 290.978L199.43 290.65C199.166 290.582 199.008 290.312 199.078 290.049C199.146 289.786 199.416 289.627 199.679 289.697C199.679 289.697 199.681 289.697 199.683 289.697L199.697 289.702L200.924 290.042H200.935C201.193 290.117 201.343 290.382 201.273 290.641C201.203 290.897 200.94 291.046 200.683 290.981V290.978Z" fill="url(#paint77_linear_102_2544)"/>
<path d="M196.536 289.779L195.31 289.36C195.035 289.267 194.89 288.97 194.983 288.695C195.076 288.421 195.373 288.276 195.648 288.369C195.648 288.369 195.65 288.369 195.652 288.369L195.666 288.373L196.865 288.802L196.876 288.807C197.144 288.902 197.282 289.196 197.187 289.464C197.092 289.729 196.802 289.868 196.536 289.777V289.779Z" fill="url(#paint78_linear_102_2544)"/>
<path d="M192.485 288.277L191.292 287.767C191.011 287.646 190.879 287.322 191 287.041C191.12 286.76 191.444 286.628 191.725 286.749C191.725 286.749 191.727 286.749 191.73 286.749L191.743 286.755L192.906 287.272L192.918 287.277C193.192 287.399 193.317 287.721 193.194 287.996C193.074 288.268 192.757 288.392 192.482 288.275L192.485 288.277Z" fill="url(#paint79_linear_102_2544)"/>
<path d="M188.555 286.471L187.406 285.87C187.125 285.723 187.014 285.376 187.161 285.092C187.308 284.811 187.658 284.7 187.939 284.847H187.943L187.955 284.857L189.077 285.455L189.088 285.462C189.367 285.609 189.471 285.956 189.324 286.235C189.177 286.512 188.834 286.618 188.555 286.473V286.471Z" fill="url(#paint80_linear_102_2544)"/>
<path d="M184.776 284.369L183.672 283.682C183.393 283.508 183.307 283.143 183.481 282.864C183.656 282.585 184.021 282.499 184.3 282.673H184.304L184.316 282.682L185.39 283.365L185.402 283.372C185.676 283.546 185.758 283.911 185.583 284.186C185.411 284.458 185.048 284.542 184.774 284.369H184.776Z" fill="url(#paint81_linear_102_2544)"/>
<path d="M181.164 281.983L180.119 281.212C179.847 281.01 179.788 280.627 179.99 280.355C180.191 280.083 180.575 280.024 180.847 280.226H180.851L180.863 280.237L181.878 280.999L181.89 281.008C182.157 281.21 182.212 281.59 182.012 281.858C181.813 282.126 181.434 282.18 181.166 281.983H181.164Z" fill="url(#paint82_linear_102_2544)"/>
<path d="M177.752 279.319L176.772 278.468C176.509 278.239 176.48 277.84 176.709 277.577C176.938 277.314 177.337 277.285 177.6 277.514L177.605 277.518L177.616 277.527L178.566 278.366L178.577 278.375C178.836 278.604 178.861 279.001 178.632 279.26C178.405 279.518 178.01 279.543 177.752 279.319Z" fill="url(#paint83_linear_102_2544)"/>
<path d="M174.564 276.384L173.657 275.452C173.406 275.196 173.412 274.783 173.669 274.532C173.925 274.28 174.337 274.287 174.589 274.543L174.594 274.547L174.605 274.559L175.482 275.475L175.494 275.486C175.741 275.742 175.732 276.15 175.473 276.398C175.217 276.642 174.814 276.636 174.566 276.382L174.564 276.384Z" fill="url(#paint84_linear_102_2544)"/>
<path d="M171.63 273.189L170.805 272.182C170.571 271.897 170.612 271.475 170.898 271.241C171.184 271.008 171.605 271.049 171.839 271.334L171.843 271.339L171.855 271.352L172.65 272.339L172.662 272.352C172.891 272.638 172.848 273.055 172.562 273.284C172.279 273.513 171.864 273.47 171.632 273.189H171.63Z" fill="url(#paint85_linear_102_2544)"/>
<path d="M168.984 269.75L168.252 268.675C168.039 268.363 168.118 267.934 168.433 267.721C168.746 267.508 169.175 267.587 169.388 267.902V267.907L169.401 267.923L170.104 268.975L170.116 268.991C170.324 269.304 170.24 269.728 169.927 269.936C169.617 270.145 169.195 270.063 168.984 269.755V269.75Z" fill="url(#paint86_linear_102_2544)"/>
<path d="M166.651 266.088L166.014 264.952C165.823 264.612 165.944 264.181 166.284 263.991C166.624 263.8 167.055 263.921 167.245 264.261V264.265L167.256 264.281L167.866 265.392L167.875 265.408C168.061 265.746 167.939 266.172 167.599 266.358C167.261 266.544 166.839 266.421 166.651 266.088Z" fill="url(#paint87_linear_102_2544)"/>
<path d="M164.636 262.245L164.094 261.062C163.926 260.699 164.087 260.268 164.45 260.103C164.812 259.935 165.243 260.096 165.409 260.459V260.465L165.418 260.481L165.935 261.638L165.942 261.653C166.105 262.016 165.942 262.44 165.579 262.603C165.218 262.764 164.797 262.603 164.631 262.248L164.636 262.245Z" fill="url(#paint88_linear_102_2544)"/>
<path d="M162.937 258.252L162.491 257.03C162.35 256.644 162.547 256.218 162.933 256.078C163.318 255.937 163.745 256.134 163.885 256.52V256.526L163.894 256.542L164.318 257.737L164.325 257.753C164.461 258.136 164.262 258.558 163.878 258.694C163.497 258.83 163.078 258.633 162.94 258.252H162.937Z" fill="url(#paint89_linear_102_2544)"/>
<path d="M161.561 254.137L161.21 252.883C161.096 252.477 161.332 252.058 161.738 251.944C162.144 251.831 162.563 252.067 162.677 252.473V252.48L162.683 252.495L163.014 253.717L163.019 253.733C163.128 254.137 162.89 254.552 162.486 254.661C162.085 254.769 161.672 254.534 161.561 254.135V254.137Z" fill="url(#paint90_linear_102_2544)"/>
<path d="M160.5 249.931L160.244 248.655C160.158 248.233 160.432 247.82 160.854 247.737C161.275 247.65 161.688 247.925 161.772 248.346V248.353L161.776 248.369L162.017 249.614V249.63C162.101 250.049 161.826 250.455 161.407 250.537C160.99 250.616 160.586 250.346 160.502 249.929L160.5 249.931Z" fill="url(#paint91_linear_102_2544)"/>
<path d="M159.752 245.66L159.586 244.37C159.53 243.932 159.84 243.533 160.278 243.476C160.716 243.42 161.115 243.73 161.171 244.166V244.172L161.173 244.188L161.323 245.447V245.463C161.378 245.898 161.067 246.292 160.632 246.342C160.199 246.394 159.806 246.086 159.752 245.655V245.66Z" fill="url(#paint92_linear_102_2544)"/>
<path d="M159.31 241.345L159.237 240.046C159.212 239.6 159.555 239.219 160.001 239.194C160.448 239.169 160.829 239.511 160.854 239.958V239.976L160.92 241.243V241.259C160.945 241.704 160.602 242.084 160.155 242.107C159.711 242.13 159.33 241.79 159.308 241.345H159.31Z" fill="url(#paint93_linear_102_2544)"/>
<path d="M159.171 237.013L159.187 235.711C159.192 235.26 159.561 234.9 160.012 234.906C160.464 234.911 160.824 235.28 160.817 235.732V235.75L160.799 237.017V237.033C160.792 237.482 160.423 237.84 159.974 237.836C159.525 237.829 159.167 237.462 159.171 237.013Z" fill="url(#paint94_linear_102_2544)"/>
<path d="M159.323 232.68L159.423 231.383C159.457 230.931 159.854 230.591 160.305 230.628C160.756 230.662 161.096 231.058 161.06 231.51V231.528L160.958 232.793V232.809C160.922 233.26 160.525 233.596 160.074 233.562C159.622 233.525 159.285 233.133 159.321 232.682L159.323 232.68Z" fill="url(#paint95_linear_102_2544)"/>
<path d="M159.754 228.367L159.936 227.079C159.999 226.626 160.418 226.313 160.872 226.376C161.325 226.44 161.638 226.859 161.575 227.313V227.331L161.393 228.587V228.603C161.325 229.054 160.906 229.367 160.455 229.301C160.004 229.235 159.691 228.82 159.756 228.367H159.754Z" fill="url(#paint96_linear_102_2544)"/>
<path d="M160.454 224.089L160.717 222.815C160.81 222.364 161.253 222.074 161.702 222.167C162.15 222.26 162.443 222.702 162.35 223.151L162.348 223.169L162.087 224.411V224.427C161.989 224.876 161.55 225.164 161.098 225.071C160.649 224.976 160.359 224.538 160.454 224.089Z" fill="url(#paint97_linear_102_2544)"/>
<path d="M161.425 219.865L161.768 218.612C161.89 218.165 162.35 217.9 162.799 218.022C163.248 218.144 163.511 218.605 163.389 219.054L163.384 219.072L163.046 220.296L163.042 220.312C162.919 220.759 162.457 221.019 162.01 220.897C161.563 220.775 161.3 220.314 161.425 219.87V219.865Z" fill="url(#paint98_linear_102_2544)"/>
<path d="M162.656 215.709L163.076 214.478C163.225 214.035 163.706 213.8 164.148 213.949C164.59 214.099 164.826 214.58 164.676 215.024L164.672 215.042L164.259 216.242L164.255 216.257C164.103 216.697 163.622 216.933 163.182 216.781C162.742 216.629 162.507 216.151 162.659 215.711L162.656 215.709Z" fill="url(#paint99_linear_102_2544)"/>
<path d="M164.144 211.639L164.64 210.437C164.819 210.002 165.318 209.796 165.753 209.975C166.189 210.154 166.395 210.653 166.216 211.088L166.209 211.106L165.722 212.278L165.715 212.294C165.536 212.727 165.037 212.934 164.604 212.752C164.171 212.573 163.964 212.076 164.144 211.643V211.639Z" fill="url(#paint100_linear_102_2544)"/>
<path d="M165.885 207.667L166.456 206.497C166.665 206.07 167.177 205.894 167.603 206.102C168.03 206.311 168.206 206.823 167.998 207.249L167.991 207.265L167.431 208.404L167.424 208.419C167.216 208.843 166.701 209.018 166.277 208.809C165.853 208.601 165.676 208.088 165.887 207.664L165.885 207.667Z" fill="url(#paint101_linear_102_2544)"/>
<path d="M167.878 203.812L168.524 202.683C168.76 202.268 169.288 202.125 169.703 202.361C170.118 202.596 170.261 203.125 170.025 203.54L170.018 203.556L169.385 204.655L169.376 204.669C169.138 205.081 168.612 205.224 168.2 204.986C167.787 204.748 167.644 204.224 167.88 203.812H167.878Z" fill="url(#paint102_linear_102_2544)"/>
<path d="M170.107 200.096L170.816 199.008C171.079 198.604 171.619 198.491 172.02 198.754C172.424 199.017 172.537 199.557 172.274 199.958L172.265 199.972L171.569 201.033L171.56 201.046C171.297 201.448 170.757 201.559 170.358 201.296C169.959 201.033 169.843 200.495 170.107 200.094V200.096Z" fill="url(#paint103_linear_102_2544)"/>
<path d="M172.544 196.516L173.315 195.47C173.603 195.08 174.151 194.997 174.541 195.285C174.931 195.572 175.015 196.121 174.727 196.511L174.718 196.525L173.961 197.545L173.952 197.556C173.664 197.944 173.117 198.026 172.727 197.738C172.337 197.45 172.256 196.903 172.544 196.516Z" fill="url(#paint104_linear_102_2544)"/>
<path d="M175.181 193.081L176.008 192.079C176.319 191.703 176.875 191.651 177.251 191.961C177.627 192.272 177.679 192.828 177.369 193.204L177.36 193.217L176.548 194.195L176.539 194.206C176.228 194.58 175.673 194.632 175.299 194.322C174.925 194.011 174.873 193.458 175.183 193.084L175.181 193.081Z" fill="url(#paint105_linear_102_2544)"/>
<path d="M177.999 189.796L178.879 188.842C179.212 188.481 179.774 188.456 180.135 188.79C180.495 189.123 180.52 189.685 180.187 190.046L180.178 190.057L179.314 190.989L179.305 191C178.972 191.361 178.412 191.381 178.051 191.048C177.691 190.715 177.668 190.157 178.001 189.796H177.999Z" fill="url(#paint106_linear_102_2544)"/>
<path d="M180.987 186.665L181.915 185.756C182.268 185.409 182.835 185.416 183.18 185.77C183.527 186.123 183.52 186.69 183.166 187.035L183.157 187.046L182.248 187.933L182.239 187.942C181.885 188.286 181.321 188.279 180.976 187.926C180.631 187.572 180.638 187.01 180.99 186.665H180.987Z" fill="url(#paint107_linear_102_2544)"/>
<path d="M184.13 183.693L185.1 182.831C185.472 182.5 186.041 182.534 186.372 182.908C186.703 183.28 186.669 183.849 186.295 184.18L186.286 184.191L185.331 185.033L185.322 185.042C184.95 185.37 184.381 185.334 184.053 184.962C183.724 184.59 183.758 184.024 184.13 183.695V183.693Z" fill="url(#paint108_linear_102_2544)"/>
<path d="M187.413 180.879L188.424 180.065C188.814 179.75 189.386 179.813 189.698 180.203C190.011 180.593 189.95 181.165 189.56 181.477L189.551 181.487L188.558 182.28L188.549 182.289C188.159 182.602 187.59 182.539 187.277 182.149C186.964 181.759 187.025 181.19 187.418 180.879H187.413Z" fill="url(#paint109_linear_102_2544)"/>
<path d="M190.827 178.223L191.875 177.457C192.283 177.16 192.854 177.248 193.151 177.656C193.448 178.065 193.36 178.636 192.952 178.933L192.943 178.942L191.913 179.69L191.904 179.697C191.496 179.992 190.927 179.903 190.632 179.495C190.338 179.087 190.424 178.52 190.832 178.223H190.827Z" fill="url(#paint110_linear_102_2544)"/>
<path d="M194.36 175.732L195.441 175.02C195.861 174.743 196.425 174.859 196.702 175.278C196.979 175.697 196.863 176.262 196.444 176.539L196.437 176.543L195.378 177.246L195.369 177.253C194.949 177.532 194.383 177.418 194.104 176.997C193.825 176.577 193.938 176.01 194.36 175.732Z" fill="url(#paint111_linear_102_2544)"/>
<path d="M198.001 173.408L199.112 172.741C199.541 172.485 200.096 172.623 200.352 173.052C200.609 173.48 200.47 174.036 200.042 174.292L200.035 174.296L198.944 174.954L198.935 174.961C198.507 175.219 197.949 175.081 197.691 174.652C197.432 174.224 197.57 173.666 197.999 173.408H198.001Z" fill="url(#paint112_linear_102_2544)"/>
<path d="M201.742 171.245L202.883 170.626C203.318 170.39 203.862 170.551 204.1 170.987C204.336 171.422 204.175 171.966 203.74 172.204L203.733 172.209L202.615 172.821L202.606 172.825C202.171 173.063 201.624 172.905 201.386 172.467C201.148 172.032 201.307 171.485 201.745 171.247H201.747L201.742 171.245Z" fill="url(#paint113_linear_102_2544)"/>
<path d="M205.567 169.238L206.733 168.667C207.175 168.449 207.708 168.633 207.925 169.075C208.143 169.517 207.959 170.05 207.517 170.268L207.51 170.272L206.368 170.837L206.358 170.841C205.916 171.059 205.381 170.877 205.161 170.438C204.944 169.995 205.125 169.46 205.565 169.24H205.567V169.238Z" fill="url(#paint114_linear_102_2544)"/>
<path d="M209.474 167.39L210.659 166.867C211.106 166.669 211.628 166.871 211.825 167.318C212.022 167.765 211.82 168.286 211.374 168.483H211.367L210.204 169.005L210.195 169.009C209.748 169.209 209.224 169.009 209.025 168.56C208.825 168.114 209.025 167.59 209.474 167.39Z" fill="url(#paint115_linear_102_2544)"/>
<path d="M213.446 165.703L214.652 165.227C215.103 165.05 215.613 165.27 215.79 165.721C215.967 166.173 215.747 166.683 215.296 166.86H215.289L214.103 167.336L214.094 167.34C213.643 167.519 213.131 167.299 212.952 166.848C212.773 166.397 212.992 165.885 213.444 165.706H213.446V165.703Z" fill="url(#paint116_linear_102_2544)"/>
<path d="M217.484 164.173L218.706 163.744C219.159 163.586 219.656 163.824 219.817 164.28C219.976 164.733 219.738 165.23 219.282 165.391H219.275L218.073 165.819L218.064 165.824C217.609 165.985 217.112 165.746 216.951 165.291C216.79 164.835 217.028 164.336 217.484 164.178H217.486L217.484 164.173Z" fill="url(#paint117_linear_102_2544)"/>
<path d="M221.577 162.801L222.812 162.42C223.268 162.28 223.753 162.536 223.894 162.992C224.034 163.447 223.778 163.933 223.323 164.073H223.316L222.098 164.454H222.089C221.631 164.599 221.146 164.345 221.003 163.887C220.86 163.429 221.116 162.944 221.572 162.801H221.574H221.577Z" fill="url(#paint118_linear_102_2544)"/>
<path d="M225.712 161.584L226.961 161.246C227.419 161.121 227.889 161.393 228.013 161.851C228.138 162.309 227.866 162.779 227.408 162.903H227.401L226.17 163.241H226.161C225.703 163.368 225.229 163.098 225.105 162.64C224.98 162.182 225.25 161.709 225.708 161.584H225.71H225.712Z" fill="url(#paint119_linear_102_2544)"/>
<path d="M229.886 160.509L231.145 160.214C231.603 160.107 232.061 160.391 232.167 160.849C232.274 161.307 231.99 161.765 231.532 161.871H231.528L230.285 162.168H230.276C229.818 162.279 229.358 161.996 229.249 161.538C229.14 161.08 229.424 160.62 229.882 160.511H229.884L229.886 160.509Z" fill="url(#paint120_linear_102_2544)"/>
<path d="M234.092 159.572L235.359 159.318C235.817 159.225 236.262 159.522 236.355 159.98C236.446 160.438 236.151 160.882 235.693 160.975H235.688L234.437 161.231H234.43C233.972 161.327 233.525 161.032 233.432 160.572C233.339 160.114 233.634 159.667 234.092 159.574H234.094L234.092 159.572Z" fill="url(#paint121_linear_102_2544)"/>
<path d="M238.325 158.77L239.599 158.555C240.055 158.478 240.488 158.786 240.565 159.242C240.642 159.698 240.334 160.131 239.878 160.208H239.874L238.615 160.425H238.608C238.15 160.505 237.717 160.199 237.638 159.741C237.559 159.283 237.867 158.85 238.323 158.77H238.325Z" fill="url(#paint122_linear_102_2544)"/>
<path d="M242.579 158.096L243.857 157.919C244.313 157.856 244.733 158.173 244.796 158.629C244.86 159.085 244.542 159.504 244.086 159.568H244.082L242.817 159.749H242.81C242.354 159.815 241.932 159.497 241.867 159.042C241.801 158.586 242.118 158.164 242.574 158.098H242.576L242.579 158.096Z" fill="url(#paint123_linear_102_2544)"/>
<path d="M246.848 157.545L248.131 157.402C248.585 157.353 248.993 157.679 249.043 158.133C249.092 158.586 248.766 158.994 248.312 159.044H248.308L247.038 159.189H247.031C246.578 159.241 246.168 158.915 246.115 158.461C246.063 158.008 246.39 157.597 246.843 157.545H246.846H246.848Z" fill="url(#paint124_linear_102_2544)"/>
<path d="M251.131 157.113L252.417 157.004C252.868 156.965 253.262 157.301 253.301 157.75C253.339 158.201 253.004 158.596 252.555 158.634H252.55L251.276 158.745H251.269C250.818 158.786 250.421 158.451 250.38 157.999C250.342 157.548 250.675 157.151 251.126 157.111H251.129L251.131 157.113Z" fill="url(#paint125_linear_102_2544)"/>
<path d="M255.421 156.789L256.706 156.711C257.153 156.684 257.538 157.027 257.566 157.473C257.593 157.92 257.25 158.305 256.804 158.333H256.801L255.527 158.412H255.52C255.072 158.441 254.686 158.099 254.659 157.65C254.632 157.201 254.972 156.816 255.421 156.789Z" fill="url(#paint126_linear_102_2544)"/>
<path d="M259.715 156.568L261.003 156.523C261.447 156.507 261.819 156.854 261.835 157.298C261.851 157.741 261.506 158.112 261.064 158.131H261.057L259.781 158.183H259.776C259.332 158.201 258.955 157.854 258.937 157.41C258.919 156.965 259.266 156.589 259.71 156.571H259.715V156.568Z" fill="url(#paint127_linear_102_2544)"/>
<path d="M264.011 156.459L265.302 156.445C265.735 156.441 266.088 156.788 266.093 157.221C266.097 157.652 265.755 158.003 265.324 158.012H265.32L264.041 158.037H264.036C263.601 158.046 263.241 157.699 263.231 157.264C263.222 156.829 263.569 156.468 264.005 156.459H264.011Z" fill="url(#paint128_linear_102_2544)"/>
<path d="M268.31 156.443L269.6 156.457C270.022 156.461 270.36 156.806 270.355 157.228C270.351 157.647 270.011 157.985 269.591 157.985H268.306H268.301C267.877 157.985 267.533 157.641 267.533 157.214C267.533 156.788 267.877 156.446 268.303 156.446H268.31V156.443Z" fill="url(#paint129_linear_102_2544)"/>
<path d="M272.607 156.516L273.897 156.554C274.307 156.566 274.632 156.908 274.618 157.318C274.607 157.727 274.267 158.048 273.861 158.039H273.856L272.575 158.014H272.571C272.156 158.005 271.827 157.663 271.836 157.25C271.845 156.835 272.187 156.507 272.6 156.516H272.607Z" fill="url(#paint130_linear_102_2544)"/>
<path d="M276.901 156.67L278.189 156.732C278.588 156.75 278.896 157.09 278.878 157.489C278.86 157.886 278.524 158.192 278.128 158.178H278.123L276.842 158.128H276.838C276.434 158.113 276.121 157.775 276.137 157.371C276.153 156.968 276.491 156.655 276.894 156.67H276.901Z" fill="url(#paint131_linear_102_2544)"/>
<path d="M281.191 156.898L282.476 156.979C282.864 157.004 283.159 157.34 283.134 157.728C283.109 158.113 282.778 158.405 282.392 158.385H282.388L281.107 158.315H281.102C280.71 158.292 280.411 157.959 280.433 157.567C280.454 157.174 280.789 156.875 281.182 156.898H281.188H281.191Z" fill="url(#paint132_linear_102_2544)"/>
<path d="M285.476 157.196L286.759 157.298C287.136 157.328 287.417 157.659 287.387 158.035C287.358 158.409 287.031 158.688 286.657 158.663H286.653L285.374 158.572H285.372C284.991 158.545 284.705 158.216 284.732 157.836C284.76 157.455 285.088 157.169 285.469 157.196H285.476Z" fill="url(#paint133_linear_102_2544)"/>
<path d="M289.75 157.555L291.029 157.668C291.394 157.7 291.663 158.022 291.632 158.387C291.6 158.75 291.28 159.02 290.918 158.99L289.636 158.89C289.267 158.861 288.993 158.539 289.022 158.169C289.052 157.8 289.374 157.525 289.743 157.555H289.75Z" fill="url(#paint134_linear_102_2544)"/>
<path d="M294.013 157.923L295.289 158.025H295.291C295.645 158.055 295.91 158.366 295.881 158.719C295.854 159.071 295.545 159.336 295.194 159.311L293.91 159.22C293.552 159.195 293.282 158.885 293.307 158.527C293.332 158.168 293.643 157.899 294.001 157.923H294.008H294.01H294.013Z" fill="url(#paint135_linear_102_2544)"/>
<path d="M298.27 158.235L299.547 158.307H299.554C299.898 158.328 300.161 158.622 300.141 158.965C300.121 159.307 299.83 159.568 299.488 159.552L298.2 159.491C297.853 159.475 297.583 159.18 297.602 158.831C297.617 158.484 297.912 158.214 298.261 158.232H298.268H298.273L298.27 158.235Z" fill="url(#paint136_linear_102_2544)"/>
<path d="M302.524 158.424L303.8 158.447H303.809C304.143 158.453 304.408 158.728 304.404 159.061C304.397 159.392 304.125 159.657 303.794 159.655L302.501 159.644C302.163 159.641 301.894 159.365 301.896 159.029C301.898 158.691 302.175 158.422 302.51 158.424H302.515H302.524Z" fill="url(#paint137_linear_102_2544)"/>
<path d="M306.775 158.421L308.047 158.372H308.058C308.38 158.358 308.652 158.61 308.664 158.932C308.675 159.251 308.428 159.521 308.108 159.537L306.814 159.598C306.487 159.614 306.213 159.362 306.197 159.036C306.181 158.709 306.433 158.435 306.759 158.419H306.764H306.775V158.421Z" fill="url(#paint138_linear_102_2544)"/>
<path d="M311.006 158.155L312.266 158.015H312.28C312.588 157.978 312.867 158.201 312.903 158.511C312.938 158.82 312.718 159.096 312.412 159.132L311.124 159.291C310.811 159.33 310.527 159.107 310.489 158.795C310.45 158.482 310.672 158.198 310.985 158.16H310.99H311.003L311.006 158.155Z" fill="url(#paint139_linear_102_2544)"/>
<path d="M315.196 157.562L316.438 157.308H316.454C316.742 157.246 317.021 157.432 317.08 157.718C317.139 158.001 316.955 158.28 316.674 158.341L315.404 158.62C315.112 158.684 314.824 158.5 314.76 158.208C314.697 157.915 314.881 157.627 315.173 157.564H315.178L315.196 157.559V157.562Z" fill="url(#paint140_linear_102_2544)"/>
<path d="M319.302 156.569L320.51 156.184L320.529 156.179C320.792 156.095 321.07 156.24 321.154 156.503C321.236 156.762 321.095 157.041 320.839 157.127L319.604 157.542C319.338 157.63 319.05 157.487 318.96 157.222C318.871 156.957 319.014 156.669 319.279 156.578C319.279 156.578 319.282 156.578 319.284 156.578L319.302 156.571V156.569Z" fill="url(#paint141_linear_102_2544)"/>
<path d="M323.24 155.087L324.374 154.529L324.392 154.52C324.623 154.407 324.902 154.502 325.015 154.734C325.129 154.963 325.036 155.237 324.809 155.353L323.646 155.947C323.412 156.067 323.127 155.974 323.007 155.74C322.886 155.507 322.979 155.221 323.213 155.101C323.213 155.101 323.215 155.101 323.217 155.101L323.238 155.09L323.24 155.087Z" fill="url(#paint142_linear_102_2544)"/>
<path d="M326.92 153.038L327.963 152.321L327.979 152.31C328.176 152.174 328.446 152.224 328.58 152.421C328.713 152.616 328.666 152.881 328.473 153.02L327.41 153.775C327.21 153.915 326.934 153.87 326.793 153.67C326.652 153.471 326.698 153.194 326.897 153.054H326.902L326.92 153.04V153.038Z" fill="url(#paint143_linear_102_2544)"/>
<path d="M330.273 150.478L331.203 149.619L331.217 149.607C331.38 149.458 331.631 149.467 331.781 149.63C331.931 149.791 331.922 150.04 331.763 150.19L330.82 151.09C330.656 151.247 330.396 151.24 330.239 151.076C330.083 150.913 330.09 150.653 330.253 150.496C330.253 150.496 330.253 150.496 330.255 150.494L330.271 150.48L330.273 150.478Z" fill="url(#paint144_linear_102_2544)"/>
<path d="M333.212 147.455L333.996 146.462L334.008 146.448C334.132 146.289 334.364 146.262 334.522 146.387C334.681 146.512 334.708 146.738 334.586 146.899L333.795 147.933C333.668 148.099 333.432 148.13 333.266 148.003C333.101 147.876 333.069 147.641 333.196 147.475C333.196 147.475 333.196 147.475 333.198 147.473L333.212 147.457V147.455Z" fill="url(#paint145_linear_102_2544)"/>
<path d="M335.624 143.994L336.223 142.879L336.232 142.863C336.32 142.7 336.522 142.639 336.685 142.727C336.846 142.813 336.908 143.013 336.824 143.176L336.225 144.335C336.137 144.505 335.93 144.57 335.76 144.482C335.59 144.394 335.524 144.187 335.613 144.017C335.613 144.017 335.613 144.017 335.613 144.015L335.622 143.997L335.624 143.994Z" fill="url(#paint146_linear_102_2544)"/>
<path d="M337.357 140.157L337.717 138.944L337.724 138.926C337.769 138.77 337.935 138.681 338.089 138.729C338.243 138.774 338.331 138.935 338.288 139.089L337.941 140.348C337.896 140.511 337.726 140.608 337.563 140.563C337.4 140.518 337.302 140.348 337.347 140.184C337.347 140.184 337.347 140.182 337.347 140.18L337.354 140.159L337.357 140.157Z" fill="url(#paint147_linear_102_2544)"/>
<path d="M338.225 136.043L338.288 134.78V134.762C338.297 134.624 338.413 134.517 338.551 134.524C338.687 134.531 338.794 134.646 338.789 134.782L338.749 136.086C338.744 136.231 338.622 136.347 338.476 136.342C338.331 136.338 338.216 136.215 338.22 136.07C338.22 136.07 338.22 136.068 338.22 136.066V136.045L338.225 136.043Z" fill="url(#paint148_linear_102_2544)"/>
<path d="M338.064 131.834L337.957 131.259V131.252C337.935 131.136 338.012 131.023 338.127 131.002C338.243 130.982 338.352 131.057 338.377 131.17L338.499 131.76C338.524 131.878 338.447 131.995 338.329 132.02C338.211 132.045 338.093 131.968 338.068 131.85C338.068 131.85 338.068 131.85 338.068 131.848V131.839L338.064 131.834Z" fill="url(#paint149_linear_102_2544)"/>
</g>
<defs>
<linearGradient id="paint0_linear_102_2544" x1="270.083" y1="170.282" x2="89.3998" y2="170.282" gradientUnits="userSpaceOnUse">
<stop stop-color="#09005D"/>
<stop offset="1" stop-color="#1A0F91"/>
</linearGradient>
<linearGradient id="paint1_linear_102_2544" x1="133.102" y1="98.4571" x2="505.239" y2="574.511" gradientUnits="userSpaceOnUse">
<stop stop-color="#FDF53F"/>
<stop offset="0.66" stop-color="#E57A58"/>
<stop offset="1" stop-color="#D93C65"/>
</linearGradient>
<linearGradient id="paint2_linear_102_2544" x1="98.8905" y1="159.887" x2="260.588" y2="159.887" gradientUnits="userSpaceOnUse">
<stop stop-color="#FE7062"/>
<stop offset="1" stop-color="#FF928E"/>
</linearGradient>
<linearGradient id="paint3_linear_102_2544" x1="174.897" y1="80.0313" x2="180.679" y2="15.8076" gradientUnits="userSpaceOnUse">
<stop stop-color="#FE7062"/>
<stop offset="1" stop-color="#FF928E"/>
</linearGradient>
<linearGradient id="paint4_linear_102_2544" x1="194.169" y1="76.6935" x2="89.7508" y2="187.726" gradientUnits="userSpaceOnUse">
<stop stop-color="#FF928E"/>
<stop offset="1" stop-color="#FEB3B1"/>
</linearGradient>
<linearGradient id="paint5_linear_102_2544" x1="153.873" y1="153.726" x2="77.3716" y2="251.592" gradientUnits="userSpaceOnUse">
<stop stop-color="#E1473D"/>
<stop offset="1" stop-color="#E9605A"/>
</linearGradient>
<linearGradient id="paint6_linear_102_2544" x1="118.14" y1="167.585" x2="169.816" y2="167.585" gradientUnits="userSpaceOnUse">
<stop stop-color="#FF928E"/>
<stop offset="1" stop-color="#FEB3B1"/>
</linearGradient>
<linearGradient id="paint7_linear_102_2544" x1="267.415" y1="76.6935" x2="162.996" y2="187.726" gradientUnits="userSpaceOnUse">
<stop stop-color="#FF928E"/>
<stop offset="1" stop-color="#FEB3B1"/>
</linearGradient>
<linearGradient id="paint8_linear_102_2544" x1="227.12" y1="153.726" x2="150.617" y2="251.592" gradientUnits="userSpaceOnUse">
<stop stop-color="#E1473D"/>
<stop offset="1" stop-color="#E9605A"/>
</linearGradient>
<linearGradient id="paint9_linear_102_2544" x1="191.388" y1="167.585" x2="243.064" y2="167.585" gradientUnits="userSpaceOnUse">
<stop stop-color="#FF928E"/>
<stop offset="1" stop-color="#FEB3B1"/>
</linearGradient>
<linearGradient id="paint10_linear_102_2544" x1="194.169" y1="165.22" x2="89.7508" y2="276.252" gradientUnits="userSpaceOnUse">
<stop stop-color="#FF928E"/>
<stop offset="1" stop-color="#FEB3B1"/>
</linearGradient>
<linearGradient id="paint11_linear_102_2544" x1="153.873" y1="242.251" x2="77.3714" y2="340.117" gradientUnits="userSpaceOnUse">
<stop stop-color="#E1473D"/>
<stop offset="1" stop-color="#E9605A"/>
</linearGradient>
<linearGradient id="paint12_linear_102_2544" x1="118.14" y1="256.112" x2="169.816" y2="256.112" gradientUnits="userSpaceOnUse">
<stop stop-color="#FF928E"/>
<stop offset="1" stop-color="#FEB3B1"/>
</linearGradient>
<linearGradient id="paint13_linear_102_2544" x1="267.415" y1="165.22" x2="162.996" y2="276.252" gradientUnits="userSpaceOnUse">
<stop stop-color="#FF928E"/>
<stop offset="1" stop-color="#FEB3B1"/>
</linearGradient>
<linearGradient id="paint14_linear_102_2544" x1="227.12" y1="242.251" x2="150.617" y2="340.117" gradientUnits="userSpaceOnUse">
<stop stop-color="#E1473D"/>
<stop offset="1" stop-color="#E9605A"/>
</linearGradient>
<linearGradient id="paint15_linear_102_2544" x1="191.387" y1="256.112" x2="243.064" y2="256.112" gradientUnits="userSpaceOnUse">
<stop stop-color="#FF928E"/>
<stop offset="1" stop-color="#FEB3B1"/>
</linearGradient>
<linearGradient id="paint16_linear_102_2544" x1="87.6673" y1="103.926" x2="91.2338" y2="24.6041" gradientUnits="userSpaceOnUse">
<stop stop-color="#4042E2"/>
<stop offset="1" stop-color="#4F52FF"/>
</linearGradient>
<linearGradient id="paint17_linear_102_2544" x1="150.954" y1="106.768" x2="154.519" y2="27.4484" gradientUnits="userSpaceOnUse">
<stop stop-color="#4042E2"/>
<stop offset="1" stop-color="#4F52FF"/>
</linearGradient>
<linearGradient id="paint18_linear_102_2544" x1="206.113" y1="109.249" x2="209.678" y2="29.9274" gradientUnits="userSpaceOnUse">
<stop stop-color="#4042E2"/>
<stop offset="1" stop-color="#4F52FF"/>
</linearGradient>
<linearGradient id="paint19_linear_102_2544" x1="275.604" y1="112.371" x2="279.168" y2="33.0514" gradientUnits="userSpaceOnUse">
<stop stop-color="#4042E2"/>
<stop offset="1" stop-color="#4F52FF"/>
</linearGradient>
<linearGradient id="paint20_linear_102_2544" x1="130.764" y1="-251.415" x2="94.6756" y2="24.967" gradientUnits="userSpaceOnUse">
<stop stop-color="#4042E2"/>
<stop offset="1" stop-color="#4F52FF"/>
</linearGradient>
<linearGradient id="paint21_linear_102_2544" x1="196.008" y1="-242.895" x2="159.922" y2="33.4875" gradientUnits="userSpaceOnUse">
<stop stop-color="#4042E2"/>
<stop offset="1" stop-color="#4F52FF"/>
</linearGradient>
<linearGradient id="paint22_linear_102_2544" x1="243.54" y1="-186.346" x2="279.629" y2="90.0363" gradientUnits="userSpaceOnUse">
<stop stop-color="#4042E2"/>
<stop offset="1" stop-color="#4F52FF"/>
</linearGradient>
<linearGradient id="paint23_linear_102_2544" x1="172.075" y1="-177.016" x2="208.163" y2="99.3685" gradientUnits="userSpaceOnUse">
<stop stop-color="#4042E2"/>
<stop offset="1" stop-color="#4F52FF"/>
</linearGradient>
<linearGradient id="paint24_linear_102_2544" x1="332.557" y1="164.453" x2="384.301" y2="164.453" gradientUnits="userSpaceOnUse">
<stop stop-color="#FE7062"/>
<stop offset="1" stop-color="#FF928E"/>
</linearGradient>
<linearGradient id="paint25_linear_102_2544" x1="457.887" y1="216.579" x2="178.306" y2="289.473" gradientUnits="userSpaceOnUse">
<stop stop-color="#FE7062"/>
<stop offset="1" stop-color="#FF928E"/>
</linearGradient>
<linearGradient id="paint26_linear_102_2544" x1="521.349" y1="241.93" x2="272.22" y2="244.698" gradientUnits="userSpaceOnUse">
<stop stop-color="#E1473D"/>
<stop offset="1" stop-color="#E9605A"/>
</linearGradient>
<linearGradient id="paint27_linear_102_2544" x1="317.386" y1="164.161" x2="369.131" y2="164.161" gradientUnits="userSpaceOnUse">
<stop stop-color="#E1473D"/>
<stop offset="1" stop-color="#E9605A"/>
</linearGradient>
<linearGradient id="paint28_linear_102_2544" x1="65.8106" y1="306.719" x2="151.635" y2="244.953" gradientUnits="userSpaceOnUse">
<stop stop-color="#4042E2"/>
<stop offset="1" stop-color="#4F52FF"/>
</linearGradient>
<linearGradient id="paint29_linear_102_2544" x1="251.793" y1="230.535" x2="382.244" y2="475.334" gradientUnits="userSpaceOnUse">
<stop stop-color="#4042E2"/>
<stop offset="1" stop-color="#4F52FF"/>
</linearGradient>
<linearGradient id="paint30_linear_102_2544" x1="348.298" y1="255.958" x2="350.105" y2="255.958" gradientUnits="userSpaceOnUse">
<stop stop-color="#09005D"/>
<stop offset="1" stop-color="#1A0F91"/>
</linearGradient>
<linearGradient id="paint31_linear_102_2544" x1="386.498" y1="255.958" x2="388.305" y2="255.958" gradientUnits="userSpaceOnUse">
<stop stop-color="#09005D"/>
<stop offset="1" stop-color="#1A0F91"/>
</linearGradient>
<linearGradient id="paint32_linear_102_2544" x1="400.458" y1="256.3" x2="448.495" y2="256.3" gradientUnits="userSpaceOnUse">
<stop stop-color="#4042E2"/>
<stop offset="1" stop-color="#4F52FF"/>
</linearGradient>
<linearGradient id="paint33_linear_102_2544" x1="371.903" y1="256.3" x2="419.941" y2="256.3" gradientUnits="userSpaceOnUse">
<stop stop-color="#4042E2"/>
<stop offset="1" stop-color="#4F52FF"/>
</linearGradient>
<linearGradient id="paint34_linear_102_2544" x1="346.523" y1="201.65" x2="405.122" y2="201.65" gradientUnits="userSpaceOnUse">
<stop stop-color="#4042E2"/>
<stop offset="1" stop-color="#4F52FF"/>
</linearGradient>
<linearGradient id="paint35_linear_102_2544" x1="378.887" y1="218.557" x2="409.334" y2="218.557" gradientUnits="userSpaceOnUse">
<stop stop-color="#4042E2"/>
<stop offset="1" stop-color="#4F52FF"/>
</linearGradient>
<linearGradient id="paint36_linear_102_2544" x1="388.579" y1="239.123" x2="417.218" y2="239.123" gradientUnits="userSpaceOnUse">
<stop stop-color="#4042E2"/>
<stop offset="1" stop-color="#4F52FF"/>
</linearGradient>
<linearGradient id="paint37_linear_102_2544" x1="397.086" y1="259.689" x2="425.725" y2="259.689" gradientUnits="userSpaceOnUse">
<stop stop-color="#4042E2"/>
<stop offset="1" stop-color="#4F52FF"/>
</linearGradient>
<linearGradient id="paint38_linear_102_2544" x1="405.104" y1="280.254" x2="435.551" y2="280.254" gradientUnits="userSpaceOnUse">
<stop stop-color="#4042E2"/>
<stop offset="1" stop-color="#4F52FF"/>
</linearGradient>
<linearGradient id="paint39_linear_102_2544" x1="413.728" y1="300.821" x2="444.176" y2="300.821" gradientUnits="userSpaceOnUse">
<stop stop-color="#4042E2"/>
<stop offset="1" stop-color="#4F52FF"/>
</linearGradient>
<linearGradient id="paint40_linear_102_2544" x1="363.408" y1="190.881" x2="404.639" y2="235.728" gradientUnits="userSpaceOnUse">
<stop stop-color="#09005D"/>
<stop offset="1" stop-color="#1A0F91"/>
</linearGradient>
<linearGradient id="paint41_linear_102_2544" x1="376.792" y1="194.211" x2="373.13" y2="194.211" gradientUnits="userSpaceOnUse">
<stop stop-color="#FF928E"/>
<stop offset="1" stop-color="#FEB3B1"/>
</linearGradient>
<linearGradient id="paint42_linear_102_2544" x1="378.928" y1="188.246" x2="380.522" y2="121.871" gradientUnits="userSpaceOnUse">
<stop stop-color="#09005D"/>
<stop offset="1" stop-color="#1A0F91"/>
</linearGradient>
<linearGradient id="paint43_linear_102_2544" x1="372.658" y1="182.379" x2="413.889" y2="227.226" gradientUnits="userSpaceOnUse">
<stop stop-color="#09005D"/>
<stop offset="1" stop-color="#1A0F91"/>
</linearGradient>
<linearGradient id="paint44_linear_102_2544" x1="389.99" y1="194.025" x2="386.829" y2="194.025" gradientUnits="userSpaceOnUse">
<stop stop-color="#FF928E"/>
<stop offset="1" stop-color="#FEB3B1"/>
</linearGradient>
<linearGradient id="paint45_linear_102_2544" x1="398.803" y1="178.313" x2="339.644" y2="105.209" gradientUnits="userSpaceOnUse">
<stop stop-color="#09005D"/>
<stop offset="1" stop-color="#1A0F91"/>
</linearGradient>
<linearGradient id="paint46_linear_102_2544" x1="383.22" y1="108.863" x2="397.898" y2="155.692" gradientUnits="userSpaceOnUse">
<stop stop-color="#FE7062"/>
<stop offset="1" stop-color="#FF928E"/>
</linearGradient>
<linearGradient id="paint47_linear_102_2544" x1="386.7" y1="88.5939" x2="386.7" y2="110.158" gradientUnits="userSpaceOnUse">
<stop stop-color="#FF928E"/>
<stop offset="1" stop-color="#FEB3B1"/>
</linearGradient>
<linearGradient id="paint48_linear_102_2544" x1="385.588" y1="96.9822" x2="381.902" y2="78.0296" gradientUnits="userSpaceOnUse">
<stop stop-color="#FF928E"/>
<stop offset="1" stop-color="#FEB3B1"/>
</linearGradient>
<linearGradient id="paint49_linear_102_2544" x1="392.627" y1="78.5753" x2="382.838" y2="92.4064" gradientUnits="userSpaceOnUse">
<stop stop-color="#09005D"/>
<stop offset="1" stop-color="#1A0F91"/>
</linearGradient>
<linearGradient id="paint50_linear_102_2544" x1="388.915" y1="96.3351" x2="385.231" y2="77.3834" gradientUnits="userSpaceOnUse">
<stop stop-color="#FF928E"/>
<stop offset="1" stop-color="#FEB3B1"/>
</linearGradient>
<linearGradient id="paint51_linear_102_2544" x1="410.103" y1="112.339" x2="394.699" y2="136.84" gradientUnits="userSpaceOnUse">
<stop stop-color="#FF928E"/>
<stop offset="1" stop-color="#FEB3B1"/>
</linearGradient>
<linearGradient id="paint52_linear_102_2544" x1="396.699" y1="104.637" x2="411.377" y2="151.468" gradientUnits="userSpaceOnUse">
<stop stop-color="#FE7062"/>
<stop offset="1" stop-color="#FF928E"/>
</linearGradient>
<linearGradient id="paint53_linear_102_2544" x1="355.143" y1="115.987" x2="355.547" y2="99.2044" gradientUnits="userSpaceOnUse">
<stop stop-color="#FF928E"/>
<stop offset="1" stop-color="#FEB3B1"/>
</linearGradient>
<linearGradient id="paint54_linear_102_2544" x1="341.959" y1="110.413" x2="357.735" y2="159.899" gradientUnits="userSpaceOnUse">
<stop stop-color="#4042E2"/>
<stop offset="1" stop-color="#4F52FF"/>
</linearGradient>
<linearGradient id="paint55_linear_102_2544" x1="369.904" y1="113.036" x2="384.584" y2="159.867" gradientUnits="userSpaceOnUse">
<stop stop-color="#FE7062"/>
<stop offset="1" stop-color="#FF928E"/>
</linearGradient>
<linearGradient id="paint56_linear_102_2544" x1="46.1874" y1="285.44" x2="25.5572" y2="285.44" gradientUnits="userSpaceOnUse">
<stop stop-color="#FF928E"/>
<stop offset="1" stop-color="#FEB3B1"/>
</linearGradient>
<linearGradient id="paint57_linear_102_2544" x1="17.83" y1="239.302" x2="28.0465" y2="305.711" gradientUnits="userSpaceOnUse">
<stop stop-color="#4042E2"/>
<stop offset="1" stop-color="#4F52FF"/>
</linearGradient>
<linearGradient id="paint58_linear_102_2544" x1="39.4467" y1="235.978" x2="49.6632" y2="302.387" gradientUnits="userSpaceOnUse">
<stop stop-color="#4042E2"/>
<stop offset="1" stop-color="#4F52FF"/>
</linearGradient>
<linearGradient id="paint59_linear_102_2544" x1="58.705" y1="286.971" x2="46.7586" y2="286.971" gradientUnits="userSpaceOnUse">
<stop stop-color="#FF928E"/>
<stop offset="1" stop-color="#FEB3B1"/>
</linearGradient>
<linearGradient id="paint60_linear_102_2544" x1="57.6506" y1="211.784" x2="42.0153" y2="245.401" gradientUnits="userSpaceOnUse">
<stop stop-color="#4042E2"/>
<stop offset="1" stop-color="#4F52FF"/>
</linearGradient>
<linearGradient id="paint61_linear_102_2544" x1="69.1508" y1="227.546" x2="25.7841" y2="290.894" gradientUnits="userSpaceOnUse">
<stop stop-color="#E1473D"/>
<stop offset="1" stop-color="#E9605A"/>
</linearGradient>
<linearGradient id="paint62_linear_102_2544" x1="55.0843" y1="208.825" x2="47.7722" y2="208.825" gradientUnits="userSpaceOnUse">
<stop stop-color="#FF928E"/>
<stop offset="1" stop-color="#FEB3B1"/>
</linearGradient>
<linearGradient id="paint63_linear_102_2544" x1="43.4645" y1="199.378" x2="-9.74689" y2="202.996" gradientUnits="userSpaceOnUse">
<stop stop-color="#FF928E"/>
<stop offset="1" stop-color="#FEB3B1"/>
</linearGradient>
<linearGradient id="paint64_linear_102_2544" x1="50.5243" y1="232.266" x2="85.2911" y2="195.078" gradientUnits="userSpaceOnUse">
<stop stop-color="#FF928E"/>
<stop offset="1" stop-color="#FEB3B1"/>
</linearGradient>
<linearGradient id="paint65_linear_102_2544" x1="52.073" y1="194.341" x2="26.7926" y2="243.419" gradientUnits="userSpaceOnUse">
<stop stop-color="#09005D"/>
<stop offset="1" stop-color="#1A0F91"/>
</linearGradient>
<linearGradient id="paint66_linear_102_2544" x1="57.9542" y1="205.808" x2="83.6881" y2="175.939" gradientUnits="userSpaceOnUse">
<stop stop-color="#E1473D"/>
<stop offset="1" stop-color="#E9605A"/>
</linearGradient>
<linearGradient id="paint67_linear_102_2544" x1="98.2257" y1="154.151" x2="22.1305" y2="269.11" gradientUnits="userSpaceOnUse">
<stop stop-color="#FE7062"/>
<stop offset="1" stop-color="#FF928E"/>
</linearGradient>
<linearGradient id="paint68_linear_102_2544" x1="95.9657" y1="157.451" x2="55.4467" y2="225.474" gradientUnits="userSpaceOnUse">
<stop stop-color="#FE7062"/>
<stop offset="1" stop-color="#FF928E"/>
</linearGradient>
<linearGradient id="paint69_linear_102_2544" x1="232.986" y1="288.741" x2="234.623" y2="288.741" gradientUnits="userSpaceOnUse">
<stop stop-color="#DAE3FE"/>
<stop offset="1" stop-color="#E9EFFD"/>
</linearGradient>
<linearGradient id="paint70_linear_102_2544" x1="228.886" y1="290.158" x2="230.644" y2="290.158" gradientUnits="userSpaceOnUse">
<stop stop-color="#DAE3FE"/>
<stop offset="1" stop-color="#E9EFFD"/>
</linearGradient>
<linearGradient id="paint71_linear_102_2544" x1="224.683" y1="291.217" x2="226.551" y2="291.217" gradientUnits="userSpaceOnUse">
<stop stop-color="#DAE3FE"/>
<stop offset="1" stop-color="#E9EFFD"/>
</linearGradient>
<linearGradient id="paint72_linear_102_2544" x1="220.418" y1="291.915" x2="222.375" y2="291.915" gradientUnits="userSpaceOnUse">
<stop stop-color="#DAE3FE"/>
<stop offset="1" stop-color="#E9EFFD"/>
</linearGradient>
<linearGradient id="paint73_linear_102_2544" x1="216.117" y1="292.266" x2="218.144" y2="292.266" gradientUnits="userSpaceOnUse">
<stop stop-color="#DAE3FE"/>
<stop offset="1" stop-color="#E9EFFD"/>
</linearGradient>
<linearGradient id="paint74_linear_102_2544" x1="211.805" y1="292.266" x2="213.893" y2="292.266" gradientUnits="userSpaceOnUse">
<stop stop-color="#DAE3FE"/>
<stop offset="1" stop-color="#E9EFFD"/>
</linearGradient>
<linearGradient id="paint75_linear_102_2544" x1="207.51" y1="291.942" x2="209.653" y2="291.942" gradientUnits="userSpaceOnUse">
<stop stop-color="#DAE3FE"/>
<stop offset="1" stop-color="#E9EFFD"/>
</linearGradient>
<linearGradient id="paint76_linear_102_2544" x1="203.254" y1="291.299" x2="205.442" y2="291.299" gradientUnits="userSpaceOnUse">
<stop stop-color="#DAE3FE"/>
<stop offset="1" stop-color="#E9EFFD"/>
</linearGradient>
<linearGradient id="paint77_linear_102_2544" x1="199.062" y1="290.339" x2="201.291" y2="290.339" gradientUnits="userSpaceOnUse">
<stop stop-color="#DAE3FE"/>
<stop offset="1" stop-color="#E9EFFD"/>
</linearGradient>
<linearGradient id="paint78_linear_102_2544" x1="194.954" y1="289.074" x2="197.217" y2="289.074" gradientUnits="userSpaceOnUse">
<stop stop-color="#DAE3FE"/>
<stop offset="1" stop-color="#E9EFFD"/>
</linearGradient>
<linearGradient id="paint79_linear_102_2544" x1="190.957" y1="287.513" x2="193.244" y2="287.513" gradientUnits="userSpaceOnUse">
<stop stop-color="#DAE3FE"/>
<stop offset="1" stop-color="#E9EFFD"/>
</linearGradient>
<linearGradient id="paint80_linear_102_2544" x1="187.095" y1="285.661" x2="189.392" y2="285.661" gradientUnits="userSpaceOnUse">
<stop stop-color="#DAE3FE"/>
<stop offset="1" stop-color="#E9EFFD"/>
</linearGradient>
<linearGradient id="paint81_linear_102_2544" x1="183.393" y1="283.521" x2="185.676" y2="283.521" gradientUnits="userSpaceOnUse">
<stop stop-color="#DAE3FE"/>
<stop offset="1" stop-color="#E9EFFD"/>
</linearGradient>
<linearGradient id="paint82_linear_102_2544" x1="179.87" y1="281.103" x2="182.132" y2="281.103" gradientUnits="userSpaceOnUse">
<stop stop-color="#DAE3FE"/>
<stop offset="1" stop-color="#E9EFFD"/>
</linearGradient>
<linearGradient id="paint83_linear_102_2544" x1="176.553" y1="278.414" x2="178.788" y2="278.414" gradientUnits="userSpaceOnUse">
<stop stop-color="#DAE3FE"/>
<stop offset="1" stop-color="#E9EFFD"/>
</linearGradient>
<linearGradient id="paint84_linear_102_2544" x1="173.471" y1="275.463" x2="175.671" y2="275.463" gradientUnits="userSpaceOnUse">
<stop stop-color="#DAE3FE"/>
<stop offset="1" stop-color="#E9EFFD"/>
</linearGradient>
<linearGradient id="paint85_linear_102_2544" x1="170.653" y1="272.259" x2="172.807" y2="272.259" gradientUnits="userSpaceOnUse">
<stop stop-color="#DAE3FE"/>
<stop offset="1" stop-color="#E9EFFD"/>
</linearGradient>
<linearGradient id="paint86_linear_102_2544" x1="168.129" y1="268.823" x2="170.229" y2="268.823" gradientUnits="userSpaceOnUse">
<stop stop-color="#DAE3FE"/>
<stop offset="1" stop-color="#E9EFFD"/>
</linearGradient>
<linearGradient id="paint87_linear_102_2544" x1="165.923" y1="265.174" x2="167.961" y2="265.174" gradientUnits="userSpaceOnUse">
<stop stop-color="#DAE3FE"/>
<stop offset="1" stop-color="#E9EFFD"/>
</linearGradient>
<linearGradient id="paint88_linear_102_2544" x1="164.026" y1="261.35" x2="166.007" y2="261.35" gradientUnits="userSpaceOnUse">
<stop stop-color="#DAE3FE"/>
<stop offset="1" stop-color="#E9EFFD"/>
</linearGradient>
<linearGradient id="paint89_linear_102_2544" x1="162.448" y1="257.384" x2="164.368" y2="257.384" gradientUnits="userSpaceOnUse">
<stop stop-color="#DAE3FE"/>
<stop offset="1" stop-color="#E9EFFD"/>
</linearGradient>
<linearGradient id="paint90_linear_102_2544" x1="161.182" y1="253.303" x2="163.044" y2="253.303" gradientUnits="userSpaceOnUse">
<stop stop-color="#DAE3FE"/>
<stop offset="1" stop-color="#E9EFFD"/>
</linearGradient>
<linearGradient id="paint91_linear_102_2544" x1="160.228" y1="249.138" x2="162.033" y2="249.138" gradientUnits="userSpaceOnUse">
<stop stop-color="#DAE3FE"/>
<stop offset="1" stop-color="#E9EFFD"/>
</linearGradient>
<linearGradient id="paint92_linear_102_2544" x1="159.58" y1="244.909" x2="161.33" y2="244.909" gradientUnits="userSpaceOnUse">
<stop stop-color="#DAE3FE"/>
<stop offset="1" stop-color="#E9EFFD"/>
</linearGradient>
<linearGradient id="paint93_linear_102_2544" x1="159.237" y1="240.649" x2="160.924" y2="240.649" gradientUnits="userSpaceOnUse">
<stop stop-color="#DAE3FE"/>
<stop offset="1" stop-color="#E9EFFD"/>
</linearGradient>
<linearGradient id="paint94_linear_102_2544" x1="159.171" y1="236.371" x2="160.817" y2="236.371" gradientUnits="userSpaceOnUse">
<stop stop-color="#DAE3FE"/>
<stop offset="1" stop-color="#E9EFFD"/>
</linearGradient>
<linearGradient id="paint95_linear_102_2544" x1="159.321" y1="232.092" x2="161.064" y2="232.092" gradientUnits="userSpaceOnUse">
<stop stop-color="#DAE3FE"/>
<stop offset="1" stop-color="#E9EFFD"/>
</linearGradient>
<linearGradient id="paint96_linear_102_2544" x1="159.745" y1="227.839" x2="161.582" y2="227.839" gradientUnits="userSpaceOnUse">
<stop stop-color="#DAE3FE"/>
<stop offset="1" stop-color="#E9EFFD"/>
</linearGradient>
<linearGradient id="paint97_linear_102_2544" x1="160.439" y1="223.62" x2="162.368" y2="223.62" gradientUnits="userSpaceOnUse">
<stop stop-color="#DAE3FE"/>
<stop offset="1" stop-color="#E9EFFD"/>
</linearGradient>
<linearGradient id="paint98_linear_102_2544" x1="161.396" y1="219.457" x2="163.418" y2="219.457" gradientUnits="userSpaceOnUse">
<stop stop-color="#DAE3FE"/>
<stop offset="1" stop-color="#E9EFFD"/>
</linearGradient>
<linearGradient id="paint99_linear_102_2544" x1="162.609" y1="215.366" x2="164.722" y2="215.366" gradientUnits="userSpaceOnUse">
<stop stop-color="#DAE3FE"/>
<stop offset="1" stop-color="#E9EFFD"/>
</linearGradient>
<linearGradient id="paint100_linear_102_2544" x1="164.078" y1="211.36" x2="166.279" y2="211.36" gradientUnits="userSpaceOnUse">
<stop stop-color="#DAE3FE"/>
<stop offset="1" stop-color="#E9EFFD"/>
</linearGradient>
<linearGradient id="paint101_linear_102_2544" x1="165.796" y1="207.458" x2="168.086" y2="207.458" gradientUnits="userSpaceOnUse">
<stop stop-color="#DAE3FE"/>
<stop offset="1" stop-color="#E9EFFD"/>
</linearGradient>
<linearGradient id="paint102_linear_102_2544" x1="167.762" y1="203.676" x2="170.138" y2="203.676" gradientUnits="userSpaceOnUse">
<stop stop-color="#DAE3FE"/>
<stop offset="1" stop-color="#E9EFFD"/>
</linearGradient>
<linearGradient id="paint103_linear_102_2544" x1="169.964" y1="200.026" x2="172.415" y2="200.026" gradientUnits="userSpaceOnUse">
<stop stop-color="#DAE3FE"/>
<stop offset="1" stop-color="#E9EFFD"/>
</linearGradient>
<linearGradient id="paint104_linear_102_2544" x1="172.374" y1="196.511" x2="174.897" y2="196.511" gradientUnits="userSpaceOnUse">
<stop stop-color="#DAE3FE"/>
<stop offset="1" stop-color="#E9EFFD"/>
</linearGradient>
<linearGradient id="paint105_linear_102_2544" x1="174.979" y1="193.143" x2="177.571" y2="193.143" gradientUnits="userSpaceOnUse">
<stop stop-color="#DAE3FE"/>
<stop offset="1" stop-color="#E9EFFD"/>
</linearGradient>
<linearGradient id="paint106_linear_102_2544" x1="177.766" y1="189.919" x2="180.421" y2="189.919" gradientUnits="userSpaceOnUse">
<stop stop-color="#DAE3FE"/>
<stop offset="1" stop-color="#E9EFFD"/>
</linearGradient>
<linearGradient id="paint107_linear_102_2544" x1="180.718" y1="186.849" x2="183.436" y2="186.849" gradientUnits="userSpaceOnUse">
<stop stop-color="#DAE3FE"/>
<stop offset="1" stop-color="#E9EFFD"/>
</linearGradient>
<linearGradient id="paint108_linear_102_2544" x1="183.826" y1="183.935" x2="186.599" y2="183.935" gradientUnits="userSpaceOnUse">
<stop stop-color="#DAE3FE"/>
<stop offset="1" stop-color="#E9EFFD"/>
</linearGradient>
<linearGradient id="paint109_linear_102_2544" x1="187.075" y1="181.176" x2="189.9" y2="181.176" gradientUnits="userSpaceOnUse">
<stop stop-color="#DAE3FE"/>
<stop offset="1" stop-color="#E9EFFD"/>
</linearGradient>
<linearGradient id="paint110_linear_102_2544" x1="190.453" y1="178.575" x2="193.326" y2="178.575" gradientUnits="userSpaceOnUse">
<stop stop-color="#DAE3FE"/>
<stop offset="1" stop-color="#E9EFFD"/>
</linearGradient>
<linearGradient id="paint111_linear_102_2544" x1="193.95" y1="176.137" x2="196.854" y2="176.137" gradientUnits="userSpaceOnUse">
<stop stop-color="#DAE3FE"/>
<stop offset="1" stop-color="#E9EFFD"/>
</linearGradient>
<linearGradient id="paint112_linear_102_2544" x1="197.561" y1="173.852" x2="200.482" y2="173.852" gradientUnits="userSpaceOnUse">
<stop stop-color="#DAE3FE"/>
<stop offset="1" stop-color="#E9EFFD"/>
</linearGradient>
<linearGradient id="paint113_linear_102_2544" x1="201.271" y1="171.726" x2="204.207" y2="171.726" gradientUnits="userSpaceOnUse">
<stop stop-color="#DAE3FE"/>
<stop offset="1" stop-color="#E9EFFD"/>
</linearGradient>
<linearGradient id="paint114_linear_102_2544" x1="205.068" y1="169.755" x2="208.016" y2="169.755" gradientUnits="userSpaceOnUse">
<stop stop-color="#DAE3FE"/>
<stop offset="1" stop-color="#E9EFFD"/>
</linearGradient>
<linearGradient id="paint115_linear_102_2544" x1="208.943" y1="167.939" x2="211.9" y2="167.939" gradientUnits="userSpaceOnUse">
<stop stop-color="#DAE3FE"/>
<stop offset="1" stop-color="#E9EFFD"/>
</linearGradient>
<linearGradient id="paint116_linear_102_2544" x1="212.888" y1="166.284" x2="215.852" y2="166.284" gradientUnits="userSpaceOnUse">
<stop stop-color="#DAE3FE"/>
<stop offset="1" stop-color="#E9EFFD"/>
</linearGradient>
<linearGradient id="paint117_linear_102_2544" x1="216.899" y1="164.783" x2="219.865" y2="164.783" gradientUnits="userSpaceOnUse">
<stop stop-color="#DAE3FE"/>
<stop offset="1" stop-color="#E9EFFD"/>
</linearGradient>
<linearGradient id="paint118_linear_102_2544" x1="220.965" y1="163.441" x2="223.93" y2="163.441" gradientUnits="userSpaceOnUse">
<stop stop-color="#DAE3FE"/>
<stop offset="1" stop-color="#E9EFFD"/>
</linearGradient>
<linearGradient id="paint119_linear_102_2544" x1="225.075" y1="162.244" x2="228.043" y2="162.244" gradientUnits="userSpaceOnUse">
<stop stop-color="#DAE3FE"/>
<stop offset="1" stop-color="#E9EFFD"/>
</linearGradient>
<linearGradient id="paint120_linear_102_2544" x1="229.227" y1="161.191" x2="232.19" y2="161.191" gradientUnits="userSpaceOnUse">
<stop stop-color="#DAE3FE"/>
<stop offset="1" stop-color="#E9EFFD"/>
</linearGradient>
<linearGradient id="paint121_linear_102_2544" x1="233.412" y1="160.275" x2="236.371" y2="160.275" gradientUnits="userSpaceOnUse">
<stop stop-color="#DAE3FE"/>
<stop offset="1" stop-color="#E9EFFD"/>
</linearGradient>
<linearGradient id="paint122_linear_102_2544" x1="237.624" y1="159.491" x2="240.576" y2="159.491" gradientUnits="userSpaceOnUse">
<stop stop-color="#DAE3FE"/>
<stop offset="1" stop-color="#E9EFFD"/>
</linearGradient>
<linearGradient id="paint123_linear_102_2544" x1="241.86" y1="158.833" x2="244.803" y2="158.833" gradientUnits="userSpaceOnUse">
<stop stop-color="#DAE3FE"/>
<stop offset="1" stop-color="#E9EFFD"/>
</linearGradient>
<linearGradient id="paint124_linear_102_2544" x1="246.113" y1="158.296" x2="249.047" y2="158.296" gradientUnits="userSpaceOnUse">
<stop stop-color="#DAE3FE"/>
<stop offset="1" stop-color="#E9EFFD"/>
</linearGradient>
<linearGradient id="paint125_linear_102_2544" x1="250.378" y1="157.875" x2="253.303" y2="157.875" gradientUnits="userSpaceOnUse">
<stop stop-color="#DAE3FE"/>
<stop offset="1" stop-color="#E9EFFD"/>
</linearGradient>
<linearGradient id="paint126_linear_102_2544" x1="254.654" y1="157.562" x2="257.566" y2="157.562" gradientUnits="userSpaceOnUse">
<stop stop-color="#DAE3FE"/>
<stop offset="1" stop-color="#E9EFFD"/>
</linearGradient>
<linearGradient id="paint127_linear_102_2544" x1="258.935" y1="157.353" x2="261.835" y2="157.353" gradientUnits="userSpaceOnUse">
<stop stop-color="#DAE3FE"/>
<stop offset="1" stop-color="#E9EFFD"/>
</linearGradient>
<linearGradient id="paint128_linear_102_2544" x1="263.229" y1="157.241" x2="266.093" y2="157.241" gradientUnits="userSpaceOnUse">
<stop stop-color="#DAE3FE"/>
<stop offset="1" stop-color="#E9EFFD"/>
</linearGradient>
<linearGradient id="paint129_linear_102_2544" x1="267.533" y1="157.214" x2="270.358" y2="157.214" gradientUnits="userSpaceOnUse">
<stop stop-color="#DAE3FE"/>
<stop offset="1" stop-color="#E9EFFD"/>
</linearGradient>
<linearGradient id="paint130_linear_102_2544" x1="271.836" y1="157.278" x2="274.62" y2="157.278" gradientUnits="userSpaceOnUse">
<stop stop-color="#DAE3FE"/>
<stop offset="1" stop-color="#E9EFFD"/>
</linearGradient>
<linearGradient id="paint131_linear_102_2544" x1="276.137" y1="157.423" x2="278.88" y2="157.423" gradientUnits="userSpaceOnUse">
<stop stop-color="#DAE3FE"/>
<stop offset="1" stop-color="#E9EFFD"/>
</linearGradient>
<linearGradient id="paint132_linear_102_2544" x1="280.436" y1="157.641" x2="283.136" y2="157.641" gradientUnits="userSpaceOnUse">
<stop stop-color="#DAE3FE"/>
<stop offset="1" stop-color="#E9EFFD"/>
</linearGradient>
<linearGradient id="paint133_linear_102_2544" x1="284.73" y1="157.928" x2="287.39" y2="157.928" gradientUnits="userSpaceOnUse">
<stop stop-color="#DAE3FE"/>
<stop offset="1" stop-color="#E9EFFD"/>
</linearGradient>
<linearGradient id="paint134_linear_102_2544" x1="289.022" y1="158.274" x2="291.636" y2="158.274" gradientUnits="userSpaceOnUse">
<stop stop-color="#DAE3FE"/>
<stop offset="1" stop-color="#E9EFFD"/>
</linearGradient>
<linearGradient id="paint135_linear_102_2544" x1="293.307" y1="158.615" x2="295.885" y2="158.615" gradientUnits="userSpaceOnUse">
<stop stop-color="#DAE3FE"/>
<stop offset="1" stop-color="#E9EFFD"/>
</linearGradient>
<linearGradient id="paint136_linear_102_2544" x1="297.599" y1="158.894" x2="300.141" y2="158.894" gradientUnits="userSpaceOnUse">
<stop stop-color="#DAE3FE"/>
<stop offset="1" stop-color="#E9EFFD"/>
</linearGradient>
<linearGradient id="paint137_linear_102_2544" x1="301.896" y1="159.041" x2="304.401" y2="159.041" gradientUnits="userSpaceOnUse">
<stop stop-color="#DAE3FE"/>
<stop offset="1" stop-color="#E9EFFD"/>
</linearGradient>
<linearGradient id="paint138_linear_102_2544" x1="306.195" y1="158.988" x2="308.664" y2="158.988" gradientUnits="userSpaceOnUse">
<stop stop-color="#DAE3FE"/>
<stop offset="1" stop-color="#E9EFFD"/>
</linearGradient>
<linearGradient id="paint139_linear_102_2544" x1="310.487" y1="158.652" x2="312.908" y2="158.652" gradientUnits="userSpaceOnUse">
<stop stop-color="#DAE3FE"/>
<stop offset="1" stop-color="#E9EFFD"/>
</linearGradient>
<linearGradient id="paint140_linear_102_2544" x1="314.747" y1="157.965" x2="317.091" y2="157.965" gradientUnits="userSpaceOnUse">
<stop stop-color="#DAE3FE"/>
<stop offset="1" stop-color="#E9EFFD"/>
</linearGradient>
<linearGradient id="paint141_linear_102_2544" x1="318.932" y1="156.862" x2="321.177" y2="156.862" gradientUnits="userSpaceOnUse">
<stop stop-color="#DAE3FE"/>
<stop offset="1" stop-color="#E9EFFD"/>
</linearGradient>
<linearGradient id="paint142_linear_102_2544" x1="322.957" y1="155.235" x2="325.065" y2="155.235" gradientUnits="userSpaceOnUse">
<stop stop-color="#DAE3FE"/>
<stop offset="1" stop-color="#E9EFFD"/>
</linearGradient>
<linearGradient id="paint143_linear_102_2544" x1="326.714" y1="153.045" x2="328.657" y2="153.045" gradientUnits="userSpaceOnUse">
<stop stop-color="#DAE3FE"/>
<stop offset="1" stop-color="#E9EFFD"/>
</linearGradient>
<linearGradient id="paint144_linear_102_2544" x1="330.128" y1="150.351" x2="331.888" y2="150.351" gradientUnits="userSpaceOnUse">
<stop stop-color="#DAE3FE"/>
<stop offset="1" stop-color="#E9EFFD"/>
</linearGradient>
<linearGradient id="paint145_linear_102_2544" x1="333.121" y1="147.192" x2="334.665" y2="147.192" gradientUnits="userSpaceOnUse">
<stop stop-color="#DAE3FE"/>
<stop offset="1" stop-color="#E9EFFD"/>
</linearGradient>
<linearGradient id="paint146_linear_102_2544" x1="335.574" y1="143.604" x2="336.862" y2="143.604" gradientUnits="userSpaceOnUse">
<stop stop-color="#DAE3FE"/>
<stop offset="1" stop-color="#E9EFFD"/>
</linearGradient>
<linearGradient id="paint147_linear_102_2544" x1="337.338" y1="139.645" x2="338.3" y2="139.645" gradientUnits="userSpaceOnUse">
<stop stop-color="#DAE3FE"/>
<stop offset="1" stop-color="#E9EFFD"/>
</linearGradient>
<linearGradient id="paint148_linear_102_2544" x1="338.225" y1="135.431" x2="338.792" y2="135.431" gradientUnits="userSpaceOnUse">
<stop stop-color="#DAE3FE"/>
<stop offset="1" stop-color="#E9EFFD"/>
</linearGradient>
<linearGradient id="paint149_linear_102_2544" x1="337.953" y1="131.51" x2="338.504" y2="131.51" gradientUnits="userSpaceOnUse">
<stop stop-color="#DAE3FE"/>
<stop offset="1" stop-color="#E9EFFD"/>
</linearGradient>
<clipPath id="clip0_102_2544">
<rect width="475" height="311.575" fill="white"/>
</clipPath>
</defs>
</svg>
