<svg width="160" height="120" viewBox="0 0 160 120" fill="none" xmlns="http://www.w3.org/2000/svg">
<rect x="1" y="0.25" width="158.5" height="119.5" rx="10.4167" fill="white"/>
<rect x="1" y="0.25" width="158.5" height="119.5" rx="10.4167" stroke="#DEE2E6" stroke-width="0.5"/>
<path d="M78.17 58.5601H82.49V74.8801H78.17V58.5601ZM110.01 86.7201H105.69V70.5601C108.09 70.5601 110.01 72.4801 110.01 74.8801V86.7201Z" fill="#4D5471"/>
<path d="M82.49 86.7201H78.17V70.5601C80.57 70.5601 82.49 72.4801 82.49 74.8801V86.7201ZM54.97 86.7201H50.49V74.8801C50.49 72.4801 52.41 70.5601 54.81 70.5601V86.7201H54.97Z" fill="#4D5471"/>
<path d="M50.49 74.8801C50.49 72.4801 52.41 70.5601 54.81 70.5601H105.53C107.93 70.5601 109.85 72.4801 109.85 74.8801H50.49Z" fill="#4D5471"/>
<path d="M107.77 77.1202C110.244 77.1202 112.25 75.1144 112.25 72.6402C112.25 70.1659 110.244 68.1602 107.77 68.1602C105.296 68.1602 103.29 70.1659 103.29 72.6402C103.29 75.1144 105.296 77.1202 107.77 77.1202Z" fill="#63C558"/>
<path d="M109.53 68.6401V70.8801C109.53 72.3201 108.41 73.4401 106.97 73.4401C104.89 73.4401 104.41 76.3201 106.33 77.1201C107.13 77.4401 108.09 77.4401 109.05 77.1201C110.49 76.6401 111.61 75.5201 112.09 74.0801C112.73 71.6801 111.61 69.4401 109.53 68.6401Z" fill="#58B44F"/>
<path d="M80.25 77.1202C82.7243 77.1202 84.73 75.1144 84.73 72.6402C84.73 70.1659 82.7243 68.1602 80.25 68.1602C77.7758 68.1602 75.77 70.1659 75.77 72.6402C75.77 75.1144 77.7758 77.1202 80.25 77.1202Z" fill="#63C558"/>
<path d="M82.0101 68.6401V70.8801C82.0101 72.3201 80.8901 73.4401 79.4501 73.4401C77.3701 73.4401 76.8901 76.3201 78.8101 77.1201C79.6101 77.4401 80.5701 77.4401 81.5301 77.1201C82.9701 76.6401 84.0901 75.5201 84.5701 74.0801C85.3701 71.6801 84.0901 69.4401 82.0101 68.6401Z" fill="#58B44F"/>
<path d="M52.73 77.1202C55.2042 77.1202 57.21 75.1144 57.21 72.6402C57.21 70.1659 55.2042 68.1602 52.73 68.1602C50.2558 68.1602 48.25 70.1659 48.25 72.6402C48.25 75.1144 50.2558 77.1202 52.73 77.1202Z" fill="#63C558"/>
<path d="M54.4901 68.6401V70.8801C54.4901 72.3201 53.3701 73.4401 51.9301 73.4401C49.8501 73.4401 49.3701 76.3201 51.2901 77.1201C52.0901 77.4401 53.0501 77.4401 54.0101 77.1201C55.4501 76.6401 56.5701 75.5201 57.0501 74.0801C57.6901 71.6801 56.4101 69.4401 54.4901 68.6401ZM100.89 42.7201C100.89 54.0801 91.6101 63.3601 80.2501 63.3601C67.6101 63.3601 58.1701 52.1601 59.7701 40.1601C61.0501 30.0801 69.6901 22.0801 80.2501 22.0801C91.6101 22.0801 100.89 31.3601 100.89 42.7201Z" fill="#58B44F"/>
<path d="M99.1301 49.92C98.6501 49.44 98.3301 48.8 98.4901 48.16C98.4901 47.68 98.3301 47.2 98.0101 46.72C97.6901 46.4 97.3701 45.92 97.0501 45.44C96.8901 45.12 96.8901 44.64 97.0501 44.32C97.2101 44.16 97.2101 44 97.3701 43.84C97.5301 43.36 97.5301 43.04 97.2101 42.72C96.7301 42.4 96.4101 41.92 96.2501 41.44C96.0901 41.12 95.9301 40.64 95.9301 40.32C95.9301 39.84 95.7701 39.68 95.2901 39.68C94.9701 39.68 94.6501 39.68 94.4901 39.52C94.1701 39.52 94.0101 39.52 94.0101 39.84V40C94.0101 40.32 93.8501 40.32 93.6901 40.32H93.2101C92.8901 40.32 92.5701 40.32 92.4101 40.8C92.4101 40.8 92.4101 40.96 92.2501 40.96C91.9301 41.28 91.6101 41.28 91.2901 41.12C91.1301 40.96 90.9701 40.8 90.9701 40.64C90.6501 40.32 90.3301 40 90.0101 39.84C89.8501 39.84 89.6901 39.68 89.5301 39.52L89.0501 39.04L88.5701 38.08C87.9301 37.28 87.9301 36.32 88.2501 35.52C88.5701 34.88 88.7301 34.08 89.0501 33.44C89.2101 32.96 89.0501 32.64 88.7301 32.32L88.4101 32.64C88.2501 32.8 88.2501 32.8 88.0901 32.8C87.9301 32.8 87.9301 32.64 87.7701 32.64C87.6101 32.48 87.4501 32.32 87.2901 32C86.9701 31.52 86.9701 31.2 87.6101 31.04C87.7701 31.04 87.9301 30.88 88.0901 30.88C88.4101 30.72 88.4101 30.24 88.0901 30.08H87.9301C87.7701 30.08 87.6101 29.92 87.6101 29.92C87.4501 29.92 87.2901 29.92 87.1301 29.76C87.2901 29.6 87.4501 29.6 87.4501 29.6C88.0901 28.96 88.2501 28.48 88.4101 28C88.4101 27.68 88.5701 27.52 88.7301 27.2V26.88C88.5701 26.88 88.4101 26.72 88.2501 26.72C88.0901 26.72 87.9301 26.56 87.9301 26.4C87.7701 26.08 87.7701 26.08 87.4501 26.08C86.9701 26.08 86.8101 25.92 86.6501 25.6C86.6501 25.44 86.6501 25.28 86.8101 25.28C87.2901 24.96 87.2901 24.8 87.1301 24.32C86.9701 23.84 87.1301 23.68 87.6101 23.68C85.2101 22.72 82.8101 22.24 80.0901 22.24C71.9301 22.24 64.8901 27.04 61.5301 33.92C61.6901 33.76 61.8501 33.6 62.1701 33.6H62.8101C63.2901 33.6 63.9301 33.6 64.4101 33.28C64.7301 33.12 65.0501 32.96 65.5301 32.8C65.6901 32.8 65.6901 32.64 65.8501 32.48C65.8501 32.48 65.6901 32.48 65.6901 32.64C65.2101 32.64 64.7301 32.8 64.2501 32.64C64.0901 32.64 63.9301 32.64 63.7701 32.32C63.7701 32.32 63.7701 32.16 63.6101 32.16C63.4501 32.32 63.4501 32.48 63.2901 32.64C63.4501 32.8 63.2901 32.96 63.1301 32.8C62.9701 32.8 62.8101 32.64 62.8101 32.48C62.8101 32.32 62.9701 32.16 63.1301 32.16C63.4501 32.16 63.7701 32 64.0901 32C64.5701 32 65.0501 31.84 65.3701 31.52C65.5301 31.36 65.6901 31.2 65.6901 31.04C65.6901 31.04 65.6901 30.88 65.8501 30.88C66.0101 30.88 66.1701 30.88 66.1701 31.04C66.1701 31.2 66.3301 31.36 66.3301 31.36V31.68C66.6501 31.68 66.9701 31.52 67.2901 31.52C67.6101 31.52 67.9301 31.52 68.2501 31.68V30.72C68.2501 30.24 68.4101 30.08 68.7301 30.08C68.8901 29.92 68.8901 29.76 69.0501 29.6H68.7301C68.5701 29.28 68.7301 29.28 68.8901 29.28C69.0501 29.28 69.2101 29.28 69.3701 29.44C69.8501 29.6 70.1701 29.6 70.6501 29.44C70.9701 29.28 71.1301 29.28 71.4501 29.12C71.7701 28.96 72.0901 29.12 72.2501 29.28C72.7301 29.6 73.2101 29.76 73.8501 29.6C74.0101 29.6 74.3301 29.6 74.6501 29.76C74.0101 29.6 73.8501 29.6 73.8501 29.6H73.3701L73.2101 29.76C73.2101 29.76 73.2101 29.92 73.3701 29.92H73.6901C73.6901 30.24 73.5301 30.56 73.5301 30.88H72.5701C72.2501 30.88 71.9301 30.72 71.6101 30.72C71.7701 30.56 71.7701 30.24 71.9301 30.08C71.7701 30.08 71.4501 30.24 71.2901 30.24C70.9701 29.92 70.6501 30.08 70.3301 30.08C70.3301 30.4 70.4901 30.72 70.4901 31.04L70.6501 31.2C70.8101 31.36 70.8101 31.36 70.6501 31.52L70.1701 32H69.6901C69.5301 32 69.5301 31.84 69.3701 31.84C69.2101 32.16 69.0501 32.64 68.7301 32.96C68.7301 33.12 68.5701 33.28 68.5701 33.28C68.5701 33.6 68.5701 33.76 68.8901 33.6C69.6901 33.6 70.3301 33.44 71.1301 33.44H71.4501C71.7701 33.28 71.9301 32.96 71.6101 32.64C71.2901 32.32 71.2901 31.84 71.6101 31.36C71.9301 31.04 72.4101 30.88 72.8901 31.2C73.0501 31.2 73.0501 31.36 73.2101 31.36C73.5301 31.52 73.8501 31.36 74.0101 31.04C74.0101 30.88 74.1701 30.72 74.3301 30.88L74.4901 31.04L74.9701 31.52C75.2901 31.52 75.4501 31.68 75.7701 31.68C76.2501 31.84 76.5701 32.16 76.7301 32.64C76.7301 32.8 76.8901 32.8 76.8901 32.8C77.2101 32.8 77.3701 32.8 77.3701 33.12C77.5301 33.28 77.3701 33.44 77.2101 33.44H76.5701C76.2501 33.44 76.0901 33.28 75.9301 32.96C75.9301 32.8 75.7701 32.8 75.6101 32.8C75.4501 32.8 75.2901 32.96 75.1301 32.96H74.6501C74.4901 32.96 74.3301 32.96 74.3301 33.12C74.1701 33.44 74.0101 33.92 73.6901 34.4C74.0101 34.4 74.3301 33.92 74.6501 34.08C74.6501 34.24 74.6501 34.4 74.8101 34.4H75.6101C75.4501 34.72 75.2901 34.88 75.1301 35.04H74.8101C74.4901 34.72 74.1701 34.88 74.0101 35.2V36C74.0101 36.32 73.8501 36.48 73.6901 36.64C73.5301 36.8 73.5301 36.96 73.5301 37.12C73.5301 37.28 73.3701 37.28 73.3701 37.44L73.2101 37.6C73.0501 37.6 73.0501 37.76 73.2101 37.76C73.3701 37.92 73.3701 38.08 73.3701 38.4C73.3701 38.56 73.2101 38.72 73.2101 38.72C73.0501 39.2 73.0501 39.52 73.2101 40C73.3701 40.32 73.3701 40.64 73.5301 40.96V41.28C73.3701 41.12 73.2101 41.12 73.2101 41.12L73.0501 40.96C72.5701 40.32 72.2501 40.32 71.6101 40.8C71.6101 40.8 71.4501 40.96 71.4501 41.12C71.2901 41.12 71.1301 41.28 70.8101 41.28C70.1701 41.44 69.8501 41.92 69.6901 42.56V43.52C69.6901 44.16 70.6501 44.8 71.2901 44.48C71.6101 44.32 71.6101 44.16 71.6101 43.84C71.9301 43.68 72.0901 43.68 72.2501 44C72.2501 44.16 72.2501 44.16 72.4101 44.32C72.5701 44.8 72.8901 45.12 73.3701 44.96H73.6901C73.6901 45.28 74.0101 45.44 74.1701 45.76C74.3301 45.76 74.3301 45.92 74.4901 45.92C74.8101 46.08 75.1301 46.24 75.2901 45.92C75.4501 45.76 75.6101 45.76 75.7701 45.92C75.9301 46.08 76.0901 46.08 76.2501 46.08V45.44C76.2501 45.12 76.4101 44.96 76.7301 44.96C77.3701 44.96 78.0101 44.8 78.6501 44.8H79.2901C79.6101 44.8 80.0901 44.8 80.4101 45.12C80.5701 45.28 80.8901 45.28 81.0501 45.28H81.6901C81.8501 45.28 82.0101 45.44 82.1701 45.44C83.1301 45.92 84.0901 45.92 85.0501 45.76C85.3701 45.76 85.8501 45.76 86.1701 45.92C86.4901 45.92 86.6501 46.08 86.4901 46.56C86.3301 47.2 86.4901 47.84 86.6501 48.48C86.8101 48.8 86.9701 49.12 86.9701 49.44C87.1301 49.76 86.9701 50.08 86.6501 50.4L86.1701 50.88C85.8501 51.2 85.6901 51.52 85.5301 52C85.5301 52.32 85.3701 52.64 85.2101 52.96C85.0501 53.44 84.8901 53.76 85.0501 54.24V55.36C85.0501 55.68 84.8901 55.84 84.5701 55.84C84.5701 55.68 84.4101 55.68 84.4101 55.52C84.2501 55.52 84.0901 55.36 84.0901 55.36C83.9301 55.36 83.9301 55.52 83.9301 55.68C83.9301 55.84 84.0901 56.16 84.0901 56.32C84.0901 56.48 84.2501 56.64 84.4101 56.64C84.5701 56.96 84.5701 57.12 84.4101 57.28L84.2501 57.44C84.2501 57.6 84.4101 57.6 84.4101 57.76L84.2501 57.92C84.0901 57.92 83.7701 58.08 83.6101 58.08L83.4501 58.24C83.4501 58.72 83.6101 59.36 83.6101 59.84C83.6101 60.16 83.7701 60.48 83.9301 60.8C84.5701 62.56 82.9701 61.44 82.8101 61.12C82.4901 60.64 82.3301 60 82.0101 59.52L81.5301 58.56C81.2101 58.08 81.2101 57.6 81.2101 56.96C81.3701 56.16 81.2101 55.52 80.8901 54.88C80.5701 54.24 80.2501 53.6 80.0901 52.96C80.0901 52.96 80.0901 52.8 79.9301 52.8C79.7701 52.48 79.6101 52.32 79.1301 52.32C78.8101 52.32 78.4901 52.16 78.3301 52L77.8501 51.52C77.5301 51.2 77.3701 50.88 76.8901 50.72C76.4101 50.56 76.2501 50.08 76.2501 49.6V48.32C76.2501 48 76.2501 47.68 76.0901 47.36C76.0901 47.2 75.9301 47.04 75.7701 46.88C75.6101 46.72 75.4501 46.72 75.2901 46.72H74.9701C74.4901 46.56 74.1701 46.4 73.6901 46.24C73.5301 46.24 73.2101 46.08 73.0501 45.92C72.7301 45.76 72.5701 45.6 72.2501 45.6C71.6101 45.6 70.8101 45.6 70.1701 45.76C69.2101 45.92 68.4101 45.6 67.6101 44.96C67.1301 44.32 66.3301 44 65.6901 43.68H65.5301C65.3701 44 65.5301 44.16 65.6901 44.32L66.3301 44.96L66.8101 45.44C66.3301 45.44 66.1701 45.44 66.0101 45.12C65.8501 44.96 65.6901 44.64 65.6901 44.32C65.5301 43.68 65.0501 43.2 64.4101 43.04C63.7701 42.88 63.4501 42.4 63.1301 41.92C62.9701 41.6 62.9701 41.28 62.8101 40.96C62.6501 40.32 62.4901 39.84 62.1701 39.36C62.0101 39.2 61.8501 38.88 61.6901 38.56C61.6901 38.72 61.6901 38.88 61.5301 39.04C61.5301 39.2 61.3701 39.2 61.2101 39.2C60.8901 39.04 60.8901 38.72 61.0501 38.4C61.2101 38.08 61.3701 37.6 61.3701 37.28C61.5301 36.48 61.5301 35.84 61.6901 35.04C61.6901 34.72 61.8501 34.56 61.8501 34.24C60.5701 36.96 59.9301 39.84 59.9301 43.04C59.9301 54.56 69.2101 63.68 80.5701 63.68C87.9301 63.68 95.9301 59.36 99.4501 51.36C99.6101 51.04 99.6101 50.88 99.7701 50.56C99.9301 50.24 99.9301 50.08 100.09 49.76C99.6101 49.6 99.2901 49.76 99.1301 49.92ZM65.3701 30.08C65.5301 30.4 65.3701 30.4 65.2101 30.56C65.0501 30.72 65.0501 30.72 64.8901 30.56L65.3701 30.08ZM66.0101 30.72C65.6901 30.88 65.5301 31.04 65.3701 31.2C65.3701 31.36 65.0501 31.36 64.8901 31.36H64.5701C64.4101 31.36 64.2501 31.36 64.0901 31.52C63.9301 31.52 63.7701 31.68 63.6101 31.68H63.4501V31.52C63.6101 31.36 63.9301 31.2 64.0901 31.04H64.2501C64.4101 31.04 64.5701 31.04 64.5701 30.88C64.5701 30.72 64.7301 30.72 64.8901 30.88C65.2101 31.04 65.3701 31.04 65.5301 30.72C65.6901 30.56 65.6901 30.4 65.8501 30.56C66.0101 30.4 66.0101 30.4 66.0101 30.72C66.0101 30.56 66.0101 30.56 66.0101 30.72ZM67.2901 29.44H66.6501V29.28C66.8101 29.28 66.8101 29.12 66.9701 29.12C66.9701 29.28 67.1301 29.28 67.2901 29.44ZM74.9701 42.72C74.6501 42.72 74.3301 42.88 74.0101 42.56C73.6901 42.24 73.3701 42.4 73.0501 42.56C72.8901 42.72 72.7301 42.72 72.5701 42.72V42.56L72.7301 42.4C73.0501 42.24 73.5301 42.08 73.8501 42.08H74.0101C74.1701 42.24 74.4901 42.24 74.6501 42.08H74.8101C74.8101 42.08 74.9701 42.24 74.9701 42.4C75.1301 42.56 75.1301 42.72 74.9701 42.72ZM76.4101 42.88C76.2501 43.04 75.7701 43.2 75.6101 43.2C75.4501 43.2 75.2901 42.72 75.6101 42.72C75.7701 42.56 75.9301 42.56 76.2501 42.56H76.8901C76.7301 42.56 76.5701 42.72 76.4101 42.88ZM85.6901 28.16C85.8501 28 85.8501 27.84 85.6901 27.68V27.52C85.6901 27.36 85.8501 27.2 85.8501 26.88C86.0101 27.04 86.1701 27.04 86.3301 27.2C86.8101 27.68 87.2901 28 87.9301 28.16C87.9301 28.64 87.6101 28.96 87.1301 28.96C86.9701 28.96 86.6501 28.8 86.6501 28.48V28.32L86.4901 28.16L86.3301 28.32C86.1701 28.8 86.1701 28.96 85.6901 28.64L85.5301 28.48C85.3701 28.32 85.5301 28.32 85.6901 28.16ZM71.6101 26.08C71.2901 26.24 71.1301 26.4 71.1301 26.72C71.1301 27.04 70.8101 27.36 70.4901 27.52L70.0101 28C70.0101 28 69.8501 28.16 70.0101 28.32C70.0101 28.32 70.1701 28.48 70.3301 28.48H70.4901C70.4901 28.64 70.4901 28.8 70.1701 28.96H69.0501C69.0501 28.48 69.0501 28.48 68.4101 28.48C68.2501 28.48 67.9301 28.64 67.7701 28.48C67.6101 28.32 67.6101 28.16 67.7701 28.16C68.0901 28 68.4101 28 68.7301 27.84H68.8901C68.7301 27.2 69.2101 26.88 69.6901 26.88C70.1701 26.72 70.6501 26.4 71.1301 26.08C71.2901 25.92 71.6101 25.76 71.9301 25.76C71.9301 25.92 71.7701 26.08 71.6101 26.08ZM80.5701 26.24C79.9301 26.56 79.4501 27.04 78.9701 27.36C78.8101 27.52 78.4901 27.68 78.3301 27.68C78.1701 27.84 78.0101 28 78.0101 28.16V28.8C78.0101 29.44 77.5301 29.76 76.8901 29.44C76.5701 29.28 76.2501 28.96 75.9301 28.64C75.7701 28.48 75.7701 28.16 75.6101 27.84V27.52C75.1301 28 74.6501 27.68 74.1701 27.52C74.0101 27.36 73.8501 27.36 73.6901 27.2C73.3701 26.88 73.0501 26.88 72.5701 27.04H72.4101C72.0901 27.04 71.9301 27.04 72.0901 26.72C72.2501 26.4 72.4101 25.92 73.0501 25.6C73.3701 25.44 73.5301 25.28 73.6901 24.96C74.0101 24.64 74.4901 24.48 74.9701 24.48C75.4501 24.48 75.7701 24.32 76.0901 23.84C76.2501 23.52 76.5701 23.52 76.8901 23.68C77.0501 23.68 77.2101 23.84 77.3701 23.84C77.5301 23.84 77.5301 23.84 77.6901 23.68C77.6901 23.2 77.8501 23.04 78.1701 23.2C78.6501 23.2 78.9701 23.2 79.2901 23.04C79.4501 23.04 79.6101 22.88 79.7701 23.04C79.9301 23.2 79.7701 23.36 79.7701 23.52C79.6101 23.84 79.6101 24 79.4501 24.32C79.4501 24.48 79.4501 24.64 79.7701 24.48C80.0901 24.32 80.5701 24.16 80.8901 24.16C81.0501 24.16 81.2101 24 81.3701 23.84C81.6901 23.68 81.8501 23.52 82.1701 23.36H82.4901V23.68C82.4901 23.84 82.3301 23.84 82.1701 23.84C82.0101 24 81.8501 24 81.6901 24.32C81.5301 24.64 81.5301 24.64 81.2101 24.64H80.8901C80.7301 24.64 80.5701 24.8 80.5701 24.96C80.5701 25.12 80.7301 25.44 80.7301 25.6C80.8901 25.92 80.8901 26.08 80.5701 26.24ZM81.0501 26.72C81.2101 26.72 81.3701 26.56 81.5301 26.56C81.6901 26.56 81.8501 26.56 82.0101 26.4C82.1701 26.24 82.3301 26.24 82.4901 26.24H82.9701C82.9701 26.4 82.8101 26.56 82.6501 26.72C82.4901 26.72 82.4901 26.88 82.3301 26.88C82.0101 26.88 81.8501 27.04 81.6901 27.36C81.3701 27.2 81.2101 27.2 80.8901 27.04C80.8901 26.88 80.8901 26.72 81.0501 26.72Z" fill="#63AFFA"/>
<path d="M94.81 30.8801L95.13 31.2001C94.97 31.3601 94.81 31.3601 94.81 31.5201C94.65 31.6801 94.49 31.6801 94.33 31.6801C94.17 31.6801 94.01 31.5201 93.85 31.5201C93.53 31.3601 93.21 31.2001 92.89 31.5201C92.73 31.5201 92.57 31.6801 92.41 31.6801V31.5201C92.57 30.8801 92.41 30.7201 91.77 30.8801C90.97 31.0401 90.33 31.3601 89.69 32.1601H89.05C89.37 31.8401 89.53 31.3601 89.21 31.0401C89.21 30.8801 89.05 30.7201 89.05 30.5601C89.05 30.5601 89.05 30.4001 89.21 30.4001L89.37 30.2401C90.17 29.6001 90.65 29.4401 91.45 29.6001H91.77C92.09 29.7601 92.41 29.7601 92.73 29.9201V30.2401C92.73 30.4001 92.89 30.4001 92.89 30.4001C93.05 30.4001 93.21 30.2401 93.21 30.0801C93.21 29.9201 93.21 29.7601 93.05 29.6001H92.73C92.41 29.4401 92.09 29.4401 91.77 29.2801C91.61 29.2801 91.61 29.1201 91.61 29.1201L91.77 28.9601H92.25C93.21 29.2801 94.17 29.7601 94.97 30.4001H95.13C95.13 30.0801 95.29 29.9201 95.29 29.7601C95.29 29.2801 95.45 29.1201 95.93 29.4401C95.93 29.4401 95.93 29.6001 96.09 29.6001C96.41 29.9201 96.57 30.2401 96.89 30.5601C96.25 30.5601 95.61 30.7201 94.81 30.8801ZM91.29 25.2801C91.13 25.2801 91.13 25.2801 91.29 25.2801C90.65 24.9601 90.17 24.6401 89.53 24.3201C89.53 24.4801 89.37 24.6401 89.37 24.8001C89.21 25.1201 89.53 25.2801 89.85 25.4401C90.17 25.4401 90.33 25.7601 90.01 25.9201C90.01 26.0801 89.85 26.0801 89.69 26.0801C89.69 26.0801 89.53 26.2401 89.37 26.2401C89.53 26.2401 89.85 26.0801 90.01 26.0801C90.33 25.9201 90.65 25.9201 90.97 26.0801H91.45C91.61 26.0801 91.77 25.9201 91.77 25.7601L91.29 25.2801ZM69.53 31.2001C69.37 30.7201 69.05 30.5601 68.57 30.5601C68.57 30.4001 68.57 30.0801 68.41 29.9201C68.73 30.0801 69.05 30.2401 69.21 30.4001C69.37 30.4001 69.37 30.5601 69.53 30.5601C69.85 30.8801 69.85 31.0401 69.53 31.2001Z" fill="#63AFFA"/>
<path d="M88.09 30.08C88.09 41.28 79.13 50.24 67.93 50.24C64.57 50.24 62.65 54.4 65.05 56.8C69.37 61.44 75.61 64 82.49 63.36C92.09 62.4 99.77 54.56 100.73 45.12C101.53 38.08 98.65 31.68 93.85 27.52C91.77 25.28 88.09 26.88 88.09 30.08Z" fill="#4B9B43"/>
<path d="M88.0901 30.4002V29.4402H88.2501C88.5701 29.9202 88.5701 30.2402 88.0901 30.4002Z" fill="#58B44F"/>
<path d="M99.7701 49.6002C99.6101 49.9202 99.6101 50.0802 99.4501 50.4002C96.4101 58.0802 88.8901 63.5202 80.2501 63.5202C74.8101 63.5202 69.2101 61.2802 65.0501 56.8002C64.4101 56.0002 64.0901 55.0402 64.0901 54.2402C64.0901 52.1602 65.6901 50.2402 68.0901 50.2402C70.9701 50.2402 73.6901 49.6002 76.0901 48.6402V49.6002C76.0901 50.0802 76.2501 50.5602 76.7301 50.7202C77.0501 50.8802 77.3701 51.2002 77.6901 51.5202L78.1701 52.0002C78.3301 52.3202 78.6501 52.3202 78.9701 52.3202C79.4501 52.3202 79.6101 52.4802 79.7701 52.8002C79.7701 52.8002 79.7701 52.9602 79.9301 52.9602C80.2501 53.6002 80.5701 54.2402 80.7301 54.8802C81.0501 55.5202 81.2101 56.3202 81.0501 56.9602C80.8901 57.4402 81.0501 58.0802 81.3701 58.5602L81.8501 59.5202C82.1701 60.0002 82.3301 60.6402 82.6501 61.1202L83.1301 61.6002C83.6101 61.7602 84.0901 61.7602 84.5701 61.6002L84.7301 61.4402C84.7301 61.4402 84.7301 61.2802 84.5701 61.2802H84.2501C83.9301 61.2802 83.7701 61.2802 83.7701 60.9602C83.6101 60.6402 83.6101 60.3202 83.4501 60.0002C83.2901 59.5202 83.2901 58.8802 83.2901 58.4002C83.2901 58.4002 83.2901 58.2402 83.4501 58.2402C83.6101 58.0802 83.9301 58.0802 84.0901 58.0802L84.2501 57.9202C84.2501 57.9202 84.2501 57.7602 84.0901 57.6002C84.0901 57.6002 84.0901 57.4402 84.2501 57.4402C84.4101 57.1202 84.4101 56.9602 84.2501 56.8002L83.9301 56.4802C83.7701 56.3202 83.7701 56.0002 83.7701 55.8402C83.7701 55.6802 83.9301 55.5202 83.9301 55.5202C84.0901 55.5202 84.2501 55.5202 84.2501 55.6802C84.4101 55.6802 84.4101 55.8402 84.4101 56.0002C84.7301 56.0002 84.8901 55.8402 84.8901 55.5202V54.4002C84.8901 53.9202 84.8901 53.4402 85.0501 53.1202C85.2101 52.8002 85.2101 52.4802 85.3701 52.1602C85.5301 51.6802 85.6901 51.3602 86.0101 51.0402L86.4901 50.5602C86.8101 50.2402 86.8101 49.9202 86.8101 49.6002C86.6501 49.2802 86.6501 48.9602 86.4901 48.6402C86.1701 48.0002 86.1701 47.3602 86.3301 46.7202C86.4901 46.4002 86.3301 46.2402 86.0101 46.0802C85.6901 46.0802 85.2101 45.9202 84.8901 45.9202C83.9301 46.0802 82.9701 45.9202 82.0101 45.6002C81.8501 45.4402 81.6901 45.4402 81.5301 45.4402C85.2101 42.2402 87.7701 37.7602 88.4101 32.6402C88.5701 32.6402 88.7301 32.8002 88.7301 32.4802C88.7301 32.3202 88.8901 32.3202 89.0501 32.1602C89.3701 32.4802 89.5301 32.8002 89.3701 33.2802C89.0501 33.9202 88.8901 34.7202 88.5701 35.3602C88.2501 36.3202 88.2501 37.1202 88.8901 37.9202C89.0501 38.2402 89.3701 38.5602 89.3701 38.8802C89.3701 39.0402 89.6901 39.2002 89.8501 39.3602C90.0101 39.5202 90.1701 39.5202 90.3301 39.6802C90.6501 39.8402 90.9701 40.1602 91.2901 40.4802C91.4501 40.6402 91.6101 40.8002 91.6101 40.9602C91.9301 41.2802 92.2501 41.1202 92.5701 40.8002C92.5701 40.8002 92.5701 40.6402 92.7301 40.6402C92.8901 40.3202 93.2101 40.1602 93.5301 40.1602H94.0101C94.3301 40.1602 94.3301 40.1602 94.3301 39.8402V39.6802C94.3301 39.3602 94.4901 39.3602 94.8101 39.3602C95.1301 39.3602 95.2901 39.3602 95.6101 39.5202C96.0901 39.5202 96.2501 39.6802 96.2501 40.1602C96.2501 40.6402 96.2501 40.9602 96.5701 41.2802C96.8901 41.7602 97.2101 42.2402 97.5301 42.5602C98.0101 42.8802 98.0101 43.2002 97.6901 43.6802C97.5301 43.8402 97.5301 44.0002 97.3701 44.1602C97.2101 44.4802 97.2101 44.9602 97.3701 45.2802C97.6901 45.7602 98.0101 46.2402 98.3301 46.5602C98.6501 46.8802 98.9701 47.3602 98.8101 48.0002C98.8101 48.6402 98.9701 49.1202 99.2901 49.6002L99.4501 49.7602C99.2901 49.7602 99.6101 49.6002 99.7701 49.6002Z" fill="#529FFB"/>
<path d="M88.2501 60C87.7701 60 87.2901 59.68 87.1301 59.36C86.8101 58.72 86.9701 57.92 87.6101 57.6C88.4101 57.12 89.2101 56.64 90.0101 56C90.8101 55.36 91.4501 54.72 92.0901 54.08C92.5701 53.6 93.3701 53.6 94.0101 54.08C94.4901 54.56 94.4901 55.36 94.0101 56C93.3701 56.8 92.4101 57.44 91.6101 58.08C90.8101 58.72 89.8501 59.36 88.8901 59.84C88.7301 59.84 88.4101 60 88.2501 60Z" fill="#63AFFA"/>
<path d="M60.73 89.76C60.73 91.84 59.93 93.92 58.49 95.36C57.05 96.96 54.97 97.92 52.57 97.92C50.33 97.92 48.25 96.96 46.65 95.36C45.21 93.92 44.41 92 44.41 89.76C44.41 85.28 48.09 81.76 52.41 81.76C57.21 81.76 60.73 85.44 60.73 89.76Z" fill="#58B44F"/>
<path d="M60.73 89.76C60.73 91.84 59.93 93.92 58.49 95.36C57.05 96.96 54.97 97.92 52.57 97.92C50.17 97.92 48.25 96.96 46.65 95.36C45.69 94.08 46.65 92 48.41 92H50.17C53.05 91.68 55.29 89.92 56.25 87.36C56.57 86.56 56.73 85.76 56.73 84.8V83.04C59.13 84.32 60.73 86.88 60.73 89.76Z" fill="#4B9B43"/>
<path d="M88.25 89.76C88.25 92 87.45 93.92 86.01 95.36C84.57 96.8 82.49 97.76 80.25 97.76C78.01 97.76 75.93 96.8 74.49 95.36C73.05 94.08 72.25 92 72.25 89.76C72.25 85.28 75.93 81.76 80.25 81.76C84.73 81.76 88.25 85.44 88.25 89.76Z" fill="#FC4A32"/>
<path d="M88.25 89.7601C88.25 94.4001 84.57 97.76 80.25 97.76C78.01 97.76 75.93 96.8 74.49 95.3601C73.85 94.72 73.37 94.0801 73.05 93.2801H76.09C76.89 93.2801 77.53 93.1201 78.17 92.9601C81.21 92.0001 83.29 89.2801 83.29 85.9201C83.29 84.3201 85.53 83.5201 86.49 84.9601C87.77 86.2401 88.25 88.0001 88.25 89.7601Z" fill="#E23E2D"/>
<path d="M86.01 95.52C84.57 96.96 82.49 97.92 80.25 97.92C78.01 97.92 75.93 96.96 74.49 95.52C74.81 95.2 75.29 94.88 75.77 94.88H76.25L78.49 94.56V93.12L78.33 92.96L78.17 92.8L78.01 92.64C77.69 92 77.37 91.36 77.21 90.72C76.73 90.72 76.25 90.24 76.41 89.6C76.41 89.44 76.57 89.28 76.73 89.12C76.57 88.64 76.41 88.32 76.41 87.84C75.77 87.52 75.61 86.4 75.61 86.4C76.25 86.72 76.73 86.24 76.73 86.24C75.29 85.6 75.13 84.8 75.13 84.8C75.29 84.8 75.45 84.8 75.61 84.96H78.49C79.77 84.32 81.37 84.32 82.49 85.28L82.81 85.6L82.97 85.76C82.97 85.76 83.13 85.76 83.13 85.92C83.29 86.08 83.45 86.24 83.61 86.56C83.77 86.88 83.77 87.36 83.77 87.68V88.48C83.77 88.8 83.61 88.96 83.45 89.28C83.61 89.28 83.77 89.44 83.93 89.76C84.09 90.4 83.77 90.88 83.29 90.88C83.13 91.52 82.81 92.32 82.33 92.8C82.33 92.96 82.17 92.96 82.01 93.12L81.85 93.28C81.85 93.28 81.69 93.28 81.69 93.44V94.56L83.93 94.88H84.41C84.73 94.88 85.05 95.04 85.37 95.2C85.85 95.2 85.85 95.36 86.01 95.52Z" fill="#E7E7E7"/>
<path d="M86.01 95.52C84.57 96.96 82.49 97.92 80.25 97.92C78.01 97.92 75.93 96.96 74.49 95.52C74.81 95.2 75.29 94.88 75.77 94.88H76.25L78.49 94.56V93.6H78.65V93.12L78.49 92.96L78.33 92.8C81.37 91.84 83.45 89.12 83.45 85.76C83.61 85.92 83.61 86.08 83.61 86.24C83.77 86.56 83.77 87.04 83.77 87.36V88.16C83.77 88.48 83.61 88.64 83.45 88.96C83.61 88.96 83.77 89.12 83.93 89.44C84.09 90.08 83.77 90.56 83.29 90.56C83.13 91.2 82.81 92 82.33 92.48C82.33 92.64 82.17 92.64 82.01 92.8C82.01 92.8 82.01 92.96 81.85 92.96C81.85 92.96 81.69 92.96 81.69 93.12V94.24L83.93 94.56H84.41C84.73 94.56 85.05 94.72 85.37 94.88C85.85 95.2 85.85 95.36 86.01 95.52Z" fill="#D5D3D4"/>
<path d="M58.49 95.3601C57.05 96.9601 54.97 97.9201 52.57 97.9201C50.33 97.9201 48.25 96.9601 46.65 95.3601C46.97 95.0401 47.61 94.7201 48.09 94.5601H48.57L50.81 94.2401V93.1201C50.81 92.9601 50.65 92.9601 50.65 92.9601L50.49 92.8001L50.33 92.6401C50.01 92.0001 49.69 91.3601 49.53 90.7201C49.05 90.7201 48.57 90.2401 48.73 89.6001C48.73 89.4401 48.89 89.2801 49.05 89.1201C49.05 88.9601 48.89 88.8001 48.89 88.6401C48.89 88.4801 48.73 88.1601 48.73 88.0001V87.2001C48.73 87.0401 48.73 87.0401 48.89 86.8801C49.05 86.5601 49.37 86.0801 49.69 85.7601C50.97 84.4801 53.21 83.8401 54.81 84.9601C54.81 84.9601 54.97 84.9601 54.97 85.1201L55.13 85.2801C55.29 85.2801 55.29 85.4401 55.45 85.6001L55.61 85.7601H55.77C55.77 85.7601 55.93 85.7601 55.93 85.9201V87.8401C55.93 88.1601 55.77 88.3201 55.61 88.6401C55.77 88.6401 55.93 88.8001 56.09 89.1201C56.25 89.7601 55.93 90.2401 55.45 90.2401C55.29 90.8801 54.97 91.6801 54.49 92.1601L54.01 92.6401C54.01 92.6401 53.85 92.6401 53.85 92.8001V93.9201L56.09 94.2401H56.41C56.73 94.2401 57.05 94.4001 57.37 94.5601C57.53 94.5601 57.53 94.7201 57.69 94.7201C58.49 95.2001 58.49 95.3601 58.49 95.3601Z" fill="#E7E7E7"/>
<path d="M58.6501 95.3601C57.2101 96.9601 55.1301 97.9201 52.7301 97.9201C50.3301 97.9201 48.4101 96.9601 46.8101 95.3601C47.1301 95.0401 47.7701 94.7201 48.2501 94.5601H48.7301L50.9701 94.2401V92.9601C50.9701 92.8001 50.8101 92.8001 50.8101 92.8001L50.6501 92.6401L50.4901 92.4801C50.3301 92.3201 50.3301 92.1601 50.1701 92.0001C53.0501 91.6801 55.2901 89.9201 56.2501 87.3601V88.0001C56.2501 88.3201 56.0901 88.4801 55.9301 88.8001C56.0901 88.8001 56.2501 88.9601 56.4101 89.2801C56.5701 89.9201 56.2501 90.4001 55.7701 90.4001C55.6101 91.0401 55.2901 91.8401 54.8101 92.3201L54.3301 92.8001C54.3301 92.8001 54.1701 92.8001 54.1701 92.9601V94.0801L56.4101 94.4001H56.7301C57.0501 94.4001 57.3701 94.5601 57.6901 94.8801C57.8501 94.8801 57.8501 95.0401 58.0101 95.0401C58.4901 95.2001 58.4901 95.3601 58.6501 95.3601Z" fill="#D5D3D4"/>
<path d="M115.77 89.76C115.77 91.84 114.97 93.92 113.53 95.36C112.09 96.96 110.01 97.92 107.61 97.92C105.37 97.92 103.29 96.96 101.69 95.36C100.25 93.92 99.4501 92 99.4501 89.76C99.4501 85.28 103.13 81.76 107.45 81.76C112.25 81.76 115.77 85.44 115.77 89.76Z" fill="#F7CC6D"/>
<path d="M115.77 89.76C115.77 94.08 112.25 97.76 107.77 97.76C105.53 97.76 103.45 96.8 101.85 95.2C100.73 94.08 101.69 92.32 103.13 92.32H105.37C108.57 92 110.97 89.44 110.97 86.08C110.97 84.48 113.21 83.68 114.17 85.12C115.29 86.4 115.77 88 115.77 89.76Z" fill="#F4BC5F"/>
<path d="M113.69 95.3601C112.25 96.9601 110.17 97.9201 107.77 97.9201C105.53 97.9201 103.45 96.9601 101.85 95.3601C102.17 95.0401 102.81 94.7201 103.29 94.5601H103.77L106.01 94.2401V93.1201C106.01 92.9601 105.85 92.9601 105.85 92.9601L105.69 92.8001L105.53 92.6401C105.21 92.0001 104.89 91.3601 104.73 90.7201C104.25 90.7201 103.77 90.2401 103.93 89.6001C103.93 89.4401 104.09 89.2801 104.25 89.1201C104.25 88.9601 104.09 88.8001 104.09 88.6401C104.09 88.4801 103.93 88.1601 103.93 88.0001V87.2001C103.93 87.0401 103.93 87.0401 104.09 86.8801C104.25 86.5601 104.57 86.0801 104.89 85.7601C106.17 84.4801 108.41 83.8401 110.01 84.9601C110.01 84.9601 110.17 84.9601 110.17 85.1201L110.33 85.2801C110.49 85.2801 110.49 85.4401 110.65 85.6001L110.81 85.7601H110.97C110.97 85.7601 111.13 85.7601 111.13 85.9201V87.8401C111.13 88.1601 110.97 88.3201 110.81 88.6401C110.97 88.6401 111.13 88.8001 111.29 89.1201C111.45 89.7601 111.13 90.2401 110.65 90.2401C110.49 90.8801 110.17 91.6801 109.69 92.1601L109.21 92.6401C109.21 92.6401 109.05 92.6401 109.05 92.8001V93.9201L111.29 94.2401H111.61C111.93 94.2401 112.25 94.4001 112.57 94.5601C112.73 94.5601 112.73 94.7201 112.89 94.7201C113.53 95.2001 113.53 95.3601 113.69 95.3601Z" fill="#E7E7E7"/>
<path d="M113.69 95.36C112.25 96.96 110.17 97.92 107.77 97.92C105.37 97.92 103.45 96.96 101.85 95.36C102.17 95.04 102.81 94.72 103.29 94.56H103.77L106.01 94.24V92.96L105.85 92.8L105.69 92.64L105.53 92.48C108.73 92.16 111.13 89.6 111.13 86.24V87.84C111.13 88.16 110.97 88.32 110.81 88.64C110.97 88.64 111.13 88.8 111.29 89.12C111.45 89.76 111.13 90.24 110.65 90.24C110.49 90.88 110.17 91.68 109.69 92.16L109.21 92.64L109.05 92.8V93.28H109.21V93.92L111.45 94.24H111.77C112.09 94.24 112.41 94.4 112.73 94.72C112.89 94.72 112.89 94.88 113.05 94.88C113.53 95.2 113.53 95.36 113.69 95.36Z" fill="#D5D3D4"/>
</svg>
