<svg width="40" height="40" viewBox="0 0 40 40" fill="none" xmlns="http://www.w3.org/2000/svg">
<rect width="40" height="40" rx="8" fill="#AE68F4"/>
<path d="M27.4121 29.668H8.7207C8.29335 29.668 7.8835 29.8378 7.58132 30.1399C7.27914 30.4421 7.10938 30.852 7.10938 31.2793C7.10938 31.7067 7.27914 32.1165 7.58132 32.4187C7.8835 32.7209 8.29335 32.8906 8.7207 32.8906H27.4121C27.8395 32.8906 28.2493 32.7209 28.5515 32.4187C28.8537 32.1165 29.0234 31.7067 29.0234 31.2793C29.0234 30.852 28.8537 30.4421 28.5515 30.1399C28.2493 29.8378 27.8395 29.668 27.4121 29.668ZM27.4121 28.3789C27.5201 28.3836 27.6277 28.3946 27.7344 28.4117V22.2336C27.6213 22.2805 27.5105 22.3338 27.3951 22.3748V22.799C27.3945 23.2529 27.214 23.688 26.8932 24.009C26.5724 24.33 26.1374 24.5108 25.6836 24.5117H23.9844C23.5303 24.5111 23.0951 24.3305 22.774 24.0094C22.4529 23.6884 22.2723 23.2531 22.2717 22.799V22.3748C22.0251 22.2873 21.7834 22.1867 21.5475 22.0737L21.2469 22.3742C21.0878 22.5334 20.8989 22.6597 20.691 22.7458C20.4831 22.832 20.2602 22.8763 20.0352 22.8763C19.8101 22.8763 19.5873 22.832 19.3794 22.7458C19.1714 22.6597 18.9825 22.5334 18.8234 22.3742L17.6264 21.1719C17.4671 21.0129 17.3407 20.8241 17.2545 20.6162C17.1683 20.4084 17.1239 20.1855 17.1239 19.9605C17.1239 19.7354 17.1683 19.5126 17.2545 19.3047C17.3407 19.0968 17.4671 18.908 17.6264 18.749L17.9258 18.449C17.8128 18.213 17.7123 17.9713 17.6246 17.7248H17.2004C16.8834 17.7234 16.573 17.6338 16.3039 17.466C16.0349 17.2983 15.8178 17.0591 15.677 16.775H9.6875C9.34562 16.775 9.01774 16.9108 8.776 17.1526C8.53425 17.3943 8.39844 17.7222 8.39844 18.0641V28.4117C8.50513 28.3946 8.61274 28.3836 8.7207 28.3789H27.4121Z" fill="white"/>
<path d="M32.4664 13.8939H31.3156C31.2437 13.8935 31.1741 13.8688 31.1181 13.8238C31.062 13.7788 31.0228 13.7162 31.0068 13.6461C30.8537 13.022 30.6063 12.4249 30.2732 11.8754C30.2351 11.8145 30.2187 11.7426 30.2266 11.6713C30.2344 11.5999 30.2662 11.5333 30.3166 11.4822L31.1328 10.6684C31.1723 10.6291 31.2036 10.5823 31.2249 10.5309C31.2463 10.4795 31.2573 10.4243 31.2573 10.3687C31.2573 10.313 31.2463 10.2578 31.2249 10.2064C31.2036 10.155 31.1723 10.1082 31.1328 10.0689L29.9311 8.86719C29.8917 8.82773 29.845 8.79643 29.7936 8.77507C29.7422 8.75371 29.687 8.74271 29.6313 8.74271C29.5757 8.74271 29.5205 8.75371 29.4691 8.77507C29.4177 8.79643 29.3709 8.82773 29.3316 8.86719L28.5166 9.6875C28.4655 9.73795 28.3989 9.76967 28.3276 9.77754C28.2562 9.78541 28.1843 9.76896 28.1234 9.73086C27.5745 9.39576 26.9776 9.14659 26.3533 8.99199C26.2834 8.9758 26.221 8.93652 26.1761 8.8805C26.1313 8.82447 26.1066 8.75497 26.1061 8.6832V7.53359C26.1061 7.42139 26.0616 7.31375 25.9824 7.23425C25.9032 7.15474 25.7958 7.10984 25.6836 7.10938H23.9844C23.8719 7.10938 23.764 7.15407 23.6844 7.23363C23.6049 7.31318 23.5602 7.42108 23.5602 7.53359V8.68027C23.5597 8.752 23.535 8.82147 23.4902 8.87741C23.4453 8.93336 23.3828 8.9725 23.3129 8.98848C22.688 9.14246 22.0903 9.39103 21.5404 9.72559C21.4796 9.76382 21.4076 9.78029 21.3362 9.77231C21.2648 9.76433 21.1982 9.73237 21.1473 9.68164L20.3363 8.86719C20.297 8.82773 20.2503 8.79643 20.1989 8.77507C20.1475 8.75371 20.0923 8.74271 20.0366 8.74271C19.9809 8.74271 19.9258 8.75371 19.8744 8.77507C19.8229 8.79643 19.7762 8.82773 19.7369 8.86719L18.5352 10.0689C18.4957 10.1082 18.4644 10.155 18.443 10.2064C18.4217 10.2578 18.4107 10.313 18.4107 10.3687C18.4107 10.4243 18.4217 10.4795 18.443 10.5309C18.4644 10.5823 18.4957 10.6291 18.5352 10.6684L19.3479 11.4811C19.3983 11.5321 19.43 11.5987 19.4379 11.6701C19.4458 11.7415 19.4293 11.8134 19.3912 11.8742C19.0584 12.4245 18.8113 13.0221 18.6582 13.6467C18.6422 13.7166 18.6031 13.7791 18.5471 13.824C18.4912 13.8688 18.4217 13.8935 18.35 13.8939H17.2016C17.0894 13.8939 16.9817 13.9384 16.9022 14.0176C16.8227 14.0968 16.7778 14.2042 16.7773 14.3164V16.0156C16.7773 16.0713 16.7883 16.1265 16.8096 16.178C16.831 16.2294 16.8622 16.2762 16.9016 16.3156C16.941 16.355 16.9878 16.3862 17.0392 16.4076C17.0907 16.4289 17.1459 16.4398 17.2016 16.4398H18.3482C18.42 16.4403 18.4894 16.4649 18.5454 16.5098C18.6013 16.5547 18.6405 16.6172 18.6564 16.6871C18.8104 17.312 19.059 17.9097 19.3936 18.4596C19.4317 18.5204 19.4481 18.5923 19.4402 18.6637C19.4324 18.735 19.4006 18.8017 19.3502 18.8527L18.5352 19.6637C18.4957 19.703 18.4644 19.7497 18.443 19.8011C18.4217 19.8525 18.4107 19.9077 18.4107 19.9634C18.4107 20.0191 18.4217 20.0742 18.443 20.1256C18.4644 20.1771 18.4957 20.2238 18.5352 20.2631L19.7369 21.4648C19.7762 21.5043 19.8229 21.5356 19.8744 21.557C19.9258 21.5783 19.9809 21.5893 20.0366 21.5893C20.0923 21.5893 20.1475 21.5783 20.1989 21.557C20.2503 21.5356 20.297 21.5043 20.3363 21.4648L21.149 20.6521C21.2001 20.6017 21.2667 20.57 21.3381 20.5621C21.4094 20.5542 21.4813 20.5707 21.5422 20.6088C22.092 20.9433 22.6897 21.1919 23.3146 21.3459C23.3846 21.3619 23.447 21.401 23.4919 21.457C23.5368 21.5129 23.5615 21.5824 23.5619 21.6541V22.8008C23.5625 22.9126 23.6073 23.0196 23.6864 23.0986C23.7655 23.1776 23.8726 23.2222 23.9844 23.2227H25.6836C25.7961 23.2227 25.904 23.178 25.9836 23.0984C26.0631 23.0188 26.1078 22.9109 26.1078 22.7984V21.6518C26.1083 21.58 26.1329 21.5106 26.1778 21.4546C26.2227 21.3987 26.2852 21.3595 26.3551 21.3436C26.98 21.1896 27.5777 20.941 28.1275 20.6064C28.1884 20.5683 28.2603 20.5519 28.3317 20.5598C28.403 20.5676 28.4696 20.5994 28.5207 20.6498L29.3316 21.4648C29.3709 21.5043 29.4177 21.5356 29.4691 21.557C29.5205 21.5783 29.5757 21.5893 29.6313 21.5893C29.687 21.5893 29.7422 21.5783 29.7936 21.557C29.845 21.5356 29.8917 21.5043 29.9311 21.4648L31.1328 20.2631C31.1723 20.2238 31.2036 20.1771 31.2249 20.1256C31.2463 20.0742 31.2573 20.0191 31.2573 19.9634C31.2573 19.9077 31.2463 19.8525 31.2249 19.8011C31.2036 19.7497 31.1723 19.703 31.1328 19.6637L30.3201 18.851C30.2697 18.7999 30.2379 18.7333 30.2301 18.6619C30.2222 18.5906 30.2387 18.5187 30.2768 18.4578C30.6113 17.908 30.8599 17.3103 31.0139 16.6854C31.0298 16.6154 31.069 16.553 31.1249 16.5081C31.1809 16.4632 31.2503 16.4385 31.3221 16.4381H32.4687C32.5805 16.4375 32.6876 16.3927 32.7666 16.3136C32.8456 16.2345 32.8902 16.1274 32.8906 16.0156V14.3164C32.8902 14.2042 32.8453 14.0968 32.7658 14.0176C32.6862 13.9384 32.5786 13.8939 32.4664 13.8939ZM24.834 18.7109C24.1329 18.7109 23.4475 18.503 22.8645 18.1135C22.2816 17.724 21.8272 17.1703 21.5589 16.5226C21.2906 15.8748 21.2204 15.1621 21.3572 14.4744C21.494 13.7868 21.8316 13.1551 22.3273 12.6594C22.8231 12.1636 23.4548 11.826 24.1424 11.6892C24.8301 11.5524 25.5428 11.6226 26.1906 11.8909C26.8383 12.1592 27.392 12.6136 27.7815 13.1966C28.171 13.7795 28.3789 14.4649 28.3789 15.166C28.3789 16.1062 28.0054 17.0079 27.3406 17.6727C26.6758 18.3375 25.7742 18.7109 24.834 18.7109Z" fill="white"/>
</svg>
