<svg width="40" height="40" viewBox="0 0 40 40" fill="none" xmlns="http://www.w3.org/2000/svg">
<rect width="40" height="40" rx="8" fill="#5CC9A7"/>
<path d="M15.2913 32.1534H24.7405V33.2161H15.2913V32.1534Z" fill="white"/>
<path fill-rule="evenodd" clip-rule="evenodd" d="M21.8722 28.464H18.3036L17.5716 31.5159H22.4934L21.8722 28.464ZM7.7467 24.801H32.285V12.9102C32.285 12.6073 32.0465 12.3401 31.7405 12.3401H28.8304C29.5554 14.3254 28.5376 17.0341 25.5306 17.3424C25.6042 17.488 25.6452 17.6522 25.6452 17.8265V19.4036C25.6452 19.691 25.5314 19.9536 25.347 20.1472C25.5314 20.3409 25.6452 20.6034 25.6452 20.8908V22.4671C25.6452 23.0612 25.1603 23.5469 24.5654 23.5469H15.5531C14.9589 23.5469 14.4733 23.062 14.4733 22.4671V20.89C14.4733 20.6027 14.5871 20.3401 14.7715 20.1464C14.5871 19.9528 14.4733 19.6902 14.4733 19.4028V17.8258C14.4733 17.6739 14.505 17.5299 14.5616 17.399C12.0294 17.1604 10.4524 14.629 11.2889 12.3401H8.29124C7.95507 12.3401 7.7467 12.5942 7.7467 12.9102V24.801ZM32.285 25.4733H7.7467V27.2471C7.7467 27.5701 7.9512 27.7917 8.29124 27.7917H31.7397C32.0496 27.7917 32.2843 27.557 32.2843 27.2471L32.285 25.4733ZM25.1185 26.2967C25.3044 26.2967 25.4547 26.447 25.4547 26.6329C25.4547 26.8188 25.3044 26.9691 25.1185 26.9691H24.4113C24.2254 26.9691 24.0751 26.8188 24.0751 26.6329C24.0751 26.447 24.2254 26.2967 24.4113 26.2967H25.1185ZM27.6832 26.2967C27.8691 26.2967 28.0194 26.447 28.0194 26.6329C28.0194 26.8188 27.8691 26.9691 27.6832 26.9691H26.9768C26.7909 26.9691 26.6406 26.8188 26.6406 26.6329C26.6406 26.447 26.7909 26.2967 26.9768 26.2967H27.6832ZM29.4919 26.2967H30.2479C30.4338 26.2967 30.584 26.447 30.584 26.6329C30.584 26.8188 30.4338 26.9691 30.2479 26.9691H29.4919C29.306 26.9691 29.1557 26.8188 29.1557 26.6329C29.1557 26.447 29.306 26.2967 29.4919 26.2967Z" fill="white"/>
<path d="M25.5964 16.6592C25.6801 16.3912 25.6305 16.3075 25.6452 14.7622C25.6452 14.1681 25.1603 13.6824 24.5654 13.6824H15.553C14.9589 13.6824 14.4733 14.1673 14.4733 14.7622V16.3393C14.4733 16.4741 14.498 16.6042 14.5437 16.7235C12.9008 16.5291 11.7358 15.1495 11.7358 13.6158C11.7358 11.9218 13.1123 10.5508 14.8226 10.5508C14.8993 10.5508 15.0271 10.5577 15.0945 10.5453C15.402 10.4865 15.3609 10.2061 15.3609 9.97755C15.3609 8.2626 16.7397 6.87531 18.4485 6.87531C19.3129 6.87531 20.1557 7.27035 20.7265 7.91094C21.2324 8.47871 21.3702 9.02635 21.4012 9.09374C21.4795 9.26183 21.6793 9.33541 21.8474 9.25718V9.25641C22.0774 9.15029 22.3238 9.13247 22.5763 9.13247C23.4307 9.13247 24.1781 9.6042 24.5375 10.3656C24.598 10.5213 24.7676 10.6112 24.9334 10.5693C25.0457 10.5407 25.1983 10.5523 25.2943 10.5523C26.9953 10.5523 28.3819 11.914 28.3819 13.6174C28.3819 15.0759 27.4554 16.4136 25.5964 16.6592Z" fill="white"/>
<path fill-rule="evenodd" clip-rule="evenodd" d="M24.7096 16.7196C24.7282 16.7111 24.7886 16.691 24.8529 16.6267C24.9272 16.5523 24.9729 16.4508 24.9729 16.3393V14.7622C24.9729 14.5392 24.7886 14.3548 24.5655 14.3548H15.5531C15.33 14.3548 15.1457 14.5392 15.1457 14.7622V16.3393C15.1457 16.5624 15.33 16.7467 15.5531 16.7467C25.1255 16.7367 24.5771 16.7708 24.7096 16.7196ZM20.3308 15.5508C20.3308 15.8815 20.0628 16.1495 19.732 16.1495C19.4013 16.1495 19.1333 15.8815 19.1333 15.5508C19.1333 15.22 19.4013 14.952 19.732 14.952C20.0628 14.952 20.3308 15.22 20.3308 15.5508ZM21.4687 15.5508C21.4687 15.3649 21.6189 15.2146 21.8049 15.2146H23.9513C24.1372 15.2146 24.2874 15.3649 24.2874 15.5508C24.2874 15.7367 24.1372 15.8869 23.9513 15.8869H21.8049C21.6189 15.8869 21.4687 15.7367 21.4687 15.5508ZM18.0558 14.952C18.3866 14.952 18.6546 15.22 18.6546 15.5508C18.6546 15.8815 18.3866 16.1495 18.0558 16.1495C17.7251 16.1495 17.4571 15.8815 17.4571 15.5508C17.4571 15.22 17.7251 14.952 18.0558 14.952ZM16.3796 14.952C16.7104 14.952 16.9784 15.22 16.9784 15.5508C16.9784 15.8815 16.7104 16.1495 16.3796 16.1495C16.0488 16.1495 15.7808 15.8815 15.7808 15.5508C15.7808 15.22 16.0488 14.952 16.3796 14.952ZM24.5655 19.8103C24.7886 19.8103 24.9729 19.6259 24.9729 19.4028V17.8258C24.9729 17.6027 24.7886 17.4183 24.5655 17.4183H15.55C15.3277 17.4199 15.1449 17.6034 15.1449 17.8258V19.4028C15.1449 19.6259 15.3293 19.8103 15.5523 19.8103H24.5655ZM19.732 19.213C19.4013 19.213 19.1333 18.945 19.1333 18.6143C19.1333 18.2835 19.4013 18.0155 19.732 18.0155C20.0628 18.0155 20.3308 18.2835 20.3308 18.6143C20.3308 18.945 20.0628 19.213 19.732 19.213ZM21.4687 18.6143C21.4687 18.4284 21.6189 18.2781 21.8049 18.2781H23.9513C24.1372 18.2781 24.2874 18.4284 24.2874 18.6143C24.2874 18.8002 24.1372 18.9505 23.9513 18.9505H21.8049C21.6189 18.9505 21.4687 18.8002 21.4687 18.6143ZM18.6546 18.6143C18.6546 18.945 18.3866 19.213 18.0558 19.213C17.7251 19.213 17.4571 18.945 17.4571 18.6143C17.4571 18.2835 17.7251 18.0155 18.0558 18.0155C18.3866 18.0155 18.6546 18.2843 18.6546 18.6143ZM16.3796 18.0155C16.7104 18.0155 16.9784 18.2835 16.9784 18.6143C16.9784 18.945 16.7104 19.213 16.3796 19.213C16.0488 19.213 15.7808 18.945 15.7808 18.6143C15.7808 18.2843 16.0488 18.0155 16.3796 18.0155ZM24.5655 22.8746C24.7886 22.8746 24.9729 22.6902 24.9729 22.4671V20.89C24.9729 20.667 24.7886 20.4826 24.5655 20.4826H15.5531C15.33 20.4826 15.1457 20.667 15.1457 20.89V22.4671C15.1457 22.6902 15.33 22.8746 15.5531 22.8746H24.5655ZM19.732 21.0798C20.0628 21.0798 20.3308 21.3478 20.3308 21.6786C20.3308 22.0093 20.0628 22.2773 19.732 22.2773C19.4013 22.2773 19.1333 22.0093 19.1333 21.6786C19.1333 21.3478 19.4013 21.0798 19.732 21.0798ZM21.8049 22.0148C21.6189 22.0148 21.4687 21.8645 21.4687 21.6786C21.4687 21.4927 21.6189 21.3424 21.8049 21.3424H23.9513C24.1372 21.3424 24.2874 21.4927 24.2874 21.6786C24.2874 21.8645 24.1372 22.0148 23.9513 22.0148H21.8049ZM18.0558 21.0798C18.3866 21.0798 18.6546 21.3478 18.6546 21.6786C18.6546 22.0093 18.3866 22.2773 18.0558 22.2773C17.7251 22.2773 17.4571 22.0093 17.4571 21.6786C17.4571 21.3478 17.7251 21.0798 18.0558 21.0798ZM16.3796 21.0798C16.7104 21.0798 16.9784 21.3478 16.9784 21.6786C16.9784 22.0093 16.7104 22.2773 16.3796 22.2773C16.0488 22.2773 15.7808 22.0093 15.7808 21.6786C15.7808 21.3478 16.0488 21.0798 16.3796 21.0798Z" fill="white"/>
</svg>
