<svg width="40" height="40" viewBox="0 0 40 40" fill="none" xmlns="http://www.w3.org/2000/svg">
<rect width="40" height="40" rx="8" fill="#EE0B0C"/>
<g clip-path="url(#clip0_99_1063)">
<path d="M20 13.8477C19.015 13.8477 18.052 14.1398 17.233 14.687C16.414 15.2343 15.7756 16.0121 15.3986 16.9222C15.0217 17.8322 14.9231 18.8336 15.1152 19.7998C15.3074 20.7659 15.7817 21.6533 16.4783 22.3498C17.1748 23.0464 18.0622 23.5207 19.0284 23.7129C19.9945 23.9051 20.9959 23.8064 21.9059 23.4295C22.816 23.0525 23.5939 22.4142 24.1411 21.5951C24.6884 20.7761 24.9805 19.8132 24.9805 18.8281C24.9789 17.5077 24.4537 16.2418 23.52 15.3081C22.5863 14.3744 21.3204 13.8492 20 13.8477ZM22.9479 18.1479L20.1629 20.7846C19.9997 20.939 19.7835 21.0251 19.5588 21.0251C19.3341 21.0251 19.1179 20.939 18.9547 20.7846L17.0522 18.984C16.8838 18.8235 16.7859 18.6029 16.7799 18.3704C16.7739 18.138 16.8603 17.9126 17.0202 17.7437C17.18 17.5747 17.4003 17.4761 17.6327 17.4692C17.8652 17.4624 18.0909 17.548 18.2604 17.7072L19.5588 18.9377L21.7397 16.8734C21.8228 16.7911 21.9217 16.7262 22.0303 16.6825C22.1389 16.6389 22.2552 16.6174 22.3722 16.6193C22.4893 16.6212 22.6048 16.6464 22.7119 16.6936C22.8191 16.7407 22.9157 16.8088 22.9962 16.8938C23.0767 16.9788 23.1394 17.0791 23.1806 17.1886C23.2218 17.2982 23.2407 17.4149 23.2362 17.5319C23.2317 17.6489 23.2039 17.7638 23.1544 17.8698C23.1049 17.9759 23.0346 18.071 22.9479 18.1496V18.1479Z" fill="white"/>
<path d="M31.9238 7.84998C31.8062 7.76915 31.6708 7.71817 31.5291 7.70142C31.3874 7.68468 31.2437 7.70269 31.1105 7.75389C29.336 8.44058 27.3961 8.57872 25.5421 8.1504C23.6881 7.72209 22.0055 6.74705 20.7119 5.35154L20.6445 5.27947C20.5623 5.19129 20.4628 5.12097 20.3522 5.07289C20.2416 5.02481 20.1223 5 20.0018 5C19.8812 5 19.7619 5.02481 19.6513 5.07289C19.5407 5.12097 19.4412 5.19129 19.359 5.27947L19.2881 5.35154C17.9946 6.74719 16.3119 7.72232 14.4579 8.15064C12.6039 8.57896 10.664 8.44075 8.88945 7.75389C8.75634 7.70274 8.61277 7.68475 8.47115 7.70148C8.32953 7.7182 8.19411 7.76913 8.07656 7.84988C7.95902 7.93062 7.86289 8.03875 7.79647 8.16495C7.73005 8.29114 7.69533 8.4316 7.69531 8.5742V13.5846C7.6953 17.8466 8.78279 22.0381 10.8549 25.7625C12.927 29.4869 15.9151 32.6209 19.5365 34.8681C19.6757 34.9545 19.8362 35.0003 20 35.0003C20.1638 35.0003 20.3243 34.9545 20.4635 34.8681C24.0849 32.6209 27.073 29.4869 29.1451 25.7625C31.2172 22.0381 32.3047 17.8466 32.3047 13.5846V8.5742C32.3047 8.43165 32.27 8.29124 32.2037 8.16507C32.1373 8.0389 32.0413 7.93076 31.9238 7.84998ZM20 25.5664C18.6673 25.5664 17.3645 25.1712 16.2564 24.4308C15.1483 23.6904 14.2846 22.638 13.7746 21.4067C13.2646 20.1755 13.1312 18.8206 13.3912 17.5135C13.6512 16.2064 14.293 15.0058 15.2353 14.0634C16.1777 13.1211 17.3783 12.4793 18.6854 12.2193C19.9925 11.9593 21.3474 12.0927 22.5786 12.6027C23.8099 13.1128 24.8623 13.9764 25.6027 15.0845C26.3431 16.1926 26.7383 17.4954 26.7383 18.8281C26.7363 20.6146 26.0257 22.3273 24.7625 23.5906C23.4992 24.8538 21.7865 25.5644 20 25.5664Z" fill="white"/>
</g>
<defs>
<clipPath id="clip0_99_1063">
<rect width="30" height="30" fill="white" transform="translate(5 5)"/>
</clipPath>
</defs>
</svg>
