<svg width="40" height="40" viewBox="0 0 40 40" fill="none" xmlns="http://www.w3.org/2000/svg">
<rect width="40" height="40" rx="8" fill="#FFB116"/>
<path fill-rule="evenodd" clip-rule="evenodd" d="M12.6741 33.0707H27.9907C28.152 33.0707 28.2836 32.9391 28.2836 32.7777V31.8447C28.2836 31.1704 27.5932 30.6187 26.7492 30.6187H24.0103V27.76H30.2357C31.2253 27.76 32.035 26.9503 32.035 25.9606V16.6425L31.4305 16.374C31.2529 16.4601 31.0704 16.5357 30.884 16.6006L30.5304 17.5193V24.7291H16.5822C16.5822 28.4519 16.6544 27.2462 16.6544 30.6188H13.9155C13.0716 30.6188 12.3811 31.1704 12.3811 31.8447V32.7778C12.3812 32.8554 12.4122 32.9299 12.4671 32.9848C12.522 33.0396 12.5964 33.0705 12.6741 33.0707ZM22.9192 21.4883C22.8243 21.5665 22.7024 21.604 22.5801 21.5928C22.4577 21.5816 22.3446 21.5225 22.2655 21.4284C22.1864 21.3344 22.1476 21.2129 22.1576 21.0904C22.1675 20.9679 22.2254 20.8543 22.3186 20.7742L24.4142 19.0082L22.3186 17.2423C22.2254 17.1622 22.1675 17.0486 22.1576 16.9261C22.1476 16.8036 22.1864 16.6821 22.2655 16.588C22.3446 16.494 22.4577 16.4349 22.5801 16.4237C22.7024 16.4125 22.8243 16.45 22.9192 16.5281L25.4336 18.647C25.658 18.8311 25.6629 19.1766 25.4385 19.3652L22.9192 21.4883ZM18.3461 20.7743C18.4394 20.8543 18.4972 20.968 18.5072 21.0905C18.5171 21.213 18.4783 21.3344 18.3992 21.4285C18.3201 21.5226 18.2071 21.5816 18.0847 21.5928C17.9623 21.604 17.8404 21.5665 17.7455 21.4884L15.2262 19.3654C15.002 19.1768 15.0068 18.8313 15.2312 18.6472L17.7455 16.5284C17.8404 16.4503 17.9623 16.4127 18.0847 16.424C18.2071 16.4352 18.3201 16.4942 18.3992 16.5883C18.4783 16.6823 18.5171 16.8038 18.5072 16.9263C18.4972 17.0488 18.4394 17.1624 18.3461 17.2425L16.2505 19.0085L18.3461 20.7743ZM20.0115 22.0143C19.9963 22.0744 19.9693 22.1309 19.9321 22.1805C19.8949 22.2301 19.8482 22.2718 19.7947 22.3032C19.7412 22.3345 19.6821 22.355 19.6206 22.3633C19.5592 22.3717 19.4967 22.3677 19.4368 22.3517C19.3769 22.3357 19.3208 22.308 19.2717 22.2701C19.2227 22.2322 19.1816 22.185 19.1509 22.1311C19.1202 22.0772 19.1005 22.0178 19.093 21.9563C19.0855 21.8947 19.0902 21.8323 19.107 21.7726L20.6532 16.0023C20.6684 15.9422 20.6954 15.8857 20.7326 15.8361C20.7699 15.7865 20.8166 15.7448 20.87 15.7135C20.9235 15.6821 20.9827 15.6616 21.0441 15.6533C21.1055 15.6449 21.168 15.6489 21.2279 15.6649C21.2878 15.6809 21.3439 15.7086 21.393 15.7465C21.4421 15.7844 21.4832 15.8316 21.5138 15.8855C21.5445 15.9394 21.5642 15.9988 21.5717 16.0603C21.5793 16.1219 21.5745 16.1843 21.5577 16.244L20.0115 22.0143ZM9.82467 21.6559L10.1343 20.8515H11.4479L11.7576 21.6559C12.186 21.7579 12.5955 21.9277 12.9705 22.1587L13.7587 21.8087L14.6877 22.7376L14.3377 23.5257C14.5687 23.9007 14.7385 24.3102 14.8405 24.7388L15.6448 25.0483V26.3621L14.8406 26.6715C14.7386 27.1001 14.5688 27.5097 14.3377 27.8848L14.6877 28.6728L13.7588 29.6017L12.9706 29.2517C12.5956 29.4827 12.1862 29.6525 11.7577 29.7545L11.4481 30.5588H10.1343L9.82473 29.7547C9.39615 29.6526 8.98659 29.4829 8.61148 29.2518L7.82352 29.6017L6.89457 28.6728L7.24461 27.8846C7.01357 27.5095 6.84382 27.1001 6.74176 26.6716L5.9375 26.362V25.0483L6.74164 24.7388C6.8437 24.3102 7.01347 23.9006 7.24455 23.5255L6.89463 22.7376L7.82357 21.8086L8.61172 22.1587C8.98675 21.9277 9.39621 21.758 9.82467 21.6559ZM10.7911 23.2138C12.1672 23.2138 13.2825 24.3291 13.2825 25.7052C13.2825 27.0812 12.1672 28.1965 10.7911 28.1965C9.41504 28.1965 8.29977 27.0812 8.29977 25.7052C8.29977 24.3291 9.41504 23.2138 10.7911 23.2138ZM28.2424 7.73364L28.552 6.92932H29.8657L30.1753 7.73364C30.6038 7.83569 31.0133 8.00544 31.3883 8.23649L32.1765 7.88645L33.1054 8.8154L32.7554 9.60348C32.9865 9.97852 33.1563 10.388 33.2583 10.8165L34.0625 11.126V12.4398L33.2584 12.7493C33.1563 13.1778 32.9865 13.5874 32.7554 13.9625L33.1054 14.7505L32.1765 15.6794L31.3883 15.3293C31.0133 15.5604 30.6038 15.7301 30.1753 15.8322L29.8657 16.6365H28.552L28.2425 15.8323C27.8139 15.7303 27.4044 15.5605 27.0293 15.3294L26.2413 15.6794L25.3124 14.7504L25.6624 13.9622C25.4314 13.5872 25.2617 13.1777 25.1596 12.7493L24.3553 12.4397V11.1259L25.1594 10.8164C25.2615 10.3879 25.4313 9.97829 25.6623 9.60319L25.3123 8.81522L26.2413 7.88627L27.0294 8.23631C27.4045 8.00539 27.814 7.8357 28.2424 7.73364ZM29.2089 9.29153C27.8328 9.29153 26.7175 10.4069 26.7175 11.7829C26.7175 13.159 27.8328 14.2742 29.2089 14.2742C30.585 14.2742 31.7002 13.159 31.7002 11.7829C31.7002 10.4069 30.585 9.29153 29.2089 9.29153ZM10.1343 19.914H9.49062L9.11592 20.8875C8.95053 20.9451 8.78822 21.0111 8.62965 21.0854V13.5822C8.62965 12.5926 9.43936 11.7829 10.4289 11.7829H23.4178V13.0834L23.948 13.2876H10.3838C10.3177 13.2878 10.2544 13.3141 10.2076 13.3609C10.1609 13.4076 10.1345 13.471 10.1343 13.5371L10.1343 19.914Z" fill="white"/>
</svg>
