<svg width="87" height="12" viewBox="0 0 87 12" fill="none" xmlns="http://www.w3.org/2000/svg">
<path d="M11.372 0.84H12.74L10.004 9.048H8.73202L6.71602 3.168L4.68802 9.048H3.41602L0.692016 0.84H2.04802L4.06402 7.032L6.16402 0.84H7.26802L9.36802 7.032L11.372 0.84ZM15.4393 3.216C17.3113 3.216 18.4753 4.644 18.2353 6.552H13.8073C13.9273 7.404 14.4673 8.052 15.5233 8.052C16.0753 8.052 16.4953 7.884 16.7233 7.524H18.0913C17.7313 8.544 16.7353 9.144 15.5113 9.144C13.7353 9.144 12.5353 7.86 12.5353 6.18C12.5353 4.512 13.7233 3.216 15.4393 3.216ZM15.4513 4.272C14.5153 4.272 13.9753 4.896 13.8313 5.688H16.9993C16.9273 4.764 16.3273 4.272 15.4513 4.272ZM22.703 3.216C24.287 3.216 25.571 4.536 25.571 6.168C25.571 7.824 24.287 9.144 22.703 9.144C21.983 9.144 21.371 8.928 20.903 8.556V9H19.655V0.48H20.903V3.792C21.371 3.432 21.983 3.216 22.703 3.216ZM22.523 8.016C23.567 8.016 24.323 7.176 24.323 6.168C24.323 5.172 23.567 4.344 22.523 4.344C21.899 4.344 21.323 4.548 20.903 5.136V7.212C21.323 7.8 21.899 8.016 22.523 8.016ZM33.3102 0.84C35.8182 0.84 37.6422 2.544 37.6422 4.872C37.6422 7.26 35.8182 9 33.3102 9H30.2982V0.84H33.3102ZM33.3102 7.8C35.0262 7.8 36.3342 6.552 36.3342 4.872C36.3342 3.252 35.0262 2.028 33.3102 2.028H31.5942V7.8H33.3102ZM41.6072 3.216C43.4792 3.216 44.6432 4.644 44.4032 6.552H39.9752C40.0952 7.404 40.6352 8.052 41.6912 8.052C42.2432 8.052 42.6632 7.884 42.8912 7.524H44.2592C43.8992 8.544 42.9032 9.144 41.6792 9.144C39.9032 9.144 38.7032 7.86 38.7032 6.18C38.7032 4.512 39.8912 3.216 41.6072 3.216ZM41.6192 4.272C40.6832 4.272 40.1432 4.896 39.9992 5.688H43.1672C43.0952 4.764 42.4952 4.272 41.6192 4.272ZM49.8531 3.36H51.1731L48.5451 9H47.4531L44.8251 3.36H46.1451L48.0051 7.404L49.8531 3.36ZM54.4627 3.216C56.3347 3.216 57.4987 4.644 57.2587 6.552H52.8307C52.9507 7.404 53.4907 8.052 54.5467 8.052C55.0987 8.052 55.5187 7.884 55.7467 7.524H57.1147C56.7547 8.544 55.7587 9.144 54.5347 9.144C52.7587 9.144 51.5587 7.86 51.5587 6.18C51.5587 4.512 52.7467 3.216 54.4627 3.216ZM54.4747 4.272C53.5387 4.272 52.9987 4.896 52.8547 5.688H56.0227C55.9507 4.764 55.3507 4.272 54.4747 4.272ZM58.6785 0.48H59.9265V9H58.6785V0.48ZM64.3321 3.216C66.0841 3.216 67.3321 4.452 67.3321 6.18C67.3321 7.908 66.0841 9.144 64.3321 9.144C62.5801 9.144 61.3321 7.908 61.3321 6.18C61.3321 4.452 62.5801 3.216 64.3321 3.216ZM64.3321 8.016C65.3521 8.016 66.0841 7.236 66.0841 6.18C66.0841 5.112 65.3521 4.344 64.3321 4.344C63.3121 4.344 62.5801 5.112 62.5801 6.18C62.5801 7.236 63.3121 8.016 64.3321 8.016ZM71.8163 3.228C73.4003 3.228 74.6843 4.536 74.6843 6.18C74.6843 7.824 73.4003 9.132 71.8163 9.132C71.0963 9.132 70.4843 8.916 70.0163 8.556V11.784H68.7683V3.36H70.0163V3.804C70.4843 3.444 71.0963 3.228 71.8163 3.228ZM71.6363 8.052C72.6803 8.052 73.4363 7.188 73.4363 6.18C73.4363 5.172 72.6803 4.308 71.6363 4.308C71.0123 4.308 70.4363 4.548 70.0163 5.148V7.212C70.4363 7.812 71.0123 8.052 71.6363 8.052ZM78.7557 3.216C80.6277 3.216 81.7917 4.644 81.5517 6.552H77.1237C77.2437 7.404 77.7837 8.052 78.8397 8.052C79.3917 8.052 79.8117 7.884 80.0397 7.524H81.4077C81.0477 8.544 80.0517 9.144 78.8277 9.144C77.0517 9.144 75.8517 7.86 75.8517 6.18C75.8517 4.512 77.0397 3.216 78.7557 3.216ZM78.7677 4.272C77.8317 4.272 77.2917 4.896 77.1477 5.688H80.3157C80.2437 4.764 79.6437 4.272 78.7677 4.272ZM84.1608 4.128C84.6768 3.564 85.3848 3.24 86.2488 3.24V4.416C85.3488 4.452 84.6648 4.788 84.1608 5.448V9H82.9128V3.36H84.1608V4.128Z" fill="black"/>
</svg>
